<svg xmlns="http://www.w3.org/2000/svg" width="220.094" height="16.094" viewBox="0 0 220.094 16.094">
  <metadata><?xpacket begin="﻿" id="W5M0MpCehiHzreSzNTczkc9d"?>
<x:xmpmeta xmlns:x="adobe:ns:meta/" x:xmptk="Adobe XMP Core 5.6-c138 79.159824, 2016/09/14-01:09:01        ">
   <rdf:RDF xmlns:rdf="http://www.w3.org/1999/02/22-rdf-syntax-ns#">
      <rdf:Description rdf:about=""/>
   </rdf:RDF>
</x:xmpmeta>
                                                                                                    
                                                                                                    
                                                                                                    
                                                                                                    
                                                                                                    
                                                                                                    
                                                                                                    
                                                                                                    
                                                                                                    
                                                                                                    
                                                                                                    
                                                                                                    
                                                                                                    
                                                                                                    
                                                                                                    
                                                                                                    
                                                                                                    
                                                                                                    
                                                                                                    
                                                                                                    
                           
<?xpacket end="w"?></metadata>
<defs>
    <style>
      .cls-1 {
        fill: #fff;
        fill-rule: evenodd;
      }
    </style>
  </defs>
  <path id="FREE_HOLIDAY_SHIPPING" data-name="FREE HOLIDAY SHIPPING" class="cls-1" d="M9.507,40.728V34.613h4.379V31.775H9.507V27.947h4.836V25.109H5.934v15.62H9.507Zm17.166,0-2.266-6.292A2.875,2.875,0,0,0,25.91,33a6.29,6.29,0,0,0,.457-2.629V29.795a6.224,6.224,0,0,0-.534-2.871,2.946,2.946,0,0,0-1.776-1.408,11.873,11.873,0,0,0-3.529-.407H16.238v15.62h3.573v-5.7H21.2l1.677,5.7h3.79Zm-6.209-8.514H19.811v-4.29h0.653a4.337,4.337,0,0,1,1.416.176,1.059,1.059,0,0,1,.654.605,3.526,3.526,0,0,1,.174,1.265v0.22a3.115,3.115,0,0,1-.185,1.2,1.174,1.174,0,0,1-.664.627,3.808,3.808,0,0,1-1.394.2h0Zm16.97,8.514v-2.75H32.38v-3.85h4.379v-2.75H32.38v-3.52h4.836v-2.75H28.807v15.62h8.627Zm10.827,0v-2.75H43.207v-3.85h4.379v-2.75H43.207v-3.52h4.836v-2.75H39.634v15.62h8.627Zm11.524,0V34.414h3.355v6.314h3.573V25.109H63.139v6.072H59.784V25.109H56.212v15.62h3.573ZM74.532,40.97a6.7,6.7,0,0,0,3.3-.66A3.7,3.7,0,0,0,79.455,38a18.241,18.241,0,0,0,.479-4.8V32.633a18.243,18.243,0,0,0-.479-4.8,3.7,3.7,0,0,0-1.623-2.31,6.7,6.7,0,0,0-3.3-.66,6.7,6.7,0,0,0-3.3.66,3.662,3.662,0,0,0-1.612,2.31,18.628,18.628,0,0,0-.468,4.8V33.2A18.626,18.626,0,0,0,69.62,38a3.662,3.662,0,0,0,1.612,2.31,6.7,6.7,0,0,0,3.3.66h0Zm0-2.772a1.31,1.31,0,0,1-1.078-.44,3.1,3.1,0,0,1-.5-1.518,26.745,26.745,0,0,1-.142-3.212v-0.22a26.749,26.749,0,0,1,.142-3.212,3.106,3.106,0,0,1,.5-1.518,1.311,1.311,0,0,1,1.078-.44,1.344,1.344,0,0,1,1.089.44,3.046,3.046,0,0,1,.512,1.529,26.854,26.854,0,0,1,.142,3.2v0.22a26.856,26.856,0,0,1-.142,3.2,3.045,3.045,0,0,1-.512,1.529,1.343,1.343,0,0,1-1.089.44h0Zm15.663,2.53V37.6H85.969v-12.5H82.4v15.62h7.8Zm5.468,0V25.109H92.09v15.62h3.573Zm2.875,0h4.6a8,8,0,0,0,3.573-.638,3.638,3.638,0,0,0,1.765-2.244,15.824,15.824,0,0,0,.522-4.642V32.633a15.826,15.826,0,0,0-.522-4.642,3.64,3.64,0,0,0-1.765-2.244,8,8,0,0,0-3.573-.638h-4.6v15.62Zm3.572-2.838V27.925h0.85a2.341,2.341,0,0,1,1.514.407,2.278,2.278,0,0,1,.664,1.408,19.468,19.468,0,0,1,.175,3.069v0.22a19.462,19.462,0,0,1-.175,3.069,2.224,2.224,0,0,1-.664,1.4,2.388,2.388,0,0,1-1.514.4h-0.85Zm20.02,2.838-3.747-15.62h-4.6l-3.747,15.62h3.616l0.545-2.97h3.7l0.545,2.97h3.681Zm-6.078-12.98,1.351,7.326h-2.7Zm12.875-2.64-2.047,6.578-2.048-6.578H121.02l4.03,10.054v5.566h3.572V35.162l4.03-10.054h-3.725ZM143.762,40.97a7.835,7.835,0,0,0,3.007-.473,3.039,3.039,0,0,0,1.612-1.529,6.7,6.7,0,0,0,.5-2.838,5.654,5.654,0,0,0-.643-2.838,3.474,3.474,0,0,0-1.852-1.573L145,31.2l-0.762-.308a7.913,7.913,0,0,1-1.046-.462,1.592,1.592,0,0,1-.577-0.572,1.925,1.925,0,0,1-.229-1.012,1.238,1.238,0,0,1,1.416-1.386,1.4,1.4,0,0,1,1.133.4,1.964,1.964,0,0,1,.326,1.254v0.33h3.246v-0.33a5.964,5.964,0,0,0-.435-2.519,2.624,2.624,0,0,0-1.416-1.32,7.311,7.311,0,0,0-2.723-.407,5.665,5.665,0,0,0-3.78,1.012,4.3,4.3,0,0,0-1.144,3.366,5.1,5.1,0,0,0,.48,2.409,3.319,3.319,0,0,0,1.165,1.309,11.448,11.448,0,0,0,1.841.858l0.828,0.33q0.849,0.33,1.241.528a1.694,1.694,0,0,1,.676.671,2.51,2.51,0,0,1,.283,1.287,2,2,0,0,1-.36,1.309,1.59,1.59,0,0,1-1.274.429,1.613,1.613,0,0,1-1.394-.539,3.171,3.171,0,0,1-.392-1.815V35.514h-3.29v0.572a7.389,7.389,0,0,0,.458,2.893A2.872,2.872,0,0,0,140.8,40.5a7.489,7.489,0,0,0,2.962.473h0Zm10.936-.242V34.414h3.355v6.314h3.572V25.109h-3.572v6.072H154.7V25.109h-3.573v15.62H154.7Zm13.376,0V25.109H164.5v15.62h3.573Zm2.875,0h3.572V35.295h0.741a11.319,11.319,0,0,0,3.518-.429,3,3,0,0,0,1.787-1.463,6.449,6.449,0,0,0,.533-2.9V29.927A6.511,6.511,0,0,0,180.567,27a3,3,0,0,0-1.787-1.463,11.316,11.316,0,0,0-3.518-.429h-4.313v15.62Zm3.572-8.25V27.925H175.2a3.808,3.808,0,0,1,1.394.2,1.129,1.129,0,0,1,.654.649,3.891,3.891,0,0,1,.174,1.331v0.22a3.8,3.8,0,0,1-.174,1.309,1.129,1.129,0,0,1-.654.649,3.809,3.809,0,0,1-1.394.2h-0.676Zm8.736,8.25h3.573V35.295h0.74a11.314,11.314,0,0,0,3.518-.429,3,3,0,0,0,1.787-1.463,6.434,6.434,0,0,0,.534-2.9V29.927A6.5,6.5,0,0,0,192.875,27a3,3,0,0,0-1.787-1.463,11.311,11.311,0,0,0-3.518-.429h-4.313v15.62Zm3.573-8.25V27.925h0.675a3.8,3.8,0,0,1,1.394.2,1.129,1.129,0,0,1,.654.649,3.891,3.891,0,0,1,.174,1.331v0.22a3.8,3.8,0,0,1-.174,1.309,1.129,1.129,0,0,1-.654.649,3.805,3.805,0,0,1-1.394.2H186.83Zm12.308,8.25V25.109h-3.573v15.62h3.573Zm10.652-5.214-3.812-10.406h-3.965v15.62h3.072V30.323L208.9,40.728h3.965V25.109H209.79V35.514Zm11.088-3.564v2.816h1.5v0.528A4.769,4.769,0,0,1,222,37.56a1.386,1.386,0,0,1-1.3.638,1.309,1.309,0,0,1-1.078-.44,3.1,3.1,0,0,1-.5-1.518,26.642,26.642,0,0,1-.142-3.212v-0.22a26.647,26.647,0,0,1,.142-3.212,3.1,3.1,0,0,1,.5-1.518,1.31,1.31,0,0,1,1.078-.44,1.326,1.326,0,0,1,1.176.539,3.544,3.544,0,0,1,.371,1.9v0.066h3.681V30.081a7.452,7.452,0,0,0-.544-3.157,3.124,3.124,0,0,0-1.667-1.6,8.089,8.089,0,0,0-3.017-.462,6.692,6.692,0,0,0-3.3.66,3.7,3.7,0,0,0-1.623,2.31,18.206,18.206,0,0,0-.48,4.8V33.2a18.2,18.2,0,0,0,.48,4.8,3.7,3.7,0,0,0,1.623,2.31,6.692,6.692,0,0,0,3.3.66,7.592,7.592,0,0,0,3.126-.528,3.287,3.287,0,0,0,1.677-1.837,10.16,10.16,0,0,0,.534-3.707V31.951h-5.163Z" transform="translate(-5.938 -24.875)"/>
</svg>
