<svg xmlns="http://www.w3.org/2000/svg" width="226.563" height="25.625" viewBox="0 0 226.563 25.625">
  <metadata><?xpacket begin="﻿" id="W5M0MpCehiHzreSzNTczkc9d"?>
<x:xmpmeta xmlns:x="adobe:ns:meta/" x:xmptk="Adobe XMP Core 5.6-c138 79.159824, 2016/09/14-01:09:01        ">
   <rdf:RDF xmlns:rdf="http://www.w3.org/1999/02/22-rdf-syntax-ns#">
      <rdf:Description rdf:about=""/>
   </rdf:RDF>
</x:xmpmeta>
                                                                                                    
                                                                                                    
                                                                                                    
                                                                                                    
                                                                                                    
                                                                                                    
                                                                                                    
                                                                                                    
                                                                                                    
                                                                                                    
                                                                                                    
                                                                                                    
                                                                                                    
                                                                                                    
                                                                                                    
                                                                                                    
                                                                                                    
                                                                                                    
                                                                                                    
                                                                                                    
                           
<?xpacket end="w"?></metadata>
<defs>
    <style>
      .cls-1 {
        fill: #fff;
        fill-rule: evenodd;
      }
    </style>
  </defs>
  <path id="HOLIDAY_CHEER" data-name="HOLIDAY CHEER" class="cls-1" d="M12.548,44.6V34.555h5.39V44.6h5.74V19.75h-5.74v9.66h-5.39V19.75H6.808V44.6h5.74Zm23.695,0.385a10.847,10.847,0,0,0,5.3-1.05,5.892,5.892,0,0,0,2.608-3.675,28.747,28.747,0,0,0,.77-7.63V31.72a28.751,28.751,0,0,0-.77-7.63,5.892,5.892,0,0,0-2.608-3.675,10.847,10.847,0,0,0-5.3-1.05,10.847,10.847,0,0,0-5.3,1.05,5.829,5.829,0,0,0-2.59,3.675,29.362,29.362,0,0,0-.753,7.63v0.91a29.358,29.358,0,0,0,.753,7.63,5.829,5.829,0,0,0,2.59,3.675,10.847,10.847,0,0,0,5.3,1.05h0Zm0-4.41a2.115,2.115,0,0,1-1.733-.7,4.905,4.905,0,0,1-.8-2.415,42.129,42.129,0,0,1-.227-5.11V32a42.145,42.145,0,0,1,.227-5.11,4.911,4.911,0,0,1,.8-2.415,2.117,2.117,0,0,1,1.733-.7,2.17,2.17,0,0,1,1.75.7,4.816,4.816,0,0,1,.823,2.433A42.309,42.309,0,0,1,39.043,32v0.35a42.309,42.309,0,0,1-.227,5.093,4.813,4.813,0,0,1-.823,2.432,2.168,2.168,0,0,1-1.75.7h0ZM61.408,44.6V39.63h-6.79V19.75h-5.74V44.6h12.53Zm8.785,0V19.75h-5.74V44.6h5.74Zm4.619,0H82.2a12.96,12.96,0,0,0,5.74-1.015,5.8,5.8,0,0,0,2.835-3.57,24.9,24.9,0,0,0,.84-7.385V31.72a24.908,24.908,0,0,0-.84-7.385,5.8,5.8,0,0,0-2.835-3.57A12.97,12.97,0,0,0,82.2,19.75H74.812V44.6Zm5.74-4.515V24.23h1.365a3.79,3.79,0,0,1,2.433.647,3.617,3.617,0,0,1,1.067,2.24A30.886,30.886,0,0,1,85.7,32v0.35a30.874,30.874,0,0,1-.28,4.883,3.53,3.53,0,0,1-1.067,2.223,3.866,3.866,0,0,1-2.433.63H80.552ZM112.717,44.6L106.7,19.75H99.312L93.292,44.6H99.1l0.875-4.725h5.95L106.8,44.6h5.915Zm-9.765-20.65,2.17,11.655h-4.34Zm20.685-4.2-3.29,10.465-3.29-10.465h-6.125l6.475,16V44.6h5.74V35.745l6.475-15.995h-5.985Zm24.6,25.235a11.206,11.206,0,0,0,4.865-.875,5.36,5.36,0,0,0,2.625-3.01,17.164,17.164,0,0,0,.84-6.055v-0.1h-5.915v0.1a17.927,17.927,0,0,1-.245,3.4,3.119,3.119,0,0,1-.753,1.662,2,2,0,0,1-1.417.473,1.924,1.924,0,0,1-1.61-.665,4.988,4.988,0,0,1-.735-2.38,46.555,46.555,0,0,1-.21-5.18V32a46.564,46.564,0,0,1,.21-5.18,4.994,4.994,0,0,1,.735-2.38,1.926,1.926,0,0,1,1.61-.665,1.794,1.794,0,0,1,1.715,1,9.088,9.088,0,0,1,.525,3.763V28.64H156.4V28.535a14.759,14.759,0,0,0-.84-5.565,5.1,5.1,0,0,0-2.608-2.8,11.5,11.5,0,0,0-4.707-.8,10.353,10.353,0,0,0-5.18,1.05,5.838,5.838,0,0,0-2.52,3.675,30.047,30.047,0,0,0-.735,7.63v0.91a30.043,30.043,0,0,0,.735,7.63,5.838,5.838,0,0,0,2.52,3.675,10.353,10.353,0,0,0,5.18,1.05h0Zm17.814-.385V34.555h5.39V44.6h5.74V19.75h-5.74v9.66h-5.39V19.75h-5.74V44.6h5.74Zm29.61,0V40.225h-8.12V34.1h7.035V29.725h-7.035v-5.6h7.77V19.75h-13.51V44.6h13.86Zm17.4,0V40.225h-8.12V34.1h7.035V29.725h-7.035v-5.6h7.77V19.75H199.2V44.6h13.86Zm20.3,0-3.64-10.01a4.6,4.6,0,0,0,2.415-2.293,9.92,9.92,0,0,0,.735-4.182V27.2a9.825,9.825,0,0,0-.857-4.567,4.727,4.727,0,0,0-2.853-2.24,19.263,19.263,0,0,0-5.67-.647h-6.9V44.6h5.74V35.535h2.24l2.7,9.065h6.09Zm-9.975-13.545h-1.05V24.23h1.05a7.036,7.036,0,0,1,2.275.28,1.7,1.7,0,0,1,1.05.963,5.549,5.549,0,0,1,.28,2.012v0.35a4.911,4.911,0,0,1-.3,1.908,1.882,1.882,0,0,1-1.068,1,6.172,6.172,0,0,1-2.24.315h0Z" transform="translate(-6.813 -19.375)"/>
</svg>
