<svg xmlns="http://www.w3.org/2000/svg" width="247.344" height="24.875" viewBox="0 0 247.344 24.875">
  <metadata><?xpacket begin="﻿" id="W5M0MpCehiHzreSzNTczkc9d"?>
<x:xmpmeta xmlns:x="adobe:ns:meta/" x:xmptk="Adobe XMP Core 5.6-c138 79.159824, 2016/09/14-01:09:01        ">
   <rdf:RDF xmlns:rdf="http://www.w3.org/1999/02/22-rdf-syntax-ns#">
      <rdf:Description rdf:about=""/>
   </rdf:RDF>
</x:xmpmeta>
                                                                                                    
                                                                                                    
                                                                                                    
                                                                                                    
                                                                                                    
                                                                                                    
                                                                                                    
                                                                                                    
                                                                                                    
                                                                                                    
                                                                                                    
                                                                                                    
                                                                                                    
                                                                                                    
                                                                                                    
                                                                                                    
                                                                                                    
                                                                                                    
                                                                                                    
                                                                                                    
                           
<?xpacket end="w"?></metadata>
<defs>
    <style>
      .cls-1 {
        fill: #fff;
        fill-rule: evenodd;
      }
    </style>
  </defs>
  <path id="UNDER_THE_HOOD" data-name="UNDER THE HOOD" class="cls-1" d="M14.734,44.978a11.358,11.358,0,0,0,4.913-.85A4.9,4.9,0,0,0,22.1,41.272a17.547,17.547,0,0,0,.731-5.746V20.464H17.114v15.47a15.64,15.64,0,0,1-.2,2.89,2.447,2.447,0,0,1-.714,1.445,2.225,2.225,0,0,1-1.462.425,2.224,2.224,0,0,1-1.462-.425,2.447,2.447,0,0,1-.714-1.445,15.64,15.64,0,0,1-.2-2.89V20.464H6.642V35.526a17.531,17.531,0,0,0,.731,5.746,4.893,4.893,0,0,0,2.448,2.856,11.354,11.354,0,0,0,4.913.85h0Zm24.65-8.432-5.95-16.082H27.246V44.6H32.04V28.522L37.99,44.6h6.188V20.464H39.384V36.546ZM48.7,44.6h7.174a12.59,12.59,0,0,0,5.576-.986A5.632,5.632,0,0,0,64.2,40.15a24.193,24.193,0,0,0,.816-7.174V32.092a24.2,24.2,0,0,0-.816-7.174A5.634,5.634,0,0,0,61.45,21.45a12.6,12.6,0,0,0-5.576-.986H48.7V44.6Zm5.576-4.386v-15.4H55.6a3.681,3.681,0,0,1,2.363.629A3.514,3.514,0,0,1,59,27.621a30,30,0,0,1,.272,4.743V32.7A29.991,29.991,0,0,1,59,37.447a3.43,3.43,0,0,1-1.037,2.159,3.755,3.755,0,0,1-2.363.612H54.276ZM82.291,44.6v-4.25H74.4V34.4h6.834v-4.25H74.4v-5.44h7.548v-4.25H68.827V44.6H82.291Zm19.72,0L98.475,34.88a4.468,4.468,0,0,0,2.346-2.227,9.637,9.637,0,0,0,.714-4.063V27.706a9.54,9.54,0,0,0-.833-4.437,4.591,4.591,0,0,0-2.771-2.176,18.708,18.708,0,0,0-5.508-.629h-6.7V44.6H91.3V35.8h2.176L96.1,44.6h5.916Zm-9.69-13.158H91.3v-6.63h1.02a6.834,6.834,0,0,1,2.21.272,1.647,1.647,0,0,1,1.02.935,5.4,5.4,0,0,1,.272,1.955v0.34a4.771,4.771,0,0,1-.289,1.853,1.826,1.826,0,0,1-1.037.969,6,6,0,0,1-2.176.306h0ZM122.513,44.6V25.292h4.794V20.464h-15.13v4.828h4.76V44.6h5.576Zm13.124,0V34.846h5.236V44.6h5.576V20.464h-5.576v9.384h-5.236V20.464h-5.576V44.6h5.576Zm28.763,0v-4.25h-7.888V34.4h6.834v-4.25h-6.834v-5.44h7.548v-4.25H150.936V44.6H164.4Zm17.986,0V34.846h5.236V44.6H193.2V20.464h-5.576v9.384h-5.236V20.464H176.81V44.6h5.576ZM205.4,44.978a10.537,10.537,0,0,0,5.151-1.02,5.724,5.724,0,0,0,2.533-3.57,27.9,27.9,0,0,0,.748-7.412V32.092a27.9,27.9,0,0,0-.748-7.412,5.724,5.724,0,0,0-2.533-3.57,13.516,13.516,0,0,0-10.3,0,5.661,5.661,0,0,0-2.516,3.57,28.551,28.551,0,0,0-.731,7.412v0.884a28.548,28.548,0,0,0,.731,7.412,5.661,5.661,0,0,0,2.516,3.57,10.537,10.537,0,0,0,5.151,1.02h0Zm0-4.284a2.054,2.054,0,0,1-1.683-.68,4.764,4.764,0,0,1-.782-2.346,41.064,41.064,0,0,1-.221-4.964v-0.34a41.076,41.076,0,0,1,.221-4.964,4.768,4.768,0,0,1,.782-2.346,2.056,2.056,0,0,1,1.683-.68,2.107,2.107,0,0,1,1.7.68,4.674,4.674,0,0,1,.8,2.363,41.136,41.136,0,0,1,.221,4.947V32.7a41.136,41.136,0,0,1-.221,4.947,4.672,4.672,0,0,1-.8,2.363,2.105,2.105,0,0,1-1.7.68h0ZM225.4,44.978a10.537,10.537,0,0,0,5.151-1.02,5.724,5.724,0,0,0,2.533-3.57,27.94,27.94,0,0,0,.748-7.412V32.092a27.943,27.943,0,0,0-.748-7.412,5.724,5.724,0,0,0-2.533-3.57,13.516,13.516,0,0,0-10.3,0,5.661,5.661,0,0,0-2.516,3.57A28.507,28.507,0,0,0,217,32.092v0.884a28.5,28.5,0,0,0,.731,7.412,5.661,5.661,0,0,0,2.516,3.57,10.537,10.537,0,0,0,5.151,1.02h0Zm0-4.284a2.054,2.054,0,0,1-1.683-.68,4.764,4.764,0,0,1-.782-2.346,40.856,40.856,0,0,1-.221-4.964v-0.34a40.867,40.867,0,0,1,.221-4.964,4.768,4.768,0,0,1,.782-2.346,2.056,2.056,0,0,1,1.683-.68,2.108,2.108,0,0,1,1.7.68,4.683,4.683,0,0,1,.8,2.363,41.136,41.136,0,0,1,.221,4.947V32.7a41.136,41.136,0,0,1-.221,4.947,4.681,4.681,0,0,1-.8,2.363,2.107,2.107,0,0,1-1.7.68h0Zm12.274,3.91h7.174a12.591,12.591,0,0,0,5.576-.986,5.632,5.632,0,0,0,2.754-3.468,24.193,24.193,0,0,0,.816-7.174V32.092a24.2,24.2,0,0,0-.816-7.174,5.634,5.634,0,0,0-2.754-3.468,12.6,12.6,0,0,0-5.576-.986h-7.174V44.6Zm5.576-4.386v-15.4h1.326a3.681,3.681,0,0,1,2.363.629,3.515,3.515,0,0,1,1.037,2.176,30.024,30.024,0,0,1,.272,4.743V32.7a30.015,30.015,0,0,1-.272,4.743,3.431,3.431,0,0,1-1.037,2.159,3.756,3.756,0,0,1-2.363.612h-1.326Z" transform="translate(-6.656 -20.094)"/>
</svg>
