<svg id="Frame_3" data-name="Frame 3" xmlns="http://www.w3.org/2000/svg" width="154.781" height="86.781" viewBox="0 0 154.781 86.781">
  <metadata><?xpacket begin="﻿" id="W5M0MpCehiHzreSzNTczkc9d"?>
<x:xmpmeta xmlns:x="adobe:ns:meta/" x:xmptk="Adobe XMP Core 5.6-c138 79.159824, 2016/09/14-01:09:01        ">
   <rdf:RDF xmlns:rdf="http://www.w3.org/1999/02/22-rdf-syntax-ns#">
      <rdf:Description rdf:about=""/>
   </rdf:RDF>
</x:xmpmeta>
                                                                                                    
                                                                                                    
                                                                                                    
                                                                                                    
                                                                                                    
                                                                                                    
                                                                                                    
                                                                                                    
                                                                                                    
                                                                                                    
                                                                                                    
                                                                                                    
                                                                                                    
                                                                                                    
                                                                                                    
                                                                                                    
                                                                                                    
                                                                                                    
                                                                                                    
                                                                                                    
                           
<?xpacket end="w"?></metadata>
<defs>
    <style>
      .cls-1 {
        fill: #fff;
        fill-rule: evenodd;
      }
    </style>
  </defs>
  <path id="THIS_HOLIDAY" data-name="THIS HOLIDAY" class="cls-1" d="M10.186,342.194V326.858h3.8v-3.834H2v3.834H5.768v15.336h4.418Zm10.4,0v-7.749h4.148v7.749h4.418v-19.17H24.731v7.452H20.583v-7.452H16.166v19.17h4.418Zm16.539,0v-19.17H32.7v19.17h4.418Zm8.916,0.3a9.749,9.749,0,0,0,3.717-.581,3.736,3.736,0,0,0,1.993-1.876,8.173,8.173,0,0,0,.62-3.483,6.894,6.894,0,0,0-.795-3.483,4.289,4.289,0,0,0-2.29-1.931q-1.5-.552-1.711-0.634l-0.943-.378a9.83,9.83,0,0,1-1.293-.567,1.973,1.973,0,0,1-.714-0.7,2.354,2.354,0,0,1-.283-1.242,1.526,1.526,0,0,1,1.751-1.7,1.737,1.737,0,0,1,1.4.486,2.391,2.391,0,0,1,.4,1.539v0.405H51.91v-0.405a7.268,7.268,0,0,0-.539-3.092,3.237,3.237,0,0,0-1.751-1.62,9.119,9.119,0,0,0-3.367-.5q-3.26,0-4.674,1.242T40.166,328.1a6.228,6.228,0,0,0,.593,2.956,4.086,4.086,0,0,0,1.441,1.607,14.232,14.232,0,0,0,2.276,1.053l1.024,0.4q1.051,0.405,1.535.648a2.094,2.094,0,0,1,.835.823,3.056,3.056,0,0,1,.35,1.58,2.447,2.447,0,0,1-.445,1.606,1.977,1.977,0,0,1-1.576.527,2,2,0,0,1-1.724-.662,3.871,3.871,0,0,1-.485-2.227V335.8H39.923v0.7a9,9,0,0,0,.566,3.55,3.534,3.534,0,0,0,1.886,1.863,9.326,9.326,0,0,0,3.663.581h0Zm20.633-.3v-7.749H70.82v7.749h4.418v-19.17H70.82v7.452H66.671v-7.452H62.254v19.17h4.418Zm18.236,0.3a8.332,8.332,0,0,0,4.081-.81A4.545,4.545,0,0,0,91,338.846a22.228,22.228,0,0,0,.593-5.886v-0.7A22.228,22.228,0,0,0,91,326.372a4.545,4.545,0,0,0-2.007-2.835,8.332,8.332,0,0,0-4.081-.81,8.331,8.331,0,0,0-4.081.81,4.5,4.5,0,0,0-1.993,2.835,22.7,22.7,0,0,0-.579,5.886v0.7a22.7,22.7,0,0,0,.579,5.886,4.5,4.5,0,0,0,1.993,2.835,8.331,8.331,0,0,0,4.081.81h0Zm0-3.4a1.627,1.627,0,0,1-1.333-.54,3.792,3.792,0,0,1-.62-1.863,32.577,32.577,0,0,1-.175-3.942v-0.27a32.577,32.577,0,0,1,.175-3.942,3.792,3.792,0,0,1,.62-1.863,1.627,1.627,0,0,1,1.333-.54,1.668,1.668,0,0,1,1.347.54,3.718,3.718,0,0,1,.633,1.876,32.723,32.723,0,0,1,.175,3.929v0.27a32.7,32.7,0,0,1-.175,3.928,3.722,3.722,0,0,1-.633,1.877,1.668,1.668,0,0,1-1.347.54h0Zm19.368,3.105V338.36H99.049V323.024H94.631v19.17h9.644Zm6.761,0v-19.17h-4.418v19.17h4.418Zm3.555,0h5.684a9.955,9.955,0,0,0,4.417-.783,4.47,4.47,0,0,0,2.182-2.754,19.253,19.253,0,0,0,.647-5.7v-0.7a19.253,19.253,0,0,0-.647-5.7,4.47,4.47,0,0,0-2.182-2.754,9.955,9.955,0,0,0-4.417-.783h-5.684v19.17Zm4.418-3.483V326.48h1.05a2.916,2.916,0,0,1,1.872.5,2.8,2.8,0,0,1,.822,1.728,23.971,23.971,0,0,1,.215,3.767v0.27a23.939,23.939,0,0,1-.215,3.766,2.726,2.726,0,0,1-.822,1.715,2.969,2.969,0,0,1-1.872.486h-1.05Zm24.755,3.483-4.634-19.17h-5.683l-4.633,19.17h4.471l0.673-3.645h4.58l0.673,3.645h4.553Zm-7.516-15.93,1.67,8.991h-3.34Zm15.92-3.24-2.532,8.073-2.532-8.073H142.39l4.983,12.339v6.831h4.418v-6.831l4.983-12.339h-4.606Z" transform="translate(-2 -322.719)"/>
  <path id="GET" class="cls-1" d="M12.324,359.923v3.712h2v0.7a6.247,6.247,0,0,1-.506,2.987,1.846,1.846,0,0,1-1.721.841,1.746,1.746,0,0,1-1.432-.58,4.075,4.075,0,0,1-.665-2,34.99,34.99,0,0,1-.188-4.234v-0.29A34.99,34.99,0,0,1,10,356.82a4.075,4.075,0,0,1,.665-2,1.746,1.746,0,0,1,1.432-.58,1.768,1.768,0,0,1,1.562.71,4.647,4.647,0,0,1,.492,2.509v0.087h4.89v-0.087a9.741,9.741,0,0,0-.723-4.162,4.133,4.133,0,0,0-2.213-2.1,10.816,10.816,0,0,0-4.007-.609,8.949,8.949,0,0,0-4.383.87A4.879,4.879,0,0,0,5.554,354.5a23.854,23.854,0,0,0-.637,6.322v0.754a23.854,23.854,0,0,0,.637,6.322,4.879,4.879,0,0,0,2.155,3.045,8.949,8.949,0,0,0,4.383.87,10.152,10.152,0,0,0,4.152-.7,4.344,4.344,0,0,0,2.228-2.422,13.31,13.31,0,0,0,.709-4.886v-3.886H12.324Zm21.5,11.571v-3.625H27.109v-5.075h5.815v-3.625H27.109v-4.64h6.423V350.9H22.364v20.59H33.821Zm10.213,0V355.022h4.079V350.9H35.238v4.118h4.05v16.472h4.745Z" transform="translate(-2 -322.719)"/>
  <path id="_20_OFF" data-name="20% OFF" class="cls-1" d="M13.378,403.367l4.074-5.04q2.309-2.814,3.465-4.389a14.928,14.928,0,0,0,1.869-3.4,10.935,10.935,0,0,0,.714-4.011q0-4.158-2.1-6.027t-6.888-1.869a14.311,14.311,0,0,0-5.565.882,5.5,5.5,0,0,0-2.919,2.772,11.933,11.933,0,0,0-.882,5v1.554h6.216v-1.428a4.749,4.749,0,0,1,.672-2.877,2.874,2.874,0,0,1,2.394-.861,2.8,2.8,0,0,1,2.121.693,3.146,3.146,0,0,1,.651,2.2,7.149,7.149,0,0,1-1.092,3.654,48.4,48.4,0,0,1-3.99,5.376l-7.35,9.114v4.2h19.11v-5.544h-10.5ZM37.4,409.373a11.41,11.41,0,0,0,5.943-1.26,7.019,7.019,0,0,0,2.877-4.41,37.8,37.8,0,0,0,.84-9.156v-1.092a37.8,37.8,0,0,0-.84-9.156,7.019,7.019,0,0,0-2.877-4.41,11.41,11.41,0,0,0-5.943-1.26,11.409,11.409,0,0,0-5.943,1.26,7.014,7.014,0,0,0-2.877,4.41,37.768,37.768,0,0,0-.84,9.156v1.092a37.768,37.768,0,0,0,.84,9.156,7.014,7.014,0,0,0,2.877,4.41,11.409,11.409,0,0,0,5.943,1.26h0Zm0-5.208a2.246,2.246,0,0,1-1.785-.651,4.817,4.817,0,0,1-.777-2.5,57.417,57.417,0,0,1-.21-5.838v-2.352a57.417,57.417,0,0,1,.21-5.838,4.817,4.817,0,0,1,.777-2.5,2.246,2.246,0,0,1,1.785-.651,2.247,2.247,0,0,1,1.785.651,4.969,4.969,0,0,1,.8,2.52,52.52,52.52,0,0,1,.231,5.817v2.352a52.52,52.52,0,0,1-.231,5.817,4.969,4.969,0,0,1-.8,2.52,2.247,2.247,0,0,1-1.785.651h0ZM59.786,409.5L76,378.5H71.42l-16.212,31h4.578Zm-3.36-13.692a7.955,7.955,0,0,0,3.8-.735,4.075,4.075,0,0,0,1.869-2.5,17.947,17.947,0,0,0,.546-5.04V386.9a17.947,17.947,0,0,0-.546-5.04,4.075,4.075,0,0,0-1.869-2.5,7.955,7.955,0,0,0-3.8-.735,8.085,8.085,0,0,0-3.822.735,4.132,4.132,0,0,0-1.911,2.52,17.336,17.336,0,0,0-.567,5.019v0.63a17.336,17.336,0,0,0,.567,5.019,4.132,4.132,0,0,0,1.911,2.52,8.085,8.085,0,0,0,3.822.735h0Zm0-3.4a1.3,1.3,0,0,1-.987-0.336A2.557,2.557,0,0,1,55,390.7a30.9,30.9,0,0,1-.126-3.339v-0.21A32.183,32.183,0,0,1,55,383.774a2.642,2.642,0,0,1,.441-1.407,1.3,1.3,0,0,1,.987-0.336,1.225,1.225,0,0,1,.966.336,2.814,2.814,0,0,1,.42,1.407,32.183,32.183,0,0,1,.126,3.381v0.21a30.9,30.9,0,0,1-.126,3.339,2.724,2.724,0,0,1-.42,1.365,1.225,1.225,0,0,1-.966.336h0ZM74.78,409.373a7.955,7.955,0,0,0,3.8-.735,4.075,4.075,0,0,0,1.869-2.5A17.947,17.947,0,0,0,81,401.1v-0.63a17.947,17.947,0,0,0-.546-5.04,4.075,4.075,0,0,0-1.869-2.5,7.955,7.955,0,0,0-3.8-.735,8.085,8.085,0,0,0-3.822.735,4.126,4.126,0,0,0-1.911,2.5,17.3,17.3,0,0,0-.567,5.04v0.63a17.3,17.3,0,0,0,.567,5.04,4.126,4.126,0,0,0,1.911,2.5,8.085,8.085,0,0,0,3.822.735h0Zm0-3.4a1.357,1.357,0,0,1-1.029-.336,2.6,2.6,0,0,1-.441-1.386,31.538,31.538,0,0,1-.126-3.36v-0.21a31.457,31.457,0,0,1,.126-3.381,2.557,2.557,0,0,1,.441-1.365,1.357,1.357,0,0,1,1.029-.336,1.225,1.225,0,0,1,.966.336,2.769,2.769,0,0,1,.42,1.386,31.538,31.538,0,0,1,.126,3.36v0.21a31.538,31.538,0,0,1-.126,3.36,2.769,2.769,0,0,1-.42,1.386,1.225,1.225,0,0,1-.966.336h0Zm30.618,3.4a13.016,13.016,0,0,0,6.363-1.26,7.073,7.073,0,0,0,3.129-4.41,34.524,34.524,0,0,0,.924-9.156v-1.092a34.524,34.524,0,0,0-.924-9.156,7.073,7.073,0,0,0-3.129-4.41,13.016,13.016,0,0,0-6.363-1.26,13.019,13.019,0,0,0-6.364,1.26,6.994,6.994,0,0,0-3.108,4.41,35.232,35.232,0,0,0-.9,9.156v1.092a35.232,35.232,0,0,0,.9,9.156,6.994,6.994,0,0,0,3.108,4.41,13.019,13.019,0,0,0,6.364,1.26h0Zm0-5.292a2.539,2.539,0,0,1-2.079-.84,5.881,5.881,0,0,1-.966-2.9,50.439,50.439,0,0,1-.273-6.132v-0.42a50.439,50.439,0,0,1,.273-6.132,5.881,5.881,0,0,1,.966-2.9,2.539,2.539,0,0,1,2.079-.84,2.6,2.6,0,0,1,2.1.84,5.791,5.791,0,0,1,.987,2.919,50.94,50.94,0,0,1,.273,6.111v0.42a50.94,50.94,0,0,1-.273,6.111,5.791,5.791,0,0,1-.987,2.919,2.6,2.6,0,0,1-2.1.84h0Zm22.049,4.83V397.235h8.442v-5.418h-8.442v-7.308h9.324v-5.418H120.559v29.82h6.888Zm19.866,0V397.235h8.442v-5.418h-8.442v-7.308h9.324v-5.418H140.425v29.82h6.888Z" transform="translate(-2 -322.719)"/>
</svg>
