<svg id="CTA" xmlns="http://www.w3.org/2000/svg" width="83.375" height="22.344" viewBox="0 0 83.375 22.344">
  <metadata><?xpacket begin="﻿" id="W5M0MpCehiHzreSzNTczkc9d"?>
<x:xmpmeta xmlns:x="adobe:ns:meta/" x:xmptk="Adobe XMP Core 5.6-c138 79.159824, 2016/09/14-01:09:01        ">
   <rdf:RDF xmlns:rdf="http://www.w3.org/1999/02/22-rdf-syntax-ns#">
      <rdf:Description rdf:about=""/>
   </rdf:RDF>
</x:xmpmeta>
                                                                                                    
                                                                                                    
                                                                                                    
                                                                                                    
                                                                                                    
                                                                                                    
                                                                                                    
                                                                                                    
                                                                                                    
                                                                                                    
                                                                                                    
                                                                                                    
                                                                                                    
                                                                                                    
                                                                                                    
                                                                                                    
                                                                                                    
                                                                                                    
                                                                                                    
                                                                                                    
                           
<?xpacket end="w"?></metadata>
<defs>
    <style>
      .cls-1, .cls-2 {
        fill-rule: evenodd;
      }

      .cls-2 {
        fill: #fffefe;
      }
    </style>
  </defs>
  <path id="Rounded_Rectangle_1" data-name="Rounded Rectangle 1" class="cls-1" d="M7.584,418.665h73.4a5,5,0,0,1,5,5V436a5,5,0,0,1-5,5H7.584a5,5,0,0,1-5-5V423.665A5,5,0,0,1,7.584,418.665Z" transform="translate(-2.594 -418.656)"/>
  <path id="BUY_NOW" data-name="BUY NOW" class="cls-2" d="M16.154,429.6a2.256,2.256,0,0,0,1.158-.918,3.105,3.105,0,0,0,.35-1.584v-0.468a3.578,3.578,0,0,0-.422-1.908,2.371,2.371,0,0,0-1.41-.954,10.481,10.481,0,0,0-2.783-.288H9.617v12.78h3.789a10.222,10.222,0,0,0,2.8-.3,2.366,2.366,0,0,0,1.419-1.008,3.888,3.888,0,0,0,.431-2.007v-0.468a3.43,3.43,0,0,0-.44-1.881,2.6,2.6,0,0,0-1.463-1h0Zm-3.592-4.14h0.521a3.089,3.089,0,0,1,1.051.135,0.814,0.814,0,0,1,.485.468,2.683,2.683,0,0,1,.135.963v0.18a2.33,2.33,0,0,1-.135.9,0.822,0.822,0,0,1-.494.441,3.1,3.1,0,0,1-1.042.135H12.563v-3.222Zm2.478,7.02a3.438,3.438,0,0,1-.135,1.1,0.9,0.9,0,0,1-.494.54,2.684,2.684,0,0,1-1.059.162h-0.79v-3.654h0.79a2.988,2.988,0,0,1,1.06.144,0.841,0.841,0,0,1,.494.5,3.06,3.06,0,0,1,.135,1.026v0.18Zm9.212,3.978a5.984,5.984,0,0,0,2.595-.45,2.586,2.586,0,0,0,1.293-1.512,9.306,9.306,0,0,0,.386-3.042v-7.974H25.51v8.19a8.3,8.3,0,0,1-.108,1.53,1.3,1.3,0,0,1-.377.765,1.437,1.437,0,0,1-1.544,0A1.3,1.3,0,0,1,23.1,433.2a8.3,8.3,0,0,1-.108-1.53v-8.19H19.979v7.974a9.3,9.3,0,0,0,.386,3.042,2.584,2.584,0,0,0,1.293,1.512,5.982,5.982,0,0,0,2.595.45h0Zm12-12.978-1.688,5.382-1.688-5.382H29.73l3.322,8.226v4.554H36v-4.554l3.322-8.226H36.249ZM51.315,432l-3.143-8.514H44.9v12.78h2.532v-8.514l3.143,8.514h3.268v-12.78H51.315V432Zm9,4.464a5.555,5.555,0,0,0,2.721-.54,3.029,3.029,0,0,0,1.338-1.89,14.814,14.814,0,0,0,.4-3.924v-0.468a14.819,14.819,0,0,0-.4-3.924,3.029,3.029,0,0,0-1.338-1.89,5.555,5.555,0,0,0-2.721-.54,5.554,5.554,0,0,0-2.721.54,3,3,0,0,0-1.329,1.89,15.132,15.132,0,0,0-.386,3.924v0.468a15.127,15.127,0,0,0,.386,3.924,3,3,0,0,0,1.329,1.89,5.554,5.554,0,0,0,2.721.54h0Zm0-2.268a1.082,1.082,0,0,1-.889-0.36,2.528,2.528,0,0,1-.413-1.242,21.708,21.708,0,0,1-.117-2.628v-0.18a21.731,21.731,0,0,1,.117-2.628,2.536,2.536,0,0,1,.413-1.242,1.085,1.085,0,0,1,.889-0.36,1.112,1.112,0,0,1,.9.36,2.483,2.483,0,0,1,.422,1.251,21.792,21.792,0,0,1,.117,2.619v0.18a21.792,21.792,0,0,1-.117,2.619,2.479,2.479,0,0,1-.422,1.251,1.109,1.109,0,0,1-.9.36h0Zm16.432-.648-1.832-10.062H71.7L69.866,433.49l-1.329-10.008H65.664l2.352,12.78h3.52l1.688-9.4,1.67,9.4h3.52l2.353-12.78H78.091Z" transform="translate(-2.594 -418.656)"/>
</svg>
