<svg xmlns="http://www.w3.org/2000/svg" width="301.625" height="20.5" viewBox="0 0 301.625 20.5">
  <metadata><?xpacket begin="﻿" id="W5M0MpCehiHzreSzNTczkc9d"?>
<x:xmpmeta xmlns:x="adobe:ns:meta/" x:xmptk="Adobe XMP Core 5.6-c138 79.159824, 2016/09/14-01:09:01        ">
   <rdf:RDF xmlns:rdf="http://www.w3.org/1999/02/22-rdf-syntax-ns#">
      <rdf:Description rdf:about=""/>
   </rdf:RDF>
</x:xmpmeta>
                                                                                                    
                                                                                                    
                                                                                                    
                                                                                                    
                                                                                                    
                                                                                                    
                                                                                                    
                                                                                                    
                                                                                                    
                                                                                                    
                                                                                                    
                                                                                                    
                                                                                                    
                                                                                                    
                                                                                                    
                                                                                                    
                                                                                                    
                                                                                                    
                                                                                                    
                                                                                                    
                           
<?xpacket end="w"?></metadata>
<defs>
    <style>
      .cls-1 {
        fill: #fff;
        fill-rule: evenodd;
      }
    </style>
  </defs>
  <path id="CELEBRATE_THE_HOLIDAYS" data-name="CELEBRATE THE HOLIDAYS" class="cls-1" d="M13.548,43.594a8.967,8.967,0,0,0,3.892-.7,4.288,4.288,0,0,0,2.1-2.408,13.731,13.731,0,0,0,.672-4.844V35.558H15.48v0.084a14.35,14.35,0,0,1-.2,2.716,2.494,2.494,0,0,1-.6,1.33,1.6,1.6,0,0,1-1.134.378,1.54,1.54,0,0,1-1.288-.532,3.991,3.991,0,0,1-.588-1.9,37.245,37.245,0,0,1-.168-4.144v-0.28a37.25,37.25,0,0,1,.168-4.144,3.994,3.994,0,0,1,.588-1.9,1.541,1.541,0,0,1,1.288-.532,1.435,1.435,0,0,1,1.372.8,7.27,7.27,0,0,1,.42,3.01v0.084h4.732V30.434a11.807,11.807,0,0,0-.672-4.452,4.078,4.078,0,0,0-2.086-2.24,9.2,9.2,0,0,0-3.766-.644,8.284,8.284,0,0,0-4.144.84,4.671,4.671,0,0,0-2.016,2.94,24.037,24.037,0,0,0-.588,6.1V33.71a24.035,24.035,0,0,0,.588,6.1A4.671,4.671,0,0,0,9.4,42.754a8.284,8.284,0,0,0,4.144.84h0ZM34.3,43.286v-3.5H27.8v-4.9h5.628v-3.5H27.8v-4.48h6.216v-3.5H23.208v19.88H34.3Zm12.852,0V39.31H41.716v-15.9H37.124v19.88H47.148Zm13.524,0v-3.5h-6.5v-4.9H59.8v-3.5H54.175v-4.48h6.216v-3.5H49.583v19.88H60.671Zm13.02-10.36A3.515,3.515,0,0,0,75.5,31.5a4.82,4.82,0,0,0,.546-2.464V28.306a5.555,5.555,0,0,0-.658-2.968,3.692,3.692,0,0,0-2.2-1.484,16.324,16.324,0,0,0-4.34-.448H63.5v19.88h5.908a15.974,15.974,0,0,0,4.368-.462,3.693,3.693,0,0,0,2.212-1.568,6.036,6.036,0,0,0,.672-3.122V37.406a5.323,5.323,0,0,0-.686-2.926,4.053,4.053,0,0,0-2.282-1.554h0Zm-5.6-6.44H68.9a4.827,4.827,0,0,1,1.638.21,1.268,1.268,0,0,1,.756.728,4.157,4.157,0,0,1,.21,1.5V29.2a3.613,3.613,0,0,1-.21,1.4,1.284,1.284,0,0,1-.77.686,4.848,4.848,0,0,1-1.624.21H68.091V26.486Zm3.864,10.92a5.336,5.336,0,0,1-.21,1.708,1.4,1.4,0,0,1-.77.84,4.193,4.193,0,0,1-1.652.252H68.091V34.522h1.232a4.673,4.673,0,0,1,1.652.224,1.307,1.307,0,0,1,.77.784,4.739,4.739,0,0,1,.21,1.6v0.28Zm21.2,5.88-2.912-8.008a3.679,3.679,0,0,0,1.932-1.834,7.937,7.937,0,0,0,.588-3.346V29.37a7.856,7.856,0,0,0-.686-3.654,3.78,3.78,0,0,0-2.282-1.792,15.406,15.406,0,0,0-4.536-.518H79.739v19.88h4.592V36.034h1.792l2.156,7.252h4.872ZM85.171,32.45h-0.84V26.99h0.84a5.628,5.628,0,0,1,1.82.224,1.356,1.356,0,0,1,.84.77,4.448,4.448,0,0,1,.224,1.61v0.28a3.93,3.93,0,0,1-.238,1.526,1.5,1.5,0,0,1-.854.8,4.939,4.939,0,0,1-1.792.252h0Zm24.7,10.836-4.816-19.88H99.143l-4.816,19.88h4.648l0.7-3.78h4.76l0.7,3.78h4.732Zm-7.812-16.52,1.736,9.324h-3.472Zm15.624,16.52v-15.9h3.948V23.406h-12.46v3.976h3.92v15.9h4.592Zm17.3,0v-3.5h-6.5v-4.9h5.628v-3.5h-5.628v-4.48H134.7v-3.5H123.9v19.88h11.088Zm16.968,0v-15.9H155.9V23.406h-12.46v3.976h3.92v15.9h4.592Zm10.807,0V35.25h4.312v8.036h4.592V23.406H167.07v7.728h-4.312V23.406h-4.592v19.88h4.592Zm23.688,0v-3.5h-6.5v-4.9h5.628v-3.5H179.95v-4.48h6.216v-3.5H175.358v19.88h11.088Zm14.811,0V35.25h4.312v8.036h4.592V23.406h-4.592v7.728h-4.312V23.406h-4.592v19.88h4.592Zm18.956,0.308a8.677,8.677,0,0,0,4.242-.84,4.714,4.714,0,0,0,2.086-2.94,22.973,22.973,0,0,0,.616-6.1V32.982a22.975,22.975,0,0,0-.616-6.1,4.714,4.714,0,0,0-2.086-2.94,11.131,11.131,0,0,0-8.484,0,4.662,4.662,0,0,0-2.072,2.94,23.515,23.515,0,0,0-.6,6.1V33.71a23.513,23.513,0,0,0,.6,6.1,4.662,4.662,0,0,0,2.072,2.94,8.677,8.677,0,0,0,4.242.84h0Zm0-3.528a1.692,1.692,0,0,1-1.386-.56,3.923,3.923,0,0,1-.644-1.932A33.83,33.83,0,0,1,218,33.486v-0.28a33.839,33.839,0,0,1,.182-4.088,3.926,3.926,0,0,1,.644-1.932,1.693,1.693,0,0,1,1.386-.56,1.735,1.735,0,0,1,1.4.56,3.849,3.849,0,0,1,.658,1.946,33.889,33.889,0,0,1,.182,4.074v0.28a33.889,33.889,0,0,1-.182,4.074,3.847,3.847,0,0,1-.658,1.946,1.734,1.734,0,0,1-1.4.56h0Zm20.132,3.22V39.31h-5.432v-15.9h-4.592v19.88h10.024Zm7.028,0V23.406h-4.592v19.88h4.592Zm3.7,0h5.908a10.37,10.37,0,0,0,4.592-.812,4.638,4.638,0,0,0,2.268-2.856,19.924,19.924,0,0,0,.672-5.908V32.982a19.926,19.926,0,0,0-.672-5.908,4.64,4.64,0,0,0-2.268-2.856,10.375,10.375,0,0,0-4.592-.812h-5.908v19.88Zm4.592-3.612V26.99h1.092a3.032,3.032,0,0,1,1.946.518,2.89,2.89,0,0,1,.854,1.792,24.732,24.732,0,0,1,.224,3.906v0.28a24.725,24.725,0,0,1-.224,3.906,2.822,2.822,0,0,1-.854,1.778,3.093,3.093,0,0,1-1.946.5H255.66Zm25.732,3.612-4.816-19.88h-5.908l-4.816,19.88H270.5l0.7-3.78h4.76l0.7,3.78h4.732Zm-7.812-16.52,1.736,9.324h-3.472Zm16.548-3.36L287.5,31.778l-2.632-8.372h-4.9l5.18,12.8v7.084h4.592V36.2l5.18-12.8h-4.788ZM301.86,43.594a10.158,10.158,0,0,0,3.864-.6,3.882,3.882,0,0,0,2.072-1.946,8.446,8.446,0,0,0,.644-3.612,7.13,7.13,0,0,0-.826-3.612,4.448,4.448,0,0,0-2.38-2q-1.554-.574-1.778-0.658l-0.98-.392a10.3,10.3,0,0,1-1.344-.588,2.053,2.053,0,0,1-.742-0.728,2.436,2.436,0,0,1-.294-1.288,1.585,1.585,0,0,1,1.82-1.764,1.806,1.806,0,0,1,1.456.5,2.474,2.474,0,0,1,.42,1.6v0.42h4.172V28.5a7.5,7.5,0,0,0-.56-3.206,3.354,3.354,0,0,0-1.82-1.68,9.476,9.476,0,0,0-3.5-.518q-3.387,0-4.858,1.288t-1.47,4.284a6.458,6.458,0,0,0,.616,3.066,4.242,4.242,0,0,0,1.5,1.666,14.814,14.814,0,0,0,2.366,1.092l1.064,0.42q1.092,0.42,1.6.672a2.165,2.165,0,0,1,.868.854,3.154,3.154,0,0,1,.364,1.638,2.535,2.535,0,0,1-.462,1.666,2.058,2.058,0,0,1-1.638.546,2.086,2.086,0,0,1-1.792-.686,4.01,4.01,0,0,1-.5-2.31V36.65H295.5v0.728a9.324,9.324,0,0,0,.588,3.682,3.678,3.678,0,0,0,1.96,1.932,9.72,9.72,0,0,0,3.808.6h0Z" transform="translate(-6.813 -23.094)"/>
</svg>
