<?xml version="1.0" encoding="utf-8"?>
<!-- Generator: Adobe Illustrator 18.1.1, SVG Export Plug-In . SVG Version: 6.00 Build 0)  -->
<svg version="1.1" id="Layer_1" xmlns="http://www.w3.org/2000/svg" xmlns:xlink="http://www.w3.org/1999/xlink" x="0px" y="0px"
	 width="468.3px" height="81.4px" viewBox="0 0 468.3 81.4" enable-background="new 0 0 468.3 81.4" xml:space="preserve">
<path fill="#FFFFFF" d="M163.3,19.2h11.2V16h-7.2V11h6.8V7.8h-6.8V3.4h7.2V0.3h-11.2V19.2z"/>
<path fill="#FFFFFF" d="M177.5,5.9c0,0.4,0.2,2.1,0.3,2.6c0,0.1,0,0.3,0.3,0.3c0.5,0,1.4-0.9,3.8-0.9c2.1,0,3.1,0.8,3.1,2.2v0.3
	c0,0-1.4,0-1.6,0c-3.6,0-7.1,0.8-7.1,4.5c0,2.5,1.7,4.5,4.3,4.5c2.5,0,4-1.4,4.4-2h0.1l0.1,1.2c0,0.3,0.1,0.6,0.5,0.6
	c0.4,0,3.3,0,3.3,0c-0.1-1-0.3-2.4-0.3-3.6v-5.2c0-3.4-2.1-5.3-6.2-5.3C180.1,5,178,5.7,177.5,5.9z M184.1,12.7c0.3,0,0.9,0,0.9,0
	s0,0.3,0,0.4c0,2-1,3.6-2.7,3.6c-1.3,0-2-0.8-2-1.9C180.2,13.4,181.6,12.7,184.1,12.7z"/>
<path fill="#FFFFFF" d="M191.8,5.3c0,0.8,0.2,2.5,0.2,3.9c0,1.3,0,9.9,0,9.9h3.8c0,0,0-5.2,0-6.4c0-3.5,1.6-4.6,3.3-4.6
	c0.4,0,0.9,0.1,1.1,0.1c0.2,0.1,0.4,0.1,0.5,0.1c0.2,0,0.3-0.1,0.3-0.3c0-0.2,0.1-1.8,0.1-2.6c-0.1-0.1-1-0.3-1.8-0.3
	c-2.9,0-3.6,2.1-3.7,2.3h-0.1c0-0.3,0-1.4,0-1.7c0-0.2,0-0.4-0.4-0.4C194.4,5.3,191.8,5.3,191.8,5.3z"/>
<path fill="#FFFFFF" d="M202.8,19.2h3.8c0,0,0-4.5,0-6.6c0-2.8,1.3-4.6,3.1-4.6c1.3,0,2.1,0.9,2.1,2.7c0,0.9,0,8.4,0,8.4h3.8
	c0,0,0-6.6,0-9c0-2.4-1.2-5-5-5c-2.2,0-3.4,0.9-4.2,2.3h-0.1c0,0,0-1.4,0-1.7c0-0.3-0.1-0.4-0.4-0.4c-0.5,0-3.1,0-3.1,0
	c0.1,1.1,0.1,2.8,0.1,4.2C202.8,10.6,202.8,19.2,202.8,19.2z"/>
<path fill="#FFFFFF" d="M223.9,3.9c0.3-0.1,1.8-0.8,3.2-0.8c2.3,0,3.1,1.1,3.1,2.4c0,1.7-1.9,2.6-4.1,2.6c-0.4,0-0.9,0-0.9,0v2.9
	h1.1c3.2,0,4.2,1.1,4.2,2.7c0,1.9-2,2.8-4.1,2.8c-1.4,0-3-0.3-3.4-0.4l0.3,3.1c0.3,0.1,2.2,0.3,3.5,0.3c4.6,0,7.3-2.3,7.3-5.6
	c0-3.2-2.4-4.4-3.4-4.6V9c0.7-0.3,2.9-1.3,2.9-4.1c0-3.1-2.4-4.9-5.6-4.9c-3.1,0-4.8,0.8-5.2,1L223.9,3.9z"/>
<path fill="#FFFFFF" d="M243.4,0c-5.3,0-7.2,4.5-7.2,9.7c0,5.6,2.1,9.7,7.2,9.7c5.1,0,7.2-4.1,7.2-9.7C250.6,4.5,248.7,0,243.4,0z
	 M243.4,16.4c-2.5,0-3.7-2.3-3.7-6.7c0-4.1,1-6.6,3.7-6.6c2.7,0,3.7,2.6,3.7,6.6C247.1,14.1,245.9,16.4,243.4,16.4z"/>
<path fill="#FFFFFF" d="M256.2,17.5c0-0.7,0-1.7,0-1.7h-3.4v3.4h1.5c0,1.1-0.8,2-1.5,2.6l0.6,0.6C254.4,21.8,256.2,20.6,256.2,17.5z
	"/>
<path fill="#FFFFFF" d="M265.7,0c-5.3,0-7.2,4.5-7.2,9.7c0,5.6,2.1,9.7,7.2,9.7c5.1,0,7.2-4.1,7.2-9.7C272.9,4.5,271,0,265.7,0z
	 M265.7,16.4c-2.5,0-3.7-2.3-3.7-6.7c0-4.1,1-6.6,3.7-6.6s3.7,2.6,3.7,6.6C269.4,14.1,268.2,16.4,265.7,16.4z"/>
<path fill="#FFFFFF" d="M282.4,0c-5.3,0-7.2,4.5-7.2,9.7c0,5.6,2.1,9.7,7.2,9.7c5.1,0,7.2-4.1,7.2-9.7C289.6,4.5,287.7,0,282.4,0z
	 M282.4,16.4c-2.5,0-3.7-2.3-3.7-6.7c0-4.1,1-6.6,3.7-6.6c2.7,0,3.7,2.6,3.7,6.6C286.1,14.1,284.9,16.4,282.4,16.4z"/>
<path fill="#FFFFFF" d="M299,0c-5.3,0-7.2,4.5-7.2,9.7c0,5.6,2.1,9.7,7.2,9.7c5.1,0,7.2-4.1,7.2-9.7C306.3,4.5,304.4,0,299,0z
	 M299,16.4c-2.5,0-3.7-2.3-3.7-6.7c0-4.1,1-6.6,3.7-6.6c2.7,0,3.7,2.6,3.7,6.6C302.7,14.1,301.6,16.4,299,16.4z"/>
<path fill="#FFFFFF" d="M32.7,55.2h2.7l1.2-3.3h6.3l1.2,3.3h2.8l-5.5-14.8h-3L32.7,55.2z M39.8,43l2.4,6.8h-4.8L39.8,43L39.8,43z"/>
<path fill="#FFFFFF" d="M48.2,44.3c0,0.7,0.1,2,0.1,3.3s0,7.6,0,7.6h2.5c0,0,0-4.8,0-5.6c0-1.7,0.7-3.5,2.3-3.5
	c1.1,0,1.8,0.6,1.8,2.3c0,0.9,0,6.9,0,6.9h2.5c0,0,0-4.2,0-5.6c0-1.8,0.7-3.5,2.3-3.5c1.6,0,1.8,1.3,1.8,2.5c0,1.1,0,6.6,0,6.6h2.5
	c0,0,0-6.4,0-7.5c0-2.6-1.7-3.6-3.7-3.6c-2,0-3,1.3-3.3,2c-0.3-0.7-1.2-2-3.1-2c-2.3,0-3.1,1.6-3.2,1.9h-0.1c0,0,0-1.2,0-1.3
	c0-0.1,0-0.3-0.3-0.3C49.9,44.3,48.2,44.3,48.2,44.3z"/>
<path fill="#FFFFFF" d="M70.7,44.1c-3.1,0-5,2.2-5,5.7c0,3.6,1.8,5.6,5.7,5.6c1.5,0,2.9-0.4,3.3-0.6c0-0.5-0.1-1.5-0.1-1.8
	c0-0.2-0.1-0.2-0.2-0.2s-0.2,0.1-0.4,0.2c-0.2,0.1-1.2,0.5-2.4,0.5c-2.2,0-3.4-1.4-3.4-3.2h7c0-0.2,0.1-1.2,0.1-1.5
	C75.3,46.7,74.3,44.1,70.7,44.1z M68.3,48.6c0-0.9,0.4-2.7,2.4-2.7c1.8,0,2.2,1.5,2.2,2.5c0,0.1,0,0.2,0,0.3H68.3z"/>
<path fill="#FFFFFF" d="M77.2,44.3c0,0.6,0.1,1.9,0.1,3.1c0,1,0,7.8,0,7.8h2.5c0,0,0-4.4,0-5.4c0-2.7,1.3-3.7,2.6-3.7
	c0.3,0,0.5,0,0.7,0.1c0.1,0,0.3,0.1,0.4,0.1c0.1,0,0.2-0.1,0.2-0.2c0-0.2,0.1-1.1,0.1-1.8c-0.1-0.1-0.6-0.2-1.3-0.2
	c-2.2,0-2.9,1.7-2.9,1.9h-0.1c0-0.2,0-1.1,0-1.4c0-0.1,0-0.3-0.3-0.3C78.7,44.3,77.2,44.3,77.2,44.3z"/>
<path fill="#FFFFFF" d="M85.3,55.2V44.3h2.5v10.9H85.3z M85.3,41.8h2.6v-2.5h-2.6V41.8z"/>
<path fill="#FFFFFF" d="M95,44.1c-3.5,0-5.3,2.2-5.3,5.7c0,3.8,2.1,5.7,5.3,5.7c1.5,0,2.6-0.6,2.9-0.7c0-0.5,0-1.4-0.1-1.6
	c0-0.2-0.1-0.2-0.2-0.2c-0.1,0-0.2,0.1-0.4,0.2c-0.2,0.1-1,0.5-2,0.5c-2.1,0-2.9-1.4-2.9-3.7c0-2.3,0.8-3.7,3-3.7c1,0,2,0.5,2.1,0.6
	c0.1,0,0.2,0.1,0.2,0.1c0.2,0,0.2-0.2,0.2-0.3c0-0.3,0.1-1,0.1-1.5C97.6,44.6,96.4,44.1,95,44.1z"/>
<path fill="#FFFFFF" d="M99.8,44.8c0,0.3,0,1.3,0.1,1.7c0,0,0,0.2,0.2,0.2c0.1,0,0.3-0.1,0.4-0.1c0.3-0.2,1.4-0.6,2.7-0.6
	c1.4,0,2.3,0.5,2.3,1.8c0,0,0,0.4,0,0.4s-0.4,0-0.6,0c-2.8,0-6,0.9-6,3.8c0,2,1.4,3.5,3.4,3.5c2,0,2.9-1.1,3.2-1.6h0.1l0.1,0.9
	c0,0.3,0,0.5,0.4,0.5c0.3,0,2.1,0,2.1,0c-0.1-0.7-0.2-1.8-0.2-2.8V48c0-2.6-1.5-4-4.6-4C101.7,44.1,100.2,44.6,99.8,44.8z
	 M104.9,49.6c0.3,0,0.6,0,0.6,0s0,0.7,0,0.8c0,1.7-0.9,3.1-2.4,3.1c-1.1,0-1.7-0.8-1.7-1.8C101.4,50.4,102.6,49.6,104.9,49.6z"/>
<path fill="#FFFFFF" d="M112.8,55.2c0,0,0-3.8,0-5.3c0-2.6,1.3-3.8,2.6-3.8c0.9,0,1.7,0.5,1.7,2.2c0,0.7,0,6.9,0,6.9h2.5
	c0,0,0-5.8,0-7.6c0-1.8-1.3-3.5-3.7-3.5c-1.7,0-2.7,0.7-3.3,1.9h-0.1c0,0,0-1.1,0-1.4c0-0.2-0.1-0.3-0.3-0.3c-0.4,0-2,0-2,0
	c0,0.8,0.1,2.2,0.1,3.3c0,0.8,0,7.5,0,7.5H112.8z"/>
<path fill="#FFFFFF" d="M126,55.2h2.7l1.2-3.3h6.3l1.2,3.3h2.8l-5.5-14.8h-3L126,55.2z M133,43l2.4,6.8h-4.8L133,43L133,43z"/>
<path fill="#FFFFFF" d="M141.5,55.2V44.3h2.5v10.9H141.5z M141.4,41.8h2.6v-2.5h-2.6V41.8z"/>
<path fill="#FFFFFF" d="M146.6,44.3c0,0.6,0.1,1.9,0.1,3.1c0,1,0,7.8,0,7.8h2.5c0,0,0-4.4,0-5.4c0-2.7,1.3-3.7,2.6-3.7
	c0.3,0,0.5,0,0.7,0.1c0.1,0,0.3,0.1,0.4,0.1c0.1,0,0.2-0.1,0.2-0.2c0-0.2,0.1-1.1,0.1-1.8c-0.1-0.1-0.6-0.2-1.3-0.2
	c-2.2,0-2.9,1.7-2.9,1.9h-0.1c0-0.2,0-1.1,0-1.4c0-0.1,0-0.3-0.3-0.3C148.2,44.3,146.6,44.3,146.6,44.3z"/>
<path fill="#FFFFFF" d="M157.2,55.2V39.4h-2.5v15.8H157.2z"/>
<path fill="#FFFFFF" d="M159.9,55.2V44.3h2.5v10.9H159.9z M159.9,41.8h2.6v-2.5h-2.6V41.8z"/>
<path fill="#FFFFFF" d="M167.6,55.2c0,0,0-3.8,0-5.3c0-2.6,1.3-3.8,2.6-3.8c0.9,0,1.7,0.5,1.7,2.2c0,0.7,0,6.9,0,6.9h2.5
	c0,0,0-5.8,0-7.6c0-1.8-1.3-3.5-3.7-3.5c-1.7,0-2.7,0.7-3.3,1.9h-0.1c0,0,0-1.1,0-1.4c0-0.2-0.1-0.3-0.3-0.3c-0.4,0-2,0-2,0
	c0,0.8,0.1,2.2,0.1,3.3c0,0.8,0,7.5,0,7.5H167.6z"/>
<path fill="#FFFFFF" d="M181.2,44.1c-3.1,0-5,2.2-5,5.7c0,3.6,1.8,5.6,5.7,5.6c1.5,0,2.9-0.4,3.3-0.6c0-0.5-0.1-1.5-0.1-1.8
	c0-0.2-0.1-0.2-0.2-0.2c-0.1,0-0.2,0.1-0.4,0.2c-0.2,0.1-1.2,0.5-2.4,0.5c-2.2,0-3.4-1.4-3.4-3.2h7c0-0.2,0.1-1.2,0.1-1.5
	C185.9,46.7,184.8,44.1,181.2,44.1z M178.8,48.6c0-0.9,0.4-2.7,2.4-2.7c1.8,0,2.2,1.5,2.2,2.5c0,0.1,0,0.2,0,0.3H178.8z"/>
<path fill="#FFFFFF" d="M191.1,44.1c-2.1,0-4.1,1.1-4.1,3.2c0,2,1.3,2.7,2.1,3l1.2,0.5c1.1,0.4,1.4,0.9,1.4,1.4c0,0.7-0.6,1.3-2,1.3
	c-0.8,0-1.6-0.2-1.8-0.2c-0.1,0-0.3-0.1-0.4-0.1c-0.2,0-0.2,0.1-0.2,0.3c0,0.4-0.1,1.5-0.1,1.8c0.2,0.1,1.1,0.2,2.4,0.2
	c2.3,0,4.7-0.9,4.7-3.5c0-1.6-1.3-2.5-2.2-2.9l-1.1-0.4c-1-0.4-1.4-0.7-1.4-1.5c0-0.7,0.6-1.3,1.9-1.3c0.8,0,1.5,0.2,1.7,0.3
	c0.1,0,0.1,0.1,0.3,0.1c0.2,0,0.2-0.1,0.2-0.4c0-0.5,0.1-1.2,0.1-1.5C193.4,44.2,192.4,44.1,191.1,44.1z"/>
<path fill="#FFFFFF" d="M199.7,55.2h2.7l1.2-3.3h6.3l1.2,3.3h2.8l-5.5-14.8h-3L199.7,55.2z M206.7,43l2.4,6.8h-4.8L206.7,43
	L206.7,43z"/>
<path fill="#FFFFFF" d="M214.7,55.2h2.7l1.2-3.3h6.3l1.2,3.3h2.8l-5.5-14.8h-3L214.7,55.2z M221.8,43l2.4,6.8h-4.8L221.8,43
	L221.8,43z"/>
<path fill="#FFFFFF" d="M236.8,44.3c-0.2-0.1-0.7-0.2-1.7-0.2c-3.5,0-5.7,2.5-5.7,6.2c0,2,0.6,5.1,4.3,5.1c2.1,0,3-1.2,3.3-1.9h0.1
	c0,0,0,1.1,0,1.4c0,0.2,0.1,0.3,0.3,0.3c0.4,0,2,0,2,0c-0.1-0.9-0.1-2.2-0.1-3.3c0-0.8,0-12.5,0-12.5h-2.5V44.3z M235.1,46
	c1,0,1.5,0.2,1.7,0.2c0,0,0,3,0,3.6c0,2.6-1.2,3.7-2.5,3.7c-2,0-2.3-1.6-2.3-3.4C232,47.4,233.1,46,235.1,46z"/>
<path fill="#FFFFFF" d="M244.8,55.2h2.6l4.1-10.9h-2.6l-2.6,8h-0.1l-2.7-8h-2.7L244.8,55.2z"/>
<path fill="#FFFFFF" d="M252.9,44.8c0,0.3,0,1.3,0.1,1.7c0,0,0,0.2,0.2,0.2c0.1,0,0.3-0.1,0.4-0.1c0.3-0.2,1.4-0.6,2.7-0.6
	c1.4,0,2.3,0.5,2.3,1.8c0,0,0,0.4,0,0.4s-0.4,0-0.6,0c-2.8,0-6,0.9-6,3.8c0,2,1.4,3.5,3.4,3.5c2,0,2.9-1.1,3.2-1.6h0.1l0.1,0.9
	c0,0.3,0,0.5,0.4,0.5c0.3,0,2.1,0,2.1,0c-0.1-0.7-0.2-1.8-0.2-2.8V48c0-2.6-1.5-4-4.6-4C254.8,44.1,253.3,44.6,252.9,44.8z
	 M258.1,49.6c0.3,0,0.6,0,0.6,0s0,0.7,0,0.8c0,1.7-0.9,3.1-2.4,3.1c-1.1,0-1.7-0.8-1.7-1.8C254.5,50.4,255.7,49.6,258.1,49.6z"/>
<path fill="#FFFFFF" d="M265.9,55.2c0,0,0-3.8,0-5.3c0-2.6,1.3-3.8,2.6-3.8c0.9,0,1.7,0.5,1.7,2.2c0,0.7,0,6.9,0,6.9h2.5
	c0,0,0-5.8,0-7.6c0-1.8-1.3-3.5-3.7-3.5c-1.7,0-2.7,0.7-3.3,1.9h-0.1c0,0,0-1.1,0-1.4c0-0.2-0.1-0.3-0.3-0.3c-0.4,0-2,0-2,0
	c0,0.8,0.1,2.2,0.1,3.3c0,0.8,0,7.5,0,7.5H265.9z"/>
<path fill="#FFFFFF" d="M279.5,55.4c0.9,0,1.5-0.2,1.7-0.2c0-0.4-0.1-1.6-0.1-1.6c0-0.2-0.1-0.3-0.2-0.3c-0.2,0-0.6,0.2-1.2,0.2
	c-0.9,0-1.4-0.5-1.4-1.5v-5.8h2.6v-1.9h-2.6v-2.4h-2.5v2.4h-1.5v1.9h1.5v5.4C275.8,53.8,276.7,55.4,279.5,55.4z"/>
<path fill="#FFFFFF" d="M282.7,44.8c0,0.3,0,1.3,0.1,1.7c0,0,0,0.2,0.2,0.2c0.1,0,0.3-0.1,0.4-0.1c0.3-0.2,1.4-0.6,2.7-0.6
	c1.4,0,2.3,0.5,2.3,1.8c0,0,0,0.4,0,0.4s-0.4,0-0.6,0c-2.8,0-6,0.9-6,3.8c0,2,1.4,3.5,3.4,3.5c2,0,2.9-1.1,3.2-1.6h0.1l0.1,0.9
	c0,0.3,0,0.5,0.4,0.5c0.3,0,2.1,0,2.1,0c-0.1-0.7-0.2-1.8-0.2-2.8V48c0-2.6-1.5-4-4.6-4C284.7,44.1,283.1,44.6,282.7,44.8z
	 M287.9,49.6c0.3,0,0.6,0,0.6,0s0,0.7,0,0.8c0,1.7-0.9,3.1-2.4,3.1c-1.1,0-1.7-0.8-1.7-1.8C284.3,50.4,285.5,49.6,287.9,49.6z"/>
<path fill="#FFFFFF" d="M302.7,56.5c0-1.9-1.2-3-3.8-3h-2.1c-1.1,0-1.4-0.4-1.4-0.9c0-0.4,0.4-0.7,0.6-0.7c0.3,0.1,0.8,0.1,1.2,0.1
	c3,0,4.7-1.7,4.7-4c0-1-0.5-1.6-0.7-1.8c0,0,0.6,0,1,0c0.3,0,0.6,0,0.6-0.5c0-0.4,0.1-1,0.1-1.3h-3.7c-0.6-0.1-1.1-0.2-1.8-0.2
	c-3.1,0-4.8,1.9-4.8,4.2c0,2,1.2,3,1.9,3.2c-0.4,0.1-1.4,0.6-1.4,1.8c0,1.1,0.8,1.5,1.2,1.6c-0.7,0.2-1.9,1-1.9,2.5
	c0,2.1,1.6,3.3,4.7,3.3C300.6,60.6,302.7,58.8,302.7,56.5z M300.3,56.7c0,1.1-1,2-3,2c-1.5,0-2.5-0.6-2.5-1.8c0-0.9,0.7-1.5,1.1-1.7
	c0.2,0,0.4,0,0.6,0h1.7C299.7,55.3,300.3,55.9,300.3,56.7z M299.7,48c0,1.4-0.9,2.2-2.3,2.2c-1.5,0-2.3-0.8-2.3-2.2
	c0-1.3,0.8-2.2,2.4-2.2C298.8,45.8,299.7,46.7,299.7,48z"/>
<path fill="#FFFFFF" d="M308.6,44.1c-3.1,0-5,2.2-5,5.7c0,3.6,1.8,5.6,5.7,5.6c1.5,0,2.9-0.4,3.3-0.6c0-0.5-0.1-1.5-0.1-1.8
	c0-0.2-0.1-0.2-0.2-0.2c-0.1,0-0.2,0.1-0.4,0.2c-0.2,0.1-1.2,0.5-2.4,0.5c-2.2,0-3.4-1.4-3.4-3.2h7c0-0.2,0.1-1.2,0.1-1.5
	C313.3,46.7,312.2,44.1,308.6,44.1z M306.3,48.6c0-0.9,0.4-2.7,2.4-2.7c1.8,0,2.2,1.5,2.2,2.5c0,0.1,0,0.2,0,0.3H306.3z"/>
<path fill="#FFFFFF" d="M317.9,43.2v-1.1c0,0,0.1,0,0.2,0c0.5,0,0.7,0.2,0.7,0.6c0,0.4-0.2,0.6-0.7,0.6
	C318,43.3,317.9,43.2,317.9,43.2z M319,45.1h0.7l-0.8-1.5c0.1,0,0.7-0.2,0.7-0.9c0-0.6-0.4-1-1.2-1c-0.5,0-1,0-1,0v3.3h0.6v-1.4h0.3
	L319,45.1z M318.3,40.1c-1.9,0-3.4,1.5-3.4,3.4c0,1.9,1.5,3.4,3.4,3.4c1.9,0,3.4-1.5,3.4-3.4C321.7,41.6,320.2,40.1,318.3,40.1z
	 M318.3,40.8c1.5,0,2.7,1.2,2.7,2.7c0,1.5-1.2,2.7-2.7,2.7c-1.5,0-2.7-1.2-2.7-2.7C315.6,42,316.8,40.8,318.3,40.8z"/>
<path fill="#FFFFFF" d="M334.3,46c2,0,2.2,2.4,2.2,3.4c0,3.2-1.5,4.1-3.1,4.1c-0.5,0-1.2-0.1-1.7-0.2v-3.5
	C331.6,48,332.5,46,334.3,46z M331.6,45.8v-6.4h-2.5v15.5c0.7,0.2,2.1,0.5,3.9,0.5c4.3,0,6-3,6-6.2c0-3.4-1.4-5.1-4.1-5.1
	C333.1,44.1,332.1,45.1,331.6,45.8L331.6,45.8z"/>
<path fill="#FFFFFF" d="M345.4,46c1.8,0,2.7,1.6,2.7,3.7c0,2.3-1.1,3.7-2.7,3.7c-2.2,0-2.7-2.1-2.7-3.7
	C342.7,47.3,343.8,46,345.4,46z M340.1,49.7c0,3.6,2,5.7,5.3,5.7c3.7,0,5.3-2.6,5.3-5.7c0-3.2-1.7-5.7-5.3-5.7
	C341.5,44.1,340.1,46.9,340.1,49.7z"/>
<path fill="#FFFFFF" d="M355.2,55.2c0,0,0-3.8,0-5.3c0-2.6,1.3-3.8,2.6-3.8c0.9,0,1.7,0.5,1.7,2.2c0,0.7,0,6.9,0,6.9h2.5
	c0,0,0-5.8,0-7.6c0-1.8-1.3-3.5-3.7-3.5c-1.7,0-2.7,0.7-3.3,1.9h-0.1c0,0,0-1.1,0-1.4c0-0.2-0.1-0.3-0.3-0.3c-0.4,0-2,0-2,0
	c0,0.8,0.1,2.2,0.1,3.3c0,0.8,0,7.5,0,7.5H355.2z"/>
<path fill="#FFFFFF" d="M371.3,44.3c0,0,0,3.8,0,5.3c0,2.6-1.3,3.8-2.6,3.8c-0.9,0-1.7-0.5-1.7-2.2c0-0.7,0-6.9,0-6.9h-2.5
	c0,0,0,5.8,0,7.6c0,1.8,1.3,3.5,3.7,3.5c1.8,0,2.7-0.7,3.3-1.9h0.1c0,0,0,1.1,0,1.4c0,0.2,0.1,0.3,0.3,0.3c0.4,0,2,0,2,0
	c-0.1-0.9-0.1-2.2-0.1-3.3c0-0.8,0-7.5,0-7.5H371.3z"/>
<path fill="#FFFFFF" d="M379.9,44.1c-2.1,0-4.1,1.1-4.1,3.2c0,2,1.3,2.7,2.1,3l1.2,0.5c1.1,0.4,1.4,0.9,1.4,1.4c0,0.7-0.6,1.3-2,1.3
	c-0.8,0-1.6-0.2-1.8-0.2c-0.1,0-0.3-0.1-0.4-0.1c-0.2,0-0.2,0.1-0.2,0.3c0,0.4-0.1,1.5-0.1,1.8c0.2,0.1,1.1,0.2,2.4,0.2
	c2.3,0,4.7-0.9,4.7-3.5c0-1.6-1.3-2.5-2.2-2.9l-1.1-0.4c-1-0.4-1.4-0.7-1.4-1.5c0-0.7,0.6-1.3,1.9-1.3c0.8,0,1.5,0.2,1.7,0.3
	c0.1,0,0.1,0.1,0.3,0.1c0.2,0,0.2-0.1,0.2-0.4c0-0.5,0.1-1.2,0.1-1.5C382.2,44.2,381.2,44.1,379.9,44.1z"/>
<path fill="#FFFFFF" d="M389.8,44.3c0,0.7,0.1,2,0.1,3.3s0,7.6,0,7.6h2.5c0,0,0-4.8,0-5.6c0-1.7,0.7-3.5,2.3-3.5
	c1.1,0,1.8,0.6,1.8,2.3c0,0.9,0,6.9,0,6.9h2.5c0,0,0-4.2,0-5.6c0-1.8,0.7-3.5,2.3-3.5c1.6,0,1.8,1.3,1.8,2.5c0,1.1,0,6.6,0,6.6h2.5
	c0,0,0-6.4,0-7.5c0-2.6-1.7-3.6-3.7-3.6c-2,0-3,1.3-3.3,2c-0.3-0.7-1.2-2-3.1-2c-2.3,0-3.1,1.6-3.2,1.9h-0.1c0,0,0-1.2,0-1.3
	c0-0.1,0-0.3-0.3-0.3C391.5,44.3,389.8,44.3,389.8,44.3z"/>
<path fill="#FFFFFF" d="M408.2,55.2V44.3h2.5v10.9H408.2z M408.1,41.8h2.6v-2.5h-2.6V41.8z"/>
<path fill="#FFFFFF" d="M415.8,55.2V39.4h-2.5v15.8H415.8z"/>
<path fill="#FFFFFF" d="M422.6,44.1c-3.1,0-5,2.2-5,5.7c0,3.6,1.8,5.6,5.7,5.6c1.5,0,2.9-0.4,3.3-0.6c0-0.5-0.1-1.5-0.1-1.8
	c0-0.2-0.1-0.2-0.2-0.2c-0.1,0-0.2,0.1-0.4,0.2c-0.2,0.1-1.2,0.5-2.4,0.5c-2.2,0-3.4-1.4-3.4-3.2h7c0-0.2,0.1-1.2,0.1-1.5
	C427.3,46.7,426.2,44.1,422.6,44.1z M420.2,48.6c0-0.9,0.4-2.7,2.4-2.7c1.8,0,2.2,1.5,2.2,2.5c0,0.1,0,0.2,0,0.3H420.2z"/>
<path fill="#FFFFFF" d="M432.5,44.1c-2.1,0-4.1,1.1-4.1,3.2c0,2,1.3,2.7,2.1,3l1.2,0.5c1.1,0.4,1.4,0.9,1.4,1.4c0,0.7-0.6,1.3-2,1.3
	c-0.8,0-1.6-0.2-1.8-0.2c-0.1,0-0.3-0.1-0.4-0.1c-0.2,0-0.2,0.1-0.2,0.3c0,0.4-0.1,1.5-0.1,1.8c0.2,0.1,1.1,0.2,2.4,0.2
	c2.3,0,4.7-0.9,4.7-3.5c0-1.6-1.3-2.5-2.2-2.9l-1.1-0.4c-1-0.4-1.4-0.7-1.4-1.5c0-0.7,0.6-1.3,1.9-1.3c0.8,0,1.5,0.2,1.7,0.3
	c0.1,0,0.1,0.1,0.3,0.1c0.2,0,0.2-0.1,0.2-0.4c0-0.5,0.1-1.2,0.1-1.5C434.8,44.2,433.8,44.1,432.5,44.1z"/>
<path fill="#FFFFFF" d="M0.6,71.3c0,0.2,0,0.8,0,1.1c0,0,0,0.1,0.1,0.1c0.1,0,0.2-0.1,0.2-0.1c0.2-0.1,0.9-0.4,1.7-0.4
	c0.9,0,1.5,0.3,1.5,1.1c0,0,0,0.2,0,0.2s-0.3,0-0.4,0C2,73.4,0,74,0,75.9c0,1.3,0.9,2.2,2.2,2.2c1.3,0,1.8-0.7,2.1-1h0.1l0,0.6
	c0,0.2,0,0.3,0.3,0.3c0.2,0,1.3,0,1.3,0c-0.1-0.5-0.1-1.2-0.1-1.8v-2.8c0-1.7-1-2.5-2.9-2.5C1.8,70.9,0.8,71.2,0.6,71.3z M3.9,74.4
	c0.2,0,0.4,0,0.4,0s0,0.4,0,0.5c0,1.1-0.6,2-1.5,2c-0.7,0-1.1-0.5-1.1-1.1C1.6,74.9,2.3,74.4,3.9,74.4z"/>
<path fill="#FFFFFF" d="M10.3,67.8c-1.8,0-2.8,0.9-2.8,2.9V71h-1v1.2h1c0,2.4,0,5.7,0,5.7h1.6c0,0,0-3.4,0-5.7h1.7V71H9.1v-0.5
	c0-0.8,0.3-1.5,1.3-1.5c0.5,0,0.7,0.1,0.8,0.1c0.1,0,0.1-0.1,0.1-0.2c0,0,0.1-0.8,0.1-1C11.3,67.9,10.9,67.8,10.3,67.8z"/>
<path fill="#FFFFFF" d="M14.9,78.1c0.6,0,1-0.1,1.1-0.2c0-0.3-0.1-1-0.1-1c0-0.1,0-0.2-0.1-0.2c-0.1,0-0.4,0.1-0.8,0.1
	c-0.6,0-0.9-0.3-0.9-0.9v-3.7h1.7V71h-1.7v-1.5h-1.6V71h-1v1.2h1v3.4C12.5,77.1,13.1,78.1,14.9,78.1z"/>
<path fill="#FFFFFF" d="M19.5,70.9c-2,0-3.2,1.4-3.2,3.6c0,2.3,1.1,3.6,3.6,3.6c1,0,1.8-0.3,2.1-0.4c0-0.3,0-0.9-0.1-1.1
	c0-0.1-0.1-0.2-0.1-0.2s-0.2,0.1-0.3,0.1c-0.2,0.1-0.7,0.3-1.5,0.3c-1.4,0-2.1-0.9-2.1-2h4.4c0-0.1,0.1-0.7,0.1-1
	C22.4,72.5,21.7,70.9,19.5,70.9z M17.9,73.8c0-0.6,0.2-1.7,1.5-1.7c1.1,0,1.4,1,1.4,1.6c0,0.1,0,0.1,0,0.2H17.9z"/>
<path fill="#FFFFFF" d="M23.6,71c0,0.4,0.1,1.2,0.1,1.9c0,0.6,0,5,0,5h1.6c0,0,0-2.8,0-3.4c0-1.7,0.8-2.3,1.6-2.3
	c0.2,0,0.3,0,0.5,0.1c0.1,0,0.2,0.1,0.3,0.1c0.1,0,0.1-0.1,0.1-0.2c0-0.1,0-0.7,0.1-1.1c-0.1,0-0.4-0.2-0.8-0.2
	c-1.4,0-1.8,1.1-1.9,1.2H25c0-0.2,0-0.7,0-0.9c0-0.1,0-0.2-0.2-0.2C24.6,71,23.6,71,23.6,71z"/>
<path fill="#FFFFFF" d="M34.1,70.9c-1.3,0-2.6,0.7-2.6,2.1c0,1.2,0.8,1.7,1.3,1.9l0.8,0.3c0.7,0.3,0.9,0.6,0.9,0.9
	c0,0.4-0.4,0.8-1.3,0.8c-0.5,0-1-0.1-1.1-0.2c-0.1,0-0.2,0-0.2,0c-0.1,0-0.1,0.1-0.2,0.2c0,0.3-0.1,0.9-0.1,1.1
	c0.1,0,0.7,0.1,1.5,0.1c1.5,0,3-0.6,3-2.2c0-1-0.8-1.6-1.4-1.8L34,73.8c-0.6-0.2-0.9-0.5-0.9-0.9c0-0.4,0.4-0.8,1.2-0.8
	c0.5,0,0.9,0.2,1.1,0.2c0,0,0.1,0,0.2,0c0.1,0,0.1-0.1,0.2-0.3c0-0.4,0-0.8,0.1-1C35.6,71,35,70.9,34.1,70.9z"/>
<path fill="#FFFFFF" d="M38.9,78c0.1,0,0.4,0.1,1.1,0.1c2.2,0,3.7-1.6,3.7-3.9c0-1.2-0.4-3.3-2.8-3.3c-1.3,0-1.9,0.8-2.1,1.2h-0.1
	c0,0,0-0.7,0-0.9c0-0.1-0.1-0.2-0.2-0.2c-0.2,0-1.2,0-1.2,0c0,0.5,0.1,1.4,0.1,2.1c0,0.5,0,8,0,8h1.6V78z M40,76.9
	c-0.6,0-0.9-0.1-1.1-0.1c0,0,0-1.9,0-2.3c0-1.6,0.8-2.4,1.6-2.4c1.2,0,1.5,1,1.5,2.1C42,76,41.3,76.9,40,76.9z"/>
<path fill="#FFFFFF" d="M47.5,70.9c-2,0-3.2,1.4-3.2,3.6c0,2.3,1.1,3.6,3.6,3.6c1,0,1.8-0.3,2.1-0.4c0-0.3,0-0.9-0.1-1.1
	c0-0.1-0.1-0.2-0.1-0.2c-0.1,0-0.2,0.1-0.3,0.1c-0.2,0.1-0.7,0.3-1.5,0.3c-1.4,0-2.1-0.9-2.1-2h4.4c0-0.1,0.1-0.7,0.1-1
	C50.4,72.5,49.7,70.9,47.5,70.9z M45.9,73.8c0-0.6,0.2-1.7,1.5-1.7c1.1,0,1.4,1,1.4,1.6c0,0.1,0,0.1,0,0.2H45.9z"/>
<path fill="#FFFFFF" d="M53.2,78c0,0,0-2.4,0-3.4c0-1.6,0.8-2.4,1.6-2.4c0.6,0,1.1,0.3,1.1,1.4c0,0.4,0,4.4,0,4.4h1.6
	c0,0,0-3.7,0-4.9c0-1.2-0.8-2.2-2.3-2.2c-1.1,0-1.7,0.5-2.1,1.2H53c0,0,0-0.7,0-0.9c0-0.1-0.1-0.2-0.2-0.2c-0.2,0-1.2,0-1.2,0
	c0,0.5,0.1,1.4,0.1,2.1c0,0.5,0,4.8,0,4.8H53.2z"/>
<path fill="#FFFFFF" d="M63.5,71c-0.1,0-0.4-0.1-1.1-0.1c-2.3,0-3.7,1.6-3.7,3.9c0,1.2,0.4,3.3,2.7,3.3c1.3,0,1.9-0.8,2.1-1.2h0.1
	c0,0,0,0.7,0,0.9c0,0.1,0.1,0.2,0.2,0.2c0.2,0,1.3,0,1.3,0c0-0.5-0.1-1.4-0.1-2.1c0-0.5,0-7.9,0-7.9h-1.6V71z M62.4,72.1
	c0.6,0,0.9,0.1,1.1,0.1c0,0,0,1.9,0,2.3c0,1.6-0.8,2.4-1.6,2.4c-1.2,0-1.5-1-1.5-2.1C60.4,73,61.1,72.1,62.4,72.1z"/>
<path fill="#FFFFFF" d="M66.8,78V71h1.6V78H66.8z M66.8,69.5h1.6v-1.6h-1.6V69.5z"/>
<path fill="#FFFFFF" d="M71.7,78c0,0,0-2.4,0-3.4c0-1.6,0.8-2.4,1.6-2.4c0.6,0,1.1,0.3,1.1,1.4c0,0.4,0,4.4,0,4.4h1.6
	c0,0,0-3.7,0-4.9c0-1.2-0.8-2.2-2.3-2.2c-1.1,0-1.7,0.5-2.1,1.2h-0.1c0,0,0-0.7,0-0.9c0-0.1-0.1-0.2-0.2-0.2c-0.2,0-1.2,0-1.2,0
	c0,0.5,0.1,1.4,0.1,2.1c0,0.5,0,4.8,0,4.8H71.7z"/>
<path fill="#FFFFFF" d="M83.8,78.8c0-1.2-0.8-1.9-2.4-1.9h-1.3c-0.7,0-0.9-0.2-0.9-0.6c0-0.3,0.2-0.4,0.4-0.5c0.2,0,0.5,0.1,0.8,0.1
	c1.9,0,3-1.1,3-2.5c0-0.6-0.3-1-0.5-1.1c0,0,0.4,0,0.6,0c0.2,0,0.4,0,0.4-0.3c0-0.3,0-0.6,0-0.8h-2.3c-0.4-0.1-0.7-0.1-1.1-0.1
	c-2,0-3.1,1.2-3.1,2.7c0,1.3,0.8,1.9,1.2,2c-0.3,0.1-0.9,0.4-0.9,1.1c0,0.7,0.5,1,0.8,1c-0.5,0.2-1.2,0.6-1.2,1.6c0,1.3,1,2.1,3,2.1
	C82.4,81.4,83.8,80.2,83.8,78.8z M82.3,79c0,0.7-0.7,1.3-1.9,1.3c-1,0-1.6-0.4-1.6-1.1c0-0.6,0.4-1,0.7-1.1c0.1,0,0.3,0,0.4,0h1.1
	C81.9,78,82.3,78.4,82.3,79z M81.8,73.4c0,0.9-0.6,1.4-1.5,1.4c-1,0-1.5-0.5-1.5-1.4c0-0.8,0.5-1.4,1.5-1.4
	C81.3,72,81.8,72.5,81.8,73.4z"/>
<path fill="#FFFFFF" d="M94.2,75.2c0-1.5-1.1-2.2-2.2-2.6l-0.9-0.4C90.4,72,90,71.6,90,71c0-0.6,0.5-1.2,1.8-1.2
	c0.8,0,1.4,0.2,1.6,0.2l0.1-1.4c-0.2-0.1-0.9-0.2-1.5-0.2v-1.1h-1.3v1.2c-1.6,0.3-2.4,1.3-2.4,2.5c0,1.5,0.9,2.2,2,2.6l0.9,0.4
	c0.8,0.3,1.4,0.7,1.4,1.4c0,0.8-0.6,1.3-2,1.3c-1.1,0-1.6-0.3-1.8-0.3l-0.1,1.5c0.3,0.1,1.1,0.2,2.1,0.2v1.3H92v-1.5
	C93.4,77.5,94.2,76.6,94.2,75.2z"/>
<path fill="#FFFFFF" d="M98.6,78v-9.6c0,0-0.9,0-1.2,0C97,68.9,96,69.4,95,69.5l0.2,1.2c0.6-0.1,1.4-0.3,1.8-0.6V78H98.6z"/>
<path fill="#FFFFFF" d="M100.5,78h0.8c0,0.5-0.1,1.1-0.7,1.5l0.3,0.3c0.6-0.3,1.3-1,1.3-2.1v-1.3h-1.6V78z"/>
<path fill="#FFFFFF" d="M103.6,73.2c0,2.8,0.9,4.9,3.5,4.9c2.4,0,3.5-2.5,3.5-4.9c0-1.8-0.8-4.9-3.5-4.9
	C104.4,68.4,103.6,70.6,103.6,73.2z M107.1,76.7c-1.4,0-1.9-1.2-1.9-3.5c0-2.2,0.4-3.5,1.9-3.5c1.8,0,1.9,2.7,1.9,3.5
	C109,75.5,108.3,76.7,107.1,76.7z"/>
<path fill="#FFFFFF" d="M112,73.2c0,2.8,0.9,4.9,3.5,4.9c2.4,0,3.5-2.5,3.5-4.9c0-1.8-0.8-4.9-3.5-4.9C112.8,68.4,112,70.6,112,73.2
	z M115.5,76.7c-1.4,0-1.9-1.2-1.9-3.5c0-2.2,0.4-3.5,1.9-3.5c1.8,0,1.9,2.7,1.9,3.5C117.4,75.5,116.7,76.7,115.5,76.7z"/>
<path fill="#FFFFFF" d="M120.4,73.2c0,2.8,0.9,4.9,3.5,4.9c2.4,0,3.5-2.5,3.5-4.9c0-1.8-0.8-4.9-3.5-4.9
	C121.2,68.4,120.4,70.6,120.4,73.2z M123.9,76.7c-1.4,0-1.9-1.2-1.9-3.5c0-2.2,0.4-3.5,1.9-3.5c1.8,0,1.9,2.7,1.9,3.5
	C125.8,75.5,125.1,76.7,123.9,76.7z"/>
<path fill="#FFFFFF" d="M132.2,78V71h1.6V78H132.2z M132.2,69.5h1.6v-1.6h-1.6V69.5z"/>
<path fill="#FFFFFF" d="M137.2,78c0,0,0-2.4,0-3.4c0-1.6,0.8-2.4,1.6-2.4c0.6,0,1.1,0.3,1.1,1.4c0,0.4,0,4.4,0,4.4h1.6
	c0,0,0-3.7,0-4.9c0-1.2-0.8-2.2-2.3-2.2c-1.1,0-1.7,0.5-2.1,1.2H137c0,0,0-0.7,0-0.9c0-0.1-0.1-0.2-0.2-0.2c-0.2,0-1.2,0-1.2,0
	c0,0.5,0.1,1.4,0.1,2.1c0,0.5,0,4.8,0,4.8H137.2z"/>
<path fill="#FFFFFF" d="M148,78c0.1,0,0.4,0.1,1.1,0.1c2.2,0,3.7-1.6,3.7-3.9c0-1.2-0.4-3.3-2.8-3.3c-1.3,0-1.9,0.8-2.1,1.2h-0.1
	c0,0,0-0.7,0-0.9c0-0.1-0.1-0.2-0.2-0.2c-0.2,0-1.2,0-1.2,0c0,0.5,0.1,1.4,0.1,2.1c0,0.5,0,8,0,8h1.6V78z M149.1,76.9
	c-0.6,0-0.9-0.1-1.1-0.1c0,0,0-1.9,0-2.3c0-1.6,0.8-2.4,1.6-2.4c1.2,0,1.5,1,1.5,2.1C151.1,76,150.4,76.9,149.1,76.9z"/>
<path fill="#FFFFFF" d="M158.2,71c0,0,0,2.4,0,3.4c0,1.6-0.8,2.4-1.6,2.4c-0.6,0-1.1-0.3-1.1-1.4c0-0.4,0-4.4,0-4.4h-1.6
	c0,0,0,3.7,0,4.9c0,1.2,0.8,2.2,2.3,2.2c1.1,0,1.7-0.5,2.1-1.2h0.1c0,0,0,0.7,0,0.9c0,0.1,0.1,0.2,0.2,0.2c0.2,0,1.2,0,1.2,0
	c0-0.5-0.1-1.4-0.1-2.1c0-0.5,0-4.8,0-4.8H158.2z"/>
<path fill="#FFFFFF" d="M161.6,71c0,0.4,0.1,1.2,0.1,1.9c0,0.6,0,5,0,5h1.6c0,0,0-2.8,0-3.4c0-1.7,0.8-2.3,1.6-2.3
	c0.2,0,0.3,0,0.5,0.1c0.1,0,0.2,0.1,0.3,0.1c0.1,0,0.1-0.1,0.1-0.2c0-0.1,0-0.7,0.1-1.1c-0.1,0-0.4-0.2-0.8-0.2
	c-1.4,0-1.8,1.1-1.9,1.2H163c0-0.2,0-0.7,0-0.9c0-0.1,0-0.2-0.2-0.2C162.6,71,161.6,71,161.6,71z"/>
<path fill="#FFFFFF" d="M169.2,70.9c-2.2,0-3.4,1.4-3.4,3.6c0,2.4,1.3,3.6,3.4,3.6c0.9,0,1.6-0.4,1.8-0.5c0-0.3,0-0.9,0-1
	c0-0.1,0-0.2-0.1-0.2c-0.1,0-0.1,0-0.3,0.1c-0.2,0.1-0.6,0.3-1.2,0.3c-1.3,0-1.9-0.9-1.9-2.4c0-1.5,0.5-2.4,1.9-2.4
	c0.6,0,1.2,0.3,1.4,0.4c0.1,0,0.1,0.1,0.2,0.1c0.1,0,0.1-0.2,0.1-0.2c0-0.2,0-0.6,0-1C170.8,71.2,170.1,70.9,169.2,70.9z"/>
<path fill="#FFFFFF" d="M173.8,78c0,0,0-2.4,0-3.4c0-1.6,0.8-2.4,1.6-2.4c0.6,0,1.1,0.3,1.1,1.4c0,0.4,0,4.4,0,4.4h1.6
	c0,0,0-3.7,0-4.9c0-1.2-0.8-2.2-2.3-2.2c-1,0-1.5,0.4-1.9,0.9h-0.1v-3.9h-1.6v10H173.8z"/>
<path fill="#FFFFFF" d="M179.8,71.3c0,0.2,0,0.8,0,1.1c0,0,0,0.1,0.1,0.1c0.1,0,0.2-0.1,0.2-0.1c0.2-0.1,0.9-0.4,1.7-0.4
	c0.9,0,1.5,0.3,1.5,1.1c0,0,0,0.2,0,0.2s-0.3,0-0.4,0c-1.8,0-3.8,0.6-3.8,2.4c0,1.3,0.9,2.2,2.2,2.2c1.3,0,1.8-0.7,2.1-1h0.1l0,0.6
	c0,0.2,0,0.3,0.3,0.3c0.2,0,1.3,0,1.3,0c-0.1-0.5-0.1-1.2-0.1-1.8v-2.8c0-1.7-1-2.5-2.9-2.5C181,70.9,180,71.2,179.8,71.3z
	 M183.1,74.4c0.2,0,0.4,0,0.4,0s0,0.4,0,0.5c0,1.1-0.6,2-1.5,2c-0.7,0-1.1-0.5-1.1-1.1C180.8,74.9,181.5,74.4,183.1,74.4z"/>
<path fill="#FFFFFF" d="M188.7,70.9c-1.3,0-2.6,0.7-2.6,2.1c0,1.2,0.8,1.7,1.3,1.9l0.8,0.3c0.7,0.3,0.9,0.6,0.9,0.9
	c0,0.4-0.4,0.8-1.3,0.8c-0.5,0-1-0.1-1.1-0.2c-0.1,0-0.2,0-0.2,0c-0.1,0-0.1,0.1-0.2,0.2c0,0.3-0.1,0.9-0.1,1.1
	c0.1,0,0.7,0.1,1.5,0.1c1.5,0,3-0.6,3-2.2c0-1-0.8-1.6-1.4-1.8l-0.7-0.3c-0.6-0.2-0.9-0.5-0.9-0.9c0-0.4,0.4-0.8,1.2-0.8
	c0.5,0,0.9,0.2,1.1,0.2c0,0,0.1,0,0.2,0c0.1,0,0.1-0.1,0.2-0.3c0-0.4,0-0.8,0.1-1C190.2,71,189.5,70.9,188.7,70.9z"/>
<path fill="#FFFFFF" d="M194.5,70.9c-2,0-3.2,1.4-3.2,3.6c0,2.3,1.1,3.6,3.6,3.6c1,0,1.8-0.3,2.1-0.4c0-0.3,0-0.9-0.1-1.1
	c0-0.1-0.1-0.2-0.1-0.2c-0.1,0-0.2,0.1-0.3,0.1c-0.2,0.1-0.7,0.3-1.5,0.3c-1.4,0-2.1-0.9-2.1-2h4.4c0-0.1,0.1-0.7,0.1-1
	C197.4,72.5,196.8,70.9,194.5,70.9z M193,73.8c0-0.6,0.2-1.7,1.5-1.7c1.1,0,1.4,1,1.4,1.6c0,0.1,0,0.1,0,0.2H193z"/>
<path fill="#FFFFFF" d="M200.8,70.9c-1.3,0-2.6,0.7-2.6,2.1c0,1.2,0.8,1.7,1.3,1.9l0.8,0.3c0.7,0.3,0.9,0.6,0.9,0.9
	c0,0.4-0.4,0.8-1.3,0.8c-0.5,0-1-0.1-1.1-0.2c-0.1,0-0.2,0-0.2,0c-0.1,0-0.1,0.1-0.2,0.2c0,0.3-0.1,0.9-0.1,1.1
	c0.1,0,0.7,0.1,1.5,0.1c1.5,0,3-0.6,3-2.2c0-1-0.8-1.6-1.4-1.8l-0.7-0.3c-0.6-0.2-0.9-0.5-0.9-0.9c0-0.4,0.4-0.8,1.2-0.8
	c0.5,0,0.9,0.2,1.1,0.2c0,0,0.1,0,0.2,0c0.1,0,0.1-0.1,0.2-0.3c0-0.4,0-0.8,0.1-1C202.2,71,201.6,70.9,200.8,70.9z"/>
<path fill="#FFFFFF" d="M208.4,78h1.8l1.5-5.1h0.1l1.5,5.1h1.8l2.1-6.9h-1.5l-1.4,5.1h-0.1l-1.5-5.1H211l-1.5,5.1h-0.1L208,71h-1.6
	L208.4,78z"/>
<path fill="#FFFFFF" d="M218.1,78V71h1.6V78H218.1z M218.1,69.5h1.6v-1.6h-1.6V69.5z"/>
<path fill="#FFFFFF" d="M224,78.1c0.6,0,1-0.1,1.1-0.2c0-0.3-0.1-1-0.1-1c0-0.1,0-0.2-0.1-0.2c-0.1,0-0.4,0.1-0.8,0.1
	c-0.6,0-0.9-0.3-0.9-0.9v-3.7h1.7V71h-1.7v-1.5h-1.6V71h-1v1.2h1v3.4C221.7,77.1,222.3,78.1,224,78.1z"/>
<path fill="#FFFFFF" d="M227.5,78c0,0,0-2.4,0-3.4c0-1.6,0.8-2.4,1.6-2.4c0.6,0,1.1,0.3,1.1,1.4c0,0.4,0,4.4,0,4.4h1.6
	c0,0,0-3.7,0-4.9c0-1.2-0.8-2.2-2.3-2.2c-1,0-1.5,0.4-1.9,0.9h-0.1v-3.9H226v10H227.5z"/>
<path fill="#FFFFFF" d="M233.5,78V71h1.6V78H233.5z M233.5,69.5h1.6v-1.6h-1.6V69.5z"/>
<path fill="#FFFFFF" d="M238.5,78c0,0,0-2.4,0-3.4c0-1.6,0.8-2.4,1.6-2.4c0.6,0,1.1,0.3,1.1,1.4c0,0.4,0,4.4,0,4.4h1.6
	c0,0,0-3.7,0-4.9c0-1.2-0.8-2.2-2.3-2.2c-1.1,0-1.7,0.5-2.1,1.2h-0.1c0,0,0-0.7,0-0.9c0-0.1-0.1-0.2-0.2-0.2c-0.2,0-1.2,0-1.2,0
	c0,0.5,0.1,1.4,0.1,2.1c0,0.5,0,4.8,0,4.8H238.5z"/>
<path fill="#FFFFFF" d="M253.5,78.1c0.6,0,1-0.1,1.1-0.2c0-0.3-0.1-1-0.1-1c0-0.1,0-0.2-0.1-0.2c-0.1,0-0.4,0.1-0.8,0.1
	c-0.6,0-0.9-0.3-0.9-0.9v-3.7h1.7V71h-1.7v-1.5h-1.6V71h-1v1.2h1v3.4C251.1,77.1,251.7,78.1,253.5,78.1z"/>
<path fill="#FFFFFF" d="M257,78c0,0,0-2.4,0-3.4c0-1.6,0.8-2.4,1.6-2.4c0.6,0,1.1,0.3,1.1,1.4c0,0.4,0,4.4,0,4.4h1.6
	c0,0,0-3.7,0-4.9c0-1.2-0.8-2.2-2.3-2.2c-1,0-1.5,0.4-1.9,0.9H257v-3.9h-1.6v10H257z"/>
<path fill="#FFFFFF" d="M265.6,70.9c-2,0-3.2,1.4-3.2,3.6c0,2.3,1.1,3.6,3.6,3.6c1,0,1.8-0.3,2.1-0.4c0-0.3,0-0.9-0.1-1.1
	c0-0.1-0.1-0.2-0.1-0.2c-0.1,0-0.2,0.1-0.3,0.1c-0.2,0.1-0.7,0.3-1.5,0.3c-1.4,0-2.1-0.9-2.1-2h4.4c0-0.1,0.1-0.7,0.1-1
	C268.6,72.5,267.9,70.9,265.6,70.9z M264.1,73.8c0-0.6,0.2-1.7,1.5-1.7c1.1,0,1.4,1,1.4,1.6c0,0.1,0,0.1,0,0.2H264.1z"/>
<path fill="#FFFFFF" d="M274.8,71v-0.5c0-0.8,0.3-1.7,1.7-1.7c0.7,0,1.2,0.2,1.5,0.2c0.1,0,0.1-0.1,0.1-0.2c0,0,0.1-0.8,0.1-1
	c-0.2-0.1-1.1-0.3-1.7-0.3c-2.1,0-3.2,0.9-3.2,2.9c0,0.2,0,0.5,0,0.5h-1v1.2h1c0,2.4,0,5.7,0,5.7h1.6c0,0,0-3.4,0-5.7h2.5V78h1.6V71
	H274.8z"/>
<path fill="#FFFFFF" d="M280.6,71c0,0.4,0.1,1.2,0.1,1.9c0,0.6,0,5,0,5h1.6c0,0,0-2.8,0-3.4c0-1.7,0.8-2.3,1.6-2.3
	c0.2,0,0.3,0,0.5,0.1c0.1,0,0.2,0.1,0.3,0.1c0.1,0,0.1-0.1,0.1-0.2c0-0.1,0-0.7,0.1-1.1c-0.1,0-0.4-0.2-0.8-0.2
	c-1.4,0-1.8,1.1-1.9,1.2H282c0-0.2,0-0.7,0-0.9c0-0.1,0-0.2-0.2-0.2C281.6,71,280.6,71,280.6,71z"/>
<path fill="#FFFFFF" d="M287.9,70.9c-1.3,0-2.6,0.7-2.6,2.1c0,1.2,0.8,1.7,1.3,1.9l0.8,0.3c0.7,0.3,0.9,0.6,0.9,0.9
	c0,0.4-0.4,0.8-1.3,0.8c-0.5,0-1-0.1-1.1-0.2c-0.1,0-0.2,0-0.2,0c-0.1,0-0.1,0.1-0.2,0.2c0,0.3-0.1,0.9-0.1,1.1
	c0.1,0,0.7,0.1,1.5,0.1c1.5,0,3-0.6,3-2.2c0-1-0.8-1.6-1.4-1.8l-0.7-0.3c-0.6-0.2-0.9-0.5-0.9-0.9c0-0.4,0.4-0.8,1.2-0.8
	c0.5,0,0.9,0.2,1.1,0.2c0,0,0.1,0,0.2,0c0.1,0,0.1-0.1,0.2-0.3c0-0.4,0-0.8,0.1-1C289.3,71,288.7,70.9,287.9,70.9z"/>
<path fill="#FFFFFF" d="M293.6,78.1c0.6,0,1-0.1,1.1-0.2c0-0.3-0.1-1-0.1-1c0-0.1,0-0.2-0.1-0.2c-0.1,0-0.4,0.1-0.8,0.1
	c-0.6,0-0.9-0.3-0.9-0.9v-3.7h1.7V71h-1.7v-1.5h-1.6V71h-1v1.2h1v3.4C291.2,77.1,291.8,78.1,293.6,78.1z"/>
<path fill="#FFFFFF" d="M298.2,68.8l0.3,1.3c0.1-0.1,0.8-0.4,1.5-0.4c1.1,0,1.6,0.7,1.6,1.3c0,0.9-0.9,1.5-2.1,1.5
	c-0.2,0-0.4,0-0.4,0v1.1h0.5c1.6,0,2.2,0.7,2.2,1.6c0,1-0.8,1.5-2,1.5c-0.6,0-1.1-0.1-1.4-0.1l0.1,1.4c0.1,0,0.6,0.1,1.3,0.1
	c2.3,0,3.6-1.1,3.6-2.8c0-1.6-1.3-2.2-1.8-2.3v0c0.3-0.1,1.6-0.7,1.6-2.1c0-1.5-1.2-2.5-2.8-2.5C299.2,68.4,298.6,68.6,298.2,68.8z"
	/>
<path fill="#FFFFFF" d="M308.1,71c0,0.5,0.1,1.3,0.1,2.1s0,4.8,0,4.8h1.6c0,0,0-3.1,0-3.6c0-1.1,0.4-2.2,1.4-2.2
	c0.7,0,1.2,0.4,1.2,1.4c0,0.6,0,4.4,0,4.4h1.6c0,0,0-2.7,0-3.6c0-1.2,0.5-2.2,1.5-2.2c1,0,1.1,0.8,1.1,1.6c0,0.7,0,4.2,0,4.2h1.6
	c0,0,0-4.1,0-4.8c0-1.7-1.1-2.3-2.3-2.3c-1.3,0-1.9,0.9-2.1,1.3c-0.2-0.4-0.7-1.3-2-1.3c-1.4,0-2,1-2,1.2h-0.1c0,0,0-0.8,0-0.9
	c0-0.1,0-0.2-0.2-0.2C309.1,71,308.1,71,308.1,71z"/>
<path fill="#FFFFFF" d="M322.6,72.1c1.1,0,1.7,1,1.7,2.4c0,1.5-0.7,2.4-1.7,2.4c-1.4,0-1.7-1.3-1.7-2.4
	C320.8,73,321.5,72.1,322.6,72.1z M319.2,74.5c0,2.3,1.3,3.6,3.4,3.6c2.4,0,3.4-1.7,3.4-3.6c0-2-1.1-3.6-3.4-3.6
	C320.1,70.9,319.2,72.7,319.2,74.5z"/>
<path fill="#FFFFFF" d="M328.8,78c0,0,0-2.4,0-3.4c0-1.6,0.8-2.4,1.6-2.4c0.6,0,1.1,0.3,1.1,1.4c0,0.4,0,4.4,0,4.4h1.6
	c0,0,0-3.7,0-4.9c0-1.2-0.8-2.2-2.3-2.2c-1.1,0-1.7,0.5-2.1,1.2h-0.1c0,0,0-0.7,0-0.9c0-0.1-0.1-0.2-0.2-0.2c-0.2,0-1.2,0-1.2,0
	c0,0.5,0.1,1.4,0.1,2.1c0,0.5,0,4.8,0,4.8H328.8z"/>
<path fill="#FFFFFF" d="M337.4,78.1c0.6,0,1-0.1,1.1-0.2c0-0.3-0.1-1-0.1-1c0-0.1,0-0.2-0.1-0.2c-0.1,0-0.4,0.1-0.8,0.1
	c-0.6,0-0.9-0.3-0.9-0.9v-3.7h1.7V71h-1.7v-1.5H335V71h-1v1.2h1v3.4C335,77.1,335.6,78.1,337.4,78.1z"/>
<path fill="#FFFFFF" d="M340.9,78c0,0,0-2.4,0-3.4c0-1.6,0.8-2.4,1.6-2.4c0.6,0,1.1,0.3,1.1,1.4c0,0.4,0,4.4,0,4.4h1.6
	c0,0,0-3.7,0-4.9c0-1.2-0.8-2.2-2.3-2.2c-1,0-1.5,0.4-1.9,0.9h-0.1v-3.9h-1.6v10H340.9z"/>
<path fill="#FFFFFF" d="M349,70.9c-1.3,0-2.6,0.7-2.6,2.1c0,1.2,0.8,1.7,1.3,1.9l0.8,0.3c0.7,0.3,0.9,0.6,0.9,0.9
	c0,0.4-0.4,0.8-1.3,0.8c-0.5,0-1-0.1-1.1-0.2c-0.1,0-0.2,0-0.2,0c-0.1,0-0.1,0.1-0.2,0.2c0,0.3-0.1,0.9-0.1,1.1
	c0.1,0,0.7,0.1,1.5,0.1c1.5,0,3-0.6,3-2.2c0-1-0.8-1.6-1.4-1.8l-0.7-0.3c-0.6-0.2-0.9-0.5-0.9-0.9c0-0.4,0.4-0.8,1.2-0.8
	c0.5,0,0.9,0.2,1.1,0.2c0,0,0.1,0,0.2,0c0.1,0,0.1-0.1,0.2-0.3c0-0.4,0-0.8,0.1-1C350.4,71,349.8,70.9,349,70.9z"/>
<path fill="#FFFFFF" d="M358.2,72.1c1.1,0,1.7,1,1.7,2.4c0,1.5-0.7,2.4-1.7,2.4c-1.4,0-1.7-1.3-1.7-2.4
	C356.4,73,357.1,72.1,358.2,72.1z M354.8,74.5c0,2.3,1.3,3.6,3.4,3.6c2.4,0,3.4-1.7,3.4-3.6c0-2-1.1-3.6-3.4-3.6
	C355.7,70.9,354.8,72.7,354.8,74.5z"/>
<path fill="#FFFFFF" d="M365.8,67.8c-1.8,0-2.8,0.9-2.8,2.9V71h-1v1.2h1c0,2.4,0,5.7,0,5.7h1.6c0,0,0-3.4,0-5.7h1.7V71h-1.7v-0.5
	c0-0.8,0.3-1.5,1.3-1.5c0.5,0,0.7,0.1,0.8,0.1c0.1,0,0.1-0.1,0.1-0.2c0,0,0.1-0.8,0.1-1C366.8,67.9,366.4,67.8,365.8,67.8z"/>
<path fill="#FFFFFF" d="M370.6,71.3c0,0.2,0,0.8,0,1.1c0,0,0,0.1,0.1,0.1c0.1,0,0.2-0.1,0.2-0.1c0.2-0.1,0.9-0.4,1.7-0.4
	c0.9,0,1.5,0.3,1.5,1.1c0,0,0,0.2,0,0.2s-0.3,0-0.4,0c-1.8,0-3.8,0.6-3.8,2.4c0,1.3,0.9,2.2,2.2,2.2c1.3,0,1.8-0.7,2.1-1h0.1l0,0.6
	c0,0.2,0,0.3,0.3,0.3c0.2,0,1.3,0,1.3,0c-0.1-0.5-0.1-1.2-0.1-1.8v-2.8c0-1.7-1-2.5-2.9-2.5C371.8,70.9,370.8,71.2,370.6,71.3z
	 M373.8,74.4c0.2,0,0.4,0,0.4,0s0,0.4,0,0.5c0,1.1-0.6,2-1.5,2c-0.7,0-1.1-0.5-1.1-1.1C371.6,74.9,372.3,74.4,373.8,74.4z"/>
<path fill="#FFFFFF" d="M380.1,70.9c-2.2,0-3.4,1.4-3.4,3.6c0,2.4,1.3,3.6,3.4,3.6c0.9,0,1.6-0.4,1.8-0.5c0-0.3,0-0.9,0-1
	c0-0.1,0-0.2-0.1-0.2c-0.1,0-0.1,0-0.3,0.1c-0.2,0.1-0.6,0.3-1.2,0.3c-1.3,0-1.9-0.9-1.9-2.4c0-1.5,0.5-2.4,1.9-2.4
	c0.6,0,1.2,0.3,1.4,0.4c0.1,0,0.1,0.1,0.2,0.1c0.1,0,0.1-0.2,0.1-0.2c0-0.2,0-0.6,0-1C381.7,71.2,381,70.9,380.1,70.9z"/>
<path fill="#FFFFFF" d="M385.9,70.9c-2.2,0-3.4,1.4-3.4,3.6c0,2.4,1.3,3.6,3.4,3.6c0.9,0,1.6-0.4,1.8-0.5c0-0.3,0-0.9,0-1
	c0-0.1,0-0.2-0.1-0.2c-0.1,0-0.1,0-0.3,0.1c-0.2,0.1-0.6,0.3-1.2,0.3c-1.3,0-1.9-0.9-1.9-2.4c0-1.5,0.5-2.4,1.9-2.4
	c0.6,0,1.2,0.3,1.4,0.4c0.1,0,0.1,0.1,0.2,0.1c0.1,0,0.1-0.2,0.1-0.2c0-0.2,0-0.6,0-1C387.5,71.2,386.7,70.9,385.9,70.9z"/>
<path fill="#FFFFFF" d="M391.8,72.1c1.1,0,1.7,1,1.7,2.4c0,1.5-0.7,2.4-1.7,2.4c-1.4,0-1.7-1.3-1.7-2.4
	C390,73,390.7,72.1,391.8,72.1z M388.4,74.5c0,2.3,1.3,3.6,3.4,3.6c2.4,0,3.4-1.7,3.4-3.6c0-2-1.1-3.6-3.4-3.6
	C389.3,70.9,388.4,72.7,388.4,74.5z"/>
<path fill="#FFFFFF" d="M400.6,71c0,0,0,2.4,0,3.4c0,1.6-0.8,2.4-1.6,2.4c-0.6,0-1.1-0.3-1.1-1.4c0-0.4,0-4.4,0-4.4h-1.6
	c0,0,0,3.7,0,4.9c0,1.2,0.8,2.2,2.3,2.2c1.1,0,1.7-0.5,2.1-1.2h0.1c0,0,0,0.7,0,0.9c0,0.1,0.1,0.2,0.2,0.2c0.2,0,1.2,0,1.2,0
	c0-0.5-0.1-1.4-0.1-2.1c0-0.5,0-4.8,0-4.8H400.6z"/>
<path fill="#FFFFFF" d="M405.6,78c0,0,0-2.4,0-3.4c0-1.6,0.8-2.4,1.6-2.4c0.6,0,1.1,0.3,1.1,1.4c0,0.4,0,4.4,0,4.4h1.6
	c0,0,0-3.7,0-4.9c0-1.2-0.8-2.2-2.3-2.2c-1.1,0-1.7,0.5-2.1,1.2h-0.1c0,0,0-0.7,0-0.9c0-0.1-0.1-0.2-0.2-0.2c-0.2,0-1.2,0-1.2,0
	c0,0.5,0.1,1.4,0.1,2.1c0,0.5,0,4.8,0,4.8H405.6z"/>
<path fill="#FFFFFF" d="M414.2,78.1c0.6,0,1-0.1,1.1-0.2c0-0.3-0.1-1-0.1-1c0-0.1,0-0.2-0.1-0.2c-0.1,0-0.4,0.1-0.8,0.1
	c-0.6,0-0.9-0.3-0.9-0.9v-3.7h1.7V71h-1.7v-1.5h-1.6V71h-1v1.2h1v3.4C411.8,77.1,412.4,78.1,414.2,78.1z"/>
<path fill="#FFFFFF" d="M422.2,72.1c1.1,0,1.7,1,1.7,2.4c0,1.5-0.7,2.4-1.7,2.4c-1.4,0-1.7-1.3-1.7-2.4
	C420.5,73,421.2,72.1,422.2,72.1z M418.8,74.5c0,2.3,1.3,3.6,3.4,3.6c2.4,0,3.4-1.7,3.4-3.6c0-2-1.1-3.6-3.4-3.6
	C419.7,70.9,418.8,72.7,418.8,74.5z"/>
<path fill="#FFFFFF" d="M428.4,78c0.1,0,0.4,0.1,1.1,0.1c2.2,0,3.7-1.6,3.7-3.9c0-1.2-0.4-3.3-2.8-3.3c-1.3,0-1.9,0.8-2.1,1.2h-0.1
	c0,0,0-0.7,0-0.9c0-0.1-0.1-0.2-0.2-0.2c-0.2,0-1.2,0-1.2,0c0,0.5,0.1,1.4,0.1,2.1c0,0.5,0,8,0,8h1.6V78z M429.5,76.9
	c-0.6,0-0.9-0.1-1.1-0.1c0,0,0-1.9,0-2.3c0-1.6,0.8-2.4,1.6-2.4c1.2,0,1.5,1,1.5,2.1C431.5,76,430.8,76.9,429.5,76.9z"/>
<path fill="#FFFFFF" d="M437,70.9c-2,0-3.2,1.4-3.2,3.6c0,2.3,1.1,3.6,3.6,3.6c1,0,1.8-0.3,2.1-0.4c0-0.3,0-0.9-0.1-1.1
	c0-0.1-0.1-0.2-0.1-0.2s-0.2,0.1-0.3,0.1c-0.2,0.1-0.7,0.3-1.5,0.3c-1.4,0-2.1-0.9-2.1-2h4.4c0-0.1,0.1-0.7,0.1-1
	C439.9,72.5,439.3,70.9,437,70.9z M435.5,73.8c0-0.6,0.2-1.7,1.5-1.7c1.1,0,1.4,1,1.4,1.6c0,0.1,0,0.1,0,0.2H435.5z"/>
<path fill="#FFFFFF" d="M442.8,78c0,0,0-2.4,0-3.4c0-1.6,0.8-2.4,1.6-2.4c0.6,0,1.1,0.3,1.1,1.4c0,0.4,0,4.4,0,4.4h1.6
	c0,0,0-3.7,0-4.9c0-1.2-0.8-2.2-2.3-2.2c-1.1,0-1.7,0.5-2.1,1.2h-0.1c0,0,0-0.7,0-0.9c0-0.1-0.1-0.2-0.2-0.2c-0.2,0-1.2,0-1.2,0
	c0,0.5,0.1,1.4,0.1,2.1c0,0.5,0,4.8,0,4.8H442.8z"/>
<path fill="#FFFFFF" d="M448.8,78V71h1.6V78H448.8z M448.8,69.5h1.6v-1.6h-1.6V69.5z"/>
<path fill="#FFFFFF" d="M453.7,78c0,0,0-2.4,0-3.4c0-1.6,0.8-2.4,1.6-2.4c0.6,0,1.1,0.3,1.1,1.4c0,0.4,0,4.4,0,4.4h1.6
	c0,0,0-3.7,0-4.9c0-1.2-0.8-2.2-2.3-2.2c-1.1,0-1.7,0.5-2.1,1.2h-0.1c0,0,0-0.7,0-0.9c0-0.1-0.1-0.2-0.2-0.2c-0.2,0-1.2,0-1.2,0
	c0,0.5,0.1,1.4,0.1,2.1c0,0.5,0,4.8,0,4.8H453.7z"/>
<path fill="#FFFFFF" d="M465.8,78.8c0-1.2-0.8-1.9-2.4-1.9H462c-0.7,0-0.9-0.2-0.9-0.6c0-0.3,0.2-0.4,0.4-0.5c0.2,0,0.5,0.1,0.8,0.1
	c1.9,0,3-1.1,3-2.5c0-0.6-0.3-1-0.5-1.1c0,0,0.4,0,0.6,0c0.2,0,0.4,0,0.4-0.3c0-0.3,0-0.6,0-0.8h-2.3c-0.4-0.1-0.7-0.1-1.1-0.1
	c-2,0-3.1,1.2-3.1,2.7c0,1.3,0.8,1.9,1.2,2c-0.3,0.1-0.9,0.4-0.9,1.1c0,0.7,0.5,1,0.8,1c-0.5,0.2-1.2,0.6-1.2,1.6c0,1.3,1,2.1,3,2.1
	C464.4,81.4,465.8,80.2,465.8,78.8z M464.2,79c0,0.7-0.7,1.3-1.9,1.3c-1,0-1.6-0.4-1.6-1.1c0-0.6,0.4-1,0.7-1.1c0.1,0,0.3,0,0.4,0
	h1.1C463.9,78,464.2,78.4,464.2,79z M463.8,73.4c0,0.9-0.6,1.4-1.5,1.4c-1,0-1.5-0.5-1.5-1.4c0-0.8,0.5-1.4,1.5-1.4
	C463.3,72,463.8,72.5,463.8,73.4z"/>
<path fill="#FFFFFF" d="M466.7,78h1.6v-1.6h-1.6V78z"/>
</svg>
