<svg xmlns="http://www.w3.org/2000/svg" width="239.875" height="111.312" viewBox="0 0 239.875 111.312">
  <metadata><?xpacket begin="﻿" id="W5M0MpCehiHzreSzNTczkc9d"?>
<x:xmpmeta xmlns:x="adobe:ns:meta/" x:xmptk="Adobe XMP Core 5.6-c138 79.159824, 2016/09/14-01:09:01        ">
   <rdf:RDF xmlns:rdf="http://www.w3.org/1999/02/22-rdf-syntax-ns#">
      <rdf:Description rdf:about=""/>
   </rdf:RDF>
</x:xmpmeta>
                                                                                                    
                                                                                                    
                                                                                                    
                                                                                                    
                                                                                                    
                                                                                                    
                                                                                                    
                                                                                                    
                                                                                                    
                                                                                                    
                                                                                                    
                                                                                                    
                                                                                                    
                                                                                                    
                                                                                                    
                                                                                                    
                                                                                                    
                                                                                                    
                                                                                                    
                                                                                                    
                           
<?xpacket end="w"?></metadata>
<defs>
    <style>
      .cls-1 {
        fill: #fff;
        fill-rule: evenodd;
      }
    </style>
  </defs>
  <path id="HOLIDAY" class="cls-1" d="M29.636,131.243V111.727H40.108v19.516H51.26V82.963H40.108v18.768H29.636V82.963H18.484v48.28H29.636Zm46.036,0.748q6.732,0,10.3-2.04t5.066-7.14q1.495-5.1,1.5-14.824v-1.768q0-9.724-1.5-14.824t-5.066-7.14q-3.57-2.04-10.3-2.04t-10.3,2.04q-3.57,2.04-5.032,7.14t-1.462,14.824v1.768q0,9.725,1.462,14.824t5.032,7.14q3.57,2.04,10.3,2.04h0Zm0-8.568a4.11,4.11,0,0,1-3.366-1.36,9.536,9.536,0,0,1-1.564-4.692,81.848,81.848,0,0,1-.442-9.928v-0.68a81.863,81.863,0,0,1,.442-9.928,9.54,9.54,0,0,1,1.564-4.692,4.112,4.112,0,0,1,3.366-1.36,4.216,4.216,0,0,1,3.4,1.36,9.358,9.358,0,0,1,1.6,4.726,82.217,82.217,0,0,1,.442,9.894v0.68a82.209,82.209,0,0,1-.442,9.894,9.356,9.356,0,0,1-1.6,4.726,4.214,4.214,0,0,1-3.4,1.36h0Zm48.891,7.82v-9.656H111.371V82.963H100.219v48.28h24.344Zm17.067,0V82.963H130.478v48.28H141.63Zm8.975,0h14.348q7.276,0,11.152-1.972a11.267,11.267,0,0,0,5.508-6.936q1.632-4.963,1.632-14.348v-1.768q0-9.385-1.632-14.348a11.269,11.269,0,0,0-5.508-6.936q-3.876-1.971-11.152-1.972H150.6v48.28Zm11.152-8.772v-30.8h2.652a7.362,7.362,0,0,1,4.726,1.258,7.026,7.026,0,0,1,2.074,4.352,59.927,59.927,0,0,1,.544,9.486v0.68a59.918,59.918,0,0,1-.544,9.486,6.859,6.859,0,0,1-2.074,4.318,7.51,7.51,0,0,1-4.726,1.224h-2.652Zm62.492,8.772-11.7-48.28H198.205l-11.7,48.28H197.8l1.7-9.18h11.56l1.7,9.18h11.492Zm-18.972-40.12,4.216,22.644h-8.432Zm40.189-8.16L239.074,103.3l-6.392-20.332h-11.9l12.58,31.076v17.2h11.152v-17.2l12.58-31.076H245.466Z" transform="translate(-17.219 -82.219)"/>
  <path id="CHEER" class="cls-1" d="M34.082,193.519q6.159,0,9.73-1.75a10.721,10.721,0,0,0,5.25-6.02q1.68-4.269,1.68-12.11v-0.21H38.912v0.21a35.864,35.864,0,0,1-.49,6.79,6.233,6.233,0,0,1-1.5,3.325,4,4,0,0,1-2.835.945,3.85,3.85,0,0,1-3.22-1.33,9.978,9.978,0,0,1-1.47-4.76,93.112,93.112,0,0,1-.42-10.36v-0.7a93.125,93.125,0,0,1,.42-10.36,9.986,9.986,0,0,1,1.47-4.76,3.852,3.852,0,0,1,3.22-1.33,3.588,3.588,0,0,1,3.43,2q1.05,2,1.05,7.525v0.21h11.83v-0.21q0-7.14-1.68-11.13a10.2,10.2,0,0,0-5.215-5.6,23.011,23.011,0,0,0-9.415-1.61q-6.791,0-10.36,2.1t-5.04,7.35q-1.47,5.25-1.47,15.26v1.82q0,10.011,1.47,15.26t5.04,7.35q3.57,2.1,10.36,2.1h0Zm35.629-.77v-20.09h10.78v20.09h11.48v-49.7H80.491v19.32H69.711v-19.32H58.231v49.7h11.48Zm59.22,0V184h-16.24v-12.25h14.07V163h-14.07V151.8h15.54v-8.75h-27.02v49.7h27.72Zm34.789,0V184H147.48v-12.25h14.07V163H147.48V151.8h15.54v-8.75H136v49.7h27.72Zm40.6,0-7.28-20.02a9.2,9.2,0,0,0,4.83-4.585,19.842,19.842,0,0,0,1.47-8.365v-1.82q0-5.949-1.715-9.135a9.45,9.45,0,0,0-5.7-4.48,38.518,38.518,0,0,0-11.34-1.295h-13.79v49.7h11.48v-18.13h4.48l5.39,18.13h12.18Zm-19.95-27.09h-2.1v-13.65h2.1a14.07,14.07,0,0,1,4.55.56,3.391,3.391,0,0,1,2.1,1.925,11.12,11.12,0,0,1,.56,4.025v0.7a9.82,9.82,0,0,1-.595,3.815,3.758,3.758,0,0,1-2.135,2,12.348,12.348,0,0,1-4.48.63h0Z" transform="translate(-17.219 -82.219)"/>
</svg>
