<?xml version="1.0" encoding="utf-8"?>
<!-- Generator: Adobe Illustrator 18.1.1, SVG Export Plug-In . SVG Version: 6.00 Build 0)  -->
<svg version="1.1" id="Layer_1" xmlns="http://www.w3.org/2000/svg" xmlns:xlink="http://www.w3.org/1999/xlink" x="0px" y="0px"
	 viewBox="141.4 692.1 100.7 36.6" style="enable-background:new 141.4 692.1 100.7 36.6;" xml:space="preserve">
<g>
	<g transform="matrix( 1, 0, 0, 1, 129.95,24.8) ">
		<g>
			<g id="Layer0_0_FILL">
				<path style="fill:#231F20;" d="M62.9,667.5c-1.2,0-2.7,0.2-4.4,0.4c-3.5,0.5-6.8,1.3-9.8,2.4c-4,1.4-7.1,2.9-9.5,4.4
					c-1.2,0.7-1.9,1.3-2.3,1.8c2.6-0.8,4.7-1.3,6.5-1.5c0.9-0.1,1.5-0.2,1.9-0.2l5.1-2.8C54.4,669.8,58.6,668.4,62.9,667.5z"/>
			</g>
		</g>
	</g>
	<g transform="matrix( 1, 0, 0, 1, 129.95,24.8) ">
		<g>
			<g id="Layer0_1_FILL">
				<path style="fill:#EC342E;" d="M66.4,668.2c0.8-0.4,1.5-0.7,2.2-0.9c-3.3,0.1-6.9,0.9-10.8,2.5c-3.3,1.4-6,2.9-8.2,4.7l3.3-0.3
					c2.8,0,5.6,0.3,8.5,0.9c0-0.4,0.1-0.9,0.2-1.4c0.3-1.1,0.8-2.3,1.5-3.3C63.8,669.7,64.9,669,66.4,668.2z"/>
			</g>
		</g>
	</g>
	<g transform="matrix( 1, 0, 0, 1, 129.95,24.8) ">
		<g>
			<g id="Layer0_2_FILL">
				<path style="fill:#EC342E;" d="M11.6,688.1l-0.1,0.5c-0.3,1.2,0.1,2.1,1.1,2.7c0.9,0.5,2.4,0.8,4.6,0.8c4.5,0,7-1.3,7.5-3.7
					c0.4-1.6-0.8-2.8-3.3-3.6c-1.6-0.5-2.5-0.7-2.6-0.8c-0.8-0.3-1.1-0.8-1-1.3c0-0.3,0.2-0.6,0.5-0.8c0.4-0.3,0.8-0.5,1.3-0.5
					c0.5,0,0.8,0.1,1,0.4s0.2,0.5,0.1,0.9l-0.1,0.5h4.6c0.3-1.3,0-2.3-0.9-2.8c-0.9-0.6-2.3-0.9-4.5-0.9c-2.1,0-3.7,0.3-4.9,1
					c-1.2,0.6-1.9,1.6-2.2,2.8c-0.3,1.6,0.7,2.7,3.2,3.4c1.5,0.5,2.3,0.7,2.5,0.7c0.7,0.3,1,0.8,0.9,1.3c-0.1,0.4-0.3,0.7-0.6,0.9
					c-0.4,0.3-0.8,0.5-1.3,0.5c-1.1,0-1.5-0.5-1.4-1.4l0.1-0.5L11.6,688.1L11.6,688.1z"/>
			</g>
		</g>
	</g>
	<g transform="matrix( 1, 0, 0, 1, 129.95,24.8) ">
		<g>
			<g id="Layer0_3_FILL">
				<path style="fill:#EC342E;" d="M32.6,683c-1.4,0-2.5,0.2-3.5,0.5c-1.3,0.5-2.1,1.3-2.3,2.3h3.9c0.2-0.9,0.7-1.4,1.5-1.4
					c0.8,0,1.1,0.3,0.9,0.8l-0.2,1l-3.2,0.5c-1.4,0.2-2.5,0.5-3.1,0.9c-0.6,0.4-1,1-1.2,1.8c-0.2,0.8,0,1.4,0.5,1.8
					c0.5,0.5,1.4,0.7,2.7,0.7c0.7,0,1.3-0.1,1.9-0.3c0.6-0.2,1.1-0.5,1.4-0.9h0c0,0.5,0,0.8,0.1,0.9h4.4c-0.2-0.4-0.2-1,0-1.9
					l0.9-4.2c0.2-1-0.1-1.8-1-2.2C35.6,683.2,34.3,683,32.6,683 M32.5,688.9c-0.2,0.9-0.8,1.4-1.7,1.4c-0.3,0-0.5-0.1-0.7-0.4
					c-0.1-0.2-0.2-0.5-0.1-0.8c0.1-0.6,0.5-0.9,1.2-1.1c0.5-0.1,1-0.2,1.6-0.3L32.5,688.9z"/>
			</g>
		</g>
	</g>
	<g transform="matrix( 1, 0, 0, 1, 129.95,24.8) ">
		<g>
			<g id="Layer0_4_FILL">
				<path style="fill:#EC342E;" d="M44.6,683.2l0.3-1.4c0.1-0.4,0.5-0.6,1.2-0.6c0.2,0,0.5,0,0.8,0l0.4-1.6c-0.6,0-1.3-0.1-2.1-0.1
					c-1.5,0-2.7,0.2-3.3,0.5c-0.7,0.4-1.1,0.9-1.3,1.8l-0.3,1.3h-1.5l-0.4,1.9h1.5l-1.4,6.7h4.5l1.4-6.7h1.8l0.4-1.9L44.6,683.2
					L44.6,683.2z"/>
			</g>
		</g>
	</g>
	<g transform="matrix( 1, 0, 0, 1, 129.95,24.8) ">
		<g>
			<g id="Layer0_5_FILL">
				<path style="fill:#EC342E;" d="M47.8,684c-1,0.7-1.8,1.9-2.1,3.5c-0.4,1.7-0.2,2.8,0.5,3.5c0.7,0.7,2.1,1,4.2,1
					c3.4,0,5.4-1.1,6-3.2h-4c-0.2,1.1-0.8,1.7-1.6,1.7c-0.8,0-1.1-0.4-1-1.2l0.3-1.4h6.6l0.2-0.9c0.3-1.5,0.1-2.6-0.6-3.2
					c-0.7-0.6-2-0.9-3.9-0.9C50.4,683,48.8,683.4,47.8,684 M50.4,686.5l0.1-0.6c0.1-0.5,0.3-0.8,0.5-1c0.2-0.2,0.5-0.3,1-0.3
					c0.5,0,0.8,0.1,0.9,0.3c0.1,0.2,0.1,0.5,0,1l-0.1,0.6H50.4z"/>
			</g>
		</g>
	</g>
	<g transform="matrix( 1, 0, 0, 1, 129.95,24.8) ">
		<g>
			<g id="Layer0_6_FILL">
				<path style="fill:#EC342E;" d="M60.2,679.2l-2.7,12.6H62l2.7-12.6H60.2z"/>
			</g>
		</g>
	</g>
	<g transform="matrix( 1, 0, 0, 1, 129.95,24.8) ">
		<g>
			<g id="Layer0_7_FILL">
				<path style="fill:#EC342E;" d="M65.8,683.2l-1.9,8.6h4.5l1.9-8.6H65.8 M70.5,681.7l0.5-2.6h-4.5l-0.5,2.6H70.5z"/>
			</g>
		</g>
	</g>
	<g transform="matrix( 1, 0, 0, 1, 129.95,24.8) ">
		<g>
			<g id="Layer0_8_FILL">
				<path style="fill:#EC342E;" d="M72.8,683.2h-1.5l-0.4,1.9h1.5l-0.9,4.6c-0.2,0.9,0,1.5,0.5,1.8c0.5,0.3,1.4,0.4,2.8,0.4
					c0.9,0,1.7,0,2.5-0.1l0.4-1.7h-0.7c-0.7,0-1-0.2-0.9-0.7l0.9-4.3h1.8l0.4-1.9h-1.8l1-4.7l-5.2,3.6L72.8,683.2z"/>
			</g>
		</g>
	</g>
	<g transform="matrix( 1, 0, 0, 1, 129.95,24.8) ">
		<g>
			<g id="Layer0_9_FILL">
				<path style="fill:#EC342E;" d="M85.3,683c-2,0-3.6,0.4-4.6,1c-1,0.7-1.8,1.9-2.1,3.5c-0.4,1.7-0.2,2.8,0.5,3.5
					c0.7,0.7,2.1,1,4.2,1c3.5,0,5.5-1.1,6-3.2h-4c-0.2,1.1-0.8,1.7-1.6,1.7c-0.8,0-1.1-0.4-1-1.2L83,688h6.6l0.2-0.9
					c0.3-1.5,0.1-2.6-0.6-3.2C88.5,683.3,87.2,683,85.3,683 M85.9,685.8l-0.1,0.6h-2.5l0.1-0.6c0.1-0.5,0.3-0.8,0.5-1
					c0.2-0.2,0.6-0.3,1-0.3c0.5,0,0.8,0.1,0.9,0.3C86,685.1,86,685.4,85.9,685.8z"/>
			</g>
		</g>
	</g>
	<g transform="matrix( 1, 0, 0, 1, 129.95,24.8) ">
		<g>
			<g id="Layer0_10_FILL">
				<path style="fill:#EC342E;" d="M92.2,691.6c0-0.3-0.1-0.5-0.3-0.8c-0.2-0.2-0.5-0.3-0.8-0.3s-0.6,0.1-0.8,0.3
					c-0.2,0.2-0.3,0.5-0.3,0.8c0,0.3,0.1,0.5,0.3,0.8c0.2,0.2,0.5,0.3,0.8,0.3s0.5-0.1,0.8-0.3C92.1,692.1,92.2,691.9,92.2,691.6
					 M91.8,690.9c0.2,0.2,0.3,0.4,0.3,0.6c0,0.3-0.1,0.5-0.3,0.6c-0.2,0.2-0.4,0.3-0.7,0.3c-0.2,0-0.5-0.1-0.6-0.3
					c-0.2-0.2-0.3-0.4-0.3-0.6c0-0.2,0.1-0.5,0.3-0.6c0.2-0.2,0.4-0.3,0.6-0.3C91.4,690.7,91.5,690.8,91.8,690.9 M91.3,691.6
					c0.2,0,0.3-0.1,0.3-0.3c0-0.2-0.2-0.4-0.5-0.4h-0.4v1.3h0.2v-0.5h0.2c0.1,0,0.2,0,0.2,0s0,0.1,0.1,0.3l0,0.2h0.3l0-0.4
					C91.5,691.7,91.5,691.6,91.3,691.6 M91.1,691.4h-0.2v-0.4h0.3c0.1,0,0.2,0,0.2,0.2S91.2,691.4,91.1,691.4z"/>
			</g>
		</g>
	</g>
	<g transform="matrix( 1, 0, 0, 1, 129.95,24.8) ">
		<g>
			<g id="Layer0_11_FILL">
				<path style="fill:#231F20;" d="M62.7,695.3h-1.3l-5.5,8.5h1.2l1.4-2.2h4l0.5,2.2h1.3L62.7,695.3 M59.3,700.7l2.5-4.2l0.7,4.2
					H59.3z"/>
			</g>
		</g>
	</g>
	<g transform="matrix( 1, 0, 0, 1, 129.95,24.8) ">
		<g>
			<g id="Layer0_12_FILL">
				<path style="fill:#231F20;" d="M66.7,701.5l0.8-3.5h-1.1l-0.9,4c-0.1,0.6,0,1.1,0.2,1.5c0.3,0.4,0.7,0.6,1.3,0.6
					c0.9,0,1.7-0.4,2.3-1h0l-0.2,0.9h1.1l1.3-6h-1.1l-0.6,3.1c-0.1,0.5-0.2,0.9-0.5,1.4c-0.2,0.3-0.4,0.5-0.7,0.6
					c-0.3,0.1-0.5,0.2-0.8,0.2c-0.5,0-0.8-0.2-0.9-0.5C66.6,702.5,66.6,702.1,66.7,701.5z"/>
			</g>
		</g>
	</g>
	<g transform="matrix( 1, 0, 0, 1, 129.95,24.8) ">
		<g>
			<g id="Layer0_13_FILL">
				<path style="fill:#231F20;" d="M74.6,697.9l0.4-1.6l-1.2,0.4l-0.3,1.3l-1,0l-0.2,0.9h1l-0.8,3.8c-0.1,0.4-0.1,0.6-0.1,0.7
					c0,0,0,0.2,0.1,0.4c0.1,0.2,0.3,0.4,0.6,0.4s0.5,0,0.8,0l0.8,0l0.2-0.9c-0.2,0-0.4,0.1-0.6,0.1c-0.5,0-0.7-0.2-0.6-0.6l0.8-3.8
					H76l0.2-0.9H74.6z"/>
			</g>
		</g>
	</g>
	<g transform="matrix( 1, 0, 0, 1, 129.95,24.8) ">
		<g>
			<g id="Layer0_14_FILL">
				<path style="fill:#231F20;" d="M81.7,698.6c-0.4-0.6-1.1-0.9-2-0.9s-1.8,0.3-2.4,0.9c-0.6,0.6-1,1.4-1.3,2.3
					c-0.2,0.9-0.1,1.7,0.3,2.3c0.4,0.6,1.1,0.9,2,0.9s1.8-0.3,2.4-0.9c0.6-0.6,1-1.4,1.2-2.3C82.2,700,82.2,699.2,81.7,698.6
					 M79.6,698.6c1.2,0,1.6,0.8,1.3,2.3c-0.3,1.6-1,2.3-2.3,2.3c-1.2,0-1.6-0.8-1.3-2.3C77.6,699.4,78.4,698.6,79.6,698.6z"/>
			</g>
		</g>
	</g>
	<g transform="matrix( 1, 0, 0, 1, 129.95,24.8) ">
		<g>
			<g id="Layer0_15_FILL">
				<path style="fill:#231F20;" d="M90.6,695.7c-0.5-0.4-1.1-0.5-1.9-0.5c-1.6,0-2.9,0.6-3.9,1.9c-0.7,0.9-1.1,1.8-1.3,2.6
					c-0.3,1.6-0.1,2.8,0.5,3.5c0.4,0.4,0.8,0.7,1.3,0.8c0.4,0.1,0.9,0.2,1.6,0.2c0.8,0,1.9-0.2,3.1-0.5l0.9-4.2h-3.1l-0.2,1h1.9
					l-0.5,2.4c-0.6,0.2-1.2,0.3-1.8,0.3c-1.2,0-1.9-0.3-2.3-0.9c-0.3-0.5-0.4-1.4-0.2-2.5c0.2-0.9,0.5-1.7,1.1-2.3
					c0.7-0.7,1.5-1.1,2.4-1.1c1.2,0,1.8,0.5,1.7,1.3h1.3C91.4,696.7,91.1,696.1,90.6,695.7z"/>
			</g>
		</g>
	</g>
	<g transform="matrix( 1, 0, 0, 1, 129.95,24.8) ">
		<g>
			<g id="Layer0_16_FILL">
				<path style="fill:#231F20;" d="M94.5,695.3h-1.1l-1.8,8.5h1.1L94.5,695.3z"/>
			</g>
		</g>
	</g>
	<g transform="matrix( 1, 0, 0, 1, 129.95,24.8) ">
		<g>
			<g id="Layer0_17_FILL">
				<path style="fill:#231F20;" d="M96.9,698.9c0.2-0.2,0.5-0.3,0.8-0.3c0.5,0,0.9,0.1,1,0.5c0.1,0.2,0,0.6-0.1,1.2h-1
					c-0.8,0-1.5,0.1-2.1,0.5c-0.7,0.4-1.1,0.9-1.3,1.7c-0.1,0.5,0,1,0.4,1.3c0.3,0.3,0.8,0.4,1.3,0.4c0.9,0,1.6-0.4,2.1-1l0,0
					l-0.1,0.8c0,0,0.1,0.1,0.3,0.1H99l0.9-4.1c0.3-1.4-0.4-2-2-2c-0.6,0-1.2,0.1-1.6,0.4c-0.5,0.3-0.9,0.8-1,1.4h1.2
					C96.5,699.3,96.7,699,96.9,698.9 M97.4,701h1.1c-0.3,1.5-0.9,2.3-2,2.3c-0.4,0-0.6-0.1-0.8-0.3c-0.2-0.2-0.2-0.5-0.2-0.9
					c0.1-0.4,0.3-0.7,0.7-0.9C96.6,701.1,96.9,701,97.4,701z"/>
			</g>
		</g>
	</g>
	<g transform="matrix( 1, 0, 0, 1, 129.95,24.8) ">
		<g>
			<g id="Layer0_18_FILL">
				<path style="fill:#231F20;" d="M104.8,699.6h1.2c0.2-0.6,0-1.1-0.4-1.4c-0.4-0.3-0.9-0.4-1.5-0.4c-0.6,0-1.2,0.1-1.7,0.5
					c-0.6,0.4-0.9,0.8-1,1.4c-0.2,0.9,0.3,1.4,1.4,1.7c1.1,0.3,1.7,0.6,1.6,0.9c-0.1,0.7-0.7,1-1.6,1c-0.4,0-0.6-0.1-0.8-0.3
					c-0.2-0.2-0.2-0.5-0.2-0.9h-1.2c-0.1,0.6,0,1.1,0.4,1.5c0.3,0.3,0.9,0.5,1.5,0.5c0.7,0,1.4-0.1,1.9-0.4c0.6-0.3,1-0.9,1.2-1.5
					c0.1-0.6,0-1-0.4-1.3c-0.1,0-0.5-0.2-1.4-0.5c-0.4-0.1-0.6-0.1-0.9-0.2c-0.4-0.1-0.5-0.4-0.4-0.6c0.1-0.6,0.5-0.9,1.3-0.9
					C104.7,698.6,105,698.9,104.8,699.6z"/>
			</g>
		</g>
	</g>
	<g transform="matrix( 1, 0, 0, 1, 129.95,24.8) ">
		<g>
			<g id="Layer0_19_FILL">
				<path style="fill:#231F20;" d="M110.9,699.6h1.2c0.2-0.6,0-1.1-0.4-1.4c-0.4-0.3-0.9-0.4-1.5-0.4c-0.6,0-1.2,0.1-1.7,0.5
					c-0.6,0.4-0.9,0.8-1.1,1.4c-0.2,0.9,0.3,1.4,1.4,1.7c1.1,0.3,1.7,0.6,1.6,0.9c-0.1,0.4-0.3,0.6-0.6,0.8
					c-0.3,0.1-0.6,0.2-0.9,0.2c-0.4,0-0.6-0.1-0.8-0.3c-0.2-0.2-0.2-0.5-0.2-0.9h-1.2c-0.1,0.6,0,1.1,0.4,1.5
					c0.3,0.3,0.8,0.5,1.5,0.5c0.7,0,1.4-0.1,1.9-0.4c0.6-0.3,1-0.9,1.2-1.5c0.1-0.6,0-1-0.4-1.3c0,0-0.5-0.2-1.4-0.5
					c-0.4-0.1-0.6-0.1-0.9-0.2c-0.4-0.1-0.5-0.4-0.5-0.6c0.1-0.6,0.6-0.9,1.3-0.9C110.7,698.6,111.1,698.9,110.9,699.6z"/>
			</g>
		</g>
	</g>
</g>
</svg>
