<?xml version="1.0" encoding="utf-8"?>
<!-- Generator: Adobe Illustrator 18.1.1, SVG Export Plug-In . SVG Version: 6.00 Build 0)  -->
<svg version="1.1" id="Layer_1" xmlns="http://www.w3.org/2000/svg" xmlns:xlink="http://www.w3.org/1999/xlink" x="0px" y="0px"
	 viewBox="0 0 38 36" style="enable-background:new 0 0 38 36;" xml:space="preserve">
<g>
	<path style="fill:#FFCC00;" d="M18.6,0.9c0.3-0.5,0.7-0.5,1,0l4.9,9.9c0.3,0.5,1,1,1.5,1.1l11,1.6c0.6,0.1,0.7,0.5,0.3,0.9
		l-7.9,7.7c-0.4,0.4-0.7,1.2-0.6,1.8l1.9,10.9c0.1,0.6-0.2,0.8-0.8,0.6l-9.8-5.2c-0.5-0.3-1.4-0.3-1.9,0l-9.8,5.2
		c-0.5,0.3-0.9,0-0.8-0.6L9.5,24c0.1-0.6-0.2-1.4-0.6-1.8L1,14.5c-0.4-0.4-0.3-0.8,0.3-0.9l11-1.6c0.6-0.1,1.3-0.6,1.5-1.1L18.6,0.9
		z"/>
	<path style="fill:#DCDDDE;" d="M19.1,0.5c0.2,0,0.3,0.1,0.5,0.4l4.9,9.9c0.3,0.5,1,1,1.5,1.1l11,1.6c0.6,0.1,0.7,0.5,0.3,0.9
		l-7.9,7.7c-0.4,0.4-0.7,1.2-0.6,1.8l1.9,10.9c0.1,0.4-0.1,0.7-0.4,0.7c-0.1,0-0.2,0-0.4-0.1l-9.8-5.2c-0.3-0.1-0.6-0.2-1-0.2
		c-0.3,0-0.7,0.1-1,0.2l-9.8,5.2c-0.1,0.1-0.3,0.1-0.4,0.1c-0.3,0-0.5-0.2-0.4-0.7L9.5,24c0.1-0.6-0.2-1.4-0.6-1.8L1,14.5
		c-0.4-0.4-0.3-0.8,0.3-0.9l11-1.6c0.6-0.1,1.3-0.6,1.5-1.1l4.9-9.9C18.8,0.7,19,0.5,19.1,0.5 M19.1-0.5c-0.6,0-1.1,0.3-1.4,1
		l-4.9,9.9c-0.1,0.2-0.5,0.5-0.8,0.6l-11,1.6c-0.7,0.1-1.2,0.5-1.3,1c-0.2,0.5,0,1.1,0.5,1.6l7.9,7.7c0.2,0.2,0.3,0.7,0.3,0.9
		L6.6,34.8c-0.1,0.5,0,1,0.3,1.4c0.3,0.3,0.6,0.5,1.1,0.5c0.3,0,0.6-0.1,0.9-0.2l9.8-5.2c0.1,0,0.3-0.1,0.5-0.1c0.2,0,0.4,0,0.5,0.1
		l9.8,5.2c0.3,0.2,0.6,0.2,0.9,0.2c0.4,0,0.8-0.2,1.1-0.5c0.3-0.3,0.4-0.8,0.3-1.4l-1.9-10.9c0-0.3,0.1-0.7,0.3-0.9l7.9-7.7
		c0.5-0.5,0.7-1.1,0.5-1.6c-0.2-0.5-0.7-0.9-1.3-1l-11-1.6c-0.3,0-0.7-0.3-0.8-0.6l-4.9-9.9C20.2-0.1,19.7-0.5,19.1-0.5L19.1-0.5z"
		/>
</g>
</svg>
