<?xml version="1.0" encoding="utf-8"?>
<!-- Generator: Adobe Illustrator 18.1.1, SVG Export Plug-In . SVG Version: 6.00 Build 0)  -->
<svg version="1.1" id="Layer_1" xmlns="http://www.w3.org/2000/svg" xmlns:xlink="http://www.w3.org/1999/xlink" x="0px" y="0px"
	 width="300px" height="250px" viewBox="0 0 300 250" enable-background="new 0 0 300 250" xml:space="preserve">
<path fill="#FFFFFF" d="M30.5,44.4c1.8,0,3.2-0.3,4.3-1c1.1-0.6,2-1.4,2.5-2.2l-3-2.8c-0.4,0.6-0.9,1-1.5,1.4
	c-0.6,0.3-1.3,0.5-2.1,0.5c-1.4,0-2.5-0.5-3.4-1.4C26.4,38,26,36.7,26,35.2c0-1.5,0.4-2.7,1.3-3.7c0.9-0.9,2-1.4,3.4-1.4
	c1.6,0,2.8,0.6,3.7,1.9l3-2.8c-0.6-0.8-1.4-1.5-2.5-2.2c-1.1-0.6-2.6-1-4.3-1c-1.3,0-2.6,0.2-3.7,0.7c-1.1,0.4-2.1,1.1-2.9,1.9
	c-0.8,0.8-1.5,1.8-1.9,2.9c-0.5,1.1-0.7,2.3-0.7,3.7c0,1.3,0.2,2.6,0.7,3.7c0.5,1.1,1.1,2.1,1.9,2.9c0.8,0.8,1.8,1.4,2.9,1.9
	C27.9,44.1,29.1,44.4,30.5,44.4z"/>
<path fill="#FFFFFF" d="M48.4,44.4c1.4,0,2.7-0.2,3.9-0.7c1.1-0.5,2.1-1.2,2.9-2c0.8-0.8,1.4-1.8,1.8-2.9c0.4-1.1,0.6-2.3,0.6-3.5
	c0-1.2-0.2-2.4-0.6-3.5c-0.4-1.1-1-2.1-1.8-2.9c-0.8-0.8-1.8-1.5-2.9-2c-1.1-0.5-2.4-0.7-3.9-0.7s-2.7,0.2-3.9,0.7
	c-1.1,0.5-2.1,1.2-2.9,2c-0.8,0.8-1.4,1.8-1.8,2.9c-0.4,1.1-0.6,2.3-0.6,3.5c0,1.2,0.2,2.4,0.6,3.5c0.4,1.1,1,2.1,1.8,2.9
	c0.8,0.8,1.8,1.5,2.9,2C45.7,44.1,47,44.4,48.4,44.4z M48.4,40.3c-0.7,0-1.3-0.1-1.9-0.4c-0.5-0.3-1-0.6-1.4-1.1
	c-0.4-0.5-0.7-1-0.9-1.6c-0.2-0.6-0.3-1.3-0.3-2c0-0.7,0.1-1.3,0.3-1.9c0.2-0.6,0.5-1.1,0.9-1.6c0.4-0.5,0.8-0.8,1.4-1.1
	c0.5-0.3,1.2-0.4,1.9-0.4c0.7,0,1.4,0.1,1.9,0.4c0.6,0.3,1,0.6,1.4,1.1c0.4,0.5,0.7,1,0.9,1.6c0.2,0.6,0.3,1.3,0.3,1.9
	c0,0.7-0.1,1.3-0.3,2c-0.2,0.6-0.5,1.1-0.9,1.6c-0.4,0.5-0.8,0.8-1.4,1.1C49.7,40.2,49.1,40.3,48.4,40.3z"/>
<path fill="#FFFFFF" d="M69.1,44.4c1.4,0,2.7-0.2,3.9-0.7c1.1-0.5,2.1-1.2,2.9-2s1.4-1.8,1.8-2.9c0.4-1.1,0.6-2.3,0.6-3.5
	c0-1.2-0.2-2.4-0.6-3.5c-0.4-1.1-1-2.1-1.8-2.9s-1.8-1.5-2.9-2c-1.1-0.5-2.4-0.7-3.9-0.7c-1.4,0-2.7,0.2-3.9,0.7
	c-1.1,0.5-2.1,1.2-2.9,2s-1.4,1.8-1.8,2.9c-0.4,1.1-0.6,2.3-0.6,3.5c0,1.2,0.2,2.4,0.6,3.5c0.4,1.1,1,2.1,1.8,2.9s1.8,1.5,2.9,2
	C66.3,44.1,67.6,44.4,69.1,44.4z M69.1,40.3c-0.7,0-1.3-0.1-1.9-0.4c-0.5-0.3-1-0.6-1.4-1.1c-0.4-0.5-0.7-1-0.9-1.6
	c-0.2-0.6-0.3-1.3-0.3-2c0-0.7,0.1-1.3,0.3-1.9c0.2-0.6,0.5-1.1,0.9-1.6c0.4-0.5,0.8-0.8,1.4-1.1c0.5-0.3,1.2-0.4,1.9-0.4
	c0.7,0,1.4,0.1,1.9,0.4c0.6,0.3,1,0.6,1.4,1.1c0.4,0.5,0.7,1,0.9,1.6c0.2,0.6,0.3,1.3,0.3,1.9c0,0.7-0.1,1.3-0.3,2
	c-0.2,0.6-0.5,1.1-0.9,1.6c-0.4,0.5-0.8,0.8-1.4,1.1C70.4,40.2,69.8,40.3,69.1,40.3z"/>
<path fill="#FFFFFF" d="M81.7,43.9h4.6v-24h-4.6V43.9z"/>
<path fill="#FFFFFF" d="M111.9,43.9h4.6v-24h-4.6v8.9c-0.7-0.9-1.5-1.6-2.4-2c-0.9-0.4-1.9-0.7-2.9-0.7c-1.1,0-2.1,0.2-3.1,0.6
	c-0.9,0.4-1.8,1-2.4,1.8c-0.7,0.8-1.2,1.8-1.6,2.9c-0.4,1.1-0.6,2.4-0.6,3.8c0,1.4,0.2,2.7,0.6,3.9c0.4,1.1,0.9,2.1,1.6,2.9
	c0.7,0.8,1.5,1.4,2.4,1.8c0.9,0.4,2,0.6,3.1,0.6c1.1,0,2-0.2,3-0.7c0.9-0.5,1.7-1.1,2.4-2V43.9z M108,40.3c-0.6,0-1.2-0.1-1.8-0.4
	c-0.5-0.2-1-0.6-1.4-1c-0.4-0.4-0.7-1-0.9-1.6c-0.2-0.6-0.3-1.3-0.3-2.1c0-1.5,0.4-2.7,1.2-3.7c0.8-0.9,1.9-1.4,3.2-1.4
	c0.8,0,1.5,0.2,2.3,0.6c0.7,0.4,1.3,0.8,1.7,1.4v6.2c-0.4,0.6-0.9,1-1.7,1.4C109.5,40.1,108.7,40.3,108,40.3z"/>
<path fill="#FFFFFF" d="M129.1,44.4c1.4,0,2.7-0.2,3.9-0.7c1.1-0.5,2.1-1.2,2.9-2s1.4-1.8,1.8-2.9c0.4-1.1,0.6-2.3,0.6-3.5
	c0-1.2-0.2-2.4-0.6-3.5c-0.4-1.1-1-2.1-1.8-2.9s-1.8-1.5-2.9-2c-1.1-0.5-2.4-0.7-3.9-0.7c-1.4,0-2.7,0.2-3.9,0.7
	c-1.1,0.5-2.1,1.2-2.9,2s-1.4,1.8-1.8,2.9c-0.4,1.1-0.6,2.3-0.6,3.5c0,1.2,0.2,2.4,0.6,3.5c0.4,1.1,1,2.1,1.8,2.9s1.8,1.5,2.9,2
	C126.4,44.1,127.7,44.4,129.1,44.4z M129.1,40.3c-0.7,0-1.3-0.1-1.9-0.4c-0.5-0.3-1-0.6-1.4-1.1c-0.4-0.5-0.7-1-0.9-1.6
	s-0.3-1.3-0.3-2c0-0.7,0.1-1.3,0.3-1.9s0.5-1.1,0.9-1.6c0.4-0.5,0.8-0.8,1.4-1.1c0.5-0.3,1.2-0.4,1.9-0.4c0.7,0,1.4,0.1,1.9,0.4
	c0.6,0.3,1,0.6,1.4,1.1c0.4,0.5,0.7,1,0.9,1.6c0.2,0.6,0.3,1.3,0.3,1.9c0,0.7-0.1,1.3-0.3,2c-0.2,0.6-0.5,1.1-0.9,1.6
	c-0.4,0.5-0.8,0.8-1.4,1.1C130.5,40.2,129.9,40.3,129.1,40.3z"/>
<path fill="#FFFFFF" d="M157,43.9h4.9l5.3-17.4h-4.8l-3.2,11.7l-3.8-11.7h-4.1l-3.8,11.7l-3.2-11.7h-4.8l5.3,17.4h4.9l3.7-11.8
	L157,43.9z"/>
<path fill="#FFFFFF" d="M181.2,43.9h4.6V31.7c0-1.7-0.5-3.1-1.4-4c-0.9-1-2.3-1.5-4.3-1.5c-1.4,0-2.7,0.3-3.7,0.8
	c-1,0.6-1.8,1.2-2.4,1.9v-2.3h-4.6v17.4h4.6V32.2c0.4-0.5,0.9-1,1.6-1.4c0.7-0.4,1.5-0.6,2.4-0.6c1,0,1.8,0.2,2.3,0.7
	c0.6,0.5,0.9,1.3,0.9,2.5V43.9z"/>
<path fill="#FFFFFF" d="M200.5,43.9h4.6V30.5h3.5v-4h-3.5v-0.9c0-0.8,0.2-1.4,0.6-1.8c0.4-0.4,0.9-0.6,1.5-0.6
	c0.8,0,1.4,0.2,1.9,0.7l1.7-2.7c-0.6-0.6-1.2-1-2.1-1.3c-0.8-0.2-1.6-0.4-2.5-0.4c-1.8,0-3.2,0.5-4.2,1.6c-1.1,1.1-1.6,2.6-1.6,4.4
	v0.9h-2.9v4h2.9V43.9z"/>
<path fill="#FFFFFF" d="M219.3,44.4c1.4,0,2.7-0.2,3.9-0.7c1.1-0.5,2.1-1.2,2.9-2s1.4-1.8,1.8-2.9c0.4-1.1,0.6-2.3,0.6-3.5
	c0-1.2-0.2-2.4-0.6-3.5c-0.4-1.1-1-2.1-1.8-2.9s-1.8-1.5-2.9-2c-1.1-0.5-2.4-0.7-3.9-0.7c-1.4,0-2.7,0.2-3.9,0.7
	c-1.1,0.5-2.1,1.2-2.9,2s-1.4,1.8-1.8,2.9c-0.4,1.1-0.6,2.3-0.6,3.5c0,1.2,0.2,2.4,0.6,3.5c0.4,1.1,1,2.1,1.8,2.9s1.8,1.5,2.9,2
	C216.6,44.1,217.9,44.4,219.3,44.4z M219.3,40.3c-0.7,0-1.3-0.1-1.9-0.4c-0.5-0.3-1-0.6-1.4-1.1c-0.4-0.5-0.7-1-0.9-1.6
	c-0.2-0.6-0.3-1.3-0.3-2c0-0.7,0.1-1.3,0.3-1.9c0.2-0.6,0.5-1.1,0.9-1.6c0.4-0.5,0.8-0.8,1.4-1.1c0.5-0.3,1.2-0.4,1.9-0.4
	c0.7,0,1.4,0.1,1.9,0.4c0.6,0.3,1,0.6,1.4,1.1c0.4,0.5,0.7,1,0.9,1.6c0.2,0.6,0.3,1.3,0.3,1.9c0,0.7-0.1,1.3-0.3,2
	c-0.2,0.6-0.5,1.1-0.9,1.6c-0.4,0.5-0.8,0.8-1.4,1.1C220.7,40.2,220,40.3,219.3,40.3z"/>
<path fill="#FFFFFF" d="M231.9,43.9h4.6V32.4c0.2-0.3,0.4-0.6,0.8-0.8c0.3-0.2,0.7-0.4,1.1-0.6c0.4-0.2,0.8-0.3,1.2-0.4
	c0.4-0.1,0.8-0.1,1.2-0.1c0.5,0,0.9,0,1.3,0.1v-4.5c-1.1,0-2.1,0.3-3.1,0.8c-1,0.6-1.8,1.2-2.4,2v-2.4h-4.6V43.9z"/>
</svg>
