<?xml version="1.0" encoding="utf-8"?>
<!-- Generator: Adobe Illustrator 18.1.1, SVG Export Plug-In . SVG Version: 6.00 Build 0)  -->
<svg version="1.1" id="Layer_1" xmlns="http://www.w3.org/2000/svg" xmlns:xlink="http://www.w3.org/1999/xlink" x="0px" y="0px"
	 width="300px" height="250px" viewBox="0 0 300 250" enable-background="new 0 0 300 250" xml:space="preserve">
<path fill="#FFFFFF" d="M30.5,44.4c1.8,0,3.2-0.3,4.3-1c1.1-0.6,2-1.4,2.5-2.2l-3-2.8c-0.4,0.6-0.9,1-1.5,1.4
	c-0.6,0.3-1.3,0.5-2.1,0.5c-1.4,0-2.5-0.5-3.4-1.4C26.4,38,26,36.7,26,35.2c0-1.5,0.4-2.7,1.3-3.7c0.9-0.9,2-1.4,3.4-1.4
	c1.6,0,2.8,0.6,3.7,1.9l3-2.8c-0.6-0.8-1.4-1.5-2.5-2.2c-1.1-0.6-2.6-1-4.3-1c-1.3,0-2.6,0.2-3.7,0.7c-1.1,0.4-2.1,1.1-2.9,1.9
	c-0.8,0.8-1.5,1.8-1.9,2.9c-0.5,1.1-0.7,2.3-0.7,3.7c0,1.3,0.2,2.6,0.7,3.7c0.5,1.1,1.1,2.1,1.9,2.9c0.8,0.8,1.8,1.4,2.9,1.9
	C27.9,44.1,29.1,44.4,30.5,44.4z"/>
<path fill="#FFFFFF" d="M52.1,43.9h4.6V26.5h-4.6v11.8c-0.4,0.5-0.9,1-1.6,1.4c-0.7,0.4-1.5,0.6-2.3,0.6c-1,0-1.8-0.2-2.3-0.7
	c-0.6-0.5-0.9-1.3-0.9-2.5V26.5h-4.6v12.3c0,1.7,0.5,3,1.4,4c0.9,1,2.3,1.5,4.2,1.5c1.4,0,2.7-0.3,3.7-0.8c1-0.5,1.8-1.1,2.4-1.8
	V43.9z"/>
<path fill="#FFFFFF" d="M67.4,44.4c1.2,0,2.3-0.1,3.2-0.4c0.9-0.3,1.7-0.7,2.4-1.2c0.6-0.5,1.1-1.1,1.5-1.8c0.3-0.7,0.5-1.4,0.5-2.2
	c0-1.2-0.3-2.1-0.8-2.8s-1.1-1.2-1.9-1.7c-0.8-0.4-1.6-0.7-2.5-0.9c-0.9-0.2-1.7-0.4-2.5-0.5c-0.8-0.2-1.4-0.3-1.9-0.6
	c-0.5-0.2-0.8-0.5-0.8-1c0-0.5,0.2-0.9,0.7-1.2c0.5-0.3,1.2-0.5,2-0.5c1.1,0,2.1,0.2,3,0.6c0.9,0.4,1.6,0.9,2.2,1.4l1.8-3.1
	c-0.9-0.7-1.9-1.3-3-1.7c-1.2-0.4-2.5-0.7-4-0.7c-1.2,0-2.2,0.1-3,0.4c-0.9,0.3-1.6,0.7-2.2,1.2c-0.6,0.5-1.1,1.1-1.4,1.7
	c-0.3,0.7-0.5,1.3-0.5,2.1c0,1.2,0.3,2.1,0.8,2.7c0.5,0.7,1.2,1.2,1.9,1.6c0.8,0.4,1.6,0.7,2.5,0.9c0.9,0.2,1.7,0.4,2.5,0.5
	c0.8,0.2,1.4,0.4,1.9,0.6c0.5,0.2,0.8,0.6,0.8,1.1c0,0.6-0.2,1-0.7,1.3c-0.5,0.3-1.2,0.5-2.2,0.5c-0.6,0-1.1-0.1-1.7-0.2
	c-0.6-0.1-1.1-0.3-1.7-0.5c-0.5-0.2-1-0.5-1.5-0.8c-0.5-0.3-0.9-0.6-1.2-0.9l-2,3.2c0.9,0.8,2.1,1.5,3.4,2
	C64.5,44.1,65.9,44.4,67.4,44.4z"/>
<path fill="#FFFFFF" d="M84.2,44.4c1,0,1.8-0.1,2.4-0.3c0.6-0.2,1.1-0.5,1.4-0.8l-1-3.5c-0.1,0.1-0.3,0.2-0.6,0.3
	c-0.3,0.1-0.6,0.2-1,0.2c-0.5,0-0.9-0.2-1.2-0.5c-0.3-0.4-0.4-0.8-0.4-1.4v-7.8h3.5v-4h-3.5v-4.8h-4.6v4.8h-2.9v4h2.9v9.1
	c0,1.6,0.4,2.7,1.3,3.5C81.3,44,82.6,44.4,84.2,44.4z"/>
<path fill="#FFFFFF" d="M98.6,44.4c1.4,0,2.7-0.2,3.9-0.7c1.1-0.5,2.1-1.2,2.9-2s1.4-1.8,1.8-2.9c0.4-1.1,0.6-2.3,0.6-3.5
	c0-1.2-0.2-2.4-0.6-3.5c-0.4-1.1-1-2.1-1.8-2.9s-1.8-1.5-2.9-2c-1.1-0.5-2.4-0.7-3.9-0.7c-1.4,0-2.7,0.2-3.9,0.7
	c-1.1,0.5-2.1,1.2-2.9,2s-1.4,1.8-1.8,2.9c-0.4,1.1-0.6,2.3-0.6,3.5c0,1.2,0.2,2.4,0.6,3.5c0.4,1.1,1,2.1,1.8,2.9s1.8,1.5,2.9,2
	C95.9,44.1,97.1,44.4,98.6,44.4z M98.6,40.3c-0.7,0-1.3-0.1-1.9-0.4c-0.5-0.3-1-0.6-1.4-1.1c-0.4-0.5-0.7-1-0.9-1.6
	c-0.2-0.6-0.3-1.3-0.3-2c0-0.7,0.1-1.3,0.3-1.9c0.2-0.6,0.5-1.1,0.9-1.6c0.4-0.5,0.8-0.8,1.4-1.1c0.5-0.3,1.2-0.4,1.9-0.4
	c0.7,0,1.4,0.1,1.9,0.4c0.6,0.3,1,0.6,1.4,1.1c0.4,0.5,0.7,1,0.9,1.6c0.2,0.6,0.3,1.3,0.3,1.9c0,0.7-0.1,1.3-0.3,2
	c-0.2,0.6-0.5,1.1-0.9,1.6c-0.4,0.5-0.8,0.8-1.4,1.1C99.9,40.2,99.3,40.3,98.6,40.3z"/>
<path fill="#FFFFFF" d="M132.7,43.9h4.6V31.4c0-1.8-0.4-3.1-1.3-4s-2.2-1.3-3.8-1.3c-0.7,0-1.3,0.1-1.9,0.3
	c-0.6,0.2-1.2,0.4-1.7,0.7c-0.5,0.3-1,0.6-1.4,1c-0.4,0.4-0.7,0.8-1,1.2c-0.3-1-0.9-1.8-1.7-2.3c-0.8-0.6-1.8-0.8-3.1-0.8
	c-0.7,0-1.3,0.1-1.9,0.3c-0.6,0.2-1.2,0.4-1.7,0.7c-0.5,0.3-0.9,0.6-1.3,0.9c-0.4,0.3-0.6,0.6-0.8,0.9v-2.3h-4.6v17.4h4.6V32.2
	c0.3-0.5,0.8-0.9,1.5-1.4c0.6-0.4,1.3-0.7,2.1-0.7c0.9,0,1.6,0.3,2,0.8c0.4,0.5,0.6,1.2,0.6,2v11h4.6V32.2c0.3-0.5,0.8-0.9,1.4-1.4
	c0.6-0.4,1.3-0.6,2.2-0.6c0.9,0,1.6,0.3,2,0.8c0.4,0.5,0.6,1.2,0.6,2V43.9z"/>
<path fill="#FFFFFF" d="M144.1,24.7c0.8,0,1.4-0.3,1.9-0.8c0.5-0.5,0.8-1.2,0.8-1.9c0-0.8-0.3-1.4-0.8-1.9c-0.5-0.5-1.2-0.8-1.9-0.8
	c-0.7,0-1.4,0.3-1.9,0.8s-0.8,1.2-0.8,1.9c0,0.8,0.3,1.4,0.8,1.9C142.7,24.4,143.4,24.7,144.1,24.7z M141.8,43.9h4.6V26.5h-4.6V43.9
	z"/>
<path fill="#FFFFFF" d="M150.2,43.9h14.2v-4h-8.1l8-10.1v-3.3h-14v4h7.8l-7.8,10V43.9z"/>
<path fill="#FFFFFF" d="M176.4,44.4c1.4,0,2.7-0.2,4-0.6c1.3-0.4,2.3-1,3.2-1.8l-2-3c-0.3,0.3-0.6,0.5-1,0.7
	c-0.4,0.2-0.8,0.4-1.2,0.5c-0.4,0.1-0.8,0.3-1.3,0.3c-0.4,0.1-0.8,0.1-1.2,0.1c-1.5,0-2.7-0.4-3.5-1.2c-0.9-0.8-1.3-1.7-1.5-2.8
	h12.9v-1c0-1.4-0.2-2.7-0.6-3.9c-0.4-1.2-1-2.2-1.8-3c-0.8-0.8-1.7-1.5-2.8-2c-1.1-0.5-2.2-0.7-3.5-0.7c-1.3,0-2.5,0.2-3.6,0.7
	c-1.1,0.5-2.1,1.1-2.8,1.9c-0.8,0.8-1.4,1.8-1.9,2.9c-0.4,1.1-0.7,2.3-0.7,3.5c0,1.4,0.2,2.7,0.7,3.8c0.5,1.1,1.1,2.1,1.9,2.9
	c0.8,0.8,1.8,1.4,3,1.8C173.8,44.1,175.1,44.4,176.4,44.4z M180.4,33.6h-8.6c0-0.4,0.2-0.9,0.4-1.3c0.2-0.5,0.5-0.9,0.8-1.2
	c0.3-0.4,0.8-0.7,1.3-0.9c0.5-0.2,1.1-0.4,1.9-0.4c0.7,0,1.4,0.1,1.9,0.4c0.5,0.3,1,0.6,1.3,0.9c0.3,0.4,0.6,0.8,0.8,1.2
	C180.2,32.8,180.3,33.2,180.4,33.6z"/>
</svg>
