<?xml version="1.0" encoding="utf-8"?>
<!-- Generator: Adobe Illustrator 18.1.1, SVG Export Plug-In . SVG Version: 6.00 Build 0)  -->
<svg version="1.1" xmlns="http://www.w3.org/2000/svg" xmlns:xlink="http://www.w3.org/1999/xlink" x="0px" y="0px"
	 viewBox="0 0 912.1 478.9" enable-background="new 0 0 912.1 478.9" xml:space="preserve">
<g id="blue_background" display="none">
</g>
<g id="party_hefty" display="none">
	<g display="inline">
		<path fill="#002596" d="M1031.1,0.2c0,0-13.7,56.8-14.9,61.7c-4.7,0-44.7,0-52,0C966.1,54.4,979,0,979,0h-4.5h-58.2L873,184h62.6
			c0,0,16.9-72.2,18.1-77.3c4.7,0,44.6,0,51.9,0c-1.9,7.8-18.5,77.3-18.5,77.3h62.6l43.5-183.8H1031.1z"/>
		<path fill="#002596" d="M1588.9,55.2c0,0-35.9,62.2-43.3,75c-3.1-14.1-16.6-74.8-16.6-74.8s-69.9,0-77.8,0
			c1.6-7,9.5-42.6,9.5-42.6H1399c0,0-9,37.8-10.1,42.6c-4.7,0-43.9,0-51.2,0c1-4.3,3.4-14.3,3.4-14.3c0.1-0.4,0.2-1,0.2-1.6
			c0,0,0.1,0.2,0.1,0.2c0.4-1.5,4.1-15.2,20.7-15.2h14.1l5.7-24.3h-45.3c-30.9,0-50.4,13.2-58.2,39.2c0,0.1-0.1,0.4-32.6,140.2
			l-1,4.4h62.5c0,0,20.8-88.4,22-93.5c4.7,0,43.9,0,51.1,0c-1.2,5.3-3.7,15.5-3.7,15.5l-8.8,37.3c-1,4.4-1.5,8.4-1.5,12.2
			c0,7.2,1.9,13.2,5.6,17.9c6.3,7.8,17.6,11.8,33.6,11.8h51.1l6.1-25l-4.5,0h-12.1c-6.4,0-11.1-1.8-13.7-5c-1.9-2.3-2.4-5.1-2.4-7.6
			c0-1.7,0.2-3.3,0.5-4.6c0,0,9.4-41.3,11.9-52.5c4.5,0,29.9,0,34.3,0c1.3,4.9,26.4,97.8,27.1,100.6c-1.4,2.3-16.5,26.6-18.3,29.5
			h55.9c6.4-10.2,104-165.3,104-165.3H1588.9z"/>
		<path fill="#002596" d="M1246.1,106.4c0-16.7-4.7-29.9-14-39.6c-11.6-12.1-30.3-18.3-55.4-18.3c-60.1,0-89.2,35.8-96.5,69.4
			c-4.5,21,0.2,42,12,53.8c12.4,12.2,31.2,18,57.3,18c43.6,0,74.1-14.7,85.8-41.4l2.2-5h-53.2l-1.1,1.6c-5.8,8.9-13.9,12.8-26,12.8
			c-17.6,0-20.2-12.2-20.2-19.5c0-2.8,0.3-5.3,0.6-7.1c5.5,0,104.7,0,104.7,0l0.7-2.6c1.2-4.5,2.7-12.4,3.1-18.2
			C1246.1,109,1246.1,107.7,1246.1,106.4z M1190.9,101.9c-4.9,0-39.4,0-46.5,0c0.6-2.1,1.3-4.1,1.7-4.9c5-11.6,14.6-18.3,26.6-18.3
			c7.1,0,12.2,1.9,15.3,5.6c2.4,2.9,3.6,6.7,3.6,11.2C1191.5,97.4,1191.2,99.7,1190.9,101.9z"/>
		<polygon fill="#002596" points="1638.5,217.9 1695.2,217.9 1705.9,161.9 1649.1,161.9 		"/>
		<polygon fill="#002596" points="1741.8,7.8 1671,7.8 1660.8,147.2 1698.5,147.2 		"/>
		<path fill="#002596" d="M1603.3,177.6v-0.1c1.9-0.6,3.5-2,3.5-4.3c0-1.7-0.6-2.9-1.6-3.7c-1.1-0.8-2.8-1.3-5.5-1.3
			c-2.1,0-3.5,0.2-5,0.4v17.7h2.8v-7.6h2c2.3,0,3.4,0.8,3.8,3.1c0.3,2.3,0.8,3.9,1.2,4.5h3c-0.3-0.6-0.7-1.6-1.1-4.4
			C1605.9,179.2,1604.8,177.9,1603.3,177.6z M1599.5,176.4h-2v-6c0.5-0.1,1.1-0.1,2-0.1c3.2,0,4.3,1.5,4.3,3.1
			C1603.8,175.6,1601.8,176.4,1599.5,176.4z"/>
		<path fill="#002596" d="M1600.5,161.2L1600.5,161.2c-8.7,0-15.8,7-15.8,15.8c0,9,7,15.9,15.7,15.9c8.7,0,15.6-7,15.6-15.9
			C1616,168.2,1609.1,161.2,1600.5,161.2z M1600.5,190.5c-7,0-12.8-5.9-12.8-13.5c0-7.4,5.7-13.4,12.7-13.4h0.1
			c7,0,12.7,6,12.7,13.4C1613.2,184.5,1607.5,190.5,1600.5,190.5z"/>
	</g>
	<g display="inline">
		<path fill="#002596" d="M202,20.7C187.5,6.7,166,0,131.3,0H68.1L24.1,188.3l63.8,0l11.9-51.1l25.8,0c32.8,0,58-9.7,73.4-25.6
			c13.8-14.3,19.9-32,19.1-53C217.6,43.9,212.3,30.7,202,20.7z M149.3,83.1c-6,6.2-15.6,9.1-28.5,9.1h-11.3l9.6-42h11.8
			c7,0,14.6,1.6,19,5.9c3.1,3,4.8,7,5,11C155.1,73.4,153.4,78.8,149.3,83.1z"/>
		<path fill="#002596" d="M707.9,59.6c0,0-35.9,62.2-43.3,75c-3.1-14.1-16.6-74.8-16.6-74.8s-69.9,0-77.8,0c1.6-7,9.5-42.6,9.5-42.6
			h-61.6c0,0-9,37.8-10.1,42.6c-0.2,0-0.6,0-1,0l-0.1,0c-0.7,0-7.6,0-15.2,0l0,0c-12.9-0.1-52.4-1.8-56.8,16.1l4.6-16.1h-45.6
			l-29.7,128.6h62.1l14.3-59.3c7.6-32.9,28.5-34.1,30.8-34.1c10.7,0,24.3-0.1,27.1-0.1l0,0c0.4,0,0.7,0,1,0
			c-1.2,5.3-3.7,15.5-3.7,15.5l-8.8,37.3c-1,4.4-1.5,8.4-1.5,12.2c0,7.2,1.9,13.2,5.6,17.9c6.3,7.8,17.6,11.8,33.6,11.8h51.1l6.1-25
			l-4.5,0h-12.1c-6.4,0-11.1-1.8-13.7-5c-1.9-2.3-2.4-5.1-2.4-7.6c0-1.7,0.2-3.3,0.5-4.6c0,0,9.4-41.3,11.9-52.5
			c4.5,0,29.9,0,34.3,0c1.3,4.9,26.4,97.8,27.1,100.6c-1.4,2.3-16.5,26.6-18.3,29.5h55.9c6.4-10.2,104-165.3,104-165.3H707.9z"/>
	</g>
	<path display="inline" fill="#002596" d="M292.4,58c-19.8,0-46.2,3.2-58.2,8.7l-6,33.5c9.3-3.5,29.4-9.3,44.8-9
		c14.3,0.2,24.5,2.3,24.8,7.8c0.1,2.2-0.9,4.2-1.4,5.9l-0.4,1.1c-9.2-2.6-24.7-3.2-35-3.2c-21.8,0-45.1,7.9-55.1,19.6
		c-7.4,8.6-12.3,18.8-12.3,31.3c0,23.5,18.1,33.1,39.1,33.9c20.1,0.8,44.1-4,51.6-8.9l-2.1,9.7h62.2l17.7-75.2
		c1.7-6.8,2.5-13.3,2.5-19C364.6,72.3,337.7,58,292.4,58z M283.4,136.5c-3.8,14.8-15.1,21.5-25.5,21.5c-6.1,0-10.7-2.5-10.7-10.7
		c0-6.1,2-8.6,5.5-12.1c4.4-4.4,11.3-6.2,20.3-6.2c4.4,0,7.8,0.6,12.2,1.7L283.4,136.5z"/>
</g>
<g id="white_party_hefty">
	<g>
		<path fill="#FFFFFF" d="M199,111.7c13.8-14.3,19.9-32,19.1-53c-0.5-14.8-5.8-28-16.1-37.9C187.5,6.7,166,0,131.3,0H68.1
			L24.1,188.3l63.8,0l11.9-51.1l25.8,0C158.4,137.2,183.7,127.5,199,111.7z M149.3,83.1c-6,6.2-15.6,9.1-28.5,9.1h-11.3l9.6-42h11.8
			c7,0,14.6,1.6,19,5.9c3.1,3,4.8,7,5,11C155.1,73.4,153.4,78.8,149.3,83.1z"/>
		<path fill="#FFFFFF" d="M664.5,134.6c-3.1-14.1-16.6-74.8-16.6-74.8s-69.9,0-77.8,0c1.6-7,9.5-42.6,9.5-42.6h-61.6
			c0,0-9,37.8-10.1,42.6c-0.2,0-0.6,0-1,0l-0.1,0c-0.7,0-7.6,0-15.2,0l0,0c-12.9-0.1-52.4-1.8-56.8,16.1l4.6-16.1h-45.6l-29.7,128.6
			h62.1l14.3-59.3c7.6-32.9,28.5-34.1,30.8-34.1c10.7,0,24.3-0.1,27.1-0.1l0,0c0.4,0,0.7,0,1,0c-1.2,5.3-3.7,15.5-3.7,15.5
			l-8.8,37.3c-1,4.4-1.5,8.4-1.5,12.2c0,7.2,1.9,13.2,5.6,17.9c6.3,7.8,17.6,11.8,33.6,11.8h51.1l6.1-25l-4.5,0h-12.1
			c-6.4,0-11.1-1.8-13.7-5c-1.9-2.3-2.4-5.1-2.4-7.6c0-1.7,0.2-3.3,0.5-4.6c0,0,9.4-41.3,11.9-52.5c4.5,0,29.9,0,34.3,0
			c1.3,4.9,26.4,97.8,27.1,100.6c-1.4,2.3-16.5,26.6-18.3,29.5h55.9c6.4-10.2,104-165.3,104-165.3h-56.9
			C707.9,59.6,671.9,121.8,664.5,134.6z"/>
		<path fill="#FFFFFF" d="M292.4,58c-19.8,0-46.2,3.2-58.2,8.7l-6,33.5c9.3-3.5,29.4-9.3,44.8-9c14.3,0.2,24.5,2.3,24.8,7.8
			c0.1,2.2-0.9,4.2-1.4,5.9l-0.4,1.1c-9.2-2.6-24.7-3.2-35-3.2c-21.8,0-45.1,7.9-55.1,19.6c-7.4,8.6-12.3,18.8-12.3,31.3
			c0,23.5,18.1,33.1,39.1,33.9c20.1,0.8,44.1-4,51.6-8.9l-2.1,9.7h62.2l17.7-75.2c1.7-6.8,2.5-13.3,2.5-19
			C364.6,72.3,337.7,58,292.4,58z M283.4,136.5c-3.8,14.8-15.1,21.5-25.5,21.5c-6.1,0-10.7-2.5-10.7-10.7c0-6.1,2-8.6,5.5-12.1
			c4.4-4.4,11.3-6.2,20.3-6.2c4.4,0,7.8,0.6,12.2,1.7L283.4,136.5z"/>
	</g>
	<g>
		<path fill="#FFFFFF" d="M190.2,248.7c0,0-13.7,56.8-14.9,61.7c-4.7,0-44.7,0-52,0c1.8-7.5,14.7-61.9,14.7-61.9h-4.5H75.4
			l-43.3,184h62.6c0,0,16.9-72.2,18.1-77.3c4.7,0,44.6,0,51.9,0c-1.9,7.8-18.5,77.3-18.5,77.3h62.6l43.5-183.8H190.2z"/>
		<path fill="#FFFFFF" d="M747.9,303.7c0,0-35.9,62.2-43.3,75c-3.1-14.1-16.6-74.8-16.6-74.8s-69.9,0-77.8,0
			c1.6-7,9.5-42.6,9.5-42.6h-61.6c0,0-9,37.8-10.1,42.6c-4.7,0-43.9,0-51.2,0c1-4.3,3.4-14.3,3.4-14.3c0.1-0.4,0.2-1,0.2-1.6
			c0,0,0.1,0.2,0.1,0.2c0.4-1.5,4.1-15.2,20.7-15.2h14.1l5.7-24.3h-45.3c-30.9,0-50.4,13.2-58.2,39.2c0,0.1-0.1,0.4-32.6,140.2
			l-1,4.4h62.5c0,0,20.8-88.4,22-93.5c4.7,0,43.9,0,51.1,0c-1.2,5.3-3.7,15.5-3.7,15.5l-8.8,37.3c-1,4.4-1.5,8.4-1.5,12.2
			c0,7.2,1.9,13.2,5.6,17.9c6.3,7.8,17.6,11.8,33.6,11.8h51.1l6.1-25l-4.5,0h-12.1c-6.4,0-11.1-1.8-13.7-5c-1.9-2.3-2.4-5.1-2.4-7.6
			c0-1.7,0.2-3.3,0.5-4.6c0,0,9.4-41.3,11.9-52.5c4.5,0,29.9,0,34.3,0c1.3,4.9,26.4,97.8,27.1,100.6c-1.4,2.3-16.5,26.6-18.3,29.5
			h55.9c6.4-10.2,104-165.3,104-165.3H747.9z"/>
		<path fill="#FFFFFF" d="M405.2,354.9c0-16.7-4.7-29.9-14-39.6C379.6,303.2,361,297,335.9,297c-60.1,0-89.2,35.8-96.5,69.4
			c-4.5,21,0.2,42,12,53.8c12.4,12.2,31.2,18,57.3,18c43.6,0,74.1-14.7,85.8-41.4l2.2-5h-53.2l-1.1,1.6c-5.8,8.9-13.9,12.8-26,12.8
			c-17.6,0-20.2-12.2-20.2-19.5c0-2.8,0.3-5.3,0.6-7.1c5.5,0,104.7,0,104.7,0l0.7-2.6c1.2-4.5,2.7-12.4,3.1-18.2
			C405.2,357.4,405.2,356.1,405.2,354.9z M350,350.3c-4.9,0-39.4,0-46.5,0c0.6-2.1,1.3-4.1,1.7-4.9c5-11.6,14.6-18.3,26.6-18.3
			c7.1,0,12.2,1.9,15.3,5.6c2.4,2.9,3.6,6.7,3.6,11.2C350.6,345.9,350.3,348.2,350,350.3z"/>
		<polygon fill="#FFFFFF" points="797.6,466.4 854.3,466.4 865,410.3 808.1,410.3 		"/>
		<polygon fill="#FFFFFF" points="900.9,256.3 830.1,256.3 819.8,395.6 857.6,395.6 		"/>
		<path fill="#FFFFFF" d="M762.4,426v-0.1c1.9-0.6,3.5-2,3.5-4.3c0-1.7-0.6-2.9-1.6-3.7c-1.1-0.8-2.8-1.3-5.5-1.3
			c-2.1,0-3.5,0.2-5,0.4v17.7h2.8v-7.6h2c2.3,0,3.4,0.8,3.8,3.1c0.3,2.3,0.8,3.9,1.2,4.5h3c-0.3-0.6-0.7-1.6-1.1-4.4
			C765,427.7,763.9,426.3,762.4,426z M758.6,424.9h-2v-6c0.5-0.1,1.1-0.1,2-0.1c3.2,0,4.3,1.5,4.3,3.1
			C762.9,424.1,760.9,424.9,758.6,424.9z"/>
		<path fill="#FFFFFF" d="M759.6,409.6L759.6,409.6c-8.7,0-15.8,7-15.8,15.8c0,9,7,15.9,15.7,15.9c8.7,0,15.6-7,15.6-15.9
			C775.1,416.7,768.2,409.6,759.6,409.6z M759.6,438.9c-7,0-12.8-5.9-12.8-13.5c0-7.4,5.7-13.4,12.7-13.4h0.1c7,0,12.7,6,12.7,13.4
			C772.2,433,766.6,439,759.6,438.9z"/>
	</g>
</g>
<g id="cup" display="none">
</g>
</svg>
