<?xml version="1.0" encoding="utf-8"?>
<!-- Generator: Adobe Illustrator 18.1.1, SVG Export Plug-In . SVG Version: 6.00 Build 0)  -->
<svg version="1.1" xmlns="http://www.w3.org/2000/svg" xmlns:xlink="http://www.w3.org/1999/xlink" x="0px" y="0px"
	 viewBox="0 0 360.8 218.9" enable-background="new 0 0 360.8 218.9" xml:space="preserve">
<g id="Layer_1">
	<path fill="#CC3333" d="M343.1,218.9H17.6C7.9,218.9,0,211,0,201.2V17.6C0,7.9,7.9,0,17.6,0h325.5c9.7,0,17.6,7.9,17.6,17.6v183.6
		C360.8,211,352.9,218.9,343.1,218.9z"/>
</g>
<g id="Layer_2">
	<g>
		<g>
			<defs>
				<rect id="SVGID_1_" x="37" y="76.2" width="276.3" height="96"/>
			</defs>
			<clipPath id="SVGID_2_">
				<use xlink:href="#SVGID_1_"  overflow="visible"/>
			</clipPath>
			<path clip-path="url(#SVGID_2_)" fill="#FFFFFF" d="M272.1,96.2l-23.4,0.6c0.5,1.1,3.6,6.3,3.8,9.8c0.3,5.3-0.5,33.7-0.5,33.7
				c-0.5,14.6,12.5,25.1,27.3,25.1c0.9,0,1.9,0,2.9-0.1c18.5-1.7,28.2-12.3,27.7-29.9c0-11.5,0.3-13.4,0.3-23.5c0,0,0-2.7,3.3-4.5
				l-17.2-7.7c0,0-3.5,3.1-5.3,5.3l0,1.8c0,0,0.2,18.4-0.4,29.1c0,6.3-2.1,12.3-8.1,13.1c-0.7,0.1-1.4,0.1-2.1,0.1
				c-5,0-8.9-2.7-9-10C271.8,125.6,271.8,110.3,272.1,96.2"/>
			<path clip-path="url(#SVGID_2_)" fill="#FFFFFF" d="M214.2,88c-0.9,0-1.7,0-2.6,0.1c-15.2,1.1-24.5,5.5-29.3,17.3
				c-2.2,5.6-2.4,14.9-1.4,21.2c3.2,15.9,17.8,28.8,39,28.8h0c9.3-0.1,14.7-1.1,22.3-3.8l-0.1-0.9c0.5-10.7,0.6-22.5,0.7-33.2
				c-5.3-0.5-20-0.8-28.4-1.3c0,4.7-0.2,9.3-0.3,14.1c0.8-0.8,2.7-1.6,2.7-1.6c0.4,0,4.6,0.3,6.6,0.4c0.3,0,0.7,0,1,0
				c-0.1,3.1-0.1,6-0.2,9.1c-0.3,0.1-0.6,0.1-0.9,0.2c-2.2,0.4-4.3,0.6-6.3,0.6c-9.2,0-16.1-4.1-18.6-13.2
				c-1.1-3.9-0.6-9.1,0.8-12.4c1.4-3.2,3.8-5.3,6.5-6.7c3.6-1.8,7.6-2.6,11.6-2.6c7.8,0,15.7,2.9,21.3,6.5v0l-0.3-16.3
				c-1.8-1-3.9-1.9-6.1-2.7C227.1,89.6,221.1,88,214.2,88"/>
			<path clip-path="url(#SVGID_2_)" fill="#FFFFFF" d="M288.5,81l-7.2,19.2c0,0,4.3,1.8,4.6,1.8h0c0.1-0.2,13.7-14.2,17.5-18.4
				L288.5,81z"/>
			<path clip-path="url(#SVGID_2_)" fill="#FFFFFF" d="M143.4,88.5c-0.1,0-0.1,0-0.2,0c-13.8,0.2-25.4,7.2-28.3,19.3
				c-0.5,1.9-0.4,5.2-0.6,7.5c-0.3,4.6-0.1,9.6-0.2,14.4c0,7.5,0.2,17.5,0.2,20.8c0,2.7-0.7,4.1-1.7,5.4c0,0,15.1-1.7,20.2-2.2
				c0-4.4,0.2-19.7,0.2-20.1c0,0,22.6-1,23.1-1h0c0,0-0.2,15-0.2,20.5l0-0.4c6.2-0.4,16.4-0.4,22.1-0.6c-1.4-0.8-4.4-4-4.4-6.4
				c0-2.4-1.2-12.3-1-18.9c0.1-4.4,0.3-9,0.1-13.3c-0.1-2.8-0.1-5.4-0.7-7.6c-2.2-6.9-4.1-9.6-10-13.2
				C157.7,90.2,150.2,88.5,143.4,88.5 M132.6,120.6c0,0-0.2-3.8-0.1-5.2c0-1.5,0.1-1.9,0.4-3.2c1-4.8,5.2-8.1,10.1-8.6
				c0.5,0,0.9-0.1,1.3-0.1c6.3,0,10.5,3.7,11.5,9c0.2,1.2,0.2,2.5,0.2,3.9c0,1.3,0.1,2.7,0.1,3.1C156,119.6,133,120.6,132.6,120.6"
				/>
			<path clip-path="url(#SVGID_2_)" fill="#FFFFFF" d="M75.9,76.2c-0.5,0-1,0-1.6,0C59.4,76.7,37,83.9,37,83.9
				c4.7,0.8,4.8,5.4,4.8,8c0,2.6,0,57.2,0,57.2c0.2,8.4,0.1,18.6-4.4,21.6c0,0,21.6-4.9,32.8-7.4c-6.5-1.1-7.3-6.6-7.5-10.5
				c-0.4-8.5-0.3-11.1-0.4-19.1c2.7-0.2,4.7-0.3,5.5-0.4c8.2,12.6,27,33.7,27.4,36.1c0.3,1.7-1.4,2.8-1.4,2.8
				c10.6-1.8,22.3-2.9,26.1-3.3c0.8-0.1,1.2-0.2,1.2-0.2s-4.1-1-5.8-2.8c-2.1-2.1-3.7-4.2-5.7-7.3c0,0-11.7-15.2-20.5-29.3
				c18.6-9.6,19.5-22.1,18.4-31.3C106,83.4,90.9,76.2,75.9,76.2 M62.4,118.9c-0.4-8.8-0.6-17-0.7-24.3c1.8-0.5,8.5-2.9,14.6-2.9
				c4.7,0,9.1,1.4,11,5.9c1.8,6.3-2.8,19.7-21.9,21L62.4,118.9z"/>
		</g>
		<g>
			<path fill="#FFFFFF" d="M323.8,112.6c0,2.9-2.3,5.1-5.2,5.1c-2.9,0-5.2-2.3-5.2-5.1c0-2.8,2.3-5.1,5.2-5.1
				C321.5,107.5,323.8,109.8,323.8,112.6z M314.6,112.6c0,2.3,1.7,4.1,4,4.1c2.2,0,3.9-1.8,3.9-4c0-2.3-1.6-4.1-3.9-4.1
				C316.3,108.5,314.6,110.4,314.6,112.6z M317.8,115.2h-1.2v-5.1c0.5-0.1,1.1-0.2,2-0.2c1,0,1.4,0.2,1.8,0.4
				c0.3,0.2,0.5,0.6,0.5,1.1c0,0.6-0.4,1-1.1,1.2v0.1c0.5,0.2,0.8,0.6,0.9,1.2c0.2,0.8,0.2,1.1,0.4,1.3h-1.3
				c-0.2-0.2-0.2-0.7-0.4-1.2c-0.1-0.6-0.4-0.8-1.1-0.8h-0.6V115.2z M317.8,112.4h0.6c0.7,0,1.2-0.2,1.2-0.7c0-0.5-0.3-0.8-1.1-0.8
				c-0.3,0-0.5,0-0.7,0.1V112.4z"/>
		</g>
	</g>
</g>
</svg>
