<?xml version="1.0" encoding="utf-8"?>
<!-- Generator: Adobe Illustrator 18.1.1, SVG Export Plug-In . SVG Version: 6.00 Build 0)  -->
<svg version="1.1" id="Layer_1" xmlns="http://www.w3.org/2000/svg" xmlns:xlink="http://www.w3.org/1999/xlink" x="0px" y="0px"
	 width="300px" height="250px" viewBox="0 0 300 250" enable-background="new 0 0 300 250" xml:space="preserve">
<path fill="#FFFFFF" d="M84.1,90.5c-5.9,0-9.3,4.1-9.3,9.1c0,5.1,3.4,9.2,9.3,9.2c6,0,9.3-4,9.3-9.2C93.4,94.5,90,90.5,84.1,90.5z
	 M84.1,94.1c3.1,0,4.9,2.1,4.9,5.5c0,3.5-1.8,5.5-4.9,5.5c-3,0-4.9-2-4.9-5.5C79.2,96.2,81.1,94.1,84.1,94.1L84.1,94.1z"/>
<path fill="#FFFFFF" d="M111.6,90.7h-4.4v9.2c0,3.5-0.8,4.8-3.3,4.8c-2.5,0-3.3-1.3-3.3-4.8v-9.2h-4.4v9.6c0,4.7,1.8,8.5,7.7,8.5
	c6,0,7.7-3.8,7.7-8.5V90.7z"/>
<path fill="#FFFFFF" d="M114.9,90.7v17.8h4.4v-5.8h1.7l3.9,5.8h5.2l-4.7-6.2c2.4-0.8,3.8-2.9,3.8-5.5c0-3.4-2.4-6-6.4-6H114.9z
	 M119.3,94.3h3c1.6,0,2.5,1,2.5,2.5c0,1.5-0.9,2.5-2.5,2.5h-3V94.3z"/>
<path fill="#FFFFFF" d="M138.8,106.3c1.8,1.6,4.9,2.6,7.9,2.6c4,0,8-1.7,8-5.5c0-4.2-3.5-4.8-7.4-5.6c-1.2-0.2-3.5-0.6-3.5-1.9
	c0-1.3,1.4-1.8,2.9-1.8c1.5,0,3,0.4,4.1,1.1l2.6-3.1c-1.7-1-4-1.5-6.1-1.5c-4.1,0-8,1.8-8,5.6c0,3.7,3.2,4.6,6.6,5.2
	c2.5,0.5,4,0.4,4,2.1c0,1.4-1.6,1.9-3.1,1.9c-2.2,0-4.3-0.7-5.5-1.9L138.8,106.3z"/>
<path fill="#FFFFFF" d="M174.7,108.5l-7.2-17.8h-4.4l-7.2,17.8h4.6l1.3-3.3h7.2l1.3,3.3H174.7z M163,101.6l2.3-6l2.3,6H163z"/>
<path fill="#FFFFFF" d="M191.1,90.7h-4.4v9.2c0,3.5-0.8,4.8-3.3,4.8c-2.5,0-3.3-1.3-3.3-4.8v-9.2h-4.4v9.6c0,4.7,1.8,8.5,7.7,8.5
	c6,0,7.7-3.8,7.7-8.5V90.7z"/>
<path fill="#FFFFFF" d="M206.7,103.5c-0.8,1.1-2,1.6-3.6,1.6c-3.1,0-4.9-2.1-4.9-5.5c0-3.4,1.8-5.5,4.9-5.5c1.6,0,2.8,0.6,3.6,1.6
	l2.9-2.9c-1.5-1.5-3.8-2.4-6.5-2.4c-5.9,0-9.3,4.1-9.3,9.1c0,5.1,3.3,9.1,9.3,9.1c2.8,0,5-0.9,6.5-2.4L206.7,103.5z"/>
<path fill="#FFFFFF" d="M224.9,94.3v-3.6h-12.7v17.8h12.7v-3.6h-8.3v-3.7h7.6v-3.6h-7.6v-3.2H224.9z"/>
<path fill="#FFFFFF" d="M60,133.4c1.8,1.6,4.9,2.6,7.9,2.6c4,0,8-1.7,8-5.5c0-4.2-3.5-4.8-7.4-5.6c-1.2-0.2-3.5-0.6-3.5-1.9
	c0-1.3,1.4-1.8,2.9-1.8c1.5,0,3,0.4,4.1,1.1l2.6-3.1c-1.7-1-4-1.5-6.1-1.5c-4.1,0-8,1.8-8,5.6c0,3.7,3.2,4.6,6.6,5.2
	c2.5,0.5,4,0.4,4,2.1c0,1.4-1.6,1.9-3.1,1.9c-2.2,0-4.3-0.7-5.5-1.9L60,133.4z"/>
<path fill="#FFFFFF" d="M92.7,121.5v-3.6H76.9v3.6h5.7v14.2H87v-14.2H92.7z"/>
<path fill="#FFFFFF" d="M110,135.7l-7.2-17.8h-4.4l-7.2,17.8h4.6l1.3-3.3h7.2l1.3,3.3H110z M98.3,128.7l2.3-6l2.3,6H98.3z"/>
<path fill="#FFFFFF" d="M112.3,117.9v17.8h4.4v-5.8h1.7l3.9,5.8h5.2l-4.7-6.2c2.4-0.8,3.8-2.9,3.8-5.5c0-3.4-2.4-6-6.4-6H112.3z
	 M116.7,121.4h3c1.6,0,2.5,1,2.5,2.5c0,1.5-0.9,2.5-2.5,2.5h-3V121.4z"/>
<path fill="#FFFFFF" d="M143.9,121.5v-3.6H128v3.6h5.7v14.2h4.4v-14.2H143.9z"/>
<path fill="#FFFFFF" d="M145,133.4c1.8,1.6,4.9,2.6,7.9,2.6c4,0,8-1.7,8-5.5c0-4.2-3.5-4.8-7.4-5.6c-1.2-0.2-3.5-0.6-3.5-1.9
	c0-1.3,1.4-1.8,2.9-1.8c1.5,0,3,0.4,4.1,1.1l2.6-3.1c-1.7-1-4-1.5-6.1-1.5c-4.1,0-8,1.8-8,5.6c0,3.7,3.2,4.6,6.6,5.2
	c2.5,0.5,4,0.4,4,2.1c0,1.4-1.6,1.9-3.1,1.9c-2.2,0-4.3-0.7-5.5-1.9L145,133.4z"/>
<path fill="#FFFFFF" d="M185.1,117.9h-4.5l-3,10.7l-3.2-10.7h-4.9l6.2,17.8h4.1l3-10.1l3,10.1h4.1l6.2-17.8h-4.9l-3.2,10.7
	L185.1,117.9z"/>
<path fill="#FFFFFF" d="M202.9,135.7v-17.8h-4.4v17.8H202.9z"/>
<path fill="#FFFFFF" d="M221.1,121.5v-3.6h-15.9v3.6h5.7v14.2h4.4v-14.2H221.1z"/>
<path fill="#FFFFFF" d="M238.7,135.7v-17.8h-4.4v7.1h-6.5v-7.1h-4.4v17.8h4.4v-7.1h6.5v7.1H238.7z"/>
<path fill="#FFFFFF" d="M69.1,148.6V145H56.7v17.8h4.4v-7.1h7.2v-3.6h-7.2v-3.5L69.1,148.6z"/>
<path fill="#FFFFFF" d="M87.5,162.8L80.2,145h-4.4l-7.2,17.8h4.6l1.3-3.3h7.2l1.3,3.3H87.5z M75.8,155.9l2.3-6l2.3,6H75.8z"/>
<path fill="#FFFFFF" d="M89.8,145v17.8h4.4V157h1.7l3.9,5.8h5.2l-4.7-6.2c2.4-0.8,3.8-2.9,3.8-5.5c0-3.4-2.4-6-6.4-6H89.8z
	 M94.2,148.6h3c1.6,0,2.5,1,2.5,2.5c0,1.5-0.9,2.5-2.5,2.5h-3V148.6z"/>
<path fill="#FFFFFF" d="M127.2,162.8V145h-5.1l-4.9,12.6l-4.9-12.6h-5.1v17.8h4.4v-8.4l3.6,8.4h4l3.6-8.4v8.4H127.2z"/>
<path fill="#FFFFFF" d="M141,155.4V152h-11.2v3.4H141z"/>
<path fill="#FFFFFF" d="M159.9,152.2h-7.7v3.4h3.4v2.6c-0.8,0.8-2,1.2-3.4,1.2c-3,0-4.9-2-4.9-5.5c0-3.6,2.1-5.5,4.9-5.5
	c1.5,0,3,0.5,4.3,1.5l2.6-2.5c-1.6-1.7-3.9-2.7-6.9-2.7c-5.9,0-9.3,4.1-9.3,9.1c0,5.1,3.4,9.2,9.3,9.2c3.5,0,6.1-1.4,7.7-3.6V152.2z
	"/>
<path fill="#FFFFFF" d="M163.2,145v17.8h4.4V157h1.7l3.9,5.8h5.2l-4.7-6.2c2.4-0.8,3.8-2.9,3.8-5.5c0-3.4-2.4-6-6.4-6H163.2z
	 M167.6,148.6h3c1.6,0,2.5,1,2.5,2.5c0,1.5-0.9,2.5-2.5,2.5h-3V148.6z"/>
<path fill="#FFFFFF" d="M189,144.8c-5.9,0-9.3,4.1-9.3,9.1c0,5.1,3.4,9.2,9.3,9.2c6,0,9.3-4,9.3-9.2
	C198.3,148.8,194.9,144.8,189,144.8z M189,148.4c3.1,0,4.9,2.1,4.9,5.5c0,3.5-1.8,5.5-4.9,5.5c-3,0-4.9-2-4.9-5.5
	C184.1,150.5,186,148.4,189,148.4L189,148.4z"/>
<path fill="#FFFFFF" d="M214.4,145H210l-3,10.7l-3.2-10.7h-4.9l6.2,17.8h4.1l3-10.1l3,10.1h4.1l6.2-17.8h-4.9l-3.2,10.7L214.4,145z"
	/>
<path fill="#FFFFFF" d="M242.9,162.8V145h-4.4v9.8l-5.8-9.8h-5v17.8h4.4V153l5.8,9.8H242.9z"/>
<path fill="#FFFFFF" d="M69.3,190v-17.8h-4.4V190H69.3z"/>
<path fill="#FFFFFF" d="M87.8,190v-17.8h-4.4v9.8l-5.8-9.8h-5V190H77v-9.8l5.8,9.8H87.8z"/>
<path fill="#FFFFFF" d="M107.4,179.3h-7.7v3.4h3.4v2.6c-0.8,0.8-2,1.2-3.4,1.2c-3,0-4.9-2-4.9-5.5c0-3.6,2.1-5.5,4.9-5.5
	c1.5,0,3,0.5,4.3,1.5l2.6-2.5c-1.6-1.7-3.9-2.7-6.9-2.7c-5.9,0-9.3,4.1-9.3,9.1c0,5.1,3.4,9.2,9.3,9.2c3.5,0,6.1-1.4,7.7-3.6V179.3z
	"/>
<path fill="#FFFFFF" d="M110.7,172.2V190h4.4v-5.8h1.7l3.9,5.8h5.2l-4.7-6.2c2.4-0.8,3.8-2.9,3.8-5.5c0-3.4-2.4-6-6.4-6H110.7z
	 M115.1,175.7h3c1.6,0,2.5,1,2.5,2.5c0,1.5-0.9,2.5-2.5,2.5h-3V175.7z"/>
<path fill="#FFFFFF" d="M141,175.8v-3.6h-12.7V190H141v-3.6h-8.3v-3.7h7.6V179h-7.6v-3.2H141z"/>
<path fill="#FFFFFF" d="M143.6,172.2V190h6.4c5.9,0,9.3-3.7,9.3-8.9c0-5.1-3.4-8.9-9.3-8.9H143.6z M148,186.3v-10.5h2
	c3.1,0,4.9,1.8,4.9,5.2c0,3.4-1.7,5.3-4.9,5.3H148z"/>
<path fill="#FFFFFF" d="M166.6,190v-17.8h-4.4V190H166.6z"/>
<path fill="#FFFFFF" d="M182.7,175.8v-3.6H170V190h12.7v-3.6h-8.3v-3.7h7.6V179h-7.6v-3.2H182.7z"/>
<path fill="#FFFFFF" d="M200.3,190v-17.8h-4.4v9.8l-5.8-9.8h-5V190h4.4v-9.8l5.8,9.8H200.3z"/>
<path fill="#FFFFFF" d="M218.4,175.8v-3.6h-15.9v3.6h5.7V190h4.4v-14.2H218.4z"/>
<path fill="#FFFFFF" d="M219.5,187.7c1.8,1.6,4.9,2.6,7.9,2.6c4,0,8-1.7,8-5.5c0-4.2-3.5-4.8-7.4-5.6c-1.2-0.2-3.5-0.6-3.5-1.9
	c0-1.3,1.4-1.8,2.9-1.8c1.5,0,3,0.4,4.1,1.1l2.6-3.1c-1.7-1-4-1.5-6.1-1.5c-4.1,0-8,1.8-8,5.6c0,3.7,3.2,4.6,6.6,5.2
	c2.5,0.5,4,0.4,4,2.1c0,1.4-1.6,1.9-3.1,1.9c-2.2,0-4.3-0.7-5.5-1.9L219.5,187.7z"/>
</svg>
