<?xml version="1.0" encoding="utf-8"?>
<!-- Generator: Adobe Illustrator 18.1.1, SVG Export Plug-In . SVG Version: 6.00 Build 0)  -->
<svg version="1.1" id="Layer_1" xmlns="http://www.w3.org/2000/svg" xmlns:xlink="http://www.w3.org/1999/xlink" x="0px" y="0px"
	 width="300px" height="250px" viewBox="0 0 300 250" enable-background="new 0 0 300 250" xml:space="preserve">
<path fill="#2E6C99" d="M59.9,126.4v-3.8H43.2v3.8h6v15h4.6v-15H59.9z"/>
<path fill="#2E6C99" d="M78.2,141.4l-7.6-18.8h-4.7l-7.6,18.8h4.9l1.3-3.5H72l1.3,3.5H78.2z M65.8,134l2.4-6.3l2.4,6.3H65.8z"/>
<path fill="#2E6C99" d="M79.3,139c1.9,1.7,5.2,2.7,8.3,2.7c4.2,0,8.4-1.8,8.4-5.8c0-4.4-3.7-5.1-7.8-5.9c-1.3-0.2-3.6-0.6-3.6-2
	c0-1.3,1.5-1.9,3.1-1.9c1.6,0,3.2,0.4,4.4,1.1l2.8-3.3c-1.8-1-4.2-1.6-6.5-1.6c-4.3,0-8.4,1.9-8.4,5.9c0,3.9,3.3,4.9,6.9,5.5
	c2.7,0.5,4.3,0.5,4.3,2.2c0,1.4-1.6,2-3.3,2c-2.3,0-4.6-0.8-5.8-2L79.3,139z"/>
<path fill="#2E6C99" d="M113.8,126.4v-3.8H97.1v3.8h6v15h4.6v-15H113.8z"/>
<path fill="#2E6C99" d="M129.7,126.4v-3.8h-13.4v18.8h13.4v-3.8h-8.8v-3.9h8v-3.8h-8v-3.4H129.7z"/>
<path fill="#2E6C99" d="M140,122.6v18.8h6.8c6.2,0,9.8-3.9,9.8-9.4c0-5.4-3.6-9.4-9.8-9.4H140z M144.6,137.5v-11.1h2.2
	c3.3,0,5.2,1.9,5.2,5.5c0,3.6-1.8,5.5-5.2,5.5H144.6z"/>
<path fill="#2E6C99" d="M168.8,122.4c-6.3,0-9.8,4.3-9.8,9.6c0,5.4,3.6,9.7,9.8,9.7c6.3,0,9.8-4.2,9.8-9.7
	C178.6,126.6,175.1,122.4,168.8,122.4z M168.8,126.2c3.2,0,5.2,2.2,5.2,5.8c0,3.7-1.9,5.8-5.2,5.8c-3.2,0-5.1-2.2-5.1-5.8
	C163.7,128.4,165.6,126.2,168.8,126.2L168.8,126.2z"/>
<path fill="#2E6C99" d="M195,126.4v-3.8h-13.4v18.8H195v-3.8h-8.8v-3.9h8v-3.8h-8v-3.4H195z"/>
<path fill="#2E6C99" d="M196.8,139c1.9,1.7,5.2,2.7,8.3,2.7c4.2,0,8.4-1.8,8.4-5.8c0-4.4-3.7-5.1-7.8-5.9c-1.3-0.2-3.6-0.6-3.6-2
	c0-1.3,1.5-1.9,3.1-1.9c1.6,0,3.2,0.4,4.4,1.1l2.8-3.3c-1.8-1-4.2-1.6-6.5-1.6c-4.3,0-8.4,1.9-8.4,5.9c0,3.9,3.3,4.9,6.9,5.5
	c2.7,0.5,4.3,0.5,4.3,2.2c0,1.4-1.6,2-3.3,2c-2.3,0-4.6-0.8-5.8-2L196.8,139z"/>
<path fill="#2E6C99" d="M232.1,141.4v-18.8h-4.6v10.3l-6.1-10.3h-5.3v18.8h4.6v-10.3l6.1,10.3H232.1z"/>
<path fill="#2E6C99" d="M237.4,123.7c0,1.2-0.3,1.6-1.2,1.6h-0.2l-0.3,1.7h0.6c2.4,0,3-1.6,3-3.8c0-1.1-0.1-2.1-0.6-2.8
	c-0.3-0.5-1-0.9-1.9-0.9c-1.5,0-2.2,0.9-2.2,2c0,1,0.7,2,2.2,2c0.2,0,0.4,0,0.6-0.1L237.4,123.7z"/>
<path fill="#2E6C99" d="M257.7,126.4v-3.8h-16.7v3.8h6v15h4.6v-15H257.7z"/>
</svg>
