<?xml version="1.0" encoding="utf-8"?>
<!-- Generator: Adobe Illustrator 18.1.1, SVG Export Plug-In . SVG Version: 6.00 Build 0)  -->
<svg version="1.1" id="Layer_11" xmlns="http://www.w3.org/2000/svg" xmlns:xlink="http://www.w3.org/1999/xlink" x="0px" y="0px"
	 viewBox="260 75.7 820 100.3" enable-background="new 260 75.7 820 100.3" xml:space="preserve">
<g>
	<path fill="#2D6C99" d="M277.7,145.6V163h10.4v-32.6h-14.5c-4.8,0-8.2-4.2-8.2-8.5V83.7c0-5,3.3-8.6,8.2-8.6h18.6
		c4.6,0,8.2,3.6,8.2,8.5v21.2h-12.3V88.1h-10.4v29.4h14.5c4.6,0,8.2,4,8.2,8.6v41.4c0,4.6-3.7,8.5-8.2,8.5h-18.6
		c-4.4,0-8.2-3.9-8.2-8.5v-21.9H277.7z"/>
	<path fill="#2D6C99" d="M311.3,75.1h12.3V176h-12.3V75.1z"/>
	<path fill="#2D6C99" d="M376.5,176v-54.5l-10.1,32.9h-10l-9.3-32.9V176h-12.6V75.1h12.3l14.6,50.5l15.1-50.5h12.3V176H376.5z"/>
	<path fill="#2D6C99" d="M441.7,176v-54.5l-10.1,32.9h-10l-9.3-32.9V176h-12.7V75.1H412l14.6,50.5l15.1-50.5H454V176H441.7z"/>
	<path fill="#2D6C99" d="M496.6,176h-31.7V75.1h30.7v13h-18.4v27.8h13v13h-13v34.2h19.4V176z"/>
	<path fill="#2D6C99" d="M528.8,133.2h-10.4V176h-12.3V75.1h25.2c4.6,0,8.2,4,8.2,8.6v35.2c0,3.6-1.8,6.3-4.2,7.1
		c3.7,0.9,5.7,4.9,5.7,8.5V176h-12.3L528.8,133.2L528.8,133.2z M518.4,120.2h8.9V88.1h-8.9V120.2z"/>
	<path fill="#2D6C99" d="M583,176h-31.7V75.1H582v13h-18.4v27.8h13v13h-13v34.2H583V176z"/>
	<path fill="#2D6C99" d="M592.5,75.1h26.7c4.6,0,8.2,4,8.2,8.6v83.8c0,4.6-3.7,8.5-8.2,8.5h-26.7V75.1z M615.2,88.1h-10.4v75h10.4
		V88.1z"/>
	<path fill="#2D6C99" d="M651.6,93.8h12.3V176h-12.3V93.8z"/>
	<path fill="#2D6C99" d="M689.8,93.8l11.7,38.6V93.8h12.3V176h-12.7L687,129v47h-12.3V93.8H689.8z"/>
	<path fill="#2D6C99" d="M744.8,88.1h-10.9v-13H768v13h-10.9V176h-12.3L744.8,88.1L744.8,88.1z"/>
	<path fill="#2D6C99" d="M797.5,133.2h-10.4V176h-12.3V75.1H800c4.6,0,8.2,4,8.2,8.6v35.2c0,3.6-1.8,6.3-4.2,7.1
		c3.7,0.9,5.7,4.9,5.7,8.5V176h-12.3L797.5,133.2L797.5,133.2z M787.1,120.2h8.9V88.1h-8.9V120.2z"/>
	<path fill="#2D6C99" d="M844.5,156.3h-13.6L829,176h-12.3l10.1-100.9h21.8l9.8,100.9h-12L844.5,156.3z M832.3,143.3h10.9l-5.5-55.2
		L832.3,143.3z"/>
	<path fill="#2D6C99" d="M866.1,75.1h26.7c4.6,0,8.2,4,8.2,8.6v83.8c0,4.6-3.7,8.5-8.2,8.5h-26.7V75.1z M888.7,88.1h-10.4v75h10.4
		V88.1z"/>
	<path fill="#2D6C99" d="M911.9,75.1h12.3V176h-12.3V75.1z"/>
	<path fill="#2D6C99" d="M942,88.1h-11v-13h34.1v13h-10.9V176H942V88.1z"/>
	<path fill="#2D6C99" d="M972,75.1h12.3V176H972V75.1z"/>
	<path fill="#2D6C99" d="M995.2,83.7c0-4.6,3.8-8.6,8.2-8.6h18.6c4.6,0,8.2,4,8.2,8.6v83.8c0,4.6-3.7,8.5-8.2,8.5h-18.6
		c-4.4,0-8.2-3.9-8.2-8.5V83.7z M1017.8,88.1h-10.4v75h10.4V88.1z"/>
	<path fill="#2D6C99" d="M1056,75.1l11.7,50.2V75.1h12.3V176h-14.5l-12.3-54.2V176H1041V75.1H1056z"/>
</g>
</svg>
