<svg id="CTA" xmlns="http://www.w3.org/2000/svg" width="105" height="28" viewBox="0 0 105 28">
  <metadata><?xpacket begin="﻿" id="W5M0MpCehiHzreSzNTczkc9d"?>
<x:xmpmeta xmlns:x="adobe:ns:meta/" x:xmptk="Adobe XMP Core 5.6-c138 79.159824, 2016/09/14-01:09:01        ">
   <rdf:RDF xmlns:rdf="http://www.w3.org/1999/02/22-rdf-syntax-ns#">
      <rdf:Description rdf:about=""/>
   </rdf:RDF>
</x:xmpmeta>
                                                                                                    
                                                                                                    
                                                                                                    
                                                                                                    
                                                                                                    
                                                                                                    
                                                                                                    
                                                                                                    
                                                                                                    
                                                                                                    
                                                                                                    
                                                                                                    
                                                                                                    
                                                                                                    
                                                                                                    
                                                                                                    
                                                                                                    
                                                                                                    
                                                                                                    
                                                                                                    
                           
<?xpacket end="w"?></metadata>
<defs>
    <style>
      .cls-1 {
        fill: #fffefe;
        fill-rule: evenodd;
      }
    </style>
  </defs>
  <rect id="Rounded_Rectangle_1" data-name="Rounded Rectangle 1" width="105" height="28" rx="5" ry="5"/>
  <path id="BUY_NOW" data-name="BUY NOW" class="cls-1" d="M22.839,434.923a2.767,2.767,0,0,0,1.423-1.122,3.778,3.778,0,0,0,.43-1.936v-0.572a4.357,4.357,0,0,0-.518-2.332,2.911,2.911,0,0,0-1.732-1.166,12.91,12.91,0,0,0-3.419-.352H14.81v15.62h4.654A12.616,12.616,0,0,0,22.9,442.7a2.907,2.907,0,0,0,1.742-1.232,4.732,4.732,0,0,0,.529-2.453v-0.572a4.175,4.175,0,0,0-.54-2.3,3.193,3.193,0,0,0-1.8-1.221h0Zm-4.411-5.06h0.64a3.812,3.812,0,0,1,1.29.165,1,1,0,0,1,.6.572,3.263,3.263,0,0,1,.165,1.177V432a2.833,2.833,0,0,1-.165,1.1,1.009,1.009,0,0,1-.607.539,3.829,3.829,0,0,1-1.279.165h-0.64v-3.938Zm3.044,8.58a4.182,4.182,0,0,1-.165,1.342,1.1,1.1,0,0,1-.607.66,3.311,3.311,0,0,1-1.3.2H18.427v-4.466H19.4a3.7,3.7,0,0,1,1.3.176,1.03,1.03,0,0,1,.607.616,3.718,3.718,0,0,1,.165,1.254v0.22Zm11.315,4.862a7.392,7.392,0,0,0,3.187-.55,3.169,3.169,0,0,0,1.588-1.848,11.324,11.324,0,0,0,.474-3.718v-9.746H34.331v10.01a10.1,10.1,0,0,1-.132,1.87,1.581,1.581,0,0,1-.463.935,1.773,1.773,0,0,1-1.9,0,1.581,1.581,0,0,1-.463-0.935,10.1,10.1,0,0,1-.132-1.87v-10.01H27.537v9.746a11.313,11.313,0,0,0,.474,3.718,3.167,3.167,0,0,0,1.588,1.848,7.389,7.389,0,0,0,3.187.55h0Zm14.734-15.862-2.073,6.578-2.073-6.578h-3.86L43.595,437.5v5.566h3.618V437.5l4.081-10.054H47.521Zm18.506,10.406-3.86-10.406H58.152v15.62h3.11V432.657l3.86,10.406h4.014v-15.62h-3.11v10.406Zm11.051,5.456a6.851,6.851,0,0,0,3.342-.66,3.7,3.7,0,0,0,1.643-2.31,18.022,18.022,0,0,0,.485-4.8v-0.572a18.027,18.027,0,0,0-.485-4.8,3.7,3.7,0,0,0-1.643-2.31,8.79,8.79,0,0,0-6.684,0,3.664,3.664,0,0,0-1.632,2.31,18.409,18.409,0,0,0-.474,4.8v0.572a18.4,18.4,0,0,0,.474,4.8,3.664,3.664,0,0,0,1.632,2.31,6.851,6.851,0,0,0,3.342.66h0Zm0-2.772a1.333,1.333,0,0,1-1.092-.44,3.077,3.077,0,0,1-.507-1.518,26.4,26.4,0,0,1-.143-3.212v-0.22a26.426,26.426,0,0,1,.143-3.212,3.085,3.085,0,0,1,.507-1.518,1.336,1.336,0,0,1,1.092-.44,1.37,1.37,0,0,1,1.1.44,3.025,3.025,0,0,1,.518,1.529,26.519,26.519,0,0,1,.143,3.2v0.22a26.519,26.519,0,0,1-.143,3.2,3.021,3.021,0,0,1-.518,1.529,1.367,1.367,0,0,1-1.1.44h0Zm20.183-.792-2.25-12.3H91.062l-2.25,12.232L87.18,427.443H83.651l2.889,15.62h4.323l2.073-11.484,2.051,11.484h4.323l2.889-15.62H98.915Z" transform="translate(-5 -421)"/>
</svg>
