<svg xmlns="http://www.w3.org/2000/svg" width="144.156" height="124.25" viewBox="0 0 144.156 124.25">
  <metadata><?xpacket begin="﻿" id="W5M0MpCehiHzreSzNTczkc9d"?>
<x:xmpmeta xmlns:x="adobe:ns:meta/" x:xmptk="Adobe XMP Core 5.6-c138 79.159824, 2016/09/14-01:09:01        ">
   <rdf:RDF xmlns:rdf="http://www.w3.org/1999/02/22-rdf-syntax-ns#">
      <rdf:Description rdf:about=""/>
   </rdf:RDF>
</x:xmpmeta>
                                                                                                    
                                                                                                    
                                                                                                    
                                                                                                    
                                                                                                    
                                                                                                    
                                                                                                    
                                                                                                    
                                                                                                    
                                                                                                    
                                                                                                    
                                                                                                    
                                                                                                    
                                                                                                    
                                                                                                    
                                                                                                    
                                                                                                    
                                                                                                    
                                                                                                    
                                                                                                    
                           
<?xpacket end="w"?></metadata>
<defs>
    <style>
      .cls-1 {
        fill: #fff;
        fill-rule: evenodd;
      }
    </style>
  </defs>
  <path id="SHIPPING" class="cls-1" d="M14.429,411.779a13.057,13.057,0,0,0,4.968-.774,4.994,4.994,0,0,0,2.664-2.5,10.875,10.875,0,0,0,.828-4.644,9.174,9.174,0,0,0-1.062-4.644,5.722,5.722,0,0,0-3.06-2.574q-2-.738-2.286-0.846l-1.26-.5a13.155,13.155,0,0,1-1.728-.756,2.635,2.635,0,0,1-.954-0.936,3.133,3.133,0,0,1-.378-1.656,2.037,2.037,0,0,1,2.34-2.268,2.324,2.324,0,0,1,1.872.648,3.181,3.181,0,0,1,.54,2.052v0.54h5.364v-0.54a9.663,9.663,0,0,0-.72-4.122,4.313,4.313,0,0,0-2.34-2.16,12.183,12.183,0,0,0-4.5-.666q-4.356,0-6.246,1.656t-1.89,5.508a8.291,8.291,0,0,0,.792,3.942A5.45,5.45,0,0,0,9.3,398.675a19.045,19.045,0,0,0,3.042,1.4l1.368,0.54q1.4,0.54,2.052.864a2.789,2.789,0,0,1,1.116,1.1,4.061,4.061,0,0,1,.468,2.106,3.26,3.26,0,0,1-.594,2.142,2.646,2.646,0,0,1-2.106.7,2.681,2.681,0,0,1-2.3-.882,5.156,5.156,0,0,1-.648-2.97v-0.828H6.257v0.936a11.989,11.989,0,0,0,.756,4.734,4.726,4.726,0,0,0,2.52,2.484,12.491,12.491,0,0,0,4.9.774h0Zm18.072-.4V401.051h5.544v10.332h5.9v-25.56h-5.9v9.936H32.5v-9.936H26.6v25.56h5.9Zm22.1,0v-25.56H48.7v25.56h5.9Zm4.752,0h5.9v-8.892h1.224a18.876,18.876,0,0,0,5.814-.7,4.945,4.945,0,0,0,2.952-2.394,10.447,10.447,0,0,0,.882-4.752v-0.936a10.546,10.546,0,0,0-.882-4.788,4.945,4.945,0,0,0-2.952-2.394,18.876,18.876,0,0,0-5.814-.7H59.357v25.56Zm5.9-13.5v-7.452h1.116a6.351,6.351,0,0,1,2.3.324,1.851,1.851,0,0,1,1.08,1.062A6.3,6.3,0,0,1,70.049,394v0.36a6.166,6.166,0,0,1-.288,2.142,1.851,1.851,0,0,1-1.08,1.062,6.351,6.351,0,0,1-2.3.324H65.261Zm14.436,13.5h5.9v-8.892h1.224a18.876,18.876,0,0,0,5.814-.7,4.945,4.945,0,0,0,2.952-2.394,10.447,10.447,0,0,0,.882-4.752v-0.936a10.546,10.546,0,0,0-.882-4.788,4.945,4.945,0,0,0-2.952-2.394,18.876,18.876,0,0,0-5.814-.7H79.7v25.56Zm5.9-13.5v-7.452h1.116a6.351,6.351,0,0,1,2.3.324,1.851,1.851,0,0,1,1.08,1.062A6.3,6.3,0,0,1,90.389,394v0.36A6.166,6.166,0,0,1,90.1,396.5a1.851,1.851,0,0,1-1.08,1.062,6.351,6.351,0,0,1-2.3.324H85.6Zm20.34,13.5v-25.56h-5.9v25.56h5.9Zm17.6-8.532-6.3-17.028h-6.552v25.56h5.076V394.355l6.3,17.028h6.552v-25.56h-5.076v17.028Zm18.324-5.832v4.608h2.484v0.864a7.747,7.747,0,0,1-.63,3.708,2.3,2.3,0,0,1-2.142,1.044,2.176,2.176,0,0,1-1.782-.72,5.039,5.039,0,0,1-.828-2.484,43.2,43.2,0,0,1-.234-5.256v-0.36a43.2,43.2,0,0,1,.234-5.256,5.039,5.039,0,0,1,.828-2.484,2.176,2.176,0,0,1,1.782-.72,2.2,2.2,0,0,1,1.944.882,5.763,5.763,0,0,1,.612,3.114v0.108h6.084v-0.108a12.074,12.074,0,0,0-.9-5.166,5.142,5.142,0,0,0-2.754-2.61,13.489,13.489,0,0,0-4.986-.756,11.157,11.157,0,0,0-5.454,1.08,6.056,6.056,0,0,0-2.682,3.78,29.514,29.514,0,0,0-.792,7.848v0.936a29.514,29.514,0,0,0,.792,7.848,6.056,6.056,0,0,0,2.682,3.78,11.157,11.157,0,0,0,5.454,1.08,12.66,12.66,0,0,0,5.166-.864,5.4,5.4,0,0,0,2.772-3.006,16.508,16.508,0,0,0,.882-6.066v-4.824h-8.532Z" transform="translate(-6.25 -287.531)"/>
  <path id="HOLIDAY" class="cls-1" d="M14.48,375.7V364.22h6.16V375.7H27.2V347.3H20.64v11.04H14.48V347.3H7.92v28.4h6.56Zm27.08,0.44a12.4,12.4,0,0,0,6.06-1.2,6.733,6.733,0,0,0,2.98-4.2,32.852,32.852,0,0,0,.88-8.72v-1.04a32.857,32.857,0,0,0-.88-8.72,6.733,6.733,0,0,0-2.98-4.2,12.4,12.4,0,0,0-6.06-1.2,12.4,12.4,0,0,0-6.06,1.2,6.661,6.661,0,0,0-2.96,4.2,33.557,33.557,0,0,0-.86,8.72v1.04a33.552,33.552,0,0,0,.86,8.72,6.661,6.661,0,0,0,2.96,4.2,12.4,12.4,0,0,0,6.06,1.2h0Zm0-5.04a2.416,2.416,0,0,1-1.98-.8,5.605,5.605,0,0,1-.92-2.76,48.148,48.148,0,0,1-.26-5.84v-0.4a48.171,48.171,0,0,1,.26-5.84,5.613,5.613,0,0,1,.92-2.76,2.419,2.419,0,0,1,1.98-.8,2.48,2.48,0,0,1,2,.8,5.505,5.505,0,0,1,.94,2.78,48.362,48.362,0,0,1,.26,5.82v0.4a48.362,48.362,0,0,1-.26,5.82,5.5,5.5,0,0,1-.94,2.78,2.477,2.477,0,0,1-2,.8h0Zm28.76,4.6v-5.68h-7.76V347.3H56v28.4h14.32Zm10.04,0V347.3H73.8v28.4h6.56Zm5.279,0h8.44a14.807,14.807,0,0,0,6.56-1.16,6.625,6.625,0,0,0,3.24-4.08,28.462,28.462,0,0,0,.96-8.44v-1.04a28.466,28.466,0,0,0-.96-8.44,6.63,6.63,0,0,0-3.24-4.08,14.821,14.821,0,0,0-6.56-1.16h-8.44v28.4Zm6.56-5.16V352.42h1.56a4.332,4.332,0,0,1,2.78.74,4.135,4.135,0,0,1,1.22,2.56,35.307,35.307,0,0,1,.32,5.58v0.4a35.289,35.289,0,0,1-.32,5.58,4.035,4.035,0,0,1-1.22,2.54,4.418,4.418,0,0,1-2.78.72H92.2Zm36.76,5.16-6.88-28.4h-8.44l-6.88,28.4h6.64l1-5.4h6.8l1,5.4h6.76ZM117.8,352.1l2.48,13.32h-4.96Zm23.641-4.8-3.76,11.96-3.76-11.96h-7l7.4,18.28V375.7h6.56V365.58l7.4-18.28h-6.84Z" transform="translate(-6.25 -287.531)"/>
  <path id="FREE" class="cls-1" d="M19.885,338.645V318.629H34.357v-9.288H19.885V296.813H35.869v-9.288H8.077v51.12H19.885Zm56.735,0-7.488-20.592a9.459,9.459,0,0,0,4.968-4.716,20.407,20.407,0,0,0,1.512-8.6v-1.872q0-6.119-1.764-9.4a9.723,9.723,0,0,0-5.868-4.608,39.641,39.641,0,0,0-11.664-1.332H42.132v51.12H53.94V320h4.608l5.544,18.648H76.62ZM56.1,310.781H53.94v-14.04H56.1a14.491,14.491,0,0,1,4.68.576,3.489,3.489,0,0,1,2.16,1.98,11.441,11.441,0,0,1,.576,4.14v0.72a10.1,10.1,0,0,1-.612,3.924,3.866,3.866,0,0,1-2.2,2.052,12.7,12.7,0,0,1-4.608.648h0Zm56.087,27.864v-9h-16.7v-12.6h14.472v-9H95.483v-11.52h15.984v-9H83.675v51.12h28.512Zm35.783,0v-9h-16.7v-12.6h14.472v-9H131.266v-11.52H147.25v-9H119.458v51.12H147.97Z" transform="translate(-6.25 -287.531)"/>
</svg>
