<svg xmlns="http://www.w3.org/2000/svg" width="225.218" height="16.25" viewBox="0 0 225.218 16.25">
  <metadata><?xpacket begin="﻿" id="W5M0MpCehiHzreSzNTczkc9d"?>
<x:xmpmeta xmlns:x="adobe:ns:meta/" x:xmptk="Adobe XMP Core 5.6-c138 79.159824, 2016/09/14-01:09:01        ">
   <rdf:RDF xmlns:rdf="http://www.w3.org/1999/02/22-rdf-syntax-ns#">
      <rdf:Description rdf:about=""/>
   </rdf:RDF>
</x:xmpmeta>
                                                                                                    
                                                                                                    
                                                                                                    
                                                                                                    
                                                                                                    
                                                                                                    
                                                                                                    
                                                                                                    
                                                                                                    
                                                                                                    
                                                                                                    
                                                                                                    
                                                                                                    
                                                                                                    
                                                                                                    
                                                                                                    
                                                                                                    
                                                                                                    
                                                                                                    
                                                                                                    
                           
<?xpacket end="w"?></metadata>
<defs>
    <style>
      .cls-1 {
        fill: #fff;
        fill-rule: evenodd;
      }
    </style>
  </defs>
  <path id="THIS_HOLIDAY_SAVE_20_" data-name="THIS HOLIDAY SAVE 20%" class="cls-1" d="M9.52,40.958v-12.5h3.1V25.338H2.832v3.124h3.08v12.5H9.52Zm8.492,0V34.644H21.4v6.314h3.608V25.338H21.4V31.41H18.012V25.338H14.4v15.62h3.608Zm13.508,0V25.338H27.912v15.62H31.52ZM38.8,41.2a7.982,7.982,0,0,0,3.036-.473A3.052,3.052,0,0,0,43.466,39.2a6.646,6.646,0,0,0,.506-2.838,5.607,5.607,0,0,0-.649-2.838,3.5,3.5,0,0,0-1.87-1.573l-1.4-.517-0.77-.308a8.029,8.029,0,0,1-1.056-.462,1.609,1.609,0,0,1-.583-0.572,1.914,1.914,0,0,1-.231-1.012,1.245,1.245,0,0,1,1.43-1.386,1.42,1.42,0,0,1,1.144.4,1.944,1.944,0,0,1,.33,1.254v0.33H43.6v-0.33a5.906,5.906,0,0,0-.44-2.519,2.637,2.637,0,0,0-1.43-1.32,7.448,7.448,0,0,0-2.75-.407,5.762,5.762,0,0,0-3.817,1.012,4.276,4.276,0,0,0-1.155,3.366,5.066,5.066,0,0,0,.484,2.409,3.329,3.329,0,0,0,1.177,1.309,11.613,11.613,0,0,0,1.859.858l0.836,0.33q0.858,0.33,1.254.528a1.706,1.706,0,0,1,.682.671,2.483,2.483,0,0,1,.286,1.287,1.992,1.992,0,0,1-.363,1.309,1.617,1.617,0,0,1-1.287.429,1.638,1.638,0,0,1-1.408-.539,3.15,3.15,0,0,1-.4-1.815V35.744H33.808v0.572a7.326,7.326,0,0,0,.462,2.893,2.887,2.887,0,0,0,1.54,1.518A7.636,7.636,0,0,0,38.8,41.2h0Zm16.852-.242V34.644h3.388v6.314h3.608V25.338H59.041V31.41H55.653V25.338H52.045v15.62h3.608ZM70.547,41.2a6.818,6.818,0,0,0,3.333-.66,3.7,3.7,0,0,0,1.639-2.31,18.072,18.072,0,0,0,.484-4.8V32.862a18.074,18.074,0,0,0-.484-4.8,3.7,3.7,0,0,0-1.639-2.31,6.818,6.818,0,0,0-3.333-.66,6.818,6.818,0,0,0-3.333.66,3.664,3.664,0,0,0-1.628,2.31,18.453,18.453,0,0,0-.473,4.8v0.572a18.452,18.452,0,0,0,.473,4.8,3.664,3.664,0,0,0,1.628,2.31,6.818,6.818,0,0,0,3.333.66h0Zm0-2.772a1.329,1.329,0,0,1-1.089-.44,3.083,3.083,0,0,1-.506-1.518,26.471,26.471,0,0,1-.143-3.212v-0.22a26.477,26.477,0,0,1,.143-3.212,3.086,3.086,0,0,1,.506-1.518,1.33,1.33,0,0,1,1.089-.44,1.364,1.364,0,0,1,1.1.44,3.028,3.028,0,0,1,.517,1.529,26.6,26.6,0,0,1,.143,3.2v0.22a26.6,26.6,0,0,1-.143,3.2,3.027,3.027,0,0,1-.517,1.529,1.363,1.363,0,0,1-1.1.44h0Zm15.818,2.53V37.834H82.1v-12.5H78.489v15.62h7.876Zm5.522,0V25.338H88.279v15.62h3.608Zm2.9,0h4.642a8.145,8.145,0,0,0,3.608-.638,3.644,3.644,0,0,0,1.782-2.244,15.655,15.655,0,0,0,.528-4.642V32.862a15.656,15.656,0,0,0-.528-4.642,3.645,3.645,0,0,0-1.782-2.244,8.149,8.149,0,0,0-3.608-.638H94.791v15.62ZM98.4,38.12V28.154h0.858a2.381,2.381,0,0,1,1.528.407,2.271,2.271,0,0,1,.671,1.408,19.318,19.318,0,0,1,.176,3.069v0.22a19.313,19.313,0,0,1-.176,3.069,2.217,2.217,0,0,1-.671,1.4,2.428,2.428,0,0,1-1.528.4H98.4Zm20.218,2.838-3.784-15.62H110.19l-3.784,15.62h3.652l0.55-2.97h3.74l0.55,2.97h3.718Zm-6.138-12.98,1.364,7.326h-2.728Zm13-2.64-2.068,6.578-2.068-6.578H117.5l4.07,10.054v5.566h3.608V35.392l4.07-10.054h-3.762ZM140.462,41.2a7.982,7.982,0,0,0,3.036-.473,3.05,3.05,0,0,0,1.628-1.529,6.634,6.634,0,0,0,.506-2.838,5.6,5.6,0,0,0-.649-2.838,3.5,3.5,0,0,0-1.87-1.573l-1.4-.517-0.77-.308a8.1,8.1,0,0,1-1.056-.462,1.615,1.615,0,0,1-.583-0.572,1.914,1.914,0,0,1-.231-1.012,1.245,1.245,0,0,1,1.43-1.386,1.419,1.419,0,0,1,1.144.4,1.944,1.944,0,0,1,.33,1.254v0.33h3.278v-0.33a5.894,5.894,0,0,0-.44-2.519,2.635,2.635,0,0,0-1.43-1.32,7.445,7.445,0,0,0-2.75-.407,5.764,5.764,0,0,0-3.817,1.012,4.276,4.276,0,0,0-1.155,3.366,5.076,5.076,0,0,0,.484,2.409,3.334,3.334,0,0,0,1.177,1.309,11.638,11.638,0,0,0,1.859.858l0.836,0.33q0.858,0.33,1.254.528a1.7,1.7,0,0,1,.682.671,2.478,2.478,0,0,1,.286,1.287,1.992,1.992,0,0,1-.363,1.309,1.617,1.617,0,0,1-1.287.429,1.639,1.639,0,0,1-1.408-.539,3.15,3.15,0,0,1-.4-1.815V35.744h-3.322v0.572a7.326,7.326,0,0,0,.462,2.893,2.89,2.89,0,0,0,1.54,1.518,7.638,7.638,0,0,0,2.992.473h0Zm18.326-.242L155,25.338h-4.642l-3.784,15.62h3.652l0.55-2.97h3.74l0.55,2.97h3.718Zm-6.138-12.98,1.364,7.326h-2.728Zm11.792,9.57-2.156-12.21h-3.828l3.652,15.62h4.576l3.652-15.62h-3.762Zm16.148,3.41v-2.75h-5.1v-3.85h4.422v-2.75h-4.422v-3.52h4.884v-2.75h-8.492v15.62h8.712Zm12.056-2.9,2.134-2.64q1.209-1.474,1.815-2.3a7.842,7.842,0,0,0,.979-1.782,5.731,5.731,0,0,0,.374-2.1,4.032,4.032,0,0,0-1.1-3.157,5.378,5.378,0,0,0-3.608-.979,7.5,7.5,0,0,0-2.915.462A2.877,2.877,0,0,0,188.8,27.01a6.251,6.251,0,0,0-.462,2.618v0.814h3.256V29.694a2.487,2.487,0,0,1,.352-1.507,1.505,1.505,0,0,1,1.254-.451,1.469,1.469,0,0,1,1.111.363,1.649,1.649,0,0,1,.341,1.155,3.746,3.746,0,0,1-.572,1.914,25.391,25.391,0,0,1-2.09,2.816l-3.85,4.774v2.2h10.01v-2.9h-5.5ZM205.23,41.2a5.978,5.978,0,0,0,3.113-.66,3.679,3.679,0,0,0,1.507-2.31,19.81,19.81,0,0,0,.44-4.8V32.862a19.812,19.812,0,0,0-.44-4.8,3.679,3.679,0,0,0-1.507-2.31,7.671,7.671,0,0,0-6.226,0,3.671,3.671,0,0,0-1.507,2.31,19.761,19.761,0,0,0-.44,4.8v0.572a19.759,19.759,0,0,0,.44,4.8,3.671,3.671,0,0,0,1.507,2.31,5.975,5.975,0,0,0,3.113.66h0Zm0-2.728a1.175,1.175,0,0,1-.935-0.341,2.52,2.52,0,0,1-.407-1.309,29.936,29.936,0,0,1-.11-3.058V32.532a29.944,29.944,0,0,1,.11-3.058,2.522,2.522,0,0,1,.407-1.309,1.452,1.452,0,0,1,1.87,0,2.606,2.606,0,0,1,.418,1.32,27.63,27.63,0,0,1,.121,3.047v1.232a27.622,27.622,0,0,1-.121,3.047,2.6,2.6,0,0,1-.418,1.32,1.177,1.177,0,0,1-.935.341h0Zm11.725,2.794,8.492-16.236h-2.4l-8.492,16.236h2.4Zm-1.76-7.172a4.166,4.166,0,0,0,1.991-.385,2.135,2.135,0,0,0,.979-1.309,9.38,9.38,0,0,0,.286-2.64V29.43a9.38,9.38,0,0,0-.286-2.64,2.136,2.136,0,0,0-.979-1.309A4.17,4.17,0,0,0,215.2,25.1a4.238,4.238,0,0,0-2,.385,2.167,2.167,0,0,0-1,1.32,9.082,9.082,0,0,0-.3,2.629v0.33a9.08,9.08,0,0,0,.3,2.629,2.166,2.166,0,0,0,1,1.32,4.234,4.234,0,0,0,2,.385h0Zm0-1.782a0.677,0.677,0,0,1-.517-0.176,1.338,1.338,0,0,1-.231-0.715,16.182,16.182,0,0,1-.066-1.749v-0.11a16.86,16.86,0,0,1,.066-1.771,1.384,1.384,0,0,1,.231-0.737,0.678,0.678,0,0,1,.517-0.176,0.642,0.642,0,0,1,.506.176,1.469,1.469,0,0,1,.22.737,16.86,16.86,0,0,1,.066,1.771v0.11a16.182,16.182,0,0,1-.066,1.749,1.42,1.42,0,0,1-.22.715,0.641,0.641,0,0,1-.506.176h0Zm9.614,8.888a4.171,4.171,0,0,0,1.991-.385,2.135,2.135,0,0,0,.979-1.309,9.38,9.38,0,0,0,.286-2.64v-0.33a9.38,9.38,0,0,0-.286-2.64,2.136,2.136,0,0,0-.979-1.309,4.17,4.17,0,0,0-1.991-.385,4.238,4.238,0,0,0-2,.385,2.164,2.164,0,0,0-1,1.309,9.062,9.062,0,0,0-.3,2.64v0.33a9.062,9.062,0,0,0,.3,2.64,2.163,2.163,0,0,0,1,1.309,4.239,4.239,0,0,0,2,.385h0Zm0-1.782a0.711,0.711,0,0,1-.539-0.176,1.36,1.36,0,0,1-.231-0.726,16.516,16.516,0,0,1-.066-1.76v-0.11a16.481,16.481,0,0,1,.066-1.771,1.34,1.34,0,0,1,.231-0.715,0.712,0.712,0,0,1,.539-0.176,0.642,0.642,0,0,1,.506.176,1.446,1.446,0,0,1,.22.726,16.524,16.524,0,0,1,.066,1.76v0.11a16.516,16.516,0,0,1-.066,1.76,1.444,1.444,0,0,1-.22.726,0.641,0.641,0,0,1-.506.176h0Z" transform="translate(-2.844 -25.031)"/>
</svg>
