<svg id="CTA" xmlns="http://www.w3.org/2000/svg" width="78.531" height="16.906" viewBox="0 0 78.531 16.906">
  <metadata><?xpacket begin="﻿" id="W5M0MpCehiHzreSzNTczkc9d"?>
<x:xmpmeta xmlns:x="adobe:ns:meta/" x:xmptk="Adobe XMP Core 5.6-c138 79.159824, 2016/09/14-01:09:01        ">
   <rdf:RDF xmlns:rdf="http://www.w3.org/1999/02/22-rdf-syntax-ns#">
      <rdf:Description rdf:about=""/>
   </rdf:RDF>
</x:xmpmeta>
                                                                                                    
                                                                                                    
                                                                                                    
                                                                                                    
                                                                                                    
                                                                                                    
                                                                                                    
                                                                                                    
                                                                                                    
                                                                                                    
                                                                                                    
                                                                                                    
                                                                                                    
                                                                                                    
                                                                                                    
                                                                                                    
                                                                                                    
                                                                                                    
                                                                                                    
                                                                                                    
                           
<?xpacket end="w"?></metadata>
<defs>
    <style>
      .cls-1, .cls-2 {
        fill-rule: evenodd;
      }

      .cls-2 {
        fill: #fff;
      }
    </style>
  </defs>
  <path id="Rounded_Rectangle_1" data-name="Rounded Rectangle 1" class="cls-1" d="M243.474,25.082H312a5,5,0,0,1,5,5V37a5,5,0,0,1-5,5H243.474a5,5,0,0,1-5-5V30.082A5,5,0,0,1,243.474,25.082Z" transform="translate(-238.469 -25.094)"/>
  <path id="BUY_NOW" data-name="BUY NOW" class="cls-2" d="M251.607,33.46a1.994,1.994,0,0,0,1.022-.816,2.776,2.776,0,0,0,.309-1.408V30.82a3.191,3.191,0,0,0-.373-1.7,2.085,2.085,0,0,0-1.243-.848,9.154,9.154,0,0,0-2.456-.256H245.84V39.38h3.343a8.949,8.949,0,0,0,2.471-.264,2.09,2.09,0,0,0,1.252-.9,3.472,3.472,0,0,0,.38-1.784V36.02a3.063,3.063,0,0,0-.388-1.672,2.293,2.293,0,0,0-1.291-.888h0Zm-3.169-3.68h0.46a2.707,2.707,0,0,1,.927.12,0.718,0.718,0,0,1,.427.416,2.379,2.379,0,0,1,.119.856v0.16a2.068,2.068,0,0,1-.119.8,0.728,0.728,0,0,1-.435.392,2.722,2.722,0,0,1-.919.12h-0.46V29.78Zm2.187,6.24a3.083,3.083,0,0,1-.119.976,0.8,0.8,0,0,1-.436.48,2.351,2.351,0,0,1-.935.144h-0.7V34.372h0.7a2.619,2.619,0,0,1,.935.128,0.743,0.743,0,0,1,.436.448,2.738,2.738,0,0,1,.119.912v0.16Zm8.127,3.536a5.25,5.25,0,0,0,2.29-.4,2.3,2.3,0,0,0,1.14-1.344,8.332,8.332,0,0,0,.341-2.7V28.02h-2.662V35.3a7.377,7.377,0,0,1-.095,1.36,1.15,1.15,0,0,1-.333.68,1.259,1.259,0,0,1-1.362,0,1.162,1.162,0,0,1-.333-0.68,7.466,7.466,0,0,1-.1-1.36V28.02h-2.661v7.088a8.336,8.336,0,0,0,.34,2.7,2.3,2.3,0,0,0,1.141,1.344,5.242,5.242,0,0,0,2.289.4h0ZM269.335,28.02L267.846,32.8l-1.489-4.784h-2.773l2.931,7.312V39.38h2.6V35.332l2.931-7.312h-2.71Zm13.293,7.568-2.773-7.568h-2.883V39.38h2.234V31.812l2.772,7.568h2.884V28.02h-2.234v7.568Zm7.937,3.968a4.866,4.866,0,0,0,2.4-.48,2.693,2.693,0,0,0,1.181-1.68,13.28,13.28,0,0,0,.348-3.488V33.492A13.281,13.281,0,0,0,294.146,30a2.693,2.693,0,0,0-1.181-1.68,6.24,6.24,0,0,0-4.8,0A2.662,2.662,0,0,0,286.992,30a13.565,13.565,0,0,0-.34,3.488v0.416a13.564,13.564,0,0,0,.34,3.488,2.662,2.662,0,0,0,1.173,1.68,4.866,4.866,0,0,0,2.4.48h0Zm0-2.016a0.953,0.953,0,0,1-.784-0.32,2.264,2.264,0,0,1-.365-1.1,19.621,19.621,0,0,1-.1-2.336V33.62a19.625,19.625,0,0,1,.1-2.336,2.266,2.266,0,0,1,.365-1.1,0.953,0.953,0,0,1,.784-0.32,0.975,0.975,0,0,1,.792.32,2.212,2.212,0,0,1,.373,1.112,19.655,19.655,0,0,1,.1,2.328v0.16a19.655,19.655,0,0,1-.1,2.328,2.211,2.211,0,0,1-.373,1.112,0.975,0.975,0,0,1-.792.32h0Zm14.5-.576-1.616-8.944H300.61l-1.616,8.9-1.173-8.9h-2.535l2.076,11.36h3.1l1.489-8.352,1.474,8.352h3.105l2.076-11.36H306.25Z" transform="translate(-238.469 -25.094)"/>
</svg>
