<?xml version="1.0" encoding="utf-8"?>
<!-- Generator: Adobe Illustrator 18.1.1, SVG Export Plug-In . SVG Version: 6.00 Build 0)  -->
<svg version="1.1" id="Layer_1" xmlns="http://www.w3.org/2000/svg" xmlns:xlink="http://www.w3.org/1999/xlink" x="0px" y="0px"
	 width="49.3px" height="28.8px" viewBox="243.4 215.4 49.3 28.8" enable-background="new 243.4 215.4 49.3 28.8"
	 xml:space="preserve">
<path fill="#211F5E" d="M249.6,227.7c3.3,0,5.3-1.6,5.3-4.1l0,0c0-2.4-2.1-3.3-5.2-3.9c-1.3-0.2-1.6-0.4-1.6-0.8l0,0
	c0-0.3,0.3-0.5,0.9-0.5c1.1,0,2.5,0.4,3.6,1.2l2-2.7c-1.4-1.1-3.1-1.7-5.5-1.7c-3.3,0-5.1,1.8-5.1,4.1l0,0c0,2.6,2.4,3.3,5.1,3.9
	c1.3,0.3,1.7,0.4,1.7,0.8l0,0c0,0.3-0.3,0.5-1,0.5c-1.4,0-2.9-0.4-4.2-1.4l-2.2,2.6C244.9,227,247.1,227.7,249.6,227.7z"/>
<path fill="#211F5E" d="M255.1,227.4h4.3l0.6-1.6h4.2l0.6,1.6h4.4l-5.1-12.2h-4L255.1,227.4z M261.1,222.9l1.1-2.9l1.1,2.9H261.1z"
	/>
<path fill="#211F5E" d="M272.6,227.5h3.9l4.9-12.2h-4.5l-2.4,6.8l-2.4-6.8h-4.5L272.6,227.5z"/>
<path fill="#211F5E" d="M282.3,227.4h10.4v-3.3h-6.4v-1.3h5.9v-2.9h-5.9v-1.2h6.4v-3.3h-10.3v12H282.3z"/>
<path fill="#211F5E" d="M245.6,243.9h4v-5.6l4.5,5.6h3.6v-12.1h-4v5.3l-4.3-5.3h-3.8V243.9z"/>
<path fill="#211F5E" d="M265.9,244.2c3.7,0,6.6-2.8,6.6-6.3l0,0c0-3.5-2.9-6.3-6.6-6.3s-6.6,2.8-6.6,6.3l0,0
	C259.3,241.4,262.1,244.2,265.9,244.2z M265.9,240.6c-1.6,0-2.5-1.3-2.5-2.7l0,0c0-1.4,1-2.7,2.5-2.7c1.6,0,2.5,1.3,2.5,2.7l0,0
	C268.4,239.3,267.4,240.6,265.9,240.6z"/>
<path fill="#211F5E" d="M276.6,244h3.5l2.1-6l2.1,6h3.5l4-12.2h-4.2l-1.7,5.8l-2-5.8h-3.5l-2,5.8l-1.7-5.8h-4.2L276.6,244z"/>
</svg>
