<?xml version="1.0" encoding="utf-8"?>
<!-- Generator: Adobe Illustrator 18.1.1, SVG Export Plug-In . SVG Version: 6.00 Build 0)  -->
<svg version="1.1" id="Layer_1" xmlns="http://www.w3.org/2000/svg" xmlns:xlink="http://www.w3.org/1999/xlink" x="0px" y="0px"
	 width="300px" height="250px" viewBox="0 0 300 250" enable-background="new 0 0 300 250" xml:space="preserve">
<g id="Layer_3">
	<path fill="#FFFFFF" d="M22.4,70h7.5v-8.1h6.9V70h7.5V47.4h-7.5v8h-6.9v-8h-7.5V70z"/>
	<path fill="#FFFFFF" d="M46.8,70h19.3v-6.2H54.2v-2.5h11v-5.5h-11v-2.3H66v-6.2H46.8V70z"/>
	<path fill="#FFFFFF" d="M68.2,70h7.5v-7.4h10.5v-5.9H75.7v-2.9H87v-6.5H68.2V70z"/>
	<path fill="#FFFFFF" d="M94.5,70h7.5V53.8h6.6v-6.4H87.9v6.4h6.6V70z"/>
	<path fill="#FFFFFF" d="M117,70h7.5v-8.1l8.5-14.5h-8.3l-3.9,7.4l-3.9-7.4h-8.4L117,62V70z"/>
	<path fill="#FFFFFF" d="M138,49.4c0-1.4-1.1-2.5-2.5-2.5s-2.5,1.2-2.5,2.6c0,1.4,1.1,2.5,2.5,2.5S138,50.7,138,49.4z M137.7,49.4
		c0,1.3-1,2.3-2.2,2.3c-1.3,0-2.2-1-2.2-2.3s1-2.3,2.2-2.3C136.7,47.1,137.7,48.1,137.7,49.4z M136.7,48.8c0-0.6-0.4-0.9-1.1-0.9
		h-1.2v2.7h0.6v-0.9h0.5l0.6,0.9h0.7l-0.7-1C136.4,49.5,136.7,49.3,136.7,48.8z M136.1,48.9c0,0.2-0.2,0.4-0.5,0.4H135v-0.8h0.6
		C135.9,48.5,136.1,48.6,136.1,48.9z"/>
	<path fill="#FFFFFF" d="M138,180.7c0-1.4-1.1-2.5-2.5-2.5s-2.5,1.2-2.5,2.6c0,1.4,1.1,2.5,2.5,2.5S138,182.1,138,180.7z
		 M137.7,180.7c0,1.3-1,2.3-2.2,2.3c-1.3,0-2.2-1-2.2-2.3s1-2.3,2.2-2.3S137.7,179.4,137.7,180.7z M136.7,180.2
		c0-0.6-0.4-0.9-1.1-0.9h-1.2v2.7h0.6v-0.9h0.5l0.6,0.9h0.7l-0.7-1C136.4,180.9,136.7,180.6,136.7,180.2z M136.1,180.2
		c0,0.2-0.2,0.4-0.5,0.4H135v-0.8h0.6C135.9,179.8,136.1,179.9,136.1,180.2z"/>
	<path fill="#FFFFFF" d="M32.3,101.5c5.7,0,9-2.8,10.9-6.3l-6.4-3.6c-1,1.7-2.2,2.9-4.3,2.9c-2.5,0-4.3-2.1-4.3-5.1v-0.1
		c0-2.8,1.7-5.1,4.3-5.1c2.1,0,3.3,1.2,4.2,2.8l6.4-3.7c-1.9-3.5-5.4-6-10.4-6c-6.9,0-12.2,5.2-12.2,12.1v0.1
		C20.4,96.6,26,101.5,32.3,101.5z"/>
	<path fill="#FFFFFF" d="M56.1,101.5c7.1,0,12.6-5.4,12.6-12.1v-0.1c0-6.7-5.4-12-12.5-12s-12.6,5.4-12.6,12.1v0.1
		C43.5,96.2,49,101.5,56.1,101.5z M56.1,94.6c-3,0-4.8-2.5-4.8-5.2v-0.1c0-2.7,1.8-5.2,4.8-5.2s4.8,2.5,4.8,5.2v0.1
		C60.9,92.2,59.1,94.6,56.1,94.6z"/>
	<path fill="#FFFFFF" d="M80.5,101.4c6.2,0,10.2-3,10.2-7.9v-0.1c0-4.7-4-6.4-9.8-7.5c-2.4-0.5-3.1-0.9-3.1-1.5v-0.1
		c0-0.6,0.5-1,1.7-1c2.1,0,4.7,0.7,6.9,2.3l3.8-5.2c-2.7-2.1-6-3.2-10.4-3.2c-6.4,0-9.8,3.4-9.8,7.8v0.1c0,4.9,4.5,6.4,9.7,7.5
		c2.5,0.5,3.2,0.9,3.2,1.5v0.1c0,0.6-0.6,1-2,1c-2.7,0-5.6-0.8-8.1-2.7l-4.1,4.9C71.7,100.1,75.9,101.4,80.5,101.4z"/>
	<path fill="#FFFFFF" d="M97.6,101h7.7V84.3h6.8v-6.6H90.8v6.6h6.8C97.6,84.3,97.6,101,97.6,101z"/>
	<path fill="#FFFFFF" d="M123.2,101.4c6.2,0,10.2-3,10.2-7.9v-0.1c0-4.7-4-6.4-9.8-7.5c-2.4-0.5-3.1-0.9-3.1-1.5v-0.1
		c0-0.6,0.5-1,1.7-1c2.1,0,4.7,0.7,6.9,2.3l3.8-5.2c-2.7-2.1-6-3.2-10.4-3.2c-6.4,0-9.8,3.4-9.8,7.8v0.1c0,4.9,4.5,6.4,9.7,7.5
		c2.5,0.5,3.2,0.9,3.2,1.5v0.1c0,0.6-0.6,1-2,1c-2.7,0-5.6-0.8-8.1-2.7l-4.1,4.9C114.3,100.1,118.5,101.4,123.2,101.4z"/>
	<path fill="#FFFFFF" d="M22.2,139.3h24.6v-8.8H32.4v-22H22.2V139.3z"/>
	<path fill="#FFFFFF" d="M49,139.3h26.3v-8.5H59.1v-3.3H74v-7.4H59.1V117h16v-8.5H49V139.3z"/>
	<path fill="#FFFFFF" d="M91.2,139.9c8.2,0,13.5-4,13.5-10.4v-0.1c0-6.2-5.2-8.5-13.1-10c-3.2-0.6-4.1-1.1-4.1-2v-0.1
		c0-0.7,0.7-1.3,2.2-1.3c2.8,0,6.3,0.9,9.2,3l5-7c-3.5-2.8-7.9-4.2-13.8-4.2c-8.4,0-13,4.5-13,10.4v0.1c0,6.5,6,8.5,12.9,9.9
		c3.3,0.7,4.2,1.1,4.2,2v0.1c0,0.8-0.8,1.3-2.6,1.3c-3.6,0-7.4-1.1-10.7-3.6l-5.5,6.6C79.4,138.1,85,139.9,91.2,139.9z"/>
	<path fill="#FFFFFF" d="M119.8,139.9c8.2,0,13.5-4,13.5-10.4v-0.1c0-6.2-5.2-8.5-13.1-10c-3.2-0.6-4.1-1.1-4.1-2v-0.1
		c0-0.7,0.7-1.3,2.2-1.3c2.8,0,6.3,0.9,9.2,3l5-7c-3.5-2.8-7.9-4.2-13.8-4.2c-8.4,0-13,4.5-13,10.4v0.1c0,6.5,6,8.5,12.9,9.9
		c3.3,0.7,4.2,1.1,4.2,2v0.1c0,0.8-0.8,1.3-2.6,1.3c-3.6,0-7.4-1.1-10.7-3.6l-5.5,6.6C108,138.1,113.6,139.9,119.8,139.9z"/>
	<path fill="#FFFFFF" d="M29.4,173.2h8.8v-19H46v-7.5H21.6v7.5h7.8C29.4,154.2,29.4,173.2,29.4,173.2z"/>
	<path fill="#FFFFFF" d="M47.9,173.2h8.8v-9.5h8.1v9.5h8.8v-26.5h-8.8v9.4h-8.1v-9.4h-8.8C47.9,146.7,47.9,173.2,47.9,173.2z"/>
	<path fill="#FFFFFF" d="M74.7,173.2h9.4l1.4-3.6h9.2l1.4,3.6h9.6l-11.1-26.7h-8.7L74.7,173.2z M87.7,163.4l2.4-6.4l2.4,6.4H87.7z"
		/>
	<path fill="#FFFFFF" d="M106.7,173.2h8.7V161l9.8,12.3h7.8v-26.5h-8.7v11.7l-9.4-11.7h-8.2C106.7,146.8,106.7,173.2,106.7,173.2z"
		/>
	<path fill="#FFFFFF" d="M20.9,201.8h19.5V196h-9.5l9.5-10.4v-4.9H21.3v5.8h9.1l-9.5,10.4V201.8z"/>
	<path fill="#FFFFFF" d="M42.2,201.8h7v-21.1h-7V201.8z"/>
	<path fill="#FFFFFF" d="M51.6,201.8h7v-5.7h2.3c5.6,0,9.5-2.7,9.5-7.8v-0.1c0-5-3.8-7.5-9.4-7.5h-9.4
		C51.6,180.7,51.6,201.8,51.6,201.8z M58.6,191v-4.7h1.9c1.9,0,3,0.8,3,2.3v0.1c0,1.5-1.2,2.3-3,2.3L58.6,191L58.6,191z"/>
	<path fill="#FFFFFF" d="M71.9,201.8h16.8v-6h-9.8v-15.1h-7C71.9,180.7,71.9,201.8,71.9,201.8z"/>
	<path fill="#FFFFFF" d="M99.9,202.2c6.5,0,11.4-4.9,11.4-11v-0.1c0-6.1-4.9-10.9-11.4-10.9s-11.4,4.9-11.4,11v0.1
		C88.5,197.4,93.5,202.2,99.9,202.2z M100,196c-2.7,0-4.4-2.3-4.4-4.8v-0.1c0-2.5,1.7-4.7,4.3-4.7c2.7,0,4.4,2.3,4.4,4.8v0.1
		C104.3,193.8,102.6,196,100,196z"/>
	<path fill="#FFFFFF" d="M123.6,202.2c5.2,0,8.1-2.6,9.9-5.7l-5.8-3.3c-0.9,1.6-2,2.6-3.9,2.6c-2.3,0-3.9-1.9-3.9-4.7V191
		c0-2.5,1.6-4.6,3.9-4.6c1.9,0,3,1.1,3.8,2.6l5.8-3.4c-1.8-3.2-4.9-5.5-9.5-5.5c-6.2,0-11.1,4.7-11.1,11v0.1
		C112.8,197.8,117.8,202.2,123.6,202.2z"/>
</g>
<g id="Layer_2" display="none">
	<path display="inline" fill="#160505" d="M12.9,227h0.3v-1.3h1.7v1.3h0.3v-3h-0.3v1.3h-1.7V224h-0.3V227z"/>
	<path display="inline" fill="#160505" d="M16.2,226H18c0-0.1,0-0.1,0-0.1c0-0.6-0.4-1.2-1-1.2s-1.1,0.5-1.1,1.1
		c0,0.7,0.5,1.1,1.1,1.1c0.4,0,0.7-0.2,0.9-0.4l-0.2-0.2c-0.2,0.2-0.4,0.3-0.7,0.3C16.6,226.7,16.3,226.5,16.2,226z M16.2,225.7
		c0-0.4,0.3-0.7,0.7-0.7c0.4,0,0.7,0.3,0.7,0.7H16.2z"/>
	<path display="inline" fill="#160505" d="M18.7,227H19v-1.9h0.7v-0.3H19v-0.2c0-0.3,0.1-0.5,0.4-0.5c0.1,0,0.2,0,0.3,0.1v-0.3
		c-0.1,0-0.2-0.1-0.4-0.1c-0.2,0-0.4,0.1-0.5,0.2c-0.1,0.1-0.2,0.3-0.2,0.6v0.2h-0.3v0.3h0.3v1.9H18.7z"/>
	<path display="inline" fill="#160505" d="M20.8,227c0.2,0,0.3,0,0.4-0.1v-0.3c-0.1,0.1-0.2,0.1-0.3,0.1c-0.2,0-0.4-0.1-0.4-0.4V225
		h0.7v-0.3h-0.7V224h-0.3v0.7h-0.3v0.3h0.3v1.3C20.2,226.8,20.5,227,20.8,227z"/>
	<path display="inline" fill="#160505" d="M22.2,227.7c0.3,0,0.5-0.2,0.7-0.6l0.9-2.3h-0.3l-0.7,1.8l-0.8-1.8h-0.4l1,2.2
		c-0.1,0.3-0.3,0.4-0.5,0.4c-0.1,0-0.2,0-0.3-0.1l-0.1,0.3C21.8,227.6,22,227.7,22.2,227.7z"/>
	<path display="inline" fill="#160505" d="M25.7,227c0.9,0,1.5-0.7,1.5-1.5l0,0c0-0.8-0.7-1.5-1.5-1.5c-0.9,0-1.5,0.7-1.5,1.5l0,0
		C24.2,226.3,24.9,227,25.7,227z M25.7,226.9c-0.8,0-1.4-0.6-1.4-1.4l0,0c0-0.8,0.6-1.4,1.4-1.4s1.4,0.6,1.4,1.4l0,0
		C27.1,226.3,26.5,226.9,25.7,226.9z M25.1,226.2h0.2v-0.6h0.4l0,0l0.5,0.6h0.3l-0.5-0.6c0.2-0.1,0.4-0.2,0.4-0.5l0,0
		c0-0.1-0.1-0.2-0.1-0.3c-0.1-0.1-0.3-0.2-0.5-0.2h-0.7C25.1,224.6,25.1,226.2,25.1,226.2z M25.4,225.4v-0.6h0.5
		c0.2,0,0.4,0.1,0.4,0.3l0,0c0,0.2-0.2,0.3-0.4,0.3H25.4z"/>
	<path display="inline" fill="#160505" d="M29.2,227h0.3v-3.1h-0.3V227z"/>
	<path display="inline" fill="#160505" d="M31.3,227c0.7,0,1.2-0.5,1.2-1.1l0,0c0-0.6-0.5-1.1-1.1-1.1c-0.7,0-1.1,0.5-1.1,1.1l0,0
		C30.1,226.5,30.6,227,31.3,227z M31.3,226.7c-0.5,0-0.8-0.4-0.8-0.9l0,0c0-0.5,0.3-0.8,0.8-0.8s0.8,0.4,0.8,0.9l0,0
		C32.1,226.4,31.7,226.7,31.3,226.7z"/>
	<path display="inline" fill="#160505" d="M33.5,227h0.3l0.6-1.7L35,227h0.3l0.8-2.2h-0.3l-0.6,1.8l-0.6-1.8h-0.3l-0.6,1.8l-0.6-1.8
		h-0.3L33.5,227z"/>
	<path display="inline" fill="#160505" d="M36.6,226h1.7c0-0.1,0-0.1,0-0.1c0-0.6-0.4-1.2-1-1.2s-1.1,0.5-1.1,1.1
		c0,0.7,0.5,1.1,1.1,1.1c0.4,0,0.7-0.2,0.9-0.4l-0.2-0.2c-0.2,0.2-0.4,0.3-0.7,0.3C37,226.7,36.7,226.5,36.6,226z M36.6,225.7
		c0-0.4,0.3-0.7,0.7-0.7s0.7,0.3,0.7,0.7H36.6z"/>
	<path display="inline" fill="#160505" d="M39,227h0.3v-0.9c0-0.7,0.4-1,0.9-1l0,0v-0.4c-0.4,0-0.7,0.2-0.9,0.6v-0.6H39V227z"/>
	<path display="inline" fill="#160505" d="M42,227.7h0.3v-1.1c0.2,0.2,0.4,0.5,0.8,0.5c0.5,0,1-0.4,1-1.1l0,0c0-0.7-0.5-1.1-1-1.1
		c-0.4,0-0.7,0.2-0.8,0.5V225H42V227.7z M43.1,226.7c-0.4,0-0.8-0.3-0.8-0.8l0,0c0-0.5,0.4-0.8,0.8-0.8c0.4,0,0.8,0.3,0.8,0.8l0,0
		C43.8,226.4,43.5,226.7,43.1,226.7z"/>
	<path display="inline" fill="#160505" d="M44.8,227h0.3v-0.9c0-0.7,0.4-1,0.9-1l0,0v-0.4c-0.4,0-0.7,0.2-0.9,0.6v-0.6h-0.3V227z"/>
	<path display="inline" fill="#160505" d="M46.5,224.3h0.4v-0.4h-0.4V224.3z M46.5,227h0.3v-2.2h-0.3V227z"/>
	<path display="inline" fill="#160505" d="M48.6,227c0.4,0,0.7-0.2,0.9-0.4l-0.2-0.2c-0.2,0.2-0.4,0.3-0.7,0.3
		c-0.5,0-0.8-0.4-0.8-0.9l0,0c0-0.5,0.3-0.8,0.8-0.8c0.3,0,0.5,0.1,0.7,0.3l0.2-0.2c-0.2-0.2-0.5-0.4-0.9-0.4
		c-0.6,0-1.1,0.5-1.1,1.1l0,0C47.5,226.5,48,227,48.6,227z"/>
	<path display="inline" fill="#160505" d="M50.2,226h1.7c0-0.1,0-0.1,0-0.1c0-0.6-0.4-1.2-1-1.2s-1.1,0.5-1.1,1.1
		c0,0.7,0.5,1.1,1.1,1.1c0.4,0,0.7-0.2,0.9-0.4l-0.2-0.2c-0.2,0.2-0.4,0.3-0.7,0.3C50.6,226.7,50.2,226.5,50.2,226z M50.2,225.7
		c0-0.4,0.3-0.7,0.7-0.7s0.7,0.3,0.7,0.7H50.2z"/>
	<path display="inline" fill="#160505" d="M53.4,227c0.4,0,0.7-0.2,0.8-0.5v0.4h0.3v-3.1h-0.3v1.3c-0.2-0.2-0.4-0.5-0.8-0.5
		c-0.5,0-1,0.4-1,1.1l0,0C52.4,226.6,52.9,227,53.4,227z M53.5,226.7c-0.4,0-0.8-0.3-0.8-0.8l0,0c0-0.5,0.3-0.8,0.8-0.8
		c0.4,0,0.8,0.3,0.8,0.8l0,0C54.3,226.4,53.9,226.7,53.5,226.7z"/>
	<path display="inline" fill="#160505" d="M57.3,227c0.2,0,0.3,0,0.4-0.1v-0.3c-0.1,0.1-0.2,0.1-0.3,0.1c-0.2,0-0.4-0.1-0.4-0.4V225
		h0.7v-0.3H57V224h-0.3v0.7h-0.3v0.3h0.3v1.3C56.7,226.8,57,227,57.3,227z"/>
	<path display="inline" fill="#160505" d="M58.3,227h0.3v-1.3c0-0.4,0.3-0.7,0.7-0.7s0.6,0.3,0.6,0.7v1.3h0.3v-1.4
		c0-0.5-0.3-0.9-0.8-0.9c-0.4,0-0.6,0.2-0.8,0.4v-1.3h-0.3V227z"/>
	<path display="inline" fill="#160505" d="M61.6,227c0.4,0,0.6-0.2,0.8-0.4v0.3h0.3v-1.3c0-0.3-0.1-0.5-0.2-0.6
		c-0.2-0.2-0.4-0.2-0.7-0.2s-0.6,0.1-0.8,0.2l0.1,0.3c0.2-0.1,0.4-0.2,0.7-0.2c0.4,0,0.6,0.2,0.6,0.6v0.1c-0.2-0.1-0.4-0.1-0.7-0.1
		c-0.6,0-0.9,0.2-0.9,0.7l0,0C60.8,226.8,61.2,227,61.6,227z M61.6,226.8c-0.3,0-0.6-0.2-0.6-0.4l0,0c0-0.3,0.2-0.4,0.6-0.4
		c0.3,0,0.5,0,0.6,0.1v0.2C62.4,226.5,62,226.8,61.6,226.8z"/>
	<path display="inline" fill="#160505" d="M63.4,227h0.3v-1.3c0-0.4,0.3-0.7,0.7-0.7s0.6,0.3,0.6,0.7v1.3h0.3v-1.4
		c0-0.5-0.3-0.9-0.8-0.9c-0.4,0-0.6,0.2-0.8,0.4v-0.4h-0.3V227z"/>
	<path display="inline" fill="#160505" d="M67.2,227h2.4v-0.3h-1.9l1.9-2.4V224h-2.3v0.3h1.9l-1.9,2.4L67.2,227L67.2,227z"/>
	<path display="inline" fill="#160505" d="M70.2,224.3h0.4v-0.4h-0.4V224.3z M70.2,227h0.3v-2.2h-0.3V227z"/>
	<path display="inline" fill="#160505" d="M71.3,227.7h0.3v-1.1c0.2,0.2,0.4,0.5,0.8,0.5c0.5,0,1-0.4,1-1.1l0,0c0-0.7-0.5-1.1-1-1.1
		c-0.4,0-0.7,0.2-0.8,0.5V225h-0.3V227.7z M72.4,226.7c-0.4,0-0.8-0.3-0.8-0.8l0,0c0-0.5,0.4-0.8,0.8-0.8s0.8,0.3,0.8,0.8l0,0
		C73.2,226.4,72.9,226.7,72.4,226.7z"/>
	<path display="inline" fill="#160505" d="M74.2,227h0.3v-3.1h-0.3V227z"/>
	<path display="inline" fill="#160505" d="M76.3,227c0.7,0,1.2-0.5,1.2-1.1l0,0c0-0.6-0.5-1.1-1.1-1.1c-0.7,0-1.1,0.5-1.1,1.1l0,0
		C75.1,226.5,75.6,227,76.3,227z M76.3,226.7c-0.5,0-0.8-0.4-0.8-0.9l0,0c0-0.5,0.3-0.8,0.8-0.8s0.8,0.4,0.8,0.9l0,0
		C77.1,226.4,76.8,226.7,76.3,226.7z"/>
	<path display="inline" fill="#160505" d="M79,227c0.4,0,0.7-0.2,0.9-0.4l-0.2-0.2c-0.2,0.2-0.4,0.3-0.7,0.3c-0.5,0-0.8-0.4-0.8-0.9
		l0,0c0-0.5,0.3-0.8,0.8-0.8c0.3,0,0.5,0.1,0.7,0.3l0.2-0.2c-0.2-0.2-0.5-0.4-0.9-0.4c-0.6,0-1.1,0.5-1.1,1.1l0,0
		C77.9,226.5,78.4,227,79,227z"/>
	<path display="inline" fill="#160505" d="M82.8,227c0.6,0,1-0.3,1-0.8l0,0c0-0.5-0.3-0.7-1-0.8s-0.8-0.3-0.8-0.6l0,0
		c0-0.3,0.2-0.5,0.6-0.5c0.3,0,0.6,0.1,0.9,0.3l0.2-0.3c-0.3-0.2-0.6-0.4-1-0.4c-0.6,0-1,0.3-1,0.8l0,0c0,0.5,0.3,0.7,1,0.9
		c0.6,0.1,0.8,0.3,0.8,0.6l0,0c0,0.3-0.3,0.5-0.7,0.5c-0.4,0-0.7-0.1-1-0.4l-0.2,0.2C81.9,226.9,82.3,227,82.8,227z"/>
	<path display="inline" fill="#160505" d="M84.5,227h0.3v-3.1h-0.3V227z"/>
	<path display="inline" fill="#160505" d="M85.6,224.3H86v-0.4h-0.4V224.3z M85.6,227h0.3v-2.2h-0.3V227z"/>
	<path display="inline" fill="#160505" d="M87.6,227c0.4,0,0.7-0.2,0.8-0.5v0.4h0.3v-3.1h-0.3v1.3c-0.2-0.2-0.4-0.5-0.8-0.5
		c-0.5,0-1,0.4-1,1.1l0,0C86.5,226.6,87.1,227,87.6,227z M87.6,226.7c-0.4,0-0.8-0.3-0.8-0.8l0,0c0-0.5,0.3-0.8,0.8-0.8
		c0.4,0,0.8,0.3,0.8,0.8l0,0C88.4,226.4,88.1,226.7,87.6,226.7z"/>
	<path display="inline" fill="#160505" d="M89.7,226h1.7c0-0.1,0-0.1,0-0.1c0-0.6-0.4-1.2-1-1.2s-1.1,0.5-1.1,1.1
		c0,0.7,0.5,1.1,1.1,1.1c0.4,0,0.7-0.2,0.9-0.4l-0.2-0.2c-0.2,0.2-0.4,0.3-0.7,0.3C90.1,226.7,89.7,226.5,89.7,226z M89.7,225.7
		c0-0.4,0.3-0.7,0.7-0.7c0.4,0,0.7,0.3,0.7,0.7H89.7z"/>
	<path display="inline" fill="#160505" d="M92,227h0.3v-0.9c0-0.7,0.4-1,0.9-1l0,0v-0.4c-0.4,0-0.7,0.2-0.9,0.6v-0.6H92V227z"/>
	<path display="inline" fill="#160505" d="M94.4,227c0.4,0,0.8-0.2,0.8-0.7l0,0c0-0.4-0.4-0.5-0.7-0.6c-0.3-0.1-0.6-0.2-0.6-0.4l0,0
		c0-0.2,0.2-0.3,0.4-0.3c0.2,0,0.4,0.1,0.6,0.2L95,225c-0.2-0.1-0.5-0.2-0.8-0.2c-0.4,0-0.7,0.3-0.7,0.6l0,0c0,0.4,0.4,0.5,0.7,0.6
		c0.3,0.1,0.5,0.2,0.5,0.4l0,0c0,0.2-0.2,0.3-0.5,0.3s-0.5-0.1-0.8-0.3l-0.2,0.2C93.8,226.9,94.1,227,94.4,227z"/>
	<path display="inline" fill="#160505" d="M98.3,227c0.5,0,1-0.4,1-1.1l0,0c0-0.7-0.5-1.1-1-1.1c-0.4,0-0.7,0.2-0.8,0.5V224h-0.3
		v3.1h0.3v-0.4C97.6,226.8,97.9,227,98.3,227z M98.2,226.7c-0.4,0-0.8-0.3-0.8-0.8l0,0c0-0.5,0.4-0.8,0.8-0.8s0.8,0.3,0.8,0.8l0,0
		C99,226.4,98.6,226.7,98.2,226.7z"/>
	<path display="inline" fill="#160505" d="M100.6,227c0.4,0,0.6-0.2,0.8-0.4v0.3h0.3v-1.3c0-0.3-0.1-0.5-0.2-0.6
		c-0.2-0.2-0.4-0.2-0.7-0.2c-0.3,0-0.6,0.1-0.8,0.2l0.1,0.3c0.2-0.1,0.4-0.2,0.7-0.2c0.4,0,0.6,0.2,0.6,0.6v0.1
		c-0.2-0.1-0.4-0.1-0.7-0.1c-0.6,0-0.9,0.2-0.9,0.7l0,0C99.8,226.8,100.2,227,100.6,227z M100.7,226.8c-0.3,0-0.6-0.2-0.6-0.4l0,0
		c0-0.3,0.2-0.4,0.6-0.4c0.3,0,0.5,0,0.6,0.1v0.2C101.4,226.5,101.1,226.8,100.7,226.8z"/>
	<path display="inline" fill="#160505" d="M103.1,227c0.4,0,0.8-0.2,0.8-0.7l0,0c0-0.4-0.4-0.5-0.7-0.6c-0.3-0.1-0.6-0.2-0.6-0.4
		l0,0c0-0.2,0.2-0.3,0.4-0.3c0.2,0,0.4,0.1,0.6,0.2l0.1-0.2c-0.2-0.1-0.5-0.2-0.8-0.2c-0.4,0-0.7,0.3-0.7,0.6l0,0
		c0,0.4,0.4,0.5,0.7,0.6c0.3,0.1,0.5,0.2,0.5,0.4l0,0c0,0.2-0.2,0.3-0.5,0.3s-0.5-0.1-0.8-0.3l-0.2,0.2
		C102.5,226.9,102.8,227,103.1,227z"/>
	<path display="inline" fill="#160505" d="M104.7,226h1.7c0-0.1,0-0.1,0-0.1c0-0.6-0.4-1.2-1-1.2s-1.1,0.5-1.1,1.1
		c0,0.7,0.5,1.1,1.1,1.1c0.4,0,0.7-0.2,0.9-0.4l-0.2-0.2c-0.2,0.2-0.4,0.3-0.7,0.3C105.1,226.7,104.8,226.5,104.7,226z M104.7,225.7
		c0-0.4,0.3-0.7,0.7-0.7c0.4,0,0.7,0.3,0.7,0.7H104.7z"/>
	<path display="inline" fill="#160505" d="M107.9,227c0.4,0,0.7-0.2,0.8-0.5v0.4h0.3v-3.1h-0.3v1.3c-0.2-0.2-0.4-0.5-0.8-0.5
		c-0.5,0-1,0.4-1,1.1l0,0C106.9,226.6,107.4,227,107.9,227z M108,226.7c-0.4,0-0.8-0.3-0.8-0.8l0,0c0-0.5,0.3-0.8,0.8-0.8
		c0.4,0,0.8,0.3,0.8,0.8l0,0C108.8,226.4,108.4,226.7,108,226.7z"/>
	<path display="inline" fill="#160505" d="M112.1,227c0.7,0,1.2-0.5,1.2-1.1l0,0c0-0.6-0.5-1.1-1.1-1.1c-0.7,0-1.1,0.5-1.1,1.1l0,0
		C111,226.5,111.5,227,112.1,227z M112.1,226.7c-0.5,0-0.8-0.4-0.8-0.9l0,0c0-0.5,0.3-0.8,0.8-0.8s0.8,0.4,0.8,0.9l0,0
		C112.9,226.4,112.6,226.7,112.1,226.7z"/>
	<path display="inline" fill="#160505" d="M113.9,227h0.3v-1.3c0-0.4,0.3-0.7,0.7-0.7c0.4,0,0.6,0.3,0.6,0.7v1.3h0.3v-1.4
		c0-0.5-0.3-0.9-0.8-0.9c-0.4,0-0.6,0.2-0.8,0.4v-0.4h-0.3C113.9,224.7,113.9,227,113.9,227z"/>
	<path display="inline" fill="#160505" d="M117.6,227h0.3l0.4-0.8h1.6l0.3,0.8h0.4l-1.4-3h-0.3L117.6,227z M118.4,225.9l0.7-1.5
		l0.7,1.5H118.4z"/>
	<path display="inline" fill="#160505" d="M122.4,227c0.5,0,0.9-0.2,1.2-0.5l-0.2-0.2c-0.3,0.3-0.6,0.4-1,0.4
		c-0.7,0-1.2-0.5-1.2-1.2l0,0c0-0.7,0.5-1.2,1.2-1.2c0.4,0,0.7,0.2,0.9,0.4l0.2-0.2c-0.3-0.3-0.6-0.5-1.2-0.5
		c-0.9,0-1.5,0.7-1.5,1.5l0,0C120.9,226.4,121.5,227,122.4,227z"/>
	<path display="inline" fill="#160505" d="M125.4,227h0.3v-2.4l1.9,2.4h0.3v-3h-0.3v2.4l-1.9-2.4h-0.3V227z"/>
	<path display="inline" fill="#160505" d="M128.7,224.3h0.4v-0.4h-0.4V224.3z M128.7,227h0.3v-2.2h-0.3V227z"/>
	<path display="inline" fill="#160505" d="M130,226h1.7c0-0.1,0-0.1,0-0.1c0-0.6-0.4-1.2-1-1.2s-1.1,0.5-1.1,1.1
		c0,0.7,0.5,1.1,1.1,1.1c0.4,0,0.7-0.2,0.9-0.4l-0.2-0.2c-0.2,0.2-0.4,0.3-0.7,0.3C130.4,226.7,130.1,226.5,130,226z M130,225.7
		c0-0.4,0.3-0.7,0.7-0.7s0.7,0.3,0.7,0.7H130z"/>
	<path display="inline" fill="#160505" d="M132.4,227h0.3v-3.1h-0.3V227z"/>
	<path display="inline" fill="#160505" d="M134.2,227c0.4,0,0.8-0.2,0.8-0.7l0,0c0-0.4-0.4-0.5-0.7-0.6s-0.6-0.2-0.6-0.4l0,0
		c0-0.2,0.2-0.3,0.4-0.3s0.4,0.1,0.6,0.2l0.1-0.2c-0.2-0.1-0.5-0.2-0.8-0.2c-0.4,0-0.7,0.3-0.7,0.6l0,0c0,0.4,0.4,0.5,0.7,0.6
		s0.5,0.2,0.5,0.4l0,0c0,0.2-0.2,0.3-0.5,0.3s-0.5-0.1-0.8-0.3l-0.2,0.2C133.5,226.9,133.9,227,134.2,227z"/>
	<path display="inline" fill="#160505" d="M135.8,226h1.7c0-0.1,0-0.1,0-0.1c0-0.6-0.4-1.2-1-1.2s-1.1,0.5-1.1,1.1
		c0,0.7,0.5,1.1,1.1,1.1c0.4,0,0.7-0.2,0.9-0.4l-0.2-0.2c-0.2,0.2-0.4,0.3-0.7,0.3C136.2,226.7,135.8,226.5,135.8,226z M135.8,225.7
		c0-0.4,0.3-0.7,0.7-0.7s0.7,0.3,0.7,0.7H135.8z"/>
	<path display="inline" fill="#160505" d="M138.1,227h0.3v-1.3c0-0.4,0.3-0.7,0.7-0.7s0.6,0.3,0.6,0.7v1.3h0.3v-1.4
		c0-0.5-0.3-0.9-0.8-0.9c-0.4,0-0.6,0.2-0.8,0.4v-0.4h-0.3V227z"/>
	<path display="inline" fill="#160505" d="M141.8,227h0.3l0.4-0.8h1.6l0.3,0.8h0.4l-1.4-3h-0.3L141.8,227z M142.6,225.9l0.7-1.5
		l0.7,1.5H142.6z"/>
	<path display="inline" fill="#160505" d="M145.8,227h0.3l1-2.2h-0.4l-0.7,1.8l-0.7-1.8h-0.4L145.8,227z"/>
	<path display="inline" fill="#160505" d="M147.6,226h1.7c0-0.1,0-0.1,0-0.1c0-0.6-0.4-1.2-1-1.2s-1.1,0.5-1.1,1.1
		c0,0.7,0.5,1.1,1.1,1.1c0.4,0,0.7-0.2,0.9-0.4l-0.2-0.2c-0.2,0.2-0.4,0.3-0.7,0.3C148,226.7,147.7,226.5,147.6,226z M147.6,225.7
		c0-0.4,0.3-0.7,0.7-0.7s0.7,0.3,0.7,0.7H147.6z"/>
	<path display="inline" fill="#160505" d="M149.9,227h0.3v-0.9c0-0.7,0.4-1,0.9-1l0,0v-0.4c-0.4,0-0.7,0.2-0.9,0.6v-0.6h-0.3V227z"
		/>
	<path display="inline" fill="#160505" d="M152.2,227c0.4,0,0.6-0.2,0.8-0.4v0.3h0.3v-1.3c0-0.3-0.1-0.5-0.2-0.6
		c-0.2-0.2-0.4-0.2-0.7-0.2s-0.6,0.1-0.8,0.2l0.1,0.3c0.2-0.1,0.4-0.2,0.7-0.2c0.4,0,0.6,0.2,0.6,0.6v0.1c-0.2-0.1-0.4-0.1-0.7-0.1
		c-0.6,0-0.9,0.2-0.9,0.7l0,0C151.4,226.8,151.8,227,152.2,227z M152.3,226.8c-0.3,0-0.6-0.2-0.6-0.4l0,0c0-0.3,0.2-0.4,0.6-0.4
		c0.3,0,0.5,0,0.6,0.1v0.2C153,226.5,152.7,226.8,152.3,226.8z"/>
	<path display="inline" fill="#160505" d="M155,227.7c0.3,0,0.6-0.1,0.8-0.3s0.3-0.4,0.3-0.8v-1.8h-0.3v0.4
		c-0.2-0.2-0.4-0.4-0.9-0.4s-1,0.4-1,1l0,0c0,0.6,0.5,1,1,1c0.4,0,0.7-0.2,0.9-0.5v0.3c0,0.5-0.3,0.8-0.8,0.8
		c-0.3,0-0.6-0.1-0.8-0.3l-0.1,0.3C154.3,227.6,154.6,227.7,155,227.7z M155,226.5c-0.4,0-0.8-0.3-0.8-0.7l0,0
		c0-0.5,0.3-0.7,0.8-0.7c0.4,0,0.8,0.3,0.8,0.7l0,0C155.8,226.2,155.4,226.5,155,226.5z"/>
	<path display="inline" fill="#160505" d="M157,226h1.7c0-0.1,0-0.1,0-0.1c0-0.6-0.4-1.2-1-1.2s-1.1,0.5-1.1,1.1
		c0,0.7,0.5,1.1,1.1,1.1c0.4,0,0.7-0.2,0.9-0.4l-0.2-0.2c-0.2,0.2-0.4,0.3-0.7,0.3C157.4,226.7,157.1,226.5,157,226z M157,225.7
		c0-0.4,0.3-0.7,0.7-0.7s0.7,0.3,0.7,0.7H157z"/>
	<path display="inline" fill="#160505" d="M160.7,227h2.2v-0.3H161v-1h1.6v-0.3H161v-1h1.8V224h-2.1V227z"/>
	<path display="inline" fill="#160505" d="M166.2,227.1l0.2-0.3l-0.4-0.3c0.2-0.3,0.4-0.6,0.4-1l0,0c0-0.8-0.6-1.5-1.5-1.5
		s-1.5,0.7-1.5,1.5l0,0c0,0.8,0.6,1.5,1.5,1.5c0.4,0,0.7-0.1,0.9-0.3L166.2,227.1z M164.9,226.7c-0.7,0-1.2-0.6-1.2-1.2l0,0
		c0-0.7,0.5-1.2,1.2-1.2s1.2,0.6,1.2,1.2l0,0c0,0.3-0.1,0.6-0.3,0.8l-0.5-0.5l-0.2,0.3l0.6,0.5C165.4,226.6,165.2,226.7,164.9,226.7
		z"/>
	<path display="inline" fill="#160505" d="M13.2,233.1h0.3v-1h0.7c0.6,0,1.2-0.3,1.2-1l0,0c0-0.6-0.4-0.9-1.1-0.9h-1.1
		C13.2,230.2,13.2,233.1,13.2,233.1z M13.6,231.7v-1.3h0.8c0.5,0,0.8,0.2,0.8,0.6l0,0c0,0.4-0.3,0.7-0.8,0.7H13.6z"/>
	<path display="inline" fill="#160505" d="M16,233.1h0.3v-0.9c0-0.7,0.4-1,0.9-1l0,0v-0.4c-0.4,0-0.7,0.2-0.9,0.6v-0.6H16V233.1z"/>
	<path display="inline" fill="#160505" d="M17.7,230.4h0.4V230h-0.4V230.4z M17.8,233.1h0.3v-2.2h-0.3V233.1z"/>
	<path display="inline" fill="#160505" d="M19.8,233.1c0.4,0,0.7-0.2,0.9-0.4l-0.2-0.2c-0.2,0.2-0.4,0.3-0.7,0.3
		c-0.5,0-0.8-0.4-0.8-0.9l0,0c0-0.5,0.3-0.8,0.8-0.8c0.3,0,0.5,0.1,0.7,0.3l0.2-0.2c-0.2-0.2-0.5-0.4-0.9-0.4
		c-0.6,0-1.1,0.5-1.1,1.1l0,0C18.7,232.6,19.2,233.1,19.8,233.1z"/>
	<path display="inline" fill="#160505" d="M21.4,232.1h1.7c0-0.1,0-0.1,0-0.1c0-0.6-0.4-1.2-1-1.2s-1.1,0.5-1.1,1.1
		c0,0.7,0.5,1.1,1.1,1.1c0.4,0,0.7-0.2,0.9-0.4l-0.2-0.2c-0.2,0.2-0.4,0.3-0.7,0.3C21.8,232.8,21.5,232.6,21.4,232.1z M21.4,231.8
		c0-0.4,0.3-0.7,0.7-0.7c0.4,0,0.7,0.3,0.7,0.7H21.4z"/>
	<path display="inline" fill="#160505" d="M25.9,233.1c0.6,0,1.1-0.4,1.1-1l0,0c0-0.6-0.5-0.9-1-0.9c-0.2,0-0.4,0.1-0.6,0.1l0.1-1
		h1.4V230h-1.7l-0.1,1.4l0.2,0.1c0.2-0.1,0.4-0.2,0.6-0.2c0.4,0,0.7,0.3,0.7,0.6l0,0c0,0.4-0.3,0.7-0.7,0.7c-0.3,0-0.6-0.2-0.8-0.4
		l-0.2,0.2C25.1,232.9,25.5,233.1,25.9,233.1z"/>
	<path display="inline" fill="#160505" d="M27.4,233.1h2.1v-0.3h-1.6l0.8-0.7c0.5-0.5,0.8-0.7,0.8-1.2l0,0c0-0.5-0.4-0.8-0.9-0.8
		s-0.8,0.2-1.1,0.6l0.2,0.2c0.2-0.3,0.5-0.5,0.8-0.5s0.6,0.2,0.6,0.6c0,0.3-0.2,0.5-0.6,0.9l-1.1,1
		C27.4,232.9,27.4,233.1,27.4,233.1z"/>
	<path display="inline" fill="#160505" d="M32,233.1h0.3l0.6-1.7l0.6,1.7h0.3l0.8-2.2h-0.3l-0.6,1.8l-0.6-1.8h-0.3l-0.6,1.8
		l-0.6-1.8h-0.3L32,233.1z"/>
	<path display="inline" fill="#160505" d="M35.1,232.1h1.7c0-0.1,0-0.1,0-0.1c0-0.6-0.4-1.2-1-1.2s-1.1,0.5-1.1,1.1
		c0,0.7,0.5,1.1,1.1,1.1c0.4,0,0.7-0.2,0.9-0.4l-0.2-0.2c-0.2,0.2-0.4,0.3-0.7,0.3C35.5,232.8,35.2,232.6,35.1,232.1z M35.1,231.8
		c0-0.4,0.3-0.7,0.7-0.7s0.7,0.3,0.7,0.7H35.1z"/>
	<path display="inline" fill="#160505" d="M37.6,232.1h1.7c0-0.1,0-0.1,0-0.1c0-0.6-0.4-1.2-1-1.2s-1.1,0.5-1.1,1.1
		c0,0.7,0.5,1.1,1.1,1.1c0.4,0,0.7-0.2,0.9-0.4l-0.2-0.2c-0.2,0.2-0.4,0.3-0.7,0.3C38,232.8,37.7,232.6,37.6,232.1z M37.6,231.8
		c0-0.4,0.3-0.7,0.7-0.7s0.7,0.3,0.7,0.7H37.6z"/>
	<path display="inline" fill="#160505" d="M40,233.1h0.3v-0.6l0.4-0.5l0.8,1h0.4l-1-1.3l0.9-0.9h-0.4l-1.2,1.2v-2H40V233.1z"/>
	<path display="inline" fill="#160505" d="M43.1,233.1c0.4,0,0.8-0.2,0.8-0.7l0,0c0-0.4-0.4-0.5-0.7-0.6s-0.6-0.2-0.6-0.4l0,0
		c0-0.2,0.2-0.3,0.4-0.3s0.4,0.1,0.6,0.2l0.1-0.2c-0.2-0.1-0.5-0.2-0.8-0.2c-0.4,0-0.7,0.3-0.7,0.6l0,0c0,0.4,0.4,0.5,0.7,0.6
		s0.5,0.2,0.5,0.4l0,0c0,0.2-0.2,0.3-0.5,0.3s-0.5-0.1-0.8-0.3l-0.2,0.2C42.5,233,42.8,233.1,43.1,233.1z"/>
	<path display="inline" fill="#160505" d="M46,232.1h1.7c0-0.1,0-0.1,0-0.1c0-0.6-0.4-1.2-1-1.2s-1.1,0.5-1.1,1.1
		c0,0.7,0.5,1.1,1.1,1.1c0.4,0,0.7-0.2,0.9-0.4l-0.2-0.2c-0.2,0.2-0.4,0.3-0.7,0.3C46.4,232.8,46,232.6,46,232.1z M46,231.8
		c0-0.4,0.3-0.7,0.7-0.7s0.7,0.3,0.7,0.7H46z"/>
	<path display="inline" fill="#160505" d="M48.3,233.1h0.3v-1.3c0-0.4,0.3-0.7,0.7-0.7s0.6,0.3,0.6,0.7v1.3h0.3v-1.4
		c0-0.5-0.3-0.9-0.8-0.9c-0.4,0-0.6,0.2-0.8,0.4v-0.4h-0.3V233.1z"/>
	<path display="inline" fill="#160505" d="M51.8,233.1c0.4,0,0.7-0.2,0.8-0.5v0.4H53v-3h-0.3v1.3c-0.2-0.2-0.4-0.5-0.8-0.5
		c-0.5,0-1,0.4-1,1.1l0,0C50.8,232.7,51.3,233.1,51.8,233.1z M51.9,232.8c-0.4,0-0.8-0.3-0.8-0.8l0,0c0-0.5,0.3-0.8,0.8-0.8
		c0.4,0,0.8,0.3,0.8,0.8l0,0C52.7,232.5,52.3,232.8,51.9,232.8z"/>
	<path display="inline" fill="#160505" d="M53.7,230.4h0.4V230h-0.4V230.4z M53.8,233.1h0.3v-2.2h-0.3V233.1z"/>
	<path display="inline" fill="#160505" d="M54.8,233.1h0.3v-1.3c0-0.4,0.3-0.7,0.7-0.7s0.6,0.3,0.6,0.7v1.3h0.3v-1.4
		c0-0.5-0.3-0.9-0.8-0.9c-0.4,0-0.6,0.2-0.8,0.4v-0.4h-0.3V233.1z"/>
	<path display="inline" fill="#160505" d="M58.4,233.7c0.3,0,0.6-0.1,0.8-0.3s0.3-0.4,0.3-0.8v-1.8h-0.3v0.4
		c-0.2-0.2-0.4-0.4-0.9-0.4s-1,0.4-1,1l0,0c0,0.6,0.5,1,1,1c0.4,0,0.7-0.2,0.9-0.5v0.3c0,0.5-0.3,0.8-0.8,0.8
		c-0.3,0-0.6-0.1-0.8-0.3l-0.1,0.3C57.7,233.6,58.1,233.7,58.4,233.7z M58.4,232.6c-0.4,0-0.8-0.3-0.8-0.7l0,0
		c0-0.5,0.3-0.7,0.8-0.7s0.8,0.3,0.8,0.7l0,0C59.2,232.3,58.8,232.6,58.4,232.6z"/>
	<path display="inline" fill="#160505" d="M62.5,233.1c0.6,0,1.1-0.3,1.1-0.8l0,0c0-0.4-0.3-0.6-0.6-0.7c0.3-0.1,0.5-0.3,0.5-0.7
		l0,0c0-0.5-0.5-0.8-1-0.8s-1,0.3-1,0.8l0,0c0,0.3,0.2,0.6,0.5,0.7c-0.4,0.1-0.6,0.4-0.6,0.7l0,0C61.4,232.8,61.9,233.1,62.5,233.1z
		 M62.5,231.4c-0.4,0-0.7-0.2-0.7-0.5l0,0c0-0.3,0.3-0.5,0.7-0.5s0.7,0.2,0.7,0.5l0,0C63.2,231.2,62.9,231.4,62.5,231.4z
		 M62.5,232.8c-0.5,0-0.8-0.3-0.8-0.6l0,0c0-0.3,0.3-0.6,0.8-0.6s0.8,0.2,0.8,0.6l0,0C63.3,232.6,63,232.8,62.5,232.8z"/>
	<path display="inline" fill="#160505" d="M63.8,233.6h0.3l2-3.9h-0.3L63.8,233.6z"/>
	<path display="inline" fill="#160505" d="M66.1,233.1h2.1v-0.3h-1.6l0.8-0.7c0.5-0.5,0.8-0.7,0.8-1.2l0,0c0-0.5-0.4-0.8-0.9-0.8
		s-0.8,0.2-1.1,0.6l0.2,0.2c0.2-0.3,0.5-0.5,0.8-0.5s0.6,0.2,0.6,0.6c0,0.3-0.2,0.5-0.6,0.9l-1.1,1
		C66.1,232.9,66.1,233.1,66.1,233.1z"/>
	<path display="inline" fill="#160505" d="M70,233.1c0.8,0,1.3-0.7,1.3-1.5l0,0c0-0.8-0.5-1.5-1.2-1.5c-0.8,0-1.3,0.7-1.3,1.5l0,0
		C68.8,232.4,69.2,233.1,70,233.1z M70,232.8c-0.6,0-0.9-0.6-0.9-1.2l0,0c0-0.7,0.3-1.2,0.9-1.2s0.9,0.6,0.9,1.2l0,0
		C70.9,232.2,70.6,232.8,70,232.8z"/>
	<path display="inline" fill="#160505" d="M71.3,233.6h0.3l2-3.9h-0.3L71.3,233.6z"/>
	<path display="inline" fill="#160505" d="M74.3,233.1h0.3v-3h-0.2l-0.7,0.3l0.1,0.3l0.6-0.2v2.6L74.3,233.1L74.3,233.1z"/>
	<path display="inline" fill="#160505" d="M76.5,233.1c0.6,0,1.1-0.4,1.1-1l0,0c0-0.6-0.5-0.9-1-0.9c-0.4,0-0.7,0.2-0.8,0.5
		c0-0.8,0.3-1.3,0.9-1.3c0.3,0,0.5,0.1,0.7,0.3l0.2-0.3c-0.3-0.2-0.5-0.3-0.9-0.3c-0.8,0-1.2,0.7-1.2,1.6l0,0c0,0.6,0.1,0.9,0.4,1.2
		C75.9,233,76.2,233.1,76.5,233.1z M76.5,232.8c-0.4,0-0.8-0.3-0.8-0.7l0,0c0-0.3,0.3-0.6,0.7-0.6c0.4,0,0.7,0.3,0.7,0.6l0,0
		C77.2,232.5,77,232.8,76.5,232.8z"/>
	<path display="inline" fill="#160505" d="M78.2,233.1h0.4v-0.4h-0.4V233.1z"/>
	<path display="inline" fill="#160505" d="M81.9,233.1c0.9,0,1.5-0.7,1.5-1.5l0,0c0-0.8-0.7-1.5-1.5-1.5c-0.9,0-1.5,0.7-1.5,1.5l0,0
		C80.4,232.4,81.1,233.1,81.9,233.1z M81.9,233c-0.8,0-1.4-0.6-1.4-1.4l0,0c0-0.8,0.6-1.4,1.4-1.4s1.4,0.6,1.4,1.4l0,0
		C83.3,232.3,82.7,233,81.9,233z M81.9,232.4c0.3,0,0.5-0.1,0.6-0.3l-0.2-0.1c-0.1,0.1-0.3,0.2-0.5,0.2c-0.3,0-0.6-0.3-0.6-0.6l0,0
		c0-0.3,0.2-0.6,0.6-0.6c0.2,0,0.3,0.1,0.5,0.2l0.2-0.2c-0.2-0.1-0.3-0.3-0.6-0.3c-0.5,0-0.8,0.4-0.8,0.8l0,0
		C81.2,232,81.5,232.4,81.9,232.4z"/>
	<path display="inline" fill="#160505" d="M83.9,233.1H86v-0.3h-1.6l0.8-0.7c0.5-0.5,0.8-0.7,0.8-1.2l0,0c0-0.5-0.4-0.8-0.9-0.8
		s-0.8,0.2-1.1,0.6l0.2,0.2c0.2-0.3,0.5-0.5,0.8-0.5s0.6,0.2,0.6,0.6c0,0.3-0.2,0.5-0.6,0.9l-1.1,1
		C83.9,232.9,83.9,233.1,83.9,233.1z"/>
	<path display="inline" fill="#160505" d="M87.8,233.1c0.8,0,1.3-0.7,1.3-1.5l0,0c0-0.8-0.5-1.5-1.2-1.5c-0.8,0-1.3,0.7-1.3,1.5l0,0
		C86.5,232.4,87,233.1,87.8,233.1z M87.8,232.8c-0.6,0-0.9-0.6-0.9-1.2l0,0c0-0.7,0.3-1.2,0.9-1.2s0.9,0.6,0.9,1.2l0,0
		C88.7,232.2,88.3,232.8,87.8,232.8z"/>
	<path display="inline" fill="#160505" d="M90,233.1h0.3v-3h-0.2l-0.7,0.3l0.1,0.3l0.6-0.2v2.6L90,233.1L90,233.1z"/>
	<path display="inline" fill="#160505" d="M92.2,233.1c0.6,0,1.1-0.4,1.1-1l0,0c0-0.6-0.5-0.9-1-0.9c-0.4,0-0.7,0.2-0.8,0.5
		c0-0.8,0.3-1.3,0.9-1.3c0.3,0,0.5,0.1,0.7,0.3l0.2-0.3c-0.3-0.2-0.5-0.3-0.9-0.3c-0.8,0-1.2,0.7-1.2,1.6l0,0c0,0.6,0.1,0.9,0.4,1.2
		C91.6,233,91.9,233.1,92.2,233.1z M92.2,232.8c-0.4,0-0.8-0.3-0.8-0.7l0,0c0-0.3,0.3-0.6,0.7-0.6c0.4,0,0.7,0.3,0.7,0.6l0,0
		C92.9,232.5,92.6,232.8,92.2,232.8z"/>
	<path display="inline" fill="#160505" d="M95.2,233.1h0.3v-1.2h0.8l0,0l0.9,1.2h0.4l-0.9-1.2c0.5-0.1,0.8-0.4,0.8-0.9l0,0
		c0-0.2-0.1-0.4-0.2-0.6c-0.2-0.2-0.5-0.3-0.8-0.3h-1.3C95.2,230.1,95.2,233.1,95.2,233.1z M95.6,231.6v-1.2h0.9
		c0.5,0,0.8,0.2,0.8,0.6l0,0c0,0.4-0.3,0.6-0.8,0.6L95.6,231.6L95.6,231.6z"/>
	<path display="inline" fill="#160505" d="M98.4,232.1h1.7c0-0.1,0-0.1,0-0.1c0-0.6-0.4-1.2-1-1.2s-1.1,0.5-1.1,1.1
		c0,0.7,0.5,1.1,1.1,1.1c0.4,0,0.7-0.2,0.9-0.4l-0.2-0.2c-0.2,0.2-0.4,0.3-0.7,0.3C98.8,232.8,98.4,232.6,98.4,232.1z M98.4,231.8
		c0-0.4,0.3-0.7,0.7-0.7c0.4,0,0.7,0.3,0.7,0.7H98.4z"/>
	<path display="inline" fill="#160505" d="M100.9,233.8c0.3,0,0.5-0.2,0.7-0.6l0.9-2.3h-0.3l-0.7,1.8l-0.8-1.8h-0.4l1,2.2
		c-0.1,0.3-0.3,0.4-0.5,0.4c-0.1,0-0.2,0-0.3-0.1l-0.1,0.3C100.6,233.7,100.8,233.8,100.9,233.8z"/>
	<path display="inline" fill="#160505" d="M103.1,233.1h0.3v-1.3c0-0.4,0.3-0.7,0.7-0.7c0.4,0,0.6,0.3,0.6,0.7v1.3h0.3v-1.4
		c0-0.5-0.3-0.9-0.8-0.9c-0.4,0-0.6,0.2-0.8,0.4v-0.4h-0.3C103.1,230.8,103.1,233.1,103.1,233.1z"/>
	<path display="inline" fill="#160505" d="M106.7,233.1c0.7,0,1.2-0.5,1.2-1.1l0,0c0-0.6-0.5-1.1-1.1-1.1c-0.7,0-1.1,0.5-1.1,1.1
		l0,0C105.6,232.6,106.1,233.1,106.7,233.1z M106.7,232.8c-0.5,0-0.8-0.4-0.8-0.9l0,0c0-0.5,0.3-0.8,0.8-0.8s0.8,0.4,0.8,0.9l0,0
		C107.5,232.4,107.2,232.8,106.7,232.8z"/>
	<path display="inline" fill="#160505" d="M108.5,233.1h0.3V230h-0.3V233.1z"/>
	<path display="inline" fill="#160505" d="M110.5,233.1c0.4,0,0.7-0.2,0.8-0.5v0.4h0.3v-3h-0.3v1.3c-0.2-0.2-0.4-0.5-0.8-0.5
		c-0.5,0-1,0.4-1,1.1l0,0C109.5,232.7,110,233.1,110.5,233.1z M110.6,232.8c-0.4,0-0.8-0.3-0.8-0.8l0,0c0-0.5,0.3-0.8,0.8-0.8
		c0.4,0,0.8,0.3,0.8,0.8l0,0C111.4,232.5,111,232.8,110.6,232.8z"/>
	<path display="inline" fill="#160505" d="M113.1,233.1c0.4,0,0.8-0.2,0.8-0.7l0,0c0-0.4-0.4-0.5-0.7-0.6c-0.3-0.1-0.6-0.2-0.6-0.4
		l0,0c0-0.2,0.2-0.3,0.4-0.3c0.2,0,0.4,0.1,0.6,0.2l0.1-0.2c-0.2-0.1-0.5-0.2-0.8-0.2c-0.4,0-0.7,0.3-0.7,0.6l0,0
		c0,0.4,0.4,0.5,0.7,0.6c0.3,0.1,0.5,0.2,0.5,0.4l0,0c0,0.2-0.2,0.3-0.5,0.3s-0.5-0.1-0.8-0.3l-0.2,0.2
		C112.5,233,112.8,233.1,113.1,233.1z"/>
	<path display="inline" fill="#160505" d="M117.2,233.1c0.5,0,0.9-0.2,1.2-0.5l-0.2-0.2c-0.3,0.3-0.6,0.4-1,0.4
		c-0.7,0-1.2-0.5-1.2-1.2l0,0c0-0.7,0.5-1.2,1.2-1.2c0.4,0,0.7,0.2,0.9,0.4l0.2-0.2c-0.3-0.3-0.6-0.5-1.2-0.5
		c-0.9,0-1.5,0.7-1.5,1.5l0,0C115.7,232.4,116.4,233.1,117.2,233.1z"/>
	<path display="inline" fill="#160505" d="M119.9,233.1c0.7,0,1.2-0.5,1.2-1.1l0,0c0-0.6-0.5-1.1-1.1-1.1c-0.7,0-1.1,0.5-1.1,1.1
		l0,0C118.8,232.6,119.2,233.1,119.9,233.1z M119.9,232.8c-0.5,0-0.8-0.4-0.8-0.9l0,0c0-0.5,0.3-0.8,0.8-0.8s0.8,0.4,0.8,0.9l0,0
		C120.7,232.4,120.4,232.8,119.9,232.8z"/>
	<path display="inline" fill="#160505" d="M121.6,233.1h0.3v-1.3c0-0.4,0.3-0.7,0.7-0.7c0.4,0,0.6,0.3,0.6,0.7v1.3h0.3v-1.4
		c0-0.5-0.3-0.9-0.8-0.9c-0.4,0-0.6,0.2-0.8,0.4v-0.4h-0.3C121.6,230.8,121.6,233.1,121.6,233.1z"/>
	<path display="inline" fill="#160505" d="M125,233.1c0.4,0,0.8-0.2,0.8-0.7l0,0c0-0.4-0.4-0.5-0.7-0.6c-0.3-0.1-0.6-0.2-0.6-0.4
		l0,0c0-0.2,0.2-0.3,0.4-0.3c0.2,0,0.4,0.1,0.6,0.2l0.1-0.2c-0.2-0.1-0.5-0.2-0.8-0.2c-0.4,0-0.7,0.3-0.7,0.6l0,0
		c0,0.4,0.4,0.5,0.7,0.6c0.3,0.1,0.5,0.2,0.5,0.4l0,0c0,0.2-0.2,0.3-0.5,0.3s-0.5-0.1-0.8-0.3l-0.2,0.2
		C124.3,233,124.7,233.1,125,233.1z"/>
	<path display="inline" fill="#160505" d="M127.2,233.1c0.4,0,0.6-0.2,0.8-0.4v0.4h0.3v-2.2H128v1.3c0,0.4-0.3,0.7-0.7,0.7
		c-0.4,0-0.6-0.3-0.6-0.7v-1.3h-0.3v1.4C126.3,232.7,126.6,233.1,127.2,233.1z"/>
	<path display="inline" fill="#160505" d="M129,233.1h0.3v-1.3c0-0.4,0.3-0.7,0.6-0.7s0.6,0.2,0.6,0.7v1.3h0.3v-1.3
		c0-0.4,0.3-0.7,0.6-0.7c0.4,0,0.6,0.2,0.6,0.7v1.3h0.3v-1.4c0-0.5-0.3-0.9-0.8-0.9c-0.4,0-0.6,0.2-0.8,0.4
		c-0.1-0.2-0.3-0.4-0.7-0.4s-0.6,0.2-0.7,0.4v-0.4H129V233.1z"/>
	<path display="inline" fill="#160505" d="M133.2,232.1h1.7c0-0.1,0-0.1,0-0.1c0-0.6-0.4-1.2-1-1.2s-1.1,0.5-1.1,1.1
		c0,0.7,0.5,1.1,1.1,1.1c0.4,0,0.7-0.2,0.9-0.4l-0.2-0.2c-0.2,0.2-0.4,0.3-0.7,0.3C133.6,232.8,133.3,232.6,133.2,232.1z
		 M133.2,231.8c0-0.4,0.3-0.7,0.7-0.7s0.7,0.3,0.7,0.7H133.2z"/>
	<path display="inline" fill="#160505" d="M135.5,233.1h0.3v-0.9c0-0.7,0.4-1,0.9-1l0,0v-0.4c-0.4,0-0.7,0.2-0.9,0.6v-0.6h-0.3
		V233.1z"/>
	<path display="inline" fill="#160505" d="M138.6,233.1h0.3v-1h0.7c0.6,0,1.2-0.3,1.2-1l0,0c0-0.6-0.4-0.9-1.1-0.9h-1.1L138.6,233.1
		L138.6,233.1z M138.9,231.7v-1.3h0.8c0.5,0,0.8,0.2,0.8,0.6l0,0c0,0.4-0.3,0.7-0.8,0.7H138.9z"/>
	<path display="inline" fill="#160505" d="M141.4,233.1h0.3v-0.9c0-0.7,0.4-1,0.9-1l0,0v-0.4c-0.4,0-0.7,0.2-0.9,0.6v-0.6h-0.3
		V233.1z"/>
	<path display="inline" fill="#160505" d="M144,233.1c0.7,0,1.2-0.5,1.2-1.1l0,0c0-0.6-0.5-1.1-1.1-1.1c-0.7,0-1.1,0.5-1.1,1.1l0,0
		C142.9,232.6,143.3,233.1,144,233.1z M144,232.8c-0.5,0-0.8-0.4-0.8-0.9l0,0c0-0.5,0.3-0.8,0.8-0.8s0.8,0.4,0.8,0.9l0,0
		C144.8,232.4,144.5,232.8,144,232.8z"/>
	<path display="inline" fill="#160505" d="M146.7,233.1c0.4,0,0.7-0.2,0.8-0.5v0.4h0.3v-3h-0.3v1.3c-0.2-0.2-0.4-0.5-0.8-0.5
		c-0.5,0-1,0.4-1,1.1l0,0C145.6,232.7,146.1,233.1,146.7,233.1z M146.7,232.8c-0.4,0-0.8-0.3-0.8-0.8l0,0c0-0.5,0.3-0.8,0.8-0.8
		c0.4,0,0.8,0.3,0.8,0.8l0,0C147.5,232.5,147.1,232.8,146.7,232.8z"/>
	<path display="inline" fill="#160505" d="M149.4,233.1c0.4,0,0.6-0.2,0.8-0.4v0.4h0.3v-2.2h-0.3v1.3c0,0.4-0.3,0.7-0.7,0.7
		s-0.6-0.3-0.6-0.7v-1.3h-0.3v1.4C148.5,232.7,148.8,233.1,149.4,233.1z"/>
	<path display="inline" fill="#160505" d="M152.2,233.1c0.4,0,0.7-0.2,0.9-0.4l-0.2-0.2c-0.2,0.2-0.4,0.3-0.7,0.3
		c-0.5,0-0.8-0.4-0.8-0.9l0,0c0-0.5,0.3-0.8,0.8-0.8c0.3,0,0.5,0.1,0.7,0.3l0.2-0.2c-0.2-0.2-0.5-0.4-0.9-0.4
		c-0.6,0-1.1,0.5-1.1,1.1l0,0C151.1,232.6,151.5,233.1,152.2,233.1z"/>
	<path display="inline" fill="#160505" d="M154.3,233.1c0.2,0,0.3,0,0.4-0.1v-0.3c-0.1,0.1-0.2,0.1-0.3,0.1c-0.2,0-0.4-0.1-0.4-0.4
		v-1.3h0.7v-0.3H154v-0.7h-0.3v0.7h-0.3v0.3h0.3v1.3C153.7,232.9,154,233.1,154.3,233.1z"/>
	<path display="inline" fill="#160505" d="M156.1,233.1c0.4,0,0.8-0.2,0.8-0.7l0,0c0-0.4-0.4-0.5-0.7-0.6s-0.6-0.2-0.6-0.4l0,0
		c0-0.2,0.2-0.3,0.4-0.3s0.4,0.1,0.6,0.2l0.1-0.2c-0.2-0.1-0.5-0.2-0.8-0.2c-0.4,0-0.7,0.3-0.7,0.6l0,0c0,0.4,0.4,0.5,0.7,0.6
		s0.5,0.2,0.5,0.4l0,0c0,0.2-0.2,0.3-0.5,0.3s-0.5-0.1-0.8-0.3l-0.2,0.2C155.4,233,155.7,233.1,156.1,233.1z"/>
	<path display="inline" fill="#160505" d="M158.8,233.1h2v-0.3h-1.7v-2.7h-0.3V233.1z"/>
	<path display="inline" fill="#160505" d="M161.4,233.1h2v-0.3h-1.7v-2.7h-0.3V233.1z"/>
	<path display="inline" fill="#160505" d="M165.2,233.1c0.5,0,0.9-0.2,1.2-0.5l-0.2-0.2c-0.3,0.3-0.6,0.4-1,0.4
		c-0.7,0-1.2-0.5-1.2-1.2l0,0c0-0.7,0.5-1.2,1.2-1.2c0.4,0,0.7,0.2,0.9,0.4l0.2-0.2c-0.3-0.3-0.6-0.5-1.2-0.5
		c-0.9,0-1.5,0.7-1.5,1.5l0,0C163.7,232.4,164.4,233.1,165.2,233.1z"/>
	<path display="inline" fill="#160505" d="M166.9,233.1h0.4v-0.4h-0.4V233.1z"/>
	<path display="inline" fill="#160505" d="M29.8,239.1h2.4v-0.3h-1.9l1.9-2.4v-0.2h-2.3v0.3h1.9l-1.9,2.4v0.2H29.8z"/>
	<path display="inline" fill="#160505" d="M32.9,236.5h0.4v-0.4h-0.4V236.5z M32.9,239.1h0.3v-2.2h-0.3V239.1z"/>
	<path display="inline" fill="#160505" d="M34,239.8h0.3v-1.1c0.2,0.2,0.4,0.5,0.8,0.5c0.5,0,1-0.4,1-1.1l0,0c0-0.7-0.5-1.1-1-1.1
		c-0.4,0-0.7,0.2-0.8,0.5v-0.4H34V239.8z M35.1,238.9c-0.4,0-0.8-0.3-0.8-0.8l0,0c0-0.5,0.4-0.8,0.8-0.8c0.4,0,0.8,0.3,0.8,0.8l0,0
		C35.9,238.6,35.5,238.9,35.1,238.9z"/>
	<path display="inline" fill="#160505" d="M36.8,239.1h0.3V236h-0.3V239.1z"/>
	<path display="inline" fill="#160505" d="M38.9,239.2c0.7,0,1.2-0.5,1.2-1.1l0,0c0-0.6-0.5-1.1-1.1-1.1c-0.7,0-1.1,0.5-1.1,1.1l0,0
		C37.8,238.7,38.3,239.2,38.9,239.2z M38.9,238.9c-0.5,0-0.8-0.4-0.8-0.9l0,0c0-0.5,0.3-0.8,0.8-0.8s0.8,0.4,0.8,0.9l0,0
		C39.7,238.5,39.4,238.9,38.9,238.9z"/>
	<path display="inline" fill="#160505" d="M41.6,239.2c0.4,0,0.7-0.2,0.9-0.4l-0.2-0.2c-0.2,0.2-0.4,0.3-0.7,0.3
		c-0.5,0-0.8-0.4-0.8-0.9l0,0c0-0.5,0.3-0.8,0.8-0.8c0.3,0,0.5,0.1,0.7,0.3l0.2-0.2c-0.2-0.2-0.5-0.4-0.9-0.4
		c-0.6,0-1.1,0.5-1.1,1.1l0,0C40.5,238.7,41,239.2,41.6,239.2z"/>
	<path display="inline" fill="#160505" d="M44.5,239.2c0.9,0,1.5-0.7,1.5-1.5l0,0c0-0.8-0.7-1.5-1.5-1.5c-0.9,0-1.5,0.7-1.5,1.5l0,0
		C42.9,238.5,43.6,239.2,44.5,239.2z M44.5,239.1c-0.8,0-1.4-0.6-1.4-1.4l0,0c0-0.8,0.6-1.4,1.4-1.4c0.8,0,1.4,0.6,1.4,1.4l0,0
		C45.9,238.4,45.3,239.1,44.5,239.1z M43.9,238.4h0.2v-0.6h0.4l0,0l0.5,0.6h0.3l-0.5-0.6c0.2-0.1,0.4-0.2,0.4-0.5l0,0
		c0-0.1-0.1-0.2-0.1-0.3c-0.1-0.1-0.3-0.2-0.5-0.2h-0.7C43.9,236.8,43.9,238.4,43.9,238.4z M44.1,237.6V237h0.5
		c0.2,0,0.4,0.1,0.4,0.3l0,0c0,0.2-0.2,0.3-0.4,0.3H44.1z"/>
	<path display="inline" fill="#160505" d="M47.9,236.5h0.4v-0.4h-0.4V236.5z M47.9,239.1h0.3v-2.2h-0.3V239.1z"/>
	<path display="inline" fill="#160505" d="M49.7,239.2c0.4,0,0.8-0.2,0.8-0.7l0,0c0-0.4-0.4-0.5-0.7-0.6s-0.6-0.2-0.6-0.4l0,0
		c0-0.2,0.2-0.3,0.4-0.3s0.4,0.1,0.6,0.2l0.1-0.2c-0.2-0.1-0.5-0.2-0.8-0.2c-0.4,0-0.7,0.3-0.7,0.6l0,0c0,0.4,0.4,0.5,0.7,0.6
		s0.5,0.2,0.5,0.4l0,0c0,0.2-0.2,0.3-0.5,0.3s-0.5-0.1-0.8-0.3l-0.2,0.2C49.1,239.1,49.4,239.2,49.7,239.2z"/>
	<path display="inline" fill="#160505" d="M53,239.2c0.4,0,0.6-0.2,0.8-0.4v0.3h0.3v-1.3c0-0.3-0.1-0.5-0.2-0.6
		c-0.2-0.2-0.4-0.2-0.7-0.2s-0.6,0.1-0.8,0.2l0.1,0.3c0.2-0.1,0.4-0.2,0.7-0.2c0.4,0,0.6,0.2,0.6,0.6v0.1c-0.2-0.1-0.4-0.1-0.7-0.1
		c-0.6,0-0.9,0.2-0.9,0.7l0,0C52.2,239,52.6,239.2,53,239.2z M53.1,238.9c-0.3,0-0.6-0.2-0.6-0.4l0,0c0-0.3,0.2-0.4,0.6-0.4
		c0.3,0,0.5,0,0.6,0.1v0.2C53.8,238.7,53.5,238.9,53.1,238.9z"/>
	<path display="inline" fill="#160505" d="M56.1,239.1h0.3v-0.9c0-0.7,0.4-1,0.9-1l0,0v-0.4c-0.4,0-0.7,0.2-0.9,0.6v-0.6h-0.3V239.1
		z"/>
	<path display="inline" fill="#160505" d="M58,238.2h1.7c0-0.1,0-0.1,0-0.1c0-0.6-0.4-1.2-1-1.2s-1.1,0.5-1.1,1.1
		c0,0.7,0.5,1.1,1.1,1.1c0.4,0,0.7-0.2,0.9-0.4l-0.2-0.2c-0.2,0.2-0.4,0.3-0.7,0.3C58.3,238.9,58,238.6,58,238.2z M58,237.9
		c0-0.4,0.3-0.7,0.7-0.7s0.7,0.3,0.7,0.7H58z"/>
	<path display="inline" fill="#160505" d="M61,239.2c0.4,0,0.8-0.2,0.8-0.7l0,0c0-0.4-0.4-0.5-0.7-0.6s-0.6-0.2-0.6-0.4l0,0
		c0-0.2,0.2-0.3,0.4-0.3s0.4,0.1,0.6,0.2l0.1-0.2c-0.2-0.1-0.5-0.2-0.8-0.2c-0.4,0-0.7,0.3-0.7,0.6l0,0c0,0.4,0.4,0.5,0.7,0.6
		s0.5,0.2,0.5,0.4l0,0c0,0.2-0.2,0.3-0.5,0.3s-0.5-0.1-0.8-0.3l-0.2,0.2C60.3,239.1,60.7,239.2,61,239.2z"/>
	<path display="inline" fill="#160505" d="M62.4,236.5h0.4v-0.4h-0.4V236.5z M62.4,239.1h0.3v-2.2h-0.3V239.1z"/>
	<path display="inline" fill="#160505" d="M64.2,239.2c0.4,0,0.8-0.2,0.8-0.7l0,0c0-0.4-0.4-0.5-0.7-0.6c-0.3-0.1-0.6-0.2-0.6-0.4
		l0,0c0-0.2,0.2-0.3,0.4-0.3c0.2,0,0.4,0.1,0.6,0.2l0.1-0.2c-0.2-0.1-0.5-0.2-0.8-0.2c-0.4,0-0.7,0.3-0.7,0.6l0,0
		c0,0.4,0.4,0.5,0.7,0.6c0.3,0.1,0.5,0.2,0.5,0.4l0,0c0,0.2-0.2,0.3-0.5,0.3c-0.3,0-0.5-0.1-0.8-0.3l-0.2,0.2
		C63.6,239.1,63.9,239.2,64.2,239.2z"/>
	<path display="inline" fill="#160505" d="M66.3,239.2c0.2,0,0.3,0,0.4-0.1v-0.3c-0.1,0.1-0.2,0.1-0.3,0.1c-0.2,0-0.4-0.1-0.4-0.4
		v-1.3h0.7v-0.3H66v-0.7h-0.3v0.7h-0.3v0.3h0.3v1.3C65.7,239,66,239.2,66.3,239.2z"/>
	<path display="inline" fill="#160505" d="M67.4,238.2h1.7c0-0.1,0-0.1,0-0.1c0-0.6-0.4-1.2-1-1.2S67,237.4,67,238
		c0,0.7,0.5,1.1,1.1,1.1c0.4,0,0.7-0.2,0.9-0.4l-0.2-0.2c-0.2,0.2-0.4,0.3-0.7,0.3C67.8,238.9,67.5,238.6,67.4,238.2z M67.4,237.9
		c0-0.4,0.3-0.7,0.7-0.7c0.4,0,0.7,0.3,0.7,0.7H67.4z"/>
	<path display="inline" fill="#160505" d="M70.7,239.2c0.4,0,0.7-0.2,0.8-0.5v0.4h0.3V236h-0.3v1.3c-0.2-0.2-0.4-0.5-0.8-0.5
		c-0.5,0-1,0.4-1,1.1l0,0C69.6,238.8,70.1,239.2,70.7,239.2z M70.7,238.9c-0.4,0-0.8-0.3-0.8-0.8l0,0c0-0.5,0.3-0.8,0.8-0.8
		c0.4,0,0.8,0.3,0.8,0.8l0,0C71.5,238.6,71.1,238.9,70.7,238.9z"/>
	<path display="inline" fill="#160505" d="M74.6,239.2c0.2,0,0.3,0,0.4-0.1v-0.3c-0.1,0.1-0.2,0.1-0.3,0.1c-0.2,0-0.4-0.1-0.4-0.4
		v-1.3H75v-0.3h-0.7v-0.7H74v0.7h-0.3v0.3H74v1.3C74,239,74.2,239.2,74.6,239.2z"/>
	<path display="inline" fill="#160505" d="M75.6,239.1h0.3v-0.9c0-0.7,0.4-1,0.9-1l0,0v-0.4c-0.4,0-0.7,0.2-0.9,0.6v-0.6h-0.3V239.1
		z"/>
	<path display="inline" fill="#160505" d="M77.8,239.2c0.4,0,0.6-0.2,0.8-0.4v0.3h0.3v-1.3c0-0.3-0.1-0.5-0.2-0.6
		c-0.2-0.2-0.4-0.2-0.7-0.2c-0.3,0-0.6,0.1-0.8,0.2l0.1,0.3c0.2-0.1,0.4-0.2,0.7-0.2c0.4,0,0.6,0.2,0.6,0.6v0.1
		c-0.2-0.1-0.4-0.1-0.7-0.1c-0.6,0-0.9,0.2-0.9,0.7l0,0C77,239,77.4,239.2,77.8,239.2z M77.9,238.9c-0.3,0-0.6-0.2-0.6-0.4l0,0
		c0-0.3,0.2-0.4,0.6-0.4c0.3,0,0.5,0,0.6,0.1v0.2C78.6,238.7,78.3,238.9,77.9,238.9z"/>
	<path display="inline" fill="#160505" d="M80.6,239.2c0.4,0,0.7-0.2,0.8-0.5v0.4h0.3V236h-0.3v1.3c-0.2-0.2-0.4-0.5-0.8-0.5
		c-0.5,0-1,0.4-1,1.1l0,0C79.5,238.8,80,239.2,80.6,239.2z M80.6,238.9c-0.4,0-0.8-0.3-0.8-0.8l0,0c0-0.5,0.3-0.8,0.8-0.8
		c0.4,0,0.8,0.3,0.8,0.8l0,0C81.4,238.6,81,238.9,80.6,238.9z"/>
	<path display="inline" fill="#160505" d="M82.6,238.2h1.7c0-0.1,0-0.1,0-0.1c0-0.6-0.4-1.2-1-1.2s-1.1,0.5-1.1,1.1
		c0,0.7,0.5,1.1,1.1,1.1c0.4,0,0.7-0.2,0.9-0.4l-0.2-0.2c-0.2,0.2-0.4,0.3-0.7,0.3C83,238.9,82.7,238.6,82.6,238.2z M82.6,237.9
		c0-0.4,0.3-0.7,0.7-0.7c0.4,0,0.7,0.3,0.7,0.7H82.6z"/>
	<path display="inline" fill="#160505" d="M85,239.1h0.3v-1.3c0-0.4,0.3-0.7,0.6-0.7c0.3,0,0.6,0.2,0.6,0.7v1.3h0.3v-1.3
		c0-0.4,0.3-0.7,0.6-0.7c0.4,0,0.6,0.2,0.6,0.7v1.3h0.3v-1.4c0-0.5-0.3-0.9-0.8-0.9c-0.4,0-0.6,0.2-0.8,0.4
		c-0.1-0.2-0.3-0.4-0.7-0.4c-0.4,0-0.6,0.2-0.7,0.4v-0.4H85V239.1z"/>
	<path display="inline" fill="#160505" d="M89.7,239.2c0.4,0,0.6-0.2,0.8-0.4v0.3h0.3v-1.3c0-0.3-0.1-0.5-0.2-0.6
		c-0.2-0.2-0.4-0.2-0.7-0.2c-0.3,0-0.6,0.1-0.8,0.2l0.1,0.3c0.2-0.1,0.4-0.2,0.7-0.2c0.4,0,0.6,0.2,0.6,0.6v0.1
		c-0.2-0.1-0.4-0.1-0.7-0.1c-0.6,0-0.9,0.2-0.9,0.7l0,0C88.8,239,89.2,239.2,89.7,239.2z M89.7,238.9c-0.3,0-0.6-0.2-0.6-0.4l0,0
		c0-0.3,0.2-0.4,0.6-0.4c0.3,0,0.5,0,0.6,0.1v0.2C90.5,238.7,90.1,238.9,89.7,238.9z"/>
	<path display="inline" fill="#160505" d="M91.5,239.1h0.3v-0.9c0-0.7,0.4-1,0.9-1l0,0v-0.4c-0.4,0-0.7,0.2-0.9,0.6v-0.6h-0.3V239.1
		z"/>
	<path display="inline" fill="#160505" d="M93.2,239.1h0.3v-0.6l0.4-0.5l0.8,1h0.4l-1-1.3l0.9-0.9h-0.4l-1.2,1.2v-2h-0.3L93.2,239.1
		L93.2,239.1z"/>
	<path display="inline" fill="#160505" d="M97.9,239.2c0.7,0,1.2-0.5,1.2-1.1l0,0c0-0.6-0.5-1.1-1.1-1.1c-0.7,0-1.1,0.5-1.1,1.1l0,0
		C96.7,238.7,97.2,239.2,97.9,239.2z M97.9,238.9c-0.5,0-0.8-0.4-0.8-0.9l0,0c0-0.5,0.3-0.8,0.8-0.8s0.8,0.4,0.8,0.9l0,0
		C98.7,238.5,98.4,238.9,97.9,238.9z"/>
	<path display="inline" fill="#160505" d="M99.7,239.1h0.3v-1.9h0.7V237H100v-0.2c0-0.3,0.1-0.5,0.4-0.5c0.1,0,0.2,0,0.3,0.1v-0.3
		c-0.1,0-0.2-0.1-0.4-0.1c-0.2,0-0.4,0.1-0.5,0.2c-0.1,0.1-0.2,0.3-0.2,0.6v0.2h-0.3v0.3h0.3L99.7,239.1L99.7,239.1z"/>
	<path display="inline" fill="#160505" d="M103.5,239.2c0.6,0,1-0.3,1-0.8l0,0c0-0.5-0.3-0.7-1-0.8s-0.8-0.3-0.8-0.6l0,0
		c0-0.3,0.2-0.5,0.6-0.5c0.3,0,0.6,0.1,0.9,0.3l0.2-0.3c-0.3-0.2-0.6-0.4-1-0.4c-0.6,0-1,0.3-1,0.8l0,0c0,0.5,0.3,0.7,1,0.9
		c0.6,0.1,0.8,0.3,0.8,0.6l0,0c0,0.3-0.3,0.5-0.7,0.5c-0.4,0-0.7-0.1-1-0.4l-0.2,0.2C102.7,239,103.1,239.2,103.5,239.2z"/>
	<path display="inline" fill="#160505" d="M105.1,239.1h0.4v-0.4h-0.4V239.1z"/>
	<path display="inline" fill="#160505" d="M107.5,239.2c0.5,0,0.9-0.2,1.2-0.5l-0.2-0.2c-0.3,0.3-0.6,0.4-1,0.4
		c-0.7,0-1.2-0.5-1.2-1.2l0,0c0-0.7,0.5-1.2,1.2-1.2c0.4,0,0.7,0.2,0.9,0.4l0.2-0.2c-0.3-0.3-0.6-0.5-1.2-0.5
		c-0.9,0-1.5,0.7-1.5,1.5l0,0C106,238.5,106.6,239.2,107.5,239.2z"/>
	<path display="inline" fill="#160505" d="M109.1,239.1h0.4v-0.4h-0.4V239.1z"/>
	<path display="inline" fill="#160505" d="M112.2,239.2c0.3,0,0.5-0.1,0.7-0.2c0.2-0.2,0.3-0.4,0.3-0.8v-2h-0.3v2
		c0,0.5-0.2,0.7-0.6,0.7c-0.3,0-0.5-0.1-0.7-0.4l-0.2,0.2C111.5,239,111.7,239.2,112.2,239.2z"/>
	<path display="inline" fill="#160505" d="M114.8,239.2c0.7,0,1.2-0.5,1.2-1.1l0,0c0-0.6-0.5-1.1-1.1-1.1c-0.7,0-1.1,0.5-1.1,1.1
		l0,0C113.7,238.7,114.2,239.2,114.8,239.2z M114.9,238.9c-0.5,0-0.8-0.4-0.8-0.9l0,0c0-0.5,0.3-0.8,0.8-0.8s0.8,0.4,0.8,0.9l0,0
		C115.7,238.5,115.3,238.9,114.9,238.9z"/>
	<path display="inline" fill="#160505" d="M116.6,239.1h0.3v-1.3c0-0.4,0.3-0.7,0.7-0.7c0.4,0,0.6,0.3,0.6,0.7v1.3h0.3v-1.4
		c0-0.5-0.3-0.9-0.8-0.9c-0.4,0-0.6,0.2-0.8,0.4V236h-0.3C116.6,236,116.6,239.1,116.6,239.1z"/>
	<path display="inline" fill="#160505" d="M119.2,239.1h0.3v-1.3c0-0.4,0.3-0.7,0.7-0.7c0.4,0,0.6,0.3,0.6,0.7v1.3h0.3v-1.4
		c0-0.5-0.3-0.9-0.8-0.9c-0.4,0-0.6,0.2-0.8,0.4v-0.4h-0.3C119.2,236.8,119.2,239.1,119.2,239.1z"/>
	<path display="inline" fill="#160505" d="M122.6,239.2c0.4,0,0.8-0.2,0.8-0.7l0,0c0-0.4-0.4-0.5-0.7-0.6c-0.3-0.1-0.6-0.2-0.6-0.4
		l0,0c0-0.2,0.2-0.3,0.4-0.3c0.2,0,0.4,0.1,0.6,0.2l0.1-0.2c-0.2-0.1-0.5-0.2-0.8-0.2c-0.4,0-0.7,0.3-0.7,0.6l0,0
		c0,0.4,0.4,0.5,0.7,0.6c0.3,0.1,0.5,0.2,0.5,0.4l0,0c0,0.2-0.2,0.3-0.5,0.3s-0.5-0.1-0.8-0.3l-0.2,0.2
		C121.9,239.1,122.2,239.2,122.6,239.2z"/>
	<path display="inline" fill="#160505" d="M124.9,239.2c0.7,0,1.2-0.5,1.2-1.1l0,0c0-0.6-0.5-1.1-1.1-1.1c-0.7,0-1.1,0.5-1.1,1.1
		l0,0C123.8,238.7,124.3,239.2,124.9,239.2z M125,238.9c-0.5,0-0.8-0.4-0.8-0.9l0,0c0-0.5,0.3-0.8,0.8-0.8s0.8,0.4,0.8,0.9l0,0
		C125.8,238.5,125.4,238.9,125,238.9z"/>
	<path display="inline" fill="#160505" d="M126.7,239.1h0.3v-1.3c0-0.4,0.3-0.7,0.7-0.7s0.6,0.3,0.6,0.7v1.3h0.3v-1.4
		c0-0.5-0.3-0.9-0.8-0.9c-0.4,0-0.6,0.2-0.8,0.4v-0.4h-0.3V239.1z"/>
	<path display="inline" fill="#160505" d="M132.8,239.2l0.3-0.2l-0.5-0.5c0.2-0.2,0.3-0.5,0.4-0.7l-0.3-0.1
		c-0.1,0.2-0.2,0.5-0.4,0.7l-0.7-0.7c0.4-0.2,0.7-0.4,0.7-0.8l0,0c0-0.4-0.3-0.7-0.7-0.7c-0.5,0-0.8,0.3-0.8,0.7l0,0
		c0,0.2,0.1,0.4,0.3,0.7c-0.5,0.2-0.7,0.5-0.7,0.9l0,0c0,0.5,0.4,0.8,0.9,0.8c0.4,0,0.7-0.2,1-0.5L132.8,239.2z M131.4,237.4
		c-0.2-0.2-0.3-0.4-0.3-0.5l0,0c0-0.2,0.2-0.4,0.4-0.4s0.4,0.2,0.4,0.4l0,0C132,237.1,131.8,237.3,131.4,237.4z M131.4,238.9
		c-0.4,0-0.6-0.2-0.6-0.6l0,0c0-0.3,0.2-0.5,0.6-0.6l0.8,0.8C131.9,238.8,131.6,238.9,131.4,238.9z"/>
	<path display="inline" fill="#160505" d="M135.9,239.2c0.6,0,1-0.3,1-0.8l0,0c0-0.5-0.3-0.7-1-0.8s-0.8-0.3-0.8-0.6l0,0
		c0-0.3,0.2-0.5,0.6-0.5c0.3,0,0.6,0.1,0.9,0.3l0.2-0.3c-0.3-0.2-0.6-0.4-1-0.4c-0.6,0-1,0.3-1,0.8l0,0c0,0.5,0.3,0.7,1,0.9
		c0.6,0.1,0.8,0.3,0.8,0.6l0,0c0,0.3-0.3,0.5-0.7,0.5s-0.7-0.1-1-0.4l-0.2,0.2C135,239,135.4,239.2,135.9,239.2z"/>
	<path display="inline" fill="#160505" d="M138.5,239.2c0.7,0,1.2-0.5,1.2-1.1l0,0c0-0.6-0.5-1.1-1.1-1.1c-0.7,0-1.1,0.5-1.1,1.1
		l0,0C137.4,238.7,137.9,239.2,138.5,239.2z M138.5,238.9c-0.5,0-0.8-0.4-0.8-0.9l0,0c0-0.5,0.3-0.8,0.8-0.8s0.8,0.4,0.8,0.9l0,0
		C139.3,238.5,139,238.9,138.5,238.9z"/>
	<path display="inline" fill="#160505" d="M140.3,239.1h0.3v-1.3c0-0.4,0.3-0.7,0.7-0.7s0.6,0.3,0.6,0.7v1.3h0.3v-1.4
		c0-0.5-0.3-0.9-0.8-0.9c-0.4,0-0.6,0.2-0.8,0.4v-0.4h-0.3V239.1z"/>
	<path display="inline" fill="#160505" d="M142.8,239.7c0.3-0.1,0.5-0.2,0.5-0.6v-0.4h-0.4v0.4h0.2c0,0.2-0.1,0.3-0.3,0.4V239.7z"/>
	<path display="inline" fill="#160505" d="M145.3,239.1h0.3v-3h-0.3V239.1z"/>
	<path display="inline" fill="#160505" d="M146.4,239.1h0.3v-1.3c0-0.4,0.3-0.7,0.7-0.7s0.6,0.3,0.6,0.7v1.3h0.3v-1.4
		c0-0.5-0.3-0.9-0.8-0.9c-0.4,0-0.6,0.2-0.8,0.4v-0.4h-0.3V239.1z"/>
	<path display="inline" fill="#160505" d="M150,239.2c0.4,0,0.7-0.2,0.9-0.4l-0.2-0.2c-0.2,0.2-0.4,0.3-0.7,0.3
		c-0.5,0-0.8-0.4-0.8-0.9l0,0c0-0.5,0.3-0.8,0.8-0.8c0.3,0,0.5,0.1,0.7,0.3l0.2-0.2c-0.2-0.2-0.5-0.4-0.9-0.4
		c-0.6,0-1.1,0.5-1.1,1.1l0,0C148.9,238.7,149.4,239.2,150,239.2z"/>
	<path display="inline" fill="#160505" d="M151.4,239.1h0.4v-0.4h-0.4V239.1z"/>
</g>
<path fill="#FFFFFF" d="M12.9,225h0.3v-1.3h1.7v1.3h0.3v-3h-0.3v1.3h-1.7V222h-0.3V225z"/>
<path fill="#FFFFFF" d="M16.2,224H18c0-0.1,0-0.1,0-0.1c0-0.6-0.4-1.2-1-1.2c-0.6,0-1.1,0.5-1.1,1.1c0,0.7,0.5,1.1,1.1,1.1
	c0.4,0,0.7-0.2,0.9-0.4l-0.2-0.2c-0.2,0.2-0.4,0.3-0.7,0.3C16.6,224.7,16.3,224.5,16.2,224z M16.2,223.7c0-0.4,0.3-0.7,0.7-0.7
	c0.4,0,0.7,0.3,0.7,0.7H16.2z"/>
<path fill="#FFFFFF" d="M18.7,225H19v-1.9h0.7v-0.3H19v-0.2c0-0.3,0.1-0.5,0.4-0.5c0.1,0,0.2,0,0.3,0.1v-0.3c-0.1,0-0.2-0.1-0.4-0.1
	c-0.2,0-0.4,0.1-0.5,0.2c-0.1,0.1-0.2,0.3-0.2,0.6v0.2h-0.3v0.3h0.3V225z"/>
<path fill="#FFFFFF" d="M20.8,225c0.2,0,0.3,0,0.4-0.1v-0.3c-0.1,0.1-0.2,0.1-0.3,0.1c-0.2,0-0.4-0.1-0.4-0.4v-1.3h0.7v-0.3h-0.7
	v-0.7h-0.3v0.7h-0.3v0.3h0.3v1.3C20.2,224.8,20.5,225,20.8,225z"/>
<path fill="#FFFFFF" d="M22.2,225.7c0.3,0,0.5-0.2,0.7-0.6l0.9-2.3h-0.3l-0.7,1.8l-0.8-1.8h-0.4l1,2.2c-0.1,0.3-0.3,0.4-0.5,0.4
	c-0.1,0-0.2,0-0.3-0.1l-0.1,0.3C21.8,225.6,22,225.7,22.2,225.7z"/>
<path fill="#FFFFFF" d="M25.7,225c0.9,0,1.5-0.7,1.5-1.5v0c0-0.8-0.7-1.5-1.5-1.5c-0.9,0-1.5,0.7-1.5,1.5v0
	C24.2,224.3,24.9,225,25.7,225z M25.7,224.9c-0.8,0-1.4-0.6-1.4-1.4v0c0-0.8,0.6-1.4,1.4-1.4c0.8,0,1.4,0.6,1.4,1.4v0
	C27.1,224.3,26.5,224.9,25.7,224.9z M25.1,224.2h0.2v-0.6h0.4h0l0.5,0.6h0.3l-0.5-0.6c0.2-0.1,0.4-0.2,0.4-0.5v0
	c0-0.1-0.1-0.2-0.1-0.3c-0.1-0.1-0.3-0.2-0.5-0.2h-0.7V224.2z M25.4,223.4v-0.6h0.5c0.2,0,0.4,0.1,0.4,0.3v0c0,0.2-0.2,0.3-0.4,0.3
	H25.4z"/>
<path fill="#FFFFFF" d="M29.2,225h0.3v-3.1h-0.3V225z"/>
<path fill="#FFFFFF" d="M31.3,225c0.7,0,1.2-0.5,1.2-1.1v0c0-0.6-0.5-1.1-1.1-1.1c-0.7,0-1.1,0.5-1.1,1.1v0
	C30.1,224.5,30.6,225,31.3,225z M31.3,224.7c-0.5,0-0.8-0.4-0.8-0.9v0c0-0.5,0.3-0.8,0.8-0.8c0.5,0,0.8,0.4,0.8,0.9v0
	C32.1,224.4,31.7,224.7,31.3,224.7z"/>
<path fill="#FFFFFF" d="M33.5,225h0.3l0.6-1.7l0.6,1.7h0.3l0.8-2.2h-0.3l-0.6,1.8l-0.6-1.8h-0.3l-0.6,1.8l-0.6-1.8h-0.3L33.5,225z"
	/>
<path fill="#FFFFFF" d="M36.6,224h1.7c0-0.1,0-0.1,0-0.1c0-0.6-0.4-1.2-1-1.2c-0.6,0-1.1,0.5-1.1,1.1c0,0.7,0.5,1.1,1.1,1.1
	c0.4,0,0.7-0.2,0.9-0.4l-0.2-0.2c-0.2,0.2-0.4,0.3-0.7,0.3C37,224.7,36.7,224.5,36.6,224z M36.6,223.7c0-0.4,0.3-0.7,0.7-0.7
	c0.4,0,0.7,0.3,0.7,0.7H36.6z"/>
<path fill="#FFFFFF" d="M39,225h0.3v-0.9c0-0.7,0.4-1,0.9-1h0v-0.4c-0.4,0-0.7,0.2-0.9,0.6v-0.6H39V225z"/>
<path fill="#FFFFFF" d="M42,225.7h0.3v-1.1c0.2,0.2,0.4,0.5,0.8,0.5c0.5,0,1-0.4,1-1.1v0c0-0.7-0.5-1.1-1-1.1
	c-0.4,0-0.7,0.2-0.8,0.5v-0.4H42V225.7z M43.1,224.7c-0.4,0-0.8-0.3-0.8-0.8v0c0-0.5,0.4-0.8,0.8-0.8c0.4,0,0.8,0.3,0.8,0.8v0
	C43.8,224.4,43.5,224.7,43.1,224.7z"/>
<path fill="#FFFFFF" d="M44.8,225h0.3v-0.9c0-0.7,0.4-1,0.9-1h0v-0.4c-0.4,0-0.7,0.2-0.9,0.6v-0.6h-0.3V225z"/>
<path fill="#FFFFFF" d="M46.5,222.3h0.4v-0.4h-0.4V222.3z M46.5,225h0.3v-2.2h-0.3V225z"/>
<path fill="#FFFFFF" d="M48.6,225c0.4,0,0.7-0.2,0.9-0.4l-0.2-0.2c-0.2,0.2-0.4,0.3-0.7,0.3c-0.5,0-0.8-0.4-0.8-0.9v0
	c0-0.5,0.3-0.8,0.8-0.8c0.3,0,0.5,0.1,0.7,0.3l0.2-0.2c-0.2-0.2-0.5-0.4-0.9-0.4c-0.6,0-1.1,0.5-1.1,1.1v0
	C47.5,224.5,48,225,48.6,225z"/>
<path fill="#FFFFFF" d="M50.2,224h1.7c0-0.1,0-0.1,0-0.1c0-0.6-0.4-1.2-1-1.2c-0.6,0-1.1,0.5-1.1,1.1c0,0.7,0.5,1.1,1.1,1.1
	c0.4,0,0.7-0.2,0.9-0.4l-0.2-0.2c-0.2,0.2-0.4,0.3-0.7,0.3C50.6,224.7,50.2,224.5,50.2,224z M50.2,223.7c0-0.4,0.3-0.7,0.7-0.7
	c0.4,0,0.7,0.3,0.7,0.7H50.2z"/>
<path fill="#FFFFFF" d="M53.4,225c0.4,0,0.7-0.2,0.8-0.5v0.4h0.3v-3.1h-0.3v1.3c-0.2-0.2-0.4-0.5-0.8-0.5c-0.5,0-1,0.4-1,1.1v0
	C52.4,224.6,52.9,225,53.4,225z M53.5,224.7c-0.4,0-0.8-0.3-0.8-0.8v0c0-0.5,0.3-0.8,0.8-0.8c0.4,0,0.8,0.3,0.8,0.8v0
	C54.3,224.4,53.9,224.7,53.5,224.7z"/>
<path fill="#FFFFFF" d="M57.3,225c0.2,0,0.3,0,0.4-0.1v-0.3c-0.1,0.1-0.2,0.1-0.3,0.1c-0.2,0-0.4-0.1-0.4-0.4v-1.3h0.7v-0.3H57v-0.7
	h-0.3v0.7h-0.3v0.3h0.3v1.3C56.7,224.8,57,225,57.3,225z"/>
<path fill="#FFFFFF" d="M58.3,225h0.3v-1.3c0-0.4,0.3-0.7,0.7-0.7c0.4,0,0.6,0.3,0.6,0.7v1.3h0.3v-1.4c0-0.5-0.3-0.9-0.8-0.9
	c-0.4,0-0.6,0.2-0.8,0.4v-1.3h-0.3V225z"/>
<path fill="#FFFFFF" d="M61.6,225c0.4,0,0.6-0.2,0.8-0.4v0.3h0.3v-1.3c0-0.3-0.1-0.5-0.2-0.6c-0.2-0.2-0.4-0.2-0.7-0.2
	c-0.3,0-0.6,0.1-0.8,0.2l0.1,0.3c0.2-0.1,0.4-0.2,0.7-0.2c0.4,0,0.6,0.2,0.6,0.6v0.1c-0.2-0.1-0.4-0.1-0.7-0.1
	c-0.6,0-0.9,0.2-0.9,0.7v0C60.8,224.8,61.2,225,61.6,225z M61.6,224.8c-0.3,0-0.6-0.2-0.6-0.4v0c0-0.3,0.2-0.4,0.6-0.4
	c0.3,0,0.5,0,0.6,0.1v0.2C62.4,224.5,62,224.8,61.6,224.8z"/>
<path fill="#FFFFFF" d="M63.4,225h0.3v-1.3c0-0.4,0.3-0.7,0.7-0.7c0.4,0,0.6,0.3,0.6,0.7v1.3h0.3v-1.4c0-0.5-0.3-0.9-0.8-0.9
	c-0.4,0-0.6,0.2-0.8,0.4v-0.4h-0.3V225z"/>
<path fill="#FFFFFF" d="M67.2,225h2.4v-0.3h-1.9l1.9-2.4V222h-2.3v0.3h1.9l-1.9,2.4V225z"/>
<path fill="#FFFFFF" d="M70.2,222.3h0.4v-0.4h-0.4V222.3z M70.2,225h0.3v-2.2h-0.3V225z"/>
<path fill="#FFFFFF" d="M71.3,225.7h0.3v-1.1c0.2,0.2,0.4,0.5,0.8,0.5c0.5,0,1-0.4,1-1.1v0c0-0.7-0.5-1.1-1-1.1
	c-0.4,0-0.7,0.2-0.8,0.5v-0.4h-0.3V225.7z M72.4,224.7c-0.4,0-0.8-0.3-0.8-0.8v0c0-0.5,0.4-0.8,0.8-0.8c0.4,0,0.8,0.3,0.8,0.8v0
	C73.2,224.4,72.9,224.7,72.4,224.7z"/>
<path fill="#FFFFFF" d="M74.2,225h0.3v-3.1h-0.3V225z"/>
<path fill="#FFFFFF" d="M76.3,225c0.7,0,1.2-0.5,1.2-1.1v0c0-0.6-0.5-1.1-1.1-1.1c-0.7,0-1.1,0.5-1.1,1.1v0
	C75.1,224.5,75.6,225,76.3,225z M76.3,224.7c-0.5,0-0.8-0.4-0.8-0.9v0c0-0.5,0.3-0.8,0.8-0.8c0.5,0,0.8,0.4,0.8,0.9v0
	C77.1,224.4,76.8,224.7,76.3,224.7z"/>
<path fill="#FFFFFF" d="M79,225c0.4,0,0.7-0.2,0.9-0.4l-0.2-0.2c-0.2,0.2-0.4,0.3-0.7,0.3c-0.5,0-0.8-0.4-0.8-0.9v0
	c0-0.5,0.3-0.8,0.8-0.8c0.3,0,0.5,0.1,0.7,0.3l0.2-0.2c-0.2-0.2-0.5-0.4-0.9-0.4c-0.6,0-1.1,0.5-1.1,1.1v0
	C77.9,224.5,78.4,225,79,225z"/>
<path fill="#FFFFFF" d="M82.8,225c0.6,0,1-0.3,1-0.8v0c0-0.5-0.3-0.7-1-0.8c-0.7-0.1-0.8-0.3-0.8-0.6v0c0-0.3,0.2-0.5,0.6-0.5
	c0.3,0,0.6,0.1,0.9,0.3l0.2-0.3c-0.3-0.2-0.6-0.4-1-0.4c-0.6,0-1,0.3-1,0.8v0c0,0.5,0.3,0.7,1,0.9c0.6,0.1,0.8,0.3,0.8,0.6v0
	c0,0.3-0.3,0.5-0.7,0.5c-0.4,0-0.7-0.1-1-0.4l-0.2,0.2C81.9,224.9,82.3,225,82.8,225z"/>
<path fill="#FFFFFF" d="M84.5,225h0.3v-3.1h-0.3V225z"/>
<path fill="#FFFFFF" d="M85.6,222.3h0.4v-0.4h-0.4V222.3z M85.6,225h0.3v-2.2h-0.3V225z"/>
<path fill="#FFFFFF" d="M87.6,225c0.4,0,0.7-0.2,0.8-0.5v0.4h0.3v-3.1h-0.3v1.3c-0.2-0.2-0.4-0.5-0.8-0.5c-0.5,0-1,0.4-1,1.1v0
	C86.5,224.6,87.1,225,87.6,225z M87.6,224.7c-0.4,0-0.8-0.3-0.8-0.8v0c0-0.5,0.3-0.8,0.8-0.8c0.4,0,0.8,0.3,0.8,0.8v0
	C88.4,224.4,88.1,224.7,87.6,224.7z"/>
<path fill="#FFFFFF" d="M89.7,224h1.7c0-0.1,0-0.1,0-0.1c0-0.6-0.4-1.2-1-1.2c-0.6,0-1.1,0.5-1.1,1.1c0,0.7,0.5,1.1,1.1,1.1
	c0.4,0,0.7-0.2,0.9-0.4l-0.2-0.2c-0.2,0.2-0.4,0.3-0.7,0.3C90.1,224.7,89.7,224.5,89.7,224z M89.7,223.7c0-0.4,0.3-0.7,0.7-0.7
	c0.4,0,0.7,0.3,0.7,0.7H89.7z"/>
<path fill="#FFFFFF" d="M92,225h0.3v-0.9c0-0.7,0.4-1,0.9-1h0v-0.4c-0.4,0-0.7,0.2-0.9,0.6v-0.6H92V225z"/>
<path fill="#FFFFFF" d="M94.4,225c0.4,0,0.8-0.2,0.8-0.7v0c0-0.4-0.4-0.5-0.7-0.6c-0.3-0.1-0.6-0.2-0.6-0.4v0c0-0.2,0.2-0.3,0.4-0.3
	c0.2,0,0.4,0.1,0.6,0.2l0.1-0.2c-0.2-0.1-0.5-0.2-0.8-0.2c-0.4,0-0.7,0.3-0.7,0.6v0c0,0.4,0.4,0.5,0.7,0.6c0.3,0.1,0.5,0.2,0.5,0.4
	v0c0,0.2-0.2,0.3-0.5,0.3c-0.3,0-0.5-0.1-0.8-0.3l-0.2,0.2C93.8,224.9,94.1,225,94.4,225z"/>
<path fill="#FFFFFF" d="M98.3,225c0.5,0,1-0.4,1-1.1v0c0-0.7-0.5-1.1-1-1.1c-0.4,0-0.7,0.2-0.8,0.5v-1.3h-0.3v3.1h0.3v-0.4
	C97.6,224.8,97.9,225,98.3,225z M98.2,224.7c-0.4,0-0.8-0.3-0.8-0.8v0c0-0.5,0.4-0.8,0.8-0.8c0.4,0,0.8,0.3,0.8,0.8v0
	C99,224.4,98.6,224.7,98.2,224.7z"/>
<path fill="#FFFFFF" d="M100.6,225c0.4,0,0.6-0.2,0.8-0.4v0.3h0.3v-1.3c0-0.3-0.1-0.5-0.2-0.6c-0.2-0.2-0.4-0.2-0.7-0.2
	c-0.3,0-0.6,0.1-0.8,0.2l0.1,0.3c0.2-0.1,0.4-0.2,0.7-0.2c0.4,0,0.6,0.2,0.6,0.6v0.1c-0.2-0.1-0.4-0.1-0.7-0.1
	c-0.6,0-0.9,0.2-0.9,0.7v0C99.8,224.8,100.2,225,100.6,225z M100.7,224.8c-0.3,0-0.6-0.2-0.6-0.4v0c0-0.3,0.2-0.4,0.6-0.4
	c0.3,0,0.5,0,0.6,0.1v0.2C101.4,224.5,101.1,224.8,100.7,224.8z"/>
<path fill="#FFFFFF" d="M103.1,225c0.4,0,0.8-0.2,0.8-0.7v0c0-0.4-0.4-0.5-0.7-0.6c-0.3-0.1-0.6-0.2-0.6-0.4v0
	c0-0.2,0.2-0.3,0.4-0.3c0.2,0,0.4,0.1,0.6,0.2l0.1-0.2c-0.2-0.1-0.5-0.2-0.8-0.2c-0.4,0-0.7,0.3-0.7,0.6v0c0,0.4,0.4,0.5,0.7,0.6
	c0.3,0.1,0.5,0.2,0.5,0.4v0c0,0.2-0.2,0.3-0.5,0.3c-0.3,0-0.5-0.1-0.8-0.3l-0.2,0.2C102.5,224.9,102.8,225,103.1,225z"/>
<path fill="#FFFFFF" d="M104.7,224h1.7c0-0.1,0-0.1,0-0.1c0-0.6-0.4-1.2-1-1.2c-0.6,0-1.1,0.5-1.1,1.1c0,0.7,0.5,1.1,1.1,1.1
	c0.4,0,0.7-0.2,0.9-0.4l-0.2-0.2c-0.2,0.2-0.4,0.3-0.7,0.3C105.1,224.7,104.8,224.5,104.7,224z M104.7,223.7c0-0.4,0.3-0.7,0.7-0.7
	c0.4,0,0.7,0.3,0.7,0.7H104.7z"/>
<path fill="#FFFFFF" d="M107.9,225c0.4,0,0.7-0.2,0.8-0.5v0.4h0.3v-3.1h-0.3v1.3c-0.2-0.2-0.4-0.5-0.8-0.5c-0.5,0-1,0.4-1,1.1v0
	C106.9,224.6,107.4,225,107.9,225z M108,224.7c-0.4,0-0.8-0.3-0.8-0.8v0c0-0.5,0.3-0.8,0.8-0.8c0.4,0,0.8,0.3,0.8,0.8v0
	C108.8,224.4,108.4,224.7,108,224.7z"/>
<path fill="#FFFFFF" d="M112.1,225c0.7,0,1.2-0.5,1.2-1.1v0c0-0.6-0.5-1.1-1.1-1.1c-0.7,0-1.1,0.5-1.1,1.1v0
	C111,224.5,111.5,225,112.1,225z M112.1,224.7c-0.5,0-0.8-0.4-0.8-0.9v0c0-0.5,0.3-0.8,0.8-0.8c0.5,0,0.8,0.4,0.8,0.9v0
	C112.9,224.4,112.6,224.7,112.1,224.7z"/>
<path fill="#FFFFFF" d="M113.9,225h0.3v-1.3c0-0.4,0.3-0.7,0.7-0.7c0.4,0,0.6,0.3,0.6,0.7v1.3h0.3v-1.4c0-0.5-0.3-0.9-0.8-0.9
	c-0.4,0-0.6,0.2-0.8,0.4v-0.4h-0.3V225z"/>
<path fill="#FFFFFF" d="M117.6,225h0.3l0.4-0.8h1.6l0.3,0.8h0.4l-1.4-3h-0.3L117.6,225z M118.4,223.9l0.7-1.5l0.7,1.5H118.4z"/>
<path fill="#FFFFFF" d="M122.4,225c0.5,0,0.9-0.2,1.2-0.5l-0.2-0.2c-0.3,0.3-0.6,0.4-1,0.4c-0.7,0-1.2-0.5-1.2-1.2v0
	c0-0.7,0.5-1.2,1.2-1.2c0.4,0,0.7,0.2,0.9,0.4l0.2-0.2c-0.3-0.3-0.6-0.5-1.2-0.5c-0.9,0-1.5,0.7-1.5,1.5v0
	C120.9,224.4,121.5,225,122.4,225z"/>
<path fill="#FFFFFF" d="M125.4,225h0.3v-2.4l1.9,2.4h0.3v-3h-0.3v2.4l-1.9-2.4h-0.3V225z"/>
<path fill="#FFFFFF" d="M128.7,222.3h0.4v-0.4h-0.4V222.3z M128.7,225h0.3v-2.2h-0.3V225z"/>
<path fill="#FFFFFF" d="M130,224h1.7c0-0.1,0-0.1,0-0.1c0-0.6-0.4-1.2-1-1.2c-0.6,0-1.1,0.5-1.1,1.1c0,0.7,0.5,1.1,1.1,1.1
	c0.4,0,0.7-0.2,0.9-0.4l-0.2-0.2c-0.2,0.2-0.4,0.3-0.7,0.3C130.4,224.7,130.1,224.5,130,224z M130,223.7c0-0.4,0.3-0.7,0.7-0.7
	c0.4,0,0.7,0.3,0.7,0.7H130z"/>
<path fill="#FFFFFF" d="M132.4,225h0.3v-3.1h-0.3V225z"/>
<path fill="#FFFFFF" d="M134.2,225c0.4,0,0.8-0.2,0.8-0.7v0c0-0.4-0.4-0.5-0.7-0.6c-0.3-0.1-0.6-0.2-0.6-0.4v0
	c0-0.2,0.2-0.3,0.4-0.3c0.2,0,0.4,0.1,0.6,0.2l0.1-0.2c-0.2-0.1-0.5-0.2-0.8-0.2c-0.4,0-0.7,0.3-0.7,0.6v0c0,0.4,0.4,0.5,0.7,0.6
	c0.3,0.1,0.5,0.2,0.5,0.4v0c0,0.2-0.2,0.3-0.5,0.3c-0.3,0-0.5-0.1-0.8-0.3l-0.2,0.2C133.5,224.9,133.9,225,134.2,225z"/>
<path fill="#FFFFFF" d="M135.8,224h1.7c0-0.1,0-0.1,0-0.1c0-0.6-0.4-1.2-1-1.2c-0.6,0-1.1,0.5-1.1,1.1c0,0.7,0.5,1.1,1.1,1.1
	c0.4,0,0.7-0.2,0.9-0.4l-0.2-0.2c-0.2,0.2-0.4,0.3-0.7,0.3C136.2,224.7,135.8,224.5,135.8,224z M135.8,223.7c0-0.4,0.3-0.7,0.7-0.7
	c0.4,0,0.7,0.3,0.7,0.7H135.8z"/>
<path fill="#FFFFFF" d="M138.1,225h0.3v-1.3c0-0.4,0.3-0.7,0.7-0.7c0.4,0,0.6,0.3,0.6,0.7v1.3h0.3v-1.4c0-0.5-0.3-0.9-0.8-0.9
	c-0.4,0-0.6,0.2-0.8,0.4v-0.4h-0.3V225z"/>
<path fill="#FFFFFF" d="M141.8,225h0.3l0.4-0.8h1.6l0.3,0.8h0.4l-1.4-3h-0.3L141.8,225z M142.6,223.9l0.7-1.5l0.7,1.5H142.6z"/>
<path fill="#FFFFFF" d="M145.8,225h0.3l1-2.2h-0.4l-0.7,1.8l-0.7-1.8h-0.4L145.8,225z"/>
<path fill="#FFFFFF" d="M147.6,224h1.7c0-0.1,0-0.1,0-0.1c0-0.6-0.4-1.2-1-1.2c-0.6,0-1.1,0.5-1.1,1.1c0,0.7,0.5,1.1,1.1,1.1
	c0.4,0,0.7-0.2,0.9-0.4l-0.2-0.2c-0.2,0.2-0.4,0.3-0.7,0.3C148,224.7,147.7,224.5,147.6,224z M147.6,223.7c0-0.4,0.3-0.7,0.7-0.7
	c0.4,0,0.7,0.3,0.7,0.7H147.6z"/>
<path fill="#FFFFFF" d="M149.9,225h0.3v-0.9c0-0.7,0.4-1,0.9-1h0v-0.4c-0.4,0-0.7,0.2-0.9,0.6v-0.6h-0.3V225z"/>
<path fill="#FFFFFF" d="M152.2,225c0.4,0,0.6-0.2,0.8-0.4v0.3h0.3v-1.3c0-0.3-0.1-0.5-0.2-0.6c-0.2-0.2-0.4-0.2-0.7-0.2
	c-0.3,0-0.6,0.1-0.8,0.2l0.1,0.3c0.2-0.1,0.4-0.2,0.7-0.2c0.4,0,0.6,0.2,0.6,0.6v0.1c-0.2-0.1-0.4-0.1-0.7-0.1
	c-0.6,0-0.9,0.2-0.9,0.7v0C151.4,224.8,151.8,225,152.2,225z M152.3,224.8c-0.3,0-0.6-0.2-0.6-0.4v0c0-0.3,0.2-0.4,0.6-0.4
	c0.3,0,0.5,0,0.6,0.1v0.2C153,224.5,152.7,224.8,152.3,224.8z"/>
<path fill="#FFFFFF" d="M155,225.7c0.3,0,0.6-0.1,0.8-0.3c0.2-0.2,0.3-0.4,0.3-0.8v-1.8h-0.3v0.4c-0.2-0.2-0.4-0.4-0.9-0.4
	c-0.5,0-1,0.4-1,1v0c0,0.6,0.5,1,1,1c0.4,0,0.7-0.2,0.9-0.5v0.3c0,0.5-0.3,0.8-0.8,0.8c-0.3,0-0.6-0.1-0.8-0.3l-0.1,0.3
	C154.3,225.6,154.6,225.7,155,225.7z M155,224.5c-0.4,0-0.8-0.3-0.8-0.7v0c0-0.5,0.3-0.7,0.8-0.7c0.4,0,0.8,0.3,0.8,0.7v0
	C155.8,224.2,155.4,224.5,155,224.5z"/>
<path fill="#FFFFFF" d="M157,224h1.7c0-0.1,0-0.1,0-0.1c0-0.6-0.4-1.2-1-1.2c-0.6,0-1.1,0.5-1.1,1.1c0,0.7,0.5,1.1,1.1,1.1
	c0.4,0,0.7-0.2,0.9-0.4l-0.2-0.2c-0.2,0.2-0.4,0.3-0.7,0.3C157.4,224.7,157.1,224.5,157,224z M157,223.7c0-0.4,0.3-0.7,0.7-0.7
	c0.4,0,0.7,0.3,0.7,0.7H157z"/>
<path fill="#FFFFFF" d="M160.7,225h2.2v-0.3H161v-1h1.6v-0.3H161v-1h1.8V222h-2.1V225z"/>
<path fill="#FFFFFF" d="M166.2,225.1l0.2-0.3l-0.4-0.3c0.2-0.3,0.4-0.6,0.4-1c0,0,0,0,0,0c0-0.8-0.6-1.5-1.5-1.5
	c-0.9,0-1.5,0.7-1.5,1.5v0c0,0.8,0.6,1.5,1.5,1.5c0.4,0,0.7-0.1,0.9-0.3L166.2,225.1z M164.9,224.7c-0.7,0-1.2-0.6-1.2-1.2v0
	c0-0.7,0.5-1.2,1.2-1.2c0.7,0,1.2,0.6,1.2,1.2v0c0,0.3-0.1,0.6-0.3,0.8l-0.5-0.5l-0.2,0.3l0.6,0.5
	C165.4,224.6,165.2,224.7,164.9,224.7z"/>
<path fill="#FFFFFF" d="M12,231.1h0.3v-1H13c0.6,0,1.2-0.3,1.2-1v0c0-0.6-0.4-0.9-1.1-0.9H12V231.1z M12.3,229.7v-1.3H13
	c0.5,0,0.8,0.2,0.8,0.6v0c0,0.4-0.3,0.7-0.8,0.7H12.3z"/>
<path fill="#FFFFFF" d="M14.7,231.1h0.3v-0.9c0-0.7,0.4-1,0.9-1h0v-0.4c-0.4,0-0.7,0.2-0.9,0.6v-0.6h-0.3V231.1z"/>
<path fill="#FFFFFF" d="M16.5,228.4h0.4V228h-0.4V228.4z M16.5,231.1h0.3v-2.2h-0.3V231.1z"/>
<path fill="#FFFFFF" d="M18.6,231.1c0.4,0,0.7-0.2,0.9-0.4l-0.2-0.2c-0.2,0.2-0.4,0.3-0.7,0.3c-0.5,0-0.8-0.4-0.8-0.9v0
	c0-0.5,0.3-0.8,0.8-0.8c0.3,0,0.5,0.1,0.7,0.3l0.2-0.2c-0.2-0.2-0.5-0.4-0.9-0.4c-0.6,0-1.1,0.5-1.1,1.1v0
	C17.4,230.6,17.9,231.1,18.6,231.1z"/>
<path fill="#FFFFFF" d="M20.1,230.1h1.7c0-0.1,0-0.1,0-0.1c0-0.6-0.4-1.2-1-1.2c-0.6,0-1.1,0.5-1.1,1.1c0,0.7,0.5,1.1,1.1,1.1
	c0.4,0,0.7-0.2,0.9-0.4l-0.2-0.2c-0.2,0.2-0.4,0.3-0.7,0.3C20.5,230.8,20.2,230.6,20.1,230.1z M20.1,229.8c0-0.4,0.3-0.7,0.7-0.7
	c0.4,0,0.7,0.3,0.7,0.7H20.1z"/>
<path fill="#FFFFFF" d="M24.7,231.1c0.6,0,1.1-0.4,1.1-1v0c0-0.6-0.5-0.9-1-0.9c-0.2,0-0.4,0.1-0.6,0.1l0.1-1h1.4v-0.3h-1.7
	l-0.1,1.4l0.2,0.1c0.2-0.1,0.4-0.2,0.6-0.2c0.4,0,0.7,0.3,0.7,0.6v0c0,0.4-0.3,0.7-0.7,0.7c-0.3,0-0.6-0.2-0.8-0.4l-0.2,0.2
	C23.9,230.9,24.2,231.1,24.7,231.1z"/>
<path fill="#FFFFFF" d="M26.1,231.1h2.1v-0.3h-1.6l0.8-0.7c0.5-0.5,0.8-0.7,0.8-1.2v0c0-0.5-0.4-0.8-0.9-0.8c-0.5,0-0.8,0.2-1.1,0.6
	l0.2,0.2c0.2-0.3,0.5-0.5,0.8-0.5c0.3,0,0.6,0.2,0.6,0.6c0,0.3-0.2,0.5-0.6,0.9l-1.1,1V231.1z"/>
<path fill="#FFFFFF" d="M30.7,231.1H31l0.6-1.7l0.6,1.7h0.3l0.8-2.2h-0.3l-0.6,1.8l-0.6-1.8h-0.3l-0.6,1.8l-0.6-1.8h-0.3L30.7,231.1
	z"/>
<path fill="#FFFFFF" d="M33.9,230.1h1.7c0-0.1,0-0.1,0-0.1c0-0.6-0.4-1.2-1-1.2c-0.6,0-1.1,0.5-1.1,1.1c0,0.7,0.5,1.1,1.1,1.1
	c0.4,0,0.7-0.2,0.9-0.4l-0.2-0.2c-0.2,0.2-0.4,0.3-0.7,0.3C34.2,230.8,33.9,230.6,33.9,230.1z M33.9,229.8c0-0.4,0.3-0.7,0.7-0.7
	c0.4,0,0.7,0.3,0.7,0.7H33.9z"/>
<path fill="#FFFFFF" d="M36.4,230.1h1.7c0-0.1,0-0.1,0-0.1c0-0.6-0.4-1.2-1-1.2c-0.6,0-1.1,0.5-1.1,1.1c0,0.7,0.5,1.1,1.1,1.1
	c0.4,0,0.7-0.2,0.9-0.4l-0.2-0.2c-0.2,0.2-0.4,0.3-0.7,0.3C36.8,230.8,36.4,230.6,36.4,230.1z M36.4,229.8c0-0.4,0.3-0.7,0.7-0.7
	c0.4,0,0.7,0.3,0.7,0.7H36.4z"/>
<path fill="#FFFFFF" d="M38.7,231.1H39v-0.6l0.4-0.5l0.8,1h0.4l-1-1.3l0.9-0.9h-0.4l-1.2,1.2V228h-0.3V231.1z"/>
<path fill="#FFFFFF" d="M41.8,231.1c0.4,0,0.8-0.2,0.8-0.7v0c0-0.4-0.4-0.5-0.7-0.6c-0.3-0.1-0.6-0.2-0.6-0.4v0
	c0-0.2,0.2-0.3,0.4-0.3c0.2,0,0.4,0.1,0.6,0.2l0.1-0.2c-0.2-0.1-0.5-0.2-0.8-0.2c-0.4,0-0.7,0.3-0.7,0.6v0c0,0.4,0.4,0.5,0.7,0.6
	c0.3,0.1,0.5,0.2,0.5,0.4v0c0,0.2-0.2,0.3-0.5,0.3c-0.3,0-0.5-0.1-0.8-0.3l-0.2,0.2C41.2,231,41.5,231.1,41.8,231.1z"/>
<path fill="#FFFFFF" d="M44.7,230.1h1.7c0-0.1,0-0.1,0-0.1c0-0.6-0.4-1.2-1-1.2c-0.6,0-1.1,0.5-1.1,1.1c0,0.7,0.5,1.1,1.1,1.1
	c0.4,0,0.7-0.2,0.9-0.4l-0.2-0.2c-0.2,0.2-0.4,0.3-0.7,0.3C45.1,230.8,44.7,230.6,44.7,230.1z M44.7,229.8c0-0.4,0.3-0.7,0.7-0.7
	c0.4,0,0.7,0.3,0.7,0.7H44.7z"/>
<path fill="#FFFFFF" d="M47,231.1h0.3v-1.3c0-0.4,0.3-0.7,0.7-0.7c0.4,0,0.6,0.3,0.6,0.7v1.3h0.3v-1.4c0-0.5-0.3-0.9-0.8-0.9
	c-0.4,0-0.6,0.2-0.8,0.4v-0.4H47V231.1z"/>
<path fill="#FFFFFF" d="M50.6,231.1c0.4,0,0.7-0.2,0.8-0.5v0.4h0.3V228h-0.3v1.3c-0.2-0.2-0.4-0.5-0.8-0.5c-0.5,0-1,0.4-1,1.1v0
	C49.5,230.7,50,231.1,50.6,231.1z M50.6,230.8c-0.4,0-0.8-0.3-0.8-0.8v0c0-0.5,0.3-0.8,0.8-0.8c0.4,0,0.8,0.3,0.8,0.8v0
	C51.4,230.5,51,230.8,50.6,230.8z"/>
<path fill="#FFFFFF" d="M52.5,228.4h0.4V228h-0.4V228.4z M52.5,231.1h0.3v-2.2h-0.3V231.1z"/>
<path fill="#FFFFFF" d="M53.6,231.1h0.3v-1.3c0-0.4,0.3-0.7,0.7-0.7c0.4,0,0.6,0.3,0.6,0.7v1.3h0.3v-1.4c0-0.5-0.3-0.9-0.8-0.9
	c-0.4,0-0.6,0.2-0.8,0.4v-0.4h-0.3V231.1z"/>
<path fill="#FFFFFF" d="M57.2,231.7c0.3,0,0.6-0.1,0.8-0.3c0.2-0.2,0.3-0.4,0.3-0.8v-1.8H58v0.4c-0.2-0.2-0.4-0.4-0.9-0.4
	c-0.5,0-1,0.4-1,1v0c0,0.6,0.5,1,1,1c0.4,0,0.7-0.2,0.9-0.5v0.3c0,0.5-0.3,0.8-0.8,0.8c-0.3,0-0.6-0.1-0.8-0.3l-0.1,0.3
	C56.5,231.6,56.8,231.7,57.2,231.7z M57.2,230.6c-0.4,0-0.8-0.3-0.8-0.7v0c0-0.5,0.3-0.7,0.8-0.7c0.4,0,0.8,0.3,0.8,0.7v0
	C58,230.3,57.6,230.6,57.2,230.6z"/>
<path fill="#FFFFFF" d="M61.3,231.1c0.6,0,1.1-0.3,1.1-0.8v0c0-0.4-0.3-0.6-0.6-0.7c0.3-0.1,0.5-0.3,0.5-0.7v0c0-0.5-0.5-0.8-1-0.8
	c-0.5,0-1,0.3-1,0.8v0c0,0.3,0.2,0.6,0.5,0.7c-0.4,0.1-0.6,0.4-0.6,0.7v0C60.1,230.8,60.6,231.1,61.3,231.1z M61.3,229.4
	c-0.4,0-0.7-0.2-0.7-0.5v0c0-0.3,0.3-0.5,0.7-0.5c0.4,0,0.7,0.2,0.7,0.5v0C61.9,229.2,61.6,229.4,61.3,229.4z M61.3,230.8
	c-0.5,0-0.8-0.3-0.8-0.6v0c0-0.3,0.3-0.6,0.8-0.6c0.4,0,0.8,0.2,0.8,0.6v0C62,230.6,61.7,230.8,61.3,230.8z"/>
<path fill="#FFFFFF" d="M62.5,231.6h0.3l2-3.9h-0.3L62.5,231.6z"/>
<path fill="#FFFFFF" d="M64.9,231.1h2.1v-0.3h-1.6l0.8-0.7c0.5-0.5,0.8-0.7,0.8-1.2v0c0-0.5-0.4-0.8-0.9-0.8c-0.5,0-0.8,0.2-1.1,0.6
	l0.2,0.2c0.2-0.3,0.5-0.5,0.8-0.5c0.3,0,0.6,0.2,0.6,0.6c0,0.3-0.2,0.5-0.6,0.9l-1.1,1V231.1z"/>
<path fill="#FFFFFF" d="M68.7,231.1c0.8,0,1.3-0.7,1.3-1.5v0c0-0.8-0.5-1.5-1.2-1.5c-0.8,0-1.3,0.7-1.3,1.5v0
	C67.5,230.4,68,231.1,68.7,231.1z M68.7,230.8c-0.6,0-0.9-0.6-0.9-1.2v0c0-0.7,0.3-1.2,0.9-1.2c0.6,0,0.9,0.6,0.9,1.2v0
	C69.6,230.2,69.3,230.8,68.7,230.8z"/>
<path fill="#FFFFFF" d="M70,231.6h0.3l2-3.9H72L70,231.6z"/>
<path fill="#FFFFFF" d="M73.1,231.1h0.3v-3h-0.2l-0.7,0.3l0.1,0.3l0.6-0.2V231.1z"/>
<path fill="#FFFFFF" d="M75.2,231.1c0.6,0,1.1-0.4,1.1-1v0c0-0.6-0.5-0.9-1-0.9c-0.4,0-0.7,0.2-0.8,0.5c0-0.8,0.3-1.3,0.9-1.3
	c0.3,0,0.5,0.1,0.7,0.3l0.2-0.3c-0.3-0.2-0.5-0.3-0.9-0.3c-0.8,0-1.2,0.7-1.2,1.6v0c0,0.6,0.1,0.9,0.4,1.2
	C74.6,231,74.9,231.1,75.2,231.1z M75.2,230.8c-0.4,0-0.8-0.3-0.8-0.7v0c0-0.3,0.3-0.6,0.7-0.6c0.4,0,0.7,0.3,0.7,0.6v0
	C76,230.5,75.7,230.8,75.2,230.8z"/>
<path fill="#FFFFFF" d="M76.9,231.1h0.4v-0.4h-0.4V231.1z"/>
<path fill="#FFFFFF" d="M81.9,231.1c0.9,0,1.5-0.7,1.5-1.5v0c0-0.8-0.7-1.5-1.5-1.5c-0.9,0-1.5,0.7-1.5,1.5v0
	C80.4,230.4,81.1,231.1,81.9,231.1z M81.9,231c-0.8,0-1.4-0.6-1.4-1.4v0c0-0.8,0.6-1.4,1.4-1.4c0.8,0,1.4,0.6,1.4,1.4v0
	C83.3,230.3,82.7,231,81.9,231z M81.9,230.4c0.3,0,0.5-0.1,0.6-0.3l-0.2-0.1c-0.1,0.1-0.3,0.2-0.5,0.2c-0.3,0-0.6-0.3-0.6-0.6v0
	c0-0.3,0.2-0.6,0.6-0.6c0.2,0,0.3,0.1,0.5,0.2l0.2-0.2c-0.2-0.1-0.3-0.3-0.6-0.3c-0.5,0-0.8,0.4-0.8,0.8v0
	C81.2,230,81.5,230.4,81.9,230.4z"/>
<path fill="#FFFFFF" d="M83.9,231.1H86v-0.3h-1.6l0.8-0.7c0.5-0.5,0.8-0.7,0.8-1.2v0c0-0.5-0.4-0.8-0.9-0.8c-0.5,0-0.8,0.2-1.1,0.6
	l0.2,0.2c0.2-0.3,0.5-0.5,0.8-0.5c0.3,0,0.6,0.2,0.6,0.6c0,0.3-0.2,0.5-0.6,0.9l-1.1,1V231.1z"/>
<path fill="#FFFFFF" d="M87.8,231.1c0.8,0,1.3-0.7,1.3-1.5v0c0-0.8-0.5-1.5-1.2-1.5c-0.8,0-1.3,0.7-1.3,1.5v0
	C86.5,230.4,87,231.1,87.8,231.1z M87.8,230.8c-0.6,0-0.9-0.6-0.9-1.2v0c0-0.7,0.3-1.2,0.9-1.2c0.6,0,0.9,0.6,0.9,1.2v0
	C88.7,230.2,88.3,230.8,87.8,230.8z"/>
<path fill="#FFFFFF" d="M90,231.1h0.3v-3h-0.2l-0.7,0.3l0.1,0.3l0.6-0.2V231.1z"/>
<path fill="#FFFFFF" d="M92.2,231.1c0.6,0,1.1-0.4,1.1-1v0c0-0.6-0.5-0.9-1-0.9c-0.4,0-0.7,0.2-0.8,0.5c0-0.8,0.3-1.3,0.9-1.3
	c0.3,0,0.5,0.1,0.7,0.3l0.2-0.3c-0.3-0.2-0.5-0.3-0.9-0.3c-0.8,0-1.2,0.7-1.2,1.6v0c0,0.6,0.1,0.9,0.4,1.2
	C91.6,231,91.9,231.1,92.2,231.1z M92.2,230.8c-0.4,0-0.8-0.3-0.8-0.7v0c0-0.3,0.3-0.6,0.7-0.6c0.4,0,0.7,0.3,0.7,0.6v0
	C92.9,230.5,92.6,230.8,92.2,230.8z"/>
<path fill="#FFFFFF" d="M95.2,231.1h0.3v-1.2h0.8h0l0.9,1.2h0.4l-0.9-1.2c0.5-0.1,0.8-0.4,0.8-0.9v0c0-0.2-0.1-0.4-0.2-0.6
	c-0.2-0.2-0.5-0.3-0.8-0.3h-1.3V231.1z M95.6,229.6v-1.2h0.9c0.5,0,0.8,0.2,0.8,0.6v0c0,0.4-0.3,0.6-0.8,0.6H95.6z"/>
<path fill="#FFFFFF" d="M98.4,230.1h1.7c0-0.1,0-0.1,0-0.1c0-0.6-0.4-1.2-1-1.2c-0.6,0-1.1,0.5-1.1,1.1c0,0.7,0.5,1.1,1.1,1.1
	c0.4,0,0.7-0.2,0.9-0.4l-0.2-0.2c-0.2,0.2-0.4,0.3-0.7,0.3C98.8,230.8,98.4,230.6,98.4,230.1z M98.4,229.8c0-0.4,0.3-0.7,0.7-0.7
	c0.4,0,0.7,0.3,0.7,0.7H98.4z"/>
<path fill="#FFFFFF" d="M100.9,231.8c0.3,0,0.5-0.2,0.7-0.6l0.9-2.3h-0.3l-0.7,1.8l-0.8-1.8h-0.4l1,2.2c-0.1,0.3-0.3,0.4-0.5,0.4
	c-0.1,0-0.2,0-0.3-0.1l-0.1,0.3C100.6,231.7,100.8,231.8,100.9,231.8z"/>
<path fill="#FFFFFF" d="M103.1,231.1h0.3v-1.3c0-0.4,0.3-0.7,0.7-0.7c0.4,0,0.6,0.3,0.6,0.7v1.3h0.3v-1.4c0-0.5-0.3-0.9-0.8-0.9
	c-0.4,0-0.6,0.2-0.8,0.4v-0.4h-0.3V231.1z"/>
<path fill="#FFFFFF" d="M106.7,231.1c0.7,0,1.2-0.5,1.2-1.1v0c0-0.6-0.5-1.1-1.1-1.1c-0.7,0-1.1,0.5-1.1,1.1v0
	C105.6,230.6,106.1,231.1,106.7,231.1z M106.7,230.8c-0.5,0-0.8-0.4-0.8-0.9v0c0-0.5,0.3-0.8,0.8-0.8c0.5,0,0.8,0.4,0.8,0.9v0
	C107.5,230.4,107.2,230.8,106.7,230.8z"/>
<path fill="#FFFFFF" d="M108.5,231.1h0.3V228h-0.3V231.1z"/>
<path fill="#FFFFFF" d="M110.5,231.1c0.4,0,0.7-0.2,0.8-0.5v0.4h0.3V228h-0.3v1.3c-0.2-0.2-0.4-0.5-0.8-0.5c-0.5,0-1,0.4-1,1.1v0
	C109.5,230.7,110,231.1,110.5,231.1z M110.6,230.8c-0.4,0-0.8-0.3-0.8-0.8v0c0-0.5,0.3-0.8,0.8-0.8c0.4,0,0.8,0.3,0.8,0.8v0
	C111.4,230.5,111,230.8,110.6,230.8z"/>
<path fill="#FFFFFF" d="M113.1,231.1c0.4,0,0.8-0.2,0.8-0.7v0c0-0.4-0.4-0.5-0.7-0.6c-0.3-0.1-0.6-0.2-0.6-0.4v0
	c0-0.2,0.2-0.3,0.4-0.3c0.2,0,0.4,0.1,0.6,0.2l0.1-0.2c-0.2-0.1-0.5-0.2-0.8-0.2c-0.4,0-0.7,0.3-0.7,0.6v0c0,0.4,0.4,0.5,0.7,0.6
	c0.3,0.1,0.5,0.2,0.5,0.4v0c0,0.2-0.2,0.3-0.5,0.3c-0.3,0-0.5-0.1-0.8-0.3l-0.2,0.2C112.5,231,112.8,231.1,113.1,231.1z"/>
<path fill="#FFFFFF" d="M117.2,231.1c0.5,0,0.9-0.2,1.2-0.5l-0.2-0.2c-0.3,0.3-0.6,0.4-1,0.4c-0.7,0-1.2-0.5-1.2-1.2v0
	c0-0.7,0.5-1.2,1.2-1.2c0.4,0,0.7,0.2,0.9,0.4l0.2-0.2c-0.3-0.3-0.6-0.5-1.2-0.5c-0.9,0-1.5,0.7-1.5,1.5v0
	C115.7,230.4,116.4,231.1,117.2,231.1z"/>
<path fill="#FFFFFF" d="M119.9,231.1c0.7,0,1.2-0.5,1.2-1.1v0c0-0.6-0.5-1.1-1.1-1.1c-0.7,0-1.1,0.5-1.1,1.1v0
	C118.8,230.6,119.2,231.1,119.9,231.1z M119.9,230.8c-0.5,0-0.8-0.4-0.8-0.9v0c0-0.5,0.3-0.8,0.8-0.8c0.5,0,0.8,0.4,0.8,0.9v0
	C120.7,230.4,120.4,230.8,119.9,230.8z"/>
<path fill="#FFFFFF" d="M121.6,231.1h0.3v-1.3c0-0.4,0.3-0.7,0.7-0.7c0.4,0,0.6,0.3,0.6,0.7v1.3h0.3v-1.4c0-0.5-0.3-0.9-0.8-0.9
	c-0.4,0-0.6,0.2-0.8,0.4v-0.4h-0.3V231.1z"/>
<path fill="#FFFFFF" d="M125,231.1c0.4,0,0.8-0.2,0.8-0.7v0c0-0.4-0.4-0.5-0.7-0.6c-0.3-0.1-0.6-0.2-0.6-0.4v0
	c0-0.2,0.2-0.3,0.4-0.3c0.2,0,0.4,0.1,0.6,0.2l0.1-0.2c-0.2-0.1-0.5-0.2-0.8-0.2c-0.4,0-0.7,0.3-0.7,0.6v0c0,0.4,0.4,0.5,0.7,0.6
	c0.3,0.1,0.5,0.2,0.5,0.4v0c0,0.2-0.2,0.3-0.5,0.3c-0.3,0-0.5-0.1-0.8-0.3l-0.2,0.2C124.3,231,124.7,231.1,125,231.1z"/>
<path fill="#FFFFFF" d="M127.2,231.1c0.4,0,0.6-0.2,0.8-0.4v0.4h0.3v-2.2h-0.3v1.3c0,0.4-0.3,0.7-0.7,0.7c-0.4,0-0.6-0.3-0.6-0.7
	v-1.3h-0.3v1.4C126.3,230.7,126.6,231.1,127.2,231.1z"/>
<path fill="#FFFFFF" d="M129,231.1h0.3v-1.3c0-0.4,0.3-0.7,0.6-0.7c0.3,0,0.6,0.2,0.6,0.7v1.3h0.3v-1.3c0-0.4,0.3-0.7,0.6-0.7
	c0.4,0,0.6,0.2,0.6,0.7v1.3h0.3v-1.4c0-0.5-0.3-0.9-0.8-0.9c-0.4,0-0.6,0.2-0.8,0.4c-0.1-0.2-0.3-0.4-0.7-0.4
	c-0.4,0-0.6,0.2-0.7,0.4v-0.4H129V231.1z"/>
<path fill="#FFFFFF" d="M133.2,230.1h1.7c0-0.1,0-0.1,0-0.1c0-0.6-0.4-1.2-1-1.2c-0.6,0-1.1,0.5-1.1,1.1c0,0.7,0.5,1.1,1.1,1.1
	c0.4,0,0.7-0.2,0.9-0.4l-0.2-0.2c-0.2,0.2-0.4,0.3-0.7,0.3C133.6,230.8,133.3,230.6,133.2,230.1z M133.2,229.8
	c0-0.4,0.3-0.7,0.7-0.7c0.4,0,0.7,0.3,0.7,0.7H133.2z"/>
<path fill="#FFFFFF" d="M135.5,231.1h0.3v-0.9c0-0.7,0.4-1,0.9-1h0v-0.4c-0.4,0-0.7,0.2-0.9,0.6v-0.6h-0.3V231.1z"/>
<path fill="#FFFFFF" d="M138.6,231.1h0.3v-1h0.7c0.6,0,1.2-0.3,1.2-1v0c0-0.6-0.4-0.9-1.1-0.9h-1.1V231.1z M138.9,229.7v-1.3h0.8
	c0.5,0,0.8,0.2,0.8,0.6v0c0,0.4-0.3,0.7-0.8,0.7H138.9z"/>
<path fill="#FFFFFF" d="M141.4,231.1h0.3v-0.9c0-0.7,0.4-1,0.9-1h0v-0.4c-0.4,0-0.7,0.2-0.9,0.6v-0.6h-0.3V231.1z"/>
<path fill="#FFFFFF" d="M144,231.1c0.7,0,1.2-0.5,1.2-1.1v0c0-0.6-0.5-1.1-1.1-1.1c-0.7,0-1.1,0.5-1.1,1.1v0
	C142.9,230.6,143.3,231.1,144,231.1z M144,230.8c-0.5,0-0.8-0.4-0.8-0.9v0c0-0.5,0.3-0.8,0.8-0.8c0.5,0,0.8,0.4,0.8,0.9v0
	C144.8,230.4,144.5,230.8,144,230.8z"/>
<path fill="#FFFFFF" d="M146.7,231.1c0.4,0,0.7-0.2,0.8-0.5v0.4h0.3V228h-0.3v1.3c-0.2-0.2-0.4-0.5-0.8-0.5c-0.5,0-1,0.4-1,1.1v0
	C145.6,230.7,146.1,231.1,146.7,231.1z M146.7,230.8c-0.4,0-0.8-0.3-0.8-0.8v0c0-0.5,0.3-0.8,0.8-0.8c0.4,0,0.8,0.3,0.8,0.8v0
	C147.5,230.5,147.1,230.8,146.7,230.8z"/>
<path fill="#FFFFFF" d="M149.4,231.1c0.4,0,0.6-0.2,0.8-0.4v0.4h0.3v-2.2h-0.3v1.3c0,0.4-0.3,0.7-0.7,0.7c-0.4,0-0.6-0.3-0.6-0.7
	v-1.3h-0.3v1.4C148.5,230.7,148.8,231.1,149.4,231.1z"/>
<path fill="#FFFFFF" d="M152.2,231.1c0.4,0,0.7-0.2,0.9-0.4l-0.2-0.2c-0.2,0.2-0.4,0.3-0.7,0.3c-0.5,0-0.8-0.4-0.8-0.9v0
	c0-0.5,0.3-0.8,0.8-0.8c0.3,0,0.5,0.1,0.7,0.3l0.2-0.2c-0.2-0.2-0.5-0.4-0.9-0.4c-0.6,0-1.1,0.5-1.1,1.1v0
	C151.1,230.6,151.5,231.1,152.2,231.1z"/>
<path fill="#FFFFFF" d="M154.3,231.1c0.2,0,0.3,0,0.4-0.1v-0.3c-0.1,0.1-0.2,0.1-0.3,0.1c-0.2,0-0.4-0.1-0.4-0.4v-1.3h0.7v-0.3h-0.7
	v-0.7h-0.3v0.7h-0.3v0.3h0.3v1.3C153.7,230.9,154,231.1,154.3,231.1z"/>
<path fill="#FFFFFF" d="M156.1,231.1c0.4,0,0.8-0.2,0.8-0.7v0c0-0.4-0.4-0.5-0.7-0.6c-0.3-0.1-0.6-0.2-0.6-0.4v0
	c0-0.2,0.2-0.3,0.4-0.3c0.2,0,0.4,0.1,0.6,0.2l0.1-0.2c-0.2-0.1-0.5-0.2-0.8-0.2c-0.4,0-0.7,0.3-0.7,0.6v0c0,0.4,0.4,0.5,0.7,0.6
	c0.3,0.1,0.5,0.2,0.5,0.4v0c0,0.2-0.2,0.3-0.5,0.3c-0.3,0-0.5-0.1-0.8-0.3l-0.2,0.2C155.4,231,155.7,231.1,156.1,231.1z"/>
<path fill="#FFFFFF" d="M158.8,231.1h2v-0.3h-1.7v-2.7h-0.3V231.1z"/>
<path fill="#FFFFFF" d="M161.4,231.1h2v-0.3h-1.7v-2.7h-0.3V231.1z"/>
<path fill="#FFFFFF" d="M165.2,231.1c0.5,0,0.9-0.2,1.2-0.5l-0.2-0.2c-0.3,0.3-0.6,0.4-1,0.4c-0.7,0-1.2-0.5-1.2-1.2v0
	c0-0.7,0.5-1.2,1.2-1.2c0.4,0,0.7,0.2,0.9,0.4l0.2-0.2c-0.3-0.3-0.6-0.5-1.2-0.5c-0.9,0-1.5,0.7-1.5,1.5v0
	C163.7,230.4,164.4,231.1,165.2,231.1z"/>
<path fill="#FFFFFF" d="M166.9,231.1h0.4v-0.4h-0.4V231.1z"/>
<path fill="#FFFFFF" d="M26.8,237.1h2.4v-0.3h-1.9l1.9-2.4v-0.2h-2.3v0.3h1.9l-1.9,2.4V237.1z"/>
<path fill="#FFFFFF" d="M29.8,234.5h0.4v-0.4h-0.4V234.5z M29.8,237.1h0.3v-2.2h-0.3V237.1z"/>
<path fill="#FFFFFF" d="M30.9,237.8h0.3v-1.1c0.2,0.2,0.4,0.5,0.8,0.5c0.5,0,1-0.4,1-1.1v0c0-0.7-0.5-1.1-1-1.1
	c-0.4,0-0.7,0.2-0.8,0.5v-0.4h-0.3V237.8z M32,236.9c-0.4,0-0.8-0.3-0.8-0.8v0c0-0.5,0.4-0.8,0.8-0.8c0.4,0,0.8,0.3,0.8,0.8v0
	C32.8,236.6,32.4,236.9,32,236.9z"/>
<path fill="#FFFFFF" d="M33.8,237.1h0.3V234h-0.3V237.1z"/>
<path fill="#FFFFFF" d="M35.9,237.2c0.7,0,1.2-0.5,1.2-1.1v0c0-0.6-0.5-1.1-1.1-1.1c-0.7,0-1.1,0.5-1.1,1.1v0
	C34.7,236.7,35.2,237.2,35.9,237.2z M35.9,236.9c-0.5,0-0.8-0.4-0.8-0.9v0c0-0.5,0.3-0.8,0.8-0.8c0.5,0,0.8,0.4,0.8,0.9v0
	C36.7,236.5,36.3,236.9,35.9,236.9z"/>
<path fill="#FFFFFF" d="M38.6,237.2c0.4,0,0.7-0.2,0.9-0.4l-0.2-0.2c-0.2,0.2-0.4,0.3-0.7,0.3c-0.5,0-0.8-0.4-0.8-0.9v0
	c0-0.5,0.3-0.8,0.8-0.8c0.3,0,0.5,0.1,0.7,0.3l0.2-0.2c-0.2-0.2-0.5-0.4-0.9-0.4c-0.6,0-1.1,0.5-1.1,1.1v0
	C37.5,236.7,37.9,237.2,38.6,237.2z"/>
<path fill="#FFFFFF" d="M41.4,237.2c0.9,0,1.5-0.7,1.5-1.5v0c0-0.8-0.7-1.5-1.5-1.5s-1.5,0.7-1.5,1.5v0
	C39.9,236.5,40.6,237.2,41.4,237.2z M41.4,237.1c-0.8,0-1.4-0.6-1.4-1.4v0c0-0.8,0.6-1.4,1.4-1.4c0.8,0,1.4,0.6,1.4,1.4v0
	C42.8,236.4,42.2,237.1,41.4,237.1z M40.8,236.4h0.2v-0.6h0.4h0l0.5,0.6h0.3l-0.5-0.6c0.2-0.1,0.4-0.2,0.4-0.5v0
	c0-0.1-0.1-0.2-0.1-0.3c-0.1-0.1-0.3-0.2-0.5-0.2h-0.7V236.4z M41.1,235.6V235h0.5c0.2,0,0.4,0.1,0.4,0.3v0c0,0.2-0.2,0.3-0.4,0.3
	H41.1z"/>
<path fill="#FFFFFF" d="M44.8,234.5h0.4v-0.4h-0.4V234.5z M44.9,237.1h0.3v-2.2h-0.3V237.1z"/>
<path fill="#FFFFFF" d="M46.7,237.2c0.4,0,0.8-0.2,0.8-0.7v0c0-0.4-0.4-0.5-0.7-0.6c-0.3-0.1-0.6-0.2-0.6-0.4v0
	c0-0.2,0.2-0.3,0.4-0.3c0.2,0,0.4,0.1,0.6,0.2l0.1-0.2c-0.2-0.1-0.5-0.2-0.8-0.2c-0.4,0-0.7,0.3-0.7,0.6v0c0,0.4,0.4,0.5,0.7,0.6
	c0.3,0.1,0.5,0.2,0.5,0.4v0c0,0.2-0.2,0.3-0.5,0.3c-0.3,0-0.5-0.1-0.8-0.3l-0.2,0.2C46,237.1,46.4,237.2,46.7,237.2z"/>
<path fill="#FFFFFF" d="M50,237.2c0.4,0,0.6-0.2,0.8-0.4v0.3h0.3v-1.3c0-0.3-0.1-0.5-0.2-0.6c-0.2-0.2-0.4-0.2-0.7-0.2
	c-0.3,0-0.6,0.1-0.8,0.2l0.1,0.3c0.2-0.1,0.4-0.2,0.7-0.2c0.4,0,0.6,0.2,0.6,0.6v0.1c-0.2-0.1-0.4-0.1-0.7-0.1
	c-0.6,0-0.9,0.2-0.9,0.7v0C49.2,237,49.6,237.2,50,237.2z M50,236.9c-0.3,0-0.6-0.2-0.6-0.4v0c0-0.3,0.2-0.4,0.6-0.4
	c0.3,0,0.5,0,0.6,0.1v0.2C50.8,236.7,50.5,236.9,50,236.9z"/>
<path fill="#FFFFFF" d="M53.1,237.1h0.3v-0.9c0-0.7,0.4-1,0.9-1h0v-0.4c-0.4,0-0.7,0.2-0.9,0.6v-0.6h-0.3V237.1z"/>
<path fill="#FFFFFF" d="M54.9,236.2h1.7c0-0.1,0-0.1,0-0.1c0-0.6-0.4-1.2-1-1.2c-0.6,0-1.1,0.5-1.1,1.1c0,0.7,0.5,1.1,1.1,1.1
	c0.4,0,0.7-0.2,0.9-0.4l-0.2-0.2c-0.2,0.2-0.4,0.3-0.7,0.3C55.3,236.9,54.9,236.6,54.9,236.2z M54.9,235.9c0-0.4,0.3-0.7,0.7-0.7
	c0.4,0,0.7,0.3,0.7,0.7H54.9z"/>
<path fill="#FFFFFF" d="M58.2,237.8c0.3,0,0.6-0.1,0.8-0.3c0.2-0.2,0.3-0.4,0.3-0.8v-1.8H59v0.4c-0.2-0.2-0.4-0.4-0.9-0.4
	c-0.5,0-1,0.4-1,1v0c0,0.6,0.5,1,1,1c0.4,0,0.7-0.2,0.9-0.5v0.3c0,0.5-0.3,0.8-0.8,0.8c-0.3,0-0.6-0.1-0.8-0.3l-0.1,0.3
	C57.5,237.7,57.8,237.8,58.2,237.8z M58.2,236.7c-0.4,0-0.8-0.3-0.8-0.7v0c0-0.5,0.3-0.7,0.8-0.7s0.8,0.3,0.8,0.7v0
	C59,236.4,58.6,236.7,58.2,236.7z"/>
<path fill="#FFFFFF" d="M60,234.5h0.4v-0.4H60V234.5z M60.1,237.1h0.3v-2.2h-0.3V237.1z"/>
<path fill="#FFFFFF" d="M61.9,237.2c0.4,0,0.8-0.2,0.8-0.7v0c0-0.4-0.4-0.5-0.7-0.6c-0.3-0.1-0.6-0.2-0.6-0.4v0
	c0-0.2,0.2-0.3,0.4-0.3c0.2,0,0.4,0.1,0.6,0.2l0.1-0.2c-0.2-0.1-0.5-0.2-0.8-0.2c-0.4,0-0.7,0.3-0.7,0.6v0c0,0.4,0.4,0.5,0.7,0.6
	c0.3,0.1,0.5,0.2,0.5,0.4v0c0,0.2-0.2,0.3-0.5,0.3c-0.3,0-0.5-0.1-0.8-0.3l-0.2,0.2C61.2,237.1,61.6,237.2,61.9,237.2z"/>
<path fill="#FFFFFF" d="M64,237.2c0.2,0,0.3,0,0.4-0.1v-0.3c-0.1,0.1-0.2,0.1-0.3,0.1c-0.2,0-0.4-0.1-0.4-0.4v-1.3h0.7v-0.3h-0.7
	v-0.7h-0.3v0.7H63v0.3h0.3v1.3C63.3,237,63.6,237.2,64,237.2z"/>
<path fill="#FFFFFF" d="M65.1,236.2h1.7c0-0.1,0-0.1,0-0.1c0-0.6-0.4-1.2-1-1.2c-0.6,0-1.1,0.5-1.1,1.1c0,0.7,0.5,1.1,1.1,1.1
	c0.4,0,0.7-0.2,0.9-0.4l-0.2-0.2c-0.2,0.2-0.4,0.3-0.7,0.3C65.5,236.9,65.1,236.6,65.1,236.2z M65.1,235.9c0-0.4,0.3-0.7,0.7-0.7
	c0.4,0,0.7,0.3,0.7,0.7H65.1z"/>
<path fill="#FFFFFF" d="M67.4,237.1h0.3v-0.9c0-0.7,0.4-1,0.9-1h0v-0.4c-0.4,0-0.7,0.2-0.9,0.6v-0.6h-0.3V237.1z"/>
<path fill="#FFFFFF" d="M69.2,236.2H71c0-0.1,0-0.1,0-0.1c0-0.6-0.4-1.2-1-1.2c-0.6,0-1.1,0.5-1.1,1.1c0,0.7,0.5,1.1,1.1,1.1
	c0.4,0,0.7-0.2,0.9-0.4l-0.2-0.2c-0.2,0.2-0.4,0.3-0.7,0.3C69.6,236.9,69.3,236.6,69.2,236.2z M69.2,235.9c0-0.4,0.3-0.7,0.7-0.7
	c0.4,0,0.7,0.3,0.7,0.7H69.2z"/>
<path fill="#FFFFFF" d="M72.5,237.2c0.4,0,0.7-0.2,0.8-0.5v0.4h0.3V234h-0.3v1.3c-0.2-0.2-0.4-0.5-0.8-0.5c-0.5,0-1,0.4-1,1.1v0
	C71.4,236.8,71.9,237.2,72.5,237.2z M72.5,236.9c-0.4,0-0.8-0.3-0.8-0.8v0c0-0.5,0.3-0.8,0.8-0.8c0.4,0,0.8,0.3,0.8,0.8v0
	C73.3,236.6,72.9,236.9,72.5,236.9z"/>
<path fill="#FFFFFF" d="M76.4,237.2c0.2,0,0.3,0,0.4-0.1v-0.3c-0.1,0.1-0.2,0.1-0.3,0.1c-0.2,0-0.4-0.1-0.4-0.4v-1.3h0.7v-0.3h-0.7
	v-0.7h-0.3v0.7h-0.3v0.3h0.3v1.3C75.7,237,76,237.2,76.4,237.2z"/>
<path fill="#FFFFFF" d="M77.3,237.1h0.3v-0.9c0-0.7,0.4-1,0.9-1h0v-0.4c-0.4,0-0.7,0.2-0.9,0.6v-0.6h-0.3V237.1z"/>
<path fill="#FFFFFF" d="M79.6,237.2c0.4,0,0.6-0.2,0.8-0.4v0.3h0.3v-1.3c0-0.3-0.1-0.5-0.2-0.6c-0.2-0.2-0.4-0.2-0.7-0.2
	c-0.3,0-0.6,0.1-0.8,0.2l0.1,0.3c0.2-0.1,0.4-0.2,0.7-0.2c0.4,0,0.6,0.2,0.6,0.6v0.1c-0.2-0.1-0.4-0.1-0.7-0.1
	c-0.6,0-0.9,0.2-0.9,0.7v0C78.8,237,79.2,237.2,79.6,237.2z M79.7,236.9c-0.3,0-0.6-0.2-0.6-0.4v0c0-0.3,0.2-0.4,0.6-0.4
	c0.3,0,0.5,0,0.6,0.1v0.2C80.4,236.7,80.1,236.9,79.7,236.9z"/>
<path fill="#FFFFFF" d="M82.3,237.2c0.4,0,0.7-0.2,0.8-0.5v0.4h0.3V234h-0.3v1.3c-0.2-0.2-0.4-0.5-0.8-0.5c-0.5,0-1,0.4-1,1.1v0
	C81.3,236.8,81.8,237.2,82.3,237.2z M82.4,236.9c-0.4,0-0.8-0.3-0.8-0.8v0c0-0.5,0.3-0.8,0.8-0.8c0.4,0,0.8,0.3,0.8,0.8v0
	C83.2,236.6,82.8,236.9,82.4,236.9z"/>
<path fill="#FFFFFF" d="M84.4,236.2h1.7c0-0.1,0-0.1,0-0.1c0-0.6-0.4-1.2-1-1.2c-0.6,0-1.1,0.5-1.1,1.1c0,0.7,0.5,1.1,1.1,1.1
	c0.4,0,0.7-0.2,0.9-0.4l-0.2-0.2c-0.2,0.2-0.4,0.3-0.7,0.3C84.8,236.9,84.5,236.6,84.4,236.2z M84.4,235.9c0-0.4,0.3-0.7,0.7-0.7
	c0.4,0,0.7,0.3,0.7,0.7H84.4z"/>
<path fill="#FFFFFF" d="M86.8,237.1h0.3v-1.3c0-0.4,0.3-0.7,0.6-0.7c0.3,0,0.6,0.2,0.6,0.7v1.3h0.3v-1.3c0-0.4,0.3-0.7,0.6-0.7
	c0.4,0,0.6,0.2,0.6,0.7v1.3h0.3v-1.4c0-0.5-0.3-0.9-0.8-0.9c-0.4,0-0.6,0.2-0.8,0.4c-0.1-0.2-0.3-0.4-0.7-0.4
	c-0.4,0-0.6,0.2-0.7,0.4v-0.4h-0.3V237.1z"/>
<path fill="#FFFFFF" d="M91.4,237.2c0.4,0,0.6-0.2,0.8-0.4v0.3h0.3v-1.3c0-0.3-0.1-0.5-0.2-0.6c-0.2-0.2-0.4-0.2-0.7-0.2
	c-0.3,0-0.6,0.1-0.8,0.2l0.1,0.3c0.2-0.1,0.4-0.2,0.7-0.2c0.4,0,0.6,0.2,0.6,0.6v0.1c-0.2-0.1-0.4-0.1-0.7-0.1
	c-0.6,0-0.9,0.2-0.9,0.7v0C90.6,237,91,237.2,91.4,237.2z M91.5,236.9c-0.3,0-0.6-0.2-0.6-0.4v0c0-0.3,0.2-0.4,0.6-0.4
	c0.3,0,0.5,0,0.6,0.1v0.2C92.2,236.7,91.9,236.9,91.5,236.9z"/>
<path fill="#FFFFFF" d="M93.3,237.1h0.3v-0.9c0-0.7,0.4-1,0.9-1h0v-0.4c-0.4,0-0.7,0.2-0.9,0.6v-0.6h-0.3V237.1z"/>
<path fill="#FFFFFF" d="M95,237.1h0.3v-0.6l0.4-0.5l0.8,1h0.4l-1-1.3l0.9-0.9h-0.4l-1.2,1.2V234H95V237.1z"/>
<path fill="#FFFFFF" d="M99.7,237.2c0.7,0,1.2-0.5,1.2-1.1v0c0-0.6-0.5-1.1-1.1-1.1c-0.7,0-1.1,0.5-1.1,1.1v0
	C98.5,236.7,99,237.2,99.7,237.2z M99.7,236.9c-0.5,0-0.8-0.4-0.8-0.9v0c0-0.5,0.3-0.8,0.8-0.8c0.5,0,0.8,0.4,0.8,0.9v0
	C100.5,236.5,100.2,236.9,99.7,236.9z"/>
<path fill="#FFFFFF" d="M101.5,237.1h0.3v-1.9h0.7V235h-0.7v-0.2c0-0.3,0.1-0.5,0.4-0.5c0.1,0,0.2,0,0.3,0.1v-0.3
	c-0.1,0-0.2-0.1-0.4-0.1c-0.2,0-0.4,0.1-0.5,0.2c-0.1,0.1-0.2,0.3-0.2,0.6v0.2h-0.3v0.3h0.3V237.1z"/>
<path fill="#FFFFFF" d="M105.3,237.2c0.6,0,1-0.3,1-0.8v0c0-0.5-0.3-0.7-1-0.8c-0.7-0.1-0.8-0.3-0.8-0.6v0c0-0.3,0.2-0.5,0.6-0.5
	c0.3,0,0.6,0.1,0.9,0.3l0.2-0.3c-0.3-0.2-0.6-0.4-1-0.4c-0.6,0-1,0.3-1,0.8v0c0,0.5,0.3,0.7,1,0.9c0.6,0.1,0.8,0.3,0.8,0.6v0
	c0,0.3-0.3,0.5-0.7,0.5c-0.4,0-0.7-0.1-1-0.4l-0.2,0.2C104.5,237,104.8,237.2,105.3,237.2z"/>
<path fill="#FFFFFF" d="M106.9,237.1h0.4v-0.4h-0.4V237.1z"/>
<path fill="#FFFFFF" d="M109.2,237.2c0.5,0,0.9-0.2,1.2-0.5l-0.2-0.2c-0.3,0.3-0.6,0.4-1,0.4c-0.7,0-1.2-0.5-1.2-1.2v0
	c0-0.7,0.5-1.2,1.2-1.2c0.4,0,0.7,0.2,0.9,0.4l0.2-0.2c-0.3-0.3-0.6-0.5-1.2-0.5c-0.9,0-1.5,0.7-1.5,1.5v0
	C107.8,236.5,108.4,237.2,109.2,237.2z"/>
<path fill="#FFFFFF" d="M110.9,237.1h0.4v-0.4h-0.4V237.1z"/>
<path fill="#FFFFFF" d="M114,237.2c0.3,0,0.5-0.1,0.7-0.2c0.2-0.2,0.3-0.4,0.3-0.8v-2h-0.3v2c0,0.5-0.2,0.7-0.6,0.7
	c-0.3,0-0.5-0.1-0.7-0.4l-0.2,0.2C113.2,237,113.5,237.2,114,237.2z"/>
<path fill="#FFFFFF" d="M116.6,237.2c0.7,0,1.2-0.5,1.2-1.1v0c0-0.6-0.5-1.1-1.1-1.1c-0.7,0-1.1,0.5-1.1,1.1v0
	C115.5,236.7,116,237.2,116.6,237.2z M116.6,236.9c-0.5,0-0.8-0.4-0.8-0.9v0c0-0.5,0.3-0.8,0.8-0.8c0.5,0,0.8,0.4,0.8,0.9v0
	C117.5,236.5,117.1,236.9,116.6,236.9z"/>
<path fill="#FFFFFF" d="M118.4,237.1h0.3v-1.3c0-0.4,0.3-0.7,0.7-0.7c0.4,0,0.6,0.3,0.6,0.7v1.3h0.3v-1.4c0-0.5-0.3-0.9-0.8-0.9
	c-0.4,0-0.6,0.2-0.8,0.4V234h-0.3V237.1z"/>
<path fill="#FFFFFF" d="M121,237.1h0.3v-1.3c0-0.4,0.3-0.7,0.7-0.7c0.4,0,0.6,0.3,0.6,0.7v1.3h0.3v-1.4c0-0.5-0.3-0.9-0.8-0.9
	c-0.4,0-0.6,0.2-0.8,0.4v-0.4H121V237.1z"/>
<path fill="#FFFFFF" d="M124.3,237.2c0.4,0,0.8-0.2,0.8-0.7v0c0-0.4-0.4-0.5-0.7-0.6c-0.3-0.1-0.6-0.2-0.6-0.4v0
	c0-0.2,0.2-0.3,0.4-0.3c0.2,0,0.4,0.1,0.6,0.2l0.1-0.2c-0.2-0.1-0.5-0.2-0.8-0.2c-0.4,0-0.7,0.3-0.7,0.6v0c0,0.4,0.4,0.5,0.7,0.6
	c0.3,0.1,0.5,0.2,0.5,0.4v0c0,0.2-0.2,0.3-0.5,0.3c-0.3,0-0.5-0.1-0.8-0.3l-0.2,0.2C123.7,237.1,124,237.2,124.3,237.2z"/>
<path fill="#FFFFFF" d="M126.7,237.2c0.7,0,1.2-0.5,1.2-1.1v0c0-0.6-0.5-1.1-1.1-1.1c-0.7,0-1.1,0.5-1.1,1.1v0
	C125.6,236.7,126.1,237.2,126.7,237.2z M126.7,236.9c-0.5,0-0.8-0.4-0.8-0.9v0c0-0.5,0.3-0.8,0.8-0.8c0.5,0,0.8,0.4,0.8,0.9v0
	C127.5,236.5,127.2,236.9,126.7,236.9z"/>
<path fill="#FFFFFF" d="M128.5,237.1h0.3v-1.3c0-0.4,0.3-0.7,0.7-0.7c0.4,0,0.6,0.3,0.6,0.7v1.3h0.3v-1.4c0-0.5-0.3-0.9-0.8-0.9
	c-0.4,0-0.6,0.2-0.8,0.4v-0.4h-0.3V237.1z"/>
<path fill="#FFFFFF" d="M134.6,237.2l0.3-0.2l-0.5-0.5c0.2-0.2,0.3-0.5,0.4-0.7l-0.3-0.1c-0.1,0.2-0.2,0.5-0.4,0.7l-0.7-0.7
	c0.4-0.2,0.7-0.4,0.7-0.8v0c0-0.4-0.3-0.7-0.7-0.7c-0.5,0-0.8,0.3-0.8,0.7v0c0,0.2,0.1,0.4,0.3,0.7c-0.5,0.2-0.7,0.5-0.7,0.9v0
	c0,0.5,0.4,0.8,0.9,0.8c0.4,0,0.7-0.2,1-0.5L134.6,237.2z M133.2,235.4c-0.2-0.2-0.3-0.4-0.3-0.5v0c0-0.2,0.2-0.4,0.4-0.4
	c0.2,0,0.4,0.2,0.4,0.4v0C133.8,235.1,133.6,235.3,133.2,235.4z M133.2,236.9c-0.4,0-0.6-0.2-0.6-0.6v0c0-0.3,0.2-0.5,0.6-0.6
	l0.8,0.8C133.7,236.8,133.4,236.9,133.2,236.9z"/>
<path fill="#FFFFFF" d="M137.7,237.2c0.6,0,1-0.3,1-0.8v0c0-0.5-0.3-0.7-1-0.8c-0.7-0.1-0.8-0.3-0.8-0.6v0c0-0.3,0.2-0.5,0.6-0.5
	c0.3,0,0.6,0.1,0.9,0.3l0.2-0.3c-0.3-0.2-0.6-0.4-1-0.4c-0.6,0-1,0.3-1,0.8v0c0,0.5,0.3,0.7,1,0.9c0.6,0.1,0.8,0.3,0.8,0.6v0
	c0,0.3-0.3,0.5-0.7,0.5c-0.4,0-0.7-0.1-1-0.4l-0.2,0.2C136.8,237,137.2,237.2,137.7,237.2z"/>
<path fill="#FFFFFF" d="M140.3,237.2c0.7,0,1.2-0.5,1.2-1.1v0c0-0.6-0.5-1.1-1.1-1.1c-0.7,0-1.1,0.5-1.1,1.1v0
	C139.2,236.7,139.7,237.2,140.3,237.2z M140.3,236.9c-0.5,0-0.8-0.4-0.8-0.9v0c0-0.5,0.3-0.8,0.8-0.8c0.5,0,0.8,0.4,0.8,0.9v0
	C141.1,236.5,140.8,236.9,140.3,236.9z"/>
<path fill="#FFFFFF" d="M142.1,237.1h0.3v-1.3c0-0.4,0.3-0.7,0.7-0.7c0.4,0,0.6,0.3,0.6,0.7v1.3h0.3v-1.4c0-0.5-0.3-0.9-0.8-0.9
	c-0.4,0-0.6,0.2-0.8,0.4v-0.4h-0.3V237.1z"/>
<path fill="#FFFFFF" d="M144.6,237.7c0.3-0.1,0.5-0.2,0.5-0.6v-0.4h-0.4v0.4h0.2c0,0.2-0.1,0.3-0.3,0.4L144.6,237.7z"/>
<path fill="#FFFFFF" d="M147.1,237.1h0.3v-3h-0.3V237.1z"/>
<path fill="#FFFFFF" d="M148.2,237.1h0.3v-1.3c0-0.4,0.3-0.7,0.7-0.7c0.4,0,0.6,0.3,0.6,0.7v1.3h0.3v-1.4c0-0.5-0.3-0.9-0.8-0.9
	c-0.4,0-0.6,0.2-0.8,0.4v-0.4h-0.3V237.1z"/>
<path fill="#FFFFFF" d="M151.8,237.2c0.4,0,0.7-0.2,0.9-0.4l-0.2-0.2c-0.2,0.2-0.4,0.3-0.7,0.3c-0.5,0-0.8-0.4-0.8-0.9v0
	c0-0.5,0.3-0.8,0.8-0.8c0.3,0,0.5,0.1,0.7,0.3l0.2-0.2c-0.2-0.2-0.5-0.4-0.9-0.4c-0.6,0-1.1,0.5-1.1,1.1v0
	C150.7,236.7,151.2,237.2,151.8,237.2z"/>
<path fill="#FFFFFF" d="M153.2,237.1h0.4v-0.4h-0.4V237.1z"/>
</svg>
