<?xml version="1.0" encoding="utf-8"?>
<!-- Generator: Adobe Illustrator 18.1.1, SVG Export Plug-In . SVG Version: 6.00 Build 0)  -->
<svg version="1.1" id="Layer_1" xmlns="http://www.w3.org/2000/svg" xmlns:xlink="http://www.w3.org/1999/xlink" x="0px" y="0px"
	 width="300px" height="250px" viewBox="0 0 300 250" enable-background="new 0 0 300 250" xml:space="preserve">
<path fill="#FFFFFF" d="M69.4,126.8c14.9,0,23.3-7.3,28.3-16.3l-16.5-9.4c-2.5,4.5-5.7,7.6-11.3,7.6c-6.6,0-11.2-5.5-11.2-13.3v-0.2
	C58.7,88,63.1,82,69.9,82c5.5,0,8.6,3,10.9,7.3l16.5-9.7c-5.1-9.2-14-15.7-27.1-15.7c-17.9,0-31.9,13.4-31.9,31.4v0.2
	C38.3,114.2,52.8,126.8,69.4,126.8z"/>
<path fill="#FFFFFF" d="M101.6,125.5h20v-21.6h18.3v21.6h20V65.2h-20v21.3h-18.3V65.2h-20V125.5z"/>
<path fill="#FFFFFF" d="M162.5,125.5h21.4l3.1-8.1h21l3.2,8.1h21.8l-25.3-60.7h-19.9L162.5,125.5z M192,103.1l5.5-14.6l5.5,14.6H192
	z"/>
<path fill="#FFFFFF" d="M232.8,106.4h29.8v-16h-29.8V106.4z"/>
<path fill="#FFFFFF" d="M62.4,186.6c12,0,18.7-5.9,22.8-13.1l-13.3-7.6c-2,3.6-4.5,6.1-9.1,6.1c-5.3,0-9-4.4-9-10.7v-0.1
	c0-5.8,3.6-10.6,9-10.6c4.4,0,7,2.4,8.8,5.9l13.3-7.8C80.8,141.2,73.6,136,63,136c-14.4,0-25.6,10.8-25.6,25.3v0.1
	C37.4,176.5,49,186.6,62.4,186.6z"/>
<path fill="#FFFFFF" d="M88.3,185.5h16.1v-17.4h14.7v17.4h16.1V137h-16.1v17.1h-14.7V137H88.3V185.5z"/>
<path fill="#FFFFFF" d="M140.9,185.5h16.1V137h-16.1V185.5z"/>
<path fill="#FFFFFF" d="M162.7,185.5h16v-22.4l17.9,22.4H211V137h-16v21.4L177.8,137h-15.1V185.5z"/>
<path fill="#FFFFFF" d="M242.5,186.6c8.8,0,16.1-3,21.3-7.3v-22.4h-23.4v10.4h8.3v4.8c-1.2,0.7-2.8,1.1-5.5,1.1
	c-6.8,0-11.5-4.7-11.5-11.6v-0.1c0-6.6,4.5-11.4,10.8-11.4c4,0,7.5,1.5,10.7,4.2l9-10.9c-5.2-4.6-11.9-7.3-20.2-7.3
	c-15.2,0-26.6,10.8-26.6,25.3v0.1C215.4,176.5,227.4,186.6,242.5,186.6z"/>
</svg>
