<?xml version="1.0" encoding="utf-8"?>
<!-- Generator: Adobe Illustrator 18.1.1, SVG Export Plug-In . SVG Version: 6.00 Build 0)  -->
<svg version="1.1" id="Layer_1" xmlns="http://www.w3.org/2000/svg" xmlns:xlink="http://www.w3.org/1999/xlink" x="0px" y="0px"
	 width="300px" height="250px" viewBox="0 0 300 250" enable-background="new 0 0 300 250" xml:space="preserve">
<path fill="#FFFFFF" d="M49.4,126.2c13.6,0,22.3-6.6,22.3-17.3v-0.1c0-10.3-8.7-14.1-21.6-16.5c-5.3-1-6.7-1.9-6.7-3.3v-0.1
	c0-1.2,1.2-2.1,3.7-2.1c4.7,0,10.4,1.5,15.2,5l8.2-11.5c-5.8-4.7-13.1-7-22.8-7c-13.9,0-21.4,7.5-21.4,17.2v0.1
	c0,10.8,10,14.1,21.3,16.4c5.4,1.1,7,1.9,7,3.4v0.1c0,1.4-1.3,2.2-4.3,2.2c-5.9,0-12.2-1.7-17.7-6l-9,10.9
	C29.9,123.3,39.1,126.2,49.4,126.2z"/>
<path fill="#FFFFFF" d="M100,126.3c15.1,0,25.1-6.8,25.1-24.3V74.3h-17.2v28.3c0,6.2-3.2,8.7-7.8,8.7c-4.5,0-7.8-2.7-7.8-9V74.3
	H75.1v28.1C75.1,119.3,84.9,126.3,100,126.3z"/>
<path fill="#FFFFFF" d="M130.4,125.3h16.9v-13.8h5.5c13.6,0,23-6.6,23-18.9v-0.1c0-12.1-9.2-18.1-22.6-18.1h-22.7V125.3z
	 M147.3,99.3V87.9h4.6c4.5,0,7.1,1.9,7.1,5.6v0.1c0,3.6-2.9,5.6-7.2,5.6H147.3z"/>
<path fill="#FFFFFF" d="M179.4,125.3h43.5v-14H196v-5.5h24.7V93.4H196v-5.2h26.5v-14h-43.1V125.3z"/>
<path fill="#FFFFFF" d="M227.4,125.3h16.9v-14.6h3.6l9.5,14.6h19.3L265,107.9c6.1-3,10-8.2,10-15.6v-0.1c0-5.2-1.6-9-4.6-12.1
	c-3.5-3.6-9.2-5.8-18.2-5.8h-24.7V125.3z M244.3,98.5v-10h7.4c3.9,0,6.4,1.6,6.4,4.9v0.1c0,3.1-2.5,5-6.5,5H244.3z"/>
<path fill="#FFFFFF" d="M41.6,176.2c10.4,0,17-5,17-13.2v-0.1c0-7.8-6.6-10.7-16.5-12.6c-4.1-0.8-5.1-1.4-5.1-2.5v-0.1
	c0-0.9,0.9-1.6,2.8-1.6c3.6,0,7.9,1.2,11.6,3.8l6.3-8.8c-4.5-3.6-10-5.3-17.4-5.3c-10.6,0-16.4,5.7-16.4,13.1v0.1
	c0,8.2,7.6,10.7,16.2,12.5c4.1,0.8,5.3,1.4,5.3,2.6v0.1c0,1.1-1,1.7-3.3,1.7c-4.5,0-9.3-1.3-13.5-4.6l-6.9,8.3
	C26.7,174,33.8,176.2,41.6,176.2z"/>
<path fill="#FFFFFF" d="M57.9,175.5h13.8l2-5.2h13.5l2,5.2h14L87,136.3H74.2L57.9,175.5z M76.9,161l3.5-9.4L84,161H76.9z"/>
<path fill="#FFFFFF" d="M111,175.7h12.3l15.6-39.2h-14.2l-7.5,21.8l-7.5-21.8H95.4L111,175.7z"/>
<path fill="#FFFFFF" d="M140.7,175.5h12.9v-38.9h-12.9V175.5z"/>
<path fill="#FFFFFF" d="M158.1,175.5h12.8v-17.9l14.3,17.9h11.5v-38.9h-12.8v17.2l-13.7-17.2h-12.1V175.5z"/>
<path fill="#FFFFFF" d="M221.8,176.3c7,0,12.8-2.4,17-5.8v-18h-18.7v8.3h6.6v3.9c-1,0.6-2.2,0.9-4.4,0.9c-5.4,0-9.2-3.8-9.2-9.3
	v-0.1c0-5.3,3.6-9.2,8.6-9.2c3.2,0,6,1.2,8.5,3.4l7.2-8.8c-4.2-3.7-9.5-5.9-16.1-5.9c-12.2,0-21.3,8.7-21.3,20.3v0.1
	C200.2,168.2,209.8,176.3,221.8,176.3z"/>
<path fill="#FFFFFF" d="M260.3,176.2c10.4,0,17-5,17-13.2v-0.1c0-7.8-6.6-10.7-16.5-12.6c-4.1-0.8-5.1-1.4-5.1-2.5v-0.1
	c0-0.9,0.9-1.6,2.8-1.6c3.6,0,7.9,1.2,11.6,3.8l6.3-8.8c-4.5-3.6-10-5.3-17.4-5.3c-10.6,0-16.4,5.7-16.4,13.1v0.1
	c0,8.2,7.6,10.7,16.2,12.5c4.1,0.8,5.3,1.4,5.3,2.6v0.1c0,1.1-1,1.7-3.3,1.7c-4.5,0-9.3-1.3-13.5-4.6l-6.9,8.3
	C245.4,174,252.5,176.2,260.3,176.2z"/>
</svg>
