<?xml version="1.0" encoding="utf-8"?>
<!-- Generator: Adobe Illustrator 18.1.1, SVG Export Plug-In . SVG Version: 6.00 Build 0)  -->
<svg version="1.1" id="Layer_1" xmlns="http://www.w3.org/2000/svg" xmlns:xlink="http://www.w3.org/1999/xlink" x="0px" y="0px"
	 width="300px" height="250px" viewBox="0 0 300 250" enable-background="new 0 0 300 250" xml:space="preserve">
<path fill="#FFFFFF" d="M34.1,43.9h4.6V31.6c0-1.7-0.5-3-1.4-4c-0.9-1-2.3-1.5-4.3-1.5c-1.4,0-2.7,0.3-3.7,0.8s-1.8,1.2-2.4,1.9
	v-8.9h-4.6v24h4.6V32.2c0.4-0.5,0.9-1,1.6-1.4c0.7-0.4,1.5-0.6,2.3-0.6c1,0,1.8,0.2,2.4,0.7c0.6,0.5,0.9,1.3,0.9,2.5V43.9z"/>
<path fill="#FFFFFF" d="M51.4,44.4c1.4,0,2.7-0.2,4-0.6c1.3-0.4,2.3-1,3.2-1.8l-2-3c-0.3,0.3-0.6,0.5-1,0.7
	c-0.4,0.2-0.8,0.4-1.2,0.5c-0.4,0.1-0.8,0.3-1.3,0.3c-0.4,0.1-0.8,0.1-1.2,0.1c-1.5,0-2.7-0.4-3.5-1.2c-0.9-0.8-1.3-1.7-1.5-2.8
	h12.9v-1c0-1.4-0.2-2.7-0.6-3.9c-0.4-1.2-1-2.2-1.8-3c-0.8-0.8-1.7-1.5-2.8-2c-1.1-0.5-2.2-0.7-3.5-0.7c-1.3,0-2.5,0.2-3.6,0.7
	c-1.1,0.5-2.1,1.1-2.8,1.9c-0.8,0.8-1.4,1.8-1.9,2.9c-0.4,1.1-0.7,2.3-0.7,3.5c0,1.4,0.2,2.7,0.7,3.8c0.5,1.1,1.1,2.1,1.9,2.9
	c0.8,0.8,1.8,1.4,3,1.8C48.9,44.1,50.1,44.4,51.4,44.4z M55.4,33.6h-8.6c0-0.4,0.2-0.9,0.4-1.3c0.2-0.5,0.5-0.9,0.8-1.2
	c0.3-0.4,0.8-0.7,1.3-0.9c0.5-0.2,1.1-0.4,1.9-0.4c0.7,0,1.4,0.1,1.9,0.4c0.5,0.3,1,0.6,1.3,0.9c0.3,0.4,0.6,0.8,0.8,1.2
	C55.3,32.8,55.4,33.2,55.4,33.6z"/>
<path fill="#FFFFFF" d="M73.6,43.9h4.6V32.7c0-1.2-0.2-2.3-0.6-3.1c-0.4-0.8-1-1.5-1.7-2c-0.7-0.5-1.5-0.9-2.4-1.1s-1.9-0.3-2.8-0.3
	c-1.4,0-2.7,0.2-4,0.7c-1.3,0.4-2.5,1.1-3.6,2.1l1.7,3.1c1.5-1.4,3.2-2.1,5.1-2.1c1.2,0,2.1,0.3,2.8,0.8c0.7,0.5,1,1.2,1,2.1v2.3
	c-0.6-0.7-1.3-1.2-2.3-1.6c-1-0.4-2-0.5-3.2-0.5c-0.7,0-1.4,0.1-2.1,0.3c-0.7,0.2-1.4,0.5-1.9,1c-0.6,0.4-1,1-1.4,1.7
	c-0.4,0.7-0.6,1.6-0.6,2.6c0,1,0.2,1.8,0.6,2.6c0.4,0.7,0.8,1.3,1.4,1.8c0.6,0.5,1.2,0.8,1.9,1.1c0.7,0.2,1.4,0.4,2.1,0.4
	c1.2,0,2.2-0.2,3.2-0.6c1-0.4,1.7-0.9,2.3-1.6V43.9z M69.9,41.3c-0.9,0-1.7-0.2-2.3-0.7c-0.6-0.4-1-1.1-1-1.9c0-0.8,0.3-1.5,1-1.9
	c0.6-0.5,1.4-0.7,2.3-0.7c0.7,0,1.4,0.1,2.1,0.4c0.7,0.3,1.2,0.6,1.6,1.1v2.2c-0.4,0.5-0.9,0.9-1.6,1.1
	C71.4,41.1,70.7,41.3,69.9,41.3z"/>
<path fill="#FFFFFF" d="M88.5,44.4c1,0,1.8-0.1,2.4-0.3c0.6-0.2,1.1-0.5,1.4-0.8l-1-3.5c-0.1,0.1-0.3,0.2-0.6,0.3
	c-0.3,0.1-0.6,0.2-1,0.2c-0.5,0-0.9-0.2-1.2-0.5c-0.3-0.4-0.4-0.8-0.4-1.4v-7.8h3.5v-4h-3.5v-4.8h-4.6v4.8h-2.9v4h2.9v9.1
	c0,1.6,0.4,2.7,1.3,3.5C85.7,44,86.9,44.4,88.5,44.4z"/>
<path fill="#FFFFFF" d="M115.8,43.9h4.6V26.5h-4.6v11.8c-0.4,0.5-0.9,1-1.6,1.4c-0.7,0.4-1.5,0.6-2.3,0.6c-1,0-1.8-0.2-2.3-0.7
	c-0.6-0.5-0.9-1.3-0.9-2.5V26.5h-4.6v12.3c0,1.7,0.5,3,1.4,4c0.9,1,2.3,1.5,4.2,1.5c1.4,0,2.7-0.3,3.7-0.8c1-0.5,1.8-1.1,2.4-1.8
	V43.9z"/>
<path fill="#FFFFFF" d="M134.9,44.4c1.1,0,2.1-0.2,3.1-0.6c0.9-0.4,1.8-1,2.4-1.8c0.7-0.8,1.2-1.7,1.6-2.9c0.4-1.1,0.6-2.4,0.6-3.9
	c0-1.4-0.2-2.7-0.6-3.9c-0.4-1.1-0.9-2.1-1.6-2.9s-1.5-1.4-2.4-1.8c-0.9-0.4-2-0.6-3.1-0.6c-1.1,0-2.1,0.2-3,0.7
	c-0.9,0.5-1.7,1.1-2.4,1.9v-2.2h-4.6v24h4.6v-8.9c0.7,0.9,1.5,1.6,2.4,2C132.9,44.1,133.8,44.4,134.9,44.4z M133.4,40.3
	c-0.7,0-1.5-0.2-2.2-0.6c-0.7-0.4-1.3-0.9-1.7-1.4v-6.2c0.4-0.6,0.9-1,1.7-1.4c0.7-0.4,1.5-0.6,2.2-0.6c1.3,0,2.4,0.5,3.2,1.4
	c0.8,0.9,1.2,2.1,1.2,3.7c0,1.5-0.4,2.7-1.2,3.7C135.8,39.8,134.7,40.3,133.4,40.3z"/>
<path fill="#FFFFFF" d="M156.1,43.9h4.6V30.5h3.5v-4h-3.5v-0.9c0-0.8,0.2-1.4,0.6-1.8c0.4-0.4,0.9-0.6,1.5-0.6
	c0.8,0,1.4,0.2,1.9,0.7l1.7-2.7c-0.6-0.6-1.2-1-2.1-1.3s-1.6-0.4-2.5-0.4c-1.8,0-3.2,0.5-4.2,1.6c-1.1,1.1-1.6,2.6-1.6,4.4v0.9h-2.9
	v4h2.9V43.9z"/>
<path fill="#FFFFFF" d="M175,44.4c1.4,0,2.7-0.2,3.9-0.7c1.1-0.5,2.1-1.2,2.9-2s1.4-1.8,1.8-2.9c0.4-1.1,0.6-2.3,0.6-3.5
	c0-1.2-0.2-2.4-0.6-3.5c-0.4-1.1-1-2.1-1.8-2.9s-1.8-1.5-2.9-2c-1.1-0.5-2.4-0.7-3.9-0.7c-1.4,0-2.7,0.2-3.9,0.7
	c-1.1,0.5-2.1,1.2-2.9,2s-1.4,1.8-1.8,2.9c-0.4,1.1-0.6,2.3-0.6,3.5c0,1.2,0.2,2.4,0.6,3.5c0.4,1.1,1,2.1,1.8,2.9s1.8,1.5,2.9,2
	C172.2,44.1,173.5,44.4,175,44.4z M175,40.3c-0.7,0-1.3-0.1-1.9-0.4c-0.5-0.3-1-0.6-1.4-1.1c-0.4-0.5-0.7-1-0.9-1.6s-0.3-1.3-0.3-2
	c0-0.7,0.1-1.3,0.3-1.9s0.5-1.1,0.9-1.6c0.4-0.5,0.8-0.8,1.4-1.1c0.5-0.3,1.2-0.4,1.9-0.4c0.7,0,1.4,0.1,1.9,0.4
	c0.6,0.3,1,0.6,1.4,1.1c0.4,0.5,0.7,1,0.9,1.6c0.2,0.6,0.3,1.3,0.3,1.9c0,0.7-0.1,1.3-0.3,2c-0.2,0.6-0.5,1.1-0.9,1.6
	c-0.4,0.5-0.8,0.8-1.4,1.1C176.3,40.2,175.7,40.3,175,40.3z"/>
<path fill="#FFFFFF" d="M187.6,43.9h4.6V32.4c0.2-0.3,0.4-0.6,0.8-0.8c0.3-0.2,0.7-0.4,1.1-0.6c0.4-0.2,0.8-0.3,1.2-0.4
	c0.4-0.1,0.8-0.1,1.2-0.1c0.5,0,0.9,0,1.3,0.1v-4.5c-1.1,0-2.1,0.3-3.1,0.8c-1,0.6-1.8,1.2-2.4,2v-2.4h-4.6V43.9z"/>
</svg>
