<?xml version="1.0" encoding="utf-8"?>
<!-- Generator: Adobe Illustrator 18.1.1, SVG Export Plug-In . SVG Version: 6.00 Build 0)  -->
<svg version="1.1" id="Layer_1" xmlns="http://www.w3.org/2000/svg" xmlns:xlink="http://www.w3.org/1999/xlink" x="0px" y="0px"
	 width="44.2px" height="13.1px" viewBox="0 0 44.2 13.1" enable-background="new 0 0 44.2 13.1" xml:space="preserve">
<path fill="#FFFFFF" d="M14.2,3.7c0.7-0.1,1-0.6,0.7-1.2c-0.2-0.5-0.8-0.8-1.2-1.1c-0.9-0.6-2.2-0.9-3.3-1.2C9.9,0.1,9.3,0,8.7,0
	c-0.5,0-1.4-0.2-1.1,0.6c0.4,1,1.9,1.7,2.8,2.2C11.7,3.5,12.8,3.6,14.2,3.7z M13.3,7.3c0.4-0.2,1.1-0.4,0.8-0.9
	c-0.2-0.3-0.9-0.5-1.3-0.6c-1-0.3-2-0.6-3-0.6C8,4.9,6.1,4.8,4.2,5.2c-1,0.2-1.8,0.5-2.8,0.9c-0.5,0.2-1,0.3-1.2,0.8
	c-0.2,0.7,0.5,0.3,1,0.3C2,7.2,3,7.8,3.9,7.9c1,0.1,2,0.3,3,0.3c1.1,0,2.2-0.1,3.2-0.2c0.6-0.1,1.1-0.3,1.6-0.3
	C12.3,7.6,12.8,7.3,13.3,7.3z M15.2,9.6c-0.6-0.4-1.5-0.2-2.1-0.1c-0.7,0.2-1.4,0.4-2.1,0.7c-1.3,0.5-3.1,1.4-3.7,2.7
	c0.7,0.2,1.7,0,2.4-0.1c0.7-0.1,1.5-0.2,2.2-0.4C12.9,12.1,15.8,11.2,15.2,9.6z"/>
<path fill="#FFFFFF" d="M30.2,3.7C32.4,3.6,35,2.9,36.4,1c0.1-0.1,0.4-0.5,0.4-0.7c-0.1-0.4-0.5-0.2-0.7-0.2c-0.6,0-1-0.1-1.7,0
	c-1.1,0.2-2.3,0.4-3.3,0.9c-0.4,0.2-1.2,0.8-1.5,1.2C29.2,2.9,29.3,3.6,30.2,3.7z M31,7.3c0.5,0,0.8,0.3,1.3,0.4
	c0.5,0.1,1,0.1,1.5,0.2c0.9,0.2,1.9,0.2,2.9,0.2c1,0.1,2-0.1,3-0.2c1-0.1,1.9-0.3,2.8-0.5c0.2-0.1,0.4-0.2,0.7-0.2
	c0.2,0,0.5,0.2,0.8,0.1c0.6-0.1,0.2-0.7-0.2-1c-0.4-0.2-1-0.3-1.4-0.5c-0.5-0.2-0.9-0.4-1.4-0.5C39.1,4.9,37,4.9,35.2,5
	c-1.1,0-2.3,0.3-3.3,0.7c-0.4,0.1-1.1,0.3-1.5,0.6C29.8,6.8,30.5,7,31,7.3z M29.1,9.6c-0.5,1.6,2.3,2.5,3.4,2.9
	c0.7,0.2,1.5,0.3,2.2,0.4c0.7,0.1,1.7,0.3,2.4,0.1c-0.6-1.3-2.4-2.3-3.7-2.7C32.7,10,32,9.7,31.3,9.6C30.6,9.4,29.7,9.2,29.1,9.6z"
	/>
</svg>
