<svg xmlns="http://www.w3.org/2000/svg" width="270.625" height="18.281" viewBox="0 0 270.625 18.281">
  <metadata><?xpacket begin="﻿" id="W5M0MpCehiHzreSzNTczkc9d"?>
<x:xmpmeta xmlns:x="adobe:ns:meta/" x:xmptk="Adobe XMP Core 5.6-c138 79.159824, 2016/09/14-01:09:01        ">
   <rdf:RDF xmlns:rdf="http://www.w3.org/1999/02/22-rdf-syntax-ns#">
      <rdf:Description rdf:about=""/>
   </rdf:RDF>
</x:xmpmeta>
                                                                                                    
                                                                                                    
                                                                                                    
                                                                                                    
                                                                                                    
                                                                                                    
                                                                                                    
                                                                                                    
                                                                                                    
                                                                                                    
                                                                                                    
                                                                                                    
                                                                                                    
                                                                                                    
                                                                                                    
                                                                                                    
                                                                                                    
                                                                                                    
                                                                                                    
                                                                                                    
                           
<?xpacket end="w"?></metadata>
<defs>
    <style>
      .cls-1 {
        fill: #fff;
        fill-rule: evenodd;
      }
    </style>
  </defs>
  <path id="CELEBRATE_THE_HOLIDAYS" data-name="CELEBRATE THE HOLIDAYS" class="cls-1" d="M13.673,44.068a8.079,8.079,0,0,0,3.492-.625,3.834,3.834,0,0,0,1.884-2.15,12.2,12.2,0,0,0,.6-4.325V36.893H15.407v0.075a12.743,12.743,0,0,1-.176,2.425,2.22,2.22,0,0,1-.54,1.188,1.441,1.441,0,0,1-1.018.337,1.385,1.385,0,0,1-1.156-.475,3.551,3.551,0,0,1-.528-1.7,33.087,33.087,0,0,1-.151-3.7v-0.25a33.092,33.092,0,0,1,.151-3.7,3.554,3.554,0,0,1,.528-1.7,1.386,1.386,0,0,1,1.156-.475,1.289,1.289,0,0,1,1.231.713,6.461,6.461,0,0,1,.377,2.687v0.075h4.246V32.318a10.494,10.494,0,0,0-.6-3.975,3.649,3.649,0,0,0-1.872-2,8.3,8.3,0,0,0-3.379-.575,7.463,7.463,0,0,0-3.718.75,4.171,4.171,0,0,0-1.809,2.625,21.361,21.361,0,0,0-.528,5.45v0.65a21.359,21.359,0,0,0,.528,5.45,4.171,4.171,0,0,0,1.809,2.625,7.463,7.463,0,0,0,3.718.75h0Zm18.616-.275V40.668H26.46V36.293h5.05V33.168H26.46v-4h5.577V26.043h-9.7v17.75h9.949Zm11.531,0v-3.55H38.946v-14.2h-4.12v17.75H43.82Zm12.134,0V40.668H50.125V36.293h5.05V33.168h-5.05v-4H55.7V26.043h-9.7v17.75h9.949Zm11.682-9.25a3.151,3.151,0,0,0,1.62-1.275,4.286,4.286,0,0,0,.49-2.2v-0.65a4.94,4.94,0,0,0-.59-2.65,3.313,3.313,0,0,0-1.972-1.325,14.717,14.717,0,0,0-3.894-.4h-4.8v17.75h5.3a14.4,14.4,0,0,0,3.919-.413,3.313,3.313,0,0,0,1.985-1.4,5.368,5.368,0,0,0,.6-2.788v-0.65a4.735,4.735,0,0,0-.615-2.612,3.636,3.636,0,0,0-2.047-1.388h0Zm-5.025-5.75H63.34a4.351,4.351,0,0,1,1.47.188,1.135,1.135,0,0,1,.678.65,3.7,3.7,0,0,1,.188,1.337v0.25a3.212,3.212,0,0,1-.188,1.25,1.15,1.15,0,0,1-.691.612,4.369,4.369,0,0,1-1.457.188H62.611V28.793Zm3.467,9.75a4.743,4.743,0,0,1-.188,1.525,1.252,1.252,0,0,1-.691.75,3.779,3.779,0,0,1-1.482.225H62.611V35.968h1.105a4.212,4.212,0,0,1,1.482.2,1.17,1.17,0,0,1,.691.7,4.213,4.213,0,0,1,.188,1.425v0.25ZM85.1,43.793l-2.613-7.15a3.294,3.294,0,0,0,1.733-1.638,7.054,7.054,0,0,0,.528-2.987v-0.65a6.984,6.984,0,0,0-.615-3.262,3.389,3.389,0,0,0-2.047-1.6,13.889,13.889,0,0,0-4.07-.463H73.062v17.75h4.12V37.318H78.79l1.934,6.475H85.1Zm-7.16-9.675H77.182V29.243h0.754a5.074,5.074,0,0,1,1.633.2,1.215,1.215,0,0,1,.754.688,3.955,3.955,0,0,1,.2,1.438v0.25a3.492,3.492,0,0,1-.214,1.363,1.346,1.346,0,0,1-.766.712,4.452,4.452,0,0,1-1.608.225h0Zm22.158,9.675-4.321-17.75h-5.3l-4.321,17.75h4.17l0.628-3.375H95.22l0.628,3.375h4.245Zm-7.009-14.75,1.558,8.325H91.527ZM107.1,43.793v-14.2h3.542v-3.55H99.467v3.55h3.517v14.2h4.12Zm15.526,0V40.668H116.8V36.293h5.05V33.168H116.8v-4h5.577V26.043h-9.7v17.75h9.949Zm15.224,0v-14.2H141.4v-3.55h-11.18v3.55h3.518v14.2h4.12Zm9.7,0V36.618h3.869v7.175h4.12V26.043h-4.12v6.9h-3.869v-6.9h-4.12v17.75h4.12Zm21.254,0V40.668h-5.829V36.293h5.05V33.168h-5.05v-4h5.578V26.043h-9.7v17.75h9.949Zm13.289,0V36.618h3.869v7.175h4.12V26.043h-4.12v6.9h-3.869v-6.9h-4.12v17.75h4.12ZM199.1,44.068a7.817,7.817,0,0,0,3.806-.75,4.205,4.205,0,0,0,1.872-2.625,20.445,20.445,0,0,0,.553-5.45v-0.65a20.447,20.447,0,0,0-.553-5.45,4.205,4.205,0,0,0-1.872-2.625,10.032,10.032,0,0,0-7.612,0,4.165,4.165,0,0,0-1.859,2.625,20.89,20.89,0,0,0-.54,5.45v0.65a20.888,20.888,0,0,0,.54,5.45,4.165,4.165,0,0,0,1.859,2.625,7.82,7.82,0,0,0,3.806.75h0Zm0-3.15a1.521,1.521,0,0,1-1.243-.5,3.489,3.489,0,0,1-.578-1.725,29.982,29.982,0,0,1-.163-3.65v-0.25a29.991,29.991,0,0,1,.163-3.65,3.492,3.492,0,0,1,.578-1.725,1.522,1.522,0,0,1,1.243-.5,1.561,1.561,0,0,1,1.256.5,3.424,3.424,0,0,1,.591,1.738,30.034,30.034,0,0,1,.163,3.637v0.25a30.034,30.034,0,0,1-.163,3.638,3.422,3.422,0,0,1-.591,1.737,1.559,1.559,0,0,1-1.256.5h0Zm18.063,2.875v-3.55h-4.873v-14.2h-4.121v17.75h8.994Zm6.306,0V26.043h-4.12v17.75h4.12Zm3.316,0h5.3a9.343,9.343,0,0,0,4.12-.725,4.144,4.144,0,0,0,2.035-2.55,17.7,17.7,0,0,0,.6-5.275v-0.65a17.707,17.707,0,0,0-.6-5.275,4.146,4.146,0,0,0-2.035-2.55,9.349,9.349,0,0,0-4.12-.725h-5.3v17.75Zm4.12-3.225V29.243h0.98a2.73,2.73,0,0,1,1.746.463,2.577,2.577,0,0,1,.766,1.6,21.938,21.938,0,0,1,.2,3.488v0.25a21.931,21.931,0,0,1-.2,3.488,2.515,2.515,0,0,1-.766,1.587,2.785,2.785,0,0,1-1.746.45h-0.98ZM254,43.793l-4.321-17.75h-5.3l-4.321,17.75h4.17l0.628-3.375h4.271l0.628,3.375H254Zm-7.009-14.75,1.557,8.325h-3.115Zm14.847-3-2.361,7.475-2.362-7.475h-4.4l4.648,11.425v6.325h4.12V37.468l4.648-11.425h-4.3ZM272.36,44.068a9.155,9.155,0,0,0,3.467-.537,3.477,3.477,0,0,0,1.859-1.738,7.521,7.521,0,0,0,.578-3.225,6.345,6.345,0,0,0-.741-3.225,3.991,3.991,0,0,0-2.136-1.788l-1.6-.587-0.879-.35a9.108,9.108,0,0,1-1.206-.525,1.835,1.835,0,0,1-.666-0.65,2.165,2.165,0,0,1-.264-1.15,1.418,1.418,0,0,1,1.633-1.575,1.628,1.628,0,0,1,1.307.45,2.2,2.2,0,0,1,.376,1.425v0.375h3.744V30.593a6.679,6.679,0,0,0-.5-2.863,3,3,0,0,0-1.633-1.5,8.538,8.538,0,0,0-3.14-.462,6.6,6.6,0,0,0-4.359,1.15,4.846,4.846,0,0,0-1.319,3.825,5.729,5.729,0,0,0,.553,2.738,3.785,3.785,0,0,0,1.344,1.488,13.272,13.272,0,0,0,2.123.975l0.954,0.375q0.981,0.375,1.432.6a1.941,1.941,0,0,1,.779.763,2.805,2.805,0,0,1,.327,1.462,2.252,2.252,0,0,1-.415,1.487,1.85,1.85,0,0,1-1.469.488,1.874,1.874,0,0,1-1.608-.613,3.562,3.562,0,0,1-.452-2.062V37.868h-3.794v0.65a8.282,8.282,0,0,0,.528,3.288,3.286,3.286,0,0,0,1.758,1.725,8.762,8.762,0,0,0,3.417.537h0Z" transform="translate(-7.625 -25.781)"/>
</svg>
