<svg id="CTA" xmlns="http://www.w3.org/2000/svg" width="72.25" height="15.469" viewBox="0 0 72.25 15.469">
  <metadata><?xpacket begin="﻿" id="W5M0MpCehiHzreSzNTczkc9d"?>
<x:xmpmeta xmlns:x="adobe:ns:meta/" x:xmptk="Adobe XMP Core 5.6-c138 79.159824, 2016/09/14-01:09:01        ">
   <rdf:RDF xmlns:rdf="http://www.w3.org/1999/02/22-rdf-syntax-ns#">
      <rdf:Description rdf:about=""/>
   </rdf:RDF>
</x:xmpmeta>
                                                                                                    
                                                                                                    
                                                                                                    
                                                                                                    
                                                                                                    
                                                                                                    
                                                                                                    
                                                                                                    
                                                                                                    
                                                                                                    
                                                                                                    
                                                                                                    
                                                                                                    
                                                                                                    
                                                                                                    
                                                                                                    
                                                                                                    
                                                                                                    
                                                                                                    
                                                                                                    
                           
<?xpacket end="w"?></metadata>
<defs>
    <style>
      .cls-1, .cls-2 {
        fill-rule: evenodd;
      }

      .cls-2 {
        fill: #fff;
      }
    </style>
  </defs>
  <path id="Rounded_Rectangle_1" data-name="Rounded Rectangle 1" class="cls-1" d="M225.75,27.145H288a5,5,0,0,1,5,5v5.478a5,5,0,0,1-5,5H225.75a5,5,0,0,1-5-5V32.145A5,5,0,0,1,225.75,27.145Z" transform="translate(-220.75 -27.156)"/>
  <path id="SHOP_NOW" data-name="SHOP NOW" class="cls-2" d="M231.009,39.361a4.674,4.674,0,0,0,1.785-.279,1.8,1.8,0,0,0,.957-0.9,3.932,3.932,0,0,0,.3-1.677,3.319,3.319,0,0,0-.382-1.677,2.058,2.058,0,0,0-1.1-.929l-0.822-.306-0.452-.182a4.729,4.729,0,0,1-.621-0.273,0.945,0.945,0,0,1-.343-0.338,1.131,1.131,0,0,1-.136-0.6,0.734,0.734,0,0,1,.841-0.819,0.834,0.834,0,0,1,.673.234,1.155,1.155,0,0,1,.194.741v0.2h1.927v-0.2a3.5,3.5,0,0,0-.259-1.488,1.55,1.55,0,0,0-.84-0.78,4.365,4.365,0,0,0-1.617-.241,3.377,3.377,0,0,0-2.245.6,2.533,2.533,0,0,0-.679,1.989,3,3,0,0,0,.285,1.423,1.957,1.957,0,0,0,.692.773,6.8,6.8,0,0,0,1.093.507l0.491,0.2c0.337,0.13.582,0.234,0.738,0.312a1,1,0,0,1,.4.4,1.473,1.473,0,0,1,.168.761,1.177,1.177,0,0,1-.214.773,0.946,0.946,0,0,1-.756.254,0.96,0.96,0,0,1-.828-0.319,1.871,1.871,0,0,1-.233-1.072v-0.3h-1.953v0.338a4.352,4.352,0,0,0,.271,1.709,1.7,1.7,0,0,0,.906.9,4.469,4.469,0,0,0,1.759.279h0Zm6.494-.143V35.487H239.5v3.731h2.122v-9.23H239.5v3.588H237.5V29.988h-2.122v9.23H237.5Zm8.757,0.143a3.993,3.993,0,0,0,1.96-.39,2.188,2.188,0,0,0,.964-1.365,10.709,10.709,0,0,0,.285-2.834V34.434a10.709,10.709,0,0,0-.285-2.834,2.188,2.188,0,0,0-.964-1.365,5.118,5.118,0,0,0-3.919,0,2.167,2.167,0,0,0-.958,1.365,10.982,10.982,0,0,0-.278,2.834v0.338a10.982,10.982,0,0,0,.278,2.834,2.167,2.167,0,0,0,.958,1.365,3.989,3.989,0,0,0,1.959.39h0Zm0-1.638a0.78,0.78,0,0,1-.64-0.26,1.832,1.832,0,0,1-.3-0.9,15.516,15.516,0,0,1-.085-1.9v-0.13a15.518,15.518,0,0,1,.085-1.9,1.833,1.833,0,0,1,.3-0.9,0.78,0.78,0,0,1,.64-0.26,0.8,0.8,0,0,1,.647.26,1.788,1.788,0,0,1,.3.9,15.794,15.794,0,0,1,.084,1.892v0.13a15.794,15.794,0,0,1-.084,1.892,1.788,1.788,0,0,1-.3.9,0.8,0.8,0,0,1-.647.26h0Zm4.67,1.495h2.122V36.007h0.44a6.754,6.754,0,0,0,2.089-.253,1.778,1.778,0,0,0,1.06-.865,3.778,3.778,0,0,0,.317-1.716V32.835a3.814,3.814,0,0,0-.317-1.729,1.779,1.779,0,0,0-1.06-.864,6.754,6.754,0,0,0-2.089-.253H250.93v9.23Zm2.122-4.875V31.652h0.4a2.274,2.274,0,0,1,.828.117,0.668,0.668,0,0,1,.388.383,2.287,2.287,0,0,1,.1.787v0.13a2.237,2.237,0,0,1-.1.773,0.668,0.668,0,0,1-.388.383,2.274,2.274,0,0,1-.828.117h-0.4Zm13.026,1.794-2.264-6.149H261.46v9.23h1.824V33.069l2.264,6.149H267.9v-9.23h-1.824v6.149Zm6.481,3.224a3.993,3.993,0,0,0,1.96-.39,2.187,2.187,0,0,0,.963-1.365,10.709,10.709,0,0,0,.285-2.834V34.434a10.709,10.709,0,0,0-.285-2.834,2.187,2.187,0,0,0-.963-1.365,5.12,5.12,0,0,0-3.92,0,2.162,2.162,0,0,0-.957,1.365,10.938,10.938,0,0,0-.278,2.834v0.338a10.937,10.937,0,0,0,.278,2.834,2.162,2.162,0,0,0,.957,1.365,3.993,3.993,0,0,0,1.96.39h0Zm0-1.638a0.782,0.782,0,0,1-.641-0.26,1.832,1.832,0,0,1-.3-0.9,15.768,15.768,0,0,1-.084-1.9v-0.13a15.77,15.77,0,0,1,.084-1.9,1.833,1.833,0,0,1,.3-0.9,0.782,0.782,0,0,1,.641-0.26,0.8,0.8,0,0,1,.647.26,1.807,1.807,0,0,1,.3.9,15.794,15.794,0,0,1,.084,1.892v0.13a15.794,15.794,0,0,1-.084,1.892,1.807,1.807,0,0,1-.3.9,0.8,0.8,0,0,1-.647.26h0Zm11.836-.468-1.319-7.267H280.76l-1.319,7.228-0.957-7.228h-2.07l1.694,9.23h2.536l1.216-6.786,1.2,6.786H285.6l1.695-9.23h-1.928Z" transform="translate(-220.75 -27.156)"/>
</svg>
