<svg id="CTA" xmlns="http://www.w3.org/2000/svg" width="178.281" height="37.781" viewBox="0 0 178.281 37.781">
  <metadata><?xpacket begin="﻿" id="W5M0MpCehiHzreSzNTczkc9d"?>
<x:xmpmeta xmlns:x="adobe:ns:meta/" x:xmptk="Adobe XMP Core 5.6-c138 79.159824, 2016/09/14-01:09:01        ">
   <rdf:RDF xmlns:rdf="http://www.w3.org/1999/02/22-rdf-syntax-ns#">
      <rdf:Description rdf:about=""/>
   </rdf:RDF>
</x:xmpmeta>
                                                                                                    
                                                                                                    
                                                                                                    
                                                                                                    
                                                                                                    
                                                                                                    
                                                                                                    
                                                                                                    
                                                                                                    
                                                                                                    
                                                                                                    
                                                                                                    
                                                                                                    
                                                                                                    
                                                                                                    
                                                                                                    
                                                                                                    
                                                                                                    
                                                                                                    
                                                                                                    
                           
<?xpacket end="w"?></metadata>
<defs>
    <style>
      .cls-1, .cls-2 {
        fill-rule: evenodd;
      }

      .cls-2 {
        fill: #fff;
      }
    </style>
  </defs>
  <path id="Rounded_Rectangle_1" data-name="Rounded Rectangle 1" class="cls-1" d="M537.729,44.205H706a5,5,0,0,1,5,5V77a5,5,0,0,1-5,5H537.729a5,5,0,0,1-5-5V49.205A5,5,0,0,1,537.729,44.205Z" transform="translate(-532.719 -44.219)"/>
  <path id="SAVE_NOW" data-name="SAVE NOW" class="cls-2" d="M553.464,76.76a12.488,12.488,0,0,0,4.722-.731,4.733,4.733,0,0,0,2.531-2.363,10.206,10.206,0,0,0,.787-4.386,8.627,8.627,0,0,0-1.009-4.386,5.429,5.429,0,0,0-2.908-2.431q-1.9-.7-2.173-0.8l-1.2-.476a12.506,12.506,0,0,1-1.642-.714,2.5,2.5,0,0,1-.907-0.884,2.948,2.948,0,0,1-.359-1.564,1.93,1.93,0,0,1,2.224-2.142,2.217,2.217,0,0,1,1.779.612,2.992,2.992,0,0,1,.513,1.938v0.51h5.1v-0.51a9.076,9.076,0,0,0-.685-3.893,4.089,4.089,0,0,0-2.223-2.04,11.654,11.654,0,0,0-4.277-.629q-4.14,0-5.936,1.564t-1.8,5.2a7.788,7.788,0,0,0,.753,3.723,5.157,5.157,0,0,0,1.83,2.023,18.117,18.117,0,0,0,2.891,1.326l1.3,0.51q1.335,0.51,1.95.816a2.644,2.644,0,0,1,1.061,1.037,3.82,3.82,0,0,1,.444,1.989,3.067,3.067,0,0,1-.564,2.023,2.524,2.524,0,0,1-2,.663,2.554,2.554,0,0,1-2.19-.833,4.841,4.841,0,0,1-.616-2.805V68.328H545.7v0.884a11.257,11.257,0,0,0,.719,4.471,4.475,4.475,0,0,0,2.394,2.346,11.946,11.946,0,0,0,4.653.731h0Zm28.5-.374-5.884-24.14H568.86l-5.885,24.14h5.68l0.855-4.59h5.816l0.855,4.59h5.782Zm-9.545-20.06,2.121,11.322H570.3Zm18.338,14.79L587.4,52.246H581.45l5.679,24.14h7.116l5.68-24.14h-5.851Zm25.112,5.27v-4.25H607.93v-5.95h6.877v-4.25H607.93V56.5h7.6v-4.25H602.32v24.14h13.548Zm24.7-8.058-5.987-16.082h-6.227v24.14h4.824V60.3l5.987,16.082h6.227V52.246h-4.824V68.328Zm17.14,8.432a10.657,10.657,0,0,0,5.183-1.02,5.724,5.724,0,0,0,2.549-3.57,27.735,27.735,0,0,0,.753-7.412V63.874a27.737,27.737,0,0,0-.753-7.412,5.724,5.724,0,0,0-2.549-3.57,13.678,13.678,0,0,0-10.366,0,5.668,5.668,0,0,0-2.532,3.57,28.387,28.387,0,0,0-.735,7.412v0.884a28.385,28.385,0,0,0,.735,7.412,5.668,5.668,0,0,0,2.532,3.57,10.659,10.659,0,0,0,5.183,1.02h0Zm0-4.284a2.073,2.073,0,0,1-1.693-.68,4.739,4.739,0,0,1-.787-2.346,40.607,40.607,0,0,1-.222-4.964v-0.34a40.616,40.616,0,0,1,.222-4.964,4.742,4.742,0,0,1,.787-2.346,2.074,2.074,0,0,1,1.693-.68,2.128,2.128,0,0,1,1.711.68,4.669,4.669,0,0,1,.8,2.363,40.882,40.882,0,0,1,.222,4.947v0.34a40.882,40.882,0,0,1-.222,4.947,4.667,4.667,0,0,1-.8,2.363,2.126,2.126,0,0,1-1.711.68h0Zm31.305-1.224-3.49-19.006H679.4l-3.49,18.9-2.531-18.9H667.9l4.482,24.14h6.705l3.216-17.748,3.182,17.748H692.2l4.481-24.14h-5.1Z" transform="translate(-532.719 -44.219)"/>
</svg>
