<svg id="CTA" xmlns="http://www.w3.org/2000/svg" width="105" height="28" viewBox="0 0 105 28">
  <metadata><?xpacket begin="﻿" id="W5M0MpCehiHzreSzNTczkc9d"?>
<x:xmpmeta xmlns:x="adobe:ns:meta/" x:xmptk="Adobe XMP Core 5.6-c138 79.159824, 2016/09/14-01:09:01        ">
   <rdf:RDF xmlns:rdf="http://www.w3.org/1999/02/22-rdf-syntax-ns#">
      <rdf:Description rdf:about=""/>
   </rdf:RDF>
</x:xmpmeta>
                                                                                                    
                                                                                                    
                                                                                                    
                                                                                                    
                                                                                                    
                                                                                                    
                                                                                                    
                                                                                                    
                                                                                                    
                                                                                                    
                                                                                                    
                                                                                                    
                                                                                                    
                                                                                                    
                                                                                                    
                                                                                                    
                                                                                                    
                                                                                                    
                                                                                                    
                                                                                                    
                           
<?xpacket end="w"?></metadata>
<defs>
    <style>
      .cls-1 {
        fill: #fffefe;
        fill-rule: evenodd;
      }
    </style>
  </defs>
  <rect id="Rounded_Rectangle_1" data-name="Rounded Rectangle 1" width="105" height="28" rx="5" ry="5"/>
  <path id="SHOP_NOW" data-name="SHOP NOW" class="cls-1" d="M15.963,442.965a7.336,7.336,0,0,0,2.774-.43,2.784,2.784,0,0,0,1.487-1.39,6.015,6.015,0,0,0,.462-2.58,5.077,5.077,0,0,0-.593-2.58,3.189,3.189,0,0,0-1.708-1.43l-1.276-.47-0.7-.28a7.359,7.359,0,0,1-.965-0.42,1.465,1.465,0,0,1-.533-0.52,1.734,1.734,0,0,1-.211-0.92A1.135,1.135,0,0,1,16,430.685a1.3,1.3,0,0,1,1.045.36,1.761,1.761,0,0,1,.3,1.14v0.3h2.995v-0.3a5.345,5.345,0,0,0-.4-2.29,2.406,2.406,0,0,0-1.306-1.2,6.825,6.825,0,0,0-2.512-.37,5.284,5.284,0,0,0-3.487.92,3.874,3.874,0,0,0-1.055,3.06,4.587,4.587,0,0,0,.442,2.19,3.03,3.03,0,0,0,1.075,1.19,10.717,10.717,0,0,0,1.7.78l0.764,0.3q0.784,0.3,1.146.48a1.552,1.552,0,0,1,.623.61,2.249,2.249,0,0,1,.261,1.17,1.805,1.805,0,0,1-.332,1.19,1.482,1.482,0,0,1-1.176.39,1.5,1.5,0,0,1-1.286-.49,2.855,2.855,0,0,1-.362-1.65v-0.46H11.4v0.52a6.63,6.63,0,0,0,.422,2.63,2.635,2.635,0,0,0,1.407,1.38,7.018,7.018,0,0,0,2.734.43h0Zm10.09-.22v-5.74h3.1v5.74h3.3v-14.2h-3.3v5.52h-3.1v-5.52h-3.3v14.2h3.3Zm13.607,0.22a6.255,6.255,0,0,0,3.045-.6,3.368,3.368,0,0,0,1.5-2.1,16.349,16.349,0,0,0,.442-4.36v-0.52a16.349,16.349,0,0,0-.442-4.36,3.368,3.368,0,0,0-1.5-2.1,6.255,6.255,0,0,0-3.045-.6,6.255,6.255,0,0,0-3.045.6,3.331,3.331,0,0,0-1.487,2.1,16.7,16.7,0,0,0-.432,4.36v0.52a16.7,16.7,0,0,0,.432,4.36,3.331,3.331,0,0,0,1.487,2.1,6.255,6.255,0,0,0,3.045.6h0Zm0-2.52a1.217,1.217,0,0,1-.995-0.4,2.8,2.8,0,0,1-.462-1.38,23.96,23.96,0,0,1-.131-2.92v-0.2a23.96,23.96,0,0,1,.131-2.92,2.8,2.8,0,0,1,.462-1.38,1.217,1.217,0,0,1,.995-0.4,1.248,1.248,0,0,1,1.005.4,2.744,2.744,0,0,1,.472,1.39,24.056,24.056,0,0,1,.131,2.91v0.2a24.056,24.056,0,0,1-.131,2.91,2.744,2.744,0,0,1-.472,1.39,1.248,1.248,0,0,1-1.005.4h0Zm7.256,2.3h3.3v-4.94H50.9a10.587,10.587,0,0,0,3.246-.39,2.757,2.757,0,0,0,1.648-1.33,5.781,5.781,0,0,0,.492-2.64v-0.52a5.834,5.834,0,0,0-.492-2.66,2.757,2.757,0,0,0-1.648-1.33,10.587,10.587,0,0,0-3.246-.39h-3.98v14.2Zm3.3-7.5v-4.14h0.623a3.562,3.562,0,0,1,1.286.18,1.032,1.032,0,0,1,.6.59,3.485,3.485,0,0,1,.161,1.21v0.2a3.408,3.408,0,0,1-.161,1.19,1.032,1.032,0,0,1-.6.59,3.562,3.562,0,0,1-1.286.18H50.212Zm20.24,2.76-3.517-9.46H63.276v14.2H66.11v-9.46l3.517,9.46h3.658v-14.2H70.452v9.46Zm10.07,4.96a6.255,6.255,0,0,0,3.045-.6,3.367,3.367,0,0,0,1.5-2.1,16.349,16.349,0,0,0,.442-4.36v-0.52a16.349,16.349,0,0,0-.442-4.36,3.367,3.367,0,0,0-1.5-2.1,8.027,8.027,0,0,0-6.09,0,3.331,3.331,0,0,0-1.487,2.1,16.7,16.7,0,0,0-.432,4.36v0.52a16.7,16.7,0,0,0,.432,4.36,3.331,3.331,0,0,0,1.487,2.1,6.255,6.255,0,0,0,3.045.6h0Zm0-2.52a1.217,1.217,0,0,1-.995-0.4,2.8,2.8,0,0,1-.462-1.38,23.96,23.96,0,0,1-.131-2.92v-0.2a23.96,23.96,0,0,1,.131-2.92,2.8,2.8,0,0,1,.462-1.38,1.217,1.217,0,0,1,.995-0.4,1.248,1.248,0,0,1,1.005.4,2.744,2.744,0,0,1,.472,1.39,24.06,24.06,0,0,1,.131,2.91v0.2a24.06,24.06,0,0,1-.131,2.91,2.744,2.744,0,0,1-.472,1.39,1.248,1.248,0,0,1-1.005.4h0Zm18.391-.72-2.05-11.18h-3.6l-2.05,11.12-1.487-11.12H86.511l2.633,14.2h3.939l1.889-10.44,1.869,10.44h3.939l2.633-14.2H100.42Z" transform="translate(-5 -421)"/>
</svg>
