<?xml version="1.0" encoding="utf-8"?>
<!-- Generator: Adobe Illustrator 18.1.1, SVG Export Plug-In . SVG Version: 6.00 Build 0)  -->
<svg version="1.1" id="Layer_1" xmlns="http://www.w3.org/2000/svg" xmlns:xlink="http://www.w3.org/1999/xlink" x="0px" y="0px"
	 width="14px" height="14px" viewBox="-142 119 14 14" enable-background="new -142 119 14 14" xml:space="preserve">
<path fill="#FFFFFF" d="M-128,124.2h-5.2l2-2c-1-1-2.3-1.5-3.7-1.5c-1.4,0-2.8,0.6-3.8,1.6s-1.5,2.3-1.5,3.7s0.5,2.7,1.5,3.7
	s2.3,1.5,3.7,1.5s2.7-0.5,3.7-1.5c0.1-0.1,0.2-0.2,0.2-0.3l1.3,1.2c-1.2,1.5-3.1,2.4-5.2,2.4c-3.9,0-7-3.1-7-7c0-3.9,3.1-7,7-7
	c1.9,0,3.7,0.8,4.9,2.1l2.1-2.1V124.2z"/>
</svg>
