<?xml version="1.0" encoding="utf-8"?>
<!-- Generator: Adobe Illustrator 18.1.1, SVG Export Plug-In . SVG Version: 6.00 Build 0)  -->
<svg version="1.1" id="Layer_1" xmlns="http://www.w3.org/2000/svg" xmlns:xlink="http://www.w3.org/1999/xlink" x="0px" y="0px"
	 width="90.8px" height="25.7px" viewBox="0 0 90.8 25.7" enable-background="new 0 0 90.8 25.7" xml:space="preserve">
<path fill="#204182" d="M0.6,8.9h0.9V5.8h2c1.8,0,3.3-1,3.3-2.9v0c0-1.7-1.2-2.8-3.1-2.8H0.6V8.9z M1.6,4.9V1.1h2.1
	C5.1,1.1,6,1.7,6,3v0c0,1.1-0.9,1.9-2.3,1.9H1.6z"/>
<path fill="#204182" d="M8.6,8.9h5.7V8H9.6V0.1H8.6V8.9z"/>
<path fill="#204182" d="M15.3,8.9h1l1-2.3h4.6l1,2.3h1L20,0.1h-0.9L15.3,8.9z M17.6,5.7l1.9-4.5l1.9,4.5H17.6z"/>
<path fill="#204182" d="M28.2,9C29.8,9,31,8,31,6.5v0c0-1.3-0.9-2-2.7-2.5C26.5,3.6,26,3.2,26,2.3v0c0-0.8,0.7-1.4,1.8-1.4
	c0.9,0,1.6,0.3,2.4,0.9l0.6-0.8c-0.9-0.7-1.7-1.1-3-1.1c-1.6,0-2.8,1-2.8,2.4v0c0,1.4,0.9,2.1,2.8,2.5c1.8,0.4,2.2,0.8,2.2,1.7v0
	c0,0.9-0.7,1.5-1.9,1.5c-1.2,0-2-0.4-2.9-1.2l-0.6,0.7C25.8,8.6,26.8,9,28.2,9z"/>
<path fill="#204182" d="M35,8.9h1V1.1h2.8V0.1h-6.6v0.9H35V8.9z"/>
<path fill="#204182" d="M40.6,8.9h0.9V0.1h-0.9V8.9z"/>
<path fill="#204182" d="M47.8,9c1.5,0,2.5-0.6,3.4-1.5l-0.6-0.6c-0.8,0.8-1.6,1.3-2.7,1.3c-1.8,0-3.3-1.6-3.3-3.6v0
	c0-2,1.4-3.6,3.3-3.6c1.1,0,1.9,0.5,2.6,1.2l0.6-0.7C50.3,0.6,49.4,0,47.8,0c-2.5,0-4.2,2-4.2,4.5v0C43.6,7.1,45.4,9,47.8,9z"/>
<path fill="#204182" d="M52.2,5.6h3.3v-1h-3.3V5.6z"/>
<path fill="#204182" d="M57.5,8.9h0.9V5.1H63V4.2h-4.5V1.1h5.1V0.1h-6V8.9z"/>
<path fill="#204182" d="M65.4,8.9h0.9V5.5h2.4h0l2.4,3.4h1.2l-2.6-3.6C71,5.1,72,4.2,72,2.8v0c0-0.7-0.2-1.3-0.6-1.7
	C70.8,0.5,70,0.1,69,0.1h-3.6V8.9z M66.3,4.6V1.1h2.6c1.4,0,2.1,0.6,2.1,1.7v0c0,1.1-0.9,1.8-2.2,1.8H66.3z"/>
<path fill="#204182" d="M74,8.9h6.1V8h-5.2V4.9h4.6V4h-4.6V1h5.1V0.1H74V8.9z"/>
<path fill="#204182" d="M82,8.9h6.1V8h-5.2V4.9h4.6V4h-4.6V1h5.1V0.1H82V8.9z"/>
<path fill="#204182" d="M89.7,8.9h1.1V7.6h-1.1V8.9z"/>
<path fill="#204182" d="M3,25.6h0.8l2.3-7.1l2.3,7.1h0.8l3-8.8h-1l-2.4,7.3l-2.3-7.3H5.7l-2.3,7.3L1,16.8H0L3,25.6z"/>
<path fill="#204182" d="M17.4,25.7c2.6,0,4.3-2.1,4.3-4.5c0,0,0,0,0,0c0-2.4-1.7-4.5-4.3-4.5s-4.3,2.1-4.3,4.5v0
	C13.1,23.6,14.8,25.7,17.4,25.7z M17.4,24.8c-1.9,0-3.3-1.6-3.3-3.6v0c0-2,1.4-3.6,3.3-3.6c1.9,0,3.3,1.6,3.3,3.6v0
	C20.7,23.2,19.3,24.8,17.4,24.8z"/>
<path fill="#204182" d="M23.6,25.6h0.9v-3.4H27h0l2.4,3.4h1.2L28,22c1.3-0.2,2.3-1.1,2.3-2.5v0c0-0.7-0.2-1.3-0.6-1.7
	c-0.5-0.5-1.4-0.9-2.4-0.9h-3.6V25.6z M24.6,21.3v-3.5h2.6c1.4,0,2.1,0.6,2.1,1.7v0c0,1.1-0.9,1.8-2.2,1.8H24.6z"/>
<path fill="#204182" d="M32.3,25.6h0.9v-3.4h2.4h0l2.4,3.4h1.2L36.6,22c1.3-0.2,2.3-1.1,2.3-2.5v0c0-0.7-0.2-1.3-0.6-1.7
	c-0.5-0.5-1.4-0.9-2.4-0.9h-3.6V25.6z M33.2,21.3v-3.5h2.6c1.4,0,2.1,0.6,2.1,1.7v0c0,1.1-0.9,1.8-2.2,1.8H33.2z"/>
<path fill="#204182" d="M43.2,25.6h1v-3.5l3.5-5.3h-1.1l-2.9,4.4l-2.8-4.4h-1.2l3.5,5.3V25.6z"/>
<path fill="#204182" d="M47.8,22.3h3.3v-1h-3.3V22.3z"/>
<path fill="#204182" d="M53.1,25.6H54v-3.8h4.5v-0.9H54v-3.1h5.1v-0.9h-6V25.6z"/>
<path fill="#204182" d="M60.9,25.6h0.9v-3.4h2.4h0l2.4,3.4h1.2L65.3,22c1.3-0.2,2.3-1.1,2.3-2.5v0c0-0.7-0.2-1.3-0.6-1.7
	c-0.5-0.5-1.4-0.9-2.4-0.9h-3.6V25.6z M61.8,21.3v-3.5h2.6c1.4,0,2.1,0.6,2.1,1.7v0c0,1.1-0.9,1.8-2.2,1.8H61.8z"/>
<path fill="#204182" d="M69.5,25.6h6.1v-0.9h-5.2v-3.1h4.6v-0.9h-4.6v-3h5.1v-0.9h-6.1V25.6z"/>
<path fill="#204182" d="M77.5,25.6h6.1v-0.9h-5.2v-3.1h4.6v-0.9h-4.6v-3h5.1v-0.9h-6.1V25.6z"/>
<path fill="#204182" d="M85.3,25.6h1.1v-1.3h-1.1V25.6z"/>
</svg>
