<?xml version="1.0" encoding="utf-8"?>
<!-- Generator: Adobe Illustrator 18.1.1, SVG Export Plug-In . SVG Version: 6.00 Build 0)  -->
<svg version="1.1" id="Layer_1" xmlns="http://www.w3.org/2000/svg" xmlns:xlink="http://www.w3.org/1999/xlink" x="0px" y="0px"
	 viewBox="197 0 103 250" enable-background="new 197 0 103 250" xml:space="preserve">
<g id="Layer_1_1_">
	<g>
		<rect x="199.2" y="2.2" fill="#FFFFFF" width="98.5" height="245.5"/>
		<path fill="#0092D1" d="M300,250H197V0h103V250z M201.5,245.5h94V4.5h-94V245.5z"/>
	</g>
	<g enable-background="new    ">
		<path fill="#0092D1" d="M230.6,11.3h5c2.2,0,3.8,1.4,3.8,3.7c0,1.6-0.8,2.7-1.9,3.3l0,0c1.5,0.4,2.5,1.9,2.5,3.8
			c0,2.5-1.8,4.1-4.1,4.1h-5.2V11.3H230.6z M235.6,18c1.7,0,2.8-1.1,2.8-2.9c0-1.7-1.1-2.9-2.9-2.9h-4V18H235.6z M235.8,25.4
			c2,0,3.3-1.2,3.3-3.3c0-2-1.4-3.3-3.3-3.3h-4.3v6.6C231.5,25.4,235.8,25.4,235.8,25.4z"/>
		<path fill="#0092D1" d="M243.8,11.3h0.9v14.9h-0.9V11.3z"/>
		<path fill="#0092D1" d="M249.3,11.3h0.9v14h7.1v0.9h-8V11.3z"/>
		<path fill="#0092D1" d="M260.1,11.3h0.9v14h7.1v0.9h-8V11.3z"/>
	</g>
	<g enable-background="new    ">
		<path fill="#C9C9C9" d="M280.8,38.7c0,0,1,1,2.5,1c1,0,1.9-0.6,1.9-1.6c0-2.3-4.8-1.8-4.8-4.7c0-1.2,1-2.3,2.5-2.5v-1.3h0.8v1.2
			c1.5,0.1,2.2,0.9,2.2,0.9l-0.5,0.8c0,0-0.8-0.8-2.1-0.8s-2,0.8-2,1.6c0,2.2,4.7,1.7,4.7,4.7c0,1.3-0.9,2.4-2.5,2.5v1.2h-0.8v-1.2
			c-1.7-0.1-2.6-1.2-2.6-1.2L280.8,38.7z"/>
	</g>
	<g>
		<g>
			<line fill="none" stroke="#C9C9C9" stroke-width="1.0676" stroke-miterlimit="10" x1="210.1" y1="36" x2="210.9" y2="36"/>
			
				<line fill="none" stroke="#C9C9C9" stroke-width="1.0676" stroke-miterlimit="10" stroke-dasharray="2.1227,2.1227" x1="212.5" y1="36" x2="275" y2="36"/>
			<line fill="none" stroke="#C9C9C9" stroke-width="1.0676" stroke-miterlimit="10" x1="275.8" y1="36" x2="276.6" y2="36"/>
		</g>
	</g>
	<g enable-background="new    ">
		<path fill="#C9C9C9" d="M280.8,55.3c0,0,1,1,2.5,1c1,0,1.9-0.6,1.9-1.6c0-2.3-4.8-1.8-4.8-4.7c0-1.2,1-2.3,2.5-2.5v-1.3h0.8v1.2
			c1.5,0.1,2.2,0.9,2.2,0.9l-0.5,0.8c0,0-0.8-0.8-2.1-0.8s-2,0.8-2,1.6c0,2.2,4.7,1.7,4.7,4.7c0,1.3-0.9,2.4-2.5,2.5v1.2h-0.8v-1.2
			c-1.7-0.1-2.6-1.2-2.6-1.2L280.8,55.3z"/>
	</g>
	<g enable-background="new    ">
		<path fill="#C9C9C9" d="M272.6,55.3c0,0,1,1,2.5,1c1,0,1.9-0.6,1.9-1.6c0-2.3-4.8-1.8-4.8-4.7c0-1.2,1-2.3,2.5-2.5v-1.3h0.8v1.2
			c1.5,0.1,2.2,0.9,2.2,0.9l-0.5,0.8c0,0-0.8-0.8-2.1-0.8s-2,0.8-2,1.6c0,2.2,4.7,1.7,4.7,4.7c0,1.3-0.9,2.4-2.5,2.5v1.2h-0.8v-1.2
			c-1.7-0.1-2.6-1.2-2.6-1.2L272.6,55.3z"/>
	</g>
	<g>
		<g>
			<line fill="none" stroke="#C9C9C9" stroke-width="1.0026" stroke-miterlimit="10" x1="210.1" y1="52.5" x2="210.8" y2="52.5"/>
			
				<line fill="none" stroke="#C9C9C9" stroke-width="1.0026" stroke-miterlimit="10" stroke-dasharray="1.9649,1.9649" x1="212.3" y1="52.5" x2="267.2" y2="52.5"/>
			<line fill="none" stroke="#C9C9C9" stroke-width="1.0026" stroke-miterlimit="10" x1="268" y1="52.5" x2="268.7" y2="52.5"/>
		</g>
	</g>
	<g>
		<g>
			<line fill="none" stroke="#C9C9C9" stroke-width="1.0026" stroke-miterlimit="10" x1="210.1" y1="68.7" x2="210.8" y2="68.7"/>
			
				<line fill="none" stroke="#C9C9C9" stroke-width="1.0026" stroke-miterlimit="10" stroke-dasharray="2.0103,2.0103" x1="212.3" y1="68.7" x2="259.5" y2="68.7"/>
			<line fill="none" stroke="#C9C9C9" stroke-width="1.0026" stroke-miterlimit="10" x1="260.3" y1="68.7" x2="261" y2="68.7"/>
		</g>
	</g>
	<g>
		<g>
			<line fill="none" stroke="#C9C9C9" stroke-width="1.0026" stroke-miterlimit="10" x1="210.1" y1="84.9" x2="210.8" y2="84.9"/>
			
				<line fill="none" stroke="#C9C9C9" stroke-width="1.0026" stroke-miterlimit="10" stroke-dasharray="1.96,1.96" x1="212.3" y1="84.9" x2="252.5" y2="84.9"/>
			<line fill="none" stroke="#C9C9C9" stroke-width="1.0026" stroke-miterlimit="10" x1="253.2" y1="84.9" x2="253.9" y2="84.9"/>
		</g>
	</g>
	<g>
		<g>
			<line fill="none" stroke="#C9C9C9" stroke-width="1.0026" stroke-miterlimit="10" x1="210.1" y1="101" x2="210.8" y2="101"/>
			
				<line fill="none" stroke="#C9C9C9" stroke-width="1.0026" stroke-miterlimit="10" stroke-dasharray="1.9786,1.9786" x1="212.3" y1="101" x2="244" y2="101"/>
			<line fill="none" stroke="#C9C9C9" stroke-width="1.0026" stroke-miterlimit="10" x1="244.8" y1="101" x2="245.5" y2="101"/>
		</g>
	</g>
	<g>
		<g>
			<line fill="none" stroke="#C9C9C9" stroke-width="1.0026" stroke-miterlimit="10" x1="210.1" y1="117.2" x2="210.8" y2="117.2"/>
			
				<line fill="none" stroke="#C9C9C9" stroke-width="1.0026" stroke-miterlimit="10" stroke-dasharray="2.02,2.02" x1="212.3" y1="117.2" x2="235.7" y2="117.2"/>
			<line fill="none" stroke="#C9C9C9" stroke-width="1.0026" stroke-miterlimit="10" x1="236.4" y1="117.2" x2="237.2" y2="117.2"/>
		</g>
	</g>
	<g>
		<g>
			<line fill="none" stroke="#C9C9C9" stroke-width="1.0026" stroke-miterlimit="10" x1="210.1" y1="133.4" x2="210.8" y2="133.4"/>
			
				<line fill="none" stroke="#C9C9C9" stroke-width="1.0026" stroke-miterlimit="10" stroke-dasharray="1.8723,1.8723" x1="212.2" y1="133.4" x2="228.3" y2="133.4"/>
			<line fill="none" stroke="#C9C9C9" stroke-width="1.0026" stroke-miterlimit="10" x1="228.9" y1="133.4" x2="229.7" y2="133.4"/>
		</g>
	</g>
	<g>
		<g>
			<line fill="none" stroke="#C9C9C9" stroke-width="1.0026" stroke-miterlimit="10" x1="210.1" y1="149.5" x2="210.8" y2="149.5"/>
			
				<line fill="none" stroke="#C9C9C9" stroke-width="1.0026" stroke-miterlimit="10" stroke-dasharray="2.1201,2.1201" x1="212.4" y1="149.5" x2="221.1" y2="149.5"/>
			<line fill="none" stroke="#C9C9C9" stroke-width="1.0026" stroke-miterlimit="10" x1="221.9" y1="149.5" x2="222.6" y2="149.5"/>
		</g>
	</g>
	<g>
		<g>
			<line fill="none" stroke="#C9C9C9" stroke-width="1.0026" stroke-miterlimit="10" x1="210.1" y1="165.7" x2="210.8" y2="165.7"/>
			
				<line fill="none" stroke="#C9C9C9" stroke-width="1.0026" stroke-miterlimit="10" stroke-dasharray="1.5023,1.5023" x1="211.9" y1="165.7" x2="213.6" y2="165.7"/>
			<line fill="none" stroke="#C9C9C9" stroke-width="1.0026" stroke-miterlimit="10" x1="214.2" y1="165.7" x2="214.9" y2="165.7"/>
		</g>
	</g>
	<g enable-background="new    ">
		<path fill="#C9C9C9" d="M280.8,71.8c0,0,1,1,2.5,1c1,0,1.9-0.6,1.9-1.6c0-2.3-4.8-1.8-4.8-4.7c0-1.2,1-2.3,2.5-2.5v-1.3h0.8V64
			c1.5,0.1,2.2,0.9,2.2,0.9l-0.5,0.8c0,0-0.8-0.8-2.1-0.8s-2,0.8-2,1.6c0,2.2,4.7,1.7,4.7,4.7c0,1.3-0.9,2.4-2.5,2.5v1.2h-0.8v-1.2
			c-1.7-0.1-2.6-1.2-2.6-1.2L280.8,71.8z"/>
	</g>
	<g enable-background="new    ">
		<path fill="#C9C9C9" d="M273,71.8c0,0,1,1,2.5,1c1,0,1.9-0.6,1.9-1.6c0-2.3-4.8-1.8-4.8-4.7c0-1.2,1-2.3,2.5-2.5v-1.3h0.8V64
			c1.5,0.1,2.2,0.9,2.2,0.9l-0.5,0.8c0,0-0.8-0.8-2.1-0.8s-2,0.8-2,1.6c0,2.2,4.7,1.7,4.7,4.7c0,1.3-0.9,2.4-2.5,2.5v1.2h-0.8v-1.2
			c-1.7-0.1-2.6-1.2-2.6-1.2L273,71.8z"/>
	</g>
	<g enable-background="new    ">
		<path fill="#C9C9C9" d="M265.1,71.8c0,0,1,1,2.5,1c1,0,1.9-0.6,1.9-1.6c0-2.3-4.8-1.8-4.8-4.7c0-1.2,1-2.3,2.5-2.5v-1.3h0.8V64
			c1.5,0.1,2.2,0.9,2.2,0.9l-0.5,0.8c0,0-0.8-0.8-2.1-0.8s-2,0.8-2,1.6c0,2.2,4.7,1.7,4.7,4.7c0,1.3-0.9,2.4-2.5,2.5v1.2h-0.8v-1.2
			c-1.7-0.1-2.6-1.2-2.6-1.2L265.1,71.8z"/>
	</g>
	<g enable-background="new    ">
		<path fill="#C9C9C9" d="M280.8,88c0,0,1,1,2.5,1c1,0,1.9-0.6,1.9-1.6c0-2.3-4.8-1.8-4.8-4.7c0-1.2,1-2.3,2.5-2.5v-1.3h0.8v1.2
			c1.5,0.1,2.2,0.9,2.2,0.9l-0.5,0.8c0,0-0.8-0.8-2.1-0.8s-2,0.8-2,1.6c0,2.2,4.7,1.7,4.7,4.7c0,1.3-0.9,2.4-2.5,2.5v1.2h-0.8v-1.2
			c-1.7-0.1-2.6-1.2-2.6-1.2L280.8,88z"/>
	</g>
	<g enable-background="new    ">
		<path fill="#C9C9C9" d="M273,88c0,0,1,1,2.5,1c1,0,1.9-0.6,1.9-1.6c0-2.3-4.8-1.8-4.8-4.7c0-1.2,1-2.3,2.5-2.5v-1.3h0.8v1.2
			c1.5,0.1,2.2,0.9,2.2,0.9l-0.5,0.8c0,0-0.8-0.8-2.1-0.8s-2,0.8-2,1.6c0,2.2,4.7,1.7,4.7,4.7c0,1.3-0.9,2.4-2.5,2.5v1.2h-0.8v-1.2
			c-1.7-0.1-2.6-1.2-2.6-1.2L273,88z"/>
	</g>
	<g enable-background="new    ">
		<path fill="#C9C9C9" d="M265.1,88c0,0,1,1,2.5,1c1,0,1.9-0.6,1.9-1.6c0-2.3-4.8-1.8-4.8-4.7c0-1.2,1-2.3,2.5-2.5v-1.3h0.8v1.2
			c1.5,0.1,2.2,0.9,2.2,0.9l-0.5,0.8c0,0-0.8-0.8-2.1-0.8s-2,0.8-2,1.6c0,2.2,4.7,1.7,4.7,4.7c0,1.3-0.9,2.4-2.5,2.5v1.2h-0.8v-1.2
			c-1.7-0.1-2.6-1.2-2.6-1.2L265.1,88z"/>
	</g>
	<g enable-background="new    ">
		<path fill="#C9C9C9" d="M257.3,88c0,0,1,1,2.5,1c1,0,1.9-0.6,1.9-1.6c0-2.3-4.8-1.8-4.8-4.7c0-1.2,1-2.3,2.5-2.5v-1.3h0.8v1.2
			c1.5,0.1,2.2,0.9,2.2,0.9l-0.5,0.8c0,0-0.8-0.8-2.1-0.8s-2,0.8-2,1.6c0,2.2,4.7,1.7,4.7,4.7c0,1.3-0.9,2.4-2.5,2.5v1.2h-0.8v-1.2
			c-1.7-0.1-2.6-1.2-2.6-1.2L257.3,88z"/>
	</g>
	<g enable-background="new    ">
		<path fill="#C9C9C9" d="M280.8,104.1c0,0,1,1,2.5,1c1,0,1.9-0.6,1.9-1.6c0-2.3-4.8-1.8-4.8-4.7c0-1.2,1-2.3,2.5-2.5v-1.3h0.8v1.2
			c1.5,0.1,2.2,0.9,2.2,0.9l-0.5,0.8c0,0-0.8-0.8-2.1-0.8s-2,0.8-2,1.6c0,2.2,4.7,1.7,4.7,4.7c0,1.3-0.9,2.4-2.5,2.5v1.2h-0.8V106
			c-1.7-0.1-2.6-1.2-2.6-1.2L280.8,104.1z"/>
	</g>
	<g enable-background="new    ">
		<path fill="#C9C9C9" d="M273,104.1c0,0,1,1,2.5,1c1,0,1.9-0.6,1.9-1.6c0-2.3-4.8-1.8-4.8-4.7c0-1.2,1-2.3,2.5-2.5v-1.3h0.8v1.2
			c1.5,0.1,2.2,0.9,2.2,0.9l-0.5,0.8c0,0-0.8-0.8-2.1-0.8s-2,0.8-2,1.6c0,2.2,4.7,1.7,4.7,4.7c0,1.3-0.9,2.4-2.5,2.5v1.2h-0.8V106
			c-1.7-0.1-2.6-1.2-2.6-1.2L273,104.1z"/>
	</g>
	<g enable-background="new    ">
		<path fill="#C9C9C9" d="M265.1,104.1c0,0,1,1,2.5,1c1,0,1.9-0.6,1.9-1.6c0-2.3-4.8-1.8-4.8-4.7c0-1.2,1-2.3,2.5-2.5v-1.3h0.8v1.2
			c1.5,0.1,2.2,0.9,2.2,0.9l-0.5,0.8c0,0-0.8-0.8-2.1-0.8s-2,0.8-2,1.6c0,2.2,4.7,1.7,4.7,4.7c0,1.3-0.9,2.4-2.5,2.5v1.2h-0.8V106
			c-1.7-0.1-2.6-1.2-2.6-1.2L265.1,104.1z"/>
	</g>
	<g enable-background="new    ">
		<path fill="#C9C9C9" d="M257.3,104.1c0,0,1,1,2.5,1c1,0,1.9-0.6,1.9-1.6c0-2.3-4.8-1.8-4.8-4.7c0-1.2,1-2.3,2.5-2.5v-1.3h0.8v1.2
			c1.5,0.1,2.2,0.9,2.2,0.9l-0.5,0.8c0,0-0.8-0.8-2.1-0.8s-2,0.8-2,1.6c0,2.2,4.7,1.7,4.7,4.7c0,1.3-0.9,2.4-2.5,2.5v1.2h-0.8V106
			c-1.7-0.1-2.6-1.2-2.6-1.2L257.3,104.1z"/>
	</g>
	<g enable-background="new    ">
		<path fill="#C9C9C9" d="M249.4,104.1c0,0,1,1,2.5,1c1,0,1.9-0.6,1.9-1.6c0-2.3-4.8-1.8-4.8-4.7c0-1.2,1-2.3,2.5-2.5v-1.3h0.8v1.2
			c1.5,0.1,2.2,0.9,2.2,0.9L254,98c0,0-0.8-0.8-2.1-0.8s-2,0.8-2,1.6c0,2.2,4.7,1.7,4.7,4.7c0,1.3-0.9,2.4-2.5,2.5v1.2h-0.8V106
			c-1.7-0.1-2.6-1.2-2.6-1.2L249.4,104.1z"/>
	</g>
	<g enable-background="new    ">
		<path fill="#C9C9C9" d="M280.8,120.3c0,0,1,1,2.5,1c1,0,1.9-0.6,1.9-1.6c0-2.3-4.8-1.8-4.8-4.7c0-1.2,1-2.3,2.5-2.5v-1.3h0.8v1.2
			c1.5,0.1,2.2,0.9,2.2,0.9l-0.5,0.8c0,0-0.8-0.8-2.1-0.8s-2,0.8-2,1.6c0,2.2,4.7,1.7,4.7,4.7c0,1.3-0.9,2.4-2.5,2.5v1.2h-0.8v-1.2
			c-1.7-0.1-2.6-1.2-2.6-1.2L280.8,120.3z"/>
	</g>
	<g enable-background="new    ">
		<path fill="#C9C9C9" d="M273,120.3c0,0,1,1,2.5,1c1,0,1.9-0.6,1.9-1.6c0-2.3-4.8-1.8-4.8-4.7c0-1.2,1-2.3,2.5-2.5v-1.3h0.8v1.2
			c1.5,0.1,2.2,0.9,2.2,0.9l-0.5,0.8c0,0-0.8-0.8-2.1-0.8s-2,0.8-2,1.6c0,2.2,4.7,1.7,4.7,4.7c0,1.3-0.9,2.4-2.5,2.5v1.2h-0.8v-1.2
			c-1.7-0.1-2.6-1.2-2.6-1.2L273,120.3z"/>
	</g>
	<g enable-background="new    ">
		<path fill="#C9C9C9" d="M265.1,120.3c0,0,1,1,2.5,1c1,0,1.9-0.6,1.9-1.6c0-2.3-4.8-1.8-4.8-4.7c0-1.2,1-2.3,2.5-2.5v-1.3h0.8v1.2
			c1.5,0.1,2.2,0.9,2.2,0.9l-0.5,0.8c0,0-0.8-0.8-2.1-0.8s-2,0.8-2,1.6c0,2.2,4.7,1.7,4.7,4.7c0,1.3-0.9,2.4-2.5,2.5v1.2h-0.8v-1.2
			c-1.7-0.1-2.6-1.2-2.6-1.2L265.1,120.3z"/>
	</g>
	<g enable-background="new    ">
		<path fill="#C9C9C9" d="M257.3,120.3c0,0,1,1,2.5,1c1,0,1.9-0.6,1.9-1.6c0-2.3-4.8-1.8-4.8-4.7c0-1.2,1-2.3,2.5-2.5v-1.3h0.8v1.2
			c1.5,0.1,2.2,0.9,2.2,0.9l-0.5,0.8c0,0-0.8-0.8-2.1-0.8s-2,0.8-2,1.6c0,2.2,4.7,1.7,4.7,4.7c0,1.3-0.9,2.4-2.5,2.5v1.2h-0.8v-1.2
			c-1.7-0.1-2.6-1.2-2.6-1.2L257.3,120.3z"/>
	</g>
	<g enable-background="new    ">
		<path fill="#C9C9C9" d="M249.4,120.3c0,0,1,1,2.5,1c1,0,1.9-0.6,1.9-1.6c0-2.3-4.8-1.8-4.8-4.7c0-1.2,1-2.3,2.5-2.5v-1.3h0.8v1.2
			c1.5,0.1,2.2,0.9,2.2,0.9l-0.5,0.8c0,0-0.8-0.8-2.1-0.8s-2,0.8-2,1.6c0,2.2,4.7,1.7,4.7,4.7c0,1.3-0.9,2.4-2.5,2.5v1.2h-0.8v-1.2
			c-1.7-0.1-2.6-1.2-2.6-1.2L249.4,120.3z"/>
	</g>
	<g enable-background="new    ">
		<path fill="#C9C9C9" d="M241.6,120.3c0,0,1,1,2.5,1c1,0,1.9-0.6,1.9-1.6c0-2.3-4.8-1.8-4.8-4.7c0-1.2,1-2.3,2.5-2.5v-1.3h0.8v1.2
			c1.5,0.1,2.2,0.9,2.2,0.9l-0.5,0.8c0,0-0.8-0.8-2.1-0.8s-2,0.8-2,1.6c0,2.2,4.7,1.7,4.7,4.7c0,1.3-0.9,2.4-2.5,2.5v1.2h-0.8v-1.2
			c-1.7-0.1-2.6-1.2-2.6-1.2L241.6,120.3z"/>
	</g>
	<g enable-background="new    ">
		<path fill="#C9C9C9" d="M280.8,136.5c0,0,1,1,2.5,1c1,0,1.9-0.6,1.9-1.6c0-2.3-4.8-1.8-4.8-4.7c0-1.2,1-2.3,2.5-2.5v-1.3h0.8v1.2
			c1.5,0.1,2.2,0.9,2.2,0.9l-0.5,0.8c0,0-0.8-0.8-2.1-0.8s-2,0.8-2,1.6c0,2.2,4.7,1.7,4.7,4.7c0,1.3-0.9,2.4-2.5,2.5v1.2h-0.8v-1.2
			c-1.7-0.1-2.6-1.2-2.6-1.2L280.8,136.5z"/>
	</g>
	<g enable-background="new    ">
		<path fill="#C9C9C9" d="M273,136.5c0,0,1,1,2.5,1c1,0,1.9-0.6,1.9-1.6c0-2.3-4.8-1.8-4.8-4.7c0-1.2,1-2.3,2.5-2.5v-1.3h0.8v1.2
			c1.5,0.1,2.2,0.9,2.2,0.9l-0.5,0.8c0,0-0.8-0.8-2.1-0.8s-2,0.8-2,1.6c0,2.2,4.7,1.7,4.7,4.7c0,1.3-0.9,2.4-2.5,2.5v1.2h-0.8v-1.2
			c-1.7-0.1-2.6-1.2-2.6-1.2L273,136.5z"/>
	</g>
	<g enable-background="new    ">
		<path fill="#C9C9C9" d="M265.1,136.5c0,0,1,1,2.5,1c1,0,1.9-0.6,1.9-1.6c0-2.3-4.8-1.8-4.8-4.7c0-1.2,1-2.3,2.5-2.5v-1.3h0.8v1.2
			c1.5,0.1,2.2,0.9,2.2,0.9l-0.5,0.8c0,0-0.8-0.8-2.1-0.8s-2,0.8-2,1.6c0,2.2,4.7,1.7,4.7,4.7c0,1.3-0.9,2.4-2.5,2.5v1.2h-0.8v-1.2
			c-1.7-0.1-2.6-1.2-2.6-1.2L265.1,136.5z"/>
	</g>
	<g enable-background="new    ">
		<path fill="#C9C9C9" d="M257.3,136.5c0,0,1,1,2.5,1c1,0,1.9-0.6,1.9-1.6c0-2.3-4.8-1.8-4.8-4.7c0-1.2,1-2.3,2.5-2.5v-1.3h0.8v1.2
			c1.5,0.1,2.2,0.9,2.2,0.9l-0.5,0.8c0,0-0.8-0.8-2.1-0.8s-2,0.8-2,1.6c0,2.2,4.7,1.7,4.7,4.7c0,1.3-0.9,2.4-2.5,2.5v1.2h-0.8v-1.2
			c-1.7-0.1-2.6-1.2-2.6-1.2L257.3,136.5z"/>
	</g>
	<g enable-background="new    ">
		<path fill="#C9C9C9" d="M249.4,136.5c0,0,1,1,2.5,1c1,0,1.9-0.6,1.9-1.6c0-2.3-4.8-1.8-4.8-4.7c0-1.2,1-2.3,2.5-2.5v-1.3h0.8v1.2
			c1.5,0.1,2.2,0.9,2.2,0.9l-0.5,0.8c0,0-0.8-0.8-2.1-0.8s-2,0.8-2,1.6c0,2.2,4.7,1.7,4.7,4.7c0,1.3-0.9,2.4-2.5,2.5v1.2h-0.8v-1.2
			c-1.7-0.1-2.6-1.2-2.6-1.2L249.4,136.5z"/>
	</g>
	<g enable-background="new    ">
		<path fill="#C9C9C9" d="M241.6,136.5c0,0,1,1,2.5,1c1,0,1.9-0.6,1.9-1.6c0-2.3-4.8-1.8-4.8-4.7c0-1.2,1-2.3,2.5-2.5v-1.3h0.8v1.2
			c1.5,0.1,2.2,0.9,2.2,0.9l-0.5,0.8c0,0-0.8-0.8-2.1-0.8s-2,0.8-2,1.6c0,2.2,4.7,1.7,4.7,4.7c0,1.3-0.9,2.4-2.5,2.5v1.2h-0.8v-1.2
			c-1.7-0.1-2.6-1.2-2.6-1.2L241.6,136.5z"/>
	</g>
	<g enable-background="new    ">
		<path fill="#C9C9C9" d="M233.7,136.5c0,0,1,1,2.5,1c1,0,1.9-0.6,1.9-1.6c0-2.3-4.8-1.8-4.8-4.7c0-1.2,1-2.3,2.5-2.5v-1.3h0.8v1.2
			c1.5,0.1,2.2,0.9,2.2,0.9l-0.5,0.8c0,0-0.8-0.8-2.1-0.8s-2,0.8-2,1.6c0,2.2,4.7,1.7,4.7,4.7c0,1.3-0.9,2.4-2.5,2.5v1.2h-0.8v-1.2
			c-1.7-0.1-2.6-1.2-2.6-1.2L233.7,136.5z"/>
	</g>
	<g enable-background="new    ">
		<path fill="#C9C9C9" d="M280.8,152.6c0,0,1,1,2.5,1c1,0,1.9-0.6,1.9-1.6c0-2.3-4.8-1.8-4.8-4.7c0-1.2,1-2.3,2.5-2.5v-1.3h0.8v1.2
			c1.5,0.1,2.2,0.9,2.2,0.9l-0.5,0.8c0,0-0.8-0.8-2.1-0.8s-2,0.8-2,1.6c0,2.2,4.7,1.7,4.7,4.7c0,1.3-0.9,2.4-2.5,2.5v1.2h-0.8v-1.2
			c-1.7-0.1-2.6-1.2-2.6-1.2L280.8,152.6z"/>
	</g>
	<g enable-background="new    ">
		<path fill="#C9C9C9" d="M273,152.6c0,0,1,1,2.5,1c1,0,1.9-0.6,1.9-1.6c0-2.3-4.8-1.8-4.8-4.7c0-1.2,1-2.3,2.5-2.5v-1.3h0.8v1.2
			c1.5,0.1,2.2,0.9,2.2,0.9l-0.5,0.8c0,0-0.8-0.8-2.1-0.8s-2,0.8-2,1.6c0,2.2,4.7,1.7,4.7,4.7c0,1.3-0.9,2.4-2.5,2.5v1.2h-0.8v-1.2
			c-1.7-0.1-2.6-1.2-2.6-1.2L273,152.6z"/>
	</g>
	<g enable-background="new    ">
		<path fill="#C9C9C9" d="M265.1,152.6c0,0,1,1,2.5,1c1,0,1.9-0.6,1.9-1.6c0-2.3-4.8-1.8-4.8-4.7c0-1.2,1-2.3,2.5-2.5v-1.3h0.8v1.2
			c1.5,0.1,2.2,0.9,2.2,0.9l-0.5,0.8c0,0-0.8-0.8-2.1-0.8s-2,0.8-2,1.6c0,2.2,4.7,1.7,4.7,4.7c0,1.3-0.9,2.4-2.5,2.5v1.2h-0.8v-1.2
			c-1.7-0.1-2.6-1.2-2.6-1.2L265.1,152.6z"/>
	</g>
	<g enable-background="new    ">
		<path fill="#C9C9C9" d="M257.3,152.6c0,0,1,1,2.5,1c1,0,1.9-0.6,1.9-1.6c0-2.3-4.8-1.8-4.8-4.7c0-1.2,1-2.3,2.5-2.5v-1.3h0.8v1.2
			c1.5,0.1,2.2,0.9,2.2,0.9l-0.5,0.8c0,0-0.8-0.8-2.1-0.8s-2,0.8-2,1.6c0,2.2,4.7,1.7,4.7,4.7c0,1.3-0.9,2.4-2.5,2.5v1.2h-0.8v-1.2
			c-1.7-0.1-2.6-1.2-2.6-1.2L257.3,152.6z"/>
	</g>
	<g enable-background="new    ">
		<path fill="#C9C9C9" d="M249.4,152.6c0,0,1,1,2.5,1c1,0,1.9-0.6,1.9-1.6c0-2.3-4.8-1.8-4.8-4.7c0-1.2,1-2.3,2.5-2.5v-1.3h0.8v1.2
			c1.5,0.1,2.2,0.9,2.2,0.9l-0.5,0.8c0,0-0.8-0.8-2.1-0.8s-2,0.8-2,1.6c0,2.2,4.7,1.7,4.7,4.7c0,1.3-0.9,2.4-2.5,2.5v1.2h-0.8v-1.2
			c-1.7-0.1-2.6-1.2-2.6-1.2L249.4,152.6z"/>
	</g>
	<g enable-background="new    ">
		<path fill="#C9C9C9" d="M241.6,152.6c0,0,1,1,2.5,1c1,0,1.9-0.6,1.9-1.6c0-2.3-4.8-1.8-4.8-4.7c0-1.2,1-2.3,2.5-2.5v-1.3h0.8v1.2
			c1.5,0.1,2.2,0.9,2.2,0.9l-0.5,0.8c0,0-0.8-0.8-2.1-0.8s-2,0.8-2,1.6c0,2.2,4.7,1.7,4.7,4.7c0,1.3-0.9,2.4-2.5,2.5v1.2h-0.8v-1.2
			c-1.7-0.1-2.6-1.2-2.6-1.2L241.6,152.6z"/>
	</g>
	<g enable-background="new    ">
		<path fill="#C9C9C9" d="M233.7,152.6c0,0,1,1,2.5,1c1,0,1.9-0.6,1.9-1.6c0-2.3-4.8-1.8-4.8-4.7c0-1.2,1-2.3,2.5-2.5v-1.3h0.8v1.2
			c1.5,0.1,2.2,0.9,2.2,0.9l-0.5,0.8c0,0-0.8-0.8-2.1-0.8s-2,0.8-2,1.6c0,2.2,4.7,1.7,4.7,4.7c0,1.3-0.9,2.4-2.5,2.5v1.2h-0.8v-1.2
			c-1.7-0.1-2.6-1.2-2.6-1.2L233.7,152.6z"/>
	</g>
	<g enable-background="new    ">
		<path fill="#C9C9C9" d="M225.9,152.6c0,0,1,1,2.5,1c1,0,1.9-0.6,1.9-1.6c0-2.3-4.8-1.8-4.8-4.7c0-1.2,1-2.3,2.5-2.5v-1.3h0.8v1.2
			c1.5,0.1,2.2,0.9,2.2,0.9l-0.5,0.8c0,0-0.8-0.8-2.1-0.8s-2,0.8-2,1.6c0,2.2,4.7,1.7,4.7,4.7c0,1.3-0.9,2.4-2.5,2.5v1.2h-0.8v-1.2
			c-1.7-0.1-2.6-1.2-2.6-1.2L225.9,152.6z"/>
	</g>
	<g enable-background="new    ">
		<path fill="#C9C9C9" d="M280.8,168.8c0,0,1,1,2.5,1c1,0,1.9-0.6,1.9-1.6c0-2.3-4.8-1.8-4.8-4.7c0-1.2,1-2.3,2.5-2.5v-1.3h0.8v1.2
			c1.5,0.1,2.2,0.9,2.2,0.9l-0.5,0.8c0,0-0.8-0.8-2.1-0.8s-2,0.8-2,1.6c0,2.2,4.7,1.7,4.7,4.7c0,1.3-0.9,2.4-2.5,2.5v1.2h-0.8v-1.2
			c-1.7-0.1-2.6-1.2-2.6-1.2L280.8,168.8z"/>
	</g>
	<g enable-background="new    ">
		<path fill="#C9C9C9" d="M273,168.8c0,0,1,1,2.5,1c1,0,1.9-0.6,1.9-1.6c0-2.3-4.8-1.8-4.8-4.7c0-1.2,1-2.3,2.5-2.5v-1.3h0.8v1.2
			c1.5,0.1,2.2,0.9,2.2,0.9l-0.5,0.8c0,0-0.8-0.8-2.1-0.8s-2,0.8-2,1.6c0,2.2,4.7,1.7,4.7,4.7c0,1.3-0.9,2.4-2.5,2.5v1.2h-0.8v-1.2
			c-1.7-0.1-2.6-1.2-2.6-1.2L273,168.8z"/>
	</g>
	<g enable-background="new    ">
		<path fill="#C9C9C9" d="M265.1,168.8c0,0,1,1,2.5,1c1,0,1.9-0.6,1.9-1.6c0-2.3-4.8-1.8-4.8-4.7c0-1.2,1-2.3,2.5-2.5v-1.3h0.8v1.2
			c1.5,0.1,2.2,0.9,2.2,0.9l-0.5,0.8c0,0-0.8-0.8-2.1-0.8s-2,0.8-2,1.6c0,2.2,4.7,1.7,4.7,4.7c0,1.3-0.9,2.4-2.5,2.5v1.2h-0.8v-1.2
			c-1.7-0.1-2.6-1.2-2.6-1.2L265.1,168.8z"/>
	</g>
	<g enable-background="new    ">
		<path fill="#C9C9C9" d="M257.3,168.8c0,0,1,1,2.5,1c1,0,1.9-0.6,1.9-1.6c0-2.3-4.8-1.8-4.8-4.7c0-1.2,1-2.3,2.5-2.5v-1.3h0.8v1.2
			c1.5,0.1,2.2,0.9,2.2,0.9l-0.5,0.8c0,0-0.8-0.8-2.1-0.8s-2,0.8-2,1.6c0,2.2,4.7,1.7,4.7,4.7c0,1.3-0.9,2.4-2.5,2.5v1.2h-0.8v-1.2
			c-1.7-0.1-2.6-1.2-2.6-1.2L257.3,168.8z"/>
	</g>
	<g enable-background="new    ">
		<path fill="#C9C9C9" d="M249.4,168.8c0,0,1,1,2.5,1c1,0,1.9-0.6,1.9-1.6c0-2.3-4.8-1.8-4.8-4.7c0-1.2,1-2.3,2.5-2.5v-1.3h0.8v1.2
			c1.5,0.1,2.2,0.9,2.2,0.9l-0.5,0.8c0,0-0.8-0.8-2.1-0.8s-2,0.8-2,1.6c0,2.2,4.7,1.7,4.7,4.7c0,1.3-0.9,2.4-2.5,2.5v1.2h-0.8v-1.2
			c-1.7-0.1-2.6-1.2-2.6-1.2L249.4,168.8z"/>
	</g>
	<g enable-background="new    ">
		<path fill="#C9C9C9" d="M241.6,168.8c0,0,1,1,2.5,1c1,0,1.9-0.6,1.9-1.6c0-2.3-4.8-1.8-4.8-4.7c0-1.2,1-2.3,2.5-2.5v-1.3h0.8v1.2
			c1.5,0.1,2.2,0.9,2.2,0.9l-0.5,0.8c0,0-0.8-0.8-2.1-0.8s-2,0.8-2,1.6c0,2.2,4.7,1.7,4.7,4.7c0,1.3-0.9,2.4-2.5,2.5v1.2h-0.8v-1.2
			c-1.7-0.1-2.6-1.2-2.6-1.2L241.6,168.8z"/>
	</g>
	<g enable-background="new    ">
		<path fill="#C9C9C9" d="M233.7,168.8c0,0,1,1,2.5,1c1,0,1.9-0.6,1.9-1.6c0-2.3-4.8-1.8-4.8-4.7c0-1.2,1-2.3,2.5-2.5v-1.3h0.8v1.2
			c1.5,0.1,2.2,0.9,2.2,0.9l-0.5,0.8c0,0-0.8-0.8-2.1-0.8s-2,0.8-2,1.6c0,2.2,4.7,1.7,4.7,4.7c0,1.3-0.9,2.4-2.5,2.5v1.2h-0.8v-1.2
			c-1.7-0.1-2.6-1.2-2.6-1.2L233.7,168.8z"/>
	</g>
	<g enable-background="new    ">
		<path fill="#C9C9C9" d="M225.9,168.8c0,0,1,1,2.5,1c1,0,1.9-0.6,1.9-1.6c0-2.3-4.8-1.8-4.8-4.7c0-1.2,1-2.3,2.5-2.5v-1.3h0.8v1.2
			c1.5,0.1,2.2,0.9,2.2,0.9l-0.5,0.8c0,0-0.8-0.8-2.1-0.8s-2,0.8-2,1.6c0,2.2,4.7,1.7,4.7,4.7c0,1.3-0.9,2.4-2.5,2.5v1.2h-0.8v-1.2
			c-1.7-0.1-2.6-1.2-2.6-1.2L225.9,168.8z"/>
	</g>
	<g enable-background="new    ">
		<path fill="#C9C9C9" d="M218,168.8c0,0,1,1,2.5,1c1,0,1.9-0.6,1.9-1.6c0-2.3-4.8-1.8-4.8-4.7c0-1.2,1-2.3,2.5-2.5v-1.3h0.8v1.2
			c1.5,0.1,2.2,0.9,2.2,0.9l-0.5,0.8c0,0-0.8-0.8-2.1-0.8s-2,0.8-2,1.6c0,2.2,4.7,1.7,4.7,4.7c0,1.3-0.9,2.4-2.5,2.5v1.2h-0.8v-1.2
			c-1.7-0.1-2.6-1.2-2.6-1.2L218,168.8z"/>
	</g>
	<g enable-background="new    ">
		<path fill="#C9C9C9" d="M280.8,185c0,0,1,1,2.5,1c1,0,1.9-0.6,1.9-1.6c0-2.3-4.8-1.8-4.8-4.7c0-1.2,1-2.3,2.5-2.5v-1.3h0.8v1.2
			c1.5,0.1,2.2,0.9,2.2,0.9l-0.5,0.8c0,0-0.8-0.8-2.1-0.8s-2,0.8-2,1.6c0,2.2,4.7,1.7,4.7,4.7c0,1.3-0.9,2.4-2.5,2.5v1.2h-0.8v-1.2
			c-1.7-0.1-2.6-1.2-2.6-1.2L280.8,185z"/>
	</g>
	<g enable-background="new    ">
		<path fill="#C9C9C9" d="M273,185c0,0,1,1,2.5,1c1,0,1.9-0.6,1.9-1.6c0-2.3-4.8-1.8-4.8-4.7c0-1.2,1-2.3,2.5-2.5v-1.3h0.8v1.2
			c1.5,0.1,2.2,0.9,2.2,0.9l-0.5,0.8c0,0-0.8-0.8-2.1-0.8s-2,0.8-2,1.6c0,2.2,4.7,1.7,4.7,4.7c0,1.3-0.9,2.4-2.5,2.5v1.2h-0.8v-1.2
			c-1.7-0.1-2.6-1.2-2.6-1.2L273,185z"/>
	</g>
	<g enable-background="new    ">
		<path fill="#C9C9C9" d="M265.1,185c0,0,1,1,2.5,1c1,0,1.9-0.6,1.9-1.6c0-2.3-4.8-1.8-4.8-4.7c0-1.2,1-2.3,2.5-2.5v-1.3h0.8v1.2
			c1.5,0.1,2.2,0.9,2.2,0.9l-0.5,0.8c0,0-0.8-0.8-2.1-0.8s-2,0.8-2,1.6c0,2.2,4.7,1.7,4.7,4.7c0,1.3-0.9,2.4-2.5,2.5v1.2h-0.8v-1.2
			c-1.7-0.1-2.6-1.2-2.6-1.2L265.1,185z"/>
	</g>
	<g enable-background="new    ">
		<path fill="#C9C9C9" d="M257.3,185c0,0,1,1,2.5,1c1,0,1.9-0.6,1.9-1.6c0-2.3-4.8-1.8-4.8-4.7c0-1.2,1-2.3,2.5-2.5v-1.3h0.8v1.2
			c1.5,0.1,2.2,0.9,2.2,0.9l-0.5,0.8c0,0-0.8-0.8-2.1-0.8s-2,0.8-2,1.6c0,2.2,4.7,1.7,4.7,4.7c0,1.3-0.9,2.4-2.5,2.5v1.2h-0.8v-1.2
			c-1.7-0.1-2.6-1.2-2.6-1.2L257.3,185z"/>
	</g>
	<g enable-background="new    ">
		<path fill="#C9C9C9" d="M249.4,185c0,0,1,1,2.5,1c1,0,1.9-0.6,1.9-1.6c0-2.3-4.8-1.8-4.8-4.7c0-1.2,1-2.3,2.5-2.5v-1.3h0.8v1.2
			c1.5,0.1,2.2,0.9,2.2,0.9l-0.5,0.8c0,0-0.8-0.8-2.1-0.8s-2,0.8-2,1.6c0,2.2,4.7,1.7,4.7,4.7c0,1.3-0.9,2.4-2.5,2.5v1.2h-0.8v-1.2
			c-1.7-0.1-2.6-1.2-2.6-1.2L249.4,185z"/>
	</g>
	<g enable-background="new    ">
		<path fill="#C9C9C9" d="M241.6,185c0,0,1,1,2.5,1c1,0,1.9-0.6,1.9-1.6c0-2.3-4.8-1.8-4.8-4.7c0-1.2,1-2.3,2.5-2.5v-1.3h0.8v1.2
			c1.5,0.1,2.2,0.9,2.2,0.9l-0.5,0.8c0,0-0.8-0.8-2.1-0.8s-2,0.8-2,1.6c0,2.2,4.7,1.7,4.7,4.7c0,1.3-0.9,2.4-2.5,2.5v1.2h-0.8v-1.2
			c-1.7-0.1-2.6-1.2-2.6-1.2L241.6,185z"/>
	</g>
	<g enable-background="new    ">
		<path fill="#C9C9C9" d="M233.7,185c0,0,1,1,2.5,1c1,0,1.9-0.6,1.9-1.6c0-2.3-4.8-1.8-4.8-4.7c0-1.2,1-2.3,2.5-2.5v-1.3h0.8v1.2
			c1.5,0.1,2.2,0.9,2.2,0.9l-0.5,0.8c0,0-0.8-0.8-2.1-0.8s-2,0.8-2,1.6c0,2.2,4.7,1.7,4.7,4.7c0,1.3-0.9,2.4-2.5,2.5v1.2h-0.8v-1.2
			c-1.7-0.1-2.6-1.2-2.6-1.2L233.7,185z"/>
	</g>
	<g enable-background="new    ">
		<path fill="#C9C9C9" d="M225.9,185c0,0,1,1,2.5,1c1,0,1.9-0.6,1.9-1.6c0-2.3-4.8-1.8-4.8-4.7c0-1.2,1-2.3,2.5-2.5v-1.3h0.8v1.2
			c1.5,0.1,2.2,0.9,2.2,0.9l-0.5,0.8c0,0-0.8-0.8-2.1-0.8s-2,0.8-2,1.6c0,2.2,4.7,1.7,4.7,4.7c0,1.3-0.9,2.4-2.5,2.5v1.2h-0.8v-1.2
			c-1.7-0.1-2.6-1.2-2.6-1.2L225.9,185z"/>
	</g>
	<g enable-background="new    ">
		<path fill="#C9C9C9" d="M218,185c0,0,1,1,2.5,1c1,0,1.9-0.6,1.9-1.6c0-2.3-4.8-1.8-4.8-4.7c0-1.2,1-2.3,2.5-2.5v-1.3h0.8v1.2
			c1.5,0.1,2.2,0.9,2.2,0.9l-0.5,0.8c0,0-0.8-0.8-2.1-0.8s-2,0.8-2,1.6c0,2.2,4.7,1.7,4.7,4.7c0,1.3-0.9,2.4-2.5,2.5v1.2h-0.8v-1.2
			c-1.7-0.1-2.6-1.2-2.6-1.2L218,185z"/>
	</g>
	<g enable-background="new    ">
		<path fill="#C9C9C9" d="M210.2,185c0,0,1,1,2.5,1c1,0,1.9-0.6,1.9-1.6c0-2.3-4.8-1.8-4.8-4.7c0-1.2,1-2.3,2.5-2.5v-1.3h0.8v1.2
			c1.5,0.1,2.2,0.9,2.2,0.9l-0.5,0.8c0,0-0.8-0.8-2.1-0.8s-2,0.8-2,1.6c0,2.2,4.7,1.7,4.7,4.7c0,1.3-0.9,2.4-2.5,2.5v1.2h-0.8v-1.2
			c-1.7-0.1-2.6-1.2-2.6-1.2L210.2,185z"/>
	</g>
	<g enable-background="new    ">
		<path fill="#C9C9C9" d="M280.8,201.1c0,0,1,1,2.5,1c1,0,1.9-0.6,1.9-1.6c0-2.3-4.8-1.8-4.8-4.7c0-1.2,1-2.3,2.5-2.5v-1.3h0.8v1.2
			c1.5,0.1,2.2,0.9,2.2,0.9l-0.5,0.8c0,0-0.8-0.8-2.1-0.8s-2,0.8-2,1.6c0,2.2,4.7,1.7,4.7,4.7c0,1.3-0.9,2.4-2.5,2.5v1.2h-0.8V203
			c-1.7-0.1-2.6-1.2-2.6-1.2L280.8,201.1z"/>
	</g>
	<g enable-background="new    ">
		<path fill="#C9C9C9" d="M273,201.1c0,0,1,1,2.5,1c1,0,1.9-0.6,1.9-1.6c0-2.3-4.8-1.8-4.8-4.7c0-1.2,1-2.3,2.5-2.5v-1.3h0.8v1.2
			c1.5,0.1,2.2,0.9,2.2,0.9l-0.5,0.8c0,0-0.8-0.8-2.1-0.8s-2,0.8-2,1.6c0,2.2,4.7,1.7,4.7,4.7c0,1.3-0.9,2.4-2.5,2.5v1.2h-0.8V203
			c-1.7-0.1-2.6-1.2-2.6-1.2L273,201.1z"/>
	</g>
	<g enable-background="new    ">
		<path fill="#C9C9C9" d="M265.1,201.1c0,0,1,1,2.5,1c1,0,1.9-0.6,1.9-1.6c0-2.3-4.8-1.8-4.8-4.7c0-1.2,1-2.3,2.5-2.5v-1.3h0.8v1.2
			c1.5,0.1,2.2,0.9,2.2,0.9l-0.5,0.8c0,0-0.8-0.8-2.1-0.8s-2,0.8-2,1.6c0,2.2,4.7,1.7,4.7,4.7c0,1.3-0.9,2.4-2.5,2.5v1.2h-0.8V203
			c-1.7-0.1-2.6-1.2-2.6-1.2L265.1,201.1z"/>
	</g>
	<g enable-background="new    ">
		<path fill="#C9C9C9" d="M257.3,201.1c0,0,1,1,2.5,1c1,0,1.9-0.6,1.9-1.6c0-2.3-4.8-1.8-4.8-4.7c0-1.2,1-2.3,2.5-2.5v-1.3h0.8v1.2
			c1.5,0.1,2.2,0.9,2.2,0.9l-0.5,0.8c0,0-0.8-0.8-2.1-0.8s-2,0.8-2,1.6c0,2.2,4.7,1.7,4.7,4.7c0,1.3-0.9,2.4-2.5,2.5v1.2h-0.8V203
			c-1.7-0.1-2.6-1.2-2.6-1.2L257.3,201.1z"/>
	</g>
	<g enable-background="new    ">
		<path fill="#C9C9C9" d="M249.4,201.1c0,0,1,1,2.5,1c1,0,1.9-0.6,1.9-1.6c0-2.3-4.8-1.8-4.8-4.7c0-1.2,1-2.3,2.5-2.5v-1.3h0.8v1.2
			c1.5,0.1,2.2,0.9,2.2,0.9L254,195c0,0-0.8-0.8-2.1-0.8s-2,0.8-2,1.6c0,2.2,4.7,1.7,4.7,4.7c0,1.3-0.9,2.4-2.5,2.5v1.2h-0.8V203
			c-1.7-0.1-2.6-1.2-2.6-1.2L249.4,201.1z"/>
	</g>
	<g enable-background="new    ">
		<path fill="#C9C9C9" d="M241.6,201.1c0,0,1,1,2.5,1c1,0,1.9-0.6,1.9-1.6c0-2.3-4.8-1.8-4.8-4.7c0-1.2,1-2.3,2.5-2.5v-1.3h0.8v1.2
			c1.5,0.1,2.2,0.9,2.2,0.9l-0.5,0.8c0,0-0.8-0.8-2.1-0.8s-2,0.8-2,1.6c0,2.2,4.7,1.7,4.7,4.7c0,1.3-0.9,2.4-2.5,2.5v1.2h-0.8V203
			c-1.7-0.1-2.6-1.2-2.6-1.2L241.6,201.1z"/>
	</g>
	<g enable-background="new    ">
		<path fill="#C9C9C9" d="M233.7,201.1c0,0,1,1,2.5,1c1,0,1.9-0.6,1.9-1.6c0-2.3-4.8-1.8-4.8-4.7c0-1.2,1-2.3,2.5-2.5v-1.3h0.8v1.2
			c1.5,0.1,2.2,0.9,2.2,0.9l-0.5,0.8c0,0-0.8-0.8-2.1-0.8s-2,0.8-2,1.6c0,2.2,4.7,1.7,4.7,4.7c0,1.3-0.9,2.4-2.5,2.5v1.2h-0.8V203
			c-1.7-0.1-2.6-1.2-2.6-1.2L233.7,201.1z"/>
	</g>
	<g enable-background="new    ">
		<path fill="#C9C9C9" d="M225.9,201.1c0,0,1,1,2.5,1c1,0,1.9-0.6,1.9-1.6c0-2.3-4.8-1.8-4.8-4.7c0-1.2,1-2.3,2.5-2.5v-1.3h0.8v1.2
			c1.5,0.1,2.2,0.9,2.2,0.9l-0.5,0.8c0,0-0.8-0.8-2.1-0.8s-2,0.8-2,1.6c0,2.2,4.7,1.7,4.7,4.7c0,1.3-0.9,2.4-2.5,2.5v1.2h-0.8V203
			c-1.7-0.1-2.6-1.2-2.6-1.2L225.9,201.1z"/>
	</g>
	<g enable-background="new    ">
		<path fill="#C9C9C9" d="M218,201.1c0,0,1,1,2.5,1c1,0,1.9-0.6,1.9-1.6c0-2.3-4.8-1.8-4.8-4.7c0-1.2,1-2.3,2.5-2.5v-1.3h0.8v1.2
			c1.5,0.1,2.2,0.9,2.2,0.9l-0.5,0.8c0,0-0.8-0.8-2.1-0.8s-2,0.8-2,1.6c0,2.2,4.7,1.7,4.7,4.7c0,1.3-0.9,2.4-2.5,2.5v1.2h-0.8V203
			c-1.7-0.1-2.6-1.2-2.6-1.2L218,201.1z"/>
	</g>
	<g enable-background="new    ">
		<path fill="#C9C9C9" d="M210.2,201.1c0,0,1,1,2.5,1c1,0,1.9-0.6,1.9-1.6c0-2.3-4.8-1.8-4.8-4.7c0-1.2,1-2.3,2.5-2.5v-1.3h0.8v1.2
			c1.5,0.1,2.2,0.9,2.2,0.9l-0.5,0.8c0,0-0.8-0.8-2.1-0.8s-2,0.8-2,1.6c0,2.2,4.7,1.7,4.7,4.7c0,1.3-0.9,2.4-2.5,2.5v1.2h-0.8V203
			c-1.7-0.1-2.6-1.2-2.6-1.2L210.2,201.1z"/>
	</g>
	<g enable-background="new    ">
		<path fill="#C9C9C9" d="M280.8,217.3c0,0,1,1,2.5,1c1,0,1.9-0.6,1.9-1.6c0-2.3-4.8-1.8-4.8-4.7c0-1.2,1-2.3,2.5-2.5v-1.3h0.8v1.2
			c1.5,0.1,2.2,0.9,2.2,0.9l-0.5,0.8c0,0-0.8-0.8-2.1-0.8s-2,0.8-2,1.6c0,2.2,4.7,1.7,4.7,4.7c0,1.3-0.9,2.4-2.5,2.5v1.2h-0.8v-1.2
			c-1.7-0.1-2.6-1.2-2.6-1.2L280.8,217.3z"/>
	</g>
	<g enable-background="new    ">
		<path fill="#C9C9C9" d="M273,217.3c0,0,1,1,2.5,1c1,0,1.9-0.6,1.9-1.6c0-2.3-4.8-1.8-4.8-4.7c0-1.2,1-2.3,2.5-2.5v-1.3h0.8v1.2
			c1.5,0.1,2.2,0.9,2.2,0.9l-0.5,0.8c0,0-0.8-0.8-2.1-0.8s-2,0.8-2,1.6c0,2.2,4.7,1.7,4.7,4.7c0,1.3-0.9,2.4-2.5,2.5v1.2h-0.8v-1.2
			c-1.7-0.1-2.6-1.2-2.6-1.2L273,217.3z"/>
	</g>
	<g enable-background="new    ">
		<path fill="#C9C9C9" d="M265.1,217.3c0,0,1,1,2.5,1c1,0,1.9-0.6,1.9-1.6c0-2.3-4.8-1.8-4.8-4.7c0-1.2,1-2.3,2.5-2.5v-1.3h0.8v1.2
			c1.5,0.1,2.2,0.9,2.2,0.9l-0.5,0.8c0,0-0.8-0.8-2.1-0.8s-2,0.8-2,1.6c0,2.2,4.7,1.7,4.7,4.7c0,1.3-0.9,2.4-2.5,2.5v1.2h-0.8v-1.2
			c-1.7-0.1-2.6-1.2-2.6-1.2L265.1,217.3z"/>
	</g>
	<g enable-background="new    ">
		<path fill="#C9C9C9" d="M257.3,217.3c0,0,1,1,2.5,1c1,0,1.9-0.6,1.9-1.6c0-2.3-4.8-1.8-4.8-4.7c0-1.2,1-2.3,2.5-2.5v-1.3h0.8v1.2
			c1.5,0.1,2.2,0.9,2.2,0.9l-0.5,0.8c0,0-0.8-0.8-2.1-0.8s-2,0.8-2,1.6c0,2.2,4.7,1.7,4.7,4.7c0,1.3-0.9,2.4-2.5,2.5v1.2h-0.8v-1.2
			c-1.7-0.1-2.6-1.2-2.6-1.2L257.3,217.3z"/>
	</g>
	<g enable-background="new    ">
		<path fill="#C9C9C9" d="M249.4,217.3c0,0,1,1,2.5,1c1,0,1.9-0.6,1.9-1.6c0-2.3-4.8-1.8-4.8-4.7c0-1.2,1-2.3,2.5-2.5v-1.3h0.8v1.2
			c1.5,0.1,2.2,0.9,2.2,0.9l-0.5,0.8c0,0-0.8-0.8-2.1-0.8s-2,0.8-2,1.6c0,2.2,4.7,1.7,4.7,4.7c0,1.3-0.9,2.4-2.5,2.5v1.2h-0.8v-1.2
			c-1.7-0.1-2.6-1.2-2.6-1.2L249.4,217.3z"/>
	</g>
	<g enable-background="new    ">
		<path fill="#C9C9C9" d="M241.6,217.3c0,0,1,1,2.5,1c1,0,1.9-0.6,1.9-1.6c0-2.3-4.8-1.8-4.8-4.7c0-1.2,1-2.3,2.5-2.5v-1.3h0.8v1.2
			c1.5,0.1,2.2,0.9,2.2,0.9l-0.5,0.8c0,0-0.8-0.8-2.1-0.8s-2,0.8-2,1.6c0,2.2,4.7,1.7,4.7,4.7c0,1.3-0.9,2.4-2.5,2.5v1.2h-0.8v-1.2
			c-1.7-0.1-2.6-1.2-2.6-1.2L241.6,217.3z"/>
	</g>
	<g enable-background="new    ">
		<path fill="#C9C9C9" d="M233.7,217.3c0,0,1,1,2.5,1c1,0,1.9-0.6,1.9-1.6c0-2.3-4.8-1.8-4.8-4.7c0-1.2,1-2.3,2.5-2.5v-1.3h0.8v1.2
			c1.5,0.1,2.2,0.9,2.2,0.9l-0.5,0.8c0,0-0.8-0.8-2.1-0.8s-2,0.8-2,1.6c0,2.2,4.7,1.7,4.7,4.7c0,1.3-0.9,2.4-2.5,2.5v1.2h-0.8v-1.2
			c-1.7-0.1-2.6-1.2-2.6-1.2L233.7,217.3z"/>
	</g>
	<g enable-background="new    ">
		<path fill="#C9C9C9" d="M225.9,217.3c0,0,1,1,2.5,1c1,0,1.9-0.6,1.9-1.6c0-2.3-4.8-1.8-4.8-4.7c0-1.2,1-2.3,2.5-2.5v-1.3h0.8v1.2
			c1.5,0.1,2.2,0.9,2.2,0.9l-0.5,0.8c0,0-0.8-0.8-2.1-0.8s-2,0.8-2,1.6c0,2.2,4.7,1.7,4.7,4.7c0,1.3-0.9,2.4-2.5,2.5v1.2h-0.8v-1.2
			c-1.7-0.1-2.6-1.2-2.6-1.2L225.9,217.3z"/>
	</g>
	<g enable-background="new    ">
		<path fill="#C9C9C9" d="M218,217.3c0,0,1,1,2.5,1c1,0,1.9-0.6,1.9-1.6c0-2.3-4.8-1.8-4.8-4.7c0-1.2,1-2.3,2.5-2.5v-1.3h0.8v1.2
			c1.5,0.1,2.2,0.9,2.2,0.9l-0.5,0.8c0,0-0.8-0.8-2.1-0.8s-2,0.8-2,1.6c0,2.2,4.7,1.7,4.7,4.7c0,1.3-0.9,2.4-2.5,2.5v1.2h-0.8v-1.2
			c-1.7-0.1-2.6-1.2-2.6-1.2L218,217.3z"/>
	</g>
	<g enable-background="new    ">
		<path fill="#C9C9C9" d="M210.2,217.3c0,0,1,1,2.5,1c1,0,1.9-0.6,1.9-1.6c0-2.3-4.8-1.8-4.8-4.7c0-1.2,1-2.3,2.5-2.5v-1.3h0.8v1.2
			c1.5,0.1,2.2,0.9,2.2,0.9l-0.5,0.8c0,0-0.8-0.8-2.1-0.8s-2,0.8-2,1.6c0,2.2,4.7,1.7,4.7,4.7c0,1.3-0.9,2.4-2.5,2.5v1.2h-0.8v-1.2
			c-1.7-0.1-2.6-1.2-2.6-1.2L210.2,217.3z"/>
	</g>
</g>
<g id="Layer_2">
</g>
</svg>
