<?xml version="1.0" encoding="utf-8"?>
<!-- Generator: Adobe Illustrator 18.1.1, SVG Export Plug-In . SVG Version: 6.00 Build 0)  -->
<svg version="1.1" id="Layer_1" xmlns="http://www.w3.org/2000/svg" xmlns:xlink="http://www.w3.org/1999/xlink" x="0px" y="0px"
	 width="300px" height="600px" viewBox="0 0 300 600" enable-background="new 0 0 300 600" xml:space="preserve">
<path fill="#FFFFFF" d="M72.5,310.6c0,0,1.3,1.4,3.6,1.7v1.6H78v-1.6c2.2-0.3,3.5-2,3.5-3.8c0-3.9-5.7-3.8-5.7-5.2
	c0-0.7,0.7-1,1.3-1c1.5,0,2.8,1.1,2.8,1.1l1.3-2.5c0,0-1.1-1.1-3.2-1.4v-1.6h-1.9v1.6c-1.9,0.4-3.3,1.8-3.3,3.7
	c0,3.8,5.7,3.9,5.7,5.3c0,0.8-0.7,1-1.3,1c-1.6,0-3-1.3-3-1.3L72.5,310.6z"/>
<path fill="#FFFFFF" d="M82.6,316.9h9.5v5.2h5.2v-5.2h2.5v-4.3h-2.5v-11.9h-6.4l-8.3,13.1V316.9z M87.9,312.6L87.9,312.6l3.2-5
	c0.6-0.9,1-2.2,1-2.2h0.1c0,0-0.2,1.2-0.2,2.4v4.8H87.9z"/>
<path fill="#FFFFFF" d="M107.5,322.5c6.7,0,10.2-6.1,10.2-11.9c0-7-4.4-10.3-8.7-10.3c-4.6,0-7.3,3.6-7.3,7.2c0,3.7,2.5,7.3,7,7.3
	c1,0,2.5-0.4,2.9-0.8h0.1c-0.7,2-2.1,3.5-4.6,3.5c-1.5,0-2.9-0.6-2.9-0.6l-1.4,4.5C102.8,321.6,104.5,322.5,107.5,322.5z
	 M110.1,310.7c-2.3,0-3.2-1.6-3.2-3.1c0-1.3,0.8-2.4,2.2-2.4c1.5,0,3.3,1.7,3.3,4.3C112.3,310.4,111.3,310.7,110.1,310.7z"/>
<path fill="#FFFFFF" d="M119.9,322.1h4.9v-4.9h-4.9V322.1z"/>
<path fill="#FFFFFF" d="M132.7,322.5c6.7,0,10.2-6.1,10.2-11.9c0-7-4.4-10.3-8.7-10.3c-4.6,0-7.3,3.6-7.3,7.2c0,3.7,2.5,7.3,7,7.3
	c1,0,2.5-0.4,2.9-0.8h0.1c-0.7,2-2.1,3.5-4.6,3.5c-1.5,0-2.9-0.6-2.9-0.6l-1.4,4.5C128,321.6,129.7,322.5,132.7,322.5z M135.3,310.7
	c-2.3,0-3.2-1.6-3.2-3.1c0-1.3,0.8-2.4,2.2-2.4c1.5,0,3.3,1.7,3.3,4.3C137.5,310.4,136.5,310.7,135.3,310.7z"/>
<path fill="#FFFFFF" d="M150.7,322.5c6.7,0,10.2-6.1,10.2-11.9c0-7-4.4-10.3-8.7-10.3c-4.6,0-7.3,3.6-7.3,7.2c0,3.7,2.5,7.3,7,7.3
	c1,0,2.5-0.4,2.9-0.8h0.1c-0.7,2-2.1,3.5-4.6,3.5c-1.5,0-2.9-0.6-2.9-0.6l-1.4,4.5C145.9,321.6,147.7,322.5,150.7,322.5z
	 M153.3,310.7c-2.3,0-3.2-1.6-3.2-3.1c0-1.3,0.8-2.4,2.2-2.4c1.5,0,3.3,1.7,3.3,4.3C155.5,310.4,154.5,310.7,153.3,310.7z"/>
<path fill="#FFFFFF" d="M162.3,323.4h4.3l7.7-23.8H170L162.3,323.4z"/>
<path fill="#FFFFFF" d="M176,322.1h5.2v-6.4c0-0.7,0-1.3,0.1-1.9c0.4-1.6,1.2-2.8,2.8-2.8c1,0,1.2,0.8,1.2,2v9.1h5.2v-6.4
	c0-0.6,0-1.3,0.1-1.8c0.3-1.7,1.2-2.9,2.8-2.9c1,0,1.2,0.8,1.2,2v9.1h5.2v-10c0-4.3-2.2-5.8-5-5.8c-2.3,0-4.1,1.3-4.9,2.6h-0.1
	c-0.8-1.7-2.4-2.6-4.3-2.6c-2.4,0-3.9,1.6-4.6,2.7h-0.1c0,0,0.1-0.5,0.1-1v-1.4h-5V322.1z"/>
<path fill="#FFFFFF" d="M201.8,314.5c0,4.8,3.9,8,8.8,8c4.9,0,8.8-3.2,8.8-8c0-4.9-3.9-8.1-8.8-8.1
	C205.7,306.3,201.8,309.6,201.8,314.5z M207.1,314.5c0-2.3,1.6-3.8,3.5-3.8c1.9,0,3.5,1.5,3.5,3.8c0,2.3-1.6,3.7-3.5,3.7
	C208.7,318.2,207.1,316.8,207.1,314.5z"/>
<path fill="#FFFFFF" d="M221.3,322.1h4.9v-4.9h-4.9V322.1z"/>
<path fill="#FFFFFF" d="M82.6,350.9h9.9v-1.5h-8.3v-6.3h6.4v-1.5h-6.4v-6.1h7.8v-1.5h-9.5V350.9z"/>
<path fill="#FFFFFF" d="M98.1,350.9h1.8l4.6-12.1h-1.7l-3.3,8.9c-0.2,0.6-0.4,1.4-0.4,1.4h0c0,0-0.2-0.8-0.4-1.4l-3.4-8.9h-1.7
	L98.1,350.9z"/>
<path fill="#FFFFFF" d="M105.4,344.9c0,3.7,2.7,6.3,6.3,6.3c2.7,0,4.5-1.7,4.5-1.7l-0.7-1.2c0,0-1.5,1.5-3.7,1.5
	c-2.5,0-4.6-1.7-4.7-4.8h9.3c0,0,0-0.6,0-0.8c0-3-1.7-5.6-5-5.6C108.1,338.6,105.4,340.9,105.4,344.9z M107.2,343.6
	c0.4-2.4,2.1-3.7,4.2-3.7c1.8,0,3.3,1.2,3.4,3.7H107.2z"/>
<path fill="#FFFFFF" d="M119,350.9h1.6v-5.1c0-0.8,0.1-1.6,0.3-2.4c0.5-1.8,1.8-3.1,3.5-3.1c0.3,0,0.6,0,0.6,0v-1.6
	c0,0-0.3-0.1-0.6-0.1c-1.9,0-3.2,1.4-3.8,3.2h0c0,0,0-0.4,0-1v-2.1H119V350.9z"/>
<path fill="#FFFFFF" d="M125.3,355.3c0,0,0.9,0.7,2.1,0.7c1.6,0,2.9-1,3.5-2.5l6-14.6h-1.8l-3.5,8.8c-0.2,0.6-0.4,1.3-0.4,1.3h0
	c0,0-0.2-0.7-0.4-1.3l-3.6-8.8h-1.8l5,12l-0.7,1.7c-0.5,1.1-1.2,2-2.3,2c-0.8,0-1.4-0.6-1.4-0.6L125.3,355.3z"/>
<path fill="#FFFFFF" d="M144.6,350.9h1.6v-5.7c0-0.6,0-1.1,0.2-1.6c0.5-1.8,2-3.6,4-3.6c2.3,0,2.5,1.8,2.5,3.6v7.3h1.6v-5.7
	c0-0.6,0-1.2,0.2-1.8c0.5-1.8,2-3.4,3.8-3.4c2.2,0,2.6,1.6,2.6,3.6v7.3h1.6v-7.7c0-3-1.1-4.7-4-4.7c-2,0-3.8,1.4-4.4,3h0
	c-0.4-2-1.5-3-3.7-3c-1.9,0-3.8,1.4-4.4,3h0c0,0,0-0.4,0-1v-1.8h-1.6V350.9z"/>
<path fill="#FFFFFF" d="M165.2,344.8c0,3.6,2.9,6.4,6.4,6.4s6.4-2.7,6.4-6.4c0-3.6-2.9-6.3-6.4-6.3S165.2,341.3,165.2,344.8z
	 M166.9,344.8c0-2.7,2.1-4.8,4.7-4.8c2.6,0,4.7,2,4.7,4.8c0,2.8-2.1,4.9-4.7,4.9C169,349.8,166.9,347.6,166.9,344.8z"/>
<path fill="#FFFFFF" d="M180.5,350.9h1.6v-5.8c0-0.6,0-1.1,0.2-1.6c0.6-2,2.3-3.4,4.4-3.4c2.3,0,2.6,1.7,2.6,3.6v7.2h1.6v-7.7
	c0-3-1.1-4.7-4-4.7c-2.9,0-4.4,1.9-4.8,3h0c0,0,0-0.4,0-1v-1.8h-1.6V350.9z"/>
<path fill="#FFFFFF" d="M194.7,346.5c0,4,2.8,4.5,4.2,4.5c0.4,0,0.7,0,0.7,0v-1.5c0,0-0.2,0-0.6,0c-0.9,0-2.7-0.4-2.7-3.2v-6h3V339
	h-3v-3.5h-1.6v3.5h-1.6v1.4h1.6V346.5z"/>
<path fill="#FFFFFF" d="M201.8,350.9h1.6v-5.8c0-0.6,0-1.1,0.2-1.6c0.6-2,2.3-3.4,4.4-3.4c2.3,0,2.6,1.7,2.6,3.6v7.2h1.6v-7.7
	c0-3-1.1-4.7-4-4.7c-2.7,0-4.3,1.8-4.8,3h0c0,0,0-0.4,0-1v-6.5h-1.6V350.9z"/>
<path fill="#FFFFFF" d="M215.6,350.9h1.9V349h-1.9V350.9z"/>
<path fill="#FFFFFF" d="M86.2,371.3c0,5,3.6,8.7,8.3,8.7c3.6,0,5.5-2.3,5.5-2.3h0c0,0,0,0.4,0,0.7v1.3h1.5v-8.1h-4.5v1.5h2.9v2.9
	c0,0-2,2.5-5.3,2.5c-3.8,0-6.7-3.1-6.7-7.2c0-4,2.8-7.2,6.8-7.2c3.1,0,5,1.7,5,1.7l0.9-1.2c0,0-2.1-2-6-2
	C89.9,362.6,86.2,366.4,86.2,371.3z"/>
<path fill="#FFFFFF" d="M104.4,375.3c0,3.1,1.2,4.7,4,4.7c2.7,0,4.2-1.9,4.7-3h0c0,0,0,0.4,0,1v1.8h1.6v-12.1h-1.6v5.8
	c0,2.6-1.7,5-4.5,5c-2.3,0-2.6-1.7-2.6-3.6v-7.2h-1.6V375.3z"/>
<path fill="#FFFFFF" d="M117.3,376.4c0,2.4,2.1,3.6,4.1,3.6c3,0,4-2.6,4-2.6h0c0,0,0,0.4,0,1v1.3h1.6V372c0-3-1.6-4.6-4.5-4.6
	c-2.7,0-4.3,1.4-4.3,1.4l0.8,1.2c0,0,1.4-1.2,3.4-1.2c1.7,0,3,0.8,3,3.1v0.3h-0.7C122.6,372.3,117.3,372.4,117.3,376.4z
	 M118.9,376.3c0-2.7,3.8-2.7,5.7-2.7h0.7v0.5c0,2.1-1.4,4.5-3.7,4.5C119.8,378.6,118.9,377.5,118.9,376.3z"/>
<path fill="#FFFFFF" d="M130.2,379.7h1.6v-5.1c0-0.8,0.1-1.6,0.3-2.4c0.5-1.8,1.8-3.1,3.5-3.1c0.3,0,0.6,0,0.6,0v-1.6
	c0,0-0.3-0.1-0.6-0.1c-1.9,0-3.2,1.4-3.8,3.2h0c0,0,0-0.4,0-1v-2.1h-1.6V379.7z"/>
<path fill="#FFFFFF" d="M137.3,376.4c0,2.4,2.1,3.6,4.1,3.6c3,0,4-2.6,4-2.6h0c0,0,0,0.4,0,1v1.3h1.6V372c0-3-1.6-4.6-4.5-4.6
	c-2.7,0-4.3,1.4-4.3,1.4l0.8,1.2c0,0,1.4-1.2,3.4-1.2c1.7,0,3,0.8,3,3.1v0.3h-0.7C142.6,372.3,137.3,372.4,137.3,376.4z M139,376.3
	c0-2.7,3.8-2.7,5.7-2.7h0.7v0.5c0,2.1-1.4,4.5-3.7,4.5C139.9,378.6,139,377.5,139,376.3z"/>
<path fill="#FFFFFF" d="M150.3,379.7h1.6v-5.8c0-0.6,0-1.1,0.2-1.6c0.6-2,2.3-3.4,4.4-3.4c2.3,0,2.6,1.7,2.6,3.6v7.2h1.6v-7.7
	c0-3-1.1-4.7-4-4.7c-2.9,0-4.4,1.9-4.8,3h0c0,0,0-0.4,0-1v-1.8h-1.6V379.7z"/>
<path fill="#FFFFFF" d="M164.5,375.3c0,4,2.8,4.5,4.2,4.5c0.4,0,0.7,0,0.7,0v-1.5c0,0-0.2,0-0.6,0c-0.9,0-2.7-0.4-2.7-3.2v-6h3v-1.4
	h-3v-3.5h-1.6v3.5h-1.6v1.4h1.6V375.3z"/>
<path fill="#FFFFFF" d="M170.8,373.7c0,3.7,2.7,6.3,6.3,6.3c2.7,0,4.5-1.7,4.5-1.7l-0.7-1.2c0,0-1.5,1.5-3.7,1.5
	c-2.5,0-4.6-1.7-4.7-4.8h9.3c0,0,0-0.6,0-0.8c0-3-1.7-5.6-5-5.6C173.5,367.4,170.8,369.7,170.8,373.7z M172.5,372.4
	c0.4-2.4,2.1-3.7,4.2-3.7c1.8,0,3.3,1.2,3.4,3.7H172.5z"/>
<path fill="#FFFFFF" d="M183.6,373.7c0,3.7,2.7,6.3,6.3,6.3c2.7,0,4.5-1.7,4.5-1.7l-0.7-1.2c0,0-1.5,1.5-3.7,1.5
	c-2.5,0-4.6-1.7-4.7-4.8h9.3c0,0,0-0.6,0-0.8c0-3-1.7-5.6-5-5.6C186.3,367.4,183.6,369.7,183.6,373.7z M185.3,372.4
	c0.4-2.4,2.1-3.7,4.2-3.7c1.8,0,3.3,1.2,3.4,3.7H185.3z"/>
<path fill="#FFFFFF" d="M196.4,373.7c0,3.7,2,6.3,5.3,6.3c3.2,0,4.2-2.4,4.2-2.4h0c0,0,0,0.3,0,0.9v1.3h1.6v-16.9h-1.6v5.9
	c0,0.5,0,0.9,0,0.9h0c0,0-1-2.3-3.9-2.3C198.7,367.4,196.4,369.9,196.4,373.7z M198.1,373.7c0-3,1.8-4.8,3.9-4.8
	c2.6,0,3.8,2.4,3.8,4.8c0,3.4-1.9,4.9-3.9,4.9C199.6,378.6,198.1,376.7,198.1,373.7z"/>
<path fill="#FFFFFF" d="M210.9,379.7h1.9v-1.9h-1.9V379.7z"/>
<path fill="#FFFFFF" d="M34.1,402.4h5.5v6.1h1.5v-6.1h5.5V401h-5.5v-6.1h-1.5v6.1h-5.5V402.4z"/>
<path fill="#FFFFFF" d="M55.1,405.2c0,2.4,2.1,3.6,4.1,3.6c3,0,4-2.6,4-2.6h0c0,0,0,0.4,0,1v1.3h1.6v-7.7c0-3-1.6-4.6-4.5-4.6
	c-2.7,0-4.3,1.4-4.3,1.4l0.8,1.2c0,0,1.4-1.2,3.4-1.2c1.7,0,3,0.8,3,3.1v0.3h-0.7C60.4,401.1,55.1,401.2,55.1,405.2z M56.7,405.1
	c0-2.7,3.8-2.7,5.7-2.7h0.7v0.5c0,2.1-1.4,4.5-3.7,4.5C57.6,407.4,56.7,406.3,56.7,405.1z"/>
<path fill="#FFFFFF" d="M67.3,402.5c0,3.7,2,6.3,5.3,6.3c3.2,0,4.2-2.4,4.2-2.4h0c0,0,0,0.3,0,0.9v1.3h1.6v-16.9h-1.6v5.9
	c0,0.5,0,0.9,0,0.9h0c0,0-1-2.3-3.9-2.3C69.5,396.2,67.3,398.7,67.3,402.5z M68.9,402.5c0-3,1.8-4.8,3.9-4.8c2.6,0,3.8,2.4,3.8,4.8
	c0,3.4-1.9,4.9-3.9,4.9C70.5,407.4,68.9,405.5,68.9,402.5z"/>
<path fill="#FFFFFF" d="M80.9,402.5c0,3.7,2,6.3,5.3,6.3c3.2,0,4.2-2.4,4.2-2.4h0c0,0,0,0.3,0,0.9v1.3h1.6v-16.9h-1.6v5.9
	c0,0.5,0,0.9,0,0.9h0c0,0-1-2.3-3.9-2.3C83.2,396.2,80.9,398.7,80.9,402.5z M82.6,402.5c0-3,1.8-4.8,3.9-4.8c2.6,0,3.8,2.4,3.8,4.8
	c0,3.4-1.9,4.9-3.9,4.9C84.1,407.4,82.6,405.5,82.6,402.5z"/>
<path fill="#FFFFFF" d="M101.8,408.5h1.7v-7.7h9.8v7.7h1.7v-16.9h-1.7v7.7h-9.8v-7.7h-1.7V408.5z"/>
<path fill="#FFFFFF" d="M118,402.4c0,3.6,2.9,6.4,6.4,6.4s6.4-2.7,6.4-6.4c0-3.6-2.9-6.3-6.4-6.3S118,398.9,118,402.4z M119.6,402.4
	c0-2.7,2.1-4.8,4.7-4.8s4.7,2,4.7,4.8c0,2.8-2.1,4.9-4.7,4.9S119.6,405.2,119.6,402.4z"/>
<path fill="#FFFFFF" d="M133.3,413.3h1.6v-5.8c0-0.6,0-1.1,0-1.1h0c0,0,1.1,2.3,4,2.3c3.1,0,5.4-2.5,5.4-6.3c0-3.7-2-6.3-5.3-6.3
	c-3.2,0-4.2,2.4-4.2,2.4h0c0,0,0-0.4,0-0.9v-1.2h-1.6V413.3z M134.9,402.5c0-3.4,1.9-4.9,3.9-4.9c2.3,0,3.8,1.9,3.8,4.8
	c0,3.1-1.8,4.9-3.9,4.9C136.2,407.4,134.9,405,134.9,402.5z"/>
<path fill="#FFFFFF" d="M147,413.3h1.6v-5.8c0-0.6,0-1.1,0-1.1h0c0,0,1.1,2.3,4,2.3c3.1,0,5.4-2.5,5.4-6.3c0-3.7-2-6.3-5.3-6.3
	c-3.2,0-4.2,2.4-4.2,2.4h0c0,0,0-0.4,0-0.9v-1.2H147V413.3z M148.5,402.5c0-3.4,1.9-4.9,3.9-4.9c2.3,0,3.8,1.9,3.8,4.8
	c0,3.1-1.8,4.9-3.9,4.9C149.9,407.4,148.5,405,148.5,402.5z"/>
<path fill="#FFFFFF" d="M159.8,402.5c0,3.7,2.7,6.3,6.3,6.3c2.7,0,4.5-1.7,4.5-1.7l-0.7-1.2c0,0-1.5,1.5-3.7,1.5
	c-2.5,0-4.6-1.7-4.7-4.8h9.3c0,0,0-0.6,0-0.8c0-3-1.7-5.6-5-5.6C162.5,396.2,159.8,398.5,159.8,402.5z M161.5,401.2
	c0.4-2.4,2.1-3.7,4.2-3.7c1.8,0,3.3,1.2,3.4,3.7H161.5z"/>
<path fill="#FFFFFF" d="M173.4,408.5h1.6v-5.1c0-0.8,0.1-1.6,0.3-2.4c0.5-1.8,1.8-3.1,3.5-3.1c0.3,0,0.6,0,0.6,0v-1.6
	c0,0-0.3-0.1-0.6-0.1c-1.9,0-3.2,1.4-3.8,3.2h0c0,0,0-0.4,0-1v-2.1h-1.6V408.5z"/>
<path fill="#FFFFFF" d="M187.9,408.5h5.4c5.1,0,8.5-3.1,8.5-8.4c0-5.3-3.4-8.4-8.5-8.4h-5.4V408.5z M189.6,407v-13.9h3.6
	c4.1,0,6.9,2.4,6.9,6.9c0,4.5-2.8,7-6.9,7H189.6z"/>
<path fill="#FFFFFF" d="M209.2,408.5h1.7l6.3-16.9h-1.8l-4.7,12.8c-0.3,0.9-0.6,2.2-0.6,2.2h0c0,0-0.3-1.3-0.6-2.2l-4.7-12.8h-1.8
	L209.2,408.5z"/>
<path fill="#FFFFFF" d="M219.5,408.5h1.7v-7.1h4.2l3.8,7.1h1.9l-3.7-6.8c-0.3-0.5-0.4-0.7-0.4-0.7v0c1.9-0.5,3.2-2.3,3.2-4.6
	c0-2-1-3.6-2.5-4.3c-0.7-0.3-1.4-0.5-3.2-0.5h-5V408.5z M221.1,399.9v-6.8h3.4c1.3,0,1.9,0.1,2.4,0.4c1,0.5,1.5,1.6,1.5,3
	c0,2.1-1.3,3.4-3.3,3.4H221.1z"/>
<path fill="#FFFFFF" d="M240.1,408.5h1.6V398h3.1v-1.4h-3.1V396c0-2.7,1.8-3,2.7-3c0.3,0,0.6,0,0.6,0v-1.5c0,0-0.3,0-0.7,0
	c-1.4,0-4.2,0.5-4.2,4.5v0.6h-1.5v1.4h1.5V408.5z"/>
<path fill="#FFFFFF" d="M245.8,402.4c0,3.6,2.9,6.4,6.4,6.4c3.5,0,6.4-2.7,6.4-6.4c0-3.6-2.9-6.3-6.4-6.3
	C248.6,396.2,245.8,398.9,245.8,402.4z M247.4,402.4c0-2.7,2.1-4.8,4.7-4.8c2.6,0,4.7,2,4.7,4.8c0,2.8-2.1,4.9-4.7,4.9
	C249.6,407.4,247.4,405.2,247.4,402.4z"/>
<path fill="#FFFFFF" d="M261.1,408.5h1.6v-5.1c0-0.8,0.1-1.6,0.3-2.4c0.5-1.8,1.8-3.1,3.5-3.1c0.3,0,0.6,0,0.6,0v-1.6
	c0,0-0.3-0.1-0.6-0.1c-1.9,0-3.2,1.4-3.8,3.2h0c0,0,0-0.4,0-1v-2.1h-1.6V408.5z"/>
<path fill="#FFFFFF" d="M109.6,435.5c0,0,1.7,1.9,4.7,2.1v2.2h1.3v-2.2c2.8-0.3,4.4-2.2,4.4-4.5c0-5.4-8.5-4.5-8.5-8.4
	c0-1.5,1.4-2.9,3.6-2.9c2.2,0,3.7,1.4,3.7,1.4l0.8-1.4c0,0-1.4-1.5-4-1.6V418h-1.3v2.3c-2.7,0.3-4.4,2.3-4.4,4.5
	c0,5.1,8.5,4.3,8.5,8.4c0,1.8-1.5,2.9-3.4,2.9c-2.7,0-4.4-1.8-4.4-1.8L109.6,435.5z"/>
<path fill="#FFFFFF" d="M122.4,437.3h9.1v-1.5h-3.7v-15.4h-1.5l-3.8,3.8l1.1,1.1l1.8-1.8c0.7-0.6,0.8-1,0.8-1h0c0,0,0,0.5,0,0.9
	v12.4h-3.8V437.3z"/>
<path fill="#FFFFFF" d="M139.2,437.6c4.4,0,5.8-3.8,5.8-8.7c0-4.8-1.4-8.7-5.8-8.7c-4.4,0-5.8,3.9-5.8,8.7
	C133.4,433.8,134.8,437.6,139.2,437.6z M139.2,436.1c-3.2,0-4.1-3.1-4.1-7.2c0-4,0.9-7.2,4.1-7.2c3.2,0,4.1,3.1,4.1,7.2
	C143.3,432.9,142.4,436.1,139.2,436.1z"/>
<path fill="#FFFFFF" d="M147.2,438.3h1.5l6.1-18.8h-1.5L147.2,438.3z"/>
<path fill="#FFFFFF" d="M157.1,437.3h1.6v-5.7c0-0.6,0-1.1,0.2-1.6c0.5-1.8,2-3.6,4-3.6c2.3,0,2.5,1.8,2.5,3.6v7.3h1.6v-5.7
	c0-0.6,0-1.2,0.2-1.8c0.5-1.8,2-3.4,3.8-3.4c2.2,0,2.6,1.6,2.6,3.6v7.3h1.6v-7.7c0-3-1.1-4.7-4-4.7c-2,0-3.8,1.4-4.4,3h0
	c-0.4-2-1.5-3-3.7-3c-1.9,0-3.8,1.4-4.4,3h0c0,0,0-0.4,0-1v-1.8h-1.6V437.3z"/>
<path fill="#FFFFFF" d="M177.8,431.2c0,3.6,2.9,6.4,6.4,6.4s6.4-2.7,6.4-6.4c0-3.6-2.9-6.3-6.4-6.3S177.8,427.7,177.8,431.2z
	 M179.4,431.2c0-2.7,2.1-4.8,4.7-4.8s4.7,2,4.7,4.8c0,2.8-2.1,4.9-4.7,4.9S179.4,434,179.4,431.2z"/>
</svg>
