<?xml version="1.0" encoding="utf-8"?>
<!-- Generator: Adobe Illustrator 18.1.1, SVG Export Plug-In . SVG Version: 6.00 Build 0)  -->
<svg version="1.1" id="Layer_1" xmlns="http://www.w3.org/2000/svg" xmlns:xlink="http://www.w3.org/1999/xlink" x="0px" y="0px"
	 width="300px" height="600px" viewBox="0 0 300 600" enable-background="new 0 0 300 600" xml:space="preserve">
<path fill="#FFFFFF" d="M53.8,180.4c0,6.4,4.5,11.1,11.2,11.1c5.6,0,8.6-3.6,8.6-3.6l-2.7-3.8c0,0-2.5,2.6-5.7,2.6
	c-4,0-6.1-3.3-6.1-6.4c0-3.1,1.9-6.1,6.1-6.1c3,0,5.4,2.2,5.4,2.2l2.4-4c0,0-2.7-3-8-3C58.6,169.3,53.8,174.1,53.8,180.4z"/>
<path fill="#FFFFFF" d="M74.6,183.5c0,4.8,3.9,8,8.8,8s8.8-3.2,8.8-8c0-4.9-3.9-8.1-8.8-8.1C78.5,175.3,74.6,178.6,74.6,183.5z
	 M79.8,183.5c0-2.3,1.6-3.8,3.5-3.8s3.5,1.5,3.5,3.8c0,2.3-1.6,3.7-3.5,3.7S79.8,185.8,79.8,183.5z"/>
<path fill="#FFFFFF" d="M94.2,191.1h5.2v-6.4c0-0.7,0-1.3,0.2-1.9c0.4-1.6,1.2-2.8,2.8-2.8c1,0,1.2,0.8,1.2,1.9v9.1h5.2v-6.4
	c0-0.6,0-1.3,0.1-1.8c0.3-1.7,1.2-2.9,2.8-2.9c1,0,1.2,0.8,1.2,1.9v9.1h5.2v-10c0-4.3-2.2-5.8-5-5.8c-2.3,0-4.1,1.3-4.9,2.6h-0.1
	c-0.8-1.7-2.4-2.6-4.3-2.6c-2.4,0-3.9,1.6-4.6,2.7h-0.1c0,0,0.1-0.4,0.1-1v-1.3h-5V191.1z"/>
<path fill="#FFFFFF" d="M120,183.4c0,4.1,3,8.1,8.5,8.1c4.1,0,6.6-2.2,6.6-2.2l-1.9-3.6c0,0-2,1.6-4.3,1.6c-1.7,0-3.2-0.9-3.6-2.8
	h9.7c0,0,0.1-1.1,0.1-1.6c0-4.3-2.6-7.5-7.1-7.5C123.1,175.3,120,178.9,120,183.4z M125.4,181.4c0.3-1.1,1-2.2,2.5-2.2
	c1.2,0,2,1,2,2.2H125.4z"/>
<path fill="#FFFFFF" d="M143.7,191.1h4.9v-0.5c0-0.5,0-0.9,0-0.9h0.1c0,0,1.4,1.7,4.2,1.7c4.1,0,7.2-3.2,7.2-8.1
	c0-4.8-2.8-8.1-7-8.1c-2.7,0-4.2,1.6-4.2,1.6h-0.1c0,0,0.1-0.5,0.1-1.3v-6h-5.2V191.1z M148.7,183.5c0-2.7,1.5-3.8,3-3.8
	c1.8,0,3,1.5,3,3.8c0,2.4-1.4,3.7-3,3.7C149.7,187.2,148.7,185.4,148.7,183.5z"/>
<path fill="#FFFFFF" d="M161,186.5c0,3.1,2.4,5,5.2,5c3.2,0,4.4-2.2,4.4-2.2h0.1c0,0-0.1,0.4-0.1,1v0.9h4.7v-9.5
	c0-3.9-2.6-6.3-7-6.3c-3.8,0-6.5,2-6.5,2l1.8,3.7c0,0,2.2-1.5,4.2-1.5c1.3,0,2.3,0.4,2.3,1.7v0.3H170C167.6,181.5,161,182,161,186.5
	z M166.2,186.2c0-1.3,1.9-1.8,3.5-1.8h0.5v0.3c0,1.3-1.2,2.7-2.5,2.7C166.7,187.5,166.2,187,166.2,186.2z"/>
<path fill="#FFFFFF" d="M177.2,183.4c0,4.3,3.1,8.1,8.6,8.1c4.3,0,6.6-2.5,6.6-2.5l-1.9-3.6c0,0-2.1,1.9-4.2,1.9
	c-2.6,0-3.9-2-3.9-3.8c0-1.8,1.2-3.7,3.7-3.7c2.1,0,3.6,1.5,3.6,1.5l2.2-3.5c0,0-1.9-2.3-6.1-2.3
	C180.3,175.3,177.2,179.3,177.2,183.4z"/>
<path fill="#FFFFFF" d="M194.3,191.1h5.2v-6h1.6l3.3,6h5.9l-5.2-8.4v-0.1l4.5-7H204l-3.1,5.1h-1.5v-11.1h-5.2V191.1z"/>
<path fill="#FFFFFF" d="M218.7,185.4c0,5.2,4.8,5.8,7.2,5.8c0.8,0,1.4-0.1,1.4-0.1v-4.5c0,0-0.3,0-0.7,0c-1,0-2.8-0.2-2.8-2V180h3.2
	v-4h-3.2v-4.4h-5v4.4h-2.1v4h2V185.4z"/>
<path fill="#FFFFFF" d="M228.7,183.5c0,4.8,3.9,8,8.8,8c4.9,0,8.8-3.2,8.8-8c0-4.9-3.9-8.1-8.8-8.1
	C232.6,175.3,228.7,178.6,228.7,183.5z M233.9,183.5c0-2.3,1.6-3.8,3.5-3.8c1.9,0,3.5,1.5,3.5,3.8c0,2.3-1.6,3.7-3.5,3.7
	C235.5,187.2,233.9,185.8,233.9,183.5z"/>
<path fill="#FFFFFF" d="M66.2,227.1h7.6c6.7,0,11.1-4,11.1-10.8s-4.3-10.7-11.1-10.7h-7.6V227.1z M71.4,222.6v-12.4h2.2
	c3.5,0,5.8,2.1,5.8,6.2c0,4.1-2.2,6.3-5.8,6.3H71.4z"/>
<path fill="#FFFFFF" d="M87.9,227.1h5.2v-21.4h-5.2V227.1z"/>
<path fill="#FFFFFF" d="M96,224.4c0,0,2.8,3.1,7.8,3.1c4.8,0,7.6-3.1,7.6-6.7c0-6.8-9.7-6.3-9.7-9c0-1.2,1.2-1.7,2.3-1.7
	c2.6,0,4.7,1.9,4.7,1.9l2.2-4.3c0,0-2.3-2.4-6.9-2.4c-4.3,0-7.6,2.6-7.6,6.6c0,6.6,9.7,6.5,9.7,9.1c0,1.3-1.2,1.7-2.2,1.7
	c-2.7,0-5.1-2.2-5.1-2.2L96,224.4z"/>
<path fill="#FFFFFF" d="M114.4,227.1h5.2v-8.4h7.8v8.4h5.2v-21.4h-5.2v8.6h-7.8v-8.6h-5.2V227.1z"/>
<path fill="#FFFFFF" d="M143.8,227.1h5.2V216h2.8v-4H149v-0.5c0-1.3,1.6-1.5,2.6-1.5c0.5,0,0.8,0.1,0.8,0.1v-4.4
	c0,0-0.6-0.1-1.6-0.1c-2.5,0-7.1,0.7-7.1,5.8v0.6h-1.9v4h1.9V227.1z"/>
<path fill="#FFFFFF" d="M152.6,219.5c0,4.8,3.9,8,8.8,8c4.9,0,8.8-3.2,8.8-8c0-4.9-3.9-8.1-8.8-8.1
	C156.5,211.3,152.6,214.6,152.6,219.5z M157.9,219.5c0-2.3,1.6-3.8,3.5-3.8c1.9,0,3.5,1.5,3.5,3.8c0,2.3-1.6,3.7-3.5,3.7
	C159.5,223.2,157.9,221.8,157.9,219.5z"/>
<path fill="#FFFFFF" d="M172.2,227.1h5.2v-5.8c0-0.8,0.1-1.5,0.3-2.1c0.8-2.3,2.8-2.7,4-2.7c0.6,0,1.1,0.1,1.1,0.1v-5.1
	c0,0-0.3-0.1-0.6-0.1c-2.3,0-4.3,1.7-4.9,3.8h-0.1c0,0,0.1-0.5,0.1-1v-2.6h-5V227.1z"/>
<path fill="#FFFFFF" d="M191.6,221.4c0,5.2,4.8,5.8,7.2,5.8c0.8,0,1.4-0.1,1.4-0.1v-4.5c0,0-0.3,0-0.7,0c-1,0-2.8-0.2-2.8-2V216h3.2
	v-4h-3.2v-4.4h-5v4.4h-2.1v4h2V221.4z"/>
<path fill="#FFFFFF" d="M202.7,227.1h5.2v-6.8c0-0.7,0.1-1.4,0.3-2c0.4-1.3,1.5-2.3,3.1-2.3c1.1,0,1.7,0.6,1.7,2v9.1h5.2v-10
	c0-4.3-2.4-5.8-5.5-5.8c-2,0-3.8,0.9-4.7,2.5h-0.1c0,0,0.1-0.5,0.1-1.3v-6.8h-5.2V227.1z"/>
<path fill="#FFFFFF" d="M220,219.4c0,4.1,3,8.1,8.5,8.1c4.1,0,6.6-2.2,6.6-2.2l-1.9-3.6c0,0-2,1.6-4.3,1.6c-1.6,0-3.2-0.9-3.6-2.8
	h9.7c0,0,0.1-1.1,0.1-1.6c0-4.3-2.6-7.5-7.1-7.5C223.1,211.3,220,214.9,220,219.4z M225.5,217.4c0.3-1.1,1-2.2,2.5-2.2
	c1.2,0,2,1,2,2.2H225.5z"/>
<path fill="#FFFFFF" d="M44.7,263.1h14.8v-4.5h-9.1c0.2-2.8,8.8-4,8.8-10.7c0-4.6-3.8-6.6-7.3-6.6c-5.6,0-7.6,4.6-7.6,4.6l3.9,2.6
	c0,0,1.1-2.3,3.2-2.3c1.1,0,2.3,0.6,2.3,2.1c0,3.1-9.3,4.5-9.3,12.4C44.5,261.5,44.5,262.3,44.7,263.1z"/>
<path fill="#FFFFFF" d="M62.5,256.8h9.4v-4.5h-9.4V256.8z"/>
<path fill="#FFFFFF" d="M78.7,263.1H84v-8.8l7.1-12.7h-6l-2.4,5.2c-0.7,1.5-1.3,3.1-1.3,3.1h-0.1c0,0-0.6-1.6-1.3-3.1l-2.4-5.2h-6
	l7.1,12.7V263.1z"/>
<path fill="#FFFFFF" d="M89.5,255.4c0,4.1,3,8.1,8.5,8.1c4.1,0,6.6-2.2,6.6-2.2l-1.9-3.6c0,0-2,1.6-4.3,1.6c-1.6,0-3.2-0.9-3.6-2.8
	h9.7c0,0,0.1-1.1,0.1-1.6c0-4.3-2.6-7.5-7.1-7.5C92.6,247.3,89.5,250.9,89.5,255.4z M95,253.4c0.3-1.1,1-2.2,2.5-2.2
	c1.2,0,2,1,2,2.2H95z"/>
<path fill="#FFFFFF" d="M105.8,258.5c0,3.1,2.4,5,5.2,5c3.2,0,4.4-2.2,4.4-2.2h0.1c0,0-0.1,0.4-0.1,1v0.9h4.7v-9.5
	c0-3.9-2.6-6.3-7-6.3c-3.8,0-6.5,2-6.5,2l1.8,3.7c0,0,2.2-1.5,4.2-1.5c1.3,0,2.3,0.4,2.3,1.7v0.3h-0.2
	C112.3,253.5,105.8,254,105.8,258.5z M111,258.2c0-1.3,1.9-1.8,3.5-1.8h0.5v0.3c0,1.3-1.2,2.7-2.5,2.7
	C111.4,259.5,111,259,111,258.2z"/>
<path fill="#FFFFFF" d="M123.1,263.1h5.2v-5.8c0-0.8,0.1-1.5,0.3-2.1c0.8-2.3,2.8-2.7,4-2.7c0.6,0,1,0.1,1,0.1v-5.1
	c0,0-0.3-0.1-0.6-0.1c-2.3,0-4.3,1.7-4.9,3.8h-0.1c0,0,0.1-0.5,0.1-1v-2.6h-5V263.1z"/>
<path fill="#FFFFFF" d="M146.4,263.1h5.2v-16.9h6.5v-4.5h-18.3v4.5h6.5V263.1z"/>
<path fill="#FFFFFF" d="M166.3,263.1h5.5l7.6-21.4h-5.6l-3.8,12.2c-0.4,1.3-0.8,3.4-0.8,3.4h-0.1c0,0-0.4-2.1-0.8-3.4l-3.8-12.2
	h-5.7L166.3,263.1z"/>
<path fill="#FFFFFF" d="M187.3,263.1h5.2v-6.6h3.7c4.2,0,7-3.1,7-7.4c0-4.3-2.8-7.4-7-7.4h-8.9V263.1z M192.5,252v-5.8h2.7
	c1.7,0,2.6,1.2,2.6,2.9c0,1.7-0.9,2.9-2.7,2.9H192.5z"/>
<path fill="#FFFFFF" d="M205.1,263.1h5.2v-5.8c0-0.8,0.1-1.5,0.3-2.1c0.8-2.3,2.8-2.7,4-2.7c0.6,0,1,0.1,1,0.1v-5.1
	c0,0-0.3-0.1-0.6-0.1c-2.3,0-4.3,1.7-4.9,3.8H210c0,0,0.1-0.5,0.1-1v-2.6h-5V263.1z"/>
<path fill="#FFFFFF" d="M217.5,245.7h5.1v-4h-5.1V245.7z M217.4,263.1h5.2v-15.4h-5.2V263.1z"/>
<path fill="#FFFFFF" d="M224.7,255.4c0,4.3,3.1,8.1,8.6,8.1c4.3,0,6.6-2.5,6.6-2.5l-1.9-3.6c0,0-2.1,1.9-4.2,1.9
	c-2.6,0-3.9-2-3.9-3.8c0-1.8,1.2-3.7,3.7-3.7c2.1,0,3.6,1.5,3.6,1.5l2.2-3.5c0,0-1.9-2.3-6.1-2.3
	C227.7,247.3,224.7,251.3,224.7,255.4z"/>
<path fill="#FFFFFF" d="M240.6,255.4c0,4.1,3,8.1,8.5,8.1c4.1,0,6.6-2.2,6.6-2.2l-1.9-3.6c0,0-2,1.6-4.3,1.6c-1.6,0-3.2-0.9-3.6-2.8
	h9.7c0,0,0.1-1.1,0.1-1.6c0-4.3-2.6-7.5-7.1-7.5C243.7,247.3,240.6,250.9,240.6,255.4z M246.1,253.4c0.3-1.1,1-2.2,2.5-2.2
	c1.2,0,2,1,2,2.2H246.1z"/>
<path fill="#FFFFFF" d="M76.4,288.4c0,7,5,11.1,10.5,11.1c3.6,0,5.6-1.9,5.6-1.9h0.1c0,0,0,0.5,0,0.9v0.6H97V287h-7.7v4.5h3v1.6
	c0,0-1.8,1.6-4.3,1.6c-3.3,0-6.1-2.4-6.1-6.5c0-3.2,1.8-6.1,6.3-6.1c3,0,5.2,2,5.2,2l2.5-3.9c0,0-2.8-2.8-8.2-2.8
	C81.1,277.3,76.4,282.1,76.4,288.4z"/>
<path fill="#FFFFFF" d="M99.6,293.7c0,4.3,2.4,5.8,5.5,5.8c2.1,0,4-1,4.8-2.7h0.1c0,0-0.1,0.5-0.1,1v1.4h5v-15.4h-5.2v6.8
	c0,2.3-1,4.3-3.3,4.3c-1.1,0-1.7-0.6-1.7-2v-9.1h-5.2V293.7z"/>
<path fill="#FFFFFF" d="M116.9,294.5c0,3.1,2.4,5,5.2,5c3.2,0,4.4-2.2,4.4-2.2h0.1c0,0-0.1,0.4-0.1,1v0.9h4.7v-9.5
	c0-3.9-2.6-6.3-7-6.3c-3.8,0-6.5,2-6.5,2l1.8,3.7c0,0,2.2-1.5,4.2-1.5c1.3,0,2.3,0.4,2.3,1.7v0.3h-0.2
	C123.5,289.5,116.9,290,116.9,294.5z M122.1,294.2c0-1.3,1.9-1.8,3.5-1.8h0.5v0.3c0,1.3-1.2,2.7-2.5,2.7
	C122.6,295.5,122.1,295,122.1,294.2z"/>
<path fill="#FFFFFF" d="M134.3,299.1h5.2v-5.8c0-0.8,0.1-1.5,0.3-2.1c0.8-2.3,2.8-2.7,4-2.7c0.6,0,1,0.1,1,0.1v-5.1
	c0,0-0.3-0.1-0.6-0.1c-2.3,0-4.3,1.7-4.9,3.8h-0.1c0,0,0.1-0.5,0.1-1v-2.6h-5V299.1z"/>
<path fill="#FFFFFF" d="M145.4,294.5c0,3.1,2.4,5,5.2,5c3.2,0,4.4-2.2,4.4-2.2h0.1c0,0-0.1,0.4-0.1,1v0.9h4.7v-9.5
	c0-3.9-2.6-6.3-7-6.3c-3.8,0-6.5,2-6.5,2l1.8,3.7c0,0,2.2-1.5,4.2-1.5c1.3,0,2.3,0.4,2.3,1.7v0.3h-0.2
	C152,289.5,145.4,290,145.4,294.5z M150.6,294.2c0-1.3,1.9-1.8,3.5-1.8h0.5v0.3c0,1.3-1.2,2.7-2.5,2.7
	C151.1,295.5,150.6,295,150.6,294.2z"/>
<path fill="#FFFFFF" d="M162.8,299.1h5.2v-6.8c0-0.8,0.1-1.4,0.3-2c0.4-1.3,1.4-2.2,3.1-2.2c1.1,0,1.7,0.6,1.7,2v9.1h5.2v-10
	c0-4.3-2.4-5.8-5.5-5.8c-2.7,0-4.2,1.5-4.9,2.7h-0.1c0,0,0.1-0.5,0.1-1v-1.4h-5V299.1z"/>
<path fill="#FFFFFF" d="M182.1,293.4c0,5.2,4.8,5.8,7.2,5.8c0.8,0,1.4-0.1,1.4-0.1v-4.5c0,0-0.3,0-0.7,0c-1,0-2.8-0.2-2.8-2V288h3.2
	v-4h-3.2v-4.4h-5v4.4h-2.1v4h2V293.4z"/>
<path fill="#FFFFFF" d="M192,291.4c0,4.1,3,8.1,8.5,8.1c4.1,0,6.6-2.2,6.6-2.2l-1.9-3.6c0,0-2,1.6-4.3,1.6c-1.6,0-3.2-0.9-3.6-2.8
	h9.7c0,0,0.1-1.1,0.1-1.6c0-4.3-2.6-7.5-7.1-7.5C195.1,283.3,192,286.9,192,291.4z M197.4,289.4c0.3-1.1,1-2.2,2.5-2.2
	c1.2,0,2,1,2,2.2H197.4z"/>
<path fill="#FFFFFF" d="M208.3,291.4c0,4.1,3,8.1,8.5,8.1c4.1,0,6.6-2.2,6.6-2.2l-1.9-3.6c0,0-2,1.6-4.3,1.6c-1.7,0-3.2-0.9-3.6-2.8
	h9.7c0,0,0.1-1.1,0.1-1.6c0-4.3-2.6-7.5-7.1-7.5C211.4,283.3,208.3,286.9,208.3,291.4z M213.7,289.4c0.3-1.1,1-2.2,2.5-2.2
	c1.2,0,2,1,2,2.2H213.7z"/>
</svg>
