<?xml version="1.0" encoding="utf-8"?>
<!-- Generator: Adobe Illustrator 18.1.1, SVG Export Plug-In . SVG Version: 6.00 Build 0)  -->
<svg version="1.1" id="Layer_1" xmlns="http://www.w3.org/2000/svg" xmlns:xlink="http://www.w3.org/1999/xlink" x="0px" y="0px"
	 width="300px" height="600px" viewBox="0 0 300 600" enable-background="new 0 0 300 600" xml:space="preserve">
<path fill="#FFFFFF" d="M63.1,348.6h1.7v-12.1c0-0.9-0.1-2.3-0.1-2.3h0c0,0,0.8,1.4,1.4,2.3l8.6,12.1h1.6v-16.9h-1.7v12.1
	c0,0.9,0.1,2.3,0.1,2.3h0c0,0-0.8-1.4-1.4-2.3l-8.6-12.1h-1.6V348.6z"/>
<path fill="#FFFFFF" d="M79.3,342.5c0,3.6,2.9,6.4,6.4,6.4c3.5,0,6.4-2.7,6.4-6.4c0-3.6-2.9-6.3-6.4-6.3
	C82.2,336.2,79.3,338.9,79.3,342.5z M81,342.5c0-2.7,2.1-4.8,4.7-4.8c2.6,0,4.7,2,4.7,4.8c0,2.8-2.1,4.9-4.7,4.9
	C83.1,347.4,81,345.3,81,342.5z"/>
<path fill="#FFFFFF" d="M100.6,353.4h1.6v-5.8c0-0.6,0-1.1,0-1.1h0c0,0,1.1,2.3,4,2.3c3.1,0,5.4-2.5,5.4-6.3c0-3.7-2-6.3-5.3-6.3
	c-3.2,0-4.2,2.4-4.2,2.4h0c0,0,0-0.4,0-0.9v-1.2h-1.6V353.4z M102.2,342.6c0-3.4,1.9-4.9,3.9-4.9c2.3,0,3.8,1.9,3.8,4.8
	c0,3.1-1.8,4.9-3.9,4.9C103.6,347.4,102.2,345,102.2,342.6z"/>
<path fill="#FFFFFF" d="M114.3,348.6h1.6v-5.1c0-0.8,0.1-1.6,0.3-2.4c0.5-1.8,1.8-3.1,3.5-3.1c0.3,0,0.6,0,0.6,0v-1.6
	c0,0-0.3-0.1-0.6-0.1c-1.9,0-3.2,1.4-3.8,3.2h0c0,0,0-0.4,0-1v-2.1h-1.6V348.6z"/>
<path fill="#FFFFFF" d="M122.3,333.7h1.7v-2h-1.7V333.7z M122.4,348.6h1.6v-12.1h-1.6V348.6z"/>
<path fill="#FFFFFF" d="M126.6,342.5c0,3.7,2.8,6.3,6.3,6.3c3.1,0,4.7-1.9,4.7-1.9l-0.7-1.3c0,0-1.4,1.7-3.9,1.7
	c-2.7,0-4.8-2-4.8-4.8c0-2.9,2.1-4.8,4.7-4.8c2.2,0,3.5,1.5,3.5,1.5l0.8-1.2c0,0-1.5-1.7-4.4-1.7
	C129.4,336.2,126.6,338.8,126.6,342.5z"/>
<path fill="#FFFFFF" d="M139.3,342.5c0,3.7,2.7,6.3,6.3,6.3c2.7,0,4.5-1.7,4.5-1.7l-0.7-1.2c0,0-1.5,1.5-3.7,1.5
	c-2.5,0-4.6-1.7-4.7-4.8h9.3c0,0,0-0.6,0-0.8c0-3-1.7-5.6-5-5.6C142,336.2,139.3,338.6,139.3,342.5z M141.1,341.3
	c0.4-2.4,2.1-3.7,4.2-3.7c1.8,0,3.3,1.2,3.4,3.7H141.1z"/>
<path fill="#FFFFFF" d="M158.9,348.6h1.6v-5.8c0-0.6,0-1.1,0.2-1.6c0.6-2,2.3-3.4,4.4-3.4c2.3,0,2.6,1.7,2.6,3.6v7.2h1.6v-7.7
	c0-3-1.1-4.7-4-4.7c-2.7,0-4.3,1.8-4.8,3h0c0,0,0-0.4,0-1v-6.5h-1.6V348.6z"/>
<path fill="#FFFFFF" d="M172.6,333.7h1.7v-2h-1.7V333.7z M172.7,348.6h1.6v-12.1h-1.6V348.6z"/>
<path fill="#FFFFFF" d="M177.8,348.6h1.6v-6h1.9l4,6h1.9l-4.6-6.8v0l4.2-5.3h-2l-3.6,4.6h-1.9v-9.4h-1.6V348.6z"/>
<path fill="#FFFFFF" d="M188.3,342.5c0,3.7,2.7,6.3,6.3,6.3c2.7,0,4.5-1.7,4.5-1.7l-0.7-1.2c0,0-1.5,1.5-3.7,1.5
	c-2.5,0-4.6-1.7-4.7-4.8h9.3c0,0,0-0.6,0-0.8c0-3-1.7-5.6-5-5.6C191,336.2,188.3,338.6,188.3,342.5z M190,341.3
	c0.4-2.4,2.1-3.7,4.2-3.7c1.8,0,3.3,1.2,3.4,3.7H190z"/>
<path fill="#FFFFFF" d="M200.9,347.1c0,0,1.5,1.8,4.5,1.8c2.4,0,4.1-1.4,4.1-3.4c0-4-6.5-3.3-6.5-5.9c0-1.3,1.2-1.9,2.4-1.9
	c2,0,3,1.1,3,1.1l0.7-1.2c0,0-1.2-1.3-3.7-1.3c-2.2,0-4.1,1.2-4.1,3.3c0,3.9,6.5,3.3,6.5,5.9c0,1.3-1.1,1.9-2.4,1.9
	c-2.3,0-3.6-1.5-3.6-1.5L200.9,347.1z"/>
<path fill="#FFFFFF" d="M217.2,342.5c0,3.6,2.9,6.4,6.4,6.4c3.5,0,6.4-2.7,6.4-6.4c0-3.6-2.9-6.3-6.4-6.3
	C220,336.2,217.2,338.9,217.2,342.5z M218.8,342.5c0-2.7,2.1-4.8,4.7-4.8c2.6,0,4.7,2,4.7,4.8c0,2.8-2.1,4.9-4.7,4.9
	C221,347.4,218.8,345.3,218.8,342.5z"/>
<path fill="#FFFFFF" d="M232.5,348.6h1.6v-5.1c0-0.8,0.1-1.6,0.3-2.4c0.5-1.8,1.8-3.1,3.5-3.1c0.3,0,0.6,0,0.6,0v-1.6
	c0,0-0.3-0.1-0.6-0.1c-1.9,0-3.2,1.4-3.8,3.2h0c0,0,0-0.4,0-1v-2.1h-1.6V348.6z"/>
<path fill="#FFFFFF" d="M43.9,377.4h1.6v-5.8c0-0.6,0-1.1,0.2-1.6c0.6-2,2.3-3.4,4.4-3.4c2.3,0,2.6,1.7,2.6,3.6v7.2h1.6v-7.7
	c0-3-1.1-4.7-4-4.7c-2.7,0-4.3,1.8-4.8,3h0c0,0,0-0.4,0-1v-6.5h-1.6V377.4z"/>
<path fill="#FFFFFF" d="M57.6,362.5h1.7v-2h-1.7V362.5z M57.6,377.4h1.6v-12.1h-1.6V377.4z"/>
<path fill="#FFFFFF" d="M61.9,371.3c0,3.7,2,6.3,5.3,6.3c3.2,0,4.2-2.4,4.2-2.4h0c0,0,0,0.3,0,0.9v1.3h1.6v-16.9h-1.6v5.9
	c0,0.5,0,0.9,0,0.9h0c0,0-1-2.3-3.9-2.3C64.2,365,61.9,367.5,61.9,371.3z M63.6,371.3c0-3,1.8-4.8,3.9-4.8c2.6,0,3.8,2.4,3.8,4.8
	c0,3.4-1.9,4.9-3.9,4.9C65.2,376.2,63.6,374.3,63.6,371.3z"/>
<path fill="#FFFFFF" d="M75.6,371.3c0,3.7,2,6.3,5.3,6.3c3.2,0,4.2-2.4,4.2-2.4h0c0,0,0,0.3,0,0.9v1.3h1.6v-16.9h-1.6v5.9
	c0,0.5,0,0.9,0,0.9h0c0,0-1-2.3-3.9-2.3C77.8,365,75.6,367.5,75.6,371.3z M77.3,371.3c0-3,1.8-4.8,3.9-4.8c2.6,0,3.8,2.4,3.8,4.8
	c0,3.4-1.9,4.9-3.9,4.9C78.8,376.2,77.3,374.3,77.3,371.3z"/>
<path fill="#FFFFFF" d="M89.2,371.3c0,3.7,2.7,6.3,6.3,6.3c2.7,0,4.5-1.7,4.5-1.7l-0.7-1.2c0,0-1.5,1.5-3.7,1.5
	c-2.5,0-4.6-1.7-4.7-4.8h9.3c0,0,0-0.6,0-0.8c0-3-1.7-5.6-5-5.6C91.9,365,89.2,367.4,89.2,371.3z M90.9,370.1
	c0.4-2.4,2.1-3.7,4.2-3.7c1.8,0,3.3,1.2,3.4,3.7H90.9z"/>
<path fill="#FFFFFF" d="M102.8,377.4h1.6v-5.8c0-0.6,0-1.1,0.2-1.6c0.6-2,2.3-3.4,4.4-3.4c2.3,0,2.6,1.7,2.6,3.6v7.2h1.6v-7.7
	c0-3-1.1-4.7-4-4.7c-2.9,0-4.4,1.9-4.8,3h0c0,0,0-0.4,0-1v-1.8h-1.6V377.4z"/>
<path fill="#FFFFFF" d="M122.5,377.4h1.6v-5.7c0-0.6,0-1.1,0.2-1.6c0.5-1.8,2-3.6,4-3.6c2.3,0,2.5,1.8,2.5,3.6v7.3h1.6v-5.7
	c0-0.6,0-1.2,0.2-1.8c0.5-1.8,2-3.4,3.8-3.4c2.2,0,2.6,1.6,2.6,3.6v7.3h1.6v-7.7c0-3-1.1-4.7-4-4.7c-2,0-3.8,1.4-4.4,3h0
	c-0.4-2-1.5-3-3.7-3c-1.9,0-3.8,1.4-4.4,3h0c0,0,0-0.4,0-1v-1.8h-1.6V377.4z"/>
<path fill="#FFFFFF" d="M143.2,371.3c0,3.6,2.9,6.4,6.4,6.4c3.5,0,6.4-2.7,6.4-6.4c0-3.6-2.9-6.3-6.4-6.3
	C146,365,143.2,367.7,143.2,371.3z M144.8,371.3c0-2.7,2.1-4.8,4.7-4.8c2.6,0,4.7,2,4.7,4.8c0,2.8-2.1,4.9-4.7,4.9
	C147,376.2,144.8,374.1,144.8,371.3z"/>
<path fill="#FFFFFF" d="M158.5,377.4h1.6v-5.8c0-0.6,0-1.1,0.2-1.6c0.6-2,2.3-3.4,4.4-3.4c2.3,0,2.6,1.7,2.6,3.6v7.2h1.6v-7.7
	c0-3-1.1-4.7-4-4.7c-2.9,0-4.4,1.9-4.8,3h0c0,0,0-0.4,0-1v-1.8h-1.6V377.4z"/>
<path fill="#FFFFFF" d="M172.7,373c0,4,2.8,4.5,4.2,4.5c0.4,0,0.7,0,0.7,0v-1.5c0,0-0.2,0-0.6,0c-0.9,0-2.7-0.4-2.7-3.2v-6h3v-1.4
	h-3v-3.5h-1.6v3.5h-1.6v1.4h1.6V373z"/>
<path fill="#FFFFFF" d="M179.8,377.4h1.6v-5.8c0-0.6,0-1.1,0.2-1.6c0.6-2,2.3-3.4,4.4-3.4c2.3,0,2.6,1.7,2.6,3.6v7.2h1.6v-7.7
	c0-3-1.1-4.7-4-4.7c-2.7,0-4.3,1.8-4.8,3h0c0,0,0-0.4,0-1v-6.5h-1.6V377.4z"/>
<path fill="#FFFFFF" d="M193.4,374.5c0,2.6,1.8,3,2.8,3c0.3,0,0.6,0,0.6,0v-1.5c0,0-0.2,0-0.4,0c-0.6,0-1.3-0.2-1.3-1.8v-13.7h-1.6
	V374.5z"/>
<path fill="#FFFFFF" d="M197.2,381.7c0,0,0.9,0.7,2.1,0.7c1.6,0,2.9-1,3.5-2.5l6-14.6H207l-3.5,8.8c-0.2,0.6-0.4,1.3-0.4,1.3h0
	c0,0-0.2-0.7-0.4-1.3l-3.6-8.8h-1.8l5,12l-0.7,1.7c-0.5,1.1-1.2,2-2.3,2c-0.8,0-1.4-0.6-1.4-0.6L197.2,381.7z"/>
<path fill="#FFFFFF" d="M217,377.4h1.6v-10.6h3.1v-1.4h-3.1v-0.6c0-2.7,1.8-3,2.7-3c0.3,0,0.6,0,0.6,0v-1.5c0,0-0.3,0-0.7,0
	c-1.4,0-4.2,0.5-4.2,4.5v0.6h-1.5v1.4h1.5V377.4z"/>
<path fill="#FFFFFF" d="M222.7,371.3c0,3.7,2.7,6.3,6.3,6.3c2.7,0,4.5-1.7,4.5-1.7l-0.7-1.2c0,0-1.5,1.5-3.7,1.5
	c-2.5,0-4.6-1.7-4.7-4.8h9.3c0,0,0-0.6,0-0.8c0-3-1.7-5.6-5-5.6C225.4,365,222.7,367.4,222.7,371.3z M224.5,370.1
	c0.4-2.4,2.1-3.7,4.2-3.7c1.8,0,3.3,1.2,3.4,3.7H224.5z"/>
<path fill="#FFFFFF" d="M235.5,371.3c0,3.7,2.7,6.3,6.3,6.3c2.7,0,4.5-1.7,4.5-1.7l-0.7-1.2c0,0-1.5,1.5-3.7,1.5
	c-2.5,0-4.6-1.7-4.7-4.8h9.3c0,0,0-0.6,0-0.8c0-3-1.7-5.6-5-5.6C238.2,365,235.5,367.4,235.5,371.3z M237.3,370.1
	c0.4-2.4,2.1-3.7,4.2-3.7c1.8,0,3.3,1.2,3.4,3.7H237.3z"/>
<path fill="#FFFFFF" d="M248.2,375.9c0,0,1.5,1.8,4.5,1.8c2.4,0,4.1-1.4,4.1-3.4c0-4-6.5-3.3-6.5-5.9c0-1.3,1.2-1.9,2.4-1.9
	c2,0,3,1.1,3,1.1l0.7-1.2c0,0-1.2-1.3-3.7-1.3c-2.2,0-4.1,1.2-4.1,3.3c0,3.9,6.5,3.3,6.5,5.9c0,1.3-1.1,1.9-2.4,1.9
	c-2.3,0-3.6-1.5-3.6-1.5L248.2,375.9z"/>
<path fill="#FFFFFF" d="M55.4,403.3c0,2.6,1.8,3,2.8,3c0.3,0,0.6,0,0.6,0v-1.5c0,0-0.2,0-0.4,0c-0.6,0-1.3-0.2-1.3-1.8v-13.7h-1.6
	V403.3z"/>
<path fill="#FFFFFF" d="M60.9,391.3h1.7v-2h-1.7V391.3z M61,406.2h1.6v-12.1H61V406.2z"/>
<path fill="#FFFFFF" d="M66.1,406.2h1.6v-6h1.9l4,6h1.9l-4.6-6.8v0l4.2-5.3h-2l-3.6,4.6h-1.9v-9.4h-1.6V406.2z"/>
<path fill="#FFFFFF" d="M76.6,400.1c0,3.7,2.7,6.3,6.3,6.3c2.7,0,4.5-1.7,4.5-1.7l-0.7-1.2c0,0-1.5,1.5-3.7,1.5
	c-2.5,0-4.6-1.7-4.7-4.8h9.3c0,0,0-0.6,0-0.8c0-3-1.7-5.6-5-5.6C79.3,393.8,76.6,396.2,76.6,400.1z M78.4,398.9
	c0.4-2.4,2.1-3.7,4.2-3.7c1.8,0,3.3,1.2,3.4,3.7H78.4z"/>
<path fill="#FFFFFF" d="M96.7,401.8c0,4,2.8,4.5,4.2,4.5c0.4,0,0.7,0,0.7,0v-1.5c0,0-0.2,0-0.6,0c-0.9,0-2.7-0.4-2.7-3.2v-6h3v-1.4
	h-3v-3.5h-1.6v3.5h-1.6v1.4h1.6V401.8z"/>
<path fill="#FFFFFF" d="M103.8,406.2h1.6v-5.8c0-0.6,0-1.1,0.2-1.6c0.6-2,2.3-3.4,4.4-3.4c2.3,0,2.6,1.7,2.6,3.6v7.2h1.6v-7.7
	c0-3-1.1-4.7-4-4.7c-2.7,0-4.3,1.8-4.8,3h0c0,0,0-0.4,0-1v-6.5h-1.6V406.2z"/>
<path fill="#FFFFFF" d="M116.7,400.1c0,3.7,2.7,6.3,6.3,6.3c2.7,0,4.5-1.7,4.5-1.7l-0.7-1.2c0,0-1.5,1.5-3.7,1.5
	c-2.5,0-4.6-1.7-4.7-4.8h9.3c0,0,0-0.6,0-0.8c0-3-1.7-5.6-5-5.6C119.4,393.8,116.7,396.2,116.7,400.1z M118.4,398.9
	c0.4-2.4,2.1-3.7,4.2-3.7c1.8,0,3.3,1.2,3.4,3.7H118.4z"/>
<path fill="#FFFFFF" d="M135.4,400.1c0,3.6,2.9,6.4,6.4,6.4s6.4-2.7,6.4-6.4c0-3.6-2.9-6.3-6.4-6.3S135.4,396.5,135.4,400.1z
	 M137.1,400.1c0-2.7,2.1-4.8,4.7-4.8c2.6,0,4.7,2,4.7,4.8c0,2.8-2.1,4.9-4.7,4.9C139.2,405,137.1,402.9,137.1,400.1z"/>
<path fill="#FFFFFF" d="M151.2,401.8c0,4,2.8,4.5,4.2,4.5c0.4,0,0.7,0,0.7,0v-1.5c0,0-0.2,0-0.6,0c-0.9,0-2.7-0.4-2.7-3.2v-6h3v-1.4
	h-3v-3.5h-1.6v3.5h-1.6v1.4h1.6V401.8z"/>
<path fill="#FFFFFF" d="M158.3,406.2h1.6v-5.8c0-0.6,0-1.1,0.2-1.6c0.6-2,2.3-3.4,4.4-3.4c2.3,0,2.6,1.7,2.6,3.6v7.2h1.6v-7.7
	c0-3-1.1-4.7-4-4.7c-2.7,0-4.3,1.8-4.8,3h0c0,0,0-0.4,0-1v-6.5h-1.6V406.2z"/>
<path fill="#FFFFFF" d="M171.2,400.1c0,3.7,2.7,6.3,6.3,6.3c2.7,0,4.5-1.7,4.5-1.7l-0.7-1.2c0,0-1.5,1.5-3.7,1.5
	c-2.5,0-4.6-1.7-4.7-4.8h9.3c0,0,0-0.6,0-0.8c0-3-1.7-5.6-5-5.6C173.9,393.8,171.2,396.2,171.2,400.1z M173,398.9
	c0.4-2.4,2.1-3.7,4.2-3.7c1.8,0,3.3,1.2,3.4,3.7H173z"/>
<path fill="#FFFFFF" d="M184.8,406.2h1.6v-5.1c0-0.8,0.1-1.6,0.3-2.4c0.5-1.8,1.8-3.1,3.5-3.1c0.3,0,0.6,0,0.6,0V394
	c0,0-0.3-0.1-0.6-0.1c-1.9,0-3.2,1.4-3.8,3.2h0c0,0,0-0.4,0-1v-2.1h-1.6V406.2z"/>
<path fill="#FFFFFF" d="M199.8,408.9l-0.6,1.3c1.2,0.6,2.6,1,4,1c3,0,5.8-1.5,5.8-5.3v-11.8h-1.6v1.3c0,0.3,0,0.4,0,0.4h0
	c0,0-0.8-2-4-2c-3.2,0-5.2,2.5-5.2,6.1c0,3.6,2.1,6.2,5.4,6.2c1.9,0,3.1-0.8,3.8-2.1h0c0,0,0,0.4,0,0.9v1.1c0,2.7-1.9,3.8-4.2,3.8
	C201.3,409.7,199.8,408.9,199.8,408.9z M203.7,404.6c-2.4,0-4-1.9-4-4.8c0-2.9,1.4-4.6,3.7-4.6c2.1,0,3.8,1.1,3.8,4.6
	C207.3,403.4,205.6,404.6,203.7,404.6z"/>
<path fill="#FFFFFF" d="M212.2,401.8c0,3.1,1.2,4.7,4,4.7c2.7,0,4.2-1.9,4.7-3h0c0,0,0,0.4,0,1v1.8h1.6v-12.1h-1.6v5.8
	c0,2.6-1.7,5-4.5,5c-2.3,0-2.6-1.7-2.6-3.6v-7.2h-1.6V401.8z"/>
<path fill="#FFFFFF" d="M224.2,410.5c0,0,0.9,0.7,2.1,0.7c1.6,0,2.9-1,3.5-2.5l6-14.6H234l-3.5,8.8c-0.2,0.6-0.4,1.3-0.4,1.3h0
	c0,0-0.2-0.7-0.4-1.3l-3.6-8.8h-1.8l5,12l-0.7,1.7c-0.5,1.1-1.2,2-2.3,2c-0.8,0-1.4-0.6-1.4-0.6L224.2,410.5z"/>
<path fill="#FFFFFF" d="M236.5,404.7c0,0,1.5,1.8,4.5,1.8c2.4,0,4.1-1.4,4.1-3.4c0-4-6.5-3.3-6.5-5.9c0-1.3,1.2-1.9,2.4-1.9
	c2,0,3,1.1,3,1.1l0.7-1.2c0,0-1.2-1.3-3.7-1.3c-2.2,0-4.1,1.2-4.1,3.3c0,3.9,6.5,3.3,6.5,5.9c0,1.3-1.1,1.9-2.4,1.9
	c-2.3,0-3.6-1.5-3.6-1.5L236.5,404.7z"/>
</svg>
