<?xml version="1.0" encoding="utf-8"?>
<!-- Generator: Adobe Illustrator 18.1.1, SVG Export Plug-In . SVG Version: 6.00 Build 0)  -->
<svg version="1.1" id="Layer_1" xmlns="http://www.w3.org/2000/svg" xmlns:xlink="http://www.w3.org/1999/xlink" x="0px" y="0px"
	 width="300px" height="600px" viewBox="0 0 300 600" enable-background="new 0 0 300 600" xml:space="preserve">
<path fill="#FFFFFF" d="M30.8,250.1h7.6c6.7,0,11.1-4,11.1-10.8s-4.3-10.7-11.1-10.7h-7.6V250.1z M36,245.6v-12.4h2.2
	c3.5,0,5.8,2.1,5.8,6.2c0,4.1-2.2,6.3-5.8,6.3H36z"/>
<path fill="#FFFFFF" d="M50.8,242.5c0,4.8,3.9,8,8.8,8s8.8-3.2,8.8-8c0-4.9-3.9-8.1-8.8-8.1C54.7,234.3,50.8,237.6,50.8,242.5z
	 M56.1,242.5c0-2.3,1.6-3.8,3.5-3.8c1.9,0,3.5,1.5,3.5,3.8c0,2.3-1.6,3.7-3.5,3.7C57.7,246.2,56.1,244.8,56.1,242.5z"/>
<path fill="#FFFFFF" d="M70.4,250.1h5.2v-6.8c0-0.8,0.1-1.4,0.3-2c0.4-1.3,1.4-2.2,3.1-2.2c1.1,0,1.7,0.6,1.7,2v9.1h5.2v-10
	c0-4.3-2.4-5.8-5.5-5.8c-2.7,0-4.2,1.5-4.9,2.7h-0.1c0,0,0.1-0.4,0.1-1v-1.3h-5V250.1z"/>
<path fill="#FFFFFF" d="M88,235.9h3.5l2.7-7.6h-4.6L88,235.9z"/>
<path fill="#FFFFFF" d="M96.7,244.4c0,5.2,4.8,5.8,7.2,5.8c0.8,0,1.4-0.1,1.4-0.1v-4.5c0,0-0.3,0-0.7,0c-1,0-2.8-0.2-2.8-2V239h3.2
	v-4h-3.2v-4.4h-5v4.4h-2.1v4h2V244.4z"/>
<path fill="#FFFFFF" d="M114,250.1h5.2v-6.8c0-0.7,0.1-1.4,0.3-2c0.4-1.3,1.5-2.3,3.1-2.3c1.1,0,1.7,0.6,1.7,2v9.1h5.2v-10
	c0-4.3-2.4-5.8-5.5-5.8c-2,0-3.8,0.9-4.7,2.5h-0.1c0,0,0.1-0.5,0.1-1.3v-6.8H114V250.1z"/>
<path fill="#FFFFFF" d="M131.3,245.5c0,3.1,2.4,5,5.2,5c3.2,0,4.4-2.2,4.4-2.2h0.1c0,0-0.1,0.4-0.1,1v0.9h4.7v-9.5
	c0-3.9-2.6-6.3-7-6.3c-3.8,0-6.5,2-6.5,2l1.8,3.7c0,0,2.2-1.5,4.2-1.5c1.3,0,2.3,0.4,2.3,1.7v0.3h-0.2
	C137.9,240.5,131.3,241,131.3,245.5z M136.5,245.2c0-1.3,1.9-1.8,3.5-1.8h0.5v0.3c0,1.3-1.2,2.7-2.5,2.7
	C137,246.5,136.5,246,136.5,245.2z"/>
<path fill="#FFFFFF" d="M151.9,250.1h6.3l5.2-15.4H158l-2.4,8.2c-0.3,1-0.6,2.7-0.6,2.7H155c0,0-0.3-1.7-0.6-2.7l-2.4-8.2h-5.5
	L151.9,250.1z"/>
<path fill="#FFFFFF" d="M163.7,242.4c0,4.1,3,8.1,8.5,8.1c4.1,0,6.6-2.2,6.6-2.2l-1.9-3.6c0,0-2,1.6-4.3,1.6c-1.6,0-3.2-0.9-3.6-2.8
	h9.7c0,0,0.1-1.1,0.1-1.6c0-4.3-2.6-7.5-7.1-7.5C166.8,234.3,163.7,237.9,163.7,242.4z M169.1,240.4c0.3-1.1,1-2.2,2.5-2.2
	c1.2,0,2,1,2,2.2H169.1z"/>
<path fill="#FFFFFF" d="M188,250.1h7.6c6.7,0,11.1-4,11.1-10.8s-4.3-10.7-11.1-10.7H188V250.1z M193.2,245.6v-12.4h2.2
	c3.5,0,5.8,2.1,5.8,6.2c0,4.1-2.2,6.3-5.8,6.3H193.2z"/>
<path fill="#FFFFFF" d="M209.7,250.1h5.2v-21.4h-5.2V250.1z"/>
<path fill="#FFFFFF" d="M217.8,247.4c0,0,2.8,3.1,7.8,3.1c4.8,0,7.6-3.1,7.6-6.7c0-6.8-9.7-6.3-9.7-9c0-1.2,1.2-1.7,2.3-1.7
	c2.6,0,4.7,1.9,4.7,1.9l2.2-4.3c0,0-2.3-2.4-6.9-2.4c-4.3,0-7.6,2.6-7.6,6.6c0,6.6,9.7,6.5,9.7,9.1c0,1.3-1.2,1.7-2.2,1.7
	c-2.7,0-5.1-2.2-5.1-2.2L217.8,247.4z"/>
<path fill="#FFFFFF" d="M236.2,250.1h5.2v-8.4h7.8v8.4h5.2v-21.4h-5.2v8.6h-7.8v-8.6h-5.2V250.1z"/>
<path fill="#FFFFFF" d="M260.1,243.5h5v-1.1c0-2.7,5.1-3.4,5.1-8.3c0-3.9-3.6-5.9-7-5.9c-4,0-6.3,2.5-6.3,2.5l2.9,3.5
	c0,0,1.4-1.3,2.8-1.3c1.1,0,2.1,0.8,2.1,1.8c0,2.5-4.7,3.2-4.7,7.3V243.5z M260.3,250.1h4.7v-4.5h-4.7V250.1z"/>
<path fill="#FFFFFF" d="M36.9,278.9h1.7v-7.2l5.7-9.6h-1.9l-3.6,6.1c-0.5,0.9-1,2-1,2h0c0,0-0.5-1.2-1-2l-3.6-6.1h-1.9l5.7,9.6
	V278.9z"/>
<path fill="#FFFFFF" d="M43.9,272.8c0,3.6,2.9,6.4,6.4,6.4s6.4-2.7,6.4-6.4c0-3.6-2.9-6.3-6.4-6.3S43.9,269.3,43.9,272.8z
	 M45.5,272.8c0-2.7,2.1-4.8,4.7-4.8c2.6,0,4.7,2,4.7,4.8c0,2.8-2.1,4.9-4.7,4.9C47.6,277.8,45.5,275.6,45.5,272.8z"/>
<path fill="#FFFFFF" d="M59,274.5c0,3.1,1.2,4.7,4,4.7c2.7,0,4.2-1.9,4.7-3h0c0,0,0,0.4,0,1v1.8h1.6v-12.1h-1.6v5.8
	c0,2.6-1.7,5-4.5,5c-2.3,0-2.6-1.7-2.6-3.6v-7.2H59V274.5z"/>
<path fill="#FFFFFF" d="M72.8,278.9h1.6v-5.1c0-0.8,0.1-1.6,0.3-2.4c0.5-1.8,1.8-3.1,3.5-3.1c0.3,0,0.6,0,0.6,0v-1.6
	c0,0-0.3-0.1-0.6-0.1c-1.9,0-3.2,1.4-3.8,3.2h0c0,0,0-0.4,0-1v-2.1h-1.6V278.9z"/>
<path fill="#FFFFFF" d="M91.1,278.9h1.7v-15.4h6v-1.5H85.1v1.5h6.1V278.9z"/>
<path fill="#FFFFFF" d="M105.5,278.9h1.7l6.3-16.9h-1.8l-4.7,12.8c-0.3,0.9-0.6,2.2-0.6,2.2h0c0,0-0.3-1.3-0.6-2.2l-4.7-12.8h-1.8
	L105.5,278.9z"/>
<path fill="#FFFFFF" d="M121.2,278.9h1.6v-1.1c0-0.6,0-1,0-1h0c0,0,1.1,2.4,4,2.4c3.2,0,5.4-2.5,5.4-6.3c0-3.7-2-6.3-5.3-6.3
	c-3.1,0-4.1,2.3-4.1,2.3h0c0,0,0-0.4,0-1v-5.9h-1.6V278.9z M122.8,272.9c0-3.4,1.9-4.9,3.9-4.9c2.3,0,3.8,1.9,3.8,4.8
	c0,3.1-1.8,4.9-3.9,4.9C124.1,277.8,122.8,275.4,122.8,272.9z"/>
<path fill="#FFFFFF" d="M134.8,264.1h1.7v-2h-1.7V264.1z M134.9,278.9h1.6v-12.1h-1.6V278.9z"/>
<path fill="#FFFFFF" d="M139.9,276.1c0,2.6,1.8,3,2.8,3c0.3,0,0.6,0,0.6,0v-1.5c0,0-0.2,0-0.4,0c-0.6,0-1.3-0.2-1.3-1.8v-13.7h-1.6
	V276.1z"/>
<path fill="#FFFFFF" d="M145.3,276.1c0,2.6,1.8,3,2.8,3c0.3,0,0.6,0,0.6,0v-1.5c0,0-0.2,0-0.4,0c-0.6,0-1.3-0.2-1.3-1.8v-13.7h-1.6
	V276.1z"/>
<path fill="#FFFFFF" d="M156.8,264.1h1.7v-2h-1.7V264.1z M156.8,278.9h1.6v-12.1h-1.6V278.9z"/>
<path fill="#FFFFFF" d="M160.9,277.5c0,0,1.5,1.8,4.5,1.8c2.4,0,4.1-1.4,4.1-3.4c0-4-6.5-3.3-6.5-5.9c0-1.3,1.2-1.9,2.4-1.9
	c2,0,3,1.1,3,1.1l0.7-1.2c0,0-1.2-1.3-3.7-1.3c-2.2,0-4.1,1.2-4.1,3.3c0,3.9,6.5,3.3,6.5,5.9c0,1.3-1.1,1.9-2.4,1.9
	c-2.3,0-3.6-1.5-3.6-1.5L160.9,277.5z"/>
<path fill="#FFFFFF" d="M178.1,283.7h1.6V278c0-0.6,0-1.1,0-1.1h0c0,0,1.1,2.3,4,2.3c3.1,0,5.4-2.5,5.4-6.3c0-3.7-2-6.3-5.3-6.3
	c-3.2,0-4.2,2.4-4.2,2.4h0c0,0,0-0.4,0-0.9v-1.2h-1.6V283.7z M179.6,272.9c0-3.4,1.9-4.9,3.9-4.9c2.3,0,3.8,1.9,3.8,4.8
	c0,3.1-1.8,4.9-3.9,4.9C181,277.8,179.6,275.4,179.6,272.9z"/>
<path fill="#FFFFFF" d="M191.7,278.9h1.6v-5.1c0-0.8,0.1-1.6,0.3-2.4c0.5-1.8,1.8-3.1,3.5-3.1c0.3,0,0.6,0,0.6,0v-1.6
	c0,0-0.3-0.1-0.6-0.1c-1.9,0-3.2,1.4-3.8,3.2h0c0,0,0-0.4,0-1v-2.1h-1.6V278.9z"/>
<path fill="#FFFFFF" d="M198.7,272.8c0,3.6,2.9,6.4,6.4,6.4c3.5,0,6.4-2.7,6.4-6.4c0-3.6-2.9-6.3-6.4-6.3
	C201.6,266.6,198.7,269.3,198.7,272.8z M200.4,272.8c0-2.7,2.1-4.8,4.7-4.8c2.6,0,4.7,2,4.7,4.8c0,2.8-2.1,4.9-4.7,4.9
	C202.5,277.8,200.4,275.6,200.4,272.8z"/>
<path fill="#FFFFFF" d="M214.1,278.9h1.6v-1.1c0-0.6,0-1,0-1h0c0,0,1.1,2.4,4,2.4c3.2,0,5.4-2.5,5.4-6.3c0-3.7-2-6.3-5.3-6.3
	c-3.1,0-4.1,2.3-4.1,2.3h0c0,0,0-0.4,0-1v-5.9h-1.6V278.9z M215.7,272.9c0-3.4,1.9-4.9,3.9-4.9c2.3,0,3.8,1.9,3.8,4.8
	c0,3.1-1.8,4.9-3.9,4.9C216.9,277.8,215.7,275.4,215.7,272.9z"/>
<path fill="#FFFFFF" d="M226.8,275.6c0,2.4,2.1,3.6,4.1,3.6c3,0,4-2.6,4-2.6h0c0,0,0,0.4,0,1v1.3h1.6v-7.7c0-3-1.6-4.6-4.5-4.6
	c-2.7,0-4.3,1.4-4.3,1.4l0.8,1.2c0,0,1.4-1.2,3.4-1.2c1.7,0,3,0.8,3,3.1v0.3h-0.7C232.1,271.5,226.8,271.6,226.8,275.6z
	 M228.4,275.5c0-2.7,3.8-2.7,5.7-2.7h0.7v0.5c0,2.1-1.4,4.5-3.7,4.5C229.3,277.8,228.4,276.7,228.4,275.5z"/>
<path fill="#FFFFFF" d="M239.7,278.9h1.6v-1.1c0-0.6,0-1,0-1h0c0,0,1.1,2.4,4,2.4c3.2,0,5.4-2.5,5.4-6.3c0-3.7-2-6.3-5.3-6.3
	c-3.1,0-4.1,2.3-4.1,2.3h0c0,0,0-0.4,0-1v-5.9h-1.6V278.9z M241.3,272.9c0-3.4,1.9-4.9,3.9-4.9c2.3,0,3.8,1.9,3.8,4.8
	c0,3.1-1.8,4.9-3.9,4.9C242.6,277.8,241.3,275.4,241.3,272.9z"/>
<path fill="#FFFFFF" d="M253.3,276.1c0,2.6,1.8,3,2.8,3c0.3,0,0.6,0,0.6,0v-1.5c0,0-0.2,0-0.4,0c-0.6,0-1.3-0.2-1.3-1.8v-13.7h-1.6
	V276.1z"/>
<path fill="#FFFFFF" d="M257,283.3c0,0,0.9,0.7,2.1,0.7c1.6,0,2.9-1,3.5-2.5l6-14.6h-1.8l-3.5,8.8c-0.2,0.6-0.4,1.3-0.4,1.3h0
	c0,0-0.2-0.7-0.4-1.3l-3.6-8.8h-1.8l5,12l-0.7,1.7c-0.5,1.1-1.2,2-2.3,2c-0.8,0-1.4-0.6-1.4-0.6L257,283.3z"/>
<path fill="#FFFFFF" d="M37.1,310.5l-0.6,1.3c1.2,0.6,2.6,1,4,1c3,0,5.8-1.5,5.8-5.3v-11.8h-1.6v1.3c0,0.3,0,0.4,0,0.4h0
	c0,0-0.8-2-4-2c-3.2,0-5.2,2.5-5.2,6.1c0,3.6,2.1,6.2,5.4,6.2c1.9,0,3.1-0.8,3.8-2.1h0c0,0,0,0.4,0,0.9v1.1c0,2.7-1.9,3.8-4.2,3.8
	C38.6,311.3,37.1,310.5,37.1,310.5z M41.1,306.2c-2.4,0-4-1.9-4-4.8c0-2.9,1.4-4.6,3.7-4.6c2.1,0,3.8,1.1,3.8,4.6
	C44.6,305,43,306.2,41.1,306.2z"/>
<path fill="#FFFFFF" d="M48.8,301.6c0,3.6,2.9,6.4,6.4,6.4c3.5,0,6.4-2.7,6.4-6.4c0-3.6-2.9-6.3-6.4-6.3
	C51.7,295.4,48.8,298.1,48.8,301.6z M50.5,301.6c0-2.7,2.1-4.8,4.7-4.8c2.6,0,4.7,2,4.7,4.8c0,2.8-2.1,4.9-4.7,4.9
	C52.6,306.6,50.5,304.4,50.5,301.6z"/>
<path fill="#FFFFFF" d="M64.1,292.9h1.7v-2h-1.7V292.9z M64.2,307.7h1.6v-12.1h-1.6V307.7z"/>
<path fill="#FFFFFF" d="M69.2,307.7h1.6v-5.8c0-0.6,0-1.1,0.2-1.6c0.6-2,2.3-3.4,4.4-3.4c2.3,0,2.6,1.7,2.6,3.6v7.2h1.6v-7.7
	c0-3-1.1-4.7-4-4.7c-2.9,0-4.4,1.9-4.8,3h0c0,0,0-0.4,0-1v-1.8h-1.6V307.7z"/>
<path fill="#FFFFFF" d="M83.9,310.5l-0.6,1.3c1.2,0.6,2.6,1,4,1c3,0,5.8-1.5,5.8-5.3v-11.8h-1.6v1.3c0,0.3,0,0.4,0,0.4h0
	c0,0-0.8-2-4-2c-3.2,0-5.2,2.5-5.2,6.1c0,3.6,2.1,6.2,5.4,6.2c1.9,0,3.1-0.8,3.8-2.1h0c0,0,0,0.4,0,0.9v1.1c0,2.7-1.9,3.8-4.2,3.8
	C85.4,311.3,83.9,310.5,83.9,310.5z M87.8,306.2c-2.4,0-4-1.9-4-4.8c0-2.9,1.4-4.6,3.7-4.6c2.1,0,3.8,1.1,3.8,4.6
	C91.4,305,89.7,306.2,87.8,306.2z"/>
<path fill="#FFFFFF" d="M102.3,303.3c0,3.1,1.2,4.7,4,4.7c2.7,0,4.2-1.9,4.7-3h0c0,0,0,0.4,0,1v1.8h1.6v-12.1H111v5.8
	c0,2.6-1.7,5-4.5,5c-2.3,0-2.6-1.7-2.6-3.6v-7.2h-1.6V303.3z"/>
<path fill="#FFFFFF" d="M116.1,312.5h1.6v-5.8c0-0.6,0-1.1,0-1.1h0c0,0,1.1,2.3,4,2.3c3.1,0,5.4-2.5,5.4-6.3c0-3.7-2-6.3-5.3-6.3
	c-3.2,0-4.2,2.4-4.2,2.4h0c0,0,0-0.4,0-0.9v-1.2h-1.6V312.5z M117.7,301.7c0-3.4,1.9-4.9,3.9-4.9c2.3,0,3.8,1.9,3.8,4.8
	c0,3.1-1.8,4.9-3.9,4.9C119,306.6,117.7,304.2,117.7,301.7z"/>
<path fill="#FFFFFF" d="M134.7,304.4c0,2.4,2.1,3.6,4.1,3.6c3,0,4-2.6,4-2.6h0c0,0,0,0.4,0,1v1.3h1.6V300c0-3-1.6-4.6-4.5-4.6
	c-2.7,0-4.3,1.4-4.3,1.4l0.8,1.2c0,0,1.4-1.2,3.4-1.2c1.7,0,3,0.8,3,3.1v0.3h-0.7C140,300.3,134.7,300.4,134.7,304.4z M136.4,304.3
	c0-2.7,3.8-2.7,5.7-2.7h0.7v0.5c0,2.1-1.4,4.5-3.7,4.5C137.3,306.6,136.4,305.5,136.4,304.3z"/>
<path fill="#FFFFFF" d="M146.7,306.3c0,0,1.5,1.8,4.5,1.8c2.4,0,4.1-1.4,4.1-3.4c0-4-6.5-3.3-6.5-5.9c0-1.3,1.2-1.9,2.4-1.9
	c2,0,3,1.1,3,1.1l0.7-1.2c0,0-1.2-1.3-3.7-1.3c-2.2,0-4.1,1.2-4.1,3.3c0,3.9,6.5,3.3,6.5,5.9c0,1.3-1.1,1.9-2.4,1.9
	c-2.3,0-3.6-1.5-3.6-1.5L146.7,306.3z"/>
<path fill="#FFFFFF" d="M166.4,307.7h1.8l3-8.6c0.2-0.6,0.4-1.3,0.4-1.3h0c0,0,0.2,0.7,0.4,1.3l3,8.6h1.8l4.1-12.1H179l-2.9,9
	c-0.2,0.6-0.4,1.3-0.4,1.3h0c0,0-0.2-0.7-0.4-1.3l-3-9h-1.6l-3,9c-0.2,0.6-0.4,1.3-0.4,1.3h0c0,0-0.2-0.7-0.4-1.3l-2.9-9h-1.7
	L166.4,307.7z"/>
<path fill="#FFFFFF" d="M181.8,301.7c0,3.7,2.7,6.3,6.3,6.3c2.7,0,4.5-1.7,4.5-1.7l-0.7-1.2c0,0-1.5,1.5-3.7,1.5
	c-2.5,0-4.6-1.7-4.7-4.8h9.3c0,0,0-0.6,0-0.8c0-3-1.7-5.6-5-5.6C184.4,295.4,181.8,297.7,181.8,301.7z M183.5,300.4
	c0.4-2.4,2.1-3.7,4.2-3.7c1.8,0,3.3,1.2,3.4,3.7H183.5z"/>
<path fill="#FFFFFF" d="M200.4,306.3c0,0,1.5,1.8,4.5,1.8c2.4,0,4.1-1.4,4.1-3.4c0-4-6.5-3.3-6.5-5.9c0-1.3,1.2-1.9,2.4-1.9
	c2,0,3,1.1,3,1.1l0.7-1.2c0,0-1.2-1.3-3.7-1.3c-2.2,0-4.1,1.2-4.1,3.3c0,3.9,6.5,3.3,6.5,5.9c0,1.3-1.1,1.9-2.4,1.9
	c-2.3,0-3.6-1.5-3.6-1.5L200.4,306.3z"/>
<path fill="#FFFFFF" d="M211.5,312.5h1.6v-5.8c0-0.6,0-1.1,0-1.1h0c0,0,1.1,2.3,4,2.3c3.1,0,5.4-2.5,5.4-6.3c0-3.7-2-6.3-5.3-6.3
	c-3.2,0-4.2,2.4-4.2,2.4h0c0,0,0-0.4,0-0.9v-1.2h-1.6V312.5z M213.1,301.7c0-3.4,1.9-4.9,3.9-4.9c2.3,0,3.8,1.9,3.8,4.8
	c0,3.1-1.8,4.9-3.9,4.9C214.4,306.6,213.1,304.2,213.1,301.7z"/>
<path fill="#FFFFFF" d="M224.3,301.7c0,3.7,2.7,6.3,6.3,6.3c2.7,0,4.5-1.7,4.5-1.7l-0.7-1.2c0,0-1.5,1.5-3.7,1.5
	c-2.5,0-4.6-1.7-4.7-4.8h9.3c0,0,0-0.6,0-0.8c0-3-1.7-5.6-5-5.6C227,295.4,224.3,297.7,224.3,301.7z M226.1,300.4
	c0.4-2.4,2.1-3.7,4.2-3.7c1.8,0,3.3,1.2,3.4,3.7H226.1z"/>
<path fill="#FFFFFF" d="M237,304.4c0,2.4,2.1,3.6,4.1,3.6c3,0,4-2.6,4-2.6h0c0,0,0,0.4,0,1v1.3h1.6V300c0-3-1.6-4.6-4.5-4.6
	c-2.7,0-4.3,1.4-4.3,1.4l0.8,1.2c0,0,1.4-1.2,3.4-1.2c1.7,0,3,0.8,3,3.1v0.3h-0.7C242.3,300.3,237,300.4,237,304.4z M238.7,304.3
	c0-2.7,3.8-2.7,5.7-2.7h0.7v0.5c0,2.1-1.4,4.5-3.7,4.5C239.5,306.6,238.7,305.5,238.7,304.3z"/>
<path fill="#FFFFFF" d="M250,307.7h1.6v-6h1.9l4,6h1.9l-4.6-6.8v0l4.2-5.3h-2l-3.6,4.6h-1.9v-9.4H250V307.7z"/>
<path fill="#FFFFFF" d="M261.6,307.7h1.9v-1.9h-1.9V307.7z"/>
</svg>
