<?xml version="1.0" encoding="utf-8"?>
<!-- Generator: Adobe Illustrator 18.1.1, SVG Export Plug-In . SVG Version: 6.00 Build 0)  -->
<svg version="1.1" id="Layer_1" xmlns="http://www.w3.org/2000/svg" xmlns:xlink="http://www.w3.org/1999/xlink" x="0px" y="0px"
	 width="300px" height="600px" viewBox="0 0 300 600" enable-background="new 0 0 300 600" xml:space="preserve">
<path fill="#FFFFFF" d="M23.7,498h9.7l1.2-17.7c0.2-3,0-6.6,0-6.6h0.1c0,0,1.3,4.1,2.2,6.6l4.1,11.4h8.2l4.1-11.4
	c0.9-2.5,2.2-6.6,2.2-6.6h0.1c0,0-0.2,3.6,0,6.6l1.2,17.7h9.6l-3.2-39.3H52.9l-5.7,16.6c-0.9,2.5-2,6.5-2,6.5h-0.1c0,0-1.1-4-2-6.5
	l-5.7-16.6H27L23.7,498z"/>
<path fill="#FFFFFF" d="M95.6,498h9.9l-13.4-39.3H82L68.7,498h9.9l2.4-8.2h12.3L95.6,498z M87.1,467.7c0,0,0.9,4.3,1.6,6.8l2.2,7.6
	h-7.8l2.3-7.6c0.7-2.5,1.6-6.8,1.6-6.8H87.1z"/>
<path fill="#FFFFFF" d="M108.8,498h14c12.4,0,20.3-7.4,20.3-19.7c0-12.4-7.9-19.6-20.3-19.6h-14V498z M118.4,489.8v-22.8h4
	c6.5,0,10.7,3.8,10.7,11.3c0,7.5-4.1,11.5-10.7,11.5H118.4z"/>
<path fill="#FFFFFF" d="M148.7,498h9.6v-18.3c0-2.5-0.4-6.7-0.4-6.7h0.1c0,0,1.8,4.1,3.3,6.7l10.9,18.3h9.7v-39.3h-9.6v18.4
	c0,2.5,0.4,6.7,0.4,6.7h-0.1c0,0-1.8-4.1-3.3-6.7l-10.9-18.4h-9.7V498z"/>
<path fill="#FFFFFF" d="M190.1,498h25.4v-8.2h-15.8v-7.4h12v-8.2h-12v-7.1h15v-8.2h-24.6V498z"/>
<path fill="#FFFFFF" d="M218.4,493.1c0,0,5.1,5.6,14.4,5.6c8.9,0,13.9-5.7,13.9-12.2c0-12.4-17.7-11.5-17.7-16.5
	c0-2.2,2.2-3.1,4.2-3.1c4.7,0,8.7,3.5,8.7,3.5l4.1-7.9c0,0-4.2-4.5-12.6-4.5c-7.8,0-13.9,4.8-13.9,12c0,12.1,17.7,11.9,17.7,16.6
	c0,2.4-2.1,3.1-4.1,3.1c-4.9,0-9.4-4.1-9.4-4.1L218.4,493.1z"/>
<path fill="#FFFFFF" d="M249.2,493.1c0,0,5.1,5.6,14.4,5.6c8.9,0,13.9-5.7,13.9-12.2c0-12.4-17.7-11.5-17.7-16.5
	c0-2.2,2.2-3.1,4.2-3.1c4.7,0,8.7,3.5,8.7,3.5l4.1-7.9c0,0-4.2-4.5-12.6-4.5c-7.8,0-13.9,4.8-13.9,12c0,12.1,17.7,11.9,17.7,16.6
	c0,2.4-2.1,3.1-4.1,3.1c-4.9,0-9.4-4.1-9.4-4.1L249.2,493.1z"/>
</svg>
