<?xml version="1.0" encoding="utf-8"?>
<!-- Generator: Adobe Illustrator 16.2.1, SVG Export Plug-In . SVG Version: 6.00 Build 0)  -->
<!DOCTYPE svg PUBLIC "-//W3C//DTD SVG 1.1//EN" "http://www.w3.org/Graphics/SVG/1.1/DTD/svg11.dtd">
<svg version="1.1" id="Layer_1" xmlns="http://www.w3.org/2000/svg" xmlns:xlink="http://www.w3.org/1999/xlink" x="0px" y="0px"
	 width="177px" height="28px" viewBox="0 0 177 28" enable-background="new 0 0 177 28" xml:space="preserve">
<path fill="#E2231A" d="M3.121,17.552l-0.12,0.504c-0.503,2.349,0.839,3.093,2.252,3.093c1.75,0,3.236-0.744,3.691-2.806
	c0.815-3.834-7.046-3.402-5.943-8.603c0.647-3.068,3.188-4.697,6.087-4.697c3.164,0,4.601,1.533,3.714,5.057h-2.301
	c0.432-1.894,0.096-3.14-1.989-3.14c-1.318,0-2.804,0.672-3.212,2.541c-0.814,3.811,7.07,3.26,5.92,8.749
	c-0.792,3.643-3.547,4.817-6.399,4.817c-5.129,0.048-4.291-3.858-3.883-5.514H3.121z"/>
<path fill="#E2231A" d="M19.321,20.956h-0.048c-0.91,1.39-1.964,1.989-3.475,1.989c-2.564,0-2.948-1.654-2.468-3.979
	c0.791-3.666,4.41-3.834,7.166-3.763c0.383-1.605,0.767-3.355-1.342-3.355c-1.319,0-2.206,0.887-2.349,2.158h-2.132
	c0.671-2.708,2.3-3.643,4.865-3.643c3.116,0,3.595,1.606,3.163,3.643l-1.222,5.823c-0.215,0.959-0.335,1.941-0.383,2.876h-2.157
	L19.321,20.956z M15.27,19.111c-0.263,1.174,0.096,2.228,1.415,2.228c1.198,0,2.852-0.743,3.475-4.649
	C18.291,16.713,15.822,16.545,15.27,19.111z"/>
<path fill="#E2231A" d="M26.893,10.603l0.503-2.349c0.527-2.445,2.349-2.924,4.099-2.924c0.407,0,0.646,0.023,0.911,0.072
	l-0.288,1.414c-2.061-0.144-2.613,0.744-2.804,1.726l-0.456,2.062h2.444l-0.311,1.486h-2.445l-2.252,10.617h-1.965l2.252-10.617
	h-1.87l0.312-1.486H26.893z"/>
<path fill="#E2231A" d="M32.979,17.29c-0.719,3.378,0.048,4.049,1.582,4.049c1.342,0,2.276-1.078,2.612-2.301h2.157
	c-0.599,2.685-2.516,3.907-5.057,3.907c-2.563,0-4.433-0.768-3.307-6.111c0.767-3.548,1.774-6.471,5.968-6.471
	c3.452,0,3.93,1.893,3.068,5.895l-0.216,1.032H32.979z M38.012,15.803c0.743-3.522-0.144-3.955-1.582-3.955
	c-1.246,0-2.396,0.6-3.139,3.955H38.012z"/>
<path fill="#E2231A" d="M43.092,22.705h-1.965l3.667-17.303h1.965L43.092,22.705z"/>
<path fill="#E2231A" d="M48.172,22.705h-1.965l2.565-12.103h1.965L48.172,22.705z M49.754,5.402h2.205l-0.431,2.109h-2.205
	L49.754,5.402z"/>
<path fill="#E2231A" d="M54.834,10.603l0.503-2.324l2.157-0.888l-0.695,3.212h2.637l-0.312,1.486h-2.636l-1.582,7.405
	c-0.144,0.768-0.36,1.749,1.438,1.749c0.144,0,0.455-0.047,0.911-0.094l-0.336,1.508c-0.647,0.049-1.318,0.192-1.965,0.192
	c-1.869,0-2.54-0.767-2.252-2.157l1.822-8.603h-1.99l0.312-1.486H54.834z"/>
<path fill="#E2231A" d="M61.304,17.29c-0.719,3.378,0.048,4.049,1.582,4.049c1.342,0,2.276-1.078,2.612-2.301h2.157
	c-0.599,2.685-2.516,3.907-5.057,3.907c-2.564,0-4.434-0.768-3.308-6.111c0.767-3.548,1.774-6.471,5.968-6.471
	c3.452,0,3.93,1.893,3.068,5.895l-0.216,1.032H61.304z M66.337,15.803c0.743-3.522-0.144-3.955-1.582-3.955
	c-1.246,0-2.396,0.6-3.139,3.955H66.337z"/>
<path fill="#231F20" d="M68.446,22.705l8.459-17.303h4.77l1.031,17.303h-3.811l-0.144-3.834h-4.937l-1.797,3.834H68.446z
	 M78.391,8.733h-0.048l-3.235,7.477h3.451L78.391,8.733z"/>
<path fill="#231F20" d="M118.176,20.453c-0.168,0.742-0.217,1.509-0.312,2.252h-3.139l0.191-1.606h-0.048
	c-0.982,1.247-2.085,1.847-3.547,1.847c-2.35,0-2.853-1.75-2.396-3.858c0.863-4.003,3.978-4.171,7.118-4.123l0.191-0.935
	c0.216-1.03,0.239-1.773-0.983-1.773c-1.174,0-1.461,0.887-1.677,1.846h-3.308c0.312-1.462,0.982-2.397,1.87-2.948
	c0.91-0.575,2.036-0.791,3.33-0.791c4.291,0,4.459,1.845,4.003,4.05L118.176,20.453z M112.256,18.942
	c-0.168,0.862-0.264,1.917,0.838,1.917c1.989,0,2.254-2.684,2.541-4.001C113.933,16.93,112.735,16.785,112.256,18.942z"/>
<path fill="#231F20" d="M125.221,11.824h0.048c0.455-0.551,0.959-0.91,1.438-1.125c0.551-0.24,1.102-0.336,1.725-0.336
	c1.605,0,2.828,0.959,2.469,2.636l-2.061,9.706h-3.379l1.773-8.34c0.239-1.079,0.215-1.917-0.863-1.917
	c-1.079,0-1.438,0.838-1.678,1.917l-1.773,8.34h-3.38l2.564-12.103h3.379L125.221,11.824z"/>
<path fill="#231F20" d="M132.481,10.603h1.365l0.408-1.917l3.715-1.51l-0.743,3.427h1.749l-0.432,2.085h-1.748l-1.392,6.47
	c-0.19,0.91-0.336,1.51,0.768,1.51c0.217,0,0.432,0,0.599-0.048l-0.432,2.085c-0.454,0.048-0.957,0.119-1.773,0.119
	c-2.923,0-2.899-1.94-2.731-2.683l1.581-7.454h-1.365L132.481,10.603z"/>
<path fill="#231F20" d="M147.363,20.453c-0.167,0.742-0.216,1.509-0.311,2.252h-3.14l0.191-1.606h-0.048
	c-0.982,1.247-2.085,1.847-3.548,1.847c-2.349,0-2.852-1.75-2.396-3.858c0.863-4.003,3.979-4.171,7.118-4.123l0.192-0.935
	c0.215-1.03,0.239-1.773-0.982-1.773c-1.174,0-1.463,0.887-1.678,1.846h-3.308c0.311-1.462,0.982-2.397,1.869-2.948
	c0.911-0.575,2.037-0.791,3.331-0.791c4.29,0,4.458,1.845,4.002,4.05L147.363,20.453z M141.444,18.942
	c-0.168,0.862-0.265,1.917,0.838,1.917c1.99,0,2.252-2.684,2.54-4.001C143.121,16.93,141.924,16.785,141.444,18.942z"/>
<path fill="#231F20" d="M160.663,10.603l-2.66,12.606c-0.191,0.839-0.838,4.146-5.488,4.146c-2.517,0-4.529-0.648-3.978-3.597h3.307
	c-0.119,0.504-0.144,0.936,0.024,1.224c0.144,0.312,0.504,0.479,1.03,0.479c0.839,0,1.415-0.79,1.653-2.013l0.504-2.324h-0.047
	c-0.695,0.934-1.774,1.413-2.877,1.413c-3.715,0-2.805-3.401-2.229-6.136c0.552-2.659,1.319-6.039,4.842-6.039
	c1.197,0,2.133,0.527,2.373,1.654h0.048l0.286-1.415H160.663z M153.81,20.453c1.223,0,1.653-1.271,2.205-3.836
	c0.574-2.66,0.768-4.169-0.48-4.169c-1.269,0-1.678,0.887-2.468,4.578C152.827,18.151,152.18,20.453,153.81,20.453z"/>
<path fill="#231F20" d="M164.162,17.193c-0.312,1.438-0.72,3.595,0.766,3.595c1.199,0,1.678-1.151,1.895-2.157h3.427
	c-0.335,1.318-0.982,2.396-1.966,3.14c-0.934,0.743-2.228,1.175-3.811,1.175c-4.36,0-4.385-2.66-3.57-6.447
	c0.695-3.307,1.773-6.135,6.231-6.135c4.554,0,4.434,2.948,3.5,6.831H164.162z M167.66,15.3c0.24-1.175,0.647-2.852-0.959-2.852
	c-1.557,0-1.916,1.821-2.132,2.852H167.66z"/>
<path fill="#231F20" d="M89.318,22.705l0.288-1.343h-0.048c-0.888,1.175-1.894,1.583-3.188,1.583c-3.499,0-2.565-3.884-2.037-6.376
	c0.527-2.444,1.222-6.207,4.626-6.207c1.221,0,1.989,0.359,2.467,1.391h0.048l1.342-6.352h3.38l-3.667,17.303H89.318z
	 M90.468,16.545c0.504-2.42,0.888-4.097-0.503-4.097c-1.461,0-1.797,1.677-2.3,4.097c-0.648,3.045-0.719,4.314,0.503,4.314
	C89.318,20.859,89.821,19.59,90.468,16.545z"/>
<g>
	<polygon fill="#A03123" points="97.507,6.738 95.761,14.892 98.035,22.792 101.542,17.045 	"/>
	<path fill="#E2231A" d="M110.427-0.232h6.507l-13.941,23.024h-4.957L110.427-0.232z"/>
</g>
<g>
	<path fill="#231F20" d="M175.924,12.195c-0.218,1.02-1.206,1.842-2.222,1.842c-1.02,0-1.66-0.822-1.443-1.842
		c0.217-1.02,1.207-1.832,2.227-1.832C175.501,10.363,176.14,11.175,175.924,12.195z M175.579,12.195
		c0.173-0.823-0.354-1.487-1.167-1.487c-0.828,0-1.636,0.665-1.809,1.487c-0.177,0.823,0.345,1.498,1.173,1.498
		C174.588,13.692,175.402,13.018,175.579,12.195z M173.638,13.254h-0.482l0.453-2.133h0.892c0.331,0,0.503,0.197,0.423,0.562
		c-0.059,0.271-0.211,0.473-0.536,0.522l-0.005,0.01c0.104,0.005,0.414,0.03,0.33,0.414c-0.029,0.138-0.104,0.537-0.078,0.625
		h-0.473c-0.035-0.128-0.005-0.271,0.024-0.414c0.055-0.251,0.137-0.468-0.237-0.468h-0.123L173.638,13.254z M173.889,12.072h0.218
		c0.192,0,0.291-0.177,0.32-0.315c0.044-0.202-0.04-0.281-0.192-0.281h-0.217L173.889,12.072z"/>
</g>
</svg>
