<?xml version="1.0" encoding="utf-8"?>
<!-- Generator: Adobe Illustrator 18.0.0, SVG Export Plug-In . SVG Version: 6.00 Build 0)  -->
<!DOCTYPE svg PUBLIC "-//W3C//DTD SVG 1.1//EN" "http://www.w3.org/Graphics/SVG/1.1/DTD/svg11.dtd">
<svg version="1.1" id="Layer_1" xmlns="http://www.w3.org/2000/svg" xmlns:xlink="http://www.w3.org/1999/xlink" x="0px" y="0px"
	 width="226px" height="194.1px" viewBox="0 0 226 194.1" enable-background="new 0 0 226 194.1" xml:space="preserve">
<g>
	<g>
		<path fill="#FFFFFF" d="M32.1,168.4h-4.4v-4.7h-2.5v11.7h2.5v-5.1h4.4v5.1h2.5v-11.7h-2.5V168.4z M44,173h-2.2
			c-0.2,0.9-0.8,1.1-1.4,1.1c-1.7,0-1.7-1.6-1.7-2.2h5.5c0-0.7,0.1-1.9-0.5-3c-0.7-1.5-2.1-2-3.3-2c-0.9,0-1.7,0.3-2.3,0.7
			c-1.4,1-1.7,2.5-1.7,3.9c0,1.3,0.3,2.4,1,3.2c0.9,0.9,2.2,1,2.9,1c1.2,0,2.3-0.3,2.9-1C43.9,174.1,44,173.4,44,173z M40.4,168.6
			c1.4,0,1.4,1.5,1.4,1.8h-3C38.9,169.5,39.3,168.6,40.4,168.6z M53.7,164.8l-2.4,0.9v1.6h-1.5v0h-1.5v-1c0-0.4,0-1.1,1.2-1.1
			c0.2,0,0.3,0,0.5,0v-1.7c-0.7-0.1-1.1-0.1-1.3-0.1c-2.3,0-2.8,1.2-2.8,2.6v1.1h-1.2v1.7H46v6.5h2.4V169h1.5v-0.1h1.5v4.5
			c0,0.7,0,2.2,2.4,2.2c0.4,0,1.1,0,1.9-0.3v-1.6c-0.3,0-0.5,0-0.8,0c-1.1,0-1.1-0.5-1.1-1.2v-3.7h1.9v-1.6h-1.9V164.8z M60.6,172.9
			l-1.8-5.6h-2.6l3.1,8.2l-1,3.1h2.4l1-3.2l3.1-8h-2.4L60.6,172.9z M69.4,166.7c0.3-0.1,0.8-0.2,0.8-1c0-1.1-0.9-1.1-1.4-1.1h-1.4v4
			h0.8V167h0.7c0.3,0,0.4,0.1,0.4,0.3c0,0.1,0.1,1.1,0.2,1.3h0.8c-0.1-0.2-0.2-0.7-0.2-1.1C70,167.1,70,166.7,69.4,166.7z
			 M68.8,166.4h-0.6v-1.1h0.6c0.2,0,0.6,0,0.6,0.5C69.4,166,69.3,166.4,68.8,166.4z M72.3,166.6c0-2-1.6-3.6-3.6-3.6
			c-1.9,0-3.6,1.5-3.6,3.6c0,2,1.6,3.6,3.6,3.6C70.7,170.2,72.3,168.6,72.3,166.6z M68.7,169.6c-1.6,0-3-1.3-3-3c0-1.7,1.4-3,3-3
			c1.6,0,3,1.3,3,3C71.7,168.3,70.4,169.6,68.7,169.6z M78.1,163.8v7c0,1.1,0,2,0.6,2.9c1.1,1.8,3.2,2,4.4,2c2.4,0,5.1-1.1,5.1-4.6
			v-7.3h-2.4v7c0,1.2-0.1,1.6-0.4,2c-0.6,1-1.9,1-2.3,1c-2.4,0-2.5-1.6-2.5-2.9v-7.1H78.1z M93,163.7h-2.4v11.7H93V163.7z M98,164.8
			l-2.4,0.9v1.6H94v1.6h1.6v4.5c0,0.7,0,2.2,2.4,2.2c0.4,0,1.1,0,1.9-0.3v-1.6c-0.3,0-0.5,0-0.8,0c-1.1,0-1.1-0.5-1.1-1.2v-3.7h1.9
			v-1.6H98V164.8z M103.8,163.8h-2.5v2.1h2.5V163.8z M103.7,175.4v-8.2h-2.4v8.2H103.7z M115.9,167.1c-0.8,0-1.9,0.2-2.6,1.5
			c-0.2-0.4-0.7-1.5-2.6-1.5c-1.6,0-2.3,0.9-2.5,1.2l-0.1-1h-2.3c0,0.5,0.1,1,0.1,1.5v6.6h2.4v-4.8c0-0.5,0-1.8,1.5-1.8
			c1.3,0,1.3,1.2,1.3,1.8v4.8h2.4v-4.1c0-1.2,0-2.5,1.5-2.5c1.2,0,1.4,1,1.4,1.8v4.8h2.4v-4.6c0-0.7,0-1.7-0.4-2.4
			C118.2,168.1,117.5,167.1,115.9,167.1z M120.7,173.2c0,0.6,0.2,1.3,0.7,1.8c0.3,0.3,0.9,0.6,2,0.6c0.5,0,1.5,0,2.4-1.3
			c0,0.2,0,0.6,0.1,1.1h2.2c-0.1-0.7-0.2-1.4-0.2-2.1l0-3.3c0-0.4,0-1.3-0.6-2c-0.8-0.9-2.2-1-2.9-1c-0.8,0-1.7,0.1-2.5,0.7
			c-0.9,0.6-0.9,1.5-0.9,1.9h2.3c0-0.2,0-0.5,0.2-0.7c0.2-0.3,0.6-0.5,0.9-0.5c0.2,0,0.9,0.1,1.1,0.7c0.1,0.3,0.1,0.5,0.1,1.1
			c-0.8,0-2.2,0-3.2,0.5C120.9,171.3,120.7,172.5,120.7,173.2z M125.7,171.6c0,0.9,0,1.5-0.5,2c-0.2,0.3-0.6,0.5-1,0.5
			c-0.8,0-1.2-0.6-1.2-1.2C123,171.9,124.1,171.4,125.7,171.6z M134.9,168.9v-1.6H133v-2.5l-2.4,0.9v1.6H129v1.6h1.6v4.5
			c0,0.7,0,2.2,2.4,2.2c0.4,0,1.1,0,1.9-0.3v-1.6c-0.3,0-0.5,0-0.8,0c-1.1,0-1.1-0.5-1.1-1.2v-3.7H134.9z M143.2,173H141
			c-0.2,0.9-0.8,1.1-1.4,1.1c-1.7,0-1.7-1.6-1.7-2.2h5.5c0-0.7,0.1-1.9-0.5-3c-0.7-1.5-2.1-2-3.3-2c-0.9,0-1.7,0.3-2.3,0.7
			c-1.4,1-1.7,2.5-1.7,3.9c0,1.3,0.3,2.4,1,3.2c0.9,0.9,2.2,1,2.9,1c1.2,0,2.3-0.3,2.9-1C143.1,174.1,143.2,173.4,143.2,173z
			 M139.5,168.6c1.4,0,1.4,1.5,1.4,1.8h-3C138.1,169.5,138.5,168.6,139.5,168.6z M149.1,164.5H145v0.8h1.6v3.8h1v-3.8h1.6V164.5z
			 M152,167.9l-0.9-3.3h-1.5v4.5h0.9v-3.9l1.2,3.9h0.8l1.2-3.9v3.9h0.9v-4.5H153L152,167.9z M170.2,174.4c0.9-1,1-2,1-2.7h-2.6
			c0,1.5-1,2.2-2.1,2.2c-2.4,0-2.4-3.3-2.4-4c0-2.4,0.8-4.3,2.6-4.3c1.7,0,1.8,1.6,1.9,2h2.5c0-2.3-1.8-3.9-4.3-3.9
			c-3.3,0-5.3,2.5-5.3,6.1c0,2.9,1.3,5.9,5.3,5.9C167.9,175.7,169.2,175.4,170.2,174.4z M180.4,172.6v-5.4h-2.5v4.1
			c0,1.4,0,2.5-1.5,2.5c-1.3,0-1.3-1.1-1.3-1.8v-4.9h-2.4v5.1c0,0.4,0,1.5,0.5,2.2c0.5,0.6,1.4,1.1,2.5,1.1c1.5,0,2.2-0.9,2.4-1.3
			l0.1,1.1h2.3c0-0.2,0-0.4-0.1-0.6C180.4,174.6,180.4,174.4,180.4,172.6z M187.4,167.1c-0.4,0-1.7,0-2.5,1.3l-0.1-1.2h-2.3v11.3
			h2.4v-4.1c0.2,0.3,0.8,1,2.3,1c2.4,0,3.5-2,3.5-4.4C190.8,168.7,189.5,167.1,187.4,167.1z M186.7,174c-1.8,0-1.8-2.1-1.8-2.5
			c0-2.2,1.1-2.8,1.9-2.8c1.4,0,1.6,1.7,1.6,2.6C188.4,172.9,187.8,174,186.7,174z M196.9,170.6l-1.5-0.4c-0.7-0.2-1.1-0.3-1.1-0.9
			c0-0.5,0.5-0.8,1.1-0.8c0.4,0,1.1,0.1,1.2,1h2.2c-0.1-1.6-1.4-2.4-3.1-2.4c-2.1,0-3.6,1-3.6,2.5c0,1.7,1.4,2.1,2.1,2.3l1.5,0.4
			c0.9,0.3,1.1,0.5,1.1,0.9c0,0.5-0.4,1-1.3,1c-1,0-1.3-0.6-1.4-1.1h-2.2c0,0.4,0.1,1,0.6,1.6c0.7,0.8,1.7,1,2.8,1
			c2.5,0,3.7-1.4,3.7-2.8C199.1,171.7,198.4,171,196.9,170.6z M48.1,188.4c0-0.4,0-1.3-0.6-2c-0.8-0.9-2.2-1-2.9-1
			c-0.8,0-1.7,0.1-2.5,0.7c-0.9,0.6-0.9,1.5-0.9,1.9h2.3c0-0.2,0-0.5,0.2-0.7c0.2-0.3,0.6-0.5,0.9-0.5c0.2,0,0.9,0.1,1.1,0.7
			c0.1,0.3,0.1,0.5,0.1,1.1c-0.8,0-2.2,0-3.2,0.5c-1.5,0.7-1.7,1.9-1.7,2.5c0,0.6,0.2,1.3,0.7,1.8c0.3,0.3,0.9,0.6,2,0.6
			c0.5,0,1.5,0,2.4-1.3c0,0.2,0,0.6,0.1,1.1h2.2c-0.1-0.7-0.2-1.4-0.2-2.1L48.1,188.4z M45.4,192c-0.2,0.3-0.6,0.5-1,0.5
			c-0.8,0-1.2-0.6-1.2-1.2c0-1,1.1-1.5,2.6-1.3C45.8,190.8,45.8,191.4,45.4,192z M52.4,187.2l0-1.6h-2.2c0,0.5,0.1,1.6,0.1,2v6.1
			h2.4v-4c0-1,0.1-2.3,2.6-2v-2.1C53.2,185.5,52.7,186.5,52.4,187.2z M59.6,185.4c-0.9,0-1.7,0.3-2.3,0.7c-1.4,1-1.7,2.5-1.7,3.9
			c0,1.3,0.3,2.4,1,3.2c0.9,0.9,2.2,1,2.9,1c1.2,0,2.3-0.3,2.9-1c0.7-0.7,0.7-1.4,0.8-1.8H61c-0.2,0.9-0.8,1.1-1.4,1.1
			c-1.7,0-1.7-1.6-1.7-2.2h5.5c0-0.7,0.1-1.9-0.5-3C62.2,185.8,60.8,185.4,59.6,185.4z M58,188.8c0-1,0.5-1.8,1.5-1.8
			c1.4,0,1.4,1.5,1.4,1.8H58z M72.7,192.4c-0.2,0-0.4,0-0.6-0.3c-0.5-0.6-0.6-2-0.6-2.5c0-0.9,0.1-2.6,1.3-2.6c0.9,0,1,1.2,1,1.5
			h2.3c0-2.2-1.8-3-3.3-3c-1.1,0-3.8,0.5-3.8,4.2c0,1.3,0.3,2.4,1,3.2c0.7,0.8,1.7,1.1,2.8,1.1c1,0,1.7-0.3,2.3-0.8
			c0.9-0.8,1-1.8,1-2.4h-2.4C73.7,192.3,73,192.4,72.7,192.4z M79.7,187.2l0-1.6h-2.2c0,0.5,0.1,1.6,0.1,2v6.1h2.4v-4
			c0-1,0.1-2.3,2.6-2v-2.1C80.5,185.5,80,186.5,79.7,187.2z M90.3,188.4c0-0.4,0-1.3-0.6-2c-0.8-0.9-2.2-1-2.9-1
			c-0.8,0-1.7,0.1-2.5,0.7c-0.9,0.6-0.9,1.5-0.9,1.9h2.3c0-0.2,0-0.5,0.2-0.7c0.2-0.3,0.6-0.5,0.9-0.5c0.2,0,0.9,0.1,1.1,0.7
			c0.1,0.3,0.1,0.5,0.1,1.1c-0.8,0-2.2,0-3.2,0.5c-1.5,0.7-1.7,1.9-1.7,2.5c0,0.6,0.2,1.3,0.7,1.8c0.3,0.3,0.9,0.6,2,0.6
			c0.5,0,1.5,0,2.4-1.3c0,0.2,0,0.6,0.1,1.1h2.2c-0.1-0.7-0.2-1.4-0.2-2.1L90.3,188.4z M87.6,192c-0.2,0.3-0.6,0.5-1,0.5
			c-0.8,0-1.2-0.6-1.2-1.2c0-1,1.1-1.5,2.6-1.3C88.1,190.8,88,191.4,87.6,192z M95.7,192.4c-0.2,0-0.4,0-0.6-0.3
			c-0.5-0.6-0.6-2-0.6-2.5c0-0.9,0.1-2.6,1.3-2.6c0.9,0,1,1.2,1,1.5h2.3c0-2.2-1.8-3-3.3-3c-1.1,0-3.8,0.5-3.8,4.2
			c0,1.3,0.3,2.4,1,3.2c0.7,0.8,1.7,1.1,2.8,1.1c1,0,1.7-0.3,2.3-0.8c0.9-0.8,1-1.8,1-2.4h-2.4C96.7,192.3,95.9,192.4,95.7,192.4z
			 M107.8,185.6h-2.7l-2.5,3.4v-6.9h-2.4v11.7h2.4v-4.4l2.5,4.4h2.8l-3-4.6L107.8,185.6z M115.8,187.2l0-1.6h-2.2
			c0,0.5,0.1,1.6,0.1,2v6.1h2.4v-4c0-1,0.1-2.3,2.6-2v-2.1C116.7,185.5,116.1,186.5,115.8,187.2z M123.1,185.4
			c-0.9,0-1.7,0.3-2.3,0.7c-1.4,1-1.7,2.5-1.7,3.9c0,1.3,0.3,2.4,1,3.2c0.9,0.9,2.2,1,2.9,1c1.2,0,2.3-0.3,2.9-1
			c0.7-0.7,0.7-1.4,0.8-1.8h-2.2c-0.2,0.9-0.8,1.1-1.4,1.1c-1.7,0-1.7-1.6-1.7-2.2h5.5c0-0.7,0.1-1.9-0.5-3
			C125.6,185.8,124.2,185.4,123.1,185.4z M121.4,188.8c0-1,0.5-1.8,1.5-1.8c1.4,0,1.4,1.5,1.4,1.8H121.4z M132.8,188.9l-1.5-0.4
			c-0.7-0.2-1.1-0.3-1.1-0.9c0-0.5,0.5-0.8,1.1-0.8c0.4,0,1.1,0.1,1.2,1h2.2c-0.1-1.6-1.4-2.4-3.1-2.4c-2.1,0-3.6,1-3.6,2.5
			c0,1.7,1.4,2.1,2.1,2.3l1.5,0.4c0.9,0.3,1.1,0.5,1.1,0.9c0,0.5-0.4,1-1.3,1c-1,0-1.3-0.6-1.4-1.1h-2.2c0,0.4,0.1,1,0.6,1.6
			c0.7,0.8,1.7,1,2.8,1c2.5,0,3.7-1.4,3.7-2.8C135,190.1,134.3,189.3,132.8,188.9z M136.5,193.8h2.4v-8.2h-2.4V193.8z M136.4,184.2
			h2.5v-2.1h-2.5V184.2z M145.3,188.9l-1.5-0.4c-0.7-0.2-1.1-0.3-1.1-0.9c0-0.5,0.5-0.8,1.1-0.8c0.4,0,1.1,0.1,1.2,1h2.2
			c-0.1-1.6-1.4-2.4-3.1-2.4c-2.1,0-3.6,1-3.6,2.5c0,1.7,1.4,2.1,2.1,2.3l1.5,0.4c0.9,0.3,1.1,0.5,1.1,0.9c0,0.5-0.4,1-1.3,1
			c-1,0-1.3-0.6-1.4-1.1h-2.2c0,0.4,0.1,1,0.6,1.6c0.7,0.8,1.7,1,2.8,1c2.5,0,3.7-1.4,3.7-2.8C147.5,190.1,146.8,189.3,145.3,188.9z
			 M152,183.2l-2.4,0.9v1.6H148v1.6h1.6v4.5c0,0.7,0,2.2,2.4,2.2c0.4,0,1.1,0,1.9-0.3v-1.6c-0.3,0-0.5,0-0.8,0
			c-1.1,0-1.1-0.5-1.1-1.2v-3.7h1.9v-1.6H152V183.2z M162.2,188.4c0-0.4,0-1.3-0.6-2c-0.8-0.9-2.2-1-2.9-1c-0.8,0-1.7,0.1-2.5,0.7
			c-0.9,0.6-0.9,1.5-0.9,1.9h2.3c0-0.2,0-0.5,0.2-0.7c0.2-0.3,0.6-0.5,0.9-0.5c0.2,0,0.9,0.1,1.1,0.7c0.1,0.3,0.1,0.5,0.1,1.1
			c-0.8,0-2.2,0-3.2,0.5c-1.5,0.7-1.7,1.9-1.7,2.5c0,0.6,0.2,1.3,0.7,1.8c0.3,0.3,0.9,0.6,2,0.6c0.5,0,1.5,0,2.4-1.3
			c0,0.2,0,0.6,0.1,1.1h2.2c-0.1-0.7-0.2-1.4-0.2-2.1L162.2,188.4z M159.5,192c-0.2,0.3-0.6,0.5-1,0.5c-0.8,0-1.2-0.6-1.2-1.2
			c0-1,1.1-1.5,2.6-1.3C159.9,190.8,159.9,191.4,159.5,192z M169.3,185.4c-1.8,0-2.4,1-2.6,1.4l-0.1-1.2h-2.3c0,0.6,0,1.5,0,1.5v6.7
			h2.4V189c0-0.6,0.1-1,0.3-1.2c0.3-0.4,0.7-0.6,1.2-0.6c0.6,0,1,0.3,1.2,0.7c0.1,0.3,0.1,0.5,0.1,0.9v5.1h2.4v-4.4
			c0-1.5,0-1.9-0.2-2.4C171.6,186.4,170.9,185.4,169.3,185.4z M177.1,183.2l-2.4,0.9v1.6h-1.6v1.6h1.6v4.5c0,0.7,0,2.2,2.4,2.2
			c0.4,0,1.1,0,1.9-0.3v-1.6c-0.3,0-0.5,0-0.8,0c-1.1,0-1.1-0.5-1.1-1.2v-3.7h1.9v-1.6h-1.9V183.2z M180.6,193.8h2v-2.1h-2V193.8z
			 M10.4,34h9.4V7.3h10.4V0.7h-30v6.6h10.2V34z M43.4,20.6h11.2V34H64V0.7h-9.4v13H43.5v-13h-9.4V34h9.3V20.6z M96.2,27.6H80v-7.1
			h15v-6.4H80V7.2h15.9V0.8H70.8V34h25.5V27.6z M129.2,34.7c4.4,0,15-0.9,15-11.3h-9.6c-0.2,1.3-0.7,4.9-5.6,4.9
			c-7.2,0-7.2-8.4-7.2-10.4c0-6.1,1.7-11.2,7.3-11.2c2.6,0,5,1.2,5.4,4.6h9.5c0-1.2-0.1-4.3-2.8-7.1c-2.6-2.8-6.8-4.1-12.2-4.1
			c-4.9,0-9.3,1-12.7,4.9c-3.1,3.6-4.2,8.1-4.2,12.7c0,3.5,0.6,8.8,4.3,12.7C120.2,34.1,126,34.7,129.2,34.7z M165.8,34.9
			c4.2,0,10.2-0.8,13.4-4.8c2.1-2.4,2.6-6.5,2.6-10.2V0.7h-9v19.5c0,3.3-0.8,8.1-6.7,8.1c-2.3,0-4.4-0.9-5.7-2.7
			c-0.9-1.4-1.1-3.2-1.1-5V0.7H150l0,19C150,25.1,150,34.9,165.8,34.9z M198.4,22l6,0c1.8,0,5.8,0,8.4-1.4c1.3-0.7,5-3.2,5-9.1
			c0-4.3-1.9-7.3-4.7-9.1c-2.7-1.7-6.1-1.7-8.7-1.7h-15.4V34h9.3V22z M198.4,6.9h4.1c2.7,0,6,0.2,6,4.3c0,4.5-3.7,4.5-5.9,4.5h-4.1
			V6.9z M5.3,61.5h4.9V47.6h5.4v-3.4H0v3.4h5.3V61.5z M28.2,51h-5.8v-6.8h-4.9v17.3h4.8v-7h5.8v7h4.9V44.2h-4.9V51z M41.1,58h6.9
			l1.2,3.5h5.4l-6.9-17.3H42l-6.9,17.3H40L41.1,58z M44.7,47.6L44.7,47.6l2.3,7.3h-4.7L44.7,47.6z M68.3,44.2H52.7v3.4H58v13.9h4.9
			V47.6h5.4V44.2z M82.6,61.5V47.6H88v-3.4H72.4v3.4h5.3v13.9H82.6z M85.9,61.5h4.8l1.2-3.5h6.9l1.2,3.5h5.4l-6.9-17.3h-5.9
			L85.9,61.5z M95.4,47.6L95.4,47.6l2.3,7.3H93L95.4,47.6z M112.3,44.2h-5v17.3h5V44.2z M115.8,44.2v17.3h12.7v-3.4h-7.8V44.2H115.8
			z M132.6,46.1c-2,1.9-2.6,4.8-2.6,6.9c0,2.8,1,5.5,3.2,7.1c2,1.5,4.6,1.8,6.5,1.8c2.6,0,5.1-0.4,7.7-1v-9.3h-8.2V55h3.7v3.4
			c-0.9,0.2-1.8,0.3-2.7,0.3c-2.9,0-5.1-1.7-5.1-5.8c0-2.9,1.2-5.8,4.5-5.8c1.3,0,2.7,0.5,3,2.3h4.9c0-0.8,0-2.3-1.3-3.6
			c-1.4-1.4-3.6-2-6.3-2C137.7,43.8,134.7,44.1,132.6,46.1z M155.5,58h6.9l1.2,3.5h5.4l-6.9-17.3h-5.9l-6.9,17.3h4.8L155.5,58z
			 M159.1,47.6L159.1,47.6l2.3,7.3h-4.7L159.1,47.6z M167.1,47.6h5.3v13.9h4.9V47.6h5.4v-3.4h-15.6V47.6z M198,58.2h-8.5v-3.7h7.8
			v-3.3h-7.8v-3.6h8.3v-3.3h-13v17.3H198V58.2z M208.2,58.7c-2.9,0-2.9-2-2.9-2.7h-4.8c0,0.7,0,2.4,1.3,3.8c1.6,1.8,4.5,2.1,6.3,2.1
			c4.4,0,7.7-1.7,7.7-5.6c0-3.7-2.7-4.4-5-5l-3.2-0.8c-0.7-0.2-1.8-0.5-1.8-1.8c0-1,0.9-1.8,2.3-1.8c2.3,0,2.3,1.9,2.3,2.4h4.9
			c0-1.8-0.3-5.5-7.1-5.5c-5.2,0-7.3,2.6-7.3,5.4c0,3.6,3.1,4.4,4.3,4.7l4.3,1.1c1.2,0.3,1.5,0.9,1.5,1.7
			C210.7,58.7,208.6,58.7,208.2,58.7z M12.9,71.8L0.1,104.2h9l2.2-6.5h13l2.2,6.5h10.1L23.9,71.8H12.9z M13.4,91.7l4.5-13.6H18
			l4.2,13.6H13.4z M66.9,94.4c0-6.8-5.1-8.2-9.4-9.3l-6.1-1.6c-1.3-0.4-3.3-0.9-3.3-3.3c0-1.9,1.7-3.4,4.3-3.4
			c4.3,0,4.3,3.5,4.3,4.5h9.1c0-3.4-0.6-10.3-13.2-10.3c-9.7,0-13.6,4.9-13.6,10.1c0,6.8,5.8,8.3,8,8.9l7.9,2.1
			c2.2,0.6,2.8,1.6,2.8,3.1c0,3.7-4,3.7-4.8,3.7c-5.3,0-5.4-3.7-5.5-5h-9c0,1.4,0.1,4.6,2.5,7.2c3,3.3,8.4,3.8,11.8,3.8
			C60.7,104.9,66.9,101.6,66.9,94.4z M92.1,91.1H103v13.1h9.1V71.8H103v12.6H92.2V71.8h-9.1v32.3h9V91.1z M139.6,71.8h-10.9
			l-12.8,32.3h9l2.2-6.5h13l2.2,6.5h10.1L139.6,71.8z M129.2,91.7l4.5-13.6h0.1l4.2,13.6H129.2z M180.5,86.4c1.5-0.9,3-2.5,3-6
			c0-3.5-1.3-5.3-2.2-6.3c-1.9-2-4.1-2.3-10-2.3h-15v32.3h9V91.5h3.8c4,0,4.2,1.4,4.6,5.3c0.3,2.9,0.5,5.3,1.1,7.3h9.7
			c-0.8-2.3-1.2-5.8-1.5-8c-0.7-5-1.1-7.7-7.4-7.9v-0.2C176.5,87.9,178.4,87.7,180.5,86.4z M172.4,85.4c-0.8,0.3-1.7,0.3-3.7,0.3
			h-3.4v-7.9h3.4c2.6,0,6.1,0,6.1,4C174.8,82.8,174.4,84.8,172.4,85.4z M215.5,74.5c-3.4-2.3-8.5-2.7-12.3-2.7h-13.7v32.3h13.8
			c2.2,0,6.2,0,9.5-1.3c6.6-2.6,8.8-7.8,8.8-15C221.6,83.1,220.3,77.8,215.5,74.5z M202.5,97.9h-3.9V78l3.5,0c2.7,0,10.1,0,10.1,9.8
			C212.3,95.3,208.5,97.9,202.5,97.9z M18.7,113.8h-8.6L0,139.2h7l1.7-5.1H19l1.8,5.1h8L18.7,113.8z M10.5,129.4l3.5-10.7h0.1
			l3.3,10.7H10.5z M41.5,135.1c-4.2,0-4.3-2.9-4.3-3.9h-7.1c0,1.1,0.1,3.6,1.9,5.6c2.3,2.6,6.6,3,9.2,3c6.4,0,11.2-2.5,11.2-8.2
			c0-5.4-4-6.4-7.4-7.3l-4.8-1.2c-1-0.3-2.6-0.7-2.6-2.6c0-1.5,1.3-2.7,3.3-2.7c3.4,0,3.3,2.7,3.3,3.5h7.2c0-2.7-0.5-8.1-10.4-8.1
			c-7.6,0-10.7,3.8-10.7,7.9c0,5.3,4.5,6.5,6.3,7l6.2,1.6c1.7,0.5,2.2,1.3,2.2,2.5C45.2,135.1,42.1,135.1,41.5,135.1z M74.6,139.2
			h7.1v-9l9.9-16.4h-7.3l-5.7,10.7l-5.6-10.7h-8.2l9.7,16.1V139.2z M117.6,126.6c0-6.2-2.7-13.5-12.9-13.5c-1.9,0-6.7,0.3-9.9,3.5
			c-3.2,3.2-3.5,8.3-3.5,10c0,9.5,6.3,13.2,13.1,13.2C110.4,139.8,117.6,136.7,117.6,126.6z M98.5,126.6c0-4.4,1.3-8.4,5.9-8.4
			c1.6,0,3.2,0.4,4.2,1.8c0.8,1.1,1.6,2.9,1.6,6.4c0,3.5-0.8,8.2-5.9,8.2C99.7,134.6,98.5,130.6,98.5,126.6z M144.3,136.3
			c1.6-1.9,2-4.9,2-7.7v-14.7h-6.9v14.8c0,2.5-0.6,6.2-5.1,6.2c-1.7,0-3.4-0.7-4.3-2.1c-0.7-1.1-0.8-2.5-0.8-3.8v-15.1h-7.1l0,14.5
			c0,4.1,0,11.6,12.1,11.6C137.3,139.9,141.9,139.3,144.3,136.3z M182.6,115.9c-2.6-1.8-6.7-2.1-9.7-2.1h-10.7v25.4H173
			c1.8,0,4.9,0,7.5-1c5.1-2,6.9-6.2,6.9-11.8C187.4,122.7,186.4,118.5,182.6,115.9z M172.4,134.3h-3v-15.7l2.8,0
			c2.1,0,7.9,0,7.9,7.7C180.1,132.3,177.1,134.3,172.4,134.3z M204.1,113.1c-1.9,0-6.7,0.3-9.9,3.5c-3.2,3.2-3.5,8.3-3.5,10
			c0,9.5,6.3,13.2,13.1,13.2c6.1,0,13.3-3.1,13.3-13.2C217,120.4,214.3,113.1,204.1,113.1z M203.9,134.6c-4.7,0-5.9-4-5.9-8.1
			c0-4.4,1.3-8.4,5.9-8.4c1.6,0,3.2,0.4,4.2,1.8c0.8,1.1,1.6,2.9,1.6,6.4C209.8,130,208.9,134.6,203.9,134.6z M221,135v4.2h4.9V135
			H221z"/>
	</g>
</g>
<g>
</g>
<g>
</g>
<g>
</g>
<g>
</g>
<g>
</g>
<g>
</g>
<g>
</g>
<g>
</g>
<g>
</g>
<g>
</g>
<g>
</g>
<g>
</g>
<g>
</g>
<g>
</g>
<g>
</g>
</svg>
