<svg id="CTA" xmlns="http://www.w3.org/2000/svg" width="105" height="28" viewBox="0 0 105 28">
  <metadata><?xpacket begin="﻿" id="W5M0MpCehiHzreSzNTczkc9d"?>
<x:xmpmeta xmlns:x="adobe:ns:meta/" x:xmptk="Adobe XMP Core 5.6-c138 79.159824, 2016/09/14-01:09:01        ">
   <rdf:RDF xmlns:rdf="http://www.w3.org/1999/02/22-rdf-syntax-ns#">
      <rdf:Description rdf:about=""/>
   </rdf:RDF>
</x:xmpmeta>
                                                                                                    
                                                                                                    
                                                                                                    
                                                                                                    
                                                                                                    
                                                                                                    
                                                                                                    
                                                                                                    
                                                                                                    
                                                                                                    
                                                                                                    
                                                                                                    
                                                                                                    
                                                                                                    
                                                                                                    
                                                                                                    
                                                                                                    
                                                                                                    
                                                                                                    
                                                                                                    
                           
<?xpacket end="w"?></metadata>
<defs>
    <style>
      .cls-1 {
        fill: #fffefe;
        fill-rule: evenodd;
      }
    </style>
  </defs>
  <rect id="Rounded_Rectangle_1" data-name="Rounded Rectangle 1" width="105" height="28" rx="5" ry="5"/>
  <path id="SAVE_NOW" data-name="SAVE NOW" class="cls-1" d="M18.7,441.965a7.336,7.336,0,0,0,2.774-.43,2.784,2.784,0,0,0,1.487-1.39,6.015,6.015,0,0,0,.462-2.58,5.078,5.078,0,0,0-.593-2.58,3.189,3.189,0,0,0-1.709-1.43l-1.276-.47-0.7-.28a7.357,7.357,0,0,1-.965-0.42,1.465,1.465,0,0,1-.533-0.52,1.734,1.734,0,0,1-.211-0.92,1.135,1.135,0,0,1,1.306-1.26,1.3,1.3,0,0,1,1.045.36,1.761,1.761,0,0,1,.3,1.14v0.3h2.995v-0.3a5.345,5.345,0,0,0-.4-2.29,2.406,2.406,0,0,0-1.306-1.2,6.826,6.826,0,0,0-2.512-.37,5.284,5.284,0,0,0-3.487.92,3.874,3.874,0,0,0-1.055,3.06,4.587,4.587,0,0,0,.442,2.19,3.031,3.031,0,0,0,1.075,1.19,10.717,10.717,0,0,0,1.7.78l0.764,0.3q0.784,0.3,1.146.48a1.552,1.552,0,0,1,.623.61,2.249,2.249,0,0,1,.261,1.17,1.805,1.805,0,0,1-.332,1.19,1.482,1.482,0,0,1-1.176.39,1.5,1.5,0,0,1-1.286-.49,2.855,2.855,0,0,1-.362-1.65v-0.46H14.141v0.52a6.63,6.63,0,0,0,.422,2.63,2.635,2.635,0,0,0,1.407,1.38,7.018,7.018,0,0,0,2.734.43h0Zm16.743-.22-3.457-14.2H27.748l-3.457,14.2h3.336l0.5-2.7h3.417l0.5,2.7h3.4Zm-5.608-11.8,1.246,6.66H28.593Zm10.773,8.7-1.97-11.1h-3.5l3.336,14.2h4.181L46,427.545H42.562Zm14.753,3.1v-2.5H50.7v-3.5h4.04v-2.5H50.7v-3.2h4.462v-2.5H47.406v14.2h7.959Zm14.511-4.74-3.517-9.46H62.7v14.2h2.834v-9.46l3.517,9.46H72.71v-14.2H69.876v9.46Zm10.07,4.96a6.255,6.255,0,0,0,3.045-.6,3.368,3.368,0,0,0,1.5-2.1,16.349,16.349,0,0,0,.442-4.36v-0.52a16.349,16.349,0,0,0-.442-4.36,3.368,3.368,0,0,0-1.5-2.1,8.027,8.027,0,0,0-6.09,0,3.332,3.332,0,0,0-1.487,2.1,16.7,16.7,0,0,0-.432,4.36v0.52a16.7,16.7,0,0,0,.432,4.36,3.332,3.332,0,0,0,1.487,2.1,6.255,6.255,0,0,0,3.045.6h0Zm0-2.52a1.217,1.217,0,0,1-.995-0.4,2.8,2.8,0,0,1-.462-1.38,23.955,23.955,0,0,1-.131-2.92v-0.2a23.955,23.955,0,0,1,.131-2.92,2.8,2.8,0,0,1,.462-1.38,1.217,1.217,0,0,1,.995-0.4,1.248,1.248,0,0,1,1,.4,2.745,2.745,0,0,1,.472,1.39,24.06,24.06,0,0,1,.131,2.91v0.2a24.06,24.06,0,0,1-.131,2.91,2.745,2.745,0,0,1-.472,1.39,1.248,1.248,0,0,1-1,.4h0Zm18.391-.72-2.05-11.18h-3.6l-2.05,11.12-1.487-11.12H85.935l2.633,14.2h3.939l1.889-10.44,1.869,10.44h3.94l2.633-14.2H99.844Z" transform="translate(-5 -421)"/>
</svg>
