<svg xmlns="http://www.w3.org/2000/svg" width="150.813" height="64.156" viewBox="0 0 150.813 64.156">
  <metadata><?xpacket begin="﻿" id="W5M0MpCehiHzreSzNTczkc9d"?>
<x:xmpmeta xmlns:x="adobe:ns:meta/" x:xmptk="Adobe XMP Core 5.6-c138 79.159824, 2016/09/14-01:09:01        ">
   <rdf:RDF xmlns:rdf="http://www.w3.org/1999/02/22-rdf-syntax-ns#">
      <rdf:Description rdf:about=""/>
   </rdf:RDF>
</x:xmpmeta>
                                                                                                    
                                                                                                    
                                                                                                    
                                                                                                    
                                                                                                    
                                                                                                    
                                                                                                    
                                                                                                    
                                                                                                    
                                                                                                    
                                                                                                    
                                                                                                    
                                                                                                    
                                                                                                    
                                                                                                    
                                                                                                    
                                                                                                    
                                                                                                    
                                                                                                    
                                                                                                    
                           
<?xpacket end="w"?></metadata>
<defs>
    <style>
      .cls-1 {
        fill: #fff;
        fill-rule: evenodd;
      }
    </style>
  </defs>
  <path id="AT_YOUR" data-name="AT YOUR" class="cls-1" d="M26.888,357.1l-7.4-30.53H10.419l-7.4,30.53h7.138l1.075-5.805h7.31l1.075,5.805h7.267Zm-12-25.37,2.666,14.319H12.225ZM38.885,357.1V332.676h6.063V326.57H25.813v6.106h6.02V357.1h7.052Zm32.336-30.53-4.042,12.857L63.137,326.57H55.612l7.955,19.651V357.1h7.052V346.221l7.955-19.651H71.221Zm18.92,31a13.326,13.326,0,0,0,6.514-1.29,7.238,7.238,0,0,0,3.2-4.515,35.328,35.328,0,0,0,.946-9.374v-1.118a35.328,35.328,0,0,0-.946-9.374,7.238,7.238,0,0,0-3.2-4.515,13.326,13.326,0,0,0-6.514-1.29,13.326,13.326,0,0,0-6.514,1.29,7.161,7.161,0,0,0-3.182,4.515,36.07,36.07,0,0,0-.924,9.374v1.118a36.07,36.07,0,0,0,.924,9.374,7.161,7.161,0,0,0,3.182,4.515,13.326,13.326,0,0,0,6.514,1.29h0Zm0-5.418a2.6,2.6,0,0,1-2.129-.86,6.026,6.026,0,0,1-.989-2.967,51.756,51.756,0,0,1-.279-6.278v-0.43a51.756,51.756,0,0,1,.279-6.278,6.026,6.026,0,0,1,.989-2.967,2.6,2.6,0,0,1,2.129-.86,2.666,2.666,0,0,1,2.15.86,5.912,5.912,0,0,1,1.011,2.988,52,52,0,0,1,.279,6.257v0.43a51.976,51.976,0,0,1-.279,6.256,5.917,5.917,0,0,1-1.011,2.989,2.666,2.666,0,0,1-2.15.86h0Zm25.628,5.418a14.365,14.365,0,0,0,6.213-1.075,6.2,6.2,0,0,0,3.1-3.612,22.193,22.193,0,0,0,.925-7.267V326.57h-7.224v19.565a19.779,19.779,0,0,1-.258,3.655,3.092,3.092,0,0,1-.9,1.827,3.446,3.446,0,0,1-3.7,0,3.092,3.092,0,0,1-.9-1.827,19.779,19.779,0,0,1-.258-3.655V326.57h-7.224v19.049a22.17,22.17,0,0,0,.924,7.267,6.193,6.193,0,0,0,3.1,3.612,14.364,14.364,0,0,0,6.214,1.075h0Zm36.42-.473-4.472-12.3a5.651,5.651,0,0,0,2.967-2.817,12.185,12.185,0,0,0,.9-5.138v-1.118a12.065,12.065,0,0,0-1.053-5.612,5.808,5.808,0,0,0-3.5-2.752,23.668,23.668,0,0,0-6.966-.8h-8.471V357.1h7.052V345.963H141.4l3.311,11.137h7.482Zm-12.255-16.641h-1.29v-8.385h1.29a8.648,8.648,0,0,1,2.8.344,2.082,2.082,0,0,1,1.29,1.182,6.837,6.837,0,0,1,.344,2.473v0.43a6.038,6.038,0,0,1-.365,2.343,2.312,2.312,0,0,1-1.312,1.226,7.586,7.586,0,0,1-2.752.387h0Z" transform="translate(-3.031 -326.094)"/>
  <path id="DOORSTEP" class="cls-1" d="M3.177,389.86h7.385a12.961,12.961,0,0,0,5.74-1.015,5.794,5.794,0,0,0,2.835-3.57,24.905,24.905,0,0,0,.84-7.385v-0.91a24.91,24.91,0,0,0-.84-7.385,5.8,5.8,0,0,0-2.835-3.57,12.976,12.976,0,0,0-5.74-1.015H3.177v24.85Zm5.74-4.515V369.49h1.365a3.786,3.786,0,0,1,2.433.648,3.615,3.615,0,0,1,1.067,2.24,30.877,30.877,0,0,1,.28,4.882v0.35a30.883,30.883,0,0,1-.28,4.883,3.529,3.529,0,0,1-1.067,2.222,3.866,3.866,0,0,1-2.433.63H8.917Zm22.925,4.9a10.847,10.847,0,0,0,5.3-1.05,5.892,5.892,0,0,0,2.608-3.675,28.752,28.752,0,0,0,.77-7.63v-0.91a28.757,28.757,0,0,0-.77-7.63,5.892,5.892,0,0,0-2.608-3.675,10.847,10.847,0,0,0-5.3-1.05,10.847,10.847,0,0,0-5.3,1.05,5.829,5.829,0,0,0-2.59,3.675,29.359,29.359,0,0,0-.752,7.63v0.91a29.354,29.354,0,0,0,.752,7.63,5.829,5.829,0,0,0,2.59,3.675,10.847,10.847,0,0,0,5.3,1.05h0Zm0-4.41a2.115,2.115,0,0,1-1.733-.7,4.9,4.9,0,0,1-.8-2.415,42.1,42.1,0,0,1-.227-5.11v-0.35a42.127,42.127,0,0,1,.227-5.11,4.91,4.91,0,0,1,.8-2.415,2.118,2.118,0,0,1,1.733-.7,2.171,2.171,0,0,1,1.75.7,4.819,4.819,0,0,1,.823,2.433,42.3,42.3,0,0,1,.227,5.092v0.35a42.318,42.318,0,0,1-.227,5.093,4.811,4.811,0,0,1-.823,2.432,2.168,2.168,0,0,1-1.75.7h0Zm20.58,4.41a10.847,10.847,0,0,0,5.3-1.05,5.892,5.892,0,0,0,2.608-3.675,28.747,28.747,0,0,0,.77-7.63v-0.91a28.753,28.753,0,0,0-.77-7.63,5.892,5.892,0,0,0-2.608-3.675,10.847,10.847,0,0,0-5.3-1.05,10.847,10.847,0,0,0-5.3,1.05,5.829,5.829,0,0,0-2.59,3.675,29.364,29.364,0,0,0-.752,7.63v0.91a29.358,29.358,0,0,0,.752,7.63,5.829,5.829,0,0,0,2.59,3.675,10.847,10.847,0,0,0,5.3,1.05h0Zm0-4.41a2.115,2.115,0,0,1-1.733-.7,4.9,4.9,0,0,1-.8-2.415,42.125,42.125,0,0,1-.227-5.11v-0.35a42.148,42.148,0,0,1,.227-5.11,4.91,4.91,0,0,1,.8-2.415,2.118,2.118,0,0,1,1.733-.7,2.171,2.171,0,0,1,1.75.7,4.818,4.818,0,0,1,.822,2.433,42.3,42.3,0,0,1,.227,5.092v0.35a42.318,42.318,0,0,1-.227,5.093,4.81,4.81,0,0,1-.822,2.432,2.168,2.168,0,0,1-1.75.7h0Zm29.4,4.025-3.64-10.01a4.6,4.6,0,0,0,2.415-2.292,9.923,9.923,0,0,0,.735-4.183v-0.91a9.815,9.815,0,0,0-.857-4.567,4.723,4.723,0,0,0-2.853-2.24,19.239,19.239,0,0,0-5.67-.648H65.056v24.85H70.8V380.8h2.24l2.695,9.065h6.09Zm-9.975-13.545H70.8V369.49h1.05a7.049,7.049,0,0,1,2.275.28,1.7,1.7,0,0,1,1.05.963,5.559,5.559,0,0,1,.28,2.012v0.35a4.913,4.913,0,0,1-.3,1.908,1.878,1.878,0,0,1-1.067,1,6.174,6.174,0,0,1-2.24.315h0Zm20.2,13.93a12.709,12.709,0,0,0,4.83-.752,4.858,4.858,0,0,0,2.59-2.433,10.572,10.572,0,0,0,.805-4.515,8.921,8.921,0,0,0-1.033-4.515,5.561,5.561,0,0,0-2.975-2.5q-1.943-.717-2.223-0.823l-1.225-.49a12.772,12.772,0,0,1-1.68-.735,2.559,2.559,0,0,1-.927-0.91,3.044,3.044,0,0,1-.367-1.61,1.98,1.98,0,0,1,2.275-2.2,2.259,2.259,0,0,1,1.82.63,3.093,3.093,0,0,1,.525,2v0.525h5.215V371.38a9.392,9.392,0,0,0-.7-4.007,4.2,4.2,0,0,0-2.275-2.1,11.836,11.836,0,0,0-4.375-.648q-4.235,0-6.073,1.61t-1.838,5.355a8.063,8.063,0,0,0,.77,3.833,5.294,5.294,0,0,0,1.872,2.082,18.4,18.4,0,0,0,2.958,1.365l1.33,0.525q1.365,0.525,2,.84a2.711,2.711,0,0,1,1.085,1.068,3.949,3.949,0,0,1,.455,2.047,3.169,3.169,0,0,1-.578,2.083,2.573,2.573,0,0,1-2.047.682,2.606,2.606,0,0,1-2.24-.857,5.014,5.014,0,0,1-.63-2.888v-0.805H84.1v0.91a11.658,11.658,0,0,0,.735,4.6,4.6,4.6,0,0,0,2.45,2.415,12.157,12.157,0,0,0,4.76.752h0Zm20.335-.385V369.98h4.935v-4.97H101.736v4.97h4.9v19.88h5.74Zm21.63,0v-4.375h-8.12V379.36h7.035v-4.375h-7.035v-5.6h7.77V365.01h-13.51v24.85h13.86Zm3.535,0h5.74v-8.645h1.19a18.352,18.352,0,0,0,5.652-.682,4.808,4.808,0,0,0,2.87-2.328,10.159,10.159,0,0,0,.858-4.62v-0.91a10.262,10.262,0,0,0-.858-4.655,4.811,4.811,0,0,0-2.87-2.327,18.348,18.348,0,0,0-5.652-.683h-6.93v24.85Zm5.74-13.125V369.49h1.085a6.176,6.176,0,0,1,2.24.315,1.8,1.8,0,0,1,1.049,1.033,6.112,6.112,0,0,1,.28,2.117v0.35a5.984,5.984,0,0,1-.28,2.083,1.8,1.8,0,0,1-1.049,1.032,6.176,6.176,0,0,1-2.24.315h-1.085Z" transform="translate(-3.031 -326.094)"/>
</svg>
