<svg xmlns="http://www.w3.org/2000/svg" width="147.219" height="78.593" viewBox="0 0 147.219 78.593">
  <metadata><?xpacket begin="﻿" id="W5M0MpCehiHzreSzNTczkc9d"?>
<x:xmpmeta xmlns:x="adobe:ns:meta/" x:xmptk="Adobe XMP Core 5.6-c138 79.159824, 2016/09/14-01:09:01        ">
   <rdf:RDF xmlns:rdf="http://www.w3.org/1999/02/22-rdf-syntax-ns#">
      <rdf:Description rdf:about=""/>
   </rdf:RDF>
</x:xmpmeta>
                                                                                                    
                                                                                                    
                                                                                                    
                                                                                                    
                                                                                                    
                                                                                                    
                                                                                                    
                                                                                                    
                                                                                                    
                                                                                                    
                                                                                                    
                                                                                                    
                                                                                                    
                                                                                                    
                                                                                                    
                                                                                                    
                                                                                                    
                                                                                                    
                                                                                                    
                                                                                                    
                           
<?xpacket end="w"?></metadata>
<defs>
    <style>
      .cls-1 {
        fill: #fff;
        fill-rule: evenodd;
      }
    </style>
  </defs>
  <path id="HOLIDAY" class="cls-1" d="M14.568,356.467V344.413h6.448v12.054h6.866v-29.82H21.015v11.592H14.568V326.647H7.7v29.82h6.866Zm28.343,0.462a12.94,12.94,0,0,0,6.343-1.26,7.069,7.069,0,0,0,3.119-4.41,34.6,34.6,0,0,0,.921-9.156v-1.092a34.606,34.606,0,0,0-.921-9.156,7.069,7.069,0,0,0-3.119-4.41,12.94,12.94,0,0,0-6.343-1.26,12.94,12.94,0,0,0-6.343,1.26,6.993,6.993,0,0,0-3.1,4.41,35.339,35.339,0,0,0-.9,9.156V342.1a35.334,35.334,0,0,0,.9,9.156,6.993,6.993,0,0,0,3.1,4.41,12.94,12.94,0,0,0,6.343,1.26h0Zm0-5.292a2.524,2.524,0,0,1-2.072-.84,5.9,5.9,0,0,1-.963-2.9,50.7,50.7,0,0,1-.272-6.132v-0.42a50.72,50.72,0,0,1,.272-6.132,5.909,5.909,0,0,1,.963-2.9,2.527,2.527,0,0,1,2.072-.84,2.591,2.591,0,0,1,2.093.84,5.793,5.793,0,0,1,.984,2.919,50.937,50.937,0,0,1,.272,6.111v0.42a50.937,50.937,0,0,1-.272,6.111A5.79,5.79,0,0,1,45,350.8a2.588,2.588,0,0,1-2.093.84h0Zm30.1,4.83V350.5H64.891V326.647H58.025v29.82H73.013Zm10.508,0v-29.82H76.655v29.82h6.866Zm5.526,0H97.88a15.453,15.453,0,0,0,6.866-1.218,6.95,6.95,0,0,0,3.391-4.284,29.968,29.968,0,0,0,1-8.862v-1.092a29.972,29.972,0,0,0-1-8.862,6.956,6.956,0,0,0-3.391-4.284,15.467,15.467,0,0,0-6.866-1.218H89.046v29.82Zm6.866-5.418V332.023h1.633a4.521,4.521,0,0,1,2.91.777,4.348,4.348,0,0,1,1.277,2.688,37.2,37.2,0,0,1,.335,5.859v0.42a37.18,37.18,0,0,1-.335,5.859,4.242,4.242,0,0,1-1.277,2.667,4.613,4.613,0,0,1-2.91.756H95.913Zm38.476,5.418-7.2-29.82h-8.834l-7.2,29.82h6.95l1.046-5.67h7.117l1.047,5.67h7.076Zm-11.681-24.78,2.6,13.986h-5.192Zm24.743-5.04-3.935,12.558-3.936-12.558h-7.326L140,345.841v10.626h6.866V345.841l7.746-19.194h-7.16Z" transform="translate(-7.406 -326.188)"/>
  <path id="CHEER" class="cls-1" d="M20.363,404.8a17.194,17.194,0,0,0,7.482-1.35,8.265,8.265,0,0,0,4.037-4.644,26.564,26.564,0,0,0,1.292-9.342V389.3h-9.1v0.162A27.757,27.757,0,0,1,23.7,394.7a4.815,4.815,0,0,1-1.157,2.565,3.072,3.072,0,0,1-2.18.729,2.957,2.957,0,0,1-2.476-1.026,7.719,7.719,0,0,1-1.13-3.672,72.071,72.071,0,0,1-.323-7.992v-0.54a72.071,72.071,0,0,1,.323-7.992,7.719,7.719,0,0,1,1.13-3.672,2.957,2.957,0,0,1,2.476-1.026A2.758,2.758,0,0,1,23,373.61q0.807,1.539.807,5.805v0.162h9.1v-0.162a22.835,22.835,0,0,0-1.292-8.586,7.852,7.852,0,0,0-4.01-4.32,17.641,17.641,0,0,0-7.24-1.242q-5.222,0-7.966,1.62a9.007,9.007,0,0,0-3.876,5.67,46.5,46.5,0,0,0-1.13,11.772v1.4a46.5,46.5,0,0,0,1.13,11.772,9.007,9.007,0,0,0,3.876,5.67q2.745,1.62,7.966,1.62h0Zm27.4-.594V388.7h8.289v15.5h8.828v-38.34H56.051v14.9H47.761v-14.9H38.934V404.2h8.828Zm45.538,0v-6.75H80.812V388h10.82v-6.75H80.812v-8.64h11.95v-6.75H71.984V404.2H93.3Zm26.752,0v-6.75H107.564V388h10.819v-6.75H107.564v-8.64h11.949v-6.75H98.736V404.2h21.316Zm31.22,0-5.6-15.444a7.086,7.086,0,0,0,3.715-3.537,15.361,15.361,0,0,0,1.13-6.453v-1.4a15.185,15.185,0,0,0-1.319-7.047,7.268,7.268,0,0,0-4.387-3.456,29.518,29.518,0,0,0-8.72-1h-10.6V404.2h8.828V390.215h3.445l4.144,13.986h9.367ZM135.93,383.3h-1.614v-10.53h1.614a10.777,10.777,0,0,1,3.5.432,2.608,2.608,0,0,1,1.615,1.485,8.6,8.6,0,0,1,.431,3.105v0.54a7.589,7.589,0,0,1-.458,2.943,2.9,2.9,0,0,1-1.641,1.539,9.472,9.472,0,0,1-3.446.486h0Z" transform="translate(-7.406 -326.188)"/>
</svg>
