<?xml version="1.0" encoding="utf-8"?>
<!-- Generator: Adobe Illustrator 18.1.1, SVG Export Plug-In . SVG Version: 6.00 Build 0)  -->
<svg version="1.1" id="Layer_1" xmlns="http://www.w3.org/2000/svg" xmlns:xlink="http://www.w3.org/1999/xlink" x="0px" y="0px"
	 width="138px" height="20px" viewBox="0 0 138 20" enable-background="new 0 0 138 20" xml:space="preserve">
<g>
	<g>
		<g>
			<g>
				<g>
					<g>
						<g>
							<path fill="#FFFFFF" d="M131.4,0l-3.1,0c5,6.2-1.8,14.9-9.4,19c-0.5,0.3-1,0.5-1.5,0.7h2.5C129.4,15,135.2,6.7,131.4,0z"/>
							<path fill="#FFFFFF" d="M137.5,0l-1.7,0c2.9,6.5-2.9,15-12.1,19.7h1.1C133.8,15,139.8,7.3,137.5,0z"/>
							<path fill="#FFFFFF" d="M134.8,0l-2.1,0c3.2,6.7-2.4,15-11.5,19.7h1.2C131.8,15,138,6.7,134.8,0z"/>
						</g>
					</g>
				</g>
			</g>
		</g>
	</g>
</g>
<path fill="#FFFFFF" d="M14.5,11.8c0.2-0.5,0.8-1.7,1.9-1.7c0.2,0,0.4,0.1,0.6,0.2c0.1,0.1,0.2,0.4,0.2,0.6c0,0.4-0.2,0.8-0.2,0.9
	l0,0.1h-2.5 M13.3,10.3c-1,1.1-1.6,2.5-1.6,3.9c0.1,1.5,1,2.5,2.5,2.6c1.1,0.1,2-0.2,2.5-0.5c0-0.1,0.5-1.2,0.7-1.6
	c-0.6,0.3-1.4,0.5-2.3,0.5c-0.8,0-1.2-0.3-1.4-1c0-0.1,0-0.2,0-0.3c0-0.3,0.1-0.6,0.1-0.8l0-0.1h4.5c0.2-0.5,0.4-1.5,0.4-2.2v0
	c0-0.7-0.2-1.3-0.5-1.6c-0.4-0.4-1-0.6-1.9-0.6C15.3,8.8,14.2,9.3,13.3,10.3z"/>
<path fill="#FFFFFF" d="M56.8,9.7c-0.4,0.5-0.7,1-0.7,1.7c0,0.6,0.3,1,0.5,1.4c0.2,0.4,0.4,0.8,0.4,1.2c0,0.3-0.1,0.5-0.3,0.7
	C56.6,14.9,56.3,15,56,15c-0.6,0-1-0.2-1.4-0.6c-0.1,0.2-0.7,1.7-0.8,1.8c0.5,0.4,1.2,0.6,2.1,0.6c2.5,0.1,3.3-1.7,3.3-2.7
	c0-0.7-0.2-1.2-0.5-1.6c-0.2-0.4-0.4-0.8-0.4-1.1c0-0.3,0.2-0.8,1-0.8c0.6,0,1,0.2,1.2,0.4c0.1-0.2,0.7-1.5,0.7-1.7
	c-0.6-0.2-1.3-0.4-2.1-0.4C58.2,8.8,57.4,9.1,56.8,9.7"/>
<path fill="#FFFFFF" d="M6.3,9.9L6.3,9.9l1.4-3.1H9c0.5,0,0.9,0.1,1.1,0.4c0.2,0.2,0.2,0.4,0.2,0.6c0,1.1-1,2.2-3.3,2.2H6.4
	C6.3,9.9,6.3,9.9,6.3,9.9 M4.8,4.9C4.9,5.2,5,5.4,5,5.7c0,0.2,0,0.5-0.1,0.7l-4.1,9.2c-0.2,0.4-0.5,0.7-0.8,1h2.8
	c0.3,0,0.5-0.1,0.6-0.5c0,0,2.7-6,2.7-6L7.5,16c0.1,0.4,0.2,0.5,0.5,0.5h2.9c-0.2-0.2-0.4-0.6-0.6-1l-1.1-4l0.1,0
	c2.4-0.4,4-2.1,4-4.2c0-1.5-1.2-2.4-3.5-2.4H4.8z"/>
<path fill="#FFFFFF" d="M24.5,9.1c0,0.1,0.1,0.2,0.1,0.4c0,0.3-0.1,0.6-0.4,1l-2.3,3.4l0.4-4.3c0-0.2,0-0.3-0.1-0.3
	c0,0-0.1-0.1-0.2-0.1h-2.4C19.9,9.3,20,9.6,20,10V10c0,0.7-0.2,6.1-0.2,6.3v0l-2.5,3.2c-0.1,0.2-0.3,0.3-0.4,0.4h2.2
	c0.4,0,0.5,0,0.7-0.3l7.4-10.1c0.1-0.1,0.1-0.2,0.1-0.3c0,0,0-0.1,0-0.1c0-0.1-0.1-0.1-0.2-0.1"/>
<path fill="#FFFFFF" d="M30.7,9.9l-0.2-0.1l0.2-0.4c0.1-0.1,0.1-0.3,0-0.3c0-0.1-0.1-0.1-0.2-0.1h-2.2c0.1,0.1,0.1,0.2,0.1,0.3
	c0,0.1,0,0.3-0.1,0.5l-2.7,6c-0.1,0.3-0.3,0.5-0.6,0.7h2.2c0.2,0,0.3-0.1,0.5-0.4l1.9-4.2c0.3-0.6,0.9-1.3,1.9-1.4
	c0.3,0,0.6,0.1,0.7,0.3c0.2,0.3,0,0.7,0,0.8l-2,4.5c-0.1,0.1-0.1,0.2,0,0.3c0,0.1,0.1,0.1,0.2,0.1h2.4c-0.1-0.1-0.1-0.3-0.1-0.5
	c0-0.2,0-0.4,0.2-0.7l1.7-3.9c0.1-0.3,0.3-0.7,0.4-1.2c0-0.1,0-0.1,0-0.2c0-0.3-0.1-0.6-0.3-0.8c-0.2-0.3-0.5-0.4-1-0.5
	C32.2,8.7,31.3,9.4,30.7,9.9"/>
<path fill="#FFFFFF" d="M49.1,14.9c-0.2-0.2-0.2-0.4-0.2-0.7c0.1-1.5,1.3-3.8,2.7-3.8c0.6,0,0.7,0.3,0.8,0.5c0,0.2,0,0.5-0.3,1.2
	l-0.8,1.8c-0.3,0.6-0.8,1.2-1.5,1.2C49.4,15.2,49.2,15.1,49.1,14.9 M56.7,6h-2.5c0.1,0.2,0.2,0.4,0.2,0.6c0,0.2-0.1,0.4-0.2,0.7
	c0,0-1.2,2.6-1.2,2.6l-0.1-0.2c-0.1-0.2-0.6-0.7-1.6-0.7c-1.1,0-2.1,0.5-3.1,1.5c-1.1,1.2-1.8,2.9-1.7,4.2c0.1,1.7,1.3,2,1.8,2
	c1,0.1,1.7-0.6,2.1-1.1l0.2,0.1L50.6,16c-0.1,0.2-0.1,0.4,0,0.4c0,0,0.1,0.1,0.2,0.1h1.8c0-0.1-0.1-0.2-0.1-0.3c0-0.1,0-0.3,0.1-0.4
	l1.7-3.9l2.5-5.5c0.1-0.2,0.1-0.3,0.1-0.3c0,0,0-0.1,0-0.1C56.8,6,56.7,6,56.7,6z"/>
<path fill="#FFFFFF" d="M37.8,15.2c-0.5,0-0.8-0.3-0.9-0.8c-0.1-0.8,0.4-2.1,1.2-3c0.3-0.4,0.8-0.8,1.4-0.9c0.3,0,0.5,0,0.6,0.2
	c0.2,0.1,0.2,0.4,0.3,0.6c0,1-0.6,2.4-1.4,3.2C38.6,15,38.2,15.2,37.8,15.2 M39.6,8.8c-3.4,0.3-5,3.9-4.8,5.8
	c0.1,1.5,1.2,2.4,2.9,2.3c3.5-0.2,4.8-3.9,4.9-5.6c0-0.8-0.2-1.4-0.6-1.8C41.4,8.9,40.6,8.7,39.6,8.8z"/>
<path fill="#FFFFFF" d="M48.5,6H46c0.1,0.2,0.2,0.4,0.2,0.6c0,0.2-0.1,0.4-0.2,0.7l-3.9,8.6c-0.1,0.3-0.3,0.5-0.5,0.7h2.2
	c0.2,0,0.3-0.1,0.5-0.4l4.3-9.7c0.1-0.2,0.1-0.3,0.1-0.3c0,0,0-0.1,0-0.1C48.6,6,48.5,6,48.5,6"/>
<g>
	<path fill="#FFFFFF" d="M60.4,16.7c0,0,0-0.1,0-0.1c0.2,0,0.8-0.5,1-1.2l3.2-9c0.2-0.7,0-1.2-0.2-1.2c0,0,0-0.1,0-0.1h3.7
		c0.1,0,0,0.1,0,0.1c-0.2,0-0.8,0.5-1,1.2l-3.2,9c-0.3,0.7,0,1.2,0.1,1.2c0.1,0,0,0.1,0,0.1H60.4z M68.1,16.7
		c-0.6,0-0.9-0.2-1.1-1.6l-0.9-4.9L70,6.7c1.1-1,1-1.5,0.8-1.5c0,0,0-0.1,0-0.1h3.6c0,0,0,0.1,0,0.1c-0.2,0-1.1,0.5-2.3,1.5
		l-3.2,2.9l1.3,5.7c0.2,1.1,0.8,1.3,0.9,1.3c0,0,0,0.1,0,0.1H68.1z"/>
	<path fill="#FFFFFF" d="M70.4,16.7c0,0,0-0.1,0-0.1c0.2,0,0.8-0.5,1-1.2l2.2-6.1c0.3-0.7,0-1.2-0.2-1.2c0,0,0-0.1,0-0.1h3.1
		l-2.7,7.4c-0.3,0.7,0,1.2,0.1,1.2c0.1,0,0,0.1,0,0.1H70.4z M75.4,7.4c-0.7,0-1.1-0.6-0.8-1.4c0.3-0.8,1.1-1.4,1.8-1.4
		c0.7,0,1.1,0.6,0.8,1.4C77,6.7,76.1,7.4,75.4,7.4z"/>
	<path fill="#FFFFFF" d="M79.1,16.6c-0.3,0.1-0.7,0.3-1.6,0.3c-1.1,0-2.1-0.7-1.5-2.4l1.8-5.1h-0.7l0.2-0.6c1.2-0.5,3.3-2.2,3.8-2.7
		h0.5l-0.7,1.9h1.8L82,9.4h-1.6L78.7,14c-0.4,1.2,0.2,1.6,1.4,1.1c0.1,0,0.1,0,0.1,0.1L79.1,16.6z"/>
	<path fill="#FFFFFF" d="M86.2,16.2c-0.2,0.1-1.3,0.6-2.7,0.6c-2.5,0-3.7-1.8-2.7-4.6c0.9-2.4,3.2-4.5,5.9-4.5
		c0.7,0,1.7,0.1,2.2,0.4l-0.7,2c0,0.1-0.1,0-0.1,0c-0.1-0.1-0.4-1-1.4-1c-1.3,0-2.5,0.9-3.3,3.1c-0.7,2,0.1,3,1.4,3
		c1.2,0,2.4-1,2.6-1.2c0.1-0.1,0.1-0.1,0.1,0L86.2,16.2z"/>
	<path fill="#FFFFFF" d="M91.9,16.7c-0.1,0,0-0.1,0-0.1c0.2,0,0.8-0.5,1-1.2l1.4-4c0.5-1.4,0.1-1.9-0.7-1.9c-0.7,0-1.6,0.6-2.2,2.2
		l-1.3,3.7c-0.3,0.7,0,1.2,0.2,1.2c0.1,0,0,0.1,0,0.1h-3.7c0,0,0-0.1,0-0.1c0.2,0,0.8-0.5,1-1.2l3.2-9c0.2-0.7,0-1.2-0.2-1.2
		c0,0,0-0.1,0-0.1h3.1l-1.3,3.6c0.3-0.2,1.3-0.9,2.7-0.9c1.4,0,2.6,0.6,1.6,3.3l-1.5,4.2c-0.3,0.7,0,1.2,0.2,1.2c0,0,0,0.1,0,0.1
		H91.9z"/>
	<path fill="#FFFFFF" d="M100,12.6c-0.6,1.9,0.1,2.8,1.5,2.8c1.2,0,2.8-1,3.1-1.2c0.1-0.1,0.1,0,0.1,0l-1.2,2
		c-0.4,0.1-1.2,0.7-3.1,0.7c-2.5,0-3.9-1.8-2.9-4.6c0.9-2.5,3.2-4.4,5.8-4.4c2.7,0,3.2,2.5,2.1,4.8H100z M102.8,9.1
		c-1,0-1.7,0.7-2.2,2h2.9C103.9,9.9,103.6,9.1,102.8,9.1z"/>
	<path fill="#FFFFFF" d="M109.6,16.7c0,0,0-0.1,0-0.1c0.2,0,0.8-0.5,1-1.2l1.4-4.1c0.3-0.9,0.2-1.8-0.7-1.8c-0.9,0-1.7,1-2,1.8
		l-1.4,4.1c-0.3,0.7,0,1.2,0.2,1.2c0.1,0,0,0.1,0,0.1h-3.7c0,0,0-0.1,0-0.1c0.2,0,0.8-0.5,1-1.2l2.2-6.1c0.3-0.7,0-1.2-0.2-1.2
		c0,0,0-0.1,0-0.1h3l-0.3,0.9c0.4-0.3,1.2-1,2.8-1c2,0,2.3,1.5,1.6,3.4l-1.5,4.2c-0.3,0.7,0,1.2,0.1,1.2c0.1,0,0,0.1,0,0.1H109.6z"
		/>
	<path fill="#FFFFFF" d="M116.9,16.9c-1.4,0-2.6-0.4-3-0.6l0.5-2.1c0-0.1,0.1-0.1,0.2,0c0.4,0.5,1.6,1.2,2.5,1.2
		c0.9,0,1.5-0.4,1.8-0.9c0.3-0.8-0.6-1-1.7-1.4c-0.9-0.4-1.8-0.9-1.2-2.5c0.6-1.8,2.4-2.8,4.5-2.8c1.3,0,1.9,0.2,2.4,0.4l-0.7,1.8
		c0,0.1-0.1,0.1-0.1,0c-0.3-0.4-1.2-0.8-1.8-0.8c-0.5,0-1.3,0.1-1.5,0.8c-0.3,0.8,0.7,1,1.2,1.2c1.2,0.5,2.2,1,1.6,2.7
		C120.9,15.9,118.9,16.9,116.9,16.9z"/>
</g>
</svg>
