<svg id="CTA" xmlns="http://www.w3.org/2000/svg" width="175.219" height="38" viewBox="0 0 175.219 38">
  <metadata><?xpacket begin="﻿" id="W5M0MpCehiHzreSzNTczkc9d"?>
<x:xmpmeta xmlns:x="adobe:ns:meta/" x:xmptk="Adobe XMP Core 5.6-c138 79.159824, 2016/09/14-01:09:01        ">
   <rdf:RDF xmlns:rdf="http://www.w3.org/1999/02/22-rdf-syntax-ns#">
      <rdf:Description rdf:about=""/>
   </rdf:RDF>
</x:xmpmeta>
                                                                                                    
                                                                                                    
                                                                                                    
                                                                                                    
                                                                                                    
                                                                                                    
                                                                                                    
                                                                                                    
                                                                                                    
                                                                                                    
                                                                                                    
                                                                                                    
                                                                                                    
                                                                                                    
                                                                                                    
                                                                                                    
                                                                                                    
                                                                                                    
                                                                                                    
                                                                                                    
                           
<?xpacket end="w"?></metadata>
<defs>
    <style>
      .cls-1, .cls-2 {
        fill-rule: evenodd;
      }

      .cls-2 {
        fill: #fff;
      }
    </style>
  </defs>
  <path id="Rounded_Rectangle_1" data-name="Rounded Rectangle 1" class="cls-1" d="M538.792,44H704a5,5,0,0,1,5,5V77a5,5,0,0,1-5,5H538.792a5,5,0,0,1-5-5V49A5,5,0,0,1,538.792,44Z" transform="translate(-533.781 -44)"/>
  <path id="BUY_NOW" data-name="BUY NOW" class="cls-2" d="M570.416,64.276a3.963,3.963,0,0,0,2.028-1.632,5.586,5.586,0,0,0,.613-2.816V59a6.443,6.443,0,0,0-.739-3.392,4.148,4.148,0,0,0-2.468-1.7,18.043,18.043,0,0,0-4.875-.512h-6.006v22.72H565.6a17.643,17.643,0,0,0,4.906-.528,4.15,4.15,0,0,0,2.484-1.792,7,7,0,0,0,.755-3.568V69.4a6.164,6.164,0,0,0-.771-3.344,4.547,4.547,0,0,0-2.562-1.776h0Zm-6.29-7.36h0.912a5.336,5.336,0,0,1,1.84.24,1.434,1.434,0,0,1,.849.832,4.833,4.833,0,0,1,.236,1.712v0.32a4.2,4.2,0,0,1-.236,1.6,1.451,1.451,0,0,1-.865.784,5.353,5.353,0,0,1-1.824.24h-0.912V56.916Zm4.34,12.48a6.205,6.205,0,0,1-.236,1.952,1.589,1.589,0,0,1-.865.96,4.631,4.631,0,0,1-1.855.288h-1.384V66.1h1.384a5.159,5.159,0,0,1,1.855.256,1.481,1.481,0,0,1,.865.9,5.511,5.511,0,0,1,.236,1.824V69.4ZM584.6,76.468a10.346,10.346,0,0,0,4.544-.8,4.587,4.587,0,0,0,2.264-2.688,16.8,16.8,0,0,0,.676-5.408V53.4H586.8v14.56a14.949,14.949,0,0,1-.189,2.72,2.315,2.315,0,0,1-.66,1.36,2.485,2.485,0,0,1-2.7,0,2.315,2.315,0,0,1-.661-1.36,14.965,14.965,0,0,1-.188-2.72V53.4h-5.283V67.572a16.773,16.773,0,0,0,.676,5.408,4.58,4.58,0,0,0,2.264,2.688,10.34,10.34,0,0,0,4.544.8h0ZM605.6,53.4l-2.956,9.568L599.692,53.4h-5.5l5.817,14.624v8.1h5.157v-8.1L610.981,53.4H605.6Zm26.383,15.136-5.5-15.136H620.76v22.72h4.434V60.98l5.5,15.136h5.724V53.4h-4.434V68.532Zm15.754,7.936a9.6,9.6,0,0,0,4.764-.96,5.38,5.38,0,0,0,2.343-3.36,26.721,26.721,0,0,0,.692-6.976V64.34a26.724,26.724,0,0,0-.692-6.976A5.38,5.38,0,0,0,652.505,54a12.3,12.3,0,0,0-9.528,0,5.322,5.322,0,0,0-2.327,3.36,27.3,27.3,0,0,0-.676,6.976v0.832a27.3,27.3,0,0,0,.676,6.976,5.322,5.322,0,0,0,2.327,3.36,9.6,9.6,0,0,0,4.764.96h0Zm0-4.032a1.885,1.885,0,0,1-1.557-.64,4.545,4.545,0,0,1-.723-2.208,39.333,39.333,0,0,1-.2-4.672V64.6a39.344,39.344,0,0,1,.2-4.672,4.549,4.549,0,0,1,.723-2.208,1.886,1.886,0,0,1,1.557-.64,1.931,1.931,0,0,1,1.572.64,4.44,4.44,0,0,1,.739,2.224,39.356,39.356,0,0,1,.2,4.656v0.32a39.356,39.356,0,0,1-.2,4.656,4.438,4.438,0,0,1-.739,2.224,1.93,1.93,0,0,1-1.572.64h0Zm28.774-1.152L673.307,53.4h-5.629l-3.207,17.792L662.144,53.4h-5.032l4.12,22.72H667.4l2.956-16.7,2.925,16.7h6.163l4.119-22.72h-4.685Z" transform="translate(-533.781 -44)"/>
</svg>
