<svg xmlns="http://www.w3.org/2000/svg" width="508" height="36.906" viewBox="0 0 508 36.906">
  <metadata><?xpacket begin="﻿" id="W5M0MpCehiHzreSzNTczkc9d"?>
<x:xmpmeta xmlns:x="adobe:ns:meta/" x:xmptk="Adobe XMP Core 5.6-c138 79.159824, 2016/09/14-01:09:01        ">
   <rdf:RDF xmlns:rdf="http://www.w3.org/1999/02/22-rdf-syntax-ns#">
      <rdf:Description rdf:about=""/>
   </rdf:RDF>
</x:xmpmeta>
                                                                                                    
                                                                                                    
                                                                                                    
                                                                                                    
                                                                                                    
                                                                                                    
                                                                                                    
                                                                                                    
                                                                                                    
                                                                                                    
                                                                                                    
                                                                                                    
                                                                                                    
                                                                                                    
                                                                                                    
                                                                                                    
                                                                                                    
                                                                                                    
                                                                                                    
                                                                                                    
                           
<?xpacket end="w"?></metadata>
<defs>
    <style>
      .cls-1 {
        fill: #fff;
        fill-rule: evenodd;
      }
    </style>
  </defs>
  <path id="THIS_HOLIDAY_SAVE_20_" data-name="THIS HOLIDAY SAVE 20%" class="cls-1" d="M23.082,79.665v-28.4h7v-7.1H8v7.1h6.947v28.4h8.138Zm19.153,0V65.315h7.642v14.35h8.138v-35.5H49.877v13.8H42.235v-13.8H34.1v35.5h8.138Zm30.467,0v-35.5H64.564v35.5H72.7Zm16.424,0.55a17.877,17.877,0,0,0,6.848-1.075,6.905,6.905,0,0,0,3.672-3.475,15.2,15.2,0,0,0,1.142-6.45,12.824,12.824,0,0,0-1.464-6.45,7.9,7.9,0,0,0-4.218-3.575q-2.754-1.024-3.151-1.175l-1.737-.7a18.053,18.053,0,0,1-2.382-1.05,3.642,3.642,0,0,1-1.315-1.3,4.377,4.377,0,0,1-.521-2.3q0-3.15,3.225-3.15a3.189,3.189,0,0,1,2.58.9,4.443,4.443,0,0,1,.744,2.85v0.75h7.394v-0.75a13.514,13.514,0,0,0-.992-5.725,5.965,5.965,0,0,0-3.225-3,16.68,16.68,0,0,0-6.2-.925q-6,0-8.609,2.3t-2.605,7.65A11.59,11.59,0,0,0,79.4,59.04a7.546,7.546,0,0,0,2.655,2.975,26.108,26.108,0,0,0,4.193,1.95l1.886,0.75q1.935,0.75,2.828,1.2A3.86,3.86,0,0,1,92.5,67.44a5.68,5.68,0,0,1,.645,2.925,4.552,4.552,0,0,1-.819,2.975,3.631,3.631,0,0,1-2.9.975,3.68,3.68,0,0,1-3.176-1.225,7.2,7.2,0,0,1-.893-4.125v-1.15H77.862v1.3A16.764,16.764,0,0,0,78.9,75.69a6.537,6.537,0,0,0,3.474,3.45,17.1,17.1,0,0,0,6.748,1.075h0Zm38.009-.55V65.315h7.641v14.35h8.138v-35.5h-8.138v13.8h-7.641v-13.8H119v35.5h8.138Zm33.593,0.55q4.912,0,7.517-1.5a8.413,8.413,0,0,0,3.7-5.25,41.378,41.378,0,0,0,1.092-10.9v-1.3a41.381,41.381,0,0,0-1.092-10.9,8.413,8.413,0,0,0-3.7-5.25q-2.606-1.5-7.517-1.5t-7.518,1.5a8.323,8.323,0,0,0-3.672,5.25,42.236,42.236,0,0,0-1.067,10.9v1.3a42.233,42.233,0,0,0,1.067,10.9,8.323,8.323,0,0,0,3.672,5.25q2.605,1.5,7.518,1.5h0Zm0-6.3a2.989,2.989,0,0,1-2.457-1,7.054,7.054,0,0,1-1.141-3.45,60.771,60.771,0,0,1-.322-7.3v-0.5a60.787,60.787,0,0,1,.322-7.3,7.06,7.06,0,0,1,1.141-3.45,2.991,2.991,0,0,1,2.457-1,3.065,3.065,0,0,1,2.481,1,6.919,6.919,0,0,1,1.166,3.475,60.878,60.878,0,0,1,.322,7.275v0.5a60.877,60.877,0,0,1-.322,7.275,6.917,6.917,0,0,1-1.166,3.475,3.063,3.063,0,0,1-2.481,1h0Zm35.677,5.75v-7.1h-9.627v-28.4H178.64v35.5h17.765Zm12.454,0v-35.5h-8.138v35.5h8.138Zm6.549,0h10.47q5.309,0,8.138-1.45a8.271,8.271,0,0,0,4.019-5.1,35.833,35.833,0,0,0,1.191-10.55v-1.3a35.836,35.836,0,0,0-1.191-10.55,8.275,8.275,0,0,0-4.019-5.1q-2.829-1.45-8.138-1.45h-10.47v35.5Zm8.138-6.45V50.565h1.935a5.344,5.344,0,0,1,3.449.925,5.182,5.182,0,0,1,1.513,3.2,44.5,44.5,0,0,1,.4,6.975v0.5a44.49,44.49,0,0,1-.4,6.975,5.059,5.059,0,0,1-1.513,3.175,5.452,5.452,0,0,1-3.449.9h-1.935Zm45.6,6.45-8.535-35.5h-10.47l-8.534,35.5h8.237l1.24-6.75h8.436l1.24,6.75h8.386ZM255.3,50.165l3.076,16.65h-6.153Zm29.326-6-4.664,14.95L275.3,44.165h-8.684l9.18,22.85v12.65h8.138V67.015l9.18-22.85h-8.486Zm33.792,36.05a17.873,17.873,0,0,0,6.847-1.075,6.9,6.9,0,0,0,3.672-3.475,15.2,15.2,0,0,0,1.142-6.45,12.826,12.826,0,0,0-1.464-6.45A7.9,7.9,0,0,0,324.4,59.19q-2.754-1.024-3.151-1.175l-1.737-.7a17.991,17.991,0,0,1-2.381-1.05,3.635,3.635,0,0,1-1.315-1.3,4.37,4.37,0,0,1-.521-2.3q0-3.15,3.225-3.15a3.189,3.189,0,0,1,2.58.9,4.444,4.444,0,0,1,.745,2.85v0.75h7.393v-0.75a13.519,13.519,0,0,0-.992-5.725,5.965,5.965,0,0,0-3.226-3,16.675,16.675,0,0,0-6.2-.925q-6,0-8.61,2.3t-2.605,7.65A11.589,11.589,0,0,0,308.7,59.04a7.545,7.545,0,0,0,2.655,2.975,26.1,26.1,0,0,0,4.193,1.95l1.885,0.75q1.935,0.75,2.829,1.2A3.86,3.86,0,0,1,321.8,67.44a5.685,5.685,0,0,1,.645,2.925,4.55,4.55,0,0,1-.819,2.975,3.631,3.631,0,0,1-2.9.975,3.678,3.678,0,0,1-3.175-1.225,7.2,7.2,0,0,1-.893-4.125v-1.15h-7.493v1.3A16.759,16.759,0,0,0,308.2,75.69a6.535,6.535,0,0,0,3.473,3.45,17.108,17.108,0,0,0,6.749,1.075h0Zm41.334-.55-8.535-35.5H340.75l-8.535,35.5h8.237l1.241-6.75h8.435l1.241,6.75h8.386Zm-13.844-29.5,3.076,16.65h-6.153Zm26.6,21.75-4.863-27.75h-8.634l8.237,35.5h10.321l8.237-35.5h-8.485Zm36.421,7.75v-6.25H397.417v-8.75h9.974v-6.25h-9.974v-8h11.016v-6.25H389.279v35.5h19.65Zm27.191-6.6,4.813-6q2.729-3.349,4.094-5.225a17.79,17.79,0,0,0,2.208-4.05,13.106,13.106,0,0,0,.844-4.775q0-4.95-2.481-7.175t-8.138-2.225a16.792,16.792,0,0,0-6.575,1.05,6.511,6.511,0,0,0-3.448,3.3,14.3,14.3,0,0,0-1.043,5.95v1.85h7.344v-1.7a5.692,5.692,0,0,1,.794-3.425,3.385,3.385,0,0,1,2.829-1.025,3.3,3.3,0,0,1,2.506.825,3.766,3.766,0,0,1,.769,2.625,8.564,8.564,0,0,1-1.29,4.35,57.666,57.666,0,0,1-4.714,6.4l-8.684,10.85v5h22.577v-6.6h-12.4Zm28.383,7.15q4.614,0,7.021-1.5a8.36,8.36,0,0,0,3.4-5.25,45.35,45.35,0,0,0,.992-10.9v-1.3a45.354,45.354,0,0,0-.992-10.9,8.36,8.36,0,0,0-3.4-5.25q-2.408-1.5-7.021-1.5t-7.022,1.5a8.356,8.356,0,0,0-3.4,5.25,45.3,45.3,0,0,0-.992,10.9v1.3a45.3,45.3,0,0,0,.992,10.9,8.356,8.356,0,0,0,3.4,5.25q2.406,1.5,7.022,1.5h0Zm0-6.2a2.64,2.64,0,0,1-2.109-.775,5.756,5.756,0,0,1-.918-2.975,68.832,68.832,0,0,1-.248-6.95v-2.8a68.854,68.854,0,0,1,.248-6.95,5.761,5.761,0,0,1,.918-2.975,3.257,3.257,0,0,1,4.218,0,5.954,5.954,0,0,1,.942,3,62.869,62.869,0,0,1,.273,6.925v2.8a62.849,62.849,0,0,1-.273,6.925,5.949,5.949,0,0,1-.942,3,2.643,2.643,0,0,1-2.109.775h0Zm26.447,6.35,19.154-36.9H504.7l-19.154,36.9h5.409Zm-3.97-16.3a9.335,9.335,0,0,0,4.491-.875,4.844,4.844,0,0,0,2.208-2.975,21.5,21.5,0,0,0,.645-6v-0.75a21.5,21.5,0,0,0-.645-6,4.846,4.846,0,0,0-2.208-2.975,9.343,9.343,0,0,0-4.491-.875,9.492,9.492,0,0,0-4.515.875,4.918,4.918,0,0,0-2.258,3,20.775,20.775,0,0,0-.67,5.975v0.75a20.769,20.769,0,0,0,.67,5.975,4.914,4.914,0,0,0,2.258,3,9.484,9.484,0,0,0,4.515.875h0Zm0-4.05a1.521,1.521,0,0,1-1.166-.4,3.055,3.055,0,0,1-.521-1.625,37.112,37.112,0,0,1-.149-3.975v-0.25a38.673,38.673,0,0,1,.149-4.025,3.161,3.161,0,0,1,.521-1.675,1.524,1.524,0,0,1,1.166-.4,1.443,1.443,0,0,1,1.142.4,3.379,3.379,0,0,1,.5,1.675,38.673,38.673,0,0,1,.149,4.025v0.25a37.112,37.112,0,0,1-.149,3.975,3.266,3.266,0,0,1-.5,1.625,1.441,1.441,0,0,1-1.142.4h0Zm21.685,20.2a9.341,9.341,0,0,0,4.49-.875,4.844,4.844,0,0,0,2.208-2.975,21.5,21.5,0,0,0,.645-6v-0.75a21.5,21.5,0,0,0-.645-6,4.847,4.847,0,0,0-2.208-2.975,9.343,9.343,0,0,0-4.49-.875,9.5,9.5,0,0,0-4.516.875,4.91,4.91,0,0,0-2.258,2.975,20.765,20.765,0,0,0-.67,6v0.75a20.765,20.765,0,0,0,.67,6,4.907,4.907,0,0,0,2.258,2.975,9.494,9.494,0,0,0,4.516.875h0Zm0-4.05a1.594,1.594,0,0,1-1.216-.4,3.107,3.107,0,0,1-.521-1.65,37.877,37.877,0,0,1-.149-4v-0.25a37.8,37.8,0,0,1,.149-4.025,3.061,3.061,0,0,1,.521-1.625,1.6,1.6,0,0,1,1.216-.4,1.443,1.443,0,0,1,1.141.4,3.316,3.316,0,0,1,.5,1.65,37.9,37.9,0,0,1,.149,4v0.25a37.877,37.877,0,0,1-.149,4,3.31,3.31,0,0,1-.5,1.65,1.44,1.44,0,0,1-1.141.4h0Z" transform="translate(-8 -43.469)"/>
</svg>
