<svg id="CTA" xmlns="http://www.w3.org/2000/svg" width="175.219" height="38" viewBox="0 0 175.219 38">
  <metadata><?xpacket begin="﻿" id="W5M0MpCehiHzreSzNTczkc9d"?>
<x:xmpmeta xmlns:x="adobe:ns:meta/" x:xmptk="Adobe XMP Core 5.6-c138 79.159824, 2016/09/14-01:09:01        ">
   <rdf:RDF xmlns:rdf="http://www.w3.org/1999/02/22-rdf-syntax-ns#">
      <rdf:Description rdf:about=""/>
   </rdf:RDF>
</x:xmpmeta>
                                                                                                    
                                                                                                    
                                                                                                    
                                                                                                    
                                                                                                    
                                                                                                    
                                                                                                    
                                                                                                    
                                                                                                    
                                                                                                    
                                                                                                    
                                                                                                    
                                                                                                    
                                                                                                    
                                                                                                    
                                                                                                    
                                                                                                    
                                                                                                    
                                                                                                    
                                                                                                    
                           
<?xpacket end="w"?></metadata>
<defs>
    <style>
      .cls-1, .cls-2 {
        fill-rule: evenodd;
      }

      .cls-2 {
        fill: #fff;
      }
    </style>
  </defs>
  <path id="Rounded_Rectangle_1" data-name="Rounded Rectangle 1" class="cls-1" d="M538.792,44H704a5,5,0,0,1,5,5V77a5,5,0,0,1-5,5H538.792a5,5,0,0,1-5-5V49A5,5,0,0,1,538.792,44Z" transform="translate(-533.781 -44)"/>
  <path id="Shop_Now" data-name="Shop Now" class="cls-2" d="M558.227,76.468a11.235,11.235,0,0,0,4.34-.688,4.4,4.4,0,0,0,2.327-2.224,9.816,9.816,0,0,0,.723-4.128,8.274,8.274,0,0,0-.928-4.128,5.018,5.018,0,0,0-2.673-2.288l-2-.752-1.1-.448a11.4,11.4,0,0,1-1.51-.672,2.321,2.321,0,0,1-.833-0.832,2.825,2.825,0,0,1-.33-1.472,1.794,1.794,0,0,1,2.044-2.016,2.009,2.009,0,0,1,1.635.576,2.861,2.861,0,0,1,.472,1.824V59.7h4.685V59.22a8.726,8.726,0,0,0-.629-3.664,3.792,3.792,0,0,0-2.044-1.92,10.472,10.472,0,0,0-3.93-.592q-3.806,0-5.456,1.472t-1.651,4.9a7.485,7.485,0,0,0,.691,3.5,4.81,4.81,0,0,0,1.683,1.9,16.474,16.474,0,0,0,2.657,1.248l1.195,0.48q1.227,0.48,1.792.768a2.45,2.45,0,0,1,.975.976,3.656,3.656,0,0,1,.409,1.872,2.933,2.933,0,0,1-.519,1.9,2.287,2.287,0,0,1-1.839.624,2.321,2.321,0,0,1-2.013-.784,4.65,4.65,0,0,1-.566-2.64V68.532h-4.748v0.832a10.83,10.83,0,0,0,.66,4.208,4.163,4.163,0,0,0,2.2,2.208,10.746,10.746,0,0,0,4.277.688h0Zm15.786-.352V66.932h4.843v9.184h5.157V53.4h-5.157v8.832h-4.843V53.4h-5.157v22.72h5.157ZM595.3,76.468a9.6,9.6,0,0,0,4.764-.96,5.384,5.384,0,0,0,2.343-3.36,26.721,26.721,0,0,0,.692-6.976V64.34a26.724,26.724,0,0,0-.692-6.976A5.384,5.384,0,0,0,600.066,54a12.3,12.3,0,0,0-9.528,0,5.322,5.322,0,0,0-2.327,3.36,27.3,27.3,0,0,0-.676,6.976v0.832a27.3,27.3,0,0,0,.676,6.976,5.322,5.322,0,0,0,2.327,3.36,9.6,9.6,0,0,0,4.764.96h0Zm0-4.032a1.885,1.885,0,0,1-1.557-.64,4.535,4.535,0,0,1-.723-2.208,39.117,39.117,0,0,1-.2-4.672V64.6a39.128,39.128,0,0,1,.2-4.672,4.539,4.539,0,0,1,.723-2.208,1.886,1.886,0,0,1,1.557-.64,1.932,1.932,0,0,1,1.572.64,4.449,4.449,0,0,1,.739,2.224,39.356,39.356,0,0,1,.2,4.656v0.32a39.356,39.356,0,0,1-.2,4.656,4.448,4.448,0,0,1-.739,2.224,1.931,1.931,0,0,1-1.572.64h0Zm11.352,3.68h5.157v-7.9h1.069a16.225,16.225,0,0,0,5.079-.624,4.336,4.336,0,0,0,2.578-2.128,9.419,9.419,0,0,0,.771-4.224V60.4a9.511,9.511,0,0,0-.771-4.256,4.337,4.337,0,0,0-2.578-2.128,16.225,16.225,0,0,0-5.079-.624h-6.226v22.72Zm5.157-12V57.492h0.975a5.456,5.456,0,0,1,2.012.288,1.632,1.632,0,0,1,.944.944,5.712,5.712,0,0,1,.251,1.936v0.32a5.585,5.585,0,0,1-.251,1.9,1.631,1.631,0,0,1-.944.944,5.456,5.456,0,0,1-2.012.288h-0.975Zm31.666,4.416-5.5-15.136h-5.723v22.72h4.434V60.98l5.5,15.136h5.723V53.4h-4.434V68.532Zm15.754,7.936a9.6,9.6,0,0,0,4.764-.96,5.38,5.38,0,0,0,2.343-3.36,26.721,26.721,0,0,0,.692-6.976V64.34a26.724,26.724,0,0,0-.692-6.976A5.38,5.38,0,0,0,664,54a12.3,12.3,0,0,0-9.528,0,5.326,5.326,0,0,0-2.327,3.36,27.3,27.3,0,0,0-.676,6.976v0.832a27.3,27.3,0,0,0,.676,6.976,5.326,5.326,0,0,0,2.327,3.36,9.6,9.6,0,0,0,4.764.96h0Zm0-4.032a1.883,1.883,0,0,1-1.556-.64,4.534,4.534,0,0,1-.724-2.208,39.333,39.333,0,0,1-.2-4.672V64.6a39.344,39.344,0,0,1,.2-4.672,4.538,4.538,0,0,1,.724-2.208,1.884,1.884,0,0,1,1.556-.64,1.935,1.935,0,0,1,1.573.64,4.459,4.459,0,0,1,.739,2.224,39.4,39.4,0,0,1,.2,4.656v0.32a39.4,39.4,0,0,1-.2,4.656A4.457,4.457,0,0,1,660.8,71.8a1.933,1.933,0,0,1-1.573.64h0Zm28.774-1.152L684.8,53.4h-5.629l-3.207,17.792L673.634,53.4H668.6l4.12,22.72h6.163l2.956-16.7,2.925,16.7h6.163l4.12-22.72h-4.686Z" transform="translate(-533.781 -44)"/>
</svg>
