<?xml version="1.0" encoding="utf-8"?>
<!-- Generator: Adobe Illustrator 18.1.1, SVG Export Plug-In . SVG Version: 6.00 Build 0)  -->
<svg version="1.1" id="Layer_1" xmlns="http://www.w3.org/2000/svg" xmlns:xlink="http://www.w3.org/1999/xlink" x="0px" y="0px"
	 width="107.5px" height="250.8px" viewBox="-180.5 720.1 107.5 250.8" enable-background="new -180.5 720.1 107.5 250.8"
	 xml:space="preserve">
<g id="Layer_1_1_" display="none">
	<g display="inline">
		<path d="M169.8,932.2c0,10.4,3.7,13.3,19.6,13.3c15.1,0,21.5-4.8,31.8-25.5h3.7l-3.7,31.8h-93.9v-3.7c14.1-3.7,15.1-6.6,15.1-19.6
			v-77c0-11.1-2.9-14.1-15.1-17v-3.7h58.4v3.7c-12.2,2.9-15.1,5.6-15.1,15.9v81.7L169.8,932.2L169.8,932.2z"/>
		<path d="M263.8,936.1c0,7.4,3.7,12.2,13.3,13.3v3.7h-49.9v-3.7c10.4-1.9,13.3-4.8,13.3-15.1v-42.2c0-9.3-2.9-12.2-14.1-15.1v-3.7
			l34.8-2.9h3.7v65.8H263.8L263.8,936.1z M251.6,821.5c7.4,0,13.3,5.6,13.3,13.3s-5.6,14.1-13.3,14.1c-7.7,0-14.1-6.6-14.1-14.1
			C238.3,828.1,244.2,821.5,251.6,821.5"/>
		<path d="M315.5,891c7.4-7.4,12.2-9.3,18.8-9.3c14.1,0,23.4,13.3,23.4,32.9c0,25.5-11.1,36.6-29.2,36.6c-9.3,0-12.2-3.7-12.2-13.3
			v-47H315.5L315.5,891z M315.5,821.5h-3.7l-31.8,2.9v3.7c7.4,1.1,12.2,4.8,12.2,11.1v113.6c12.2,1.9,23.4,2.9,38.5,2.9
			c38.5,0,53.6-19.6,53.6-44.1c0-23.4-15.9-40.3-37.7-40.3c-11.1,0-20.7,4.8-30,14.1v-64H315.5L315.5,821.5z"/>
		<path d="M417.7,901.4c1.1-15.1,7.4-25.5,17-25.5c9.3,0,17,10.4,17.8,25.5H417.7z M478,905.9c-2.9-21.5-18.8-35.6-41.4-35.6
			c-25.5,0-44.1,18.8-44.1,43.3c0,24.4,18.8,42.2,43.3,42.2c18.8,0,34.8-10.4,42.2-27.3h-3.7c-7.4,11.1-17,17-28.1,17
			c-15.1,0-29.2-13.3-28.1-39.5H478z"/>
		<path d="M554.1,901.4c-6.6-6.6-12.2-10.4-17.8-10.4c-7.4,0-11.1,2.9-17.8,11.1V934c0,9.3,1.9,12.2,13.3,15.1v3.7h-49.9v-3.7
			c10.4-2.9,13.3-5.6,13.3-15.1v-41.4c0-10.4-4.8-15.1-14.1-15.1v-3.7l34.8-2.9h3.7v25.5l0,0c7.4-17,15.9-25.5,26.3-25.5
			c5.6,0,10.4,1.9,14.1,6.6L554.1,901.4z"/>
		<path d="M687.4,874v3.7c10.4,1.9,12.2,8.5,5.6,25.5l-11.1,25.5l-17-34.8c-4.8-10.4-4.8-15.1,3.7-15.9v-3.7h-45.9h-1.9h-21.5v-31.1
			h-3.7c-11.1,14.1-24.4,27.3-33.7,32.9v3.7h14.1v50.7c0,17.8,12.2,25.5,27.3,25.5c12.2,0,19.6-3.7,25.5-14.1l-2.9-1.9
			c-3.7,4.8-7.4,6.6-11.1,6.6c-11.1,0-14.1-7.4-14.1-20.7v-45.1h21.5c11.1,0,15.1,3.7,19.6,15.1l29.2,61
			c-9.3,26.3-17.8,36.6-32.9,36.6c-2.9,0-5.6,0-10.4-1.9l-4.8,23.4c2.9,0,4.8,0,6.6,0c15.9,0,25.5-6.6,33.7-26.3l39.5-91
			c6.6-15.1,9.3-17.8,18.8-20.7v-3.7h-34.2V874z"/>
		<path d="M915.6,931.4c1.9,10.4,6.6,17,18.8,18.8v3.7h-60.2v-3.7c13.3-3.7,15.9-11.1,13.3-27.3l-10.4-69.5l0,0l-39.5,100.6h-4.8
			l-39.3-100.6l0,0l-10.4,72.5c-1.9,14.1,1.1,23.4,14.1,25.5v3.7h-44.1v-3.7c13.3-1.1,18.8-8.5,21.5-27.3l12.2-79.9
			c-4.8-4.8-11.1-8.5-17.8-8.5v-3.7h44.1l31.8,80.7l32.9-80.7h41.4v3.7c-12.2,1.9-15.1,8.5-14.1,19.6L915.6,931.4z"/>
		<path d="M943.7,891.8c0-8.5-2.9-12.2-12.2-13.3v-3.7l32.9-2.9h3.7V930c0,9.3,5.6,14.1,15.1,14.1c7.4,0,13.3-3.7,19.6-14.1v-39.5
			c0-6.6-3.7-10.4-12.2-11.1v-3.7l32.9-2.9h3.7v62.9c0,10.4,1.9,13.3,12.2,15.9v3.7l-36.6,2.9v-18.3l0,0
			c-8.5,13.3-18.8,18.8-31.1,18.8c-15.9,0-26.3-9.3-26.3-24.4v-42.2h-1.9L943.7,891.8L943.7,891.8z"/>
		<path d="M1056.5,880.7h-14.1V877c9.3-5.6,22.6-18.8,33.7-32.9h3.7v31.1h26.3v6.6h-26.3v45.1c0,13.3,3.7,20.7,14.1,20.7
			c3.7,0,7.4-1.9,11.1-6.6l2.9,1.9c-5.6,9.3-13.3,14.1-25.5,14.1c-15.1,0-27.3-7.4-27.3-25.5v-50.7L1056.5,880.7L1056.5,880.7z"/>
		<path d="M1121.3,891.8c0-8.5-2.9-12.2-12.2-13.3v-3.7l32.9-2.9h3.7V930c0,9.3,5.6,14.1,15.1,14.1c7.4,0,13.3-3.7,19.6-14.1v-39.5
			c0-6.6-3.7-10.4-12.2-11.1v-3.7l32.9-2.9h3.7v62.9c0,10.4,1.9,13.3,12.2,15.9v3.7l-36.6,2.9v-18.3l0,0
			c-8.5,13.3-18.8,18.8-31.1,18.8c-15.9,0-26.3-9.3-26.3-24.4v-42.2h-1.9V891.8L1121.3,891.8z"/>
		<path d="M1268.8,939.8c-5.6,5.6-10.4,8.5-15.1,8.5c-6.6,0-11.1-5.6-11.1-14.1c0-10.4,5.6-15.1,25.5-23.4v29.2L1268.8,939.8
			L1268.8,939.8z M1293.2,901.4c0-21.5-17.8-29.2-34.8-29.2c-18.8,0-31.1,9.3-35.6,27.3h2.9c4.8-8.5,13.3-13.3,23.4-13.3
			c14.1,0,19.6,6.6,19.6,20.7c-19.6,7.4-50.7,8.5-50.7,30c0,11.1,10.4,20.7,23.4,20.7c9.3,0,17-1.9,25.5-9.3l1.9-1.9
			c3.7,7.4,9.3,11.1,18.8,11.1c11.1,0,18.8-5.6,18.8-15.1h-3.7c-1.1,4.8-2.9,7.4-6.6,7.4c-3.7,0-4.8-2.9-4.8-10.4v-38.5h1.9
			L1293.2,901.4L1293.2,901.4z"/>
		<path d="M1324.3,844c0-11.1-3.7-15.1-15.1-15.9v-3.7l34.8-1.9h3.7v111.7c0,10.4,1.9,13.3,14.1,15.9v3.7h-52.5v-3.7
			c11.1-1.9,15.1-5.6,15.1-15.9V844L1324.3,844z"/>
		<path d="M1385.3,925.8c7.4,0,14.1,5.6,14.1,14.1s-6.6,14.1-14.1,14.1c-7.4,0-14.1-5.6-14.1-14.1
			C1371.3,931.4,1377.6,925.8,1385.3,925.8 M1385.3,951c5.6,0,10.4-4.8,10.4-11.1s-4.8-11.1-10.4-11.1c-5.6,0-10.4,4.8-10.4,11.1
			S1379.5,951,1385.3,951 M1379.5,932.2h5.6c3.7,0,5.6,1.1,5.6,4.8c0,2.9-1.9,3.7-3.7,3.7l3.7,6.6h-2.7l-3.7-6.6h-1.9v6.6h-2.9
			V932.2L1379.5,932.2z M1382.4,938.8h2.9c1.9,0,2.9,0,2.9-1.9s-1.9-1.9-2.9-1.9h-2.9V938.8z"/>
		<rect x="129.5" y="997.2" width="478" height="4.8"/>
		<rect x="673.3" y="997.2" width="690.3" height="4.8"/>
		<rect x="405.5" y="1044.1" width="12.2" height="66.6"/>
		<polygon points="454.3,1044.1 465.8,1044.1 493.9,1090.9 493.9,1090.9 493.9,1044.1 505.3,1044.1 505.3,1110.8 493.9,1110.8 
			465.8,1062.7 465.8,1062.7 465.8,1110.8 454.3,1110.8 		"/>
		<path d="M544.6,1090.1c4.8,6.6,12.2,10.4,19.6,10.4c5.6,0,14.1-1.9,14.1-8.5c0-5.6-4.8-6.6-14.1-8.5l-7.4-1.9
			c-10.4-2.9-19.6-6.6-19.6-18.8c0-14.1,13.3-20.7,25.5-20.7c11.1,0,20.7,3.7,28.1,13.3l-10.4,8.5c-2.9-5.6-9.3-9.3-17.8-9.3
			c-7.4,0-12.2,2.9-12.2,7.4c0,5.6,6.6,6.6,14.1,8.5l8.5,1.9c10.4,1.9,18.8,6.6,18.8,18.8c0,15.9-15.1,21.5-29.2,21.5
			c-11.1,0-22.6-4.8-29.2-14.1L544.6,1090.1z"/>
		<path d="M678.1,1090.1c0,13.3-10.4,22.6-27.3,22.6c-15.9,0-27.3-8.5-27.3-22.6v-45.9h13.3v42.2c0,8.5,3.7,13.3,14.1,13.3
			c10.4,0,14.1-4.8,14.1-13.3v-43.3H677v47H678.1L678.1,1090.1z"/>
		<path d="M713.6,1044.1h28.1c14.1,0,22.6,8.5,22.6,19.6c0,15.1-10.4,18.8-13.3,19.6l15.1,27.3h-14.1l-13.3-24.4h-12.2v24.4h-12.2
			v-66.6L713.6,1044.1L713.6,1044.1z M725.8,1074.9h14.1c6.6,0,11.1-3.7,11.1-10.4c0-5.6-3.7-10.4-13.3-10.4h-12.2L725.8,1074.9
			L725.8,1074.9z"/>
		<path d="M812.4,1044.1h15.1l22.6,66.6h-13.3l-3.7-13.3h-25.5l-3.7,13.3h-13.3L812.4,1044.1z M819.8,1056.4L819.8,1056.4l-9.3,30
			h18.8L819.8,1056.4z"/>
		<polygon points="877.1,1044.1 888.5,1044.1 916.7,1090.9 916.7,1090.9 916.7,1044.1 927.8,1044.1 927.8,1110.8 916.7,1110.8 
			888.5,1062.7 888.5,1062.7 888.5,1110.8 877.1,1110.8 		"/>
		<path d="M1006.6,1065.6c-1.1-7.4-7.4-12.2-15.1-12.2c-13.3,0-18.8,12.2-18.8,23.4c0,11.1,5.6,23.4,18.8,23.4
			c8.5,0,14.1-5.6,15.9-13.3l11.1,5.6c-5.6,13.3-14.1,19.6-27.3,19.6c-21.5,0-31.8-15.9-31.8-34.8c0-18.8,12.2-34.8,31.8-34.8
			c13.3,0,23.4,6.6,26.3,20.7L1006.6,1065.6z"/>
		<polygon points="1046.2,1044.1 1094.2,1044.1 1094.2,1055.3 1059.4,1055.3 1059.4,1070.4 1091.3,1070.4 1091.3,1081.6 
			1059.4,1081.6 1059.4,1098.6 1096.1,1098.6 1096.1,1110.8 1046.2,1110.8 		"/>
		<path d="M5.6,871.1c1.9,1.1,1.9,1.1,2.9,1.9l26.3-29.2c-8.5-9.3-17-15.1-28.1-19.6c-4.8-1.9-5.6-2.9-10.4-3.7l6.6,49.9
			C1.8,870.3,4.5,871.1,5.6,871.1"/>
		<path d="M-81.8,825.2l47,45.1c0,0,1.9-1.1,2.9-1.1c1.9-1.1,2.9-1.1,2.9-1.1l4.8-51.8c-4.8-1.1-7.4-1.1-12.2-1.1
			c-11.1,0-27.3,1.9-38.5,6.6C-79.9,823.3-81.8,825.2-81.8,825.2"/>
		<path d="M-109.1,1029.8c0-19.6-3.7-47-7.4-59.2c-1.9-7.4-17.8-55.5-18.8-57.3c0-1.1-1.1-14.1-1.1-25.5
			c-7.4,20.7-11.1,45.1-11.1,71.4l0,0c0,42.2,11.1,79.9,31.8,107C-109.1,1051.6-109.1,1039.4-109.1,1029.8
			C-109.1,1030.9-109.1,1030.9-109.1,1029.8"/>
		<path d="M-52.8,1034.6c17.8-15.9,29.2-20.7,47.8-31.1c-28.1,5.6-61,25.5-78.8,47.8c-12.2,15.1-19.6,28.1-19.6,29.2
			c2.9,1.9,5.6,3.7,8.5,4.8C-81.8,1060.9-64,1044.1-52.8,1034.6"/>
		<path d="M-95,831.8c-1.9,1.1-2.9,1.9-2.9,2.9c8.5,21.5,19.6,48.8,22.6,57.3c0,1.1,1.1,1.9,1.1,2.9l18.8,9.3l0,0c0,0,0-2.9,0-3.7
			c0-0.8,1.1-3.7,1.1-3.7L-91,829.2C-93.2,830.8-93.2,830.8-95,831.8"/>
		<path d="M-47,1042c-19.6,18.8-32.9,41.4-36.6,47c1.9,1.1,3.7,1.1,6.6,1.9c42.2-75.1,109.1-92.1,147.6-93.9c1.1-1.9,0,1.1,0-2.9
			C44,993.2-5.8,1002.7-47,1042"/>
		<path d="M36.6,893.7L36.6,893.7l23.4-9.3c-2.9-6.6-6.6-14.1-10.4-20.7l-15.1,28.1C35.6,892.9,36.6,893.7,36.6,893.7"/>
		<path d="M47.8,930.3c-1.1,1.9-2.9,5.6-2.9,5.6l1.9,17.8l18.8,31.1l5.6,1.1c1.1-8.5,1.1-15.9,1.1-24.4c0-18.8-1.1-34.8-4.8-51.8
			l-18.8,15.9C48.8,924.7,47.8,928.4,47.8,930.3"/>
		<path d="M94.7,878.8l-47,36.6c-1.1-5.6-2.9-11.1-5.6-15.1L94.7,878.8L94.7,878.8L94.7,878.8"/>
		<path d="M-82.8,833.7L-82.8,833.7C-82.8,832.6-82.8,833.7-82.8,833.7l40.3,40.3c-3.7,1.9-7.4,7.4-9.3,12.2L-82.8,833.7z"/>
		<path d="M-59.2,910.7c0,0-1.1,1.9-1.1,4.8s1.1,5.6,1.1,5.6l-12.2-8.5c0-2.9,0-3.7,0-5.6c0,0,0-2.9,0-3.7L-59.2,910.7z"/>
		<path d="M-79.1,1001.7c-1.9,14.1-4.8,27.3-10.4,35.6c-3.7,5.6-13.3,17.8-15.9,21.5c3.7-7.4,6.6-24.4,6.6-38.5
			c0-8.5-2.9-28.1-1.1-41.4c2.9-14.1,6.6-21.5,15.9-30c4.8-4.8,14.1-9.3,28.1-6.6l11.1,20.7c-5.6-1.1-14.1,0-18.8,3.7
			C-73.5,976.5-77.2,986.8-79.1,1001.7"/>
		<path d="M-77.2,1029.8c2.9-5.6,6.6-23.4,7.4-29.2c1.1-7.4,2.9-17.8,11.1-25.5c4.8-3.7,11.1-3.7,14.1-2.9l12.2,25.5
			c1.1,2.9,4.8,3.7,7.4,3.7C-36.9,1005.4-65.8,1019.7-77.2,1029.8"/>
		<path d="M28.9,948.3c-1.9,2.9-1.1,6.6,0,8.5c1.1,2.9,7.4,15.1,7.4,15.1c1.9,5.6,3.7,8.5,5.6,12.2c3.7,0,7.4,0,11.1,0
			C48.3,974.9,39,955,39,955l-1.1-15.1C35.6,941.7,31.8,945.4,28.9,948.3"/>
		<path d="M-15.1,791.5l-6.6,75.1c4.8-1.1,14.1,1.1,15.9,1.9L-15.1,791.5L-15.1,791.5L-15.1,791.5"/>
		<path d="M-119.4,807.4c0-1.1-1.1-2.9-1.9-3.7c-1.9-1.1-3.7-1.9-5.6-2.9c-1.1,0-2.9-2.9-4.8-2.9c-4.8,0-10.4-1.1-12.2-2.9
			c-1.9,4.8-1.1,6.6,1.1,8.5c1.9,1.9,5.6,2.9,9.3,2.9l1.1,22.6c1.1,1.9,4.8,2.9,7.4,2.9v1.1l-3.7,2.9c0,2.9,3.7,75.1,4.8,77
			c1.1,1.1,18.8,55.5,18.8,58.1c1.1-6.6,6.6-19.6,13.3-26.3c6.6-6.6,14.1-9.3,18.8-8.5c-1.1-1.1-6.6-14.1-6.6-15.1
			c0-1.1-1.9-17-2.9-17.8C-83.6,902.2-119.4,808.2-119.4,807.4"/>
		<path d="M61,827.1L15.1,877c2.9,1.9,11.1,7.4,14.1,11.1L61,827.1C61,827.1,61.8,827.1,61,827.1L61,827.1"/>
		<path d="M36.6,909.6c-1.1-2.9-7.4-11.1-20.7-20.7c-9.3-7.4-24.4-15.1-35.6-15.1c-19.6,0-28.1,14.1-29.2,20.7
			c-1.1,4.8-1.1,9.3,0,11.1c-2.9,2.9-4.8,4.8-4.8,7.4c0,1.9,0,5.6,1.9,7.4c0-2.9,1.9-6.6,3.7-8.5c1.9-2.9,4.8-3.7,7.4-4.8v5.6
			c-2.9,1.9-5.6,4.8-5.6,6.6v9.3l6.6-3.7l1.1,2.9l-2.9,15.9l3.7-1.1l6.6,2.9l-6.6,5.6v1.9c0,0,1.1-1.1,3.7-1.1
			c2.9,0,8.5,2.9,8.5,2.9v1.1h-2.9h-9.3c0,1.9,1.1,2.9,1.9,3.7c1.9,0,2.9-1.1,3.7-1.1c0.8,0,2.9,1.1,4.8,1.1l-1.9,2.9
			c0,0-1.1,1.1-2.9,0c-1.1,0-1.9,1.1-1.9,2.9c0,1.1,1.1,4.8,1.1,4.8c1.1,4.8,6.6,3.7,6.6,3.7c2.9,0,14.1-3.7,14.1-3.7l-10.4,14.1
			l4.8,15.1c6.6-2.9,27.3-10.4,48.8-13.3c-2.9-3.7-2.9-5.6-5.6-11.1l-11.1-26.3l1.9-3.7c2.9,1.1,6.6-1.1,8.5-2.9
			c2.9-1.9,5.6-5.6,6.6-7.4c-1.9-1.1-2.9-1.1-4.8,0c-1.1,1.1-2.9,2.9-4.8,1.9c-1.9-1.1-1.1-2.9-1.1-4.8s-1.9-1.9-3.7-1.1
			c-1.9,1.9-5.6,1.1-8.5-1.9c-2.9-2.9-14.1-12.2-18.8-15.1c-6.6-3.7-14.1-4.8-20.7-3.7c-3.7,1.1-5.6,1.9-7.4,1.9l-4.8-6.6h0.8
			c1.9,1.1,2.9,1.9,4.8,1.1c1.9-1.1,8.5-1.9,14.1-1.9c9.3,0,19.6,2.9,24.4,5.6c0,5.6,12.2,13.3,17,14.1c4.8,1.1,7.4-1.1,10.4-1.9
			L17,912l5.6-7.4c0,0,9.3,9.3,11.1,11.1C37.4,912.5,37.4,910.7,36.6,909.6 M-32.1,921c0,0,4.8-2.9,9.3-3.7
			c6.6-1.9,14.1,2.9,19.6,6.6l-1.1,1.9l-7.4,1.9c-1.9-1.1-4.8-1.9-7.4-1.9s-4.8,1.1-4.8,1.1l1.9,2.9l-3.7,1.1
			c-1.9-1.9-3.7-4.8-6.6-4.8C-32.1,925.8-32.1,921-32.1,921z M-44.3,903.2c-1.9-6.6,3.7-13.3,5.6-15.9l3.7,8.5
			C-36.9,897.4-41.4,901.4-44.3,903.2 M-8.5,895.5c-3.7-2.9-15.9-1.9-20.7-1.1l-3.7-10.4c2.9-1.9,7.4-3.7,12.2-3.7
			s10.4,1.1,13.3,2.9L-8.5,895.5z M14.9,905.9c-4.8-2.9-15.1-7.4-17.8-8.5l4.8-11.1c3.7,1.9,17,10.4,18.8,12.2L14.9,905.9z"/>
		<path d="M-142.8,789.4c10.4,0,15.1,4.8,17.8,6.6c0-3.7,0-6.6-3.7-9.3c-2.9-1.9-7.4-3.7-14.1-3.7c-4.8,0-9.3,1.1-12.2,3.7
			c-3.7,2.9-3.7,4.8-3.7,8.5C-157.9,792.3-151.3,789.4-142.8,789.4"/>
		<path d="M-163.5,736c0,3.7,1.1,7.4,2.9,10.4c1.1,1.1,3.7,3.7,5.6,3.7c2.9,0,4.8-4.8,11.1-4.8c3.7,0,6.6,5.6,9.3,5.6
			c2.9,0,3.7-2.9,6.6-2.9c1.1,0,1.9,1.1,3.7,2.9c1.1-1.9,1.9-3.7,5.6-5.6c3.7-3.7,17.8-6.6,23.4-11.1c2.9-2.9,3.7-7.4,2.9-10.4
			c-2.9,1.9-8.5,5.6-15.1,5.6c-2.9,0-9.3-1.1-12.2-1.9c1.1-2.9,1.9-4.8,1.1-7.4c-2.9,1.9-11.1,1.9-14.1,1.9c-2.9,0-9.3-1.1-15.1-1.1
			C-157.9,722-163.5,729.4-163.5,736"/>
		<path d="M-157.1,815.9c-1.9,0-4.8,2.9-6.6,5.6c0,1.9,1.9,5.6,3.7,6.6c0-1.9,2.9-5.6,3.7-5.6c1.9-1.1,2.9-1.9,3.7-2.9
			c1.1-1.1,1.9-1.1,1.9-2.9c0-1.1,0-1.9-1.1-3.7c1.1,0,3.7,0,3.7-1.1c1.1-1.1,1.1-2.9,1.1-3.7c0-0.8,1.1-1.1-1.1-1.1
			c-1.1,0-5.6,0-7.4,0c0,0,2.9-1.9,3.7-1.9s1.1-1.1,1.1-1.9s0-2.9,0-4.8c-3.7,0-12.2,3.7-14.1,5.6l1.9,3.7h-2.4c0,1.9,0,5.6,1.1,6.6
			C-162.7,815.9-159,814.8-157.1,815.9"/>
		<path d="M-130.6,850.4c0-1.9-1.1-2.9-2.9-3.7c1.1-3.7,1.1-7.4,1.1-10.4c0-2.9-1.1-5.6-2.9-8.5c-1.9-2.9-5.6-6.6-7.4-8.5
			c0,1.9-1.1,2.9-1.9,2.9c-1.9,0-6.6,4.8-6.6,4.8l-1.1,18.8l0,0l0,0c-1.9,1.1-4.8,2.9-3.7,6.6c0,2.9,2.9,5.6,7.4,6.6
			c1.1,0,1.1,0,1.9,0v-1.1c0,0-1.1,0-1.9,0c-4.8-1.1-5.6-4.8-2.9-5.6c2.9-1.1,5.6-1.9,8.5-1.9c3.7,0,8.5,1.9,10.4,3.7
			C-131.6,852.5-130.6,851.5-130.6,850.4"/>
		<path d="M-106.2,781.9c0-2.9-3.7-9.3-3.7-11.1s0-3.7,1.1-5.6c-1.9,0-6.6,2.9-9.3,1.1c-2.9-2.9-1.1-7.4-3.7-8.5
			c-3.7-1.1-8.5,2.9-11.1,1.9c-2.7-1.1-5.6-4.8-9.3-4.8s-4.8,3.7-9.3,4.8c-2.9,1.1-7.4-1.1-10.4-1.1c-1.9,0-3.7,1.9-4.8,3.7
			c0,1.9-1.1,2.9-3.7,3.7c-1.9,1.1-5.6-1.1-6.6-1.1c1.1,1.1,1.9,2.9,1.9,4.8c-1.6,5.6-5.3,8.5-5.3,17.8c0,10.4,10.4,15.1,10.4,15.1
			l1.1-1.1c-2.9-1.9-6.6-6.6-7.4-13.3c0-1.1,0-1.1,0-1.9c1.1-2.9,2.9-5.6,5.6-8.5l0,0c5.6-5.6,15.9-8.5,29.2-8.5
			c23.4,0,34.8,11.1,34.8,20.7C-106.2,787.5-106.2,784.9-106.2,781.9"/>
	</g>
</g>
<g id="Layer_2">
	<path fill="#FFFFFF" d="M-119.4,807.4c0-1.1-1.1-2.9-1.9-3.7c-1.9-1.1-3.7-1.9-5.6-2.9c-1.1,0-2.9-2.9-4.8-2.9
		c-4.8,0-10.4-1.1-12.2-2.9c-1.9,4.8-1.1,6.6,1.1,8.5c1.9,1.9,5.6,2.9,9.3,2.9l1.1,22.6c1.1,1.9,4.8,2.9,7.4,2.9v1.1l-3.7,2.9
		c0,2.9,3.7,75.1,4.8,77c1.1,1.1,18.8,55.5,18.8,58.1c1.1-6.6,6.6-19.6,13.3-26.3c6.6-6.6,14.1-9.3,18.8-8.5
		c-1.1-1.1-6.6-14.1-6.6-15.1c0-1.1-1.9-17-2.9-17.8C-83.6,902.2-119.4,808.2-119.4,807.4"/>
	<path fill="#FFFFFF" d="M-142.8,789.4c10.4,0,15.1,4.8,17.8,6.6c0-3.7,0-6.6-3.7-9.3c-2.9-1.9-7.4-3.7-14.1-3.7
		c-4.8,0-9.3,1.1-12.2,3.7c-3.7,2.9-3.7,4.8-3.7,8.5C-157.9,792.3-151.3,789.4-142.8,789.4"/>
	<path fill="#FFFFFF" d="M-163.5,736c0,3.7,1.1,7.4,2.9,10.4c1.1,1.1,3.7,3.7,5.6,3.7c2.9,0,4.8-4.8,11.1-4.8c3.7,0,6.6,5.6,9.3,5.6
		c2.9,0,3.7-2.9,6.6-2.9c1.1,0,1.9,1.1,3.7,2.9c1.1-1.9,1.9-3.7,5.6-5.6c3.7-3.7,17.8-6.6,23.4-11.1c2.9-2.9,3.7-7.4,2.9-10.4
		c-2.9,1.9-8.5,5.6-15.1,5.6c-2.9,0-9.3-1.1-12.2-1.9c1.1-2.9,1.9-4.8,1.1-7.4c-2.9,1.9-11.1,1.9-14.1,1.9c-2.9,0-9.3-1.1-15.1-1.1
		C-157.9,722-163.5,729.4-163.5,736"/>
	<path fill="#FFFFFF" d="M-157.1,815.9c-1.9,0-4.8,2.9-6.6,5.6c0,1.9,1.9,5.6,3.7,6.6c0-1.9,2.9-5.6,3.7-5.6
		c1.9-1.1,2.9-1.9,3.7-2.9c1.1-1.1,1.9-1.1,1.9-2.9c0-1.1,0-1.9-1.1-3.7c1.1,0,3.7,0,3.7-1.1c1.1-1.1,1.1-2.9,1.1-3.7
		c0-0.8,1.1-1.1-1.1-1.1c-1.1,0-5.6,0-7.4,0c0,0,2.9-1.9,3.7-1.9s1.1-1.1,1.1-1.9s0-2.9,0-4.8c-3.7,0-12.2,3.7-14.1,5.6l1.9,3.7
		h-2.4c0,1.9,0,5.6,1.1,6.6C-162.7,815.9-159,814.8-157.1,815.9"/>
	<path fill="#FFFFFF" d="M-130.6,850.4c0-1.9-1.1-2.9-2.9-3.7c1.1-3.7,1.1-7.4,1.1-10.4c0-2.9-1.1-5.6-2.9-8.5
		c-1.9-2.9-5.6-6.6-7.4-8.5c0,1.9-1.1,2.9-1.9,2.9c-1.9,0-6.6,4.8-6.6,4.8l-1.1,18.8l0,0l0,0c-1.9,1.1-4.8,2.9-3.7,6.6
		c0,2.9,2.9,5.6,7.4,6.6c1.1,0,1.1,0,1.9,0v-1.1c0,0-1.1,0-1.9,0c-4.8-1.1-5.6-4.8-2.9-5.6c2.9-1.1,5.6-1.9,8.5-1.9
		c3.7,0,8.5,1.9,10.4,3.7C-131.6,852.5-130.6,851.5-130.6,850.4"/>
	<path fill="#FFFFFF" d="M-106.2,781.9c0-2.9-3.7-9.3-3.7-11.1s0-3.7,1.1-5.6c-1.9,0-6.6,2.9-9.3,1.1c-2.9-2.9-1.1-7.4-3.7-8.5
		c-3.7-1.1-8.5,2.9-11.1,1.9c-2.7-1.1-5.6-4.8-9.3-4.8s-4.8,3.7-9.3,4.8c-2.9,1.1-7.4-1.1-10.4-1.1c-1.9,0-3.7,1.9-4.8,3.7
		c0,1.9-1.1,2.9-3.7,3.7c-1.9,1.1-5.6-1.1-6.6-1.1c1.1,1.1,1.9,2.9,1.9,4.8c-1.6,5.6-5.3,8.5-5.3,17.8c0,10.4,10.4,15.1,10.4,15.1
		l1.1-1.1c-2.9-1.9-6.6-6.6-7.4-13.3c0-1.1,0-1.1,0-1.9c1.1-2.9,2.9-5.6,5.6-8.5l0,0c5.6-5.6,15.9-8.5,29.2-8.5
		c23.4,0,34.8,11.1,34.8,20.7C-106.2,787.5-106.2,784.9-106.2,781.9"/>
</g>
</svg>
