<?xml version="1.0" encoding="utf-8"?>
<!-- Generator: Adobe Illustrator 18.1.1, SVG Export Plug-In . SVG Version: 6.00 Build 0)  -->
<svg version="1.1" id="Layer_1" xmlns="http://www.w3.org/2000/svg" xmlns:xlink="http://www.w3.org/1999/xlink" x="0px" y="0px"
	 viewBox="0 468.6 300 61" enable-background="new 0 468.6 300 61" xml:space="preserve">
<g id="Layer_1_1_">
	<g>
		<path fill="#FFFFFF" d="M66.5,495.3c0,2,0.7,2.5,3.7,2.5c2.9,0,4.1-0.9,6-4.8H77l-0.7,6H58.5v-0.7c2.7-0.7,2.9-1.3,2.9-3.7V480
			c0-2.1-0.6-2.7-2.9-3.2v-0.7h11.1v0.7c-2.3,0.6-2.9,1.1-2.9,3v15.5H66.5z"/>
		<path fill="#FFFFFF" d="M84.4,496.1c0,1.4,0.7,2.3,2.5,2.5v0.7h-9.5v-0.7c2-0.4,2.5-0.9,2.5-2.9v-8c0-1.8-0.6-2.3-2.7-2.9v-0.7
			l6.6-0.6h0.7v12.5L84.4,496.1L84.4,496.1z M82,474.3c1.4,0,2.5,1.1,2.5,2.5c0,1.4-1.1,2.7-2.5,2.7c-1.5,0-2.7-1.3-2.7-2.7
			C79.5,475.6,80.6,474.3,82,474.3"/>
		<path fill="#FFFFFF" d="M94.2,487.5c1.4-1.4,2.3-1.8,3.6-1.8c2.7,0,4.4,2.5,4.4,6.2c0,4.8-2.1,7-5.5,7c-1.8,0-2.3-0.7-2.3-2.5
			v-8.9L94.2,487.5L94.2,487.5z M94.2,474.3h-0.7l-6,0.6v0.7c1.4,0.2,2.3,0.9,2.3,2.1v21.6c2.3,0.4,4.4,0.6,7.3,0.6
			c7.3,0,10.2-3.7,10.2-8.4c0-4.4-3-7.7-7.2-7.7c-2.1,0-3.9,0.9-5.7,2.7v-12.1L94.2,474.3L94.2,474.3z"/>
		<path fill="#FFFFFF" d="M113.6,489.5c0.2-2.9,1.4-4.8,3.2-4.8c1.8,0,3.2,2,3.4,4.8H113.6z M125,490.3c-0.6-4.1-3.6-6.8-7.9-6.8
			c-4.8,0-8.4,3.6-8.4,8.2c0,4.6,3.6,8,8.2,8c3.6,0,6.6-2,8-5.2h-0.7c-1.4,2.1-3.2,3.2-5.3,3.2c-2.9,0-5.5-2.5-5.3-7.5H125z"/>
		<path fill="#FFFFFF" d="M139.5,489.5c-1.3-1.3-2.3-2-3.4-2c-1.4,0-2.1,0.6-3.4,2.1v6c0,1.8,0.4,2.3,2.5,2.9v0.7h-9.5v-0.7
			c2-0.6,2.5-1.1,2.5-2.9v-7.9c0-2-0.9-2.9-2.7-2.9v-0.7l6.6-0.6h0.7v4.8l0,0c1.4-3.2,3-4.8,5-4.8c1.1,0,2,0.4,2.7,1.3L139.5,489.5z
			"/>
		<path fill="#FFFFFF" d="M164.8,484.3v0.7c2,0.4,2.3,1.6,1.1,4.8l-2.1,4.8l-3.2-6.6c-0.9-2-0.9-2.9,0.7-3v-0.7h-8.7h-0.4h-4.1v-5.9
			h-0.7c-2.1,2.7-4.6,5.2-6.4,6.2v0.7h2.7v9.6c0,3.4,2.3,4.8,5.2,4.8c2.3,0,3.7-0.7,4.8-2.7l-0.6-0.4c-0.7,0.9-1.4,1.3-2.1,1.3
			c-2.1,0-2.7-1.4-2.7-3.9v-8.6h4.1c2.1,0,2.9,0.7,3.7,2.9l5.5,11.6c-1.8,5-3.4,7-6.2,7c-0.6,0-1.1,0-2-0.4l-0.9,4.4
			c0.6,0,0.9,0,1.3,0c3,0,4.8-1.3,6.4-5l7.5-17.3c1.3-2.9,1.8-3.4,3.6-3.9v-0.7h-6.5V484.3z"/>
		<path fill="#FFFFFF" d="M208.1,495.2c0.4,2,1.3,3.2,3.6,3.6v0.7h-11.4v-0.7c2.5-0.7,3-2.1,2.5-5.2l-2-13.2l0,0l-7.5,19.1h-0.9
			l-7.5-19.1l0,0l-2,13.8c-0.4,2.7,0.2,4.4,2.7,4.8v0.7h-8.4v-0.7c2.5-0.2,3.6-1.6,4.1-5.2l2.3-15.2c-0.9-0.9-2.1-1.6-3.4-1.6v-0.7
			h8.4l6,15.3l6.2-15.3h7.9v0.7c-2.3,0.4-2.9,1.6-2.7,3.7L208.1,495.2z"/>
		<path fill="#FFFFFF" d="M213.5,487.7c0-1.6-0.6-2.3-2.3-2.5v-0.7l6.2-0.6h0.7v11c0,1.8,1.1,2.7,2.9,2.7c1.4,0,2.5-0.7,3.7-2.7
			v-7.5c0-1.3-0.7-2-2.3-2.1v-0.7l6.2-0.6h0.7V496c0,2,0.4,2.5,2.3,3v0.7l-7,0.6v-3.5l0,0c-1.6,2.5-3.6,3.6-5.9,3.6
			c-3,0-5-1.8-5-4.6v-8L213.5,487.7L213.5,487.7z"/>
		<path fill="#FFFFFF" d="M234.9,485.5h-2.7v-0.7c1.8-1.1,4.3-3.6,6.4-6.2h0.7v5.9h5v1.3h-5v8.6c0,2.5,0.7,3.9,2.7,3.9
			c0.7,0,1.4-0.4,2.1-1.3l0.6,0.4c-1.1,1.8-2.5,2.7-4.8,2.7c-2.9,0-5.2-1.4-5.2-4.8v-9.6H234.9z"/>
		<path fill="#FFFFFF" d="M247.2,487.7c0-1.6-0.6-2.3-2.3-2.5v-0.7l6.2-0.6h0.7v11c0,1.8,1.1,2.7,2.9,2.7c1.4,0,2.5-0.7,3.7-2.7
			v-7.5c0-1.3-0.7-2-2.3-2.1v-0.7l6.2-0.6h0.7V496c0,2,0.4,2.5,2.3,3v0.7l-7,0.6v-3.5l0,0c-1.6,2.5-3.6,3.6-5.9,3.6
			c-3,0-5-1.8-5-4.6v-8L247.2,487.7L247.2,487.7z"/>
		<path fill="#FFFFFF" d="M275.2,496.8c-1.1,1.1-2,1.6-2.9,1.6c-1.3,0-2.1-1.1-2.1-2.7c0-2,1.1-2.9,4.8-4.4v5.5L275.2,496.8
			L275.2,496.8z M279.8,489.5c0-4.1-3.4-5.5-6.6-5.5c-3.6,0-5.9,1.8-6.8,5.2h0.6c0.9-1.6,2.5-2.5,4.4-2.5c2.7,0,3.7,1.3,3.7,3.9
			c-3.7,1.4-9.6,1.6-9.6,5.7c0,2.1,2,3.9,4.4,3.9c1.8,0,3.2-0.4,4.8-1.8l0.4-0.4c0.7,1.4,1.8,2.1,3.6,2.1c2.1,0,3.6-1.1,3.6-2.9
			h-0.7c-0.2,0.9-0.6,1.4-1.3,1.4s-0.9-0.6-0.9-2v-7.3L279.8,489.5L279.8,489.5z"/>
		<path fill="#FFFFFF" d="M285.7,478.6c0-2.1-0.7-2.9-2.9-3v-0.7l6.6-0.4h0.7v21.2c0,2,0.4,2.5,2.7,3v0.7h-10v-0.7
			c2.1-0.4,2.9-1.1,2.9-3V478.6L285.7,478.6z"/>
		<path fill="#FFFFFF" d="M297.3,494.1c1.4,0,2.7,1.1,2.7,2.7c0,1.6-1.3,2.7-2.7,2.7s-2.7-1.1-2.7-2.7
			C294.7,495.2,295.9,494.1,297.3,494.1 M297.3,498.9c1.1,0,2-0.9,2-2.1c0-1.2-0.9-2.1-2-2.1c-1.1,0-2,0.9-2,2.1
			S296.2,498.9,297.3,498.9 M296.2,495.3h1.1c0.7,0,1.1,0.2,1.1,0.9c0,0.6-0.4,0.7-0.7,0.7l0.7,1.3h-0.5l-0.7-1.3h-0.4v1.3h-0.6
			V495.3L296.2,495.3z M296.8,496.6h0.6c0.4,0,0.6,0,0.6-0.4c0-0.4-0.4-0.4-0.6-0.4h-0.6V496.6z"/>
		<rect x="111.3" y="516.6" fill="#FFFFFF" width="2.3" height="12.6"/>
		<polygon fill="#FFFFFF" points="120.5,516.6 122.7,516.6 128.1,525.5 128.1,525.5 128.1,516.6 130.2,516.6 130.2,529.2 
			128.1,529.2 122.7,520.1 122.7,520.1 122.7,529.2 120.5,529.2 		"/>
		<path fill="#FFFFFF" d="M137.7,525.3c0.9,1.3,2.3,2,3.7,2c1.1,0,2.7-0.4,2.7-1.6c0-1.1-0.9-1.3-2.7-1.6l-1.4-0.4
			c-2-0.6-3.7-1.3-3.7-3.6c0-2.7,2.5-3.9,4.8-3.9c2.1,0,3.9,0.7,5.3,2.5l-2,1.6c-0.6-1.1-1.8-1.8-3.4-1.8c-1.4,0-2.3,0.6-2.3,1.4
			c0,1.1,1.3,1.3,2.7,1.6l1.6,0.4c2,0.4,3.6,1.3,3.6,3.6c0,3-2.9,4.1-5.5,4.1c-2.1,0-4.3-0.9-5.5-2.7L137.7,525.3z"/>
		<path fill="#FFFFFF" d="M163,525.3c0,2.5-2,4.3-5.2,4.3c-3,0-5.2-1.6-5.2-4.3v-8.7h2.5v8c0,1.6,0.7,2.5,2.7,2.5s2.7-0.9,2.7-2.5
			v-8.2h2.3v8.9H163L163,525.3z"/>
		<path fill="#FFFFFF" d="M169.8,516.6h5.3c2.7,0,4.3,1.6,4.3,3.7c0,2.9-2,3.6-2.5,3.7l2.9,5.2h-2.7l-2.5-4.6h-2.3v4.6h-2.3v-12.6
			H169.8L169.8,516.6z M172.1,522.4h2.7c1.3,0,2.1-0.7,2.1-2c0-1.1-0.7-2-2.5-2H172L172.1,522.4L172.1,522.4z"/>
		<path fill="#FFFFFF" d="M188.5,516.6h2.9l4.3,12.6h-2.5l-0.7-2.5h-4.8l-0.7,2.5h-2.5L188.5,516.6z M189.9,518.9L189.9,518.9
			l-1.8,5.7h3.6L189.9,518.9z"/>
		<polygon fill="#FFFFFF" points="200.8,516.6 203,516.6 208.3,525.5 208.3,525.5 208.3,516.6 210.4,516.6 210.4,529.2 208.3,529.2 
			203,520.1 203,520.1 203,529.2 200.8,529.2 		"/>
		<path fill="#FFFFFF" d="M225.4,520.7c-0.2-1.4-1.4-2.3-2.9-2.3c-2.5,0-3.6,2.3-3.6,4.4s1.1,4.4,3.6,4.4c1.6,0,2.7-1.1,3-2.5
			l2.1,1.1c-1.1,2.5-2.7,3.7-5.2,3.7c-4.1,0-6-3-6-6.6c0-3.6,2.3-6.6,6-6.6c2.5,0,4.4,1.3,5,3.9L225.4,520.7z"/>
		<polygon fill="#FFFFFF" points="232.9,516.6 242,516.6 242,518.7 235.4,518.7 235.4,521.6 241.5,521.6 241.5,523.7 235.4,523.7 
			235.4,526.9 242.4,526.9 242.4,529.2 232.9,529.2 		"/>
		<path fill="#FFFFFF" d="M35.3,483.7c0.4,0.2,0.4,0.2,0.6,0.4l5-5.5c-1.6-1.8-3.2-2.9-5.3-3.7c-0.9-0.4-1.1-0.6-2-0.7l1.3,9.5
			C34.6,483.6,35.1,483.7,35.3,483.7"/>
		<path fill="#FFFFFF" d="M18.7,475l8.9,8.6c0,0,0.4-0.2,0.6-0.2c0.4-0.2,0.6-0.2,0.6-0.2l0.9-9.8c-0.9-0.2-1.4-0.2-2.3-0.2
			c-2.1,0-5.2,0.4-7.3,1.3C19.1,474.7,18.7,475,18.7,475"/>
		<path fill="#FFFFFF" d="M13.6,513.9c0-3.7-0.7-8.9-1.4-11.2c-0.4-1.4-3.4-10.5-3.6-10.9c0-0.2-0.2-2.7-0.2-4.8
			c-1.4,3.9-2.1,8.6-2.1,13.6l0,0c0,8,2.1,15.2,6,20.3C13.6,518,13.6,515.7,13.6,513.9C13.6,514.1,13.6,514.1,13.6,513.9"/>
		<path fill="#FFFFFF" d="M24.2,514.8c3.4-3,5.5-3.9,9.1-5.9c-5.3,1.1-11.6,4.8-15,9.1c-2.3,2.9-3.7,5.3-3.7,5.5
			c0.6,0.4,1.1,0.7,1.6,0.9C18.7,519.8,22.1,516.6,24.2,514.8"/>
		<path fill="#FFFFFF" d="M16.2,476.3c-0.4,0.2-0.6,0.4-0.6,0.6c1.6,4.1,3.7,9.3,4.3,10.9c0,0.2,0.2,0.4,0.2,0.6l3.6,1.8l0,0
			c0,0,0-0.6,0-0.7s0.2-0.7,0.2-0.7l-7-12.9C16.6,476.1,16.6,476.1,16.2,476.3"/>
		<path fill="#FFFFFF" d="M25.3,516.2c-3.7,3.6-6.2,7.9-7,8.9c0.4,0.2,0.7,0.2,1.3,0.4c8-14.3,20.7-17.5,28-17.8
			c0.2-0.4,0,0.2,0-0.6C42.6,506.9,33.2,508.7,25.3,516.2"/>
		<path fill="#FFFFFF" d="M41.2,488L41.2,488l4.4-1.8c-0.6-1.3-1.3-2.7-2-3.9l-2.9,5.3C41,487.9,41.2,488,41.2,488"/>
		<path fill="#FFFFFF" d="M43.3,495c-0.2,0.4-0.6,1.1-0.6,1.1l0.4,3.4l3.6,5.9l1.1,0.2c0.2-1.6,0.2-3,0.2-4.6c0-3.6-0.2-6.6-0.9-9.8
			l-3.6,3C43.5,493.9,43.3,494.6,43.3,495"/>
		<path fill="#FFFFFF" d="M52.3,485.2l-8.9,7c-0.2-1.1-0.6-2.1-1.1-2.9L52.3,485.2L52.3,485.2L52.3,485.2"/>
		<path fill="#FFFFFF" d="M18.5,476.6L18.5,476.6C18.5,476.4,18.5,476.6,18.5,476.6l7.7,7.7c-0.7,0.4-1.4,1.4-1.8,2.3L18.5,476.6z"
			/>
		<path fill="#FFFFFF" d="M23,491.2c0,0-0.2,0.4-0.2,0.9c0,0.6,0.2,1.1,0.2,1.1l-2.3-1.6c0-0.6,0-0.7,0-1.1c0,0,0-0.6,0-0.7
			L23,491.2z"/>
		<path fill="#FFFFFF" d="M19.3,508.5c-0.4,2.7-0.9,5.2-2,6.8c-0.7,1.1-2.5,3.4-3,4.1c0.7-1.4,1.3-4.6,1.3-7.3
			c0-1.6-0.6-5.3-0.2-7.9c0.6-2.7,1.3-4.1,3-5.7c0.9-0.9,2.7-1.8,5.3-1.3l2.1,3.9c-1.1-0.2-2.7,0-3.6,0.7
			C20.3,503.7,19.6,505.7,19.3,508.5"/>
		<path fill="#FFFFFF" d="M19.6,513.9c0.6-1.1,1.3-4.4,1.4-5.5c0.2-1.4,0.6-3.4,2.1-4.8c0.9-0.7,2.1-0.7,2.7-0.6l2.3,4.8
			c0.2,0.6,0.9,0.7,1.4,0.7C27.3,509.2,21.8,512,19.6,513.9"/>
		<path fill="#FFFFFF" d="M39.8,498.4c-0.4,0.6-0.2,1.3,0,1.6c0.2,0.6,1.4,2.9,1.4,2.9c0.4,1.1,0.7,1.6,1.1,2.3c0.7,0,1.4,0,2.1,0
			c-0.9-1.8-2.7-5.5-2.7-5.5l-0.2-2.9C41,497.1,40.3,497.8,39.8,498.4"/>
		<path fill="#FFFFFF" d="M31.4,468.6l-1.3,14.3c0.9-0.2,2.7,0.2,3,0.4L31.4,468.6L31.4,468.6L31.4,468.6"/>
		<path fill="#FFFFFF" d="M45.9,475.4l-8.7,9.5c0.6,0.4,2.1,1.4,2.7,2.1L45.9,475.4C45.9,475.4,46,475.4,45.9,475.4L45.9,475.4"/>
		<path fill="#FFFFFF" d="M41.2,491c-0.2-0.6-1.4-2.1-3.9-3.9c-1.8-1.4-4.6-2.9-6.8-2.9c-3.7,0-5.3,2.7-5.5,3.9
			c-0.2,0.9-0.2,1.8,0,2.1c-0.6,0.6-0.9,0.9-0.9,1.4c0,0.4,0,1.1,0.4,1.4c0-0.6,0.4-1.3,0.7-1.6c0.4-0.6,0.9-0.7,1.4-0.9v1.1
			c-0.6,0.4-1.1,0.9-1.1,1.3v1.8l1.3-0.7l0.2,0.6l-0.6,3l0.7-0.2l1.3,0.6l-1.3,1.1v0.4c0,0,0.2-0.2,0.7-0.2c0.6,0,1.6,0.6,1.6,0.6
			v0.2h-0.6h-1.8c0,0.4,0.2,0.6,0.4,0.7c0.4,0,0.6-0.2,0.7-0.2c0.2,0,0.6,0.2,0.9,0.2l-0.4,0.6c0,0-0.2,0.2-0.6,0
			c-0.2,0-0.4,0.2-0.4,0.6c0,0.2,0.2,0.9,0.2,0.9c0.2,0.9,1.3,0.7,1.3,0.7c0.6,0,2.7-0.7,2.7-0.7l-2,2.7l0.9,2.9
			c1.3-0.6,5.2-2,9.3-2.5c-0.6-0.7-0.6-1.1-1.1-2.1l-2.1-5l0.4-0.7c0.6,0.2,1.3-0.2,1.6-0.6c0.6-0.4,1.1-1.1,1.3-1.4
			c-0.4-0.2-0.6-0.2-0.9,0c-0.2,0.2-0.6,0.6-0.9,0.4c-0.4-0.2-0.2-0.6-0.2-0.9s-0.4-0.4-0.7-0.2c-0.4,0.4-1.1,0.2-1.6-0.4
			c-0.6-0.6-2.7-2.3-3.6-2.9c-1.3-0.7-2.7-0.9-3.9-0.7c-0.7,0.2-1.1,0.4-1.4,0.4l-0.9-1.3h0.2c0.4,0.2,0.6,0.4,0.9,0.2
			c0.4-0.2,1.6-0.4,2.7-0.4c1.8,0,3.7,0.6,4.6,1.1c0,1.1,2.3,2.5,3.2,2.7c0.9,0.2,1.4-0.2,2-0.4l-2.1-2l1.1-1.4c0,0,1.8,1.8,2.1,2.1
			C41.4,491.6,41.4,491.2,41.2,491 M28.2,493.2c0,0,0.9-0.6,1.8-0.7c1.3-0.4,2.7,0.6,3.7,1.3l-0.2,0.4l-1.4,0.4
			c-0.4-0.2-0.9-0.4-1.4-0.4s-0.9,0.2-0.9,0.2l0.4,0.6l-0.7,0.2c-0.4-0.4-0.7-0.9-1.3-0.9C28.2,494.1,28.2,493.2,28.2,493.2z
			 M25.9,489.8c-0.4-1.3,0.7-2.5,1.1-3l0.7,1.6C27.3,488.7,26.4,489.5,25.9,489.8 M32.7,488.4c-0.7-0.6-3-0.4-3.9-0.2l-0.7-2
			c0.6-0.4,1.4-0.7,2.3-0.7c0.9,0,2,0.2,2.5,0.6L32.7,488.4z M37.1,490.3c-0.9-0.6-2.9-1.4-3.4-1.6l0.9-2.1c0.7,0.4,3.2,2,3.6,2.3
			L37.1,490.3z"/>
	</g>
</g>
<g id="Layer_2" display="none">
	<path display="inline" d="M11.6,471.6c0-0.2-0.2-0.6-0.4-0.7c-0.4-0.2-0.7-0.4-1.1-0.6c-0.2,0-0.6-0.6-0.9-0.6
		c-0.9,0-2-0.2-2.3-0.6c-0.4,0.9-0.2,1.3,0.2,1.6c0.4,0.4,1.1,0.6,1.8,0.6l0.2,4.3c0.2,0.4,0.9,0.6,1.4,0.6v0.2L9.8,477
		c0,0.6,0.7,14.3,0.9,14.6c0.2,0.2,3.6,10.5,3.6,11c0.2-1.3,1.3-3.7,2.5-5c1.3-1.3,2.7-1.8,3.6-1.6c-0.2-0.2-1.3-2.7-1.3-2.9
		c0-0.2-0.4-3.2-0.6-3.4C18.4,489.6,11.6,471.8,11.6,471.6"/>
	<path display="inline" d="M7.2,468.2c2,0,2.9,0.9,3.4,1.3c0-0.7,0-1.3-0.7-1.8c-0.6-0.4-1.4-0.7-2.7-0.7c-0.9,0-1.8,0.2-2.3,0.7
		c-0.7,0.6-0.7,0.9-0.7,1.6C4.3,468.8,5.5,468.2,7.2,468.2"/>
	<path display="inline" d="M3.2,458.1c0,0.7,0.2,1.4,0.6,2c0.2,0.2,0.7,0.7,1.1,0.7c0.6,0,0.9-0.9,2.1-0.9c0.7,0,1.3,1.1,1.8,1.1
		c0.6,0,0.7-0.6,1.3-0.6c0.2,0,0.4,0.2,0.7,0.6c0.2-0.4,0.4-0.7,1.1-1.1c0.7-0.7,3.4-1.3,4.4-2.1c0.6-0.6,0.7-1.4,0.6-2
		c-0.6,0.4-1.6,1.1-2.9,1.1c-0.6,0-1.8-0.2-2.3-0.4c0.2-0.6,0.4-0.9,0.2-1.4c-0.6,0.4-2.1,0.4-2.7,0.4c-0.6,0-1.8-0.2-2.9-0.2
		C4.3,455.4,3.2,456.8,3.2,458.1"/>
	<path display="inline" d="M4.4,473.2c-0.4,0-0.9,0.6-1.3,1.1c0,0.4,0.4,1.1,0.7,1.3c0-0.4,0.6-1.1,0.7-1.1c0.4-0.2,0.6-0.4,0.7-0.6
		c0.2-0.2,0.4-0.2,0.4-0.6c0-0.2,0-0.4-0.2-0.7c0.2,0,0.7,0,0.7-0.2c0.2-0.2,0.2-0.6,0.2-0.7s0.2-0.2-0.2-0.2c-0.2,0-1.1,0-1.4,0
		c0,0,0.6-0.4,0.7-0.4c0.2,0,0.2-0.2,0.2-0.4c0-0.2,0-0.6,0-0.9c-0.7,0-2.3,0.7-2.7,1.1l0.4,0.7H2.9c0,0.4,0,1.1,0.2,1.3
		C3.4,473.2,4.1,473,4.4,473.2"/>
	<path display="inline" d="M9.5,479.8c0-0.4-0.2-0.6-0.6-0.7c0.2-0.7,0.2-1.4,0.2-2c0-0.6-0.2-1.1-0.6-1.6c-0.4-0.6-1.1-1.3-1.4-1.6
		c0,0.4-0.2,0.6-0.4,0.6c-0.4,0-1.3,0.9-1.3,0.9l-0.2,3.6l0,0l0,0c-0.4,0.2-0.9,0.6-0.7,1.3c0,0.6,0.6,1.1,1.4,1.3
		c0.2,0,0.2,0,0.4,0v-0.2c0,0-0.2,0-0.4,0c-0.9-0.2-1.1-0.9-0.6-1.1c0.5-0.2,1.1-0.4,1.6-0.4c0.7,0,1.6,0.4,2,0.7
		C9.3,480.2,9.5,480,9.5,479.8"/>
	<path display="inline" d="M14.1,466.8c0-0.6-0.7-1.8-0.7-2.1c0-0.4,0-0.7,0.2-1.1c-0.4,0-1.3,0.6-1.8,0.2c-0.6-0.6-0.2-1.4-0.7-1.6
		c-0.7-0.2-1.6,0.6-2.1,0.4c-0.5-0.2-1.1-0.9-1.8-0.9s-0.9,0.7-1.8,0.9c-0.6,0.2-1.4-0.2-2-0.2c-0.4,0-0.7,0.4-0.9,0.7
		c0,0.4-0.2,0.6-0.7,0.7c-0.4,0.2-1.1-0.2-1.3-0.2c0.2,0.2,0.4,0.6,0.4,0.9c-0.3,1.1-1,1.6-1,3.4c0,2,2,2.9,2,2.9l0.2-0.2
		c-0.6-0.4-1.3-1.3-1.4-2.5c0-0.2,0-0.2,0-0.4c0.2-0.6,0.6-1.1,1.1-1.6l0,0c1.1-1.1,3-1.6,5.5-1.6c4.4,0,6.6,2.1,6.6,3.9
		C14.1,467.9,14.1,467.4,14.1,466.8"/>
</g>
</svg>
