<svg xmlns="http://www.w3.org/2000/svg" width="101.094" height="7.812" viewBox="0 0 101.094 7.812">
  <metadata><?xpacket begin="﻿" id="W5M0MpCehiHzreSzNTczkc9d"?>
<x:xmpmeta xmlns:x="adobe:ns:meta/" x:xmptk="Adobe XMP Core 5.6-c140 79.160451, 2017/05/06-01:08:21        ">
   <rdf:RDF xmlns:rdf="http://www.w3.org/1999/02/22-rdf-syntax-ns#">
      <rdf:Description rdf:about=""/>
   </rdf:RDF>
</x:xmpmeta>
                                                                                                    
                                                                                                    
                                                                                                    
                                                                                                    
                                                                                                    
                                                                                                    
                                                                                                    
                                                                                                    
                                                                                                    
                                                                                                    
                                                                                                    
                                                                                                    
                                                                                                    
                                                                                                    
                                                                                                    
                                                                                                    
                                                                                                    
                                                                                                    
                                                                                                    
                                                                                                    
                           
<?xpacket end="w"?></metadata>
<defs>
    <style>
      .cls-1 {
        fill-rule: evenodd;
      }
    </style>
  </defs>
  <path id="Please_Drink_Responsibly" data-name="Please Drink Responsibly" class="cls-1" d="M24.232,236.43a0.881,0.881,0,0,1-.238.684,0.961,0.961,0,0,1-.667.215H22.2v-1.766h1.129a1.009,1.009,0,0,1,.667.2,0.826,0.826,0,0,1,.238.667h0Zm1.245-.008a1.814,1.814,0,0,0-.529-1.437,2.079,2.079,0,0,0-1.42-.463H20.952v6H22.2v-2.156h1.249a2.287,2.287,0,0,0,1.5-.44,1.86,1.86,0,0,0,.527-1.5h0Zm2.1-1.9h-1.16v6h1.16v-6Zm2.979,2.4a1.018,1.018,0,0,1,.688.239,0.969,0.969,0,0,1,.309.7h-2a1.2,1.2,0,0,1,.309-0.686,0.92,0.92,0,0,1,.692-0.254h0Zm0-.956a2.138,2.138,0,0,0-1.586.615,2.4,2.4,0,0,0-.611,1.768,2.15,2.15,0,0,0,.677,1.775,2.417,2.417,0,0,0,1.562.546,2.156,2.156,0,0,0,1.669-.647,1.449,1.449,0,0,0,.43-0.8H31.507a0.962,0.962,0,0,1-.239.305,0.98,0.98,0,0,1-.644.2,1.18,1.18,0,0,1-.639-0.167,1.064,1.064,0,0,1-.464-0.936h3.23a5.672,5.672,0,0,0-.038-0.88,2.181,2.181,0,0,0-.353-0.917,1.8,1.8,0,0,0-.766-0.656,2.518,2.518,0,0,0-1.043-.208h0Zm5.253,2.828a0.932,0.932,0,0,1-.333.8,1.215,1.215,0,0,1-.7.219,0.637,0.637,0,0,1-.407-0.132,0.514,0.514,0,0,1-.167-0.429,0.528,0.528,0,0,1,.274-0.492A1.706,1.706,0,0,1,35,238.6l0.264-.049a1.914,1.914,0,0,0,.311-0.079,1.334,1.334,0,0,0,.225-0.112v0.431ZM34.7,237.87a2.836,2.836,0,0,0-1.025.285,1.263,1.263,0,0,0-.635,1.184,1.222,1.222,0,0,0,.4.975,1.47,1.47,0,0,0,1,.344,1.68,1.68,0,0,0,.851-0.216A2.386,2.386,0,0,0,35.841,240c0.008,0.1.019,0.19,0.032,0.269a1.273,1.273,0,0,0,.073.252h1.261v-0.171a0.414,0.414,0,0,1-.171-0.134,0.642,0.642,0,0,1-.069-0.309q-0.008-.3-0.008-0.513v-2.034a1.109,1.109,0,0,0-.568-1.091,2.835,2.835,0,0,0-1.3-.289,1.908,1.908,0,0,0-1.586.586,1.7,1.7,0,0,0-.327.956H34.3a0.838,0.838,0,0,1,.165-0.406,0.738,0.738,0,0,1,.59-0.2,1.214,1.214,0,0,1,.563.1,0.39,0.39,0,0,1,.192.376,0.35,0.35,0,0,1-.25.33,1.859,1.859,0,0,1-.463.1Zm3,1.233a1.434,1.434,0,0,0,.5,1.125,2.286,2.286,0,0,0,1.547.442,2.312,2.312,0,0,0,1.519-.417,1.347,1.347,0,0,0,.491-1.076,1.12,1.12,0,0,0-.342-0.835,2.233,2.233,0,0,0-1.039-.492,7.505,7.505,0,0,1-1.211-.321,0.3,0.3,0,0,1-.171-0.289,0.34,0.34,0,0,1,.161-0.277,0.937,0.937,0,0,1,.541-0.118,0.8,0.8,0,0,1,.653.236,0.686,0.686,0,0,1,.127.354h1.16a1.42,1.42,0,0,0-.6-1.145,2.5,2.5,0,0,0-1.356-.332,1.945,1.945,0,0,0-1.36.441,1.384,1.384,0,0,0-.483,1.056,1.015,1.015,0,0,0,.309.8,2.525,2.525,0,0,0,1.065.468,6.6,6.6,0,0,1,1.213.35,0.341,0.341,0,0,1-.039.6,1.224,1.224,0,0,1-.546.1,1.084,1.084,0,0,1-.8-0.232,0.776,0.776,0,0,1-.159-0.44H37.7Zm6.759-2.181a1.018,1.018,0,0,1,.688.239,0.969,0.969,0,0,1,.309.7h-2a1.2,1.2,0,0,1,.309-0.686,0.92,0.92,0,0,1,.692-0.254h0Zm0-.956a2.138,2.138,0,0,0-1.586.615,2.4,2.4,0,0,0-.611,1.768,2.15,2.15,0,0,0,.677,1.775,2.417,2.417,0,0,0,1.562.546,2.156,2.156,0,0,0,1.669-.647,1.449,1.449,0,0,0,.43-0.8H45.411a0.961,0.961,0,0,1-.239.305,0.98,0.98,0,0,1-.644.2,1.18,1.18,0,0,1-.639-0.167,1.064,1.064,0,0,1-.464-0.936h3.23a5.672,5.672,0,0,0-.038-0.88,2.182,2.182,0,0,0-.353-0.917,1.806,1.806,0,0,0-.766-0.656,2.518,2.518,0,0,0-1.043-.208h0Zm7.57-.4a1.214,1.214,0,0,1,1.143.491,2.809,2.809,0,0,1,.287,1.405,3.081,3.081,0,0,1-.192,1.144,1.25,1.25,0,0,1-1.239.875H50.868v-3.915h1.157Zm0.212-1.041H49.651v6h2.586a2.169,2.169,0,0,0,2.012-1.119,3.981,3.981,0,0,0,.48-2.026,4.638,4.638,0,0,0-.114-0.993,2.665,2.665,0,0,0-.428-0.968,1.98,1.98,0,0,0-1.022-.761,3.123,3.123,0,0,0-.928-0.13h0Zm5.747,1.456a1.273,1.273,0,0,0-.846.273,2.452,2.452,0,0,0-.468.606v-0.773H55.563v4.435h1.168V238.4a1.773,1.773,0,0,1,.134-0.789,0.962,0.962,0,0,1,.94-0.456c0.035,0,.081,0,0.138,0s0.122,0.008.2,0.017v-1.189q-0.077,0-.1-0.006l-0.055,0h0Zm2.026-1.493H58.835v1.07h1.176v-1.07Zm-1.176,6.034h1.176v-4.435H58.835v4.435Zm4.755-4.541a1.46,1.46,0,0,0-.9.269,1.952,1.952,0,0,0-.421.492v-0.647H61.142v4.427H62.3v-2.4a1.736,1.736,0,0,1,.113-0.676,0.8,0.8,0,0,1,.8-0.5,0.654,0.654,0,0,1,.646.341,1.242,1.242,0,0,1,.093.538v2.7h1.188v-2.986a1.469,1.469,0,0,0-.436-1.195,1.7,1.7,0,0,0-1.12-.36h0Zm2.622,4.541h1.139v-1.4l0.48-.5,1.075,1.9h1.411l-1.651-2.762,1.59-1.653H68.814l-1.463,1.673v-3.235H66.212v5.977Zm9.692-4.956a1.249,1.249,0,0,1,.58.106,0.757,0.757,0,0,1,.344.732,0.675,0.675,0,0,1-.355.676,1.437,1.437,0,0,1-.6.1H74.521v-1.612H75.9Zm0.26-1.041H73.3v6h1.225v-2.352h1.224a1.008,1.008,0,0,1,.714.192,1.131,1.131,0,0,1,.2.765l0.008,0.557a2.961,2.961,0,0,0,.053.517q0.024,0.121.081,0.321h1.383v-0.15a0.5,0.5,0,0,1-.231-0.342,3.025,3.025,0,0,1-.033-0.557v-0.4a1.974,1.974,0,0,0-.173-0.938,1.118,1.118,0,0,0-.588-0.474,1.207,1.207,0,0,0,.712-0.584,1.8,1.8,0,0,0,.216-0.84,1.681,1.681,0,0,0-.111-0.631,1.862,1.862,0,0,0-.3-0.5,1.485,1.485,0,0,0-.561-0.419,2.611,2.611,0,0,0-.946-0.154h0Zm4.875,2.4a1.018,1.018,0,0,1,.688.239,0.969,0.969,0,0,1,.309.7h-2a1.2,1.2,0,0,1,.309-0.686,0.92,0.92,0,0,1,.692-0.254h0Zm0-.956a2.138,2.138,0,0,0-1.586.615,2.4,2.4,0,0,0-.611,1.768,2.15,2.15,0,0,0,.677,1.775,2.417,2.417,0,0,0,1.562.546,2.156,2.156,0,0,0,1.669-.647,1.449,1.449,0,0,0,.43-0.8H82a0.964,0.964,0,0,1-.239.305,0.98,0.98,0,0,1-.644.2,1.18,1.18,0,0,1-.639-0.167,1.064,1.064,0,0,1-.464-0.936h3.23a5.659,5.659,0,0,0-.038-0.88,2.182,2.182,0,0,0-.353-0.917,1.806,1.806,0,0,0-.767-0.656,2.518,2.518,0,0,0-1.043-.208h0ZM83.55,239.1a1.434,1.434,0,0,0,.5,1.125,2.286,2.286,0,0,0,1.547.442,2.312,2.312,0,0,0,1.519-.417,1.347,1.347,0,0,0,.491-1.076,1.12,1.12,0,0,0-.342-0.835,2.233,2.233,0,0,0-1.039-.492,7.505,7.505,0,0,1-1.211-.321,0.3,0.3,0,0,1-.171-0.289A0.34,0.34,0,0,1,85,236.963a0.937,0.937,0,0,1,.541-0.118,0.8,0.8,0,0,1,.653.236,0.686,0.686,0,0,1,.126.354h1.16a1.42,1.42,0,0,0-.6-1.145,2.5,2.5,0,0,0-1.356-.332,1.945,1.945,0,0,0-1.36.441,1.384,1.384,0,0,0-.483,1.056,1.015,1.015,0,0,0,.309.8,2.525,2.525,0,0,0,1.065.468,6.592,6.592,0,0,1,1.213.35,0.341,0.341,0,0,1-.039.6,1.223,1.223,0,0,1-.546.1,1.084,1.084,0,0,1-.8-0.232,0.776,0.776,0,0,1-.159-0.44H83.55Zm7.987-.8a1.734,1.734,0,0,1-.257,1,0.85,0.85,0,0,1-.746.374,0.953,0.953,0,0,1-.584-0.183,1.28,1.28,0,0,1-.415-1.087,2.244,2.244,0,0,1,.123-0.8,0.872,0.872,0,0,1,.876-0.6,0.825,0.825,0,0,1,.767.394,1.734,1.734,0,0,1,.236.908h0Zm-0.671-2.316a1.487,1.487,0,0,0-.925.3,1.891,1.891,0,0,0-.4.456v-0.655H88.429v6.181h1.147v-2.311a1.716,1.716,0,0,0,.377.427,1.434,1.434,0,0,0,.885.264,1.72,1.72,0,0,0,1.366-.614,2.661,2.661,0,0,0,.53-1.786,2.366,2.366,0,0,0-.543-1.685,1.756,1.756,0,0,0-1.325-.574h0Zm4.675,3.711a0.925,0.925,0,0,1-.783-0.361,2.058,2.058,0,0,1,0-2.054,1.03,1.03,0,0,1,1.565,0,2.071,2.071,0,0,1,0,2.054,0.92,0.92,0,0,1-.781.361h0Zm2.27-1.389a2.584,2.584,0,0,0-.561-1.663,2.419,2.419,0,0,0-3.41,0,2.752,2.752,0,0,0,0,3.332,2.444,2.444,0,0,0,3.41,0,2.568,2.568,0,0,0,.561-1.669h0Zm3.286-2.33a1.462,1.462,0,0,0-.9.269,1.96,1.96,0,0,0-.421.492v-0.647H98.65v4.427h1.16v-2.4a1.736,1.736,0,0,1,.113-0.676,0.8,0.8,0,0,1,.8-0.5,0.654,0.654,0,0,1,.647.341,1.241,1.241,0,0,1,.093.538v2.7h1.188v-2.986a1.467,1.467,0,0,0-.436-1.195,1.7,1.7,0,0,0-1.12-.36h0Zm2.357,3.125a1.434,1.434,0,0,0,.5,1.125,2.284,2.284,0,0,0,1.547.442,2.313,2.313,0,0,0,1.519-.417,1.348,1.348,0,0,0,.491-1.076,1.12,1.12,0,0,0-.342-0.835,2.23,2.23,0,0,0-1.039-.492,7.476,7.476,0,0,1-1.21-.321,0.3,0.3,0,0,1-.172-0.289,0.341,0.341,0,0,1,.161-0.277,0.94,0.94,0,0,1,.541-0.118,0.8,0.8,0,0,1,.653.236,0.683,0.683,0,0,1,.126.354h1.16a1.421,1.421,0,0,0-.6-1.145,2.5,2.5,0,0,0-1.356-.332,1.944,1.944,0,0,0-1.36.441,1.384,1.384,0,0,0-.483,1.056,1.016,1.016,0,0,0,.309.8,2.523,2.523,0,0,0,1.065.468,6.57,6.57,0,0,1,1.213.35,0.341,0.341,0,0,1-.039.6,1.225,1.225,0,0,1-.546.1,1.082,1.082,0,0,1-.8-0.232,0.777,0.777,0,0,1-.16-0.44h-1.176Zm6.1-4.618h-1.176v1.07h1.176v-1.07Zm-1.176,6.034h1.176v-4.435h-1.176v4.435Zm4.708-4.533a1.452,1.452,0,0,0-.8.2,1.693,1.693,0,0,0-.487.472V234.53h-1.16v5.989h1.144v-0.557a1.759,1.759,0,0,0,.433.456,1.784,1.784,0,0,0,2.258-.46,2.852,2.852,0,0,0,.491-1.713,2.549,2.549,0,0,0-.5-1.628,1.659,1.659,0,0,0-1.378-.631h0Zm-0.293,3.7a0.873,0.873,0,0,1-.775-0.374,1.641,1.641,0,0,1-.255-0.944,2.143,2.143,0,0,1,.123-0.79,0.87,0.87,0,0,1,.874-0.573,0.857,0.857,0,0,1,.862.586,2.128,2.128,0,0,1,.123.781,1.649,1.649,0,0,1-.25.952,0.806,0.806,0,0,1-.7.362h0Zm4.158-5.159H115.8v6h1.159v-6Zm1.306,7.775c0.125,0.009.219,0.013,0.281,0.015l0.249,0a1.324,1.324,0,0,0,1.026-.3,6.121,6.121,0,0,0,.7-1.565l1.52-4.362H120.8l-0.915,3.272-0.968-3.272h-1.29l1.629,4.631a0.7,0.7,0,0,1-.075.268,0.619,0.619,0,0,1-.189.289,0.593,0.593,0,0,1-.261.094,1.919,1.919,0,0,1-.325.012l-0.147-.008V242.3Z" transform="translate(-20.938 -234.5)"/>
</svg>
