<?xml version="1.0" encoding="utf-8"?>
<!-- Generator: Adobe Illustrator 18.1.1, SVG Export Plug-In . SVG Version: 6.00 Build 0)  -->
<svg version="1.1" id="Layer_1" xmlns="http://www.w3.org/2000/svg" xmlns:xlink="http://www.w3.org/1999/xlink" x="0px" y="0px"
	 width="14px" height="14px" viewBox="-142 119 14 14" enable-background="new -142 119 14 14" xml:space="preserve">
<path d="M-128,124.2000122h-5.1999969l2-2c-1-1-2.3000031-1.5-3.6999969-1.5s-2.8000031,0.5999985-3.8000031,1.5999985
	s-1.5,2.3000031-1.5,3.6999969s0.5,2.7000046,1.5,3.7000046s2.3000031,1.5,3.6999969,1.5s2.6999969-0.5,3.6999969-1.5
	c0.1000061-0.1000061,0.1999969-0.1999969,0.1999969-0.3000031l1.3000031,1.1999969C-131,132.1000061-132.9000092,133-135,133
	c-3.8999939,0-7-3.1000061-7-7c0-3.9000015,3.1000061-7,7-7c1.8999939,0,3.6999969,0.8000031,4.8999939,2.0999985L-128,119
	V124.2000122z"/>
</svg>
