<?xml version="1.0" encoding="utf-8"?>
<!-- Generator: Adobe Illustrator 18.1.1, SVG Export Plug-In . SVG Version: 6.00 Build 0)  -->
<svg version="1.1" id="Layer_1" xmlns="http://www.w3.org/2000/svg" xmlns:xlink="http://www.w3.org/1999/xlink" x="0px" y="0px"
	 viewBox="0 0 72 60" enable-background="new 0 0 72 60" xml:space="preserve">
<path d="M6.185,26.254c0.308,0,0.514,0.088,0.617,0.265c0.103,0.177,0.155,0.43,0.155,0.759c0,0.239-0.035,0.445-0.103,0.617
	c-0.126,0.315-0.349,0.472-0.669,0.472H5.56v-2.114H6.185z M6.299,25.691H4.903v3.239h1.396c0.49,0,0.852-0.201,1.086-0.604
	c0.173-0.299,0.26-0.664,0.26-1.094c0-0.17-0.021-0.349-0.062-0.536c-0.041-0.188-0.118-0.362-0.231-0.523
	c-0.141-0.199-0.325-0.336-0.552-0.411C6.667,25.718,6.5,25.694,6.299,25.691L6.299,25.691z"/>
<path d="M9.403,26.478c-0.188,0-0.34,0.049-0.457,0.147c-0.072,0.059-0.156,0.168-0.253,0.327v-0.417H8.095v2.395h0.631v-1.145
	c0-0.192,0.024-0.334,0.073-0.426c0.086-0.164,0.256-0.246,0.508-0.246c0.019,0,0.044,0.001,0.075,0.002
	c0.031,0.001,0.066,0.004,0.106,0.009v-0.642c-0.028-0.001-0.046-0.003-0.054-0.003C9.424,26.478,9.415,26.478,9.403,26.478
	L9.403,26.478z"/>
<path d="M10.497,25.671H9.862v0.578h0.635V25.671z M9.862,28.93h0.635v-2.395H9.862V28.93z"/>
<path d="M12.43,26.478c-0.197,0-0.36,0.048-0.488,0.145c-0.071,0.054-0.147,0.143-0.227,0.266v-0.349h-0.607v2.391h0.626v-1.296
	c0-0.148,0.02-0.27,0.061-0.365c0.079-0.18,0.223-0.27,0.434-0.27c0.172,0,0.288,0.062,0.349,0.185
	c0.033,0.067,0.05,0.164,0.05,0.29v1.457h0.642v-1.613c0-0.3-0.079-0.515-0.235-0.645C12.878,26.543,12.676,26.478,12.43,26.478
	L12.43,26.478z"/>
<path d="M13.846,28.93h0.615v-0.754l0.259-0.27l0.58,1.023h0.762l-0.892-1.492l0.858-0.892h-0.779l-0.79,0.903v-1.747h-0.615V28.93z
	"/>
<path d="M18.68,28.486c-0.183,0-0.324-0.065-0.423-0.195c-0.099-0.13-0.148-0.315-0.148-0.555s0.05-0.424,0.148-0.554
	c0.099-0.129,0.24-0.194,0.423-0.194s0.324,0.065,0.422,0.194c0.098,0.129,0.147,0.314,0.147,0.554s-0.049,0.425-0.147,0.555
	C19.003,28.421,18.863,28.486,18.68,28.486L18.68,28.486z M19.906,27.736c0-0.345-0.101-0.645-0.303-0.898
	c-0.202-0.253-0.509-0.38-0.921-0.38c-0.412,0-0.719,0.127-0.921,0.38c-0.202,0.253-0.303,0.552-0.303,0.898
	c0,0.351,0.101,0.652,0.303,0.901c0.202,0.25,0.509,0.374,0.921,0.374c0.412,0,0.718-0.125,0.921-0.374
	C19.805,28.388,19.906,28.087,19.906,27.736L19.906,27.736z"/>
<path d="M21.68,26.478c-0.197,0-0.36,0.048-0.488,0.145c-0.072,0.054-0.147,0.143-0.228,0.266v-0.349h-0.607v2.391h0.626v-1.296
	c0-0.148,0.02-0.27,0.061-0.365c0.078-0.18,0.223-0.27,0.434-0.27c0.171,0,0.288,0.062,0.349,0.185
	c0.033,0.067,0.05,0.164,0.05,0.29v1.457h0.642v-1.613c0-0.3-0.078-0.515-0.235-0.645C22.128,26.543,21.927,26.478,21.68,26.478
	L21.68,26.478z"/>
<path d="M24.441,27.003v1.474c0,0.149,0.035,0.26,0.106,0.332c0.108,0.113,0.311,0.164,0.606,0.154l0.297-0.011v-0.468
	c-0.021,0.002-0.041,0.003-0.063,0.003c-0.021,0.001-0.041,0.001-0.061,0.001c-0.127,0-0.204-0.012-0.229-0.036
	c-0.025-0.024-0.037-0.085-0.037-0.184v-1.266h0.389v-0.446H25.06v-0.668h-0.62v0.668h-0.334v0.446H24.441z"/>
<path d="M27.171,26.471c-0.131,0-0.256,0.027-0.375,0.082c-0.119,0.055-0.223,0.152-0.314,0.291v-1.143h-0.626v3.228h0.626v-1.298
	c0-0.205,0.042-0.363,0.128-0.474c0.085-0.111,0.21-0.166,0.374-0.166c0.158,0,0.266,0.056,0.323,0.167
	c0.044,0.079,0.065,0.183,0.065,0.312v1.458h0.639v-1.408c0-0.214-0.007-0.368-0.022-0.463c-0.015-0.095-0.055-0.187-0.12-0.276
	c-0.077-0.106-0.176-0.184-0.296-0.235S27.319,26.471,27.171,26.471L27.171,26.471z"/>
<path d="M29.598,26.988c0.148,0,0.272,0.043,0.371,0.129c0.1,0.086,0.156,0.212,0.167,0.378h-1.079
	c0.023-0.156,0.078-0.279,0.167-0.371C29.313,27.033,29.437,26.988,29.598,26.988L29.598,26.988z M29.598,26.471
	c-0.351,0-0.636,0.111-0.857,0.332c-0.22,0.221-0.33,0.539-0.33,0.954c0,0.443,0.122,0.762,0.365,0.959
	c0.244,0.196,0.525,0.295,0.844,0.295c0.386,0,0.687-0.116,0.901-0.349c0.138-0.147,0.215-0.291,0.232-0.433h-0.639
	c-0.037,0.07-0.08,0.125-0.129,0.165c-0.089,0.073-0.205,0.11-0.348,0.11c-0.135,0-0.25-0.03-0.345-0.09
	c-0.157-0.097-0.241-0.265-0.25-0.505h1.744c0.003-0.207-0.004-0.365-0.021-0.475c-0.029-0.188-0.093-0.353-0.191-0.495
	c-0.109-0.161-0.247-0.279-0.414-0.354C29.994,26.509,29.806,26.471,29.598,26.471L29.598,26.471z"/>
<path d="M6.153,30.982c-0.175,0-0.32,0.037-0.433,0.11c-0.096,0.059-0.184,0.144-0.263,0.255v-1.151H4.83v3.234h0.617v-0.301
	c0.084,0.117,0.162,0.199,0.234,0.246c0.121,0.079,0.28,0.119,0.479,0.119c0.317,0,0.563-0.122,0.74-0.367
	c0.177-0.245,0.265-0.553,0.265-0.925c0-0.359-0.09-0.652-0.269-0.879C6.718,31.096,6.47,30.982,6.153,30.982L6.153,30.982z
	 M5.995,32.977c-0.188,0-0.327-0.067-0.419-0.202c-0.092-0.135-0.137-0.305-0.137-0.51c0-0.174,0.022-0.316,0.067-0.426
	c0.086-0.206,0.243-0.31,0.472-0.31c0.226,0,0.381,0.105,0.465,0.316c0.044,0.111,0.066,0.252,0.066,0.422
	c0,0.212-0.045,0.384-0.135,0.514C6.284,32.912,6.157,32.977,5.995,32.977L5.995,32.977z"/>
<path d="M8.902,30.978c-0.188,0-0.34,0.049-0.457,0.147c-0.072,0.059-0.156,0.168-0.253,0.327v-0.417H7.594v2.395h0.631v-1.145
	c0-0.192,0.024-0.334,0.072-0.426c0.087-0.164,0.256-0.246,0.508-0.246c0.019,0,0.044,0.001,0.075,0.002
	c0.031,0.001,0.066,0.004,0.106,0.009v-0.642c-0.028-0.001-0.046-0.003-0.054-0.003C8.923,30.978,8.913,30.978,8.902,30.978
	L8.902,30.978z"/>
<path d="M9.996,30.171H9.361v0.578h0.635V30.171z M9.361,33.43h0.635v-2.395H9.361V33.43z"/>
<path d="M11.631,32.916c-0.219,0-0.371-0.101-0.455-0.303c-0.047-0.108-0.07-0.232-0.07-0.371c0-0.161,0.022-0.297,0.066-0.406
	c0.083-0.207,0.234-0.31,0.453-0.31c0.161,0,0.288,0.059,0.384,0.178c0.096,0.119,0.143,0.292,0.143,0.519
	c0,0.242-0.05,0.418-0.151,0.528C11.9,32.861,11.777,32.916,11.631,32.916L11.631,32.916z M11.474,30.978
	c-0.325,0-0.576,0.121-0.753,0.364c-0.177,0.243-0.266,0.542-0.266,0.898c0,0.369,0.092,0.662,0.276,0.878
	c0.184,0.216,0.43,0.324,0.737,0.324c0.199,0,0.361-0.048,0.486-0.143c0.069-0.051,0.133-0.128,0.193-0.231v0.154
	c0,0.229-0.025,0.391-0.075,0.488c-0.076,0.151-0.227,0.226-0.453,0.226c-0.16,0-0.273-0.029-0.341-0.086
	c-0.039-0.032-0.068-0.085-0.086-0.158h-0.681c0.021,0.239,0.127,0.418,0.321,0.538c0.193,0.12,0.443,0.18,0.749,0.18
	c0.507,0,0.849-0.135,1.028-0.404c0.104-0.157,0.156-0.39,0.156-0.699v-2.272h-0.611v0.345c-0.094-0.168-0.217-0.284-0.369-0.347
	C11.698,30.996,11.593,30.978,11.474,30.978L11.474,30.978z"/>
<path d="M14.671,30.971c-0.131,0-0.256,0.027-0.375,0.082c-0.119,0.055-0.224,0.152-0.314,0.291v-1.143h-0.626v3.228h0.626v-1.298
	c0-0.205,0.042-0.363,0.127-0.474c0.085-0.111,0.21-0.166,0.374-0.166c0.159,0,0.266,0.056,0.323,0.167
	c0.044,0.079,0.066,0.183,0.066,0.312v1.458h0.639v-1.408c0-0.214-0.007-0.368-0.022-0.463c-0.015-0.095-0.055-0.187-0.12-0.276
	c-0.077-0.106-0.176-0.184-0.297-0.235C14.952,30.997,14.818,30.971,14.671,30.971L14.671,30.971z"/>
<path d="M16.188,31.503v1.474c0,0.149,0.035,0.26,0.105,0.332c0.108,0.113,0.311,0.164,0.606,0.154l0.297-0.011v-0.468
	c-0.021,0.001-0.041,0.002-0.063,0.003c-0.021,0.001-0.041,0.001-0.06,0.001c-0.127,0-0.204-0.012-0.229-0.036
	s-0.037-0.085-0.037-0.183v-1.266h0.389v-0.446h-0.389v-0.668h-0.62v0.668h-0.334v0.446H16.188z"/>
<path d="M18.699,32.665c0,0.246,0.09,0.449,0.27,0.607c0.18,0.159,0.458,0.238,0.836,0.238c0.37,0,0.643-0.075,0.82-0.225
	c0.177-0.15,0.265-0.344,0.265-0.581c0-0.18-0.062-0.33-0.185-0.45c-0.125-0.119-0.312-0.207-0.561-0.266
	c-0.374-0.082-0.592-0.14-0.654-0.174c-0.062-0.032-0.093-0.084-0.093-0.156c0-0.057,0.029-0.107,0.087-0.149
	c0.058-0.042,0.155-0.064,0.292-0.064c0.166,0,0.284,0.042,0.353,0.127c0.037,0.047,0.059,0.111,0.068,0.191h0.626
	c-0.028-0.293-0.136-0.499-0.325-0.618c-0.189-0.119-0.433-0.179-0.732-0.179c-0.316,0-0.56,0.08-0.734,0.238
	c-0.174,0.159-0.261,0.349-0.261,0.57c0,0.188,0.056,0.331,0.167,0.431c0.111,0.101,0.303,0.185,0.575,0.253
	c0.378,0.089,0.596,0.152,0.655,0.189c0.059,0.037,0.088,0.09,0.088,0.16c0,0.073-0.036,0.128-0.109,0.165
	c-0.073,0.037-0.171,0.055-0.295,0.055c-0.211,0-0.355-0.042-0.433-0.125c-0.044-0.047-0.073-0.126-0.086-0.237H18.699z"/>
<path d="M21.995,30.171H21.36v0.578h0.635V30.171z M21.36,33.43h0.635v-2.395H21.36V33.43z"/>
<path d="M23.485,30.978c-0.315,0-0.566,0.117-0.755,0.351c-0.188,0.234-0.282,0.556-0.282,0.965c0,0.354,0.096,0.645,0.287,0.871
	c0.191,0.226,0.427,0.34,0.706,0.34c0.17,0,0.312-0.032,0.426-0.097c0.114-0.064,0.216-0.168,0.305-0.31v0.332h0.609v-3.234h-0.635
	v1.143c-0.07-0.113-0.162-0.201-0.275-0.265C23.759,31.01,23.63,30.978,23.485,30.978L23.485,30.978z M23.621,32.977
	c-0.177,0-0.309-0.066-0.397-0.199c-0.087-0.132-0.131-0.309-0.131-0.531c0-0.205,0.043-0.377,0.129-0.515
	c0.086-0.138,0.22-0.208,0.403-0.208c0.12,0,0.226,0.038,0.316,0.114c0.148,0.126,0.222,0.336,0.222,0.628
	c0,0.209-0.046,0.38-0.138,0.512C23.933,32.911,23.799,32.977,23.621,32.977L23.621,32.977z"/>
<path d="M26.348,31.488c0.148,0,0.271,0.043,0.371,0.129c0.1,0.086,0.155,0.212,0.167,0.378h-1.079
	c0.023-0.156,0.078-0.279,0.167-0.371C26.063,31.533,26.187,31.488,26.348,31.488L26.348,31.488z M26.348,30.971
	c-0.351,0-0.637,0.111-0.856,0.332c-0.22,0.221-0.33,0.539-0.33,0.954c0,0.443,0.122,0.762,0.365,0.959
	c0.244,0.197,0.525,0.295,0.844,0.295c0.386,0,0.687-0.116,0.901-0.349c0.138-0.146,0.215-0.291,0.232-0.433h-0.639
	c-0.037,0.07-0.08,0.125-0.129,0.165c-0.089,0.073-0.205,0.11-0.348,0.11c-0.134,0-0.25-0.03-0.345-0.09
	c-0.157-0.097-0.241-0.265-0.25-0.505h1.744c0.003-0.207-0.004-0.365-0.021-0.475c-0.029-0.188-0.093-0.353-0.191-0.495
	c-0.109-0.161-0.247-0.279-0.414-0.354C26.744,31.009,26.556,30.971,26.348,30.971L26.348,30.971z"/>
</svg>
