<?xml version="1.0" encoding="utf-8"?>
<!-- Generator: Adobe Illustrator 18.1.1, SVG Export Plug-In . SVG Version: 6.00 Build 0)  -->
<svg version="1.1" id="Layer_1" xmlns="http://www.w3.org/2000/svg" xmlns:xlink="http://www.w3.org/1999/xlink" x="0px" y="0px"
	 viewBox="0 0 34.1031532 11.6513996" enable-background="new 0 0 34.1031532 11.6513996" xml:space="preserve">
<path d="M1.806,0.7764c0.4108,0,0.6851001,0.1177,0.8231001,0.353c0.1378999,0.2354,0.2068,0.5728,0.2068,1.0121999
	C2.8359001,2.46,2.7899001,2.7344,2.698,2.9649C2.5297999,3.3848,2.2325001,3.5948,1.806,3.5948H0.9727V0.7764H1.806z
	 M1.9585,0.0264H0.0967V4.3448H1.9585c0.6528999,0,1.1356999-0.2686,1.4485-0.8057001
	c0.2305999-0.3983998,0.3458998-0.8848,0.3458998-1.4589999c0-0.2265-0.0272999-0.4648-0.0820999-0.7148
	C3.6161001,1.1153001,3.5135,0.8829,3.3629999,0.668c-0.1877-0.2656-0.4329998-0.4482-0.7359998-0.5478
	C2.4491,0.0616,2.2263,0.0303,1.9585,0.0264L1.9585,0.0264z"/>
<path d="M6.0750999,1.0752c-0.2501001,0-0.4531999,0.0655-0.6093998,0.1963C5.3699999,1.3497,5.2577,1.4952,5.1287999,1.7081V1.1514
	H4.3319001V4.3448h0.8407998V2.8183999c0-0.2558,0.0323-0.4452999,0.0967002-0.5683999
	c0.1152-0.2186999,0.3407998-0.3281,0.6767998-0.3281c0.0253,0,0.0585999,0.0009999,0.0996003,0.0029
	C6.0868001,1.9268,6.1336999,1.9306999,6.1863999,1.9366V1.0811c-0.0370998-0.0019-0.0611-0.0034-0.0717998-0.0044
	C6.1039,1.0757,6.0907001,1.0752,6.0750999,1.0752L6.0750999,1.0752z"/>
<path d="M7.4249001,0H6.5781999v0.7706h0.8467002V0z M6.5781999,4.3448h0.8467002V1.1514H6.5781999V4.3448z"/>
<path d="M9.8944998,1.0752c-0.2625999,0-0.4794998,0.0645001-0.6505995,0.1934c-0.0953007,0.0723-0.1964998,0.1904-0.3034,0.3545001
	V1.1573H8.1318998v3.1875h0.835V2.6163001c0-0.1973002,0.0271006-0.3594,0.0813999-0.4864001
	C9.1529999,1.8897001,9.3458996,1.7696,9.6271,1.7696c0.2286997,0,0.3837996,0.082,0.4652996,0.2461001
	C10.1370001,2.1055,10.1592999,2.2344,10.1592999,2.4024v1.9424h0.8554001V2.1944001c0-0.4004-0.1044998-0.687-0.3135996-0.8599001
	C10.4919996,1.1617,10.2231998,1.0752,9.8944998,1.0752L9.8944998,1.0752z"/>
<path d="M11.6964998,4.3448h0.8203001V3.3399l0.3459005-0.3594999L13.6364002,4.3448h1.0162001l-1.1889-1.9891l1.1444998-1.1896
	h-1.0383005l-1.0530996,1.2045V0.0411h-0.8203001V4.3448z"/>
<path d="M18.1417999,3.753c-0.2441998,0-0.4321003-0.0868001-0.5639-0.2604001
	c-0.1319008-0.1735001-0.1977997-0.4201999-0.1977997-0.7400999s0.0658989-0.5661001,0.1977997-0.7387002
	C17.7096996,1.8413,17.8976002,1.7549,18.1417999,1.7549c0.2441006,0,0.4316006,0.0864,0.5625,0.2588999
	c0.1308002,0.1726,0.1963005,0.4188001,0.1963005,0.7387002S18.8351002,3.3190999,18.7042999,3.4926
	C18.5734005,3.6661999,18.3859005,3.753,18.1417999,3.753L18.1417999,3.753z M19.7765999,2.7525001
	c0-0.4605-0.1348-0.8596001-0.4043007-1.1972001c-0.2694988-0.3376-0.6786995-0.5064-1.2276001-0.5064
	c-0.5487995,0-0.9579983,0.1688-1.227499,0.5064s-0.4043007,0.7367001-0.4043007,1.1972001
	c0,0.4684,0.1348,0.8689001,0.4043007,1.2015998s0.6786995,0.4991,1.227499,0.4991c0.5489006,0,0.9581013-0.1664,1.2276001-0.4991
	C19.6417999,3.6214001,19.7765999,3.2209001,19.7765999,2.7525001L19.7765999,2.7525001z"/>
<path d="M22.0671005,1.0752c-0.2625999,0-0.4794998,0.0645001-0.6506004,0.1934
	c-0.0953007,0.0723-0.1965008,0.1904-0.3034,0.3545001V1.1573h-0.8085995v3.1875h0.8349991V2.6163001
	c0-0.1973002,0.0270996-0.3594,0.0813999-0.4864001C21.3255997,1.8897001,21.5184994,1.7696,21.7996006,1.7696
	c0.2287998,0,0.3838997,0.082,0.4653988,0.2461001C22.3094997,2.1055,22.3318005,2.2344,22.3318005,2.4024v1.9424h0.8554993
	V2.1944001c0-0.4004-0.1044998-0.687-0.3136005-0.8599001C22.6646004,1.1617,22.3957005,1.0752,22.0671005,1.0752L22.0671005,1.0752
	z"/>
<path d="M25.7479,1.7754v1.9659001c0,0.1991999,0.0468006,0.3466997,0.1406002,0.4422998
	C26.0330009,4.3340998,26.3024998,4.4024,26.6970997,4.3887l0.3955002-0.0145998V3.75
	C27.0652008,3.7520001,27.0373993,3.7535,27.0091,3.7544c-0.0284004,0.0009999-0.0552006,0.0014999-0.0806007,0.0014999
	c-0.169899,0-0.2714996-0.0160999-0.3046989-0.0482998c-0.0332012-0.0323002-0.0498009-0.1138-0.0498009-0.2447002V1.7754h0.5186005
	V1.1806999h-0.5186005V0.2901H25.7479v0.8906h-0.4454002V1.7754H25.7479z"/>
<path d="M29.3332005,1.0664001c-0.1750011,0-0.3418007,0.0366999-0.5003014,0.1099
	c-0.1584988,0.0733-0.2979984,0.2026999-0.4185982,0.3881999V0.0411h-0.8349018v4.3037h0.8349018V2.6143
	c0-0.2737999,0.0566998-0.4844,0.1700993-0.632c0.1135006-0.1477001,0.2796993-0.2215,0.4988003-0.2215
	c0.2112999,0,0.3547993,0.0743001,0.4303989,0.2229c0.0580997,0.1055999,0.0873013,0.2444,0.0873013,0.4164999V4.3448h0.852499
	V2.4681001c0-0.2854002-0.0098-0.4912001-0.0291996-0.6172C30.4046993,1.7248,30.3512993,1.6021,30.2637997,1.4828
	C30.1606998,1.3421,30.0289001,1.2375,29.8684998,1.1691C29.7080994,1.1007,29.5296001,1.0664001,29.3332005,1.0664001
	L29.3332005,1.0664001z"/>
<path d="M32.5177994,1.7549c0.1970024,0,0.3621025,0.0574,0.4952011,0.1722S33.2201996,2.21,33.2354012,2.4317h-1.4385014
	c0.0303001-0.2079,0.1044006-0.3727,0.2225018-0.4943C32.1372986,1.8158,32.3033981,1.7549,32.5177994,1.7549L32.5177994,1.7549z
	 M32.5173988,1.0664001c-0.4679985,0-0.8485985,0.1477-1.1418991,0.4427999C31.0821991,1.8044,30.9356003,2.2286,30.9356003,2.7818
	c0,0.5904,0.1623993,1.0165,0.487299,1.2784998c0.3249016,0.2618999,0.6998005,0.3929,1.1247997,0.3929
	c0.5149002,0,0.9154015-0.1552997,1.2014008-0.4658999c0.1838989-0.1952,0.2871017-0.3875999,0.3095016-0.5770998h-0.8524017
	C33.1565018,3.5039001,33.0992012,3.5771999,33.0344009,3.6299c-0.1189003,0.0977001-0.2735023,0.1465001-0.4636993,0.1465001
	c-0.1794014,0-0.3328018-0.0400002-0.4603004-0.1201c-0.2097015-0.1289001-0.3210011-0.3535001-0.3340015-0.6738h2.3257999
	c0.0041008-0.2758-0.0050011-0.4871001-0.0275002-0.6338c-0.0387993-0.2504001-0.1236-0.4705-0.2543983-0.6602
	C33.6752014,1.4734,33.4911995,1.3159,33.2685013,1.2161C33.0457001,1.1163,32.7953987,1.0664001,32.5173988,1.0664001
	L32.5173988,1.0664001z"/>
<path d="M1.7638,7.0811c-0.234,0-0.4266,0.0488-0.5780001,0.1465001C1.058,7.3056998,0.9411,7.4190001,0.835,7.5674V6.0323H0v4.3125
	h0.8232V9.9434004c0.1119,0.1562996,0.216,0.2655993,0.3122001,0.3280993c0.1609,0.1055002,0.3738999,0.1582003,0.6389999,0.1582003
	c0.4219999,0,0.7509-0.1630001,0.9865-0.4891996c0.2355001-0.3262005,0.3534-0.7372999,0.3534-1.2334003
	c0-0.4785004-0.1194999-0.8691001-0.3583-1.1718998C2.5171001,7.2325001,2.1863999,7.0811,1.7638,7.0811L1.7638,7.0811z
	 M1.553,9.7412996c-0.2501999,0-0.4362-0.0899-0.5583-0.2695999C0.8725,9.2921,0.8115,9.0655003,0.8115,8.7919998
	c0-0.2323999,0.0295-0.4217997,0.0886-0.5683002c0.1143-0.2753997,0.324-0.4130998,0.6292-0.4130998
	c0.3013,0,0.5081,0.1406002,0.6204,0.4219003c0.059,0.1484003,0.0886002,0.3359003,0.0886002,0.5625
	c0,0.2832003-0.0601001,0.5116997-0.1802001,0.6855001C1.9378999,9.6543999,1.7696,9.7412996,1.553,9.7412996L1.553,9.7412996z"/>
<path d="M5.3783002,7.0752001c-0.25,0-0.4531002,0.0654998-0.6094003,0.1963
	C4.6732001,7.3497,4.5609002,7.4952002,4.4320002,7.7080998V7.1514001H3.6350999V10.3448h0.8408999V8.8184004
	c0-0.2558002,0.0322003-0.4453001,0.0966001-0.5684004c0.1153002-0.2187004,0.3408999-0.3281002,0.6768003-0.3281002
	c0.0253997,0,0.0585999,0.0010004,0.0995998,0.0029001c0.0409999,0.0019999,0.0879002,0.0058999,0.1406002,0.0118003V7.0811
	C5.4524999,7.0791998,5.4285998,7.0777001,5.4179001,7.0767002C5.4071002,7.0756998,5.3938999,7.0752001,5.3783002,7.0752001
	L5.3783002,7.0752001z"/>
<path d="M6.7280998,6H5.8814001v0.7705998h0.8466997V6z M5.8814001,10.3448h0.8466997V7.1514001H5.8814001V10.3448z"/>
<path d="M8.8417997,9.6591997c-0.2917995,0-0.4940996-0.1346998-0.6068993-0.4042997
	C8.1726999,9.1104002,8.1415997,8.9454002,8.1415997,8.7598c0-0.2147999,0.0291004-0.3955002,0.0875006-0.5419998
	c0.1108999-0.2754002,0.3121996-0.4131002,0.6039-0.4131002c0.2138996,0,0.3845997,0.0791001,0.5120001,0.2372999
	c0.1273994,0.1582003,0.1911001,0.3887005,0.1911001,0.6914005c0,0.3223-0.0671005,0.5571995-0.2013006,0.7045994
	C9.2005997,9.5854998,9.0361996,9.6591997,8.8417997,9.6591997L8.8417997,9.6591997z M8.632,7.0752001
	c-0.4329996,0-0.7674999,0.1616998-1.0036001,0.4849C7.3923998,7.8834,7.2744002,8.2823,7.2744002,8.7568998
	c0,0.4921999,0.1224999,0.8823004,0.3676996,1.1704006c0.2451,0.2880993,0.5727,0.4320993,0.9829001,0.4320993
	c0.2656002,0,0.4813995-0.0634003,0.6473999-0.1904001c0.0917997-0.0683994,0.1777-0.1708994,0.2579002-0.3076v0.2051001
	c0,0.3046007-0.0333004,0.5214005-0.0997,0.6503c-0.1015005,0.2012005-0.3027,0.3018007-0.6035004,0.3018007
	c-0.2129002,0-0.3642998-0.0381002-0.4540997-0.1143007c-0.0527-0.0429001-0.0908003-0.1132994-0.1142006-0.2108994H7.3505998
	c0.0273004,0.3182993,0.1699004,0.5576,0.4277,0.7177992c0.2578006,0.1601,0.5907998,0.2402,0.9990001,0.2402
	c0.6758003,0,1.1328001-0.1796999,1.3711004-0.5390997c0.1386995-0.2089996,0.2079992-0.5194998,0.2079992-0.9315996V7.1514001
	H9.5419998v0.46C9.4171,7.3867998,9.2532997,7.2325001,9.0503998,7.1485C8.9314003,7.0997,8.7919998,7.0752001,8.632,7.0752001
	L8.632,7.0752001z"/>
<path d="M12.8023996,7.0664001c-0.1749992,0-0.3417997,0.0366998-0.5002995,0.1099
	c-0.1584997,0.0732999-0.2980003,0.2027001-0.4186001,0.3881998V6.0411h-0.8348999v4.3037h0.8348999V8.6142998
	c0-0.2737999,0.0566998-0.4843998,0.1702003-0.632C12.1671,7.8346,12.3332996,7.7607999,12.5523996,7.7607999
	c0.2112999,0,0.3548002,0.0743003,0.4303999,0.2228999c0.0582008,0.1056004,0.0873003,0.2444,0.0873003,0.4165001V10.3448h0.8525
	V8.4680996c0-0.2853994-0.0096998-0.4911995-0.0291996-0.6171994C13.8739004,7.7248001,13.8205004,7.6020999,13.7329998,7.4828
	C13.6299,7.3421001,13.4981003,7.2375002,13.3376999,7.1690998C13.1773005,7.1006999,12.9988003,7.0664001,12.8023996,7.0664001
	L12.8023996,7.0664001z"/>
<path d="M14.7229996,7.7754002v1.9658995c0,0.1992006,0.0468006,0.3467007,0.1406002,0.4423008
	c0.1444998,0.1504993,0.4140005,0.2187996,0.8086004,0.2050991l0.3954992-0.0145998V9.75
	c-0.0273991,0.0019999-0.0551987,0.0035-0.0834999,0.0044003c-0.0283995,0.0009995-0.0551996,0.0015001-0.0805998,0.0015001
	c-0.1698999,0-0.2714996-0.0160999-0.3046999-0.0483007c-0.0332003-0.0323-0.0497999-0.1138-0.0497999-0.2446995v-1.6875h0.5185995
	V7.1806998h-0.5185995V6.2901001h-0.8261003v0.8905997h-0.4453993v0.5947003H14.7229996z"/>
<path d="M18.0716,9.3252001c0,0.3282003,0.1198006,0.5981998,0.3596001,0.8100996
	c0.2397003,0.2119007,0.6110992,0.3179007,1.1140995,0.3179007c0.4931011,0,0.8576012-0.1001005,1.093401-0.3003006
	c0.235899-0.2002001,0.3537998-0.4584999,0.3537998-0.7748995c0-0.2403002-0.0820007-0.4404001-0.2460995-0.6006002
	c-0.1660004-0.1582003-0.4154015-0.2763996-0.7480011-0.3544998c-0.4990005-0.1093998-0.7894993-0.1865005-0.8717995-0.2314005
	c-0.0823002-0.0429993-0.1233997-0.1122999-0.1233997-0.2080998c0-0.0760999,0.0387001-0.1424999,0.1161003-0.1991997
	c0.0772991-0.0566001,0.2070999-0.0849004,0.3891983-0.0849004c0.2213001,0,0.3780003,0.0566001,0.4701004,0.1699004
	c0.0489006,0.0625,0.0792999,0.1474996,0.0909996,0.2548995h0.835001C20.8673992,7.7335,20.7229996,7.4586,20.4715004,7.2993999
	c-0.2515011-0.1591997-0.5769005-0.2388-0.9762001-0.2388c-0.4208012,0-0.7472,0.1060004-0.9791012,0.3179002
	c-0.2319984,0.2119002-0.3478985,0.4653001-0.3478985,0.7601995c0,0.25,0.0741997,0.4414005,0.222599,0.5742006
	c0.1484013,0.1348,0.4041004,0.2470999,0.7670002,0.3368998c0.5039997,0.1191998,0.7952003,0.2032003,0.8735008,0.2519999
	c0.0781994,0.0488005,0.1173,0.1201,0.1173,0.2139006c0,0.0977001-0.0485001,0.1708994-0.1457005,0.2196999
	c-0.0971012,0.0487995-0.2280998,0.0732002-0.3929996,0.0732002c-0.2806015,0-0.4729004-0.0556002-0.5769005-0.1670008
	c-0.0589008-0.0623999-0.0972004-0.1679001-0.1147995-0.3163996H18.0716z"/>
<path d="M22.3833008,6h-0.8467007v0.7705998h0.8467007V6z M21.5366001,10.3448h0.8467007V7.1514001h-0.8467007V10.3448z"/>
<path d="M24.3096008,7.0752001c-0.4199009,0-0.7554016,0.1563001-1.0063,0.4688001
	c-0.2510014,0.3125-0.3765011,0.7412-0.3765011,1.2860999c0,0.4727001,0.1275005,0.8598995,0.3824005,1.1616001
	c0.2547989,0.3017998,0.5688,0.4526997,0.9417992,0.4526997c0.2266006,0,0.4161015-0.0430002,0.5684013-0.1288996
	C24.9717999,10.2296,25.1075001,10.0918999,25.2266006,9.9024v0.4424h0.8115997V6.0323h-0.8467007v1.5233998
	C25.0977001,7.4053001,24.9755993,7.2876,24.8253002,7.2027001C24.6748009,7.1177001,24.5030003,7.0752001,24.3096008,7.0752001
	L24.3096008,7.0752001z M24.4913006,9.7412996c-0.2364006,0-0.4126015-0.0883999-0.528801-0.2651997
	c-0.1162987-0.1766996-0.1742992-0.4125996-0.1742992-0.7074995c0-0.2734003,0.0571003-0.5024004,0.171299-0.6870003
	c0.1142998-0.1846004,0.2935009-0.2769003,0.5376015-0.2769003c0.1602001,0,0.3007984,0.0508003,0.4218998,0.1524
	c0.1973,0.1680002,0.2958984,0.4473,0.2958984,0.8379002c0,0.2792997-0.0614986,0.5067997-0.1845989,0.6826
	C24.9073009,9.6534004,24.7276001,9.7412996,24.4913006,9.7412996L24.4913006,9.7412996z"/>
<path d="M28.1019993,7.7549c0.1970005,0,0.3621006,0.0574002,0.4952011,0.1722002
	C28.7303009,8.0418997,28.8043995,8.21,28.8195992,8.4316998h-1.4384995c0.0303001-0.2079,0.1044006-0.3726997,0.2224007-0.4942999
	C27.7215004,7.8158002,27.8875999,7.7549,28.1019993,7.7549L28.1019993,7.7549z M28.1016006,7.0664001
	c-0.4680004,0-0.8487015,0.1476998-1.141901,0.4428C26.6664009,7.8044,26.5198002,8.2285995,26.5198002,8.7818003
	c0,0.5903997,0.1623993,1.0164995,0.487299,1.2784996c0.3249016,0.2618999,0.6998005,0.3929005,1.1248016,0.3929005
	c0.5148983,0,0.9152985-0.1553001,1.2013988-0.4659004c0.1839008-0.1952,0.2870998-0.3875999,0.3094997-0.5770998h-0.8523998
	C28.7406998,9.5038996,28.6833992,9.5771999,28.6184998,9.6299c-0.1187992,0.0977001-0.2733994,0.1464996-0.4636002,0.1464996
	c-0.1793995,0-0.3327999-0.04-0.4603004-0.1201C27.4848995,9.5274,27.3736,9.3028002,27.3605995,8.9825001h2.3257999
	c0.0041008-0.2757998-0.0049992-0.4870996-0.0275002-0.6338005C29.6201,8.0983,29.5352993,7.8782001,29.4044991,7.6884999
	c-0.1450996-0.2150998-0.3290997-0.3726001-0.551899-0.4723997C28.6299,7.1163001,28.3794994,7.0664001,28.1016006,7.0664001
	L28.1016006,7.0664001z"/>
</svg>
