<?xml version="1.0" encoding="utf-8"?>
<!-- Generator: Adobe Illustrator 16.2.1, SVG Export Plug-In . SVG Version: 6.00 Build 0)  -->
<!DOCTYPE svg PUBLIC "-//W3C//DTD SVG 1.1//EN" "http://www.w3.org/Graphics/SVG/1.1/DTD/svg11.dtd">
<svg version="1.1" id="Layer_1" xmlns="http://www.w3.org/2000/svg" xmlns:xlink="http://www.w3.org/1999/xlink" x="0px" y="0px"
	 width="300px" height="250px" viewBox="0 0 300 250" enable-background="new 0 0 300 250" xml:space="preserve">
<path d="M20.082,18.518l5.952,20.992h4.074l2.535-12.276l0.741-4.059l0.74,4.059l2.535,12.276h4.2l5.905-20.992h-4.466L39.5,30.667
	l-0.648,3.217l-0.639-3.347l-2.494-12.019h-4.628l-2.371,12.09l-0.605,3.276l-0.604-3.345l-2.772-12.021H20.082z"/>
<path d="M57.239,23.573c-0.851,0-1.662,0.178-2.432,0.534c-0.771,0.356-1.449,0.985-2.035,1.887v-7.406h-4.059v20.921h4.059v-8.412
	c0-1.331,0.276-2.355,0.827-3.073c0.551-0.717,1.359-1.077,2.424-1.077c1.027,0,1.725,0.361,2.092,1.084
	c0.283,0.513,0.424,1.188,0.424,2.024v9.453h4.144v-9.123c0-1.387-0.047-2.388-0.142-3c-0.095-0.613-0.354-1.209-0.78-1.789
	c-0.501-0.684-1.142-1.192-1.922-1.525S58.194,23.573,57.239,23.573L57.239,23.573z"/>
<path d="M74.782,33.471c-0.029,1.358-0.417,2.292-1.164,2.805c-0.748,0.513-1.564,0.77-2.451,0.77c-0.559,0-1.034-0.154-1.424-0.463
	c-0.391-0.309-0.586-0.81-0.586-1.503c0-0.778,0.32-1.353,0.959-1.723c0.377-0.218,1-0.403,1.866-0.555l0.924-0.171
	c0.462-0.085,0.825-0.178,1.09-0.278s0.527-0.23,0.787-0.392V33.471z M70.908,30.238c-1.578,0.199-2.774,0.532-3.587,0.997
	c-1.482,0.854-2.224,2.236-2.224,4.144c0,1.472,0.46,2.609,1.382,3.411c0.921,0.802,2.089,1.203,3.502,1.203
	c1.107,0,2.101-0.251,2.979-0.755c0.735-0.427,1.385-0.944,1.948-1.552c0.028,0.352,0.066,0.665,0.114,0.94
	c0.047,0.275,0.133,0.57,0.256,0.883h4.415v-0.598c-0.266-0.123-0.465-0.28-0.598-0.47c-0.133-0.19-0.214-0.551-0.242-1.083
	c-0.019-0.702-0.029-1.301-0.029-1.794v-7.121c0-1.87-0.663-3.143-1.988-3.817c-1.326-0.674-2.842-1.011-4.548-1.011
	c-2.623,0-4.472,0.684-5.55,2.051c-0.677,0.874-1.059,1.989-1.144,3.347h3.917c0.096-0.598,0.289-1.072,0.577-1.424
	c0.404-0.475,1.092-0.712,2.064-0.712c0.866,0,1.523,0.121,1.97,0.363c0.448,0.242,0.671,0.682,0.671,1.317
	c0,0.522-0.292,0.907-0.875,1.154c-0.325,0.142-0.866,0.261-1.621,0.356L70.908,30.238z"/>
<path d="M82.566,27.02v9.556c0,0.968,0.228,1.686,0.684,2.15c0.703,0.731,2.013,1.063,3.931,0.997l1.923-0.071v-3.034
	c-0.133,0.01-0.269,0.017-0.406,0.021c-0.138,0.005-0.268,0.007-0.392,0.007c-0.826,0-1.32-0.079-1.481-0.235
	c-0.162-0.157-0.242-0.553-0.242-1.189V27.02h2.521v-2.891h-2.521v-4.329h-4.016v4.329h-2.165v2.891H82.566z"/>
<path d="M103.957,18.518h-4.059v20.992h4.059V18.518z"/>
<path d="M116.167,33.471c-0.029,1.358-0.417,2.292-1.164,2.805c-0.748,0.513-1.564,0.77-2.451,0.77
	c-0.559,0-1.034-0.154-1.424-0.463c-0.391-0.309-0.586-0.81-0.586-1.503c0-0.778,0.32-1.353,0.959-1.723
	c0.378-0.218,1-0.403,1.866-0.555l0.924-0.171c0.462-0.085,0.825-0.178,1.09-0.278s0.527-0.23,0.787-0.392V33.471z M112.293,30.238
	c-1.578,0.199-2.774,0.532-3.587,0.997c-1.482,0.854-2.224,2.236-2.224,4.144c0,1.472,0.46,2.609,1.382,3.411
	c0.921,0.802,2.089,1.203,3.502,1.203c1.107,0,2.101-0.251,2.979-0.755c0.735-0.427,1.385-0.944,1.948-1.552
	c0.028,0.352,0.066,0.665,0.114,0.94s0.133,0.57,0.256,0.883h4.415v-0.598c-0.266-0.123-0.465-0.28-0.598-0.47
	c-0.133-0.19-0.214-0.551-0.242-1.083c-0.019-0.702-0.028-1.301-0.028-1.794v-7.121c0-1.87-0.663-3.143-1.988-3.817
	c-1.326-0.674-2.842-1.011-4.548-1.011c-2.623,0-4.472,0.684-5.55,2.051c-0.677,0.874-1.059,1.989-1.144,3.347h3.916
	c0.096-0.598,0.289-1.072,0.578-1.424c0.404-0.475,1.092-0.712,2.064-0.712c0.866,0,1.523,0.121,1.97,0.363
	c0.448,0.242,0.671,0.682,0.671,1.317c0,0.522-0.292,0.907-0.875,1.154c-0.325,0.142-0.866,0.261-1.621,0.356L112.293,30.238z"/>
<path d="M123.174,23.986v9.356c0,1.775,0.222,3.119,0.667,4.03c0.795,1.652,2.338,2.478,4.629,2.478
	c0.795,0,1.489-0.104,2.081-0.313c0.592-0.209,1.205-0.598,1.839-1.168c0.208-0.18,0.388-0.389,0.54-0.626s0.246-0.38,0.284-0.427
	v2.193h3.945V23.986h-4.116v8.445c0,0.997-0.133,1.799-0.397,2.407c-0.51,1.12-1.455,1.68-2.834,1.68
	c-1.077,0-1.799-0.394-2.168-1.182c-0.208-0.446-0.312-1.111-0.312-1.994v-9.356H123.174z"/>
<path d="M147.341,36.177c-1.418,0-2.402-0.655-2.95-1.965c-0.303-0.702-0.454-1.504-0.454-2.407c0-1.044,0.142-1.922,0.425-2.635
	c0.539-1.338,1.518-2.008,2.936-2.008c1.04,0,1.869,0.384,2.489,1.153c0.619,0.769,0.929,1.89,0.929,3.361
	c0,1.566-0.326,2.708-0.979,3.425C149.085,35.819,148.286,36.177,147.341,36.177L147.341,36.177z M146.321,23.616
	c-2.105,0-3.731,0.786-4.879,2.357c-1.147,1.572-1.721,3.511-1.721,5.818c0,2.393,0.596,4.289,1.787,5.689s2.784,2.101,4.778,2.101
	c1.292,0,2.34-0.309,3.147-0.926c0.446-0.332,0.864-0.831,1.253-1.495v0.997c0,1.481-0.162,2.535-0.484,3.161
	c-0.494,0.978-1.472,1.467-2.934,1.467c-1.035,0-1.771-0.185-2.208-0.556c-0.256-0.209-0.441-0.551-0.555-1.025h-4.415
	c0.133,1.547,0.826,2.711,2.079,3.489c1.253,0.778,2.872,1.168,4.856,1.168c3.285,0,5.507-0.874,6.665-2.621
	c0.674-1.016,1.011-2.525,1.011-4.529V23.986h-3.959v2.236c-0.607-1.092-1.404-1.842-2.39-2.25
	C147.776,23.735,147.099,23.616,146.321,23.616L146.321,23.616z"/>
<path d="M166.535,23.573c-0.851,0-1.661,0.178-2.432,0.534c-0.771,0.356-1.449,0.985-2.035,1.887v-7.406h-4.059v20.921h4.059v-8.412
	c0-1.331,0.275-2.355,0.827-3.073c0.551-0.717,1.36-1.077,2.425-1.077c1.027,0,1.725,0.361,2.092,1.084
	c0.282,0.513,0.424,1.188,0.424,2.024v9.453h4.145v-9.123c0-1.387-0.047-2.388-0.142-3s-0.354-1.209-0.78-1.789
	c-0.501-0.684-1.142-1.192-1.921-1.525S167.49,23.573,166.535,23.573L166.535,23.573z"/>
<path d="M175.81,27.02v9.556c0,0.968,0.228,1.686,0.684,2.15c0.703,0.731,2.013,1.063,3.931,0.997l1.923-0.071v-3.034
	c-0.133,0.01-0.269,0.017-0.406,0.021c-0.138,0.005-0.268,0.007-0.392,0.007c-0.826,0-1.32-0.079-1.481-0.235
	c-0.162-0.157-0.242-0.553-0.242-1.189V27.02h2.521v-2.891h-2.521v-4.329h-4.016v4.329h-2.165v2.891H175.81z"/>
<path d="M190.924,26.92c0.958,0,1.76,0.279,2.407,0.837c0.647,0.558,1.007,1.375,1.081,2.453h-6.993
	c0.147-1.01,0.508-1.811,1.082-2.402C189.074,27.216,189.882,26.92,190.924,26.92L190.924,26.92z M190.922,23.573
	c-2.275,0-4.125,0.718-5.551,2.152c-1.426,1.435-2.139,3.497-2.139,6.186c0,2.87,0.79,4.941,2.369,6.215
	c1.58,1.273,3.402,1.91,5.468,1.91c2.503,0,4.449-0.755,5.84-2.265c0.894-0.949,1.396-1.885,1.505-2.806h-4.144
	c-0.241,0.456-0.52,0.812-0.835,1.068c-0.578,0.475-1.33,0.712-2.254,0.712c-0.872,0-1.618-0.194-2.238-0.584
	c-1.019-0.626-1.561-1.718-1.624-3.275h11.306c0.02-1.341-0.024-2.368-0.134-3.081c-0.188-1.217-0.601-2.287-1.237-3.209
	c-0.706-1.046-1.6-1.812-2.683-2.296C193.49,23.816,192.273,23.573,190.922,23.573L190.922,23.573z"/>
<path d="M209.176,23.616c-1.215,0-2.203,0.318-2.962,0.955c-0.465,0.379-1.011,1.087-1.638,2.122v-2.706h-3.874v15.523h4.087V32.09
	c0-1.244,0.157-2.165,0.47-2.763c0.56-1.063,1.657-1.595,3.29-1.595c0.124,0,0.285,0.005,0.484,0.014
	c0.199,0.009,0.427,0.028,0.684,0.057v-4.158c-0.181-0.01-0.297-0.017-0.349-0.021S209.252,23.616,209.176,23.616L209.176,23.616z"
	/>
<path d="M22.125,56.187v9.556c0,0.969,0.228,1.686,0.684,2.15c0.703,0.731,2.013,1.063,3.931,0.997l1.923-0.071v-3.033
	c-0.133,0.01-0.269,0.017-0.406,0.021c-0.138,0.005-0.269,0.007-0.392,0.007c-0.826,0-1.32-0.078-1.481-0.235
	s-0.242-0.553-0.242-1.189v-8.203h2.521v-2.891h-2.521v-4.33h-4.016v4.33h-2.165v2.891H22.125z"/>
<path d="M39.729,62.638c-0.029,1.358-0.417,2.293-1.164,2.806c-0.748,0.513-1.564,0.769-2.451,0.769
	c-0.56,0-1.034-0.154-1.424-0.463c-0.391-0.309-0.586-0.809-0.586-1.502c0-0.778,0.32-1.353,0.959-1.723
	c0.377-0.218,1-0.404,1.866-0.556l0.924-0.171c0.462-0.085,0.825-0.178,1.09-0.278c0.265-0.1,0.527-0.23,0.787-0.392V62.638z
	 M35.856,59.405c-1.578,0.2-2.773,0.532-3.586,0.997c-1.482,0.854-2.224,2.236-2.224,4.144c0,1.472,0.46,2.609,1.382,3.411
	c0.921,0.802,2.088,1.203,3.502,1.203c1.108,0,2.101-0.251,2.979-0.755c0.735-0.427,1.385-0.944,1.948-1.552
	c0.029,0.352,0.066,0.665,0.114,0.94c0.047,0.275,0.133,0.57,0.256,0.883h4.415v-0.598c-0.266-0.124-0.465-0.28-0.598-0.47
	s-0.213-0.55-0.242-1.083c-0.02-0.702-0.029-1.3-0.029-1.794V57.61c0-1.87-0.663-3.143-1.988-3.816
	c-1.326-0.674-2.842-1.011-4.548-1.011c-2.623,0-4.473,0.684-5.55,2.051c-0.677,0.874-1.059,1.989-1.145,3.347h3.917
	c0.096-0.598,0.289-1.073,0.578-1.424c0.404-0.475,1.092-0.712,2.064-0.712c0.866,0,1.523,0.121,1.97,0.363
	c0.448,0.242,0.671,0.681,0.671,1.317c0,0.522-0.292,0.907-0.875,1.153c-0.326,0.143-0.866,0.261-1.621,0.356L35.856,59.405z"/>
<path d="M45.997,63.72c0,1.595,0.583,2.908,1.748,3.938c1.165,1.03,2.97,1.545,5.416,1.545c2.397,0,4.169-0.487,5.315-1.46
	s1.72-2.229,1.72-3.767c0-1.168-0.399-2.141-1.196-2.919c-0.807-0.769-2.02-1.344-3.636-1.724c-2.425-0.531-3.838-0.906-4.238-1.125
	c-0.4-0.208-0.6-0.546-0.6-1.011c0-0.37,0.188-0.693,0.564-0.968s1.007-0.413,1.892-0.413c1.076,0,1.837,0.275,2.285,0.826
	c0.238,0.304,0.385,0.717,0.442,1.239h4.059c-0.181-1.898-0.883-3.235-2.105-4.009s-2.804-1.161-4.745-1.161
	c-2.046,0-3.632,0.515-4.76,1.545c-1.128,1.03-1.691,2.262-1.691,3.695c0,1.215,0.361,2.146,1.083,2.792
	c0.721,0.655,1.964,1.201,3.728,1.638c2.45,0.579,3.866,0.988,4.246,1.225c0.38,0.238,0.571,0.584,0.571,1.04
	c0,0.475-0.236,0.831-0.708,1.068s-1.109,0.356-1.91,0.356c-1.364,0-2.299-0.271-2.805-0.812c-0.286-0.304-0.472-0.816-0.558-1.538
	H45.997z"/>
<path d="M63.382,56.187v9.556c0,0.969,0.228,1.686,0.684,2.15c0.703,0.731,2.013,1.063,3.931,0.997l1.922-0.071v-3.033
	c-0.133,0.01-0.268,0.017-0.406,0.021s-0.268,0.007-0.392,0.007c-0.826,0-1.32-0.078-1.481-0.235
	c-0.162-0.157-0.242-0.553-0.242-1.189v-8.203h2.521v-2.891h-2.521v-4.33h-4.016v4.33h-2.165v2.891H63.382z"/>
<path d="M78.496,56.086c0.958,0,1.76,0.279,2.408,0.837c0.647,0.558,1.007,1.375,1.081,2.453h-6.993
	c0.147-1.011,0.508-1.812,1.082-2.403C76.646,56.382,77.454,56.086,78.496,56.086L78.496,56.086z M78.494,52.74
	c-2.275,0-4.125,0.718-5.551,2.152c-1.426,1.435-2.139,3.497-2.139,6.186c0,2.87,0.79,4.942,2.369,6.215
	c1.58,1.273,3.402,1.91,5.468,1.91c2.503,0,4.45-0.755,5.84-2.265c0.894-0.949,1.396-1.884,1.505-2.805h-4.144
	c-0.242,0.456-0.52,0.812-0.835,1.068c-0.578,0.475-1.329,0.712-2.253,0.712c-0.872,0-1.618-0.194-2.238-0.583
	c-1.019-0.627-1.56-1.719-1.623-3.276h11.306c0.02-1.341-0.024-2.368-0.134-3.081c-0.189-1.217-0.601-2.287-1.237-3.209
	c-0.706-1.046-1.6-1.811-2.683-2.296C81.062,52.982,79.845,52.74,78.494,52.74L78.494,52.74z"/>
<path d="M87.346,63.72c0,1.595,0.583,2.908,1.749,3.938c1.165,1.03,2.97,1.545,5.415,1.545c2.397,0,4.169-0.487,5.316-1.46
	c1.146-0.973,1.719-2.229,1.719-3.767c0-1.168-0.398-2.141-1.196-2.919c-0.807-0.769-2.02-1.344-3.636-1.724
	c-2.426-0.531-3.838-0.906-4.238-1.125c-0.4-0.208-0.6-0.546-0.6-1.011c0-0.37,0.188-0.693,0.564-0.968
	c0.376-0.275,1.007-0.413,1.893-0.413c1.076,0,1.837,0.275,2.285,0.826c0.238,0.304,0.385,0.717,0.442,1.239h4.059
	c-0.181-1.898-0.883-3.235-2.105-4.009c-1.223-0.774-2.805-1.161-4.746-1.161c-2.045,0-3.632,0.515-4.76,1.545
	s-1.691,2.262-1.691,3.695c0,1.215,0.36,2.146,1.083,2.792c0.721,0.655,1.964,1.201,3.728,1.638c2.45,0.579,3.866,0.988,4.246,1.225
	c0.38,0.238,0.57,0.584,0.57,1.04c0,0.475-0.236,0.831-0.708,1.068s-1.109,0.356-1.911,0.356c-1.364,0-2.299-0.271-2.805-0.812
	c-0.286-0.304-0.472-0.816-0.558-1.538H87.346z"/>
<path d="M116.784,47.684h-4.059v20.992h4.059V47.684z"/>
<path d="M124.303,47.556h-4.116v3.746h4.116V47.556z M120.187,68.676h4.116V53.153h-4.116V68.676z"/>
<path d="M127.64,68.676h3.988v-4.885l1.681-1.748l3.761,6.632h4.939l-5.779-9.669l5.564-5.783h-5.047l-5.119,5.855V47.755h-3.988
	V68.676z"/>
<path d="M149.533,56.086c0.958,0,1.76,0.279,2.407,0.837c0.647,0.558,1.007,1.375,1.081,2.453h-6.992
	c0.147-1.011,0.507-1.812,1.081-2.403C147.683,56.382,148.491,56.086,149.533,56.086L149.533,56.086z M149.531,52.74
	c-2.275,0-4.125,0.718-5.551,2.152c-1.426,1.435-2.138,3.497-2.138,6.186c0,2.87,0.789,4.942,2.369,6.215
	c1.579,1.273,3.402,1.91,5.468,1.91c2.503,0,4.45-0.755,5.84-2.265c0.894-0.949,1.396-1.884,1.504-2.805h-4.144
	c-0.242,0.456-0.521,0.812-0.835,1.068c-0.578,0.475-1.329,0.712-2.254,0.712c-0.872,0-1.618-0.194-2.238-0.583
	c-1.019-0.627-1.561-1.719-1.623-3.276h11.306c0.02-1.341-0.024-2.368-0.134-3.081c-0.188-1.217-0.601-2.287-1.237-3.209
	c-0.705-1.046-1.6-1.811-2.682-2.296C152.099,52.982,150.882,52.74,149.531,52.74L149.531,52.74z"/>
</svg>
