<?xml version="1.0" encoding="utf-8"?>
<!-- Generator: Adobe Illustrator 18.1.1, SVG Export Plug-In . SVG Version: 6.00 Build 0)  -->
<svg version="1.1" id="Layer_1" xmlns="http://www.w3.org/2000/svg" xmlns:xlink="http://www.w3.org/1999/xlink" x="0px" y="0px"
	 width="87px" height="45.2px" viewBox="0 0 87 45.2" enable-background="new 0 0 87 45.2" xml:space="preserve">
<g>
	<path fill="#0062AE" d="M38.8,2.4L38.8,2.4C21.8,6.2,7.5,14,2.2,22.2c-2,3.1-2.7,6.2-1.9,9.1c1.3,5.5,7.3,9.4,16.8,11
		c8.8,1.5,19.9,1,31.2-1.5C65.2,37,79.5,29.2,84.8,21c2-3.1,2.7-6.2,1.9-9.1c-1.3-5.5-7.3-9.4-16.8-11C61.1-0.7,50-0.1,38.8,2.4z"/>
</g>
<g>
	<path fill="#FFDD00" d="M84.6,12.4c2.3,9.5-14.2,21.3-36.9,26.3c-22.7,5.1-43,1.5-45.3-7.9C0.1,21.4,16.6,9.6,39.3,4.5
		C62-0.6,82.2,2.9,84.6,12.4z"/>
</g>
<g>
	<path fill="#FFFFFF" d="M46.7,6.1c-0.5,0-7.9,0.5-14.9,2.6c-7,2.1-8.3,3.1-8.3,3.1l0.4,1.4c0,0,3.3-1.7,9.3-3.7
		c7.9-2.6,13-3.1,13.7-3.2C47.7,6.2,47.2,6.1,46.7,6.1z"/>
</g>
<g>
	<g>
		<g>
			<g>
				<path fill="#7B1000" d="M68.2,5.1l-4.8,1.9c-0.2,0-0.3,0.1-0.4,0.2c0,0.1-0.1,0.2-0.1,0.2c0,0.1,0,0.1,0,0.2
					c0,0,0.4,0.8,0.4,0.9c0,0.1,0.3,0.9,0.3,0.9c0,0,0.1,0.5,0.1,0.5c0,0,0,0.2,0,0.2s0,0.1,0,0.2c0,1.9-0.1,3.4-0.2,5
					c-0.1,1.6-0.2,3.3-0.2,5.3c0,0.2,0,0.4,0,0.6c0,2.9,1.1,4.4,2.1,5.2c1.5,1.2,3.5,1.6,5.8,1.1c4.8-1.1,7.4-4.8,7.4-10.3
					c0,0,0.1-3.4,0.1-3.4l0.1-3.6c0,0,0-0.6,0.6-1.1c0.1-0.1,0.2-0.3,0.2-0.5c0-0.2-1.1-1.3-1.3-1.4l-3.2-0.8
					c-0.2-0.1-0.4,0-0.6,0.1c0,0-0.9,1.1-1.4,1.8c-0.1,0.1-0.1,0.2-0.1,0.3v0.6c0,0-0.1,5.5-0.3,8.7c0,0,0,0,0,0
					c0,0.8-0.2,3.3-1.7,3.7c-0.6,0.2-1.1,0.1-1.4-0.1c-0.4-0.3-0.7-1-0.6-2.1c0.2-2.9,0.3-6,0.3-9l0.1-4c0-0.3-1.1-1.3-1.2-1.4
					C68.5,5.1,68.4,5.1,68.2,5.1z"/>
			</g>
			<g>
				<path fill="#7B1000" d="M54.2,8.8c-4.7,1.7-7.1,4-8.5,8.1c-0.7,2-0.8,5.1-0.6,7.1c0.4,2.5,1.7,4.6,3.5,5.7
					c2,1.3,4.7,1.5,7.6,0.5c2.5-0.8,4-1.6,6.2-3.1c0.1-0.1,0.2-0.2,0.2-0.4c0,0,0,0,0,0c0,0,0-0.2,0-0.2c0.2-3.6,0.3-7.4,0.4-10.4
					c0,0,0,0,0,0c0-0.1-1.1-1.3-1.2-1.4c-0.1-0.1-0.3-0.1-0.4-0.1c-0.9,0.2-1.6,1.6-3.4,2.1l-3.3,0.8c-0.2,0.1-0.4,0.2-0.4,0.5
					l-0.1,3.4l-1.1,0.2c0,0.3,1.1,1.3,1.4,1.4c0.2,0.1,0.4,0,0.6-0.2c0.1-0.1,0.3-0.3,0.4-0.4c0,0,0.1-0.1,0.1-0.1l0,0l0,0
					c0,0,0,0,0,0l0,0c0,0,0,0,0.1,0c0.2,0,0.9-0.2,1.3-0.3c0,0.3,0,0.6,0,0.6s0,1-0.1,1.3c-1.8,0.9-3.4,1.1-4.4,0.7
					c-0.8-0.4-1.3-1.1-1.6-2.3c-0.2-1-0.1-2.6,0.3-3.7c0.3-0.9,0.9-1.7,1.7-2.4c2.7-2.3,6.2-2.3,8.3-1.2c0.2,0.1,0.3,0.1,0.5,0
					c0.1-0.1,0.2-0.2,0.2-0.4l0-1.6l0-2.4c0,0,0,0,0,0l0-0.5l0-0.6c0-0.2-1-1.4-1.3-1.5c-0.6-0.2-0.2,0.7-0.7,0.6c0,0,0,0,0,0
					C58.8,8.1,56.7,8,54.2,8.8z"/>
			</g>
			<g>
				<path fill="#7B1000" d="M71.8,1.9L70,6.1c0,0.2,0,0.4,0.2,0.5c1.2,0.9,2.3,1.9,2.5,1.9c0.1,0,0.3-0.1,0.4-0.2
					c0,0,2.4-4.2,3.3-5.5c0.1-0.1,0.1-0.3,0-0.5c-0.1-0.2-1.1-1.3-1.4-1.3l-2.7,0.7C72.1,1.5,71.9,1.7,71.8,1.9z"/>
			</g>
			<g>
				<path fill="#7B1000" d="M45.1,31.2L45.1,31.2c-0.6-0.5-0.9-0.9-0.9-1.2c0,0,0.1-2.4,0.1-2.4l0.2-3.9c0,0,0-1.2,0-1.2
					c0-1,0.1-2.1,0.1-3.1c0-0.8-0.1-1-0.2-1.5c0,0-0.1-0.3-0.1-0.3c-0.5-2-1.6-3.4-3.4-4.4c-1.4-0.7-3.2-1-4.9-0.6
					c-4,0.9-7.1,4-8,7.9C28,21,28,21.6,28,22.2l-0.1,0.9c-0.1,1-0.1,2.1-0.2,3.2l-0.1,1.4c0,0-0.1,3.8-0.1,3.8l-0.1,3.2
					c0,0,0,0.1,0,0.1s0,0.1,0,0.1c0,0,0,0.2-0.1,0.3c0,0-0.1,0.4-0.1,0.4c0,0,0,0.1,0,0.1L27,36.3c0,0.1,0,0.1,0,0.2
					c0,0.1,0.1,0.3,0.2,0.4c0.1,0.1,0.3,0.2,0.5,0.1c0,0,0.1,0,0.1,0c1.3-0.4,3.6-1.2,5-1.6l0.2-0.1c0.2-0.1,0.3-0.2,0.4-0.5l0.1-3
					c0,0,0.1-2.2,0.1-2.2c0.2,0,0.4-0.1,0.4-0.1c1.1-0.3,3.7-0.9,4.7-1.2c0,0.7-1.2,3.7-1.2,3.7c0,0,0,0,0,0c0,0.1,0.1,0.3,0.2,0.4
					c0.1,0.1,1,1.3,1.5,1.1l1.4-0.4c1.5-0.4,3.3-0.9,4.4-1.1c0.2,0,0.3-0.2,0.4-0.4C45.3,31.5,45.3,31.3,45.1,31.2z M38.8,21.3
					c0,0,0,1.1,0,1.1s0,0.7,0,0.8c-0.5,0.1-2.3,0.6-2.3,0.6c-1,0.3-2,0.5-2.9,0.7c0-0.6,0-1.6,0-1.9c0,0,0,0,0,0
					c0-0.5,0.1-0.9,0.1-1.3c0.3-1.3,1.3-2.5,2.4-2.9c0.7-0.2,1.3-0.2,1.8,0.1c0.5,0.3,0.8,0.9,0.9,1.6c0,0.2,0,0.4,0,0.6
					C38.8,20.9,38.8,21.1,38.8,21.3z"/>
			</g>
		</g>
	</g>
	<g>
		<path fill="#7B1000" d="M28.3,36.3c0-0.2-0.2-0.4-0.4-0.4c0,0-0.5-0.1-1-0.3c-0.3-0.1-1-1.2-1.5-2l-0.1-0.2c0,0-1.2-2.1-3.3-6
			c5.2-4.4,6-9.2,6-11.5c0-0.2,0-0.4,0-0.6c-0.1-2.1-0.9-3.8-2.4-4.9c-1.7-1.3-4.2-1.6-6.8-1C16.1,10,12.2,11.8,8.5,14
			c-0.2,0.1,0,0.3,0,0.5c0,0.2-0.1,0.4,0.1,0.4l0.2,0L9,15c0,0,0.2,0,0.2,0c0,0,0,0,0,0c0.2,0.1,0.3,0.7,0.3,1.5c0,0.1,0,0.2,0,0.4
			c0,0,0,0,0,0c0,0.3-0.5,13.6-0.7,20.6c0,2.4-0.2,4-0.4,5c-0.3,1.5-1.6,0.8-1.8,0.8c0,0,0,0,0,0c-0.2,0.1-0.3,0.3-0.3,0.4
			c0,0.1,0,0.1,0,0.2c0.1,0.2,1.3,1.5,1.7,1.3c0,0,0,0,0,0c0,0,0,0,0,0l4.8-2.2l4.1-1.9c0.2-0.1,0.3-0.3,0.3-0.4
			c0,0,0.1-0.4-0.9-1.2c-0.3-0.2-0.4-0.3-0.6-0.3c-0.6,0,0,0.7-0.2,0.1c-0.1-0.4-0.2-1-0.2-1.7c0-0.3,0-0.5,0-0.8
			c0-2.4,0-4.7,0.1-6.9c0.3-0.1,0.4-0.1,0.7-0.2c2.3,4.3,3,6.7,3.3,7.3c0,0.1-0.2,0.4-0.4,0.6c-0.1,0.1-0.1,0.2-0.1,0.3
			c0,0.3,1.1,1.2,1.1,1.3c0.1,0.2,0.4,0.3,0.6,0.2c2.9-1.2,6.1-2.1,7-2.4l0.4-0.2C28.2,36.8,28.3,36.6,28.3,36.3
			C28.3,36.4,28.3,36.3,28.3,36.3z M15.7,23.9c0,0-0.1,0-0.2,0c0-2.7,0.1-5.1,0.1-7c0,0,0.1-0.1,0.1-0.1c1-0.5,3.5-2,4.9-1.4
			c0.4,0.2,0.7,0.5,0.8,1c0,0.2,0,0.3,0,0.5C21.5,18.9,20.1,22.6,15.7,23.9z"/>
	</g>
</g>
<g>
	<path fill="#DA0C14" d="M81.7,10.6c0,0.3-0.3,0.6-0.6,0.6c-0.3,0-0.6-0.3-0.6-0.6c0-0.3,0.3-0.6,0.6-0.6
		C81.4,10.1,81.7,10.3,81.7,10.6z M80.6,10.6c0,0.3,0.2,0.5,0.4,0.5c0.2,0,0.4-0.2,0.4-0.5c0-0.3-0.2-0.5-0.4-0.5
		S80.6,10.4,80.6,10.6z M81,10.9h-0.1v-0.6c0.1,0,0.1,0,0.2,0c0.1,0,0.2,0,0.2,0c0,0,0.1,0.1,0.1,0.1c0,0.1,0,0.1-0.1,0.1v0
		c0.1,0,0.1,0.1,0.1,0.1c0,0.1,0,0.1,0,0.1h-0.1c0,0,0-0.1,0-0.1c0-0.1,0-0.1-0.1-0.1H81V10.9z M81,10.6L81,10.6
		c0.1,0,0.2,0,0.2-0.1c0-0.1,0-0.1-0.1-0.1c0,0-0.1,0-0.1,0V10.6z"/>
</g>
<g>
	<g>
		<g>
			<g>
				<path fill="#FFFFFF" d="M68.2,5.1l-5.8,0.8c-0.2,0-0.3,0.1-0.4,0.2C62,6.2,62,6.3,62,6.4c0,0.1,0,0.1,0,0.2c0,0,0.4,0.8,0.4,0.9
					c0,0.1,0.3,0.9,0.3,0.9c0,0,0.1,0.5,0.1,0.5c0,0,0,0.2,0,0.2s0,0.1,0,0.2c0,1.9-0.1,3.4-0.2,5c-0.1,1.6-0.2,3.3-0.2,5.3
					c0,0.2,0,0.4,0,0.6c0,2.9,1.1,4.4,2.1,5.2c1.5,1.2,3.5,1.6,5.8,1.1c4.8-1.1,7.4-4.8,7.4-10.3c0,0,0.1-3.4,0.1-3.4l0.1-3.6
					c0,0,0-0.6,0.6-1.1c0.1-0.1,0.2-0.3,0.2-0.5c0-0.2-0.1-0.3-0.3-0.4l-4.2-1.8c-0.2-0.1-0.4,0-0.6,0.1c0,0-0.9,1.1-1.4,1.8
					c-0.1,0.1-0.1,0.2-0.1,0.3v0.6c0,0-0.1,5.5-0.3,8.7c0,0,0,0,0,0c0,0.8-0.2,3.3-1.7,3.7c-0.6,0.2-1.1,0.1-1.4-0.1
					c-0.4-0.3-0.7-1-0.6-2.1c0.2-2.9,0.3-6,0.3-9l0.1-4c0-0.1-0.1-0.3-0.2-0.4C68.5,5.1,68.4,5.1,68.2,5.1z"/>
			</g>
			<g>
				<path fill="#FFFFFF" d="M53.2,7.8c-4.7,1.7-7.1,4-8.5,8.1c-0.7,2-0.8,5.1-0.6,7.1c0.4,2.5,1.7,4.6,3.5,5.7
					c2,1.3,4.7,1.5,7.6,0.5c2.5-0.8,4-1.6,6.2-3.1c0.1-0.1,0.2-0.2,0.2-0.4c0,0,0,0,0,0c0,0,0-0.2,0-0.2c0.2-3.6,0.3-7.4,0.4-10.4
					c0,0,0,0,0,0c0-0.1-0.1-0.3-0.2-0.4c-0.1-0.1-0.3-0.1-0.4-0.1c-0.9,0.2-2.6,0.6-4.4,1l-3.3,0.8c-0.2,0.1-0.4,0.2-0.4,0.5
					l-0.1,3.4l0,1.1c0,0.2,0.1,0.4,0.3,0.5c0.2,0.1,0.4,0,0.6-0.2c0.1-0.1,0.3-0.3,0.4-0.4c0,0,0.1-0.1,0.1-0.1l0,0l0,0c0,0,0,0,0,0
					l0,0c0,0,0,0,0.1,0c0.2,0,0.9-0.2,1.3-0.3c0,0.3,0,0.6,0,0.6s0,1-0.1,1.3c-1.8,0.9-3.4,1.1-4.4,0.7c-0.8-0.4-1.3-1.1-1.6-2.3
					c-0.2-1-0.1-2.6,0.3-3.7c0.3-0.9,0.9-1.7,1.7-2.4c2.7-2.3,6.2-2.3,8.3-1.2c0.2,0.1,0.3,0.1,0.5,0c0.1-0.1,0.2-0.2,0.2-0.4l0-1.6
					l0-2.4c0,0,0,0,0,0l0-0.5l0-0.6c0-0.2-0.1-0.4-0.3-0.5c-0.6-0.2-1.1-0.3-1.7-0.4c0,0,0,0,0,0C57.7,7.1,55.7,7,53.2,7.8z"/>
			</g>
			<g>
				<path fill="#FFFFFF" d="M70.8,0.9L70,6c0,0.2,0,0.4,0.2,0.5c1.2,0.9,1.3,0.9,1.5,0.9c0.1,0,0.3-0.1,0.4-0.2c0,0,2.4-4.2,3.3-5.5
					c0.1-0.1,0.1-0.3,0-0.5C75.4,1,75.2,0.9,75,0.8l-3.7-0.4C71.1,0.4,70.9,0.6,70.8,0.9z"/>
			</g>
			<g>
				<path fill="#FFFFFF" d="M44.1,30.2L44.1,30.2c-0.6-0.5-0.9-0.9-0.9-1.2c0,0,0.1-2.4,0.1-2.4l0.2-3.9c0,0,0-1.2,0-1.2
					c0-1,0.1-2.1,0.1-3.1c0-0.8-0.1-1-0.2-1.5c0,0-0.1-0.3-0.1-0.3c-0.5-2-1.6-3.4-3.4-4.4c-1.4-0.7-3.2-1-4.9-0.6
					c-4,0.9-7.1,4-8,7.9c-0.1,0.4-0.1,1-0.2,1.6L26.9,22c-0.1,1-0.1,2.1-0.2,3.2l-0.1,1.4c0,0-0.1,3.8-0.1,3.8l-0.1,3.2
					c0,0,0,0.1,0,0.1s0,0.1,0,0.1c0,0,0,0.2-0.1,0.3c0,0-0.1,0.4-0.1,0.4c0,0,0,0.1,0,0.1l-0.2,0.7c0,0.1,0,0.1,0,0.2
					c0,0.1,0.1,0.3,0.2,0.4c0.1,0.1,0.3,0.2,0.5,0.1c0,0,0.1,0,0.1,0c1.3-0.4,3.6-1.2,5-1.6l0.2-0.1c0.2-0.1,0.3-0.2,0.3-0.5l0.1-3
					c0,0,0.1-2.2,0.1-2.2c0.2,0,0.4-0.1,0.4-0.1c1.1-0.3,3.7-0.9,4.7-1.2c0,0.7-0.2,4.7-0.2,4.7c0,0,0,0,0,0c0,0.1,0.1,0.3,0.2,0.4
					c0.1,0.1,0.3,0.1,0.4,0.1l1.4-0.4c1.5-0.4,3.3-0.9,4.4-1.1c0.2,0,0.3-0.2,0.4-0.4C44.3,30.5,44.2,30.3,44.1,30.2z M37.8,20.3
					c0,0,0,1.1,0,1.1s0,0.7,0,0.8c-0.5,0.1-2.3,0.6-2.3,0.6c-1,0.3-2,0.5-2.9,0.7c0-0.6,0-1.6,0-1.9c0,0,0,0,0,0
					c0-0.5,0.1-0.9,0.1-1.3c0.3-1.3,1.3-2.5,2.4-2.9c0.7-0.2,1.3-0.2,1.8,0.1c0.5,0.3,0.8,0.9,0.9,1.6c0,0.2,0,0.4,0,0.6
					C37.8,19.9,37.8,20.1,37.8,20.3z"/>
			</g>
		</g>
	</g>
	<g>
		<path fill="#FFFFFF" d="M27.2,35.3c0-0.2-0.2-0.4-0.4-0.4c0,0-0.5-0.1-1-0.3c-0.3-0.1-1-1.2-1.5-2l-0.1-0.2c0,0-1.2-2.1-3.3-6
			c5.2-4.4,6-9.2,6-11.5c0-0.2,0-0.4,0-0.6c-0.1-2.1-0.9-3.8-2.4-4.9c-1.7-1.3-4.2-1.6-6.8-1C15.1,9,11.2,10.8,7.5,13
			c-0.2,0.1-0.3,0.3-0.3,0.5c0,0.2,0.2,0.4,0.4,0.4l0.2,0l0.1,0c0,0,0.2,0,0.2,0c0,0,0,0,0,0c0.2,0.1,0.3,0.7,0.3,1.5
			c0,0.1,0,0.2,0,0.4c0,0,0,0,0,0c0,0.3-0.5,13.6-0.7,20.6c-0.1,6-0.9,6.8-1.1,6.9c0,0,0,0,0,0c-0.2,0.1-0.3,0.3-0.3,0.4
			c0,0.1,0,0.1,0,0.2c0.1,0.2,0.4,0.4,0.6,0.3c0,0,0,0,0,0c0,0,0,0,0,0l4.8-2.2l4.1-1.9c0.2-0.1,0.3-0.3,0.3-0.4c0,0,0-0.1,0-0.1
			c0-0.2-0.2-0.4-0.5-0.4c-1,0-1.4-0.7-1.4-2.6c0-0.3,0-0.5,0-0.8c0-2.4,0-4.7,0.1-6.9c0.3-0.1,0.4-0.1,0.7-0.2
			c2.3,4.3,4.1,7.7,4.3,8.4c0,0.1-0.2,0.4-0.4,0.6c-0.1,0.1-0.1,0.2-0.1,0.3c0,0.1,0,0.2,0.1,0.3c0.1,0.2,0.4,0.3,0.6,0.2
			c2.9-1.2,6.1-2.1,7-2.4l0.4-0.2C27.1,35.7,27.2,35.6,27.2,35.3C27.2,35.3,27.2,35.3,27.2,35.3z M14.7,22.9c0,0-0.1,0-0.2,0
			c0-2.7,0.1-5.1,0.1-7c0,0,0.1-0.1,0.1-0.1c1-0.5,3.5-2,4.9-1.4c0.4,0.2,0.7,0.5,0.8,1c0,0.2,0,0.3,0,0.5
			C20.5,17.8,19.1,21.6,14.7,22.9z"/>
	</g>
</g>
<g>
	<g>
		<g>
			<g>
				<path fill="#DA0C14" d="M72.6,17c0.2-3.3,0.3-8.8,0.3-8.8V7.7C73.4,7,74.2,6,74.2,6c0,0,4.2,1.8,4.2,1.8
					c-0.8,0.6-0.8,1.5-0.8,1.5c0,3.1-0.1,3.5-0.2,7l0,0c0,5.3-2.5,8.8-7,9.8c-3.9,0.9-7.6-1-7.3-6.4l0,0c0-4,0.3-6.6,0.3-10.4l0,0
					c0-0.1,0-0.3-0.1-0.4l0,0c0-0.2-0.1-0.4-0.1-0.5l0,0c-0.1-0.3-0.2-0.7-0.3-1l0,0c-0.1-0.3-0.3-0.6-0.4-0.9l0,0l5.8-0.8l0,0
					c-0.1,4.3-0.2,8.8-0.5,13l0,0c0,2.5,1.2,3.1,2.7,2.7C72,20.8,72.6,18.9,72.6,17z"/>
			</g>
			<g>
				<path fill="#DA0C14" d="M59,7.8c0.6,0.1,1.1,0.2,1.6,0.4l0,0c0,0.4,0,0.8,0,1.1l0,0c0,1.3,0,2.6,0,4l0,0c-2.2-1.1-6-1.2-8.9,1.3
					l0,0c-0.8,0.7-1.4,1.5-1.8,2.6l0,0c-0.4,1.2-0.6,2.9-0.3,4l0,0c0.8,3.3,3.4,3.6,6.7,2l0,0c0.1,0,0.2-0.1,0.2-0.1l0,0
					c0.1-1,0.1-1.9,0.1-2.9l0,0c-0.1,0-0.2,0-0.3,0.1l0,0c-0.5,0.1-1.7,0.4-1.8,0.4l0,0c0,0-0.1,0.1-0.2,0.2l0,0
					c0,0-0.1,0.1-0.1,0.1l0,0c0,0-0.4,0.3-0.5,0.5l0,0c0.1-1.5,0.1-3,0.2-4.4l0,0c2.3-0.5,6.2-1.6,7.6-1.8l0,0
					c-0.1,3.3-0.2,7-0.4,10.4l0,0.3c-2.1,1.5-3.5,2.2-6,3.1l0,0c-5.8,1.8-9.8-1-10.5-5.9l0,0C44.4,21,44.5,18,45.2,16l0,0
					c1.4-4.1,4-6.3,8.2-7.8l0,0C55.6,7.5,57.4,7.6,59,7.8z"/>
			</g>
			<g>
				<path fill="#DA0C14" d="M70.5,6.1L71.3,1L75,1.3l0,0c-1,1.3-3.4,5.5-3.4,5.6l0,0C71.6,6.9,70.5,6.1,70.5,6.1z"/>
			</g>
			<g>
				<path fill="#DA0C14" d="M32.1,21.5c0,0.5,0,1.8,0,2.2l0,0c0,0.1,0,0.2,0,0.4l0,0c0.1,0,0.2,0,0.3-0.1l0,0c1.8-0.4,3.7-1,5.6-1.4
					l0,0c0.1,0,0.2,0,0.3-0.1l0,0c0-0.1,0-0.2,0-0.3l0,0c0-0.4,0-1.5,0-1.9l0,0c0-0.5,0-0.9,0-1.2l0,0c-0.2-1.8-1.4-2.7-3.3-2.2l0,0
					c-1.3,0.4-2.4,1.7-2.7,3.2l0,0C32.2,20.6,32.1,21.1,32.1,21.5z M42.9,16.8c0.1,0.7,0.2,0.8,0.2,1.7l0,0c0,1.3-0.1,2.8-0.1,4.2
					l0,0c-0.1,2.1-0.2,4.2-0.3,6.3l0,0c0,0.7,0.9,1.4,1,1.6l0,0c-1.5,0.3-4.2,1.1-5.9,1.5l0,0c0.1-1.8,0.1-3.5,0.2-5.3l0,0
					c-0.1,0-0.2,0-0.3,0.1l0,0c-0.6,0.1-5.5,1.4-5.6,1.4l0,0c-0.1,0-0.2,0-0.3,0.1l0,0c0,0.1,0,0.2,0,0.3l0,0
					c-0.1,1.4-0.2,3.8-0.2,5.2l0,0c-1.3,0.4-3.9,1.2-5.2,1.6l-0.1,0c0.1-0.2,0.2-0.5,0.2-0.7l0,0c0.1-0.2,0.1-0.3,0.1-0.4l0,0
					c0-0.1,0-0.2,0.1-0.3l0,0c0-0.1,0-0.2,0-0.3l0,0c0.1-2.4,0.1-4.6,0.2-7l0,0c0.1-1.5,0.1-3.1,0.2-4.6l0,0
					c0.1-0.7,0.1-1.8,0.2-2.4l0,0c0.9-3.9,4-6.7,7.6-7.5l0,0c1.8-0.4,3.5,0,4.6,0.6l0,0C41.3,13.6,42.4,14.7,42.9,16.8z"/>
			</g>
		</g>
	</g>
	<g>
		<g>
			<g>
				<path fill="#DA0C14" d="M26.4,35.5c0.2-0.1,0.3-0.1,0.3-0.1s-0.6-0.1-1.1-0.3c-0.5-0.2-1.2-1.3-1.9-2.5c0,0-1.3-2.2-3.4-6.4
					c5.1-4.2,6.2-8.9,6.1-11.9c-0.3-4.9-4.5-6.5-8.6-5.4c-2.6,0.6-6.5,2.4-10,4.6c0.1,0,0.2,0,0.2,0c1.1-0.3,0.9,2.4,0.9,2.4
					c0,0.1-0.7,20.6-0.7,20.6c0,2.8-0.3,6.8-1.4,7.3c2.9-1.3,5.8-2.7,8.8-4.1c-1.7,0-1.9-1.8-1.9-3.1c0-2.8,0-5.4,0.1-8.1
					c0.4-0.1,0.9-0.2,1.5-0.4c2,3.7,4.4,8.3,4.5,8.9c0,0.4-0.5,1-0.5,1C22.2,36.8,25.4,35.8,26.4,35.5z M20.9,15.2
					c0.4,2-1,6.6-6.1,8.1L14,23.6c0-2.9,0.1-5.6,0.1-8C15,15.2,19.9,12,20.9,15.2z"/>
			</g>
		</g>
	</g>
</g>
</svg>
