<?xml version="1.0" encoding="utf-8"?>
<!-- Generator: Adobe Illustrator 18.1.1, SVG Export Plug-In . SVG Version: 6.00 Build 0)  -->
<svg version="1.1" id="Layer_1" xmlns="http://www.w3.org/2000/svg" xmlns:xlink="http://www.w3.org/1999/xlink" x="0px" y="0px"
	 width="203.9px" height="97.3px" viewBox="0 0 203.9 97.3" enable-background="new 0 0 203.9 97.3" xml:space="preserve">
<path fill="#FFFFFF" d="M1.8,15.8h2.6V9.2h5.1v-2H4.4V3h5.4V1h-8V15.8z"/>
<path fill="#FFFFFF" d="M12,15.8V5h2.5v10.9H12z M12,2.5h2.6V0H12V2.5z"/>
<path fill="#FFFFFF" d="M17.2,5c0,0.6,0.1,1.9,0.1,3.1c0,1,0,7.8,0,7.8h2.5c0,0,0-4.4,0-5.4c0-2.7,1.3-3.7,2.6-3.7
	c0.3,0,0.5,0,0.7,0.1c0.1,0,0.3,0.1,0.4,0.1c0.1,0,0.2-0.1,0.2-0.2c0-0.2,0.1-1.1,0.1-1.8c-0.1-0.1-0.6-0.2-1.3-0.2
	c-2.2,0-2.9,1.7-2.9,1.9h-0.1c0-0.2,0-1.1,0-1.4c0-0.1,0-0.3-0.3-0.3C18.7,5,17.2,5,17.2,5z"/>
<path fill="#FFFFFF" d="M28.6,4.8c-2.1,0-4.1,1.1-4.1,3.2c0,2,1.3,2.7,2.1,3l1.2,0.5c1.1,0.4,1.4,0.9,1.4,1.4c0,0.7-0.6,1.3-2,1.3
	c-0.8,0-1.6-0.2-1.8-0.2c-0.1,0-0.3-0.1-0.4-0.1c-0.2,0-0.2,0.1-0.2,0.3c0,0.4-0.1,1.5-0.1,1.8c0.2,0.1,1.1,0.2,2.4,0.2
	c2.3,0,4.7-0.9,4.7-3.5c0-1.6-1.3-2.5-2.2-2.9l-1.1-0.4c-1-0.4-1.4-0.7-1.4-1.5c0-0.7,0.6-1.3,1.9-1.3c0.8,0,1.5,0.2,1.7,0.3
	c0.1,0,0.1,0.1,0.3,0.1C31,6.9,31,6.8,31,6.5c0-0.6,0.1-1.2,0.1-1.5C30.9,4.9,29.9,4.8,28.6,4.8z"/>
<path fill="#FFFFFF" d="M37.6,16.1c0.9,0,1.5-0.2,1.7-0.2c0-0.4-0.1-1.6-0.1-1.6c0-0.2-0.1-0.3-0.2-0.3c-0.2,0-0.6,0.2-1.2,0.2
	c-0.9,0-1.4-0.5-1.4-1.5V6.8H39V5h-2.6V2.6h-2.5V5h-1.5v1.9h1.5v5.4C33.9,14.5,34.8,16.1,37.6,16.1z"/>
<path fill="#FFFFFF" d="M56.2,1.4c-0.4-0.2-1.7-0.6-3.4-0.6c-5.8,0-7.7,3.7-7.7,7.6c0,4.3,2.2,7.6,7.7,7.6c1.5,0,3.1-0.5,3.4-0.6
	l-0.3-2.2c-0.3,0.1-1.7,0.7-3.3,0.7c-3.6,0-4.7-3.2-4.7-5.5c0-3.7,2.2-5.5,4.7-5.5c1.4,0,2.8,0.5,3.3,0.7L56.2,1.4z"/>
<path fill="#FFFFFF" d="M60.4,15.8c0,0,0-3.8,0-5.3c0-2.6,1.3-3.8,2.6-3.8c0.9,0,1.7,0.5,1.7,2.2c0,0.7,0,6.9,0,6.9h2.5
	c0,0,0-5.8,0-7.6c0-1.8-1.2-3.5-3.6-3.5c-1.5,0-2.4,0.6-3,1.5h-0.1V0.1h-2.5v15.8H60.4z"/>
<path fill="#FFFFFF" d="M74,4.8c-3.1,0-5,2.2-5,5.7c0,3.6,1.8,5.6,5.7,5.6c1.5,0,2.9-0.4,3.3-0.6c0-0.5-0.1-1.5-0.1-1.8
	c0-0.2-0.1-0.2-0.2-0.2c-0.1,0-0.2,0.1-0.4,0.2c-0.2,0.1-1.2,0.5-2.4,0.5c-2.2,0-3.4-1.4-3.4-3.2h7c0-0.2,0.1-1.2,0.1-1.5
	C78.6,7.3,77.6,4.8,74,4.8z M71.6,9.3c0-0.9,0.4-2.7,2.4-2.7c1.8,0,2.2,1.5,2.2,2.5c0,0.1,0,0.2,0,0.3H71.6z"/>
<path fill="#FFFFFF" d="M85,4.8c-3.5,0-5.3,2.2-5.3,5.7c0,3.8,2.1,5.7,5.3,5.7c1.5,0,2.6-0.6,2.9-0.7c0-0.5,0-1.4-0.1-1.6
	c0-0.2-0.1-0.2-0.2-0.2c-0.1,0-0.2,0.1-0.4,0.2c-0.2,0.1-1,0.5-2,0.5c-2.1,0-2.9-1.4-2.9-3.7c0-2.3,0.8-3.7,3-3.7c1,0,2,0.5,2.1,0.6
	c0.1,0,0.2,0.1,0.2,0.1c0.2,0,0.2-0.2,0.2-0.3c0-0.3,0.1-1,0.1-1.5C87.5,5.3,86.4,4.8,85,4.8z"/>
<path fill="#FFFFFF" d="M92.2,15.8v-5.5l3.7,5.5H99l-4.4-5.9l4-5h-2.9l-3.5,4.6V0.1h-2.5v15.8H92.2z"/>
<path fill="#FFFFFF" d="M104.3,4.8c-3.1,0-5,2.2-5,5.7c0,3.6,1.8,5.6,5.7,5.6c1.5,0,2.9-0.4,3.3-0.6c0-0.5-0.1-1.5-0.1-1.8
	c0-0.2-0.1-0.2-0.2-0.2c-0.1,0-0.2,0.1-0.4,0.2c-0.2,0.1-1.2,0.5-2.4,0.5c-2.2,0-3.4-1.4-3.4-3.2h7c0-0.2,0.1-1.2,0.1-1.5
	C109,7.3,107.9,4.8,104.3,4.8z M101.9,9.3c0-0.9,0.4-2.7,2.4-2.7c1.8,0,2.2,1.5,2.2,2.5c0,0.1,0,0.2,0,0.3H101.9z"/>
<path fill="#FFFFFF" d="M117.5,5c-0.2-0.1-0.7-0.2-1.7-0.2c-3.5,0-5.7,2.5-5.7,6.2c0,2,0.6,5.1,4.3,5.1c2.1,0,3-1.2,3.3-1.9h0.1
	c0,0,0,1.1,0,1.4c0,0.2,0.1,0.3,0.3,0.3c0.4,0,2,0,2,0c-0.1-0.9-0.1-2.2-0.1-3.3c0-0.8,0-12.5,0-12.5h-2.5V5z M115.8,6.7
	c1,0,1.5,0.2,1.7,0.2c0,0,0,3,0,3.6c0,2.6-1.2,3.7-2.5,3.7c-2,0-2.3-1.6-2.3-3.4C112.6,8.1,113.7,6.7,115.8,6.7z"/>
<path fill="#FFFFFF" d="M128,15.8c0,0,2.5,0,4.9,0c3.9,0,5.3-2.1,5.3-4.4c0-2.5-2-3.4-2.8-3.5V7.9c0.4-0.1,2.5-0.7,2.5-3.2
	c0-1.6-0.9-3.7-4.7-3.7c-1.3,0-5.2,0-5.2,0V15.8z M130.6,2.8c0.1,0,0.9,0,1.7,0c2.1,0,3,0.8,3,2.2c0,1.5-1.1,2.2-3,2.2
	c-0.4,0-1.7,0-1.7,0V2.8z M130.6,9.1c0,0,1.1,0,1.6,0c2.4,0,3.3,1,3.3,2.4c0,1.5-1.1,2.4-3.3,2.4c-0.5,0-1.3,0-1.6-0.1V9.1z"/>
<path fill="#FFFFFF" d="M140,5.5c0,0.3,0,1.3,0.1,1.7c0,0,0,0.2,0.2,0.2c0.1,0,0.3-0.1,0.4-0.1c0.3-0.2,1.4-0.6,2.7-0.6
	c1.4,0,2.3,0.5,2.3,1.8c0,0,0,0.4,0,0.4s-0.4,0-0.6,0c-2.8,0-6,0.9-6,3.8c0,2,1.4,3.5,3.4,3.5c2,0,2.9-1.1,3.2-1.6h0.1l0.1,0.9
	c0,0.3,0,0.5,0.4,0.5c0.3,0,2.1,0,2.1,0c-0.1-0.7-0.2-1.8-0.2-2.8V8.7c0-2.6-1.5-4-4.6-4C141.9,4.8,140.4,5.3,140,5.5z M145.2,10.3
	c0.3,0,0.6,0,0.6,0s0,0.7,0,0.8c0,1.7-0.9,3.1-2.4,3.1c-1.1,0-1.7-0.8-1.7-1.8C141.6,11.1,142.8,10.3,145.2,10.3z"/>
<path fill="#FFFFFF" d="M160,17.1c0-1.9-1.2-3-3.8-3h-2.1c-1.1,0-1.4-0.4-1.4-0.9c0-0.4,0.4-0.7,0.6-0.7c0.3,0.1,0.8,0.1,1.2,0.1
	c3,0,4.7-1.7,4.7-4c0-1-0.5-1.6-0.7-1.8c0,0,0.6,0,1,0c0.3,0,0.6,0,0.6-0.5c0-0.4,0.1-1,0.1-1.3h-3.7c-0.6-0.1-1.1-0.2-1.8-0.2
	c-3.1,0-4.8,1.9-4.8,4.2c0,2,1.2,3,1.9,3.2c-0.4,0.1-1.4,0.6-1.4,1.8c0,1.1,0.8,1.5,1.2,1.6c-0.7,0.2-1.9,1-1.9,2.5
	c0,2.1,1.6,3.3,4.7,3.3C157.8,21.3,160,19.5,160,17.1z M157.6,17.4c0,1.1-1,2-3,2c-1.5,0-2.5-0.6-2.5-1.8c0-0.9,0.7-1.5,1.1-1.7
	c0.2,0,0.4,0,0.6,0h1.7C157,16,157.6,16.6,157.6,17.4z M156.9,8.7c0,1.4-0.9,2.2-2.3,2.2c-1.5,0-2.3-0.8-2.3-2.2
	c0-1.3,0.8-2.2,2.4-2.2C156.1,6.5,156.9,7.3,156.9,8.7z"/>
<path fill="#FFFFFF" d="M167,15.8h2.6V9.2h5.1v-2h-5.1V3h5.4V1h-8V15.8z"/>
<path fill="#FFFFFF" d="M177.2,5c0,0.6,0.1,1.9,0.1,3.1c0,1,0,7.8,0,7.8h2.5c0,0,0-4.4,0-5.4c0-2.7,1.3-3.7,2.6-3.7
	c0.3,0,0.5,0,0.7,0.1c0.1,0,0.3,0.1,0.4,0.1c0.1,0,0.2-0.1,0.2-0.2c0-0.2,0.1-1.1,0.1-1.8c-0.1-0.1-0.6-0.2-1.3-0.2
	c-2.2,0-2.9,1.7-2.9,1.9h-0.1c0-0.2,0-1.1,0-1.4c0-0.1,0-0.3-0.3-0.3C178.7,5,177.2,5,177.2,5z"/>
<path fill="#FFFFFF" d="M188.8,4.8c-3.1,0-5,2.2-5,5.7c0,3.6,1.8,5.6,5.7,5.6c1.5,0,2.9-0.4,3.3-0.6c0-0.5-0.1-1.5-0.1-1.8
	c0-0.2-0.1-0.2-0.2-0.2c-0.1,0-0.2,0.1-0.4,0.2c-0.2,0.1-1.2,0.5-2.4,0.5c-2.2,0-3.4-1.4-3.4-3.2h7c0-0.2,0.1-1.2,0.1-1.5
	C193.5,7.3,192.4,4.8,188.8,4.8z M186.5,9.3c0-0.9,0.4-2.7,2.4-2.7c1.8,0,2.2,1.5,2.2,2.5c0,0.1,0,0.2,0,0.3H186.5z"/>
<path fill="#FFFFFF" d="M199.5,4.8c-3.1,0-5,2.2-5,5.7c0,3.6,1.8,5.6,5.7,5.6c1.5,0,2.9-0.4,3.3-0.6c0-0.5-0.1-1.5-0.1-1.8
	c0-0.2-0.1-0.2-0.2-0.2c-0.1,0-0.2,0.1-0.4,0.2c-0.2,0.1-1.2,0.5-2.4,0.5c-2.2,0-3.4-1.4-3.4-3.2h7c0-0.2,0.1-1.2,0.1-1.5
	C204.2,7.3,203.1,4.8,199.5,4.8z M197.2,9.3c0-0.9,0.4-2.7,2.4-2.7c1.8,0,2.2,1.5,2.2,2.5c0,0.1,0,0.2,0,0.3H197.2z"/>
<path fill="#FFFFFF" d="M12.2,39.4c-0.4-0.2-1.7-0.6-3.4-0.6c-5.8,0-7.7,3.7-7.7,7.6c0,4.3,2.2,7.6,7.7,7.6c1.5,0,3.1-0.5,3.4-0.6
	l-0.3-2.2c-0.3,0.1-1.7,0.7-3.3,0.7c-3.6,0-4.7-3.2-4.7-5.5c0-3.7,2.2-5.5,4.7-5.5c1.4,0,2.8,0.5,3.3,0.7L12.2,39.4z"/>
<path fill="#FFFFFF" d="M18.4,44.7c1.8,0,2.7,1.6,2.7,3.7c0,2.3-1.1,3.7-2.7,3.7c-2.2,0-2.7-2.1-2.7-3.7
	C15.7,46,16.8,44.7,18.4,44.7z M13.1,48.4c0,3.6,2,5.7,5.3,5.7c3.7,0,5.3-2.6,5.3-5.7c0-3.2-1.7-5.7-5.3-5.7
	C14.5,42.8,13.1,45.6,13.1,48.4z"/>
<path fill="#FFFFFF" d="M25.6,43c0,0.7,0.1,2,0.1,3.3s0,7.6,0,7.6h2.5c0,0,0-4.8,0-5.6c0-1.7,0.7-3.5,2.3-3.5c1.1,0,1.8,0.6,1.8,2.3
	c0,0.9,0,6.9,0,6.9h2.5c0,0,0-4.2,0-5.6c0-1.8,0.7-3.5,2.3-3.5c1.6,0,1.8,1.3,1.8,2.5c0,1.1,0,6.6,0,6.6h2.5c0,0,0-6.4,0-7.5
	c0-2.6-1.7-3.6-3.7-3.6c-2,0-3,1.3-3.3,2c-0.3-0.7-1.2-2-3.1-2c-2.3,0-3.1,1.6-3.2,1.9h-0.1c0,0,0-1.2,0-1.3s0-0.3-0.3-0.3
	C27.3,43,25.6,43,25.6,43z"/>
<path fill="#FFFFFF" d="M46.5,53.8c0.2,0.1,0.7,0.2,1.7,0.2c3.5,0,5.7-2.5,5.7-6.2c0-2-0.6-5.1-4.3-5.1c-2.1,0-3,1.2-3.3,1.9h-0.1
	c0,0,0-1.1,0-1.4c0-0.2-0.1-0.3-0.3-0.3c-0.4,0-2,0-2,0c0.1,0.8,0.1,2.2,0.1,3.3c0,0.8,0,12.6,0,12.6h2.5V53.8z M48.2,52.1
	c-1,0-1.5-0.2-1.7-0.2c0,0,0-3,0-3.6c0-2.6,1.3-3.7,2.5-3.7c2,0,2.3,1.6,2.3,3.4C51.3,50.8,50.2,52.1,48.2,52.1z"/>
<path fill="#FFFFFF" d="M55.8,43.5c0,0.3,0,1.3,0.1,1.7c0,0,0,0.2,0.2,0.2c0.1,0,0.3-0.1,0.4-0.1c0.3-0.2,1.4-0.6,2.7-0.6
	c1.4,0,2.3,0.5,2.3,1.8c0,0,0,0.4,0,0.4s-0.4,0-0.6,0c-2.8,0-6,0.9-6,3.8c0,2,1.4,3.5,3.4,3.5c2,0,2.9-1.1,3.2-1.6h0.1l0.1,0.9
	c0,0.3,0,0.5,0.4,0.5c0.3,0,2.1,0,2.1,0C64.1,53.1,64,52,64,51v-4.3c0-2.6-1.5-4-4.6-4C57.7,42.8,56.2,43.3,55.8,43.5z M61,48.3
	c0.3,0,0.6,0,0.6,0s0,0.7,0,0.8c0,1.7-0.9,3.1-2.4,3.1c-1.1,0-1.7-0.8-1.7-1.8C57.4,49.1,58.6,48.3,61,48.3z"/>
<path fill="#FFFFFF" d="M68.8,53.8c0,0,0-3.8,0-5.3c0-2.6,1.3-3.8,2.6-3.8c0.9,0,1.7,0.5,1.7,2.2c0,0.7,0,6.9,0,6.9h2.5
	c0,0,0-5.8,0-7.6c0-1.8-1.3-3.5-3.7-3.5c-1.7,0-2.7,0.7-3.3,1.9h-0.1c0,0,0-1.1,0-1.4c0-0.2-0.1-0.3-0.3-0.3c-0.4,0-2,0-2,0
	c0,0.8,0.1,2.2,0.1,3.3c0,0.8,0,7.5,0,7.5H68.8z"/>
<path fill="#FFFFFF" d="M78.3,53.8V43h2.5v10.9H78.3z M78.2,40.5h2.6V38h-2.6V40.5z"/>
<path fill="#FFFFFF" d="M87.9,44.7c1.8,0,2.7,1.6,2.7,3.7c0,2.3-1.1,3.7-2.7,3.7c-2.2,0-2.7-2.1-2.7-3.7
	C85.2,46,86.3,44.7,87.9,44.7z M82.7,48.4c0,3.6,2,5.7,5.3,5.7c3.7,0,5.3-2.6,5.3-5.7c0-3.2-1.7-5.7-5.3-5.7
	C84,42.8,82.7,45.6,82.7,48.4z"/>
<path fill="#FFFFFF" d="M97.7,53.8c0,0,0-3.8,0-5.3c0-2.6,1.3-3.8,2.6-3.8c0.9,0,1.7,0.5,1.7,2.2c0,0.7,0,6.9,0,6.9h2.5
	c0,0,0-5.8,0-7.6c0-1.8-1.3-3.5-3.7-3.5c-1.7,0-2.7,0.7-3.3,1.9h-0.1c0,0,0-1.1,0-1.4c0-0.2-0.1-0.3-0.3-0.3c-0.4,0-2,0-2,0
	c0,0.8,0.1,2.2,0.1,3.3c0,0.8,0,7.5,0,7.5H97.7z"/>
<path fill="#FFFFFF" d="M122.6,39.4c-0.4-0.2-1.7-0.6-3.4-0.6c-5.8,0-7.7,3.7-7.7,7.6c0,4.3,2.2,7.6,7.7,7.6c1.5,0,3.1-0.5,3.4-0.6
	l-0.3-2.2c-0.3,0.1-1.7,0.7-3.3,0.7c-3.6,0-4.7-3.2-4.7-5.5c0-3.7,2.2-5.5,4.7-5.5c1.4,0,2.8,0.5,3.3,0.7L122.6,39.4z"/>
<path fill="#FFFFFF" d="M128.5,42.8c-3.1,0-5,2.2-5,5.7c0,3.6,1.8,5.6,5.7,5.6c1.5,0,2.9-0.4,3.3-0.6c0-0.5-0.1-1.5-0.1-1.8
	c0-0.2-0.1-0.2-0.2-0.2c-0.1,0-0.2,0.1-0.4,0.2c-0.2,0.1-1.2,0.5-2.4,0.5c-2.2,0-3.4-1.4-3.4-3.2h7c0-0.2,0.1-1.2,0.1-1.5
	C133.2,45.3,132.1,42.8,128.5,42.8z M126.2,47.3c0-0.9,0.4-2.7,2.4-2.7c1.8,0,2.2,1.5,2.2,2.5c0,0.1,0,0.2,0,0.3H126.2z"/>
<path fill="#FFFFFF" d="M135,43c0,0.6,0.1,1.9,0.1,3.1c0,1,0,7.8,0,7.8h2.5c0,0,0-4.4,0-5.4c0-2.7,1.3-3.7,2.6-3.7
	c0.3,0,0.5,0,0.7,0.1c0.1,0,0.3,0.1,0.4,0.1c0.1,0,0.2-0.1,0.2-0.2c0-0.2,0.1-1.1,0.1-1.8c-0.1-0.1-0.6-0.2-1.3-0.2
	c-2.2,0-2.9,1.7-2.9,1.9h-0.1c0-0.2,0-1.1,0-1.4c0-0.1,0-0.3-0.3-0.3C136.6,43,135,43,135,43z"/>
<path fill="#FFFFFF" d="M148.1,54.1c0.9,0,1.5-0.2,1.7-0.2c0-0.4-0.1-1.6-0.1-1.6c0-0.2-0.1-0.3-0.2-0.3c-0.2,0-0.6,0.2-1.2,0.2
	c-0.9,0-1.4-0.5-1.4-1.5v-5.8h2.6V43h-2.6v-2.4h-2.5V43h-1.5v1.9h1.5v5.4C144.4,52.5,145.4,54.1,148.1,54.1z"/>
<path fill="#FFFFFF" d="M151.2,53.8V43h2.5v10.9H151.2z M151.2,40.5h2.6V38h-2.6V40.5z"/>
<path fill="#FFFFFF" d="M159.3,43v-0.7c0-1.3,0.5-2.6,2.6-2.6c1,0,2,0.3,2.3,0.3c0.2,0,0.2-0.1,0.2-0.3c0,0,0.1-1.2,0.1-1.6
	c-0.2-0.1-1.7-0.4-2.6-0.4c-3.3,0-5.1,1.5-5.1,4.6c0,0.2,0,0.7,0,0.7h-1.5v1.9h1.5c0,3.7,0,9,0,9h2.5c0,0,0-5.4,0-9h3.9v9h2.5V43
	H159.3z"/>
<path fill="#FFFFFF" d="M172.8,42.8c-3.5,0-5.3,2.2-5.3,5.7c0,3.8,2.1,5.7,5.3,5.7c1.5,0,2.6-0.6,2.9-0.7c0-0.5,0-1.4-0.1-1.6
	c0-0.2-0.1-0.2-0.2-0.2c-0.1,0-0.2,0.1-0.4,0.2c-0.2,0.1-1,0.5-2,0.5c-2.1,0-2.9-1.4-2.9-3.7c0-2.3,0.8-3.7,3-3.7c1,0,2,0.5,2.1,0.6
	c0.1,0,0.2,0.1,0.2,0.1c0.2,0,0.2-0.2,0.2-0.3c0-0.3,0.1-1,0.1-1.5C175.3,43.3,174.2,42.8,172.8,42.8z"/>
<path fill="#FFFFFF" d="M177.6,43.5c0,0.3,0,1.3,0.1,1.7c0,0,0,0.2,0.2,0.2c0.1,0,0.3-0.1,0.4-0.1c0.3-0.2,1.4-0.6,2.7-0.6
	c1.4,0,2.3,0.5,2.3,1.8c0,0,0,0.4,0,0.4s-0.4,0-0.6,0c-2.8,0-6,0.9-6,3.8c0,2,1.4,3.5,3.4,3.5c2,0,2.9-1.1,3.2-1.6h0.1l0.1,0.9
	c0,0.3,0,0.5,0.4,0.5c0.3,0,2.1,0,2.1,0c-0.1-0.7-0.2-1.8-0.2-2.8v-4.3c0-2.6-1.5-4-4.6-4C179.5,42.8,178,43.3,177.6,43.5z
	 M182.7,48.3c0.3,0,0.6,0,0.6,0s0,0.7,0,0.8c0,1.7-0.9,3.1-2.4,3.1c-1.1,0-1.7-0.8-1.7-1.8C179.2,49.1,180.3,48.3,182.7,48.3z"/>
<path fill="#FFFFFF" d="M192.1,54.1c0.9,0,1.5-0.2,1.7-0.2c0-0.4-0.1-1.6-0.1-1.6c0-0.2-0.1-0.3-0.2-0.3c-0.2,0-0.6,0.2-1.2,0.2
	c-0.9,0-1.4-0.5-1.4-1.5v-5.8h2.6V43h-2.6v-2.4h-2.5V43h-1.5v1.9h1.5v5.4C188.4,52.5,189.4,54.1,192.1,54.1z"/>
<path fill="#FFFFFF" d="M199.4,42.8c-3.1,0-5,2.2-5,5.7c0,3.6,1.8,5.6,5.7,5.6c1.5,0,2.9-0.4,3.3-0.6c0-0.5-0.1-1.5-0.1-1.8
	c0-0.2-0.1-0.2-0.2-0.2c-0.1,0-0.2,0.1-0.4,0.2c-0.2,0.1-1.2,0.5-2.4,0.5c-2.2,0-3.4-1.4-3.4-3.2h7c0-0.2,0.1-1.2,0.1-1.5
	C204,45.3,203,42.8,199.4,42.8z M197,47.3c0-0.9,0.4-2.7,2.4-2.7c1.8,0,2.2,1.5,2.2,2.5c0,0.1,0,0.2,0,0.3H197z"/>
<path fill="#FFFFFF" d="M16.9,91.8c0,0,2.5,0,4.9,0c3.9,0,5.3-2.1,5.3-4.4c0-2.5-2-3.4-2.8-3.5v-0.1c0.4-0.1,2.5-0.7,2.5-3.2
	c0-1.6-0.9-3.7-4.7-3.7c-1.3,0-5.2,0-5.2,0V91.8z M19.6,78.8c0.1,0,0.9,0,1.7,0c2.1,0,3,0.8,3,2.2c0,1.5-1.1,2.2-3,2.2
	c-0.4,0-1.7,0-1.7,0V78.8z M19.6,85.1c0,0,1.1,0,1.6,0c2.4,0,3.3,1,3.3,2.4c0,1.5-1.1,2.4-3.3,2.4c-0.5,0-1.3,0-1.6-0.1V85.1z"/>
<path fill="#FFFFFF" d="M33.4,82.7c1.8,0,2.7,1.6,2.7,3.7c0,2.3-1.1,3.7-2.7,3.7c-2.2,0-2.7-2.1-2.7-3.7
	C30.7,84,31.8,82.7,33.4,82.7z M28.2,86.4c0,3.6,2,5.7,5.3,5.7c3.7,0,5.3-2.6,5.3-5.7c0-3.2-1.7-5.7-5.3-5.7
	C29.5,80.8,28.2,83.6,28.2,86.4z"/>
<path fill="#FFFFFF" d="M40.6,81.5c0,0.3,0,1.3,0.1,1.7c0,0,0,0.2,0.2,0.2c0.1,0,0.3-0.1,0.4-0.1c0.3-0.2,1.4-0.6,2.7-0.6
	c1.4,0,2.3,0.5,2.3,1.8c0,0,0,0.4,0,0.4s-0.4,0-0.6,0c-2.8,0-6,0.9-6,3.8c0,2,1.4,3.5,3.4,3.5c2,0,2.9-1.1,3.2-1.6h0.1l0.1,0.9
	c0,0.3,0,0.5,0.4,0.5c0.3,0,2.1,0,2.1,0c-0.1-0.7-0.2-1.8-0.2-2.8v-4.3c0-2.6-1.5-4-4.6-4C42.5,80.8,41,81.3,40.6,81.5z M45.8,86.3
	c0.3,0,0.6,0,0.6,0s0,0.7,0,0.8c0,1.7-0.9,3.1-2.4,3.1c-1.1,0-1.7-0.8-1.7-1.8C42.2,87.1,43.4,86.3,45.8,86.3z"/>
<path fill="#FFFFFF" d="M51.1,81c0,0.6,0.1,1.9,0.1,3.1c0,1,0,7.8,0,7.8h2.5c0,0,0-4.4,0-5.4c0-2.7,1.3-3.7,2.6-3.7
	c0.3,0,0.5,0,0.7,0.1c0.1,0,0.3,0.1,0.4,0.1c0.1,0,0.2-0.1,0.2-0.2c0-0.2,0.1-1.1,0.1-1.8c-0.1-0.1-0.6-0.2-1.3-0.2
	c-2.2,0-2.9,1.7-2.9,1.9h-0.1c0-0.2,0-1.1,0-1.4c0-0.1,0-0.3-0.3-0.3C52.6,81,51.1,81,51.1,81z"/>
<path fill="#FFFFFF" d="M65.2,81c-0.2-0.1-0.7-0.2-1.7-0.2c-3.5,0-5.7,2.5-5.7,6.2c0,2,0.6,5.1,4.3,5.1c2.1,0,3-1.2,3.3-1.9h0.1
	c0,0,0,1.1,0,1.4c0,0.2,0.1,0.3,0.3,0.3c0.4,0,2,0,2,0c-0.1-0.9-0.1-2.2-0.1-3.3c0-0.8,0-12.5,0-12.5h-2.5V81z M63.5,82.7
	c1,0,1.5,0.2,1.7,0.2c0,0,0,3,0,3.6c0,2.6-1.2,3.7-2.5,3.7c-2,0-2.3-1.6-2.3-3.4C60.3,84.1,61.4,82.7,63.5,82.7z"/>
<path fill="#FFFFFF" d="M70.4,91.8V81h2.5v10.9H70.4z M70.4,78.5H73V76h-2.6V78.5z"/>
<path fill="#FFFFFF" d="M78.2,91.8c0,0,0-3.8,0-5.3c0-2.6,1.3-3.8,2.6-3.8c0.9,0,1.7,0.5,1.7,2.2c0,0.7,0,6.9,0,6.9h2.5
	c0,0,0-5.8,0-7.6c0-1.8-1.3-3.5-3.7-3.5c-1.7,0-2.7,0.7-3.3,1.9h-0.1c0,0,0-1.1,0-1.4c0-0.2-0.1-0.3-0.3-0.3c-0.4,0-2,0-2,0
	c0,0.8,0.1,2.2,0.1,3.3c0,0.8,0,7.5,0,7.5H78.2z"/>
<path fill="#FFFFFF" d="M97.1,93.1c0-1.9-1.2-3-3.8-3h-2.1c-1.1,0-1.4-0.4-1.4-0.9c0-0.4,0.4-0.7,0.6-0.7c0.3,0.1,0.8,0.1,1.2,0.1
	c3,0,4.7-1.7,4.7-4c0-1-0.5-1.6-0.7-1.8c0,0,0.6,0,1,0c0.3,0,0.6,0,0.6-0.5c0-0.4,0.1-1,0.1-1.3h-3.7c-0.6-0.1-1.1-0.2-1.8-0.2
	c-3.1,0-4.8,1.9-4.8,4.2c0,2,1.2,3,1.9,3.2c-0.4,0.1-1.4,0.6-1.4,1.8c0,1.1,0.8,1.5,1.2,1.6c-0.7,0.2-1.9,1-1.9,2.5
	c0,2.1,1.6,3.3,4.7,3.3C95,97.3,97.1,95.5,97.1,93.1z M94.7,93.4c0,1.1-1,2-3,2c-1.5,0-2.5-0.6-2.5-1.8c0-0.9,0.7-1.5,1.1-1.7
	c0.2,0,0.4,0,0.6,0h1.7C94.1,92,94.7,92.6,94.7,93.4z M94,84.7c0,1.4-0.9,2.2-2.3,2.2c-1.5,0-2.3-0.8-2.3-2.2c0-1.3,0.8-2.2,2.4-2.2
	C93.2,82.5,94,83.3,94,84.7z"/>
<path fill="#FFFFFF" d="M106.7,84.4v-5.5c0.1,0,0.4,0,1.1,0c2.1,0,3.3,1,3.3,2.8c0,1.7-1.1,2.8-3.3,2.8
	C107.4,84.4,106.9,84.4,106.7,84.4z M108.3,86.4c3.4,0,5.5-1.8,5.5-4.8c0-2.5-1.9-4.6-5.3-4.6c-2.2,0-4.4,0-4.4,0v14.8h2.6v-5.5
	C106.9,86.3,107.9,86.4,108.3,86.4z"/>
<path fill="#FFFFFF" d="M115.6,81c0,0.6,0.1,1.9,0.1,3.1c0,1,0,7.8,0,7.8h2.5c0,0,0-4.4,0-5.4c0-2.7,1.3-3.7,2.6-3.7
	c0.3,0,0.5,0,0.7,0.1c0.1,0,0.3,0.1,0.4,0.1c0.1,0,0.2-0.1,0.2-0.2c0-0.2,0.1-1.1,0.1-1.8c-0.1-0.1-0.6-0.2-1.3-0.2
	c-2.2,0-2.9,1.7-2.9,1.9h-0.1c0-0.2,0-1.1,0-1.4c0-0.1,0-0.3-0.3-0.3C117.1,81,115.6,81,115.6,81z"/>
<path fill="#FFFFFF" d="M123.7,91.8V81h2.5v10.9H123.7z M123.7,78.5h2.6V76h-2.6V78.5z"/>
<path fill="#FFFFFF" d="M131.6,91.8h2.6l4.1-10.9h-2.6l-2.6,8H133l-2.7-8h-2.7L131.6,91.8z"/>
<path fill="#FFFFFF" d="M139.7,91.8V81h2.5v10.9H139.7z M139.7,78.5h2.6V76h-2.6V78.5z"/>
<path fill="#FFFFFF" d="M147.4,91.8V76.1h-2.5v15.8H147.4z"/>
<path fill="#FFFFFF" d="M154.2,80.8c-3.1,0-5,2.2-5,5.7c0,3.6,1.8,5.6,5.7,5.6c1.5,0,2.9-0.4,3.3-0.6c0-0.5-0.1-1.5-0.1-1.8
	c0-0.2-0.1-0.2-0.2-0.2s-0.2,0.1-0.4,0.2c-0.2,0.1-1.2,0.5-2.4,0.5c-2.2,0-3.4-1.4-3.4-3.2h7c0-0.2,0.1-1.2,0.1-1.5
	C158.8,83.3,157.8,80.8,154.2,80.8z M151.8,85.3c0-0.9,0.4-2.7,2.4-2.7c1.8,0,2.2,1.5,2.2,2.5c0,0.1,0,0.2,0,0.3H151.8z"/>
<path fill="#FFFFFF" d="M170.2,93.1c0-1.9-1.2-3-3.8-3h-2.1c-1.1,0-1.4-0.4-1.4-0.9c0-0.4,0.4-0.7,0.6-0.7c0.3,0.1,0.8,0.1,1.2,0.1
	c3,0,4.7-1.7,4.7-4c0-1-0.5-1.6-0.7-1.8c0,0,0.6,0,1,0c0.3,0,0.6,0,0.6-0.5c0-0.4,0.1-1,0.1-1.3h-3.7c-0.6-0.1-1.1-0.2-1.8-0.2
	c-3.1,0-4.8,1.9-4.8,4.2c0,2,1.2,3,1.9,3.2c-0.4,0.1-1.4,0.6-1.4,1.8c0,1.1,0.8,1.5,1.2,1.6c-0.7,0.2-1.9,1-1.9,2.5
	c0,2.1,1.6,3.3,4.7,3.3C168.1,97.3,170.2,95.5,170.2,93.1z M167.8,93.4c0,1.1-1,2-3,2c-1.5,0-2.5-0.6-2.5-1.8c0-0.9,0.7-1.5,1.1-1.7
	c0.2,0,0.4,0,0.6,0h1.7C167.2,92,167.8,92.6,167.8,93.4z M167.2,84.7c0,1.4-0.9,2.2-2.3,2.2c-1.5,0-2.3-0.8-2.3-2.2
	c0-1.3,0.8-2.2,2.4-2.2C166.3,82.5,167.2,83.3,167.2,84.7z"/>
<path fill="#FFFFFF" d="M176.1,80.8c-3.1,0-5,2.2-5,5.7c0,3.6,1.8,5.6,5.7,5.6c1.5,0,2.9-0.4,3.3-0.6c0-0.5-0.1-1.5-0.1-1.8
	c0-0.2-0.1-0.2-0.2-0.2s-0.2,0.1-0.4,0.2c-0.2,0.1-1.2,0.5-2.4,0.5c-2.2,0-3.4-1.4-3.4-3.2h7c0-0.2,0.1-1.2,0.1-1.5
	C180.8,83.3,179.7,80.8,176.1,80.8z M173.8,85.3c0-0.9,0.4-2.7,2.4-2.7c1.8,0,2.2,1.5,2.2,2.5c0,0.1,0,0.2,0,0.3H173.8z"/>
<path fill="#FFFFFF" d="M186,80.8c-2.1,0-4.1,1.1-4.1,3.2c0,2,1.3,2.7,2.1,3l1.2,0.5c1.1,0.4,1.4,0.9,1.4,1.4c0,0.7-0.6,1.3-2,1.3
	c-0.8,0-1.6-0.2-1.8-0.2c-0.1,0-0.3-0.1-0.4-0.1c-0.2,0-0.2,0.1-0.2,0.3c0,0.4-0.1,1.5-0.1,1.8c0.2,0.1,1.1,0.2,2.4,0.2
	c2.3,0,4.7-0.9,4.7-3.5c0-1.6-1.3-2.5-2.2-2.9l-1.1-0.4c-1-0.4-1.4-0.7-1.4-1.5c0-0.7,0.6-1.3,1.9-1.3c0.8,0,1.5,0.2,1.7,0.3
	c0.1,0,0.1,0.1,0.3,0.1c0.2,0,0.2-0.1,0.2-0.4c0-0.6,0.1-1.2,0.1-1.5C188.3,80.9,187.3,80.8,186,80.8z"/>
</svg>
