<?xml version="1.0" encoding="utf-8"?>
<!-- Generator: Adobe Illustrator 18.1.1, SVG Export Plug-In . SVG Version: 6.00 Build 0)  -->
<svg version="1.1" id="Layer_1" xmlns="http://www.w3.org/2000/svg" xmlns:xlink="http://www.w3.org/1999/xlink" x="0px" y="0px"
	 viewBox="-128 117 41.7 18" enable-background="new -128 117 41.7 18" xml:space="preserve">
<path fill="#E51D46" d="M-107.7,126c0,2,1.5,3,3.1,3.9l1.4,0.8c0.8,0.4,1.1,0.9,1.1,1.6c0,0.9-0.7,1.5-1.7,1.5c-2,0-2.6-1.6-2.9-3.2
	l0-0.2h-1v4.5h0.8l0.1-0.1c0.2-0.2,0.2-0.2,0.3-0.2c0.3,0,0.7,0.1,1.1,0.2c0.5,0.1,1.2,0.3,1.8,0.3c1.6,0,3.9-1.1,3.9-3.5
	c0-1.7-1-2.5-2.2-3.2c0,0-2.7-1.6-2.7-1.6c-0.6-0.4-0.9-0.9-0.9-1.5c0-0.5,0.4-1.3,1.6-1.3c0.9,0,1.9,0.3,2.5,2.8l0.1,0.2h0.9
	l-0.1-4h-0.8l-0.1,0.2c0,0.1-0.1,0.1-0.2,0.1c0,0-0.3-0.1-0.4-0.1c-0.5-0.2-1.2-0.4-1.9-0.4C-106.1,122.6-107.7,124-107.7,126"/>
<path fill="#E51D46" d="M-125.2,128.3c0-3.2,1.5-4.3,2.8-4.3c1.4,0,2.3,1.2,2.3,2.3v5.5c-0.2,0.7-1,1.2-1.9,1.2
	C-123.5,133-125.2,131.8-125.2,128.3 M-117.9,117L-117.9,117c-0.5,0.2-2.3,0.8-3.7,1.1l-0.2,0.1v1l0.3,0c0.8-0.1,1.1,0,1.2,0.1
	c0.1,0.1,0.1,0.4,0.1,0.7v3.3c-0.7-0.5-1.4-0.7-2.3-0.7c-1.4,0-2.8,0.7-3.9,2c-1,1.2-1.6,2.9-1.6,4.5c0,5.7,4.4,5.9,4.9,5.9
	c1.2,0,2.2-0.4,3-1.1v0.9l0.4,0.3l4-1.4v-1l-0.3,0c-0.8,0.1-1.1-0.1-1.2-0.2c-0.1-0.1-0.1-0.3-0.1-0.6v-14.7L-117.9,117L-117.9,117z
	"/>
<path fill="#E51D46" d="M-87.8,133.7c-1.1-0.2-1.2-0.2-1.2-1.8v-5c0-2.8-1.1-4.3-3.4-4.3c-1.3,0-2.4,0.5-3.4,1.6v-6.9l-0.4-0.2l0,0
	l-0.1,0c-0.5,0.2-2.6,0.8-3.5,1.1l-0.2,0.1v1l0.3,0c0.2,0,0.4,0,0.6,0c0.2,0,0.4,0,0.5,0.1c0.2,0.2,0.2,0.5,0.1,0.7c0,0,0,0.1,0,0.1
	v11.7c0,1.6-0.1,1.7-1.3,1.9l-0.3,0v1h5.8v-1l-0.1,0c-1.1-0.1-1.4-0.2-1.4-1.8V126c0.1-0.2,1.2-1.4,2.4-1.4c1.1,0,1.6,0.7,1.6,2.4
	v4.9c0,1.6-0.3,1.7-1.4,1.8l0,0v1h5.7v-0.9L-87.8,133.7"/>
<path fill="#E51D46" d="M-111.8,134.5c1.9,0,2.9-1.1,3.6-2.4c0-0.1,0-0.1-0.1-0.1c-0.5,0.2-1.8,0.9-3.5,0.9c-1.6,0-3-0.6-3.5-0.9
	c-0.1,0-0.1,0-0.1,0.1C-114.6,133.4-113.7,134.5-111.8,134.5"/>
<path fill="#E51D46" d="M-114.6,128.9c0.5,1,1.3,1.9,2.8,1.9c1.5,0,2.3-0.9,2.8-1.9c0-0.1,0-0.1-0.1-0.1c-0.3,0.2-1.4,0.6-2.7,0.6
	C-113.1,129.4-114.2,129-114.6,128.9C-114.6,128.8-114.6,128.8-114.6,128.9"/>
<path fill="#E51D46" d="M-113.9,126c0.4,0.8,1,1.5,2.1,1.5s1.7-0.7,2.1-1.5c0-0.1,0-0.1-0.1-0.1c-0.2,0.1-1,0.4-2,0.4
	C-112.8,126.3-113.6,126-113.9,126C-113.9,125.9-113.9,125.9-113.9,126"/>
<path fill="#E51D46" d="M-111.8,124.3c0.8,0,1.2-0.5,1.4-1c0,0,0-0.1,0-0.1c0,0-0.6,0.2-1.4,0.2s-1.4-0.2-1.4-0.2c0,0-0.1,0,0,0.1
	C-112.9,123.8-112.6,124.3-111.8,124.3"/>
<path fill="#E51D46" d="M-113.9,119.2c0-1.2,1-2.2,2.2-2.2c1.2,0,2.2,1,2.2,2.2c0,1.2-1,2.2-2.2,2.2S-113.9,120.4-113.9,119.2"/>
<path fill="#E51D46" d="M-86.7,134.3l0.2,0.2h-0.1L-86.7,134.3l-0.2,0v0.2h-0.1V134h0.2c0.1,0,0.2,0,0.2,0.2
	C-86.5,134.2-86.6,134.3-86.7,134.3 M-86.7,134.2c0.1,0,0.1,0,0.1-0.1c0-0.1-0.1-0.1-0.1-0.1h-0.1L-86.7,134.2L-86.7,134.2z"/>
<path fill="#E51D46" d="M-86.3,134.2c0,0.3-0.2,0.5-0.5,0.5c-0.3,0-0.5-0.2-0.5-0.5c0-0.3,0.2-0.5,0.5-0.5
	C-86.5,133.8-86.3,134-86.3,134.2 M-86.4,134.2c0-0.2-0.2-0.4-0.4-0.4c-0.2,0-0.4,0.2-0.4,0.4c0,0.2,0.2,0.4,0.4,0.4
	C-86.5,134.6-86.4,134.5-86.4,134.2"/>
<rect x="-128" y="117" fill="none" width="41.7" height="18"/>
</svg>
