<?xml version="1.0" encoding="utf-8"?>
<!-- Generator: Adobe Illustrator 18.1.1, SVG Export Plug-In . SVG Version: 6.00 Build 0)  -->
<svg version="1.1" id="Layer_1" xmlns="http://www.w3.org/2000/svg" xmlns:xlink="http://www.w3.org/1999/xlink" x="0px" y="0px"
	 width="300px" height="250px" viewBox="0 0 300 250" enable-background="new 0 0 300 250" xml:space="preserve">
<path fill="#ED1A47" d="M62.1,131.6h12.8v-4h-4.1v-15.2h-4.1l-5.2,4.9l2.7,2.9l1.2-1.1c0.5-0.5,0.8-1,0.8-1h0.1c0,0,0,0.8,0,1.5v8
	h-4.1V131.6z"/>
<path fill="#ED1A47" d="M81.2,131.9c6,0,9.2-5.5,9.2-10.7c0-6.3-3.9-9.2-7.8-9.2c-4.2,0-6.6,3.2-6.6,6.5c0,3.3,2.3,6.6,6.3,6.6
	c0.9,0,2.2-0.3,2.6-0.7h0.1c-0.6,1.8-1.9,3.2-4.2,3.2c-1.4,0-2.6-0.6-2.6-0.6l-1.3,4C77,131,78.5,131.9,81.2,131.9z M83.6,121.2
	c-2.1,0-2.9-1.5-2.9-2.8c0-1.1,0.8-2.2,1.9-2.2c1.3,0,3,1.5,3,3.8C85.6,121,84.7,121.2,83.6,121.2z"/>
<path fill="#ED1A47" d="M99.8,131.9c5.5,0,7.3-4.5,7.3-10c0-5.5-1.8-9.9-7.3-9.9c-5.5,0-7.3,4.4-7.3,9.9
	C92.5,127.4,94.3,131.9,99.8,131.9z M99.8,127.6c-1.9,0-2.4-2.5-2.4-5.7c0-3.1,0.5-5.6,2.4-5.6c1.9,0,2.4,2.5,2.4,5.6
	C102.2,125,101.7,127.6,99.8,127.6z"/>
<path fill="#ED1A47" d="M114.5,121.9c0,5.7,4.1,10,10.1,10c5,0,7.8-3.2,7.8-3.2l-2.4-3.5c0,0-2.2,2.4-5.1,2.4
	c-3.6,0-5.5-2.9-5.5-5.8c0-2.8,1.8-5.5,5.5-5.5c2.7,0,4.8,2,4.8,2l2.2-3.6c0,0-2.5-2.7-7.2-2.7C118.8,111.9,114.5,116.3,114.5,121.9
	z"/>
<path fill="#ED1A47" d="M134.2,131.6h4.7v-6.2c0-0.6,0.1-1.2,0.2-1.8c0.4-1.2,1.3-2.1,2.8-2.1c1,0,1.5,0.5,1.5,1.8v8.1h4.7v-9
	c0-3.9-2.2-5.2-5-5.2c-1.8,0-3.5,0.8-4.2,2.2h-0.1c0,0,0.1-0.5,0.1-1.2v-6.1h-4.7V131.6z"/>
<path fill="#ED1A47" d="M149.7,127.4c0,2.8,2.1,4.5,4.7,4.5c2.9,0,3.9-2,3.9-2h0.1c0,0-0.1,0.4-0.1,0.9v0.8h4.3V123
	c0-3.5-2.3-5.7-6.3-5.7c-3.4,0-5.8,1.8-5.8,1.8l1.6,3.3c0,0,2-1.3,3.8-1.3c1.2,0,2.1,0.4,2.1,1.5v0.2h-0.2
	C155.7,122.9,149.7,123.3,149.7,127.4z M154.4,127.2c0-1.2,1.7-1.6,3.2-1.6h0.4v0.3c0,1.1-1.1,2.5-2.3,2.5
	C154.8,128.3,154.4,127.8,154.4,127.2z"/>
<path fill="#ED1A47" d="M165.4,131.6h4.7v-6.2c0-0.7,0.1-1.3,0.3-1.8c0.4-1.2,1.3-2,2.8-2c1,0,1.5,0.5,1.5,1.8v8.1h4.7v-9
	c0-3.9-2.2-5.2-5-5.2c-2.5,0-3.8,1.3-4.4,2.4h-0.1c0,0,0.1-0.4,0.1-0.9v-1.2h-4.5V131.6z"/>
<path fill="#ED1A47" d="M182,131.6h4.7v-6.2c0-0.7,0.1-1.3,0.3-1.8c0.4-1.2,1.3-2,2.8-2c1,0,1.5,0.5,1.5,1.8v8.1h4.7v-9
	c0-3.9-2.2-5.2-5-5.2c-2.5,0-3.8,1.3-4.4,2.4h-0.1c0,0,0.1-0.4,0.1-0.9v-1.2H182V131.6z"/>
<path fill="#ED1A47" d="M197.6,124.6c0,3.7,2.7,7.3,7.6,7.3c3.7,0,5.9-2,5.9-2l-1.7-3.3c0,0-1.8,1.4-3.8,1.4c-1.5,0-2.9-0.8-3.2-2.5
	h8.8c0,0,0.1-1,0.1-1.5c0-3.9-2.3-6.7-6.4-6.7C200.4,117.3,197.6,120.5,197.6,124.6z M202.5,122.8c0.2-1,0.9-2,2.2-2
	c1.1,0,1.8,0.9,1.8,2H202.5z"/>
<path fill="#ED1A47" d="M213.1,126.4c0,4.7,2.6,5.3,5.1,5.3c0.8,0,1.4-0.1,1.4-0.1v-4c0,0-0.3,0-0.6,0c-1.1,0-1.3-0.5-1.3-1.8v-13.5
	h-4.7V126.4z"/>
<path fill="#ED1A47" d="M220.4,129.8c0,0,2.1,2.1,5.6,2.1c3.6,0,5.7-2,5.7-4.4c0-4.5-6.5-4.6-6.5-5.7c0-0.5,0.7-0.7,1.4-0.7
	c1.9,0,3.3,1.1,3.3,1.1l1.6-3.3c0,0-1.6-1.6-4.9-1.6c-3.2,0-5.7,1.6-5.7,4.2c0,4.5,6.5,4.7,6.5,5.9c0,0.5-0.7,0.6-1.4,0.6
	c-2,0-3.5-1.4-3.5-1.4L220.4,129.8z"/>
<path fill="#ED1A47" d="M233.5,131.6h4.4v-4.4h-4.4V131.6z"/>
</svg>
