<?xml version="1.0" encoding="utf-8"?>
<!-- Generator: Adobe Illustrator 18.1.1, SVG Export Plug-In . SVG Version: 6.00 Build 0)  -->
<svg version="1.1" id="Layer_1" xmlns="http://www.w3.org/2000/svg" xmlns:xlink="http://www.w3.org/1999/xlink" x="0px" y="0px"
	 width="300px" height="250px" viewBox="0 0 300 250" enable-background="new 0 0 300 250" xml:space="preserve">
<path fill="#1F2D60" d="M29.5,125.3h-4l-3.9,6.5l-3.8-6.5h-4.1l6.2,9.7v6.3h3.5V135L29.5,125.3z"/>
<path fill="#1F2D60" d="M41.1,135.3L41.1,135.3c0-3.6-2.8-6.4-6.6-6.4c-3.8,0-6.7,2.9-6.7,6.4v0c0,3.5,2.8,6.4,6.6,6.4
	C38.2,141.7,41.1,138.8,41.1,135.3z M37.6,135.3c0,1.8-1.2,3.4-3.2,3.4c-1.9,0-3.2-1.6-3.2-3.4v0c0-1.8,1.2-3.4,3.2-3.4
	C36.3,131.9,37.6,133.5,37.6,135.3L37.6,135.3z"/>
<path fill="#1F2D60" d="M54.3,141.4v-12.3h-3.5v6.9c0,1.7-0.9,2.5-2.2,2.5c-1.3,0-2.1-0.9-2.1-2.5v-6.9h-3.5v8
	c0,2.8,1.5,4.6,4.2,4.6c1.8,0,2.8-0.9,3.6-2v1.7H54.3z"/>
<path fill="#1F2D60" d="M74.3,139.5l-2-2.1c-0.9,0.8-1.7,1.3-2.8,1.3c-1.9,0-3.1-1.5-3.1-3.4v0c0-1.8,1.2-3.4,3-3.4
	c1.2,0,2,0.5,2.8,1.4l2.1-2.3c-1.1-1.3-2.6-2.1-4.9-2.1c-3.8,0-6.5,2.9-6.5,6.4v0c0,3.5,2.7,6.4,6.4,6.4
	C71.7,141.7,73.1,140.8,74.3,139.5z"/>
<path fill="#1F2D60" d="M88.5,135.3L88.5,135.3c0-3.6-2.8-6.4-6.6-6.4c-3.8,0-6.7,2.9-6.7,6.4v0c0,3.5,2.8,6.4,6.6,6.4
	C85.7,141.7,88.5,138.8,88.5,135.3z M85.1,135.3c0,1.8-1.2,3.4-3.2,3.4c-1.9,0-3.2-1.6-3.2-3.4v0c0-1.8,1.2-3.4,3.2-3.4
	C83.8,131.9,85.1,133.5,85.1,135.3L85.1,135.3z"/>
<path fill="#1F2D60" d="M101.8,141.4v-12.3h-3.5v6.9c0,1.7-0.9,2.5-2.2,2.5c-1.3,0-2.1-0.9-2.1-2.5v-6.9h-3.5v8
	c0,2.8,1.5,4.6,4.2,4.6c1.8,0,2.8-0.9,3.6-2v1.7H101.8z"/>
<path fill="#1F2D60" d="M108.1,141.4v-16.8h-3.5v16.8H108.1z"/>
<path fill="#1F2D60" d="M123.3,141.4v-16.8h-3.5v6.1c-0.8-1-2-1.8-3.8-1.8c-2.9,0-5.6,2.3-5.6,6.4v0c0,4.1,2.7,6.4,5.6,6.4
	c1.8,0,3-0.9,3.8-2v1.8H123.3z M119.9,135.3c0,2-1.4,3.4-3,3.4c-1.6,0-3-1.4-3-3.4v0c0-2.1,1.4-3.4,3-3.4
	C118.5,131.9,119.9,133.2,119.9,135.3L119.9,135.3z"/>
<path fill="#1F2D60" d="M140.3,142.8c4.8,0,7.9-2.4,7.9-6.4v-0.1c0-3.7-2.8-5.1-7.3-6.1c-2.7-0.6-3.4-1-3.4-1.9v-0.1
	c0-0.7,0.6-1.3,2-1.3c1.7,0,3.7,0.6,5.5,1.9l2.7-3.8c-2.1-1.7-4.7-2.6-8.1-2.6c-4.7,0-7.6,2.6-7.6,6.3v0.1c0,4,3.2,5.2,7.4,6.1
	c2.7,0.6,3.3,1.1,3.3,1.9v0.1c0,0.8-0.8,1.3-2.3,1.3c-2.3,0-4.4-0.8-6.4-2.4l-3,3.6C133.6,141.7,136.9,142.8,140.3,142.8z"/>
<path fill="#1F2D60" d="M148.4,142.4h5.7l1.4-3.5h7.6l1.4,3.5h5.8l-8.3-19.7h-5.2L148.4,142.4z M157,134.7l2.2-5.5l2.2,5.5H157z"/>
<path fill="#1F2D60" d="M175.2,142.6h5l8-19.7h-5.9l-4.5,12.4l-4.5-12.4h-6L175.2,142.6z"/>
<path fill="#1F2D60" d="M189.5,142.4h15.9v-4.6h-10.5v-3.1h9.4v-4.3h-9.4v-3h10.4v-4.6h-15.8V142.4z"/>
<path fill="#1F2D60" d="M230.3,125.1c-1.7-1.1-3.6-1.9-5.9-2.2v-1.7h-2.9v1.6c-4.3,0.3-6.7,2.6-6.7,5.9v0.1c0,3.5,2.3,5,6.8,6.1v3.4
	c-1.7-0.3-3.4-1.1-5.2-2.3l-2.5,3.7c2.1,1.5,4.8,2.5,7.6,2.8v2.8h2.9v-2.7c4-0.4,6.6-2.5,6.6-5.9v-0.1c0-3.5-2.3-5-6.7-6v-3.3
	c1.3,0.3,2.6,0.9,3.8,1.7L230.3,125.1z M226.1,136.9L226.1,136.9c0,0.9-0.6,1.4-1.9,1.5v-3.1C225.6,135.7,226.1,136.1,226.1,136.9z
	 M219.7,128.3L219.7,128.3c0-0.8,0.5-1.3,1.9-1.4v3C220.1,129.5,219.7,129.1,219.7,128.3z"/>
<path fill="#1F2D60" d="M239.7,142.8c4.8,0,8.1-2.6,8.1-7v-0.1c0-4.3-3.2-6.2-6.7-6.2c-1.3,0-2.2,0.3-3.1,0.7l0.2-3h8.8v-4.5h-13.1
	l-0.6,9.9l3.2,1.8c0.9-0.6,1.9-1,3.1-1c1.7,0,2.9,0.8,2.9,2.3v0.1c0,1.4-1.1,2.3-2.9,2.3c-1.7,0-3.2-0.8-4.8-2.1l-3.1,3.6
	C233.8,141.6,236.2,142.8,239.7,142.8z"/>
<path fill="#1F2D60" d="M258.5,142.8c5.6,0,9.1-4.6,9.1-10.2v-0.1c0-5.5-3.5-10.1-9-10.1s-9.1,4.6-9.1,10.2v0.1
	C249.4,138.2,252.9,142.8,258.5,142.8z M258.5,138c-2.2,0-3.6-2.2-3.6-5.4v-0.1c0-3.1,1.4-5.3,3.6-5.3c2.2,0,3.6,2.3,3.6,5.4v0.1
	C262.1,135.8,260.7,138,258.5,138z"/>
<path fill="#1F2D60" d="M276.4,138.3c-1.5,0-2.8-0.5-4.2-1.6l-2.5,3.8c1.8,1.4,3.9,2.3,6.9,2.3c5.9,0,9-4.4,9-10.8V132
	c0-3.6-0.9-5.9-2.4-7.3c-1.5-1.5-3.2-2.3-6-2.3c-4.5,0-7.8,2.8-7.8,7.1v0.1c0,3.8,2.8,6.2,6.6,6.2c1.5,0,3-0.5,4.2-1.6
	C280,135.8,279.3,138.3,276.4,138.3z M277.4,131.9c-1.7,0-2.8-1.1-2.8-2.6v-0.1c0-1.5,1-2.7,2.7-2.7s2.8,1.2,2.8,2.7v0.1
	C280.2,130.8,279.1,131.9,277.4,131.9z"/>
<path fill="#1F2D60" d="M69.4,158.3L69.4,158.3c0-3.6-2.8-6.4-6.6-6.4c-3.8,0-6.7,2.9-6.7,6.4v0c0,3.5,2.8,6.4,6.6,6.4
	C66.6,164.7,69.4,161.8,69.4,158.3z M66,158.3c0,1.8-1.2,3.4-3.2,3.4c-1.9,0-3.2-1.6-3.2-3.4v0c0-1.8,1.2-3.4,3.2-3.4
	C64.7,154.9,66,156.5,66,158.3L66,158.3z"/>
<path fill="#1F2D60" d="M82.8,164.4v-8c0-2.8-1.5-4.6-4.2-4.6c-1.8,0-2.8,0.9-3.6,2v-1.7h-3.5v12.3H75v-6.9c0-1.7,0.9-2.5,2.2-2.5
	c1.3,0,2.1,0.9,2.1,2.5v6.9H82.8z"/>
<path fill="#1F2D60" d="M102.7,162.5l-2-2.1c-0.9,0.8-1.7,1.3-2.8,1.3c-1.9,0-3.1-1.5-3.1-3.4v0c0-1.8,1.2-3.4,3-3.4
	c1.2,0,2,0.5,2.8,1.4l2.1-2.3c-1.1-1.3-2.6-2.1-4.9-2.1c-3.8,0-6.5,2.9-6.5,6.4v0c0,3.5,2.7,6.4,6.4,6.4
	C100.1,164.7,101.5,163.8,102.7,162.5z"/>
<path fill="#1F2D60" d="M115.1,164.4v-7.2c0-3.3-1.7-5.3-5.5-5.3c-2.1,0-3.4,0.4-4.8,1l0.9,2.7c1.1-0.4,2.1-0.7,3.4-0.7
	c1.7,0,2.6,0.8,2.6,2.3v0.2c-0.9-0.3-1.8-0.5-3-0.5c-2.9,0-5,1.2-5,3.9v0c0,2.4,1.9,3.8,4.2,3.8c1.7,0,2.9-0.6,3.7-1.6v1.3H115.1z
	 M111.8,160.1c0,1.3-1.1,2.2-2.7,2.2c-1.1,0-1.9-0.6-1.9-1.5v0c0-1.1,0.9-1.7,2.4-1.7c0.9,0,1.6,0.2,2.2,0.5V160.1z"/>
<path fill="#1F2D60" d="M125.1,155.5v-3.7c-2.1-0.1-3.2,1-3.9,2.7v-2.5h-3.5v12.3h3.5v-4.6c0-2.9,1.4-4.3,3.7-4.3H125.1z"/>
<path fill="#1F2D60" d="M137,150.8v-3.1h-3.7v3.1H137z M136.9,164.4v-12.3h-3.5v12.3H136.9z"/>
<path fill="#1F2D60" d="M151,164.4v-8c0-2.8-1.5-4.6-4.2-4.6c-1.8,0-2.8,0.9-3.6,2v-1.7h-3.5v12.3h3.5v-6.9c0-1.7,0.9-2.5,2.2-2.5
	c1.3,0,2.1,0.9,2.1,2.5v6.9H151z"/>
<path fill="#1F2D60" d="M162.6,160.7L162.6,160.7c0-2.3-2-3.1-3.7-3.7c-1.3-0.5-2.5-0.8-2.5-1.5v0c0-0.5,0.4-0.9,1.3-0.9
	c0.9,0,2.1,0.4,3.3,1.1l1.3-2.4c-1.3-0.9-3-1.4-4.6-1.4c-2.5,0-4.5,1.4-4.5,3.9v0c0,2.4,2,3.2,3.7,3.7c1.4,0.4,2.6,0.7,2.6,1.4v0
	c0,0.6-0.5,0.9-1.5,0.9c-1.1,0-2.6-0.5-3.9-1.5l-1.5,2.3c1.6,1.3,3.6,1.9,5.3,1.9C160.6,164.7,162.6,163.4,162.6,160.7z"/>
<path fill="#1F2D60" d="M175.9,164.4v-12.3h-3.5v6.9c0,1.7-0.9,2.5-2.2,2.5c-1.3,0-2.1-0.9-2.1-2.5v-6.9h-3.5v8
	c0,2.8,1.5,4.6,4.2,4.6c1.8,0,2.8-0.9,3.6-2v1.7H175.9z"/>
<path fill="#1F2D60" d="M186,155.5v-3.7c-2.1-0.1-3.2,1-3.9,2.7v-2.5h-3.5v12.3h3.5v-4.6c0-2.9,1.4-4.3,3.7-4.3H186z"/>
<path fill="#1F2D60" d="M197.7,164.4v-7.2c0-3.3-1.7-5.3-5.5-5.3c-2.1,0-3.4,0.4-4.8,1l0.9,2.7c1.1-0.4,2.1-0.7,3.4-0.7
	c1.7,0,2.6,0.8,2.6,2.3v0.2c-0.9-0.3-1.8-0.5-3-0.5c-2.9,0-5,1.2-5,3.9v0c0,2.4,1.9,3.8,4.2,3.8c1.7,0,2.9-0.6,3.7-1.6v1.3H197.7z
	 M194.4,160.1c0,1.3-1.1,2.2-2.7,2.2c-1.1,0-1.9-0.6-1.9-1.5v0c0-1.1,0.9-1.7,2.4-1.7c0.9,0,1.6,0.2,2.2,0.5V160.1z"/>
<path fill="#1F2D60" d="M211.6,164.4v-8c0-2.8-1.5-4.6-4.2-4.6c-1.8,0-2.8,0.9-3.6,2v-1.7h-3.5v12.3h3.5v-6.9c0-1.7,0.9-2.5,2.2-2.5
	s2.1,0.9,2.1,2.5v6.9H211.6z"/>
<path fill="#1F2D60" d="M225,162.5l-2-2.1c-0.9,0.8-1.7,1.3-2.8,1.3c-1.9,0-3.1-1.5-3.1-3.4v0c0-1.8,1.2-3.4,3-3.4
	c1.2,0,2,0.5,2.8,1.4l2.1-2.3c-1.1-1.3-2.6-2.1-4.9-2.1c-3.8,0-6.5,2.9-6.5,6.4v0c0,3.5,2.7,6.4,6.4,6.4
	C222.4,164.7,223.8,163.8,225,162.5z"/>
<path fill="#1F2D60" d="M238,158.6L238,158.6c0-3.5-1.9-6.7-6-6.7c-3.6,0-6.1,2.9-6.1,6.4v0c0,3.8,2.7,6.4,6.4,6.4
	c2.2,0,3.9-0.9,5-2.3l-2-1.8c-1,0.9-1.8,1.3-3,1.3c-1.6,0-2.7-0.8-3-2.4h8.6C237.9,159.2,238,159,238,158.6z M234.6,157.3h-5.3
	c0.3-1.6,1.2-2.6,2.7-2.6C233.4,154.7,234.4,155.7,234.6,157.3z"/>
<path fill="#1F2D60" d="M243.5,164.4v-3.7h-3.7v3.7H243.5z"/>
</svg>
