<?xml version="1.0" encoding="utf-8"?>
<!-- Generator: Adobe Illustrator 18.1.1, SVG Export Plug-In . SVG Version: 6.00 Build 0)  -->
<svg version="1.1" id="Layer_1" xmlns="http://www.w3.org/2000/svg" xmlns:xlink="http://www.w3.org/1999/xlink" x="0px" y="0px"
	 width="300px" height="250px" viewBox="0 0 300 250" enable-background="new 0 0 300 250" xml:space="preserve">
<path fill="#1F2D60" d="M65.1,108.8H71c2.9,0,4.8-1.3,4.8-3.6v0c0-1.8-1.3-2.7-2.8-3.2c1-0.5,2.1-1.3,2.1-3.1v0
	c0-0.9-0.3-1.6-0.9-2.1c-0.8-0.7-2-1.2-3.5-1.2h-5.7V108.8z M66.6,101.4v-4.6h4c1.9,0,2.9,0.9,2.9,2.2v0c0,1.6-1.3,2.4-3.1,2.4H66.6
	z M66.6,107.5v-4.7h4.2c2.3,0,3.5,0.8,3.5,2.3v0c0,1.5-1.3,2.4-3.3,2.4H66.6z"/>
<path fill="#1F2D60" d="M82.2,109c1.7,0,2.7-0.9,3.4-1.9v1.7H87V99h-1.4v5.6c0,1.8-1.3,3.1-2.9,3.1c-1.7,0-2.7-1.1-2.7-3V99h-1.5
	v6.1C78.4,107.4,79.8,109,82.2,109z"/>
<path fill="#1F2D60" d="M91.8,111.9c1.5,0,2.4-0.7,3.3-2.8L99.2,99h-1.6l-3.2,8.2L90.9,99h-1.6l4.5,9.8c-0.6,1.4-1.1,1.8-2,1.8
	c-0.6,0-1.1-0.1-1.5-0.4l-0.5,1.2C90.4,111.7,91,111.9,91.8,111.9z"/>
<path fill="#1F2D60" d="M101.6,96.8h1.7v-1.6h-1.7V96.8z M101.7,108.8h1.5V99h-1.5V108.8z"/>
<path fill="#1F2D60" d="M106.5,108.8h1.5v-5.6c0-1.8,1.3-3.1,2.9-3.1c1.7,0,2.7,1.1,2.7,3v5.7h1.5v-6.1c0-2.3-1.4-3.9-3.8-3.9
	c-1.7,0-2.7,0.9-3.4,1.9V99h-1.5V108.8z"/>
<path fill="#1F2D60" d="M122.6,111.9c1.6,0,2.9-0.4,3.7-1.3c0.8-0.8,1.3-2,1.3-3.5V99h-1.5v1.8c-0.8-1.1-2-2-3.8-2
	c-2.3,0-4.6,1.8-4.6,4.6v0c0,2.8,2.3,4.6,4.6,4.6c1.8,0,3-0.9,3.9-2.1v1.2c0,2.3-1.4,3.5-3.6,3.5c-1.4,0-2.7-0.4-3.8-1.3l-0.7,1.1
	C119.4,111.4,120.9,111.9,122.6,111.9z M122.6,106.8c-1.8,0-3.4-1.4-3.4-3.3v0c0-2,1.5-3.3,3.4-3.3s3.6,1.3,3.6,3.3v0
	C126.2,105.4,124.4,106.8,122.6,106.8z"/>
<path fill="#1F2D60" d="M139.5,109c1.7,0,2.8-0.8,3.5-1.7v1.5h1.4v-6c0-1.3-0.3-2.2-1-2.9c-0.7-0.7-1.8-1.1-3.2-1.1
	c-1.4,0-2.5,0.3-3.6,0.8l0.4,1.2c0.9-0.4,1.8-0.7,3-0.7c1.8,0,2.9,0.9,2.9,2.7v0.3c-0.9-0.2-1.7-0.4-3-0.4c-2.5,0-4.2,1.1-4.2,3.2v0
	C135.8,108,137.6,109,139.5,109z M139.8,107.8c-1.3,0-2.5-0.7-2.5-2v0c0-1.2,1-2,2.9-2c1.2,0,2.1,0.2,2.9,0.4v0.9
	C143,106.8,141.6,107.8,139.8,107.8z"/>
<path fill="#1F2D60" d="M153.2,108.8h1.5v-5.6c0-1.8,1.3-3.1,2.9-3.1c1.7,0,2.7,1.1,2.7,3v5.7h1.5v-6.1c0-2.3-1.4-3.9-3.8-3.9
	c-1.7,0-2.7,0.9-3.4,1.9V99h-1.5V108.8z"/>
<path fill="#1F2D60" d="M165.8,104.5h7.8c0-0.2,0-0.4,0-0.5c0-2.9-1.7-5.2-4.6-5.2c-2.7,0-4.7,2.3-4.7,5.1c0,3.1,2.2,5.1,4.9,5.1
	c1.9,0,3.1-0.7,4-1.8l-0.9-0.8c-0.8,0.8-1.7,1.4-3.1,1.4C167.6,107.8,166,106.6,165.8,104.5z M165.8,103.3c0.2-1.9,1.5-3.3,3.2-3.3
	c1.9,0,3,1.5,3.1,3.3H165.8z"/>
<path fill="#1F2D60" d="M178.3,108.9h1.3l2.7-7.8l2.6,7.8h1.3l3.5-9.9h-1.5l-2.6,7.9l-2.7-7.9h-1.2l-2.6,7.9l-2.6-7.9h-1.6
	L178.3,108.9z"/>
<path fill="#1F2D60" d="M202.2,109c1.8,0,3-0.8,4-1.9l-0.9-0.9c-0.8,0.8-1.7,1.5-3,1.5c-2.1,0-3.6-1.7-3.6-3.8v0
	c0-2.1,1.5-3.8,3.5-3.8c1.3,0,2.2,0.7,3,1.5l1-1c-0.9-1-2.1-1.7-3.9-1.7c-2.9,0-5,2.4-5,5.1v0C197.2,106.7,199.3,109,202.2,109z"/>
<path fill="#1F2D60" d="M211.6,109c1.7,0,2.8-0.8,3.5-1.7v1.5h1.4v-6c0-1.3-0.3-2.2-1-2.9c-0.7-0.7-1.8-1.1-3.2-1.1
	c-1.4,0-2.5,0.3-3.6,0.8l0.4,1.2c0.9-0.4,1.8-0.7,3-0.7c1.8,0,2.9,0.9,2.9,2.7v0.3c-0.9-0.2-1.7-0.4-3-0.4c-2.5,0-4.2,1.1-4.2,3.2v0
	C207.9,108,209.7,109,211.6,109z M211.8,107.8c-1.3,0-2.5-0.7-2.5-2v0c0-1.2,1-2,2.9-2c1.2,0,2.1,0.2,2.9,0.4v0.9
	C215.1,106.8,213.6,107.8,211.8,107.8z"/>
<path fill="#1F2D60" d="M219.6,108.8h1.5v-3.9c0-3,1.7-4.5,3.9-4.5h0.1v-1.6c-1.9-0.1-3.3,1.1-4,2.7V99h-1.5V108.8z"/>
<path fill="#1F2D60" d="M229.9,105h1l0.2-2.1c2.2-0.3,4-1.5,4-3.9v0c0-2.2-1.7-3.8-4.3-3.8c-2,0-3.4,0.9-4.5,2.2l1,0.9
	c1-1.1,2.1-1.8,3.5-1.8c1.7,0,2.8,1.1,2.8,2.5v0c0,1.6-1.3,2.6-3.8,2.7l-0.1,0.1L229.9,105z M229.5,108.8h1.7v-2h-1.7V108.8z"/>
</svg>
