<svg id="CTA" xmlns="http://www.w3.org/2000/svg" width="72.25" height="15.469" viewBox="0 0 72.25 15.469">
  <metadata><?xpacket begin="﻿" id="W5M0MpCehiHzreSzNTczkc9d"?>
<x:xmpmeta xmlns:x="adobe:ns:meta/" x:xmptk="Adobe XMP Core 5.6-c138 79.159824, 2016/09/14-01:09:01        ">
   <rdf:RDF xmlns:rdf="http://www.w3.org/1999/02/22-rdf-syntax-ns#">
      <rdf:Description rdf:about=""/>
   </rdf:RDF>
</x:xmpmeta>
                                                                                                    
                                                                                                    
                                                                                                    
                                                                                                    
                                                                                                    
                                                                                                    
                                                                                                    
                                                                                                    
                                                                                                    
                                                                                                    
                                                                                                    
                                                                                                    
                                                                                                    
                                                                                                    
                                                                                                    
                                                                                                    
                                                                                                    
                                                                                                    
                                                                                                    
                                                                                                    
                           
<?xpacket end="w"?></metadata>
<defs>
    <style>
      .cls-1, .cls-2 {
        fill-rule: evenodd;
      }

      .cls-2 {
        fill: #fff;
      }
    </style>
  </defs>
  <path id="Rounded_Rectangle_1" data-name="Rounded Rectangle 1" class="cls-1" d="M225.75,27.145H288a5,5,0,0,1,5,5v5.478a5,5,0,0,1-5,5H225.75a5,5,0,0,1-5-5V32.145A5,5,0,0,1,225.75,27.145Z" transform="translate(-220.75 -27.156)"/>
  <path id="BUY_NOW" data-name="BUY NOW" class="cls-2" d="M233,34.668a1.875,1.875,0,0,0,.963-0.765,2.593,2.593,0,0,0,.291-1.32v-0.39a2.985,2.985,0,0,0-.351-1.59,1.966,1.966,0,0,0-1.171-.795,8.666,8.666,0,0,0-2.314-.24h-2.851v10.65h3.15a8.47,8.47,0,0,0,2.328-.247,1.97,1.97,0,0,0,1.179-.84,3.245,3.245,0,0,0,.358-1.672v-0.39a2.869,2.869,0,0,0-.365-1.567A2.163,2.163,0,0,0,233,34.668h0Zm-2.985-3.45h0.433a2.56,2.56,0,0,1,.873.113,0.678,0.678,0,0,1,.4.39,2.228,2.228,0,0,1,.112.8v0.15a1.937,1.937,0,0,1-.112.75,0.686,0.686,0,0,1-.41.367,2.578,2.578,0,0,1-.866.112H230.01V31.218Zm2.06,5.85a2.861,2.861,0,0,1-.112.915,0.75,0.75,0,0,1-.411.45,2.222,2.222,0,0,1-.88.135H230.01V35.523h0.657a2.474,2.474,0,0,1,.88.12,0.7,0.7,0,0,1,.411.42,2.54,2.54,0,0,1,.112.855v0.15Zm7.657,3.315a4.968,4.968,0,0,0,2.157-.375,2.158,2.158,0,0,0,1.074-1.26,7.773,7.773,0,0,0,.321-2.535V29.568h-2.507v6.825a6.9,6.9,0,0,1-.09,1.275,1.084,1.084,0,0,1-.313.638,1.193,1.193,0,0,1-1.284,0,1.079,1.079,0,0,1-.313-0.638,6.9,6.9,0,0,1-.09-1.275V29.568h-2.508v6.645a7.773,7.773,0,0,0,.321,2.535,2.156,2.156,0,0,0,1.075,1.26,4.962,4.962,0,0,0,2.157.375h0Zm9.97-10.815-1.4,4.485-1.4-4.485h-2.612l2.762,6.855v3.795h2.447V36.423l2.762-6.855H249.7Zm12.523,7.095-2.612-7.095h-2.716v10.65H259V33.123l2.612,7.095h2.717V29.568h-2.1v7.095Zm7.478,3.72a4.6,4.6,0,0,0,2.261-.45,2.522,2.522,0,0,0,1.112-1.575,12.365,12.365,0,0,0,.329-3.27V34.7a12.365,12.365,0,0,0-.329-3.27,2.522,2.522,0,0,0-1.112-1.575,5.905,5.905,0,0,0-4.522,0,2.5,2.5,0,0,0-1.105,1.575,12.646,12.646,0,0,0-.321,3.27v0.39a12.645,12.645,0,0,0,.321,3.27,2.5,2.5,0,0,0,1.105,1.575,4.6,4.6,0,0,0,2.261.45h0Zm0-1.89a0.9,0.9,0,0,1-.739-0.3,2.116,2.116,0,0,1-.343-1.035,18.11,18.11,0,0,1-.1-2.19v-0.15a18.112,18.112,0,0,1,.1-2.19,2.117,2.117,0,0,1,.343-1.035,0.9,0.9,0,0,1,.739-0.3,0.922,0.922,0,0,1,.746.3,2.073,2.073,0,0,1,.351,1.043,18.139,18.139,0,0,1,.1,2.182v0.15a18.139,18.139,0,0,1-.1,2.183,2.072,2.072,0,0,1-.351,1.042,0.922,0.922,0,0,1-.746.3h0Zm13.657-.54-1.522-8.385h-2.672l-1.522,8.34-1.105-8.34h-2.388l1.955,10.65h2.926l1.4-7.83,1.388,7.83h2.926l1.955-10.65h-2.224Z" transform="translate(-220.75 -27.156)"/>
</svg>
