<?xml version="1.0" encoding="utf-8"?>
<!-- Generator: Adobe Illustrator 18.1.1, SVG Export Plug-In . SVG Version: 6.00 Build 0)  -->
<svg version="1.1" id="Layer_1" xmlns="http://www.w3.org/2000/svg" xmlns:xlink="http://www.w3.org/1999/xlink" x="0px" y="0px"
	 viewBox="0 0 372.3 196.2" style="enable-background:new 0 0 372.3 196.2;" xml:space="preserve">
<rect x="0" y="5.2" style="fill:#FFFFFF;" width="101.5" height="5.3"/>
<rect x="0" y="160.5" style="fill:#FFFFFF;" width="372.3" height="5.3"/>
<rect x="269.6" y="5.2" style="fill:#FFFFFF;" width="101.5" height="5.3"/>
<g>
	<path style="fill:#FFFFFF;" d="M10.7,121.5H0v-7.4h30.1v7.4H19.4v28h-8.7V121.5z"/>
	<path style="fill:#FFFFFF;" d="M31.9,114.1h9.4l6.2,20.1c0.7,2.2,1.3,5.7,1.3,5.7H49c0,0,0.6-3.5,1.3-5.7l6.3-20.1h9.3l-12.5,35.4
		h-9L31.9,114.1z"/>
	<path style="fill:#FFFFFF;" d="M81.1,114.1h14.7c6.9,0,11.5,5,11.5,12.2c0,7.1-4.7,12.3-11.5,12.3h-6v10.9h-8.7V114.1z M94,131.1
		c3,0,4.5-2,4.5-4.8c0-2.8-1.5-4.8-4.4-4.8h-4.4v9.6H94z"/>
	<path style="fill:#FFFFFF;" d="M112.5,114.1h12.3c3.6,0,5.3,0.2,6.9,0.8c4,1.5,6.5,5.1,6.5,10.3c0,3.8-1.8,7.9-5.3,9.6v0.1
		c0,0,0.5,0.6,1.3,2.1l6.9,12.4h-9.6l-6.3-11.9h-4.1v11.9h-8.7V114.1z M124.9,130.1c2.8,0,4.5-1.5,4.5-4.4c0-2.7-1-4.3-5.3-4.3h-2.9
		v8.6H124.9z"/>
	<path style="fill:#FFFFFF;" d="M146.2,114.1h8.7v35.4h-8.7V114.1z"/>
	<path style="fill:#FFFFFF;" d="M179.3,113.5c8.8,0,13.3,5,13.3,5l-4,6.5c0,0-4-3.6-8.9-3.6c-6.8,0-10,5-10,10.1
		c0,5.2,3.5,10.6,10,10.6c5.3,0,9.4-4.4,9.4-4.4l4.5,6.3c0,0-5,5.9-14.3,5.9c-11.1,0-18.6-7.9-18.6-18.4
		C160.8,121.4,168.7,113.5,179.3,113.5z"/>
	<path style="fill:#FFFFFF;" d="M198.8,114.1H221v7.4h-13.5v6.4h10.8v7.4h-10.8v6.7h14.2v7.4h-22.9V114.1z"/>
	<path style="fill:#FFFFFF;" d="M239.2,114.1h8.7v28h14.4v7.4h-23.1V114.1z"/>
	<path style="fill:#FFFFFF;" d="M323.4,113.5c8.8,0,13.3,5,13.3,5l-4,6.5c0,0-4-3.6-8.9-3.6c-6.8,0-10,5-10,10.1
		c0,5.2,3.5,10.6,10,10.6c5.3,0,9.4-4.4,9.4-4.4l4.5,6.3c0,0-5,5.9-14.3,5.9c-11.1,0-18.6-7.9-18.6-18.4
		C304.9,121.4,312.8,113.5,323.4,113.5z"/>
	<path style="fill:#FFFFFF;" d="M342.9,114.1h8.7v13.7h3.6l7.3-13.7h9.3l-9.5,16.9v0.1l10.1,18.4h-9.7l-7.5-14.4h-3.6v14.4h-8.7
		V114.1z"/>
</g>
<g>
	<path style="fill:#FFFFFF;" d="M1.2,96c0-27.9,32.7-32.9,32.7-43.8c0-5.3-4.2-7.5-8.2-7.5c-7.2,0-11.2,8-11.2,8L0.8,43.5
		c0,0,7-16.3,26.7-16.3c12.4,0,25.8,7.1,25.8,23.2c0,23.6-30.5,28.2-31,37.9h32.2v15.9H2.1C1.5,101.2,1.2,98.5,1.2,96z"/>
	<path style="fill:#FFFFFF;" d="M66.8,65.8h33.2v15.9H66.8V65.8z"/>
	<path style="fill:#FFFFFF;" d="M126.4,73.1l-25-44.7h21.1l8.6,18.2c2.4,5.2,4.6,10.9,4.6,10.9h0.2c0,0,2.1-5.7,4.6-10.9l8.5-18.2
		H170l-25,44.7v31h-18.5V73.1z"/>
	<path style="fill:#FFFFFF;" d="M178.4,28.4h47.4v15.9h-28.9v13.8H220V74h-23.1v14.3h30.4v15.9h-48.9V28.4z"/>
	<path style="fill:#FFFFFF;" d="M278.6,88.3H255l-4.6,15.9h-19.1l25.7-75.7h19.5l25.7,75.7h-19.1L278.6,88.3z M266.7,45.7
		c0,0-1.7,8.3-3.1,13l-4.3,14.7h14.9L270,58.7c-1.4-4.8-3.1-13-3.1-13H266.7z"/>
	<path style="fill:#FFFFFF;" d="M310.7,28.4h26.4c7.7,0,11.4,0.5,14.7,1.8c8.6,3.3,14,11,14,22c0,8-3.8,16.8-11.3,20.6v0.2
		c0,0,1.1,1.4,2.9,4.6l14.7,26.5h-20.6L338,78.6h-8.7v25.5h-18.5V28.4z M337.3,62.7c5.9,0,9.6-3.3,9.6-9.3c0-5.7-2.1-9.1-11.4-9.1
		h-6.2v18.4H337.3z"/>
</g>
<g>
	<path style="fill:#FFFFFF;" d="M111-0.2h3.2v12.9H111V-0.2z"/>
	<path style="fill:#FFFFFF;" d="M118.9-0.2h3.2l3.6,6c0.5,0.8,1.1,2.2,1.1,2.2h0c0,0-0.1-1.4-0.1-2.2v-6h3.2v12.9h-3.2l-3.6-6
		c-0.5-0.8-1.1-2.2-1.1-2.2h0c0,0,0.1,1.4,0.1,2.2v6h-3.2V-0.2z"/>
	<path style="fill:#FFFFFF;" d="M137.1,2.5h-3.9v-2.7h11v2.7h-3.9v10.2h-3.2V2.5z"/>
	<path style="fill:#FFFFFF;" d="M147.6-0.2h4.5c1.3,0,1.9,0.1,2.5,0.3c1.5,0.6,2.4,1.9,2.4,3.7c0,1.4-0.6,2.9-1.9,3.5v0
		c0,0,0.2,0.2,0.5,0.8l2.5,4.5h-3.5l-2.3-4.3h-1.5v4.3h-3.2V-0.2z M152.1,5.7c1,0,1.6-0.6,1.6-1.6c0-1-0.4-1.5-1.9-1.5h-1.1v3.1
		H152.1z"/>
	<path style="fill:#FFFFFF;" d="M167.4-0.4c3.9,0,6.7,2.9,6.7,6.6c0,3.8-2.8,6.7-6.7,6.7s-6.7-3-6.7-6.7
		C160.7,2.5,163.6-0.4,167.4-0.4z M167.4,10c1.9,0,3.5-1.7,3.5-3.9c0-2.1-1.5-3.7-3.5-3.7c-1.9,0-3.5,1.6-3.5,3.7
		C164,8.4,165.5,10,167.4,10z"/>
	<path style="fill:#FFFFFF;" d="M178.1-0.2h4.6c4.1,0,6.6,2.4,6.6,6.4s-2.6,6.5-6.6,6.5h-4.6V-0.2z M182.6,10c2.2,0,3.5-1.3,3.5-3.8
		c0-2.4-1.4-3.7-3.5-3.7h-1.3V10H182.6z"/>
	<path style="fill:#FFFFFF;" d="M193.2-0.2h3.2V8c0,1.4,0.9,2.1,2.2,2.1c1.4,0,2.2-0.7,2.2-2.1v-8.1h3.2V8c0,2.9-2.1,5-5.4,5
		c-3.3,0-5.4-2.1-5.4-5V-0.2z"/>
	<path style="fill:#FFFFFF;" d="M214.4-0.4c3.2,0,4.8,1.8,4.8,1.8l-1.5,2.4c0,0-1.4-1.3-3.2-1.3c-2.5,0-3.6,1.8-3.6,3.7
		c0,1.9,1.3,3.9,3.6,3.9c1.9,0,3.4-1.6,3.4-1.6l1.6,2.3c0,0-1.8,2.2-5.2,2.2c-4,0-6.8-2.9-6.8-6.7C207.7,2.5,210.6-0.4,214.4-0.4z"
		/>
	<path style="fill:#FFFFFF;" d="M223.3-0.2h3.2v12.9h-3.2V-0.2z"/>
	<path style="fill:#FFFFFF;" d="M231.3-0.2h3.2l3.6,6c0.5,0.8,1.1,2.2,1.1,2.2h0c0,0-0.1-1.4-0.1-2.2v-6h3.2v12.9H239l-3.6-6
		c-0.5-0.8-1.1-2.2-1.1-2.2h0c0,0,0.1,1.4,0.1,2.2v6h-3.2V-0.2z"/>
	<path style="fill:#FFFFFF;" d="M252.9-0.4c3.3,0,5,1.7,5,1.7l-1.5,2.4c0,0-1.3-1.2-3.1-1.2c-2.7,0-3.8,1.7-3.8,3.6
		c0,2.4,1.7,3.9,3.7,3.9c1.5,0,2.6-0.9,2.6-0.9v-1h-1.8V5.4h4.6v7.3h-2.6v-0.4c0-0.3,0-0.5,0-0.5h0c0,0-1.2,1.1-3.4,1.1
		c-3.3,0-6.3-2.5-6.3-6.7C246.1,2.5,249-0.4,252.9-0.4z"/>
</g>
<path style="fill:#FFFFFF;" d="M282.9,113.5c-10.7,0-18.5,7.9-18.5,18.1c0,10.4,7.8,18.5,18.5,18.5c10.7,0,18.5-8.1,18.5-18.5
	C301.4,121.4,293.6,113.5,282.9,113.5z M286.3,140.8h-6.7l1.4-9.4c-1.6-0.7-2.8-2.4-2.8-4.3c0-2.6,2.1-4.7,4.7-4.7
	c2.6,0,4.7,2.1,4.7,4.7c0,1.9-1.1,3.5-2.7,4.3L286.3,140.8z"/>
<g>
	<path style="fill:#FFFFFF;" d="M1.6,176.6h4.9l5.4,9.2c0.8,1.3,1.6,3.3,1.6,3.3h0.1c0,0-0.2-2.1-0.2-3.3v-9.2h4.8v19.6h-4.8
		l-5.5-9.1c-0.8-1.3-1.6-3.3-1.6-3.3H6.2c0,0,0.2,2.1,0.2,3.3v9.1H1.6V176.6z"/>
	<path style="fill:#FFFFFF;" d="M31.7,176.3c5.9,0,10.3,4.4,10.3,10c0,5.8-4.3,10.3-10.3,10.3c-5.9,0-10.3-4.5-10.3-10.3
		C21.4,180.7,25.8,176.3,31.7,176.3z M31.7,192.2c2.9,0,5.3-2.5,5.3-5.9c0-3.2-2.4-5.6-5.3-5.6c-2.9,0-5.3,2.4-5.3,5.6
		C26.4,189.6,28.8,192.2,31.7,192.2z"/>
	<path style="fill:#FFFFFF;" d="M51.5,176.6h4.8v7.9h7.1v-7.9h4.8v19.6h-4.8v-7.7h-7.1v7.7h-4.8V176.6z"/>
	<path style="fill:#FFFFFF;" d="M72.9,176.6h4.8v19.6h-4.8V176.6z"/>
	<path style="fill:#FFFFFF;" d="M82.3,176.6h7c6.2,0,10.1,3.6,10.1,9.8c0,6.2-4,9.9-10.1,9.9h-7V176.6z M89.1,192.1
		c3.3,0,5.4-2,5.4-5.7c0-3.7-2.1-5.7-5.4-5.7h-2v11.4H89.1z"/>
	<path style="fill:#FFFFFF;" d="M102.8,176.6h7c6.2,0,10.1,3.6,10.1,9.8c0,6.2-4,9.9-10.1,9.9h-7V176.6z M109.6,192.1
		c3.3,0,5.4-2,5.4-5.7c0-3.7-2.1-5.7-5.4-5.7h-2v11.4H109.6z"/>
	<path style="fill:#FFFFFF;" d="M123.3,176.6h12.3v4.1h-7.5v3.6h6v4.1h-6v3.7h7.9v4.1h-12.7V176.6z"/>
	<path style="fill:#FFFFFF;" d="M139.4,176.6h4.9l5.4,9.2c0.8,1.3,1.6,3.3,1.6,3.3h0.1c0,0-0.2-2.1-0.2-3.3v-9.2h4.8v19.6h-4.8
		l-5.5-9.1c-0.8-1.3-1.6-3.3-1.6-3.3H144c0,0,0.2,2.1,0.2,3.3v9.1h-4.8V176.6z"/>
	<path style="fill:#FFFFFF;" d="M167.9,176.6h5.2l2.9,8.3c0.4,1.3,1,3.2,1,3.2h0.1c0,0,0.5-2,1-3.2l2.9-8.3h5.2l1.6,19.6h-4.8
		l-0.6-8.8c-0.1-1.5,0-3.3,0-3.3h-0.1c0,0-0.7,2.1-1.1,3.3l-2.1,5.7h-4.1l-2.1-5.7c-0.4-1.2-1.1-3.3-1.1-3.3h-0.1c0,0,0.1,1.8,0,3.3
		l-0.6,8.8h-4.8L167.9,176.6z"/>
	<path style="fill:#FFFFFF;" d="M200.6,176.3c5.9,0,10.3,4.4,10.3,10c0,5.8-4.3,10.3-10.3,10.3c-5.9,0-10.3-4.5-10.3-10.3
		C190.3,180.7,194.7,176.3,200.6,176.3z M200.6,192.2c2.9,0,5.3-2.5,5.3-5.9c0-3.2-2.4-5.6-5.3-5.6c-2.9,0-5.3,2.4-5.3,5.6
		C195.3,189.6,197.7,192.2,200.6,192.2z"/>
	<path style="fill:#FFFFFF;" d="M214.1,176.6h4.9l5.4,9.2c0.8,1.3,1.6,3.3,1.6,3.3h0.1c0,0-0.2-2.1-0.2-3.3v-9.2h4.8v19.6h-4.8
		l-5.5-9.1c-0.8-1.3-1.6-3.3-1.6-3.3h-0.1c0,0,0.2,2.1,0.2,3.3v9.1h-4.8V176.6z"/>
	<path style="fill:#FFFFFF;" d="M239.1,180.7h-6v-4.1h16.7v4.1h-6v15.5h-4.8V180.7z"/>
	<path style="fill:#FFFFFF;" d="M252.3,176.6h4.8v7.9h7.1v-7.9h4.8v19.6h-4.8v-7.7h-7.1v7.7h-4.8V176.6z"/>
	<path style="fill:#FFFFFF;" d="M273.6,176.6h4.8v15.5h8v4.1h-12.8V176.6z"/>
	<path style="fill:#FFFFFF;" d="M291.8,188.2l-6.5-11.6h5.5l2.2,4.7c0.6,1.3,1.2,2.8,1.2,2.8h0.1c0,0,0.5-1.5,1.2-2.8l2.2-4.7h5.5
		l-6.5,11.6v8h-4.8V188.2z"/>
	<path style="fill:#FFFFFF;" d="M311.5,176.6h12v4.1h-7.2v4.1h6v4.1h-6v7.3h-4.8V176.6z"/>
	<path style="fill:#FFFFFF;" d="M326.6,176.6h12.3v4.1h-7.5v3.6h6v4.1h-6v3.7h7.9v4.1h-12.7V176.6z"/>
	<path style="fill:#FFFFFF;" d="M342.7,176.6H355v4.1h-7.5v3.6h6v4.1h-6v3.7h7.9v4.1h-12.7V176.6z"/>
	<path style="fill:#FFFFFF;" d="M360,190.1c0,0,2.2,2,4.7,2c1,0,2.1-0.4,2.1-1.6c0-2.3-8.8-2.2-8.8-8.3c0-3.6,3-6,6.9-6
		c4.2,0,6.3,2.2,6.3,2.2l-2,3.9c0,0-2-1.7-4.3-1.7c-1,0-2.1,0.4-2.1,1.5c0,2.5,8.8,2,8.8,8.2c0,3.3-2.5,6.1-6.9,6.1
		c-4.6,0-7.2-2.8-7.2-2.8L360,190.1z"/>
</g>
</svg>
