<svg id="CTA" xmlns="http://www.w3.org/2000/svg" width="131" height="35" viewBox="0 0 131 35">
  <metadata><?xpacket begin="﻿" id="W5M0MpCehiHzreSzNTczkc9d"?>
<x:xmpmeta xmlns:x="adobe:ns:meta/" x:xmptk="Adobe XMP Core 5.6-c138 79.159824, 2016/09/14-01:09:01        ">
   <rdf:RDF xmlns:rdf="http://www.w3.org/1999/02/22-rdf-syntax-ns#">
      <rdf:Description rdf:about=""/>
   </rdf:RDF>
</x:xmpmeta>
                                                                                                    
                                                                                                    
                                                                                                    
                                                                                                    
                                                                                                    
                                                                                                    
                                                                                                    
                                                                                                    
                                                                                                    
                                                                                                    
                                                                                                    
                                                                                                    
                                                                                                    
                                                                                                    
                                                                                                    
                                                                                                    
                                                                                                    
                                                                                                    
                                                                                                    
                                                                                                    
                           
<?xpacket end="w"?></metadata>
<defs>
    <style>
      .cls-1 {
        fill: #fffefe;
        fill-rule: evenodd;
      }
    </style>
  </defs>
  <rect id="Rounded_Rectangle_1" data-name="Rounded Rectangle 1" width="131" height="35" rx="5" ry="5"/>
  <path id="BUY_NOW" data-name="BUY NOW" class="cls-1" d="M18.514,16.846a3.64,3.64,0,0,0,1.87-1.479,4.992,4.992,0,0,0,.566-2.552V12.061a5.754,5.754,0,0,0-.681-3.074A3.824,3.824,0,0,0,17.992,7.45,16.909,16.909,0,0,0,13.5,6.986H7.958v20.59h6.119A16.545,16.545,0,0,0,18.6,27.1a3.825,3.825,0,0,0,2.291-1.624,6.252,6.252,0,0,0,.7-3.233V21.486a5.514,5.514,0,0,0-.71-3.03,4.2,4.2,0,0,0-2.363-1.61h0Zm-5.8-6.67h0.841a5,5,0,0,1,1.7.217,1.313,1.313,0,0,1,.783.754,4.306,4.306,0,0,1,.218,1.552v0.29a3.742,3.742,0,0,1-.218,1.45,1.33,1.33,0,0,1-.8.71,5.021,5.021,0,0,1-1.682.217H12.714V10.176Zm4,11.31a5.527,5.527,0,0,1-.217,1.769,1.45,1.45,0,0,1-.8.87,4.343,4.343,0,0,1-1.711.261H12.714V18.5H13.99a4.84,4.84,0,0,1,1.711.232,1.353,1.353,0,0,1,.8.812,4.909,4.909,0,0,1,.217,1.653v0.29Zm14.877,6.409a9.688,9.688,0,0,0,4.191-.725,4.177,4.177,0,0,0,2.088-2.436,14.965,14.965,0,0,0,.624-4.9V6.986H33.623v13.2a13.34,13.34,0,0,1-.174,2.465,2.087,2.087,0,0,1-.609,1.232,2.326,2.326,0,0,1-2.494,0,2.087,2.087,0,0,1-.609-1.232,13.34,13.34,0,0,1-.174-2.465V6.986H24.691V19.833a14.952,14.952,0,0,0,.624,4.9A4.174,4.174,0,0,0,27.4,27.17a9.685,9.685,0,0,0,4.191.725h0ZM50.964,6.986l-2.726,8.671L45.512,6.986H40.437L45.8,20.239v7.337h4.756V20.239L55.923,6.986H50.964ZM75.295,20.7L70.22,6.986H64.942v20.59h4.089V13.859l5.075,13.717h5.278V6.986H75.295V20.7Zm14.529,7.192a8.988,8.988,0,0,0,4.394-.87,4.882,4.882,0,0,0,2.16-3.045,23.821,23.821,0,0,0,.638-6.322V16.9a23.824,23.824,0,0,0-.638-6.322,4.882,4.882,0,0,0-2.16-3.045,8.988,8.988,0,0,0-4.394-.87,8.987,8.987,0,0,0-4.394.87,4.83,4.83,0,0,0-2.146,3.045,24.33,24.33,0,0,0-.623,6.322v0.754a24.327,24.327,0,0,0,.623,6.322,4.83,4.83,0,0,0,2.146,3.045,8.987,8.987,0,0,0,4.394.87h0Zm0-3.654a1.752,1.752,0,0,1-1.435-.58,4.065,4.065,0,0,1-.667-2,34.9,34.9,0,0,1-.188-4.234v-0.29a34.907,34.907,0,0,1,.188-4.234,4.068,4.068,0,0,1,.667-2,1.753,1.753,0,0,1,1.435-.58,1.8,1.8,0,0,1,1.45.58,3.991,3.991,0,0,1,.681,2.015,35.062,35.062,0,0,1,.188,4.22v0.29a35.062,35.062,0,0,1-.188,4.22,3.989,3.989,0,0,1-.681,2.015,1.8,1.8,0,0,1-1.45.58h0ZM116.359,23.2L113.4,6.986H108.21L105.252,23.11,103.106,6.986h-4.64l3.8,20.59h5.684l2.726-15.138,2.7,15.138h5.684l3.8-20.59h-4.321Z"/>
</svg>
