<?xml version="1.0" encoding="utf-8"?>
<!-- Generator: Adobe Illustrator 18.0.0, SVG Export Plug-In . SVG Version: 6.00 Build 0)  -->
<!DOCTYPE svg PUBLIC "-//W3C//DTD SVG 1.1//EN" "http://www.w3.org/Graphics/SVG/1.1/DTD/svg11.dtd">
<svg version="1.1" id="Layer_1" xmlns="http://www.w3.org/2000/svg" xmlns:xlink="http://www.w3.org/1999/xlink" x="0px" y="0px"
	 width="459.5px" height="60.9px" viewBox="0 0 459.5 60.9" enable-background="new 0 0 459.5 60.9" xml:space="preserve">
<g>
	<g>
		<path fill="#FFFFFF" d="M6.9,23.4h6.4V5.1h7.1V0.6H0v4.5h6.9V23.4z M29.5,14.2h7.6v9.2h6.4V0.6h-6.4v8.9h-7.6V0.6h-6.4v22.9h6.3
			v-9.3H29.5z M54.4,14.1h10.2V9.8H54.4V5h10.9V0.6H48.1v22.8h17.4V19H54.4V14.1z M89.4,19.4c-4.9,0-4.9-5.8-4.9-7.2
			c0-4.2,1.2-7.7,5-7.7c1.8,0,3.4,0.9,3.7,3.2h6.5c0-0.9-0.1-2.9-1.9-4.9C96,1,93.2,0.1,89.5,0.1c-3.3,0-6.3,0.7-8.6,3.4
			C78.8,5.9,78,9.1,78,12.2c0,2.4,0.4,6,2.9,8.7s6.4,3,8.6,3c3,0,10.2-0.6,10.3-7.8h-6.6C93.1,17,92.8,19.4,89.4,19.4z M114.5,24
			c2.9,0,6.9-0.5,9.2-3.3c1.4-1.7,1.8-4.4,1.8-7V0.6h-6.2V14c0,2.3-0.5,5.5-4.5,5.5c-1.5,0-3-0.6-3.9-1.9c-0.6-0.9-0.7-2.2-0.7-3.5
			V0.6h-6.4v13C103.7,17.3,103.7,24,114.5,24z M146.6,14.2c0.9-0.5,3.4-2.2,3.4-6.2c0-3-1.3-5-3.2-6.2s-4.2-1.2-5.9-1.2h-10.5v22.9
			h6.3v-8.2h4.1C142,15.2,144.8,15.2,146.6,14.2z M136.7,10.8v-6h2.8c1.8,0,4.1,0.2,4.1,2.9c0,3.1-2.5,3.1-4,3.1H136.7z M174.1,23.4
			V5.1h7.1V0.6h-20.4v4.5h6.9v18.3H174.1z M197.8,9.5h-7.6V0.6h-6.4v22.9h6.3v-9.2h7.6v9.2h6.4V0.6h-6.4L197.8,9.5L197.8,9.5z
			 M214.8,18.8h9.1l1.6,4.6h7.1l-9-22.9h-7.7l-9,22.9h6.3L214.8,18.8z M219.4,5L219.4,5l3,9.6h-6.2L219.4,5z M236.9,23.4h6.4V5.1
			h7.1V0.6H230v4.5h6.9V23.4z M281,0.6h-20.4v4.5h6.9v18.3h6.4V5.1h7.1V0.6z M286.1,18.8h9.1l1.6,4.6h7.1l-9-22.9h-7.7l-9,22.9h6.3
			L286.1,18.8z M290.8,5L290.8,5l3,9.6h-6.2L290.8,5z M313,0.6h-6.5v22.9h6.5V0.6z M334.2,18.9H324V0.6h-6.4v22.9h16.6V18.9z
			 M359.1,22.7V10.4h-10.8v4.3h4.8v4.4c-1.2,0.2-2.3,0.4-3.5,0.4c-3.8,0-6.8-2.2-6.8-7.6c0-3.8,1.6-7.6,5.9-7.6c1.7,0,3.6,0.7,3.9,3
			h6.4c0-1.1-0.1-3-1.7-4.7c-1.8-1.9-4.8-2.7-8.3-2.7c-2.7,0-6.7,0.5-9.4,3c-2.6,2.5-3.4,6.3-3.4,9.1c0,3.6,1.3,7.3,4.2,9.4
			c2.7,2,6.1,2.4,8.5,2.4C352.4,23.9,355.8,23.5,359.1,22.7z M378.6,0.6h-7.7l-9,22.9h6.3l1.5-4.6h9.1l1.6,4.6h7.1L378.6,0.6z
			 M371.3,14.6l3.2-9.6h0.1l2.9,9.6H371.3z M391.9,23.4h6.4V5.1h7.1V0.6H385v4.5h6.9V23.4z M425.6,19h-11.1v-4.9h10.2V9.8h-10.2V5
			h10.9V0.6h-17.1v22.8h17.4L425.6,19L425.6,19z M438.9,19.7c-3.8,0-3.8-2.6-3.9-3.5h-6.3c0,1,0.1,3.2,1.7,5.1
			c2.1,2.3,5.9,2.7,8.3,2.7c5.7,0,10.1-2.3,10.1-7.4c0-4.8-3.6-5.8-6.6-6.6l-4.3-1.1c-0.9-0.3-2.3-0.7-2.3-2.3c0-1.4,1.2-2.4,3-2.4
			c3,0,3,2.5,3,3.2h6.4c0-2.4-0.4-7.3-9.3-7.3c-6.8,0-9.6,3.5-9.6,7.2c0,4.8,4.1,5.9,5.7,6.3l5.6,1.5c1.5,0.4,2,1.1,2,2.2
			C442.3,19.7,439.5,19.7,438.9,19.7z M11.3,31.3L0,60.1h8l1.9-5.8h11.5l2,5.8h9L21,31.3H11.3z M11.8,49l4-12.1h0.1L19.6,49H11.8z
			 M50.8,43.2l-5.4-1.4c-1.2-0.3-2.9-0.8-2.9-3c0-1.7,1.5-3,3.8-3c3.8,0,3.8,3.1,3.8,4h8.1c0-3.1-0.5-9.2-11.7-9.2
			c-8.6,0-12.1,4.3-12.1,9c0,6,5.1,7.4,7.1,7.9l7,1.8c1.9,0.5,2.5,1.4,2.5,2.8c0,3.3-3.6,3.3-4.3,3.3c-4.7,0-4.8-3.3-4.9-4.5h-8
			c0,1.2,0.1,4.1,2.2,6.4c2.6,3,7.4,3.4,10.4,3.4c7.2,0,12.7-2.9,12.7-9.3C59.2,45.4,54.7,44.2,50.8,43.2z M91.2,42.6h-9.6V31.3h-8
			v28.8h8V48.5h9.6v11.7h8.1V31.3h-8.1V42.6z M114,31.3l-11.3,28.8h8l1.9-5.8h11.5l2,5.8h9l-11.3-28.8H114z M114.5,49l4-12.1h0.1
			l3.7,12.1H114.5z M155.6,46v-0.2c0.8-0.1,2.5-0.3,4.4-1.5c1.4-0.8,2.6-2.2,2.6-5.3s-1.1-4.7-2-5.6c-1.7-1.8-3.7-2.1-8.8-2.1h-13.3
			v28.8h8V48.9h3.3c3.6,0,3.7,1.3,4.1,4.7c0.3,2.6,0.5,4.7,1,6.5h8.6c-0.7-2-1.1-5.1-1.4-7.1C161.5,48.6,161.2,46.1,155.6,46z
			 M152.8,43.4c-0.7,0.2-1.6,0.2-3.3,0.2h-3v-7.1h3c2.3,0,5.4,0,5.4,3.6C154.9,41.1,154.5,42.9,152.8,43.4z M191,33.7
			c-3-2-7.5-2.4-10.9-2.4H168v28.8h12.2c2,0,5.5,0,8.4-1.1c5.8-2.3,7.8-7,7.8-13.4C196.4,41.4,195.2,36.6,191,33.7z M179.5,54.6
			h-3.4V36.8h3.1c2.4,0,9,0,9,8.7C188.2,52.3,184.8,54.5,179.5,54.6z M219.9,31.3l-11.3,28.8h8l1.9-5.8H230l2,5.8h9l-11.3-28.8
			H219.9z M220.3,49l4-12.1h0.1l3.7,12.1H220.3z M259.4,43.2l-5.4-1.4c-1.2-0.3-2.9-0.8-2.9-3c0-1.7,1.5-3,3.8-3
			c3.8,0,3.8,3.1,3.8,4h8.1c0-3.1-0.5-9.2-11.7-9.2c-8.6,0-12.1,4.3-12.1,9c0,6,5.1,7.4,7.1,7.9l7,1.8c1.9,0.5,2.5,1.4,2.5,2.8
			c0,3.3-3.6,3.3-4.3,3.3c-4.7,0-4.8-3.3-4.9-4.5h-8c0,1.2,0.1,4.1,2.2,6.4c2.6,3,7.4,3.4,10.4,3.4c7.2,0,12.7-2.9,12.7-9.3
			C267.7,45.4,263.2,44.2,259.4,43.2z M301.8,31.3l-6.5,12.1L289,31.3h-9.2l10.9,18.3v10.5h8V49.9L310,31.3H301.8z M324.6,30.5
			c-2.1,0-7.6,0.3-11.2,4s-3.9,9.4-3.9,11.3c0,10.7,7.1,15,14.8,15c6.8,0,15-3.5,15-15C339.2,38.8,336.1,30.5,324.6,30.5z
			 M324.3,54.9c-5.3,0-6.6-4.5-6.6-9.1c0-4.9,1.4-9.5,6.7-9.5c1.8,0,3.6,0.5,4.8,2.1c0.9,1.3,1.8,3.3,1.8,7.3
			C331,49.7,330,54.9,324.3,54.9z M363.9,48.1c0,2.9-0.7,7-5.7,7c-1.9,0-3.8-0.8-4.9-2.4c-0.8-1.2-0.9-2.8-0.9-4.3V31.3h-8v16.4
			c0,4.7,0,13.2,13.6,13.2c3.6,0,8.8-0.7,11.5-4.1c1.8-2.1,2.2-5.6,2.2-8.8V31.3h-7.8L363.9,48.1L363.9,48.1z M410.6,33.7
			c-3-2-7.5-2.4-10.9-2.4h-12.1v28.8h12.2c2,0,5.5,0,8.4-1.1c5.8-2.3,7.8-7,7.8-13.4C416,41.4,414.9,36.6,410.6,33.7z M399.1,54.6
			h-3.4V36.8h3.1c2.4,0,9,0,9,8.7C407.8,52.3,404.4,54.5,399.1,54.6z M434.9,30.5c-2.1,0-7.6,0.3-11.2,4s-3.9,9.4-3.9,11.3
			c0,10.7,7.1,15,14.8,15c6.8,0,15-3.5,15-15C449.5,38.8,446.4,30.5,434.9,30.5z M434.6,54.9c-5.3,0-6.6-4.5-6.6-9.1
			c0-4.9,1.4-9.5,6.7-9.5c1.8,0,3.6,0.5,4.8,2.1c0.9,1.3,1.8,3.3,1.8,7.3C441.2,49.7,440.3,54.9,434.6,54.9z M454,55.4v4.7h5.6v-4.7
			H454z"/>
	</g>
</g>
</svg>
