<svg xmlns="http://www.w3.org/2000/svg" width="414.875" height="42.438" viewBox="0 0 414.875 42.438">
  <metadata><?xpacket begin="﻿" id="W5M0MpCehiHzreSzNTczkc9d"?>
<x:xmpmeta xmlns:x="adobe:ns:meta/" x:xmptk="Adobe XMP Core 5.6-c138 79.159824, 2016/09/14-01:09:01        ">
   <rdf:RDF xmlns:rdf="http://www.w3.org/1999/02/22-rdf-syntax-ns#">
      <rdf:Description rdf:about=""/>
   </rdf:RDF>
</x:xmpmeta>
                                                                                                    
                                                                                                    
                                                                                                    
                                                                                                    
                                                                                                    
                                                                                                    
                                                                                                    
                                                                                                    
                                                                                                    
                                                                                                    
                                                                                                    
                                                                                                    
                                                                                                    
                                                                                                    
                                                                                                    
                                                                                                    
                                                                                                    
                                                                                                    
                                                                                                    
                                                                                                    
                           
<?xpacket end="w"?></metadata>
<defs>
    <style>
      .cls-1 {
        fill: #fff;
        fill-rule: evenodd;
      }
    </style>
  </defs>
  <path id="UNDER_THE_HOOD" data-name="UNDER THE HOOD" class="cls-1" d="M27.928,80.638q5.36,0,8.24-1.45a8.315,8.315,0,0,0,4.106-4.872,30.41,30.41,0,0,0,1.226-9.8V38.82H31.92V65.21a27.125,27.125,0,0,1-.342,4.93,4.2,4.2,0,0,1-1.2,2.465,3.689,3.689,0,0,1-2.452.725,3.687,3.687,0,0,1-2.452-.725,4.2,4.2,0,0,1-1.2-2.465,27.125,27.125,0,0,1-.342-4.93V38.82h-9.58V64.514a30.384,30.384,0,0,0,1.226,9.8,8.308,8.308,0,0,0,4.106,4.872q2.879,1.449,8.24,1.45h0ZM69.27,66.254L59.291,38.82H48.913V80h8.04V52.566L66.932,80H77.311V38.82H69.27V66.254ZM84.894,80H96.927q6.1,0,9.352-1.682A9.578,9.578,0,0,0,110.9,72.4q1.368-4.233,1.368-12.238V58.656q0-8-1.368-12.238a9.583,9.583,0,0,0-4.619-5.916q-3.251-1.682-9.352-1.682H84.894V80Zm9.352-7.482V46.244H96.47a6.1,6.1,0,0,1,3.964,1.073,6.036,6.036,0,0,1,1.739,3.712,52.031,52.031,0,0,1,.456,8.091V59.7a52.015,52.015,0,0,1-.456,8.091,5.891,5.891,0,0,1-1.739,3.683,6.222,6.222,0,0,1-3.964,1.044H94.247ZM141.234,80V72.75H128.005V62.6h11.461V55.35H128.005V46.07h12.659V38.82H118.652V80h22.582Zm33.074,0-5.931-16.588a7.548,7.548,0,0,0,3.935-3.8,16.693,16.693,0,0,0,1.2-6.931V51.174a16.5,16.5,0,0,0-1.4-7.569,7.722,7.722,0,0,0-4.647-3.712,30.881,30.881,0,0,0-9.238-1.073H146.993V80h9.352V64.978H160L164.386,80h9.922ZM158.056,57.554h-1.711V46.244h1.711a11.278,11.278,0,0,1,3.706.464,2.782,2.782,0,0,1,1.711,1.595,9.356,9.356,0,0,1,.456,3.335v0.58a8.276,8.276,0,0,1-.484,3.161,3.087,3.087,0,0,1-1.74,1.653,9.9,9.9,0,0,1-3.649.522h0ZM208.693,80V47.056h8.041V38.82H191.358v8.236h7.983V80h9.352ZM230.7,80V63.354h8.782V80h9.352V38.82h-9.352V54.828H230.7V38.82h-9.352V80H230.7Zm48.243,0V72.75h-13.23V62.6h11.462V55.35H265.717V46.07h12.66V38.82H256.365V80h22.582Zm30.164,0V63.354h8.782V80h9.352V38.82h-9.352V54.828h-8.782V38.82h-9.352V80h9.352Zm38.606,0.638q5.645,0,8.639-1.74a9.753,9.753,0,0,0,4.248-6.09q1.254-4.35,1.255-12.644V58.656q0-8.293-1.255-12.644a9.753,9.753,0,0,0-4.248-6.09q-2.994-1.74-8.639-1.74t-8.639,1.74a9.652,9.652,0,0,0-4.22,6.09,49.449,49.449,0,0,0-1.226,12.644v1.508a49.445,49.445,0,0,0,1.226,12.644,9.652,9.652,0,0,0,4.22,6.09q2.993,1.74,8.639,1.74h0Zm0-7.308a3.417,3.417,0,0,1-2.823-1.16,8.224,8.224,0,0,1-1.312-4,71.171,71.171,0,0,1-.37-8.468V59.12a71.192,71.192,0,0,1,.37-8.468,8.231,8.231,0,0,1,1.312-4,3.42,3.42,0,0,1,2.823-1.16,3.507,3.507,0,0,1,2.851,1.16,8.071,8.071,0,0,1,1.34,4.031,71.249,71.249,0,0,1,.371,8.439V59.7a71.249,71.249,0,0,1-.371,8.439,8.068,8.068,0,0,1-1.34,4.031,3.5,3.5,0,0,1-2.851,1.16h0Zm33.53,7.308q5.644,0,8.639-1.74a9.753,9.753,0,0,0,4.248-6.09q1.254-4.35,1.255-12.644V58.656q0-8.293-1.255-12.644a9.753,9.753,0,0,0-4.248-6.09q-2.994-1.74-8.639-1.74t-8.639,1.74a9.652,9.652,0,0,0-4.22,6.09,49.449,49.449,0,0,0-1.226,12.644v1.508a49.445,49.445,0,0,0,1.226,12.644,9.652,9.652,0,0,0,4.22,6.09q2.993,1.74,8.639,1.74h0Zm0-7.308a3.417,3.417,0,0,1-2.823-1.16,8.224,8.224,0,0,1-1.312-4,71.171,71.171,0,0,1-.37-8.468V59.12a71.192,71.192,0,0,1,.37-8.468,8.231,8.231,0,0,1,1.312-4,3.42,3.42,0,0,1,2.823-1.16,3.507,3.507,0,0,1,2.851,1.16,8.071,8.071,0,0,1,1.34,4.031,71.249,71.249,0,0,1,.371,8.439V59.7a71.249,71.249,0,0,1-.371,8.439,8.068,8.068,0,0,1-1.34,4.031,3.5,3.5,0,0,1-2.851,1.16h0ZM401.832,80h12.032q6.1,0,9.352-1.682a9.575,9.575,0,0,0,4.619-5.916q1.37-4.233,1.369-12.238V58.656q0-8-1.369-12.238a9.58,9.58,0,0,0-4.619-5.916q-3.249-1.682-9.352-1.682H401.832V80Zm9.352-7.482V46.244h2.224a6.1,6.1,0,0,1,3.963,1.073,6.031,6.031,0,0,1,1.74,3.712,52.031,52.031,0,0,1,.456,8.091V59.7a52.015,52.015,0,0,1-.456,8.091,5.887,5.887,0,0,1-1.74,3.683,6.218,6.218,0,0,1-3.963,1.044h-2.224Z" transform="translate(-14.344 -38.188)"/>
</svg>
