<svg id="CTA" xmlns="http://www.w3.org/2000/svg" width="78.531" height="16.906" viewBox="0 0 78.531 16.906">
  <metadata><?xpacket begin="﻿" id="W5M0MpCehiHzreSzNTczkc9d"?>
<x:xmpmeta xmlns:x="adobe:ns:meta/" x:xmptk="Adobe XMP Core 5.6-c138 79.159824, 2016/09/14-01:09:01        ">
   <rdf:RDF xmlns:rdf="http://www.w3.org/1999/02/22-rdf-syntax-ns#">
      <rdf:Description rdf:about=""/>
   </rdf:RDF>
</x:xmpmeta>
                                                                                                    
                                                                                                    
                                                                                                    
                                                                                                    
                                                                                                    
                                                                                                    
                                                                                                    
                                                                                                    
                                                                                                    
                                                                                                    
                                                                                                    
                                                                                                    
                                                                                                    
                                                                                                    
                                                                                                    
                                                                                                    
                                                                                                    
                                                                                                    
                                                                                                    
                                                                                                    
                           
<?xpacket end="w"?></metadata>
<defs>
    <style>
      .cls-1, .cls-2 {
        fill-rule: evenodd;
      }

      .cls-2 {
        fill: #fff;
      }
    </style>
  </defs>
  <path id="Rounded_Rectangle_1" data-name="Rounded Rectangle 1" class="cls-1" d="M243.474,25.082H312a5,5,0,0,1,5,5V37a5,5,0,0,1-5,5H243.474a5,5,0,0,1-5-5V30.082A5,5,0,0,1,243.474,25.082Z" transform="translate(-238.469 -25.094)"/>
  <path id="SHOP_NOW" data-name="SHOP NOW" class="cls-2" d="M248.472,39.534a4.983,4.983,0,0,0,1.913-.3,1.933,1.933,0,0,0,1.026-.973,4.273,4.273,0,0,0,.319-1.806,3.6,3.6,0,0,0-.409-1.806,2.212,2.212,0,0,0-1.179-1l-0.88-.329-0.485-.2a4.976,4.976,0,0,1-.665-0.294,1.019,1.019,0,0,1-.368-0.364,1.228,1.228,0,0,1-.145-0.644,0.788,0.788,0,0,1,.9-0.882,0.892,0.892,0,0,1,.721.252,1.25,1.25,0,0,1,.207.8V32.2h2.066v-0.21a3.788,3.788,0,0,0-.277-1.6,1.668,1.668,0,0,0-.9-0.84,4.653,4.653,0,0,0-1.733-.259,3.6,3.6,0,0,0-2.405.644,2.734,2.734,0,0,0-.728,2.142,3.244,3.244,0,0,0,.305,1.533,2.1,2.1,0,0,0,.742.833,7.276,7.276,0,0,0,1.171.546l0.527,0.21c0.36,0.14.624,0.252,0.79,0.336a1.087,1.087,0,0,1,.43.427,1.593,1.593,0,0,1,.18.819,1.273,1.273,0,0,1-.229.833,1.013,1.013,0,0,1-.811.273,1.026,1.026,0,0,1-.887-0.343,2.023,2.023,0,0,1-.25-1.155V36.062h-2.093v0.364a4.705,4.705,0,0,0,.291,1.841,1.829,1.829,0,0,0,.971.966,4.765,4.765,0,0,0,1.885.3h0Zm6.959-.154V35.362h2.135V39.38h2.273V29.44h-2.273V33.3h-2.135V29.44h-2.273v9.94h2.273Zm9.385,0.154a4.259,4.259,0,0,0,2.1-.42,2.351,2.351,0,0,0,1.033-1.47,11.616,11.616,0,0,0,.305-3.052V34.228a11.617,11.617,0,0,0-.305-3.052,2.351,2.351,0,0,0-1.033-1.47,5.46,5.46,0,0,0-4.2,0,2.333,2.333,0,0,0-1.026,1.47,11.849,11.849,0,0,0-.3,3.052v0.364a11.848,11.848,0,0,0,.3,3.052,2.333,2.333,0,0,0,1.026,1.47,4.259,4.259,0,0,0,2.1.42h0Zm0-1.764a0.833,0.833,0,0,1-.686-0.28,1.97,1.97,0,0,1-.319-0.966,17.066,17.066,0,0,1-.09-2.044V34.34a17.071,17.071,0,0,1,.09-2.044,1.971,1.971,0,0,1,.319-0.966,0.833,0.833,0,0,1,.686-0.28,0.855,0.855,0,0,1,.693.28,1.937,1.937,0,0,1,.326.973,17.1,17.1,0,0,1,.09,2.037v0.14a17.1,17.1,0,0,1-.09,2.037,1.936,1.936,0,0,1-.326.973,0.854,0.854,0,0,1-.693.28h0Zm5.005,1.61h2.273V35.922h0.471a7.2,7.2,0,0,0,2.239-.273,1.908,1.908,0,0,0,1.137-.931,4.1,4.1,0,0,0,.34-1.848V32.506a4.141,4.141,0,0,0-.34-1.862,1.909,1.909,0,0,0-1.137-.931,7.2,7.2,0,0,0-2.239-.273h-2.744v9.94Zm2.273-5.25v-2.9h0.43a2.421,2.421,0,0,1,.887.126,0.717,0.717,0,0,1,.416.413,2.471,2.471,0,0,1,.111.847v0.14a2.416,2.416,0,0,1-.111.833,0.717,0.717,0,0,1-.416.413,2.421,2.421,0,0,1-.887.126h-0.43Zm13.96,1.932-2.426-6.622h-2.523v9.94h1.954V32.758l2.426,6.622h2.523V29.44h-1.954v6.622ZM293,39.534a4.259,4.259,0,0,0,2.1-.42,2.355,2.355,0,0,0,1.033-1.47,11.616,11.616,0,0,0,.305-3.052V34.228a11.617,11.617,0,0,0-.305-3.052,2.355,2.355,0,0,0-1.033-1.47,5.46,5.46,0,0,0-4.2,0,2.325,2.325,0,0,0-1.026,1.47,11.849,11.849,0,0,0-.3,3.052v0.364a11.848,11.848,0,0,0,.3,3.052,2.325,2.325,0,0,0,1.026,1.47,4.259,4.259,0,0,0,2.1.42h0Zm0-1.764a0.833,0.833,0,0,1-.686-0.28,1.97,1.97,0,0,1-.319-0.966,17.066,17.066,0,0,1-.09-2.044V34.34a17.071,17.071,0,0,1,.09-2.044,1.971,1.971,0,0,1,.319-0.966A0.833,0.833,0,0,1,293,31.05a0.855,0.855,0,0,1,.693.28,1.937,1.937,0,0,1,.326.973,17.1,17.1,0,0,1,.09,2.037v0.14a17.1,17.1,0,0,1-.09,2.037,1.936,1.936,0,0,1-.326.973,0.854,0.854,0,0,1-.693.28h0Zm12.684-.5-1.414-7.826h-2.481l-1.414,7.784-1.026-7.784H297.13l1.816,9.94h2.717l1.3-7.308,1.29,7.308h2.717l1.816-9.94h-2.066Z" transform="translate(-238.469 -25.094)"/>
</svg>
