<?xml version="1.0" encoding="UTF-8"?><svg id="a" xmlns="http://www.w3.org/2000/svg" viewBox="0 0 301.36 146.66"><path d="M66.25,10.49L30.24,.08c-.2-.06-.39-.08-.59-.08-.92,0-1.78,.61-2.05,1.53l-4.17,14.29h3.3l1.4-4.81,34.01,9.83-3.44,11.81-3-.87v3.3l3.12,.9c.2,.06,.39,.08,.59,.08,.92,0,1.78-.61,2.05-1.54l6.24-21.42c.33-1.12-.32-2.31-1.45-2.63h0Zm-2.64,5.31L29.61,5.97l.75-2.56,34.01,9.83-.75,2.56h0Z" style="fill:#2cb34a;"/><path d="M50.57,18.83H13.09c-1.17,0-2.13,.96-2.13,2.13v22.1c0,1.17,.96,2.13,2.13,2.13H50.57c1.17,0,2.13-.96,2.13-2.13V20.95c0-1.17-.96-2.13-2.13-2.13h0Zm-1.89,21.47H15.25v-2.25H48.68v2.25h0Z" style="fill:#2cb34a;"/></svg>