<?xml version="1.0" encoding="UTF-8"?><svg id="a" xmlns="http://www.w3.org/2000/svg" viewBox="0 0 26.76 44.19"><path d="M23.27,20.21h0c.66,.66,.66,1.72,0,2.37-.65,.65-1.71,.65-2.37,0h0c-1.62-1.63-4.61-5.04-7.15-7.83-2.53,2.83-5.72,6.23-7.36,7.87h0c-.66,.66-1.71,.66-2.37,0-.65-.65-.65-1.71,0-2.37,1.66-1.65,5.09-4.77,7.94-7.32-1.04-1.15-1.84-2.03-2.13-2.36-1.63,.8-3.98,.25-6.07-1.84C1.28,6.27,.54,2.99,2.11,1.42,3.67-.14,6.95,.6,9.44,3.08c2.09,2.09,2.65,4.44,1.84,6.07,.33,.3,1.25,1.13,2.45,2.21,1.02-.92,1.86-1.66,2.34-2.09-.7-1.27-.52-2.91,.56-3.99,0,0,6.02-5.88,6.66-5.24,.65,.65-4.05,4.88-4.05,4.88-.32,.33-.4,.78-.17,1.01,.23,.23,.68,.15,1-.18,0,0,4.24-4.68,4.88-4.05,.63,.64-4.05,4.88-4.05,4.88-.32,.33-.41,.78-.18,1.01,.22,.23,.68,.15,1.01-.18,0,0,4.33-4.59,4.87-4.05,.54,.54-5.24,6.66-5.24,6.66-1.08,1.08-2.72,1.27-3.99,.56-.42,.46-1.13,1.27-2.02,2.26,2.81,2.55,6.26,5.72,7.9,7.37h0Z" style="fill:#1c9bc2;"/><path d="M24.35,26.33h-2.68c0-.16-2.26-.16-2.26,0h-1.1c-.06-.69-.46-1.03-.97-1.09-.03-.33-.16-.65-.41-.99,.07-.24-.06-.57-.41-.9-.8-.73-1.95-1.05-3.01-1.05s-2.23,.31-3.01,1.05c-.15,.14-.48,.57-.42,.9-.25,.34-.38,.65-.41,.98-.54,.04-.96,.38-1.03,1.09h-1.06c0-.16-2.26-.16-2.26,0H2.41c-1.33,0-2.41,1.08-2.41,2.42v12.13c0,1.33,1.08,2.41,2.41,2.41h.19c.08,.69,.45,.9,.89,.9s.82-.22,.89-.9h.92c0,.16,2.26,.16,2.26,0h11.84c0,.16,2.26,.16,2.26,0h.76c.08,.69,.45,.9,.89,.9s.82-.22,.89-.9h.13c1.33,0,2.42-1.08,2.42-2.41v-12.13c0-1.33-1.08-2.42-2.42-2.42h0ZM7.03,42.84c-.06,.01-1.12,.01-1.18,0V26.78c.06-.01,1.12-.01,1.18,0v16.07h0Zm9-16.51h-5.13c-.05-.59-.35-.92-.75-1.05,.02-.25,.1-.46,.26-.67,.3,.13,.6-.02,.7-.08,.72-.44,1.2-.73,2.38-.73s1.66,.28,2.38,.73c.1,.06,.39,.18,.69,.06,.17,.22,.26,.42,.28,.68-.43,.11-.75,.45-.81,1.06h0Zm5.1,16.51c-.06,.01-1.12,.01-1.18,0V26.78c.06-.01,1.12-.01,1.18,0v16.07h0Z" style="fill:#1c9bc2;"/></svg>