<?xml version="1.0" encoding="UTF-8"?><svg id="a" xmlns="http://www.w3.org/2000/svg" viewBox="0 0 26.99 50.68"><path d="M26.73,31.3l-4.08-3.9c-.34-.33-.88-.31-1.21,.03-.33,.34-.31,.88,.03,1.21l2.1,2.01,.11,1.69,1.6,1.63v9.82c0,.9-.39,1.87-1.26,1.87s-1.26-.97-1.26-1.87v-5.22c0-.22-.08-.42-.23-.58l-3.45-3.74v-9.04c0-.54-.44-.98-.98-.98H4.44c-.54,0-.98,.44-.98,.98v23.06h-.73c-.54,.01-.98,.45-.98,.99v.47c0,.54,.44,.98,.98,.98H19.81c.54,0,.98-.44,.98-.98v-.47c0-.54-.44-.97-.98-.97h-.73v-11.49l1.98,2.12v4.88c0,2.07,1.25,3.57,2.97,3.57s2.97-1.5,2.97-3.57v-11.86c0-.23-.1-.46-.26-.62h0Zm-10.38,2.33c0,.42-.38,.82-.84,.89-2.81,.37-5.65,.37-8.46,0-.46-.06-.84-.47-.84-.89v-5.48c0-.42,.38-.82,.84-.89,2.81-.37,5.65-.37,8.46,0,.46,.06,.84,.47,.84,.89v5.48h0Z" style="fill:#f5841f;"/><path d="M10.42,7.27h2.96v1.54h3.33c.22,0,.41,.08,.57,.24,.16,.16,.24,.35,.24,.57,0,.22-.08,.41-.24,.57-.16,.16-.35,.24-.57,.24h-3.33v1.67h3.33c.22,0,.41,.08,.57,.24,.16,.16,.24,.35,.24,.57,0,.22-.08,.41-.24,.57-.16,.16-.35,.24-.57,.24h-3.33v1.54h-2.96c-.49,0-.94-.08-1.37-.23-.54-.19-1.02-.5-1.46-.94-.51-.51-.86-1.1-1.04-1.75-.02-.09-.04-.17-.06-.26H1.65c.18,2.31,1.11,4.31,2.8,6,1.88,1.88,4.16,2.83,6.82,2.83s4.94-.94,6.82-2.83c1.88-1.88,2.83-4.16,2.83-6.82s-.94-4.94-2.83-6.82S13.94,1.62,11.27,1.62s-4.83,.9-6.69,2.7l-.02,.02-1.15-1.15,.02-.02C5.61,1.06,8.22,0,11.27,0s5.77,1.1,7.97,3.3c2.2,2.2,3.3,4.86,3.3,7.97s-1.1,5.77-3.3,7.97c-2.2,2.2-4.86,3.3-7.97,3.3s-5.77-1.1-7.97-3.3S0,14.38,0,11.27c0-.27,0-.55,.03-.81H6.5c.15-.77,.52-1.44,1.1-2.01,.44-.44,.92-.75,1.46-.95,.42-.15,.88-.23,1.37-.23Z" style="fill:#f5841f;"/></svg>