<?xml version="1.0" encoding="utf-8"?>
<!-- Generator: Adobe Illustrator 18.1.1, SVG Export Plug-In . SVG Version: 6.00 Build 0)  -->
<svg version="1.1" id="Layer_1" xmlns="http://www.w3.org/2000/svg" xmlns:xlink="http://www.w3.org/1999/xlink" x="0px" y="0px"
	 width="75.3px" height="7.8px" viewBox="0 0 75.3 7.8" enable-background="new 0 0 75.3 7.8" xml:space="preserve">
<path fill="#FFFFFF" d="M0,7.7h4.9V6.9H0.8V0.1H0V7.7z"/>
<path fill="#FFFFFF" d="M6.9,7.7h5.3V6.9H7.7V4.2h3.9V3.5H7.7V0.9h4.4V0.1H6.9V7.7z"/>
<path fill="#FFFFFF" d="M13.7,7.7h0.8l0.9-2h3.9l0.8,2h0.9l-3.3-7.6H17L13.7,7.7z M15.7,4.9l1.7-3.8L19,4.9H15.7z"/>
<path fill="#FFFFFF" d="M23,7.7h0.8V4.7h2h0L28,7.7h1l-2.2-3.1c1.1-0.2,2-0.9,2-2.2v0c0-0.6-0.2-1.1-0.6-1.5
	c-0.5-0.5-1.2-0.8-2.1-0.8H23V7.7z M23.8,4V0.9H26c1.2,0,1.8,0.6,1.8,1.5v0c0,1-0.8,1.5-1.9,1.5H23.8z"/>
<path fill="#FFFFFF" d="M31,7.7h0.8V1.5l4.7,6.2h0.6V0.1h-0.8v6l-4.5-6H31V7.7z"/>
<path fill="#FFFFFF" d="M43.3,7.7h0.8V1.6l2.6,4h0l2.6-4v6.1h0.8V0.1h-0.8l-2.6,4.1l-2.6-4.1h-0.8V7.7z"/>
<path fill="#FFFFFF" d="M56.1,7.8c2.2,0,3.7-1.8,3.7-3.9c0,0,0,0,0,0c0-2.1-1.5-3.9-3.7-3.9c-2.2,0-3.7,1.8-3.7,3.9v0
	C52.4,6,53.9,7.8,56.1,7.8z M56.1,7c-1.7,0-2.8-1.4-2.8-3.1v0c0-1.7,1.2-3.1,2.8-3.1c1.7,0,2.8,1.4,2.8,3.1v0
	C58.9,5.6,57.8,7,56.1,7z"/>
<path fill="#FFFFFF" d="M62,7.7h0.8V4.7h2h0L67,7.7h1l-2.2-3.1c1.1-0.2,2-0.9,2-2.2v0c0-0.6-0.2-1.1-0.6-1.5
	c-0.5-0.5-1.2-0.8-2.1-0.8H62V7.7z M62.8,4V0.9h2.2c1.2,0,1.8,0.6,1.8,1.5v0c0,1-0.8,1.5-1.9,1.5H62.8z"/>
<path fill="#FFFFFF" d="M70,7.7h5.3V6.9h-4.5V4.2h3.9V3.5h-3.9V0.9h4.4V0.1H70V7.7z"/>
</svg>
