<?xml version="1.0" encoding="utf-8"?>
<!-- Generator: Adobe Illustrator 26.1.0, SVG Export Plug-In . SVG Version: 6.00 Build 0)  -->
<svg version="1.1" id="a" xmlns="http://www.w3.org/2000/svg" xmlns:xlink="http://www.w3.org/1999/xlink" x="0px" y="0px"
	 viewBox="0 0 27 50.7" style="enable-background:new 0 0 27 50.7;" xml:space="preserve">
<style type="text/css">
	.st0{fill:#EF6723;}
</style>
<path class="st0" d="M26.7,31.3l-4.1-3.9c-0.3-0.3-0.9-0.3-1.2,0c-0.3,0.3-0.3,0.9,0,1.2l2.1,2l0.1,1.7l1.6,1.6v9.8
	c0,0.9-0.4,1.9-1.3,1.9s-1.3-1-1.3-1.9v-5.2c0-0.2-0.1-0.4-0.2-0.6l-3.5-3.7v-9c0-0.5-0.4-1-1-1H4.4c-0.5,0-1,0.4-1,1v23.1H2.7
	c-0.5,0-1,0.5-1,1v0.5c0,0.5,0.4,1,1,1h17.1c0.5,0,1-0.4,1-1v-0.5c0-0.5-0.4-1-1-1h-0.7V36.8l2,2.1v4.9c0,2.1,1.2,3.6,3,3.6
	s3-1.5,3-3.6V31.9C27,31.7,26.9,31.5,26.7,31.3L26.7,31.3L26.7,31.3z M16.3,33.6c0,0.4-0.4,0.8-0.8,0.9c-2.8,0.4-5.6,0.4-8.5,0
	c-0.5-0.1-0.8-0.5-0.8-0.9v-5.5c0-0.4,0.4-0.8,0.8-0.9c2.8-0.4,5.7-0.4,8.5,0c0.5,0.1,0.8,0.5,0.8,0.9V33.6L16.3,33.6z"/>
<path class="st0" d="M10.4,7.3h3v1.5h3.3c0.2,0,0.4,0.1,0.6,0.2s0.2,0.4,0.2,0.6c0,0.2-0.1,0.4-0.2,0.6s-0.4,0.2-0.6,0.2h-3.3v1.7
	h3.3c0.2,0,0.4,0.1,0.6,0.2s0.2,0.4,0.2,0.6c0,0.2-0.1,0.4-0.2,0.6s-0.4,0.2-0.6,0.2h-3.3v1.5h-3c-0.5,0-0.9-0.1-1.4-0.2
	c-0.5-0.2-1-0.5-1.5-0.9c-0.5-0.5-0.9-1.1-1-1.8c0-0.1,0-0.2-0.1-0.3H1.6c0.2,2.3,1.1,4.3,2.8,6c1.9,1.9,4.2,2.8,6.8,2.8
	s4.9-0.9,6.8-2.8c1.9-1.9,2.8-4.2,2.8-6.8S20,6.3,18.1,4.4s-4.2-2.8-6.8-2.8S6.4,2.5,4.6,4.3l0,0L3.4,3.2l0,0C5.6,1.1,8.2,0,11.3,0
	s5.8,1.1,8,3.3s3.3,4.9,3.3,8s-1.1,5.8-3.3,8s-4.9,3.3-8,3.3s-5.8-1.1-8-3.3S0,14.4,0,11.3c0-0.3,0-0.6,0-0.8h6.5
	C6.7,9.7,7,9,7.6,8.4C8,8,8.5,7.7,9.1,7.5C9.5,7.3,9.9,7.3,10.4,7.3L10.4,7.3z"/>
</svg>
