<?xml version="1.0" encoding="UTF-8"?><svg id="a" xmlns="http://www.w3.org/2000/svg" viewBox="0 0 58.57 44.28"><path d="M23.02,33.58c-2.95,0-5.34,2.4-5.34,5.35s2.39,5.35,5.34,5.35,5.35-2.39,5.35-5.35-2.4-5.35-5.35-5.35h0Z" style="fill:#dd1e33;"/><path d="M44.08,33.58c-2.95,0-5.35,2.4-5.35,5.35s2.39,5.35,5.35,5.35,5.35-2.39,5.35-5.35-2.39-5.35-5.35-5.35h0Z" style="fill:#dd1e33;"/><path d="M57.99,6.08c-.61-.88-1.63-1.42-2.7-1.42H19.66l1.69,6.5h29.27l-2.16,5.72H19.5c-1.27-3.51-2.59-7.28-3.36-9.89C14.38,.99,11.15,.15,10.21,.03c-.14-.02-.36-.03-.5-.03H0V6.51H8.87c.24,.32,.64,1.01,1.02,2.32,1.9,6.46,6.78,19.08,6.98,19.6,.48,1.26,1.75,2.14,3.11,2.14h27.98c1.35,0,2.63-.88,3.11-2.15l7.29-19.31c.38-1,.24-2.16-.37-3.03h0Zm-12.23,17.98H22.17c-.45-1.19-1.07-2.82-1.74-4.64h27.08l-1.75,4.64h0Z" style="fill:#dd1e33;"/></svg>