<?xml version="1.0" encoding="utf-8"?>
<!-- Generator: Adobe Illustrator 18.0.0, SVG Export Plug-In . SVG Version: 6.00 Build 0)  -->
<!DOCTYPE svg PUBLIC "-//W3C//DTD SVG 1.1//EN" "http://www.w3.org/Graphics/SVG/1.1/DTD/svg11.dtd">
<svg version="1.1" id="Layer_1" xmlns="http://www.w3.org/2000/svg" xmlns:xlink="http://www.w3.org/1999/xlink" x="0px" y="0px"
	 width="189px" height="38px" viewBox="0 0 189 38" enable-background="new 0 0 189 38" xml:space="preserve">
<rect y="5" fill="#D6113F" width="189" height="33"/>
<path fill="#E61244" d="M180,5c0,11,0,22,0,33c3,0,6,0,9,0c0-12.7,0-25.3,0-38C186,1.7,183,3.3,180,5z"/>
<g id="Call_1-800-WATCH-TV_or">
	<g>
		<path fill="#EDEDED" d="M15.2,14.4c2.4,0,3.6,1.3,3.6,1.3l-0.7,1c0,0-1.2-1.1-2.9-1.1c-2.2,0-3.7,1.7-3.7,3.8c0,2.1,1.5,4,3.7,4
			c1.9,0,3.1-1.3,3.1-1.3l0.8,1c0,0-1.4,1.6-3.9,1.6c-3,0-5.1-2.3-5.1-5.2C10.1,16.6,12.3,14.4,15.2,14.4z"/>
		<path fill="#EDEDED" d="M24.4,20.1h0.3V20c0-1.2-0.7-1.6-1.6-1.6c-1.1,0-2,0.7-2,0.7l-0.6-1c0,0,1-0.9,2.7-0.9
			c1.8,0,2.8,1,2.8,2.8v4.5h-1.3v-0.7c0-0.3,0-0.6,0-0.6h0c0,0-0.6,1.4-2.3,1.4c-1.2,0-2.4-0.8-2.4-2.2C20,20.2,23.2,20.1,24.4,20.1
			z M22.8,23.6c1.2,0,1.9-1.2,1.9-2.3v-0.2h-0.4c-1,0-2.9,0.1-2.9,1.4C21.4,23.1,21.9,23.6,22.8,23.6z"/>
		<path fill="#EDEDED" d="M27.9,14.6h1.4v7.8c0,0.9,0.3,1,0.8,1c0.1,0,0.2,0,0.2,0v1.2c0,0-0.2,0-0.5,0c-0.8,0-1.9-0.2-1.9-2V14.6z"
			/>
		<path fill="#EDEDED" d="M31.5,14.6h1.4v7.8c0,0.9,0.3,1,0.8,1c0.1,0,0.2,0,0.2,0v1.2c0,0-0.2,0-0.5,0c-0.8,0-1.9-0.2-1.9-2V14.6z"
			/>
		<path fill="#EDEDED" d="M38.4,23.3h2.2v-6.5c0-0.3,0-0.6,0-0.6h0c0,0-0.1,0.2-0.5,0.6l-0.9,0.9l-0.8-0.9l2.4-2.3H42v8.8h2.2v1.2
			h-5.8L38.4,23.3L38.4,23.3z"/>
		<path fill="#EDEDED" d="M45.7,19.9h4.1v1.2h-4.1V19.9z"/>
		<path fill="#EDEDED" d="M53.4,19c-0.7-0.5-1.1-1.1-1.1-2c0-1.3,1-2.6,3.1-2.6c1.9,0,3.1,1,3.1,2.7c0,1.3-1.1,2.5-1.2,2.6
			c0.8,0.5,1.4,1.1,1.4,2.1c0,1.6-1.3,2.9-3.4,2.9c-2,0-3.5-1.2-3.5-3.1C51.8,20.1,53.1,19.2,53.4,19z M54.4,19.6
			c-0.3,0.2-1.2,0.9-1.2,2c0,1.1,1,1.9,2.1,1.9c1,0,2-0.7,2-1.7C57.2,20.7,55.8,20.3,54.4,19.6z M56.3,19.1c0.2-0.2,0.9-0.9,0.9-2
			c0-0.9-0.7-1.5-1.8-1.5c-1.1,0-1.7,0.6-1.7,1.4C53.6,18.1,55,18.6,56.3,19.1z"/>
		<path fill="#EDEDED" d="M60.3,19.5c0-2.9,0.9-5.2,3.5-5.2c2.7,0,3.5,2.3,3.5,5.2c0,2.9-0.9,5.2-3.5,5.2
			C61.2,24.7,60.3,22.4,60.3,19.5z M66,19.5c0-2.2-0.5-3.9-2.1-3.9c-1.6,0-2.1,1.7-2.1,3.9c0,2.2,0.5,3.9,2.1,3.9
			C65.5,23.4,66,21.7,66,19.5z"/>
		<path fill="#EDEDED" d="M69,19.5c0-2.9,0.9-5.2,3.5-5.2c2.7,0,3.5,2.3,3.5,5.2c0,2.9-0.9,5.2-3.5,5.2C69.9,24.7,69,22.4,69,19.5z
			 M74.7,19.5c0-2.2-0.5-3.9-2.1-3.9c-1.6,0-2.1,1.7-2.1,3.9c0,2.2,0.5,3.9,2.1,3.9C74.2,23.4,74.7,21.7,74.7,19.5z"/>
		<path fill="#EDEDED" d="M78.1,19.9h4.1v1.2h-4.1V19.9z"/>
		<path fill="#EDEDED" d="M90.3,14.6l2,7.3c0.1,0.6,0.2,1.1,0.2,1.1h0c0,0,0-0.5,0.2-1.1l1.8-7.3H96l-2.6,10h-1.6L90,18.1
			c-0.2-0.6-0.3-1.4-0.3-1.4h0c0,0-0.1,0.8-0.3,1.4l-1.7,6.5H86l-2.6-10h1.4l1.8,7.3c0.1,0.5,0.2,1.1,0.2,1.1h0c0,0,0.1-0.5,0.2-1.1
			l2-7.3C89.1,14.6,90.3,14.6,90.3,14.6z"/>
		<path fill="#EDEDED" d="M102.3,21.7h-3.8l-1,2.9h-1.4l3.6-10h1.5l3.6,10h-1.5L102.3,21.7z M100.4,15.9c0,0-0.2,0.9-0.4,1.4
			l-1.1,3.2h3l-1.1-3.2C100.7,16.8,100.4,15.9,100.4,15.9C100.4,15.9,100.4,15.9,100.4,15.9z"/>
		<path fill="#EDEDED" d="M107.6,15.8h-3.4v-1.2h8.3v1.2H109v8.8h-1.4V15.8z"/>
		<path fill="#EDEDED" d="M118,14.4c2.4,0,3.6,1.3,3.6,1.3l-0.7,1c0,0-1.2-1.1-2.9-1.1c-2.2,0-3.7,1.7-3.7,3.8c0,2.1,1.5,4,3.7,4
			c1.9,0,3.1-1.3,3.1-1.3l0.8,1c0,0-1.4,1.6-3.9,1.6c-3,0-5.1-2.3-5.1-5.2C112.9,16.6,115.1,14.4,118,14.4z"/>
		<path fill="#EDEDED" d="M123.7,14.6h1.4v4.4h5.2v-4.4h1.4v10h-1.4v-4.4h-5.2v4.4h-1.4V14.6z"/>
		<path fill="#EDEDED" d="M134,19.9h4.1v1.2H134L134,19.9L134,19.9z"/>
		<path fill="#EDEDED" d="M141.9,15.8h-3.4v-1.2h8.3v1.2h-3.4v8.8h-1.4L141.9,15.8L141.9,15.8z"/>
		<path fill="#EDEDED" d="M147.1,14.6h1.5l2.5,7.1c0.2,0.5,0.4,1.4,0.4,1.4h0c0,0,0.2-0.8,0.4-1.4l2.5-7.1h1.5l-3.7,10h-1.4
			L147.1,14.6z"/>
		<path fill="#EDEDED" d="M163.8,17.2c2.1,0,3.9,1.6,3.9,3.7c0,2.2-1.7,3.8-3.9,3.8s-3.9-1.6-3.9-3.8
			C159.9,18.8,161.6,17.2,163.8,17.2z M163.8,23.5c1.4,0,2.5-1.1,2.5-2.6c0-1.5-1.1-2.6-2.5-2.6c-1.3,0-2.5,1.1-2.5,2.6
			C161.3,22.5,162.4,23.5,163.8,23.5z"/>
		<path fill="#EDEDED" d="M169.1,17.4h1.3v1.2c0,0.3,0,0.5,0,0.5h0c0.3-1,1.2-1.9,2.3-1.9c0.2,0,0.4,0,0.4,0v1.4c0,0-0.2,0-0.4,0
			c-0.9,0-1.7,0.6-2,1.7c-0.1,0.4-0.2,0.9-0.2,1.3v2.9h-1.4V17.4z"/>
	</g>
</g>
</svg>
