<?xml version="1.0" encoding="utf-8"?>
<!-- Generator: Adobe Illustrator 18.1.1, SVG Export Plug-In . SVG Version: 6.00 Build 0)  -->
<svg version="1.1" id="Layer_1" xmlns="http://www.w3.org/2000/svg" xmlns:xlink="http://www.w3.org/1999/xlink" x="0px" y="0px"
	 viewBox="318 -495.7 936.1 1240.7" enable-background="new 318 -495.7 936.1 1240.7" xml:space="preserve">
<path fill="#BDBDBD" d="M928-162l11.8-13.1c-0.1-3.9-0.6-7.4-1.7-10.6l-41.9-124.2l1.5-110.7c0-0.3,0-0.6,0-0.9v-0.1
	c0.3-25.3-19.8-46.1-44.9-46.4c-25.1-0.3-45.8,19.9-46.1,45.2l-0.1,6c-4.7-20-22.4-35-43.7-35.3c-25.1-0.3-45.8,19.9-46.1,45.2
	l-0.3,10.2c-4.7-20-22.4-35-43.7-35.3c-25.1-0.3-45.8,19.9-46.1,45.2l-0.2,14.4c-4.7-20-22.4-35-43.7-35.3
	c-24.7-0.3-45.1,19.2-46.1,43.9h-0.6l-1.4,108.4c0,2.5,0.1,4.9,0.5,7.3l-1.8,133.9l20.4,71.1v77h286l2.9-64.2
	C855.4-39.6,940.7-119.3,928-162z"/>
<polygon fill="#CCCCCC" points="835.1,135.1 547.3,222 547.3,-80.5 835.1,-80.5 "/>
<path fill="#CCCCCC" d="M937.3-172.1l-46.5-52.5l2.6-194.6c0.3-25.3-19.9-46.1-45.2-46.4c-25.3-0.3-46.1,19.9-46.4,45.2l-0.1,6
	c-4.7-20-22.5-35-44-35.3c-25.3-0.3-46.1,19.9-46.4,45.2l-0.1,10.2c-4.7-20-22.5-35-44-35.3c-25.3-0.3-46.1,19.9-46.4,45.2
	l-0.2,14.4c-4.7-20-22.5-35-44-35.3c-25.3-0.3-46.1,19.9-46.4,45.2l-3.3,247.3l21.7,75h285.2C833.6-37.8,936.5-110.9,937.3-172.1z"
	/>
<polygon fill="#BDBDBD" points="796.5,-110.5 848.2,-154.8 796.5,-298.5 528.6,-298.5 527.9,-196.4 684.3,-196.4 630.7,-110.5 "/>
<g>
	<polygon fill="#4E4E4E" points="883.9,745 883.9,22 503.6,95.2 503.6,745 	"/>
	<polygon opacity="0.15" enable-background="new    " points="883.9,745 828.6,745 828.6,34 883.9,22 	"/>
	<polygon fill="#535353" points="558.9,745 503.6,745 503.6,99 558.9,87.5 	"/>
</g>
<polygon fill="#D7D7D7" points="796.5,-110.5 547.6,26.6 547.6,-37.8 532.6,-78.4 807.1,-126.4 "/>
<g>
	<path fill="#F01446" d="M427.6-37.2c0,0,682.1-142,786.6-174.3c0,0,64.5-13.7,29.6-155.2c-34.9-141.5-95.7-128.7-95.7-128.7
		s-133.9,30.8-783.2,203.9c0,0-69.6,14.4-37,148.8C362.2-1.5,427.6-37.2,427.6-37.2z"/>
	<path fill="#CC1243" d="M428.5-35.4c-8.9,1.6-72.9,23.3-100.6-107.3c-35.9-134.2,37-148.3,37-148.3c32.1-8.8,63.7-17.2,77.4-21.3
		L583.6-70.1C456.2-40.7,440.9-37.7,428.5-35.4z"/>
	<path fill="#B21244" d="M1201.7-207.6c57.6-38.6,22.4-185.6,1.7-255.1c14.2,19.1,28.7,49.1,40.3,96.3
		c34.9,141.5-29.6,155.2-29.6,155.2C1210.7-210.2,1206.5-209,1201.7-207.6z"/>
	<g>
		
			<line fill="none" stroke="#900C90" stroke-width="5" stroke-linecap="round" stroke-miterlimit="10" x1="1172.9" y1="-435.6" x2="1151.7" y2="-430.4"/>
		<path fill="none" stroke="#900C90" stroke-width="5" stroke-linecap="round" stroke-miterlimit="10" d="M1168.1-424.3
			c-1.9,5.3-6.4,9.5-12.3,11c-9.4,2.3-18.9-3.4-21.2-12.8s3.4-18.9,12.8-21.2c5.7-1.4,11.5,0.2,15.6,3.7"/>
	</g>
	<g>
		<path fill="#B21244" d="M639.6-326.7c-5.3,1.3-8.6,6.8-7.3,12.1l45.4,184.2c1.3,5.3,6.8,8.6,12.1,7.3l372.5-91.8
			c5.3-1.3,8.6-6.8,7.3-12.1l-45.3-184.3c-1.3-5.3-6.8-8.6-12.1-7.3L639.6-326.7z"/>
	</g>
	<g>
		<path fill="#EFEDEE" d="M413.4-168.3c-6,1.5-7.9,6.6-9.4,12.1l-1.4,5c-0.8,2.7-2,4.1-4,4.6c-2.7,0.7-4.9-0.9-5.7-4.1
			c-1.5-5.9,3-8.9,7.6-11.1l0.7-0.3l-0.7-2.9l-13.6,3.3l0.6,2.3l0.4,0.2c0.7,0.4,0.7,0.4,0.8,0.9c0.2,0.9,0.3,2.1,0.3,3.4
			c0,1.7,0,3.7,0.5,5.6c1.2,4.9,6.2,11,13.5,9.2c5.1-1.3,6.6-4.9,8-9.1l2.8-9.3c0.7-2.1,1.9-3.4,3.8-3.9c1.6-0.4,4.3,0.3,5.1,3.8
			c0.6,2.6,0.5,6-6.7,9.5l-0.7,0.3l0.7,2.8l12.1-3.4l-0.6-2.3l-0.5-0.2c-0.3-0.1-0.4-0.2-0.5-0.5c0-0.1,0-0.8,0.1-1.2
			c0.1-1.6,0.3-3.9-0.3-6.1C424.8-166.1,419.3-169.8,413.4-168.3"/>
		<path fill="#EFEDEE" d="M393.6-219.3c9.6-2.4,14.1,1.3,15.1,5.2c1,4.3-1.9,7.7-5.3,8.5c0,0-16.6,4.1-16.7,4.1
			c-2.3,0-4.4-2-5.1-4.8C380.5-210.7,383-216.7,393.6-219.3 M432.8-205.7l-0.1-0.2l0,0c-0.8-1.2-3.9-6.1-6-10.1l-0.4-0.7l-3,0.7
			l0.4,1c0.8,2.3,0.8,3.3,0.5,3.7c-0.3,0.5-1,0.7-2.1,1c0,0-9.1,2.2-10,2.5c1-2.6,1.2-4.9,0.5-7.6c-1.1-4.3-4.2-8-8.7-10.2
			c-4.4-2.2-9.8-2.7-14.7-1.5c-17.2,4.3-14.5,17.5-14.1,19c0.9,3.7,2.8,6.4,5.5,8.1c-0.8,0.2-2.7,0.7-2.7,0.7l-0.5,1.3l7.3,11.1
			l2.9-0.7l-0.3-1c-0.8-2.3-0.6-3.3-0.4-3.7c0.2-0.4,0.8-0.6,1.8-0.9l44.1-10.9L432.8-205.7L432.8-205.7z"/>
		<path fill="#EFEDEE" d="M404.9-102.8c-0.2-3.4-0.3-3.9,4.5-5.1l15.1-3.7c8.5-2.1,12-6.6,10.4-13.3c-0.9-3.8-3.4-6.9-7.2-8.9
			c1.2-0.3,20.8-5.1,20.8-5.1l0.4-1.4l-0.1-0.1l-0.2-0.3c-1-1.4-4.4-7.1-5.9-9.7l-0.4-0.6l-3,0.7l0.4,1c0.2,0.6,0.3,1.1,0.5,1.8
			c0.2,0.7,0.1,1.2-0.1,1.6c-0.4,0.6-1.3,0.8-2.1,1l-0.3,0.1l-35.3,8.7c-4.8,1.2-5.3,1-6.6-2.6l-0.3-0.8l-2.9,0.7l4.3,17.4l3-0.7
			v-0.2c-0.5-3.5-0.6-4.4,4.5-5.6c0,0,17.6-4.3,17.8-4.4c0.6,0.3,5,2.5,6,6.3c0.8,3.3-1.1,5.3-6.1,6.6l-14.8,3.6
			c-4.7,1.1-5.4,0.5-6.5-2.9v-0.1l-3,0.7l4.2,17l2.8-0.7L404.9-102.8"/>
		<path fill="#EFEDEE" d="M384.9-174.3c1.4,5.7,5.4,7.8,9.9,8.9c0.3,0.1,0.4-0.1,0.3-0.3c-1.1-1.3-3.9-4.9-5.1-9.8
			c-1.2-4.9-0.3-9.4,0-11.1c0.1-0.3-0.2-0.4-0.4-0.2C386.1-183.8,383.5-180,384.9-174.3"/>
		<path fill="#EFEDEE" d="M399.6-186.8c-2.7,2.3-4.8,5.3-3.7,9.8s4.4,6.1,7.8,7c0.2,0.1,0.4-0.1,0.2-0.3c-0.7-0.9-2.9-3.7-3.9-7.7
			s-0.4-7.5-0.1-8.6C399.9-186.9,399.8-187,399.6-186.8"/>
		<path fill="#EFEDEE" d="M408.8-186.9c-2,1.7-3.7,3.9-2.8,7.4c0.8,3.4,3.3,4.6,5.9,5.2c0.2,0,0.3-0.1,0.2-0.2
			c-0.4-0.5-2-2.6-2.7-5.8c-0.8-3.2-0.4-5.8-0.3-6.4C409.1-186.9,409-187,408.8-186.9"/>
		<path fill="#EFEDEE" d="M415.5-181.8c0.6,2.4,2.4,3.2,4.1,3.6c0.1,0,0.2-0.1,0.1-0.2c-0.1-0.1-1.1-1.6-1.7-4s-0.4-4.2-0.4-4.3
			c0-0.2-0.1-0.2-0.2-0.1C416.2-185.8,414.9-184.2,415.5-181.8"/>
		<path fill="#EFEDEE" d="M429.3-192.2c3.6-0.9,7.3,1.3,8.2,4.9s-1.3,7.3-4.9,8.1c-3.6,0.9-7.3-1.3-8.1-4.9
			C423.5-187.6,425.7-191.3,429.3-192.2"/>
		<g>
			<path fill="#EFEDEE" d="M404.1-99l-0.6,0.6l-0.1-0.3l0.6-0.6l-0.1-0.3l-0.7,0.2l-0.1-0.2l1.6-0.4l0.2,0.6c0.1,0.4,0,0.6-0.3,0.7
				C404.4-98.6,404.2-98.8,404.1-99z M404.2-99.3c0.1,0.2,0.1,0.4,0.4,0.3c0.2,0,0.2-0.2,0.2-0.4l-0.1-0.3l-0.5,0.1V-99.3z"/>
			<path fill="#EFEDEE" d="M404.5-97.9c-0.8,0.2-1.6-0.3-1.7-1.1c-0.2-0.8,0.2-1.6,1-1.8c0.8-0.2,1.5,0.3,1.7,1.1
				C405.7-98.9,405.3-98.1,404.5-97.9z M404.4-98.1c0.7-0.2,1-0.8,0.9-1.4c-0.2-0.6-0.8-1-1.4-0.8c-0.7,0.2-1,0.8-0.9,1.4
				C403.1-98.4,403.8-98,404.4-98.1z"/>
		</g>
	</g>
	<path fill="#900C90" d="M1088.6-394.7l-8.9-35.9c-0.6-2.5,0.9-5.1,3.5-5.7l20.3-5c2.5-0.6,5.1,0.9,5.7,3.5l8.9,35.9
		c0.6,2.5-0.9,5.1-3.5,5.7l-20.3,5C1091.8-390.6,1089.2-392.1,1088.6-394.7z"/>
	<path fill="#900C90" d="M1101.2-343.7l-8.9-35.9c-0.6-2.5,0.9-5.1,3.5-5.7l20.3-5c2.5-0.6,5.1,0.9,5.7,3.5l8.9,35.9
		c0.6,2.5-0.9,5.1-3.5,5.7l-20.3,5C1104.4-339.6,1101.8-341.1,1101.2-343.7z"/>
	<path fill="#900C90" d="M1113.7-292.6l-8.9-35.9c-0.6-2.5,0.9-5.1,3.5-5.7l20.3-5c2.5-0.6,5.1,0.9,5.7,3.5l8.9,35.9
		c0.6,2.5-0.9,5.1-3.5,5.7l-20.3,5C1116.9-288.6,1114.4-290.1,1113.7-292.6z"/>
	<path fill="#900C90" d="M1126.6-240.6l-8.9-35.9c-0.6-2.5,0.9-5.1,3.5-5.7l20.3-5c2.5-0.6,5.1,0.9,5.7,3.5l8.9,35.9
		c0.6,2.5-0.9,5.1-3.5,5.7l-20.3,5C1129.8-236.5,1127.2-238.1,1126.6-240.6z"/>
	<path fill="#900C90" d="M1052.5-384.5l-8.9-35.9c-0.6-2.5,0.9-5.1,3.5-5.7l20.3-5c2.5-0.6,5.1,0.9,5.7,3.5l8.9,35.9
		c0.6,2.5-0.9,5.1-3.5,5.7l-20.3,5C1055.7-380.4,1053.1-381.9,1052.5-384.5z"/>
	<path fill="#900C90" d="M1065-333.5l-8.9-35.9c-0.6-2.5,0.9-5.1,3.5-5.7l20.3-5c2.5-0.6,5.1,0.9,5.7,3.5l8.9,35.9
		c0.6,2.5-0.9,5.1-3.5,5.7l-20.3,5C1068.2-329.4,1065.7-330.9,1065-333.5z"/>
	<path fill="#900C90" d="M1077.6-282.5l-8.9-35.9c-0.6-2.5,0.9-5.1,3.5-5.7l20.3-5c2.5-0.6,5.1,0.9,5.7,3.5l8.9,35.9
		c0.6,2.5-0.9,5.1-3.5,5.7l-20.3,5C1080.8-278.4,1078.2-279.9,1077.6-282.5z"/>
	<path fill="#900C90" d="M1090.1-231.6l-8.9-35.9c-0.6-2.5,0.9-5.1,3.5-5.7l20.3-5c2.5-0.6,5.1,0.9,5.7,3.5l8.9,35.9
		c0.6,2.5-0.9,5.1-3.5,5.7l-20.3,5C1093.3-227.5,1090.8-229.1,1090.1-231.6z"/>
	<path fill="#900C90" d="M593.6-271.3l-8.9-35.9c-0.6-2.5,0.9-5.1,3.5-5.7l20.3-5c2.5-0.6,5.1,0.9,5.7,3.5l8.9,35.9
		c0.6,2.5-0.9,5.1-3.5,5.7l-20.3,5C596.8-267.2,594.2-268.7,593.6-271.3z"/>
	<path fill="#900C90" d="M606.2-220.3l-8.9-35.9c-0.6-2.5,0.9-5.1,3.5-5.7l20.3-5c2.5-0.6,5.1,0.9,5.7,3.5l8.9,35.9
		c0.6,2.5-0.9,5.1-3.5,5.7l-20.3,5C609.4-216.2,606.8-217.7,606.2-220.3z"/>
	<path fill="#900C90" d="M618.7-169.2l-8.9-35.9c-0.6-2.5,0.9-5.1,3.5-5.7l20.3-5c2.5-0.6,5.1,0.9,5.7,3.5l8.9,35.9
		c0.6,2.5-0.9,5.1-3.5,5.7l-20.3,5C621.9-165.2,619.4-166.7,618.7-169.2z"/>
	<path fill="#900C90" d="M631.6-117.2l-8.9-35.9c-0.6-2.5,0.9-5.1,3.5-5.7l20.3-5c2.5-0.6,5.1,0.9,5.7,3.5l8.9,35.9
		c0.6,2.5-0.9,5.1-3.5,5.7l-20.3,5C634.8-113.1,632.2-114.7,631.6-117.2z"/>
</g>
<path fill="#CCCCCC" d="M572.7-207.6c25,0.3,45.6-19.9,45.9-45.2c-0.3,25.3,19.7,46.1,44.7,46.4c25,0.3,45.6-19.9,45.9-45.2
	c-0.3,25.3,19.7,46.1,44.7,46.4c25,0.3,45.6-19.9,45.9-45.2c-0.3,25.3,2.4-108.4,2.4-108.4l-272.8-3.6L528-254
	C527.7-228.7,547.7-207.9,572.7-207.6z"/>
<path fill="#CCCCCC" d="M889.3-321.3l4-99c0.3-25.3-19.9-46.1-45.2-46.4c-25.3-0.3-46.1,19.9-46.4,45.2l-0.1,6
	c-4.7-20-22.5-35-44-35.3c-25.3-0.3-46.1,19.9-46.4,45.2l-0.1,10.2c-4.7-20-22.5-35-44-35.3c-25.3-0.3-46.1,19.9-46.4,45.2
	l-0.2,14.4c-4.7-20-22.5-35-44-35.3c-25.3-0.3-46.1,19.9-46.4,45.2l4,85.1"/>
<path fill="#BDBDBD" d="M619-338l-0.5,87c0,0,0.3,15.2-10.5,27.2C614-299.2,619-338,619-338z"/>
<path fill="#BDBDBD" d="M710.7-368l-1.3,117.8c0,0,0.3,15.2-10.5,27.2C704.8-298.3,710.7-368,710.7-368z"/>
<path fill="#BDBDBD" d="M803-397l-2.7,147.8c0,0-1.1,28.9-25.6,39.2C786.8-284,803-397,803-397z"/>
<path fill="#CCCCCC" d="M934.1-184.4c8.7,25.5-16.6,77.7-42.1,86.4c0,0-24,30-56,46c-134-34,11.7-74.6,3.1-100.1l-47.8-140.7
	c-8.7-25.5,5-53.2,30.5-61.8l2.7-0.9c25.5-8.7,53.2,5,61.8,30.5L934.1-184.4z"/>
<path fill="#D7D7D7" d="M928.7-201.3C916.4-226,869-329,855.1-356.4c10.5,0.4,26.6,16.2,34.2,34.8L928.7-201.3z"/>
</svg>
