<?xml version="1.0" encoding="utf-8"?>
<!-- Generator: Adobe Illustrator 18.1.1, SVG Export Plug-In . SVG Version: 6.00 Build 0)  -->
<svg version="1.1" id="Layer_1" xmlns="http://www.w3.org/2000/svg" xmlns:xlink="http://www.w3.org/1999/xlink" x="0px" y="0px"
	 width="300px" height="250px" viewBox="0 0 300 250" enable-background="new 0 0 300 250" xml:space="preserve">
<path fill="#ED1A47" d="M35.1,133h6.2v-19.9h7.6v-5.3H27.5v5.3h7.6V133z"/>
<path fill="#ED1A47" d="M51.3,133h6.2v-9.9h9.1v9.9h6.2v-25.2h-6.2V118h-9.1v-10.1h-6.2V133z"/>
<path fill="#ED1A47" d="M78,133h16.3v-5.3H84.1V123h7.7v-5.3h-7.7v-4.6h9.6v-5.3H78V133z"/>
<path fill="#ED1A47" d="M105.3,133h6.2v-9.9h9.1v9.9h6.2v-25.2h-6.2V118h-9.1v-10.1h-6.2V133z"/>
<path fill="#ED1A47" d="M130.3,120.3c0,7.4,5.6,13.2,13.2,13.2c7.6,0,13.2-5.8,13.2-13.2c0-7.2-5.6-12.8-13.2-12.8
	C135.8,107.5,130.3,113.1,130.3,120.3z M136.6,120.3c0-4.1,3-7.2,6.8-7.2c3.8,0,6.8,3.1,6.8,7.2c0,4.3-3,7.5-6.8,7.5
	C139.7,127.8,136.6,124.6,136.6,120.3z"/>
<path fill="#ED1A47" d="M160.1,133h6.2v-7.8h4.3c4.9,0,8.2-3.7,8.2-8.7c0-5.1-3.3-8.7-8.2-8.7h-10.5V133z M166.2,120v-6.8h3.1
	c2,0,3.1,1.4,3.1,3.4s-1.1,3.4-3.2,3.4H166.2z"/>
<path fill="#ED1A47" d="M181.7,133h6.2v-7.8h4.3c4.9,0,8.2-3.7,8.2-8.7c0-5.1-3.3-8.7-8.2-8.7h-10.5V133z M187.8,120v-6.8h3.1
	c2,0,3.1,1.4,3.1,3.4s-1.1,3.4-3.2,3.4H187.8z"/>
<path fill="#ED1A47" d="M203.3,133h16.3v-5.3h-10.1V123h7.7v-5.3h-7.7v-4.6h9.6v-5.3h-15.8V133z"/>
<path fill="#ED1A47" d="M223.3,133h6.2v-8.5h2.9l4.5,8.5h6.9l-4.9-8.8c-0.6-1.1-1-1.5-1-1.5v-0.1c2.5-1.3,3.8-4.2,3.8-6.9
	c0-3.7-1.8-6.2-4.6-7.3c-1.1-0.4-2.3-0.6-4.9-0.6h-8.8V133z M229.4,119.3v-6.1h2.1c3.1,0,3.8,1.1,3.8,3c0,2-1.2,3.1-3.2,3.1H229.4z"
	/>
<path fill="#ED1A47" d="M252.1,130.2c0,0,3,3.3,8.6,3.3c6.3,0,9.3-4.3,9.3-8.6c0-3.5-2.4-6.5-6.1-7.3l5.1-5.9v-3.8h-15.9v5.3h6
	c1.6,0,2.4-0.2,2.4-0.2v0.1c0,0-1,0.9-2.2,2.4l-3.3,4l1.3,3h1.8c2.7,0,4.7,0.8,4.7,2.8c0,1.4-1.3,2.5-3.6,2.5
	c-2.9,0-5.2-2.3-5.2-2.3L252.1,130.2z"/>
<path fill="#696969" d="M71.3,168h3.4v-7.2h1.9v-2.6h-1.9v-0.3c0-0.9,1-1,1.7-1c0.3,0,0.5,0,0.5,0V154c0,0-0.4-0.1-1-0.1
	c-1.6,0-4.6,0.4-4.6,3.7v0.4h-1.2v2.6h1.2V168z"/>
<path fill="#696969" d="M77.1,163c0,3.1,2.5,5.2,5.7,5.2c3.2,0,5.7-2.1,5.7-5.2c0-3.2-2.5-5.3-5.7-5.3
	C79.6,157.7,77.1,159.8,77.1,163z M80.5,163c0-1.5,1.1-2.5,2.3-2.5c1.2,0,2.3,1,2.3,2.5c0,1.5-1.1,2.4-2.3,2.4
	C81.5,165.4,80.5,164.5,80.5,163z"/>
<path fill="#696969" d="M89.8,168h3.4v-3.8c0-0.5,0.1-1,0.2-1.4c0.5-1.5,1.8-1.8,2.6-1.8c0.4,0,0.7,0.1,0.7,0.1v-3.3
	c0,0-0.2,0-0.4,0c-1.5,0-2.8,1.1-3.2,2.5h0c0,0,0-0.3,0-0.6v-1.7h-3.2V168z"/>
<path fill="#696969" d="M101.4,166.2c0,0,1.4,1.5,4,1.9v1.8h2.1v-1.8c2.5-0.4,3.9-2.2,3.9-4.2c0-4.3-6.3-4.2-6.3-5.8
	c0-0.8,0.8-1.1,1.5-1.1c1.7,0,3.1,1.2,3.1,1.2l1.4-2.8c0,0-1.2-1.2-3.6-1.5v-1.8h-2.1v1.8c-2.2,0.4-3.7,2-3.7,4.2
	c0,4.2,6.3,4.3,6.3,5.9c0,0.8-0.8,1.1-1.5,1.1c-1.8,0-3.3-1.4-3.3-1.4L101.4,166.2z"/>
<path fill="#696969" d="M112.9,168h9.3v-2.9h-3v-11h-2.9l-3.8,3.5l2,2.1l0.8-0.8c0.4-0.4,0.5-0.7,0.5-0.7h0c0,0,0,0.5,0,1.1v5.8h-3
	V168z"/>
<path fill="#696969" d="M128.5,168.2c4,0,5.2-3.2,5.2-7.2c0-4-1.3-7.2-5.2-7.2c-4,0-5.2,3.2-5.2,7.2
	C123.2,165,124.5,168.2,128.5,168.2z M128.5,165.1c-1.3,0-1.7-1.8-1.7-4.1c0-2.3,0.4-4.1,1.7-4.1c1.3,0,1.7,1.8,1.7,4.1
	C130.2,163.3,129.8,165.1,128.5,165.1z"/>
<path fill="#696969" d="M134.7,168.8h2.8l5-15.4h-2.8L134.7,168.8z"/>
<path fill="#696969" d="M143.7,168h3.4v-4.2c0-0.4,0-0.9,0.1-1.2c0.2-1.1,0.8-1.8,1.8-1.8c0.6,0,0.8,0.5,0.8,1.3v5.9h3.4v-4.2
	c0-0.4,0-0.8,0.1-1.2c0.2-1.1,0.8-1.9,1.9-1.9c0.6,0,0.8,0.5,0.8,1.3v5.9h3.4v-6.5c0-2.8-1.4-3.8-3.3-3.8c-1.5,0-2.7,0.9-3.2,1.7h0
	c-0.5-1.1-1.5-1.7-2.8-1.7c-1.6,0-2.5,1-3,1.7h0c0,0,0-0.3,0-0.6v-0.9h-3.2V168z"/>
<path fill="#696969" d="M160.4,163c0,3.1,2.5,5.2,5.7,5.2c3.2,0,5.7-2.1,5.7-5.2c0-3.2-2.5-5.3-5.7-5.3
	C163,157.7,160.4,159.8,160.4,163z M163.8,163c0-1.5,1.1-2.5,2.3-2.5s2.3,1,2.3,2.5c0,1.5-1.1,2.4-2.3,2.4S163.8,164.5,163.8,163z"
	/>
<path fill="#696969" d="M177.3,168h3.4v-4.2c0-0.4,0-0.9,0.1-1.2c0.2-1.1,0.8-1.8,1.8-1.8c0.6,0,0.8,0.5,0.8,1.3v5.9h3.4v-4.2
	c0-0.4,0-0.8,0.1-1.2c0.2-1.1,0.8-1.9,1.9-1.9c0.6,0,0.8,0.5,0.8,1.3v5.9h3.4v-6.5c0-2.8-1.4-3.8-3.3-3.8c-1.5,0-2.7,0.9-3.2,1.7h0
	c-0.5-1.1-1.5-1.7-2.8-1.7c-1.6,0-2.5,1-3,1.7h0c0,0,0-0.3,0-0.6v-0.9h-3.2V168z"/>
<path fill="#696969" d="M194,163c0,3.1,2.5,5.2,5.7,5.2c3.2,0,5.7-2.1,5.7-5.2c0-3.2-2.5-5.3-5.7-5.3C196.6,157.7,194,159.8,194,163
	z M197.4,163c0-1.5,1.1-2.5,2.3-2.5s2.3,1,2.3,2.5c0,1.5-1.1,2.4-2.3,2.4S197.4,164.5,197.4,163z"/>
<path fill="#696969" d="M206.8,168h3.4v-3.8c0-0.5,0.1-1,0.2-1.4c0.5-1.5,1.8-1.8,2.6-1.8c0.4,0,0.7,0.1,0.7,0.1v-3.3
	c0,0-0.2,0-0.4,0c-1.5,0-2.8,1.1-3.2,2.5h0c0,0,0-0.3,0-0.6v-1.7h-3.2V168z"/>
<path fill="#696969" d="M214.1,162.9c0,2.7,1.9,5.3,5.5,5.3c2.7,0,4.3-1.5,4.3-1.5l-1.2-2.4c0,0-1.3,1-2.8,1c-1.1,0-2.1-0.6-2.3-1.8
	h6.3c0,0,0.1-0.7,0.1-1.1c0-2.8-1.7-4.9-4.6-4.9C216,157.7,214.1,160,214.1,162.9z M217.6,161.7c0.2-0.7,0.6-1.4,1.6-1.4
	c0.8,0,1.3,0.7,1.3,1.4H217.6z"/>
<path fill="#696969" d="M225.3,168h3.2v-3.2h-3.2V168z"/>
<path fill="#696969" d="M33.5,191.8H37l-4.7-13.9h-3.6L24,191.8h3.5l0.8-2.9h4.3L33.5,191.8z M30.5,181c0,0,0.3,1.5,0.6,2.4l0.8,2.7
	h-2.7l0.8-2.7C30.2,182.5,30.5,181,30.5,181L30.5,181z"/>
<path fill="#696969" d="M37.1,186.7c0,3.1,1.8,5.3,4.5,5.3c2.1,0,2.9-1.5,2.9-1.5h0c0,0,0,0.3,0,0.6v0.7h3.2v-13.9h-3.4v4
	c0,0.3,0,0.4,0,0.4h0c0,0-0.6-0.8-2.6-0.8C39,181.5,37.1,183.6,37.1,186.7z M40.5,186.7c0-1.5,0.9-2.4,2-2.4c1.3,0,2,1.2,2,2.4
	c0,1.7-1,2.5-2,2.5C41.3,189.2,40.5,188.2,40.5,186.7z"/>
<path fill="#696969" d="M49.2,186.7c0,3.1,1.8,5.3,4.5,5.3c2.1,0,2.9-1.5,2.9-1.5h0c0,0,0,0.3,0,0.6v0.7h3.2v-13.9h-3.4v4
	c0,0.3,0,0.4,0,0.4h0c0,0-0.6-0.8-2.6-0.8C51.1,181.5,49.2,183.6,49.2,186.7z M52.5,186.7c0-1.5,0.9-2.4,2-2.4c1.3,0,2,1.2,2,2.4
	c0,1.7-1,2.5-2,2.5C53.3,189.2,52.5,188.2,52.5,186.7z"/>
<path fill="#696969" d="M65.2,186.7c0,2.7,1.9,5.3,5.5,5.3c2.7,0,4.3-1.5,4.3-1.5l-1.2-2.4c0,0-1.3,1-2.8,1c-1.1,0-2.1-0.6-2.3-1.8
	H75c0,0,0.1-0.7,0.1-1.1c0-2.8-1.7-4.9-4.6-4.9C67.2,181.5,65.2,183.8,65.2,186.7z M68.8,185.5c0.2-0.7,0.6-1.4,1.6-1.4
	c0.8,0,1.3,0.7,1.3,1.4H68.8z"/>
<path fill="#696969" d="M75.6,191.8h3.7l1.2-2.3c0.1-0.2,0.2-0.5,0.2-0.5h0c0,0,0.1,0.3,0.2,0.5l1.2,2.3h3.7l-3.2-5l3.2-5.1h-3.8
	l-1.1,2.2c-0.1,0.3-0.3,0.7-0.3,0.7h0c0,0-0.2-0.4-0.3-0.7l-1.1-2.2h-3.8l3.2,5.1L75.6,191.8z"/>
<path fill="#696969" d="M87.5,188.1c0,3.4,3.1,3.8,4.7,3.8c0.5,0,0.9-0.1,0.9-0.1v-2.9c0,0-0.2,0-0.4,0c-0.6,0-1.8-0.2-1.8-1.3v-3.1
	H93v-2.6h-2.1V179h-3.3v2.9h-1.4v2.6h1.3V188.1z"/>
<path fill="#696969" d="M94.7,191.8h3.4V188c0-0.5,0.1-1,0.2-1.4c0.5-1.5,1.8-1.8,2.6-1.8c0.4,0,0.7,0.1,0.7,0.1v-3.3
	c0,0-0.2,0-0.4,0c-1.5,0-2.8,1.1-3.2,2.5h0c0,0,0-0.3,0-0.6v-1.7h-3.2V191.8z"/>
<path fill="#696969" d="M102,188.8c0,2,1.5,3.2,3.4,3.2c2.1,0,2.8-1.5,2.8-1.5h0c0,0,0,0.3,0,0.6v0.6h3.1v-6.2
	c0-2.6-1.7-4.1-4.5-4.1c-2.5,0-4.2,1.3-4.2,1.3l1.2,2.4c0,0,1.4-1,2.7-1c0.8,0,1.5,0.3,1.5,1.1v0.2h-0.1
	C106.2,185.5,102,185.8,102,188.8z M105.4,188.6c0-0.8,1.2-1.2,2.3-1.2h0.3v0.2c0,0.8-0.8,1.8-1.7,1.8
	C105.6,189.4,105.4,189,105.4,188.6z"/>
<path fill="#696969" d="M120.4,191.8h3.4v-11h4.2v-2.9h-11.9v2.9h4.2V191.8z"/>
<path fill="#696969" d="M133.3,191.8h3.5l4.9-13.9h-3.6l-2.5,7.9c-0.3,0.9-0.5,2.2-0.5,2.2h0c0,0-0.3-1.4-0.5-2.2l-2.5-7.9h-3.7
	L133.3,191.8z"/>
<path fill="#696969" d="M141.4,190.5c0,0,1.5,1.5,4,1.5c2.6,0,4.1-1.5,4.1-3.2c0-3.2-4.7-3.4-4.7-4.1c0-0.4,0.5-0.5,1-0.5
	c1.4,0,2.4,0.8,2.4,0.8l1.2-2.4c0,0-1.2-1.1-3.5-1.1c-2.3,0-4.1,1.2-4.1,3.1c0,3.3,4.7,3.4,4.7,4.2c0,0.3-0.5,0.5-1,0.5
	c-1.4,0-2.6-1-2.6-1L141.4,190.5z"/>
<path fill="#696969" d="M155.6,191.8h3.4v-7.2h1.9v-2.6H159v-0.3c0-0.9,1-1,1.7-1c0.3,0,0.5,0,0.5,0v-2.8c0,0-0.4-0.1-1-0.1
	c-1.6,0-4.6,0.4-4.6,3.7v0.4h-1.2v2.6h1.2V191.8z"/>
<path fill="#696969" d="M161.4,186.8c0,3.1,2.5,5.2,5.7,5.2s5.7-2.1,5.7-5.2c0-3.2-2.5-5.3-5.7-5.3
	C163.9,181.5,161.4,183.6,161.4,186.8z M164.8,186.8c0-1.5,1.1-2.5,2.3-2.5s2.3,1,2.3,2.5c0,1.5-1.1,2.4-2.3,2.4
	S164.8,188.3,164.8,186.8z"/>
<path fill="#696969" d="M174.1,191.8h3.4V188c0-0.5,0.1-1,0.2-1.4c0.5-1.5,1.8-1.8,2.6-1.8c0.4,0,0.7,0.1,0.7,0.1v-3.3
	c0,0-0.2,0-0.4,0c-1.5,0-2.8,1.1-3.2,2.5h0c0,0,0-0.3,0-0.6v-1.7h-3.2V191.8z"/>
<path fill="#696969" d="M185.7,190c0,0,1.4,1.5,4,1.9v1.8h2.1v-1.8c2.5-0.4,3.9-2.2,3.9-4.2c0-4.3-6.3-4.2-6.3-5.8
	c0-0.8,0.8-1.1,1.5-1.1c1.7,0,3.1,1.2,3.1,1.2l1.4-2.8c0,0-1.2-1.2-3.6-1.5v-1.8h-2.1v1.8c-2.2,0.4-3.7,2-3.7,4.2
	c0,4.2,6.3,4.3,6.3,5.9c0,0.8-0.8,1.1-1.5,1.1c-1.8,0-3.3-1.4-3.3-1.4L185.7,190z"/>
<path fill="#696969" d="M197.4,191.8h3.5l5.8-11.6v-2.4h-10v2.9h5.5c0.7,0,0.9-0.1,0.9-0.1v0c0,0-0.4,0.3-0.9,1.3L197.4,191.8z"/>
<path fill="#696969" d="M207.2,192.6h2.8l5-15.4h-2.8L207.2,192.6z"/>
<path fill="#696969" d="M216.1,191.8h3.4v-4.2c0-0.4,0-0.9,0.1-1.2c0.2-1.1,0.8-1.8,1.8-1.8c0.6,0,0.8,0.5,0.8,1.3v5.9h3.4v-4.2
	c0-0.4,0-0.8,0.1-1.2c0.2-1.1,0.8-1.9,1.9-1.9c0.6,0,0.8,0.5,0.8,1.3v5.9h3.4v-6.5c0-2.8-1.4-3.8-3.3-3.8c-1.5,0-2.7,0.9-3.2,1.7h0
	c-0.5-1.1-1.5-1.7-2.8-1.7c-1.6,0-2.5,1-3,1.7h0c0,0,0-0.3,0-0.6v-0.9h-3.2V191.8z"/>
<path fill="#696969" d="M232.9,186.8c0,3.1,2.5,5.2,5.7,5.2s5.7-2.1,5.7-5.2c0-3.2-2.5-5.3-5.7-5.3
	C235.4,181.5,232.9,183.6,232.9,186.8z M236.3,186.8c0-1.5,1.1-2.5,2.3-2.5s2.3,1,2.3,2.5c0,1.5-1.1,2.4-2.3,2.4
	S236.3,188.3,236.3,186.8z"/>
<path fill="#696969" d="M249,186.7c0,2.7,1.9,5.3,5.5,5.3c2.7,0,4.3-1.5,4.3-1.5l-1.2-2.4c0,0-1.3,1-2.8,1c-1.1,0-2.1-0.6-2.3-1.8
	h6.3c0,0,0.1-0.7,0.1-1.1c0-2.8-1.7-4.9-4.6-4.9C251,181.5,249,183.8,249,186.7z M252.5,185.5c0.2-0.7,0.6-1.4,1.6-1.4
	c0.8,0,1.3,0.7,1.3,1.4H252.5z"/>
<path fill="#696969" d="M259.5,188.8c0,2,1.5,3.2,3.4,3.2c2.1,0,2.8-1.5,2.8-1.5h0c0,0,0,0.3,0,0.6v0.6h3.1v-6.2
	c0-2.6-1.7-4.1-4.5-4.1c-2.5,0-4.2,1.3-4.2,1.3l1.2,2.4c0,0,1.4-1,2.7-1c0.8,0,1.5,0.3,1.5,1.1v0.2h-0.1
	C263.8,185.5,259.5,185.8,259.5,188.8z M262.9,188.6c0-0.8,1.2-1.2,2.3-1.2h0.3v0.2c0,0.8-0.8,1.8-1.7,1.8
	C263.2,189.4,262.9,189,262.9,188.6z"/>
<path fill="#696969" d="M270.7,191.8h3.2v-3.2h-3.2V191.8z"/>
<path fill="#696969" d="M101.9,85.9h4.4v-5.5h3.1c3.5,0,5.8-2.6,5.8-6.2c0-3.6-2.4-6.2-5.8-6.2h-7.4V85.9z M106.2,76.6v-4.9h2.2
	c1.5,0,2.2,1,2.2,2.4s-0.8,2.5-2.3,2.5H106.2z"/>
<path fill="#696969" d="M116.5,81.1c0,4.3,2.5,4.9,4.8,4.9c0.7,0,1.3-0.1,1.3-0.1v-3.8c0,0-0.3,0-0.5,0c-1,0-1.2-0.4-1.2-1.7V68
	h-4.3V81.1z"/>
<path fill="#696969" d="M124.1,81.3c0,3.6,2,4.8,4.6,4.8c1.7,0,3.3-0.9,4-2.2h0.1c0,0-0.1,0.4-0.1,0.8v1.1h4.2V73h-4.3v5.7
	c0,1.9-0.9,3.6-2.7,3.6c-0.9,0-1.4-0.5-1.4-1.7V73h-4.3V81.3z"/>
<path fill="#696969" d="M138.6,84.3c0,0,1.9,1.9,5.2,1.9c3.3,0,5.3-1.9,5.3-4.1c0-4.2-6-4.3-6-5.3c0-0.5,0.6-0.6,1.3-0.6
	c1.8,0,3.1,1.1,3.1,1.1l1.5-3.1c0,0-1.5-1.5-4.5-1.5c-3,0-5.3,1.5-5.3,3.9c0,4.2,6,4.3,6,5.5c0,0.4-0.6,0.6-1.3,0.6
	c-1.9,0-3.3-1.3-3.3-1.3L138.6,84.3z"/>
<path fill="#696969" d="M155.1,82c0,2.6,2,4.2,4.4,4.2c2.7,0,3.7-1.9,3.7-1.9h0.1c0,0-0.1,0.4-0.1,0.8v0.8h4v-7.9
	c0-3.3-2.2-5.3-5.8-5.3c-3.2,0-5.4,1.7-5.4,1.7l1.5,3.1c0,0,1.9-1.2,3.5-1.2c1.1,0,1.9,0.4,1.9,1.4v0.2h-0.2
	C160.6,77.8,155.1,78.3,155.1,82z M159.4,81.8c0-1.1,1.6-1.5,3-1.5h0.4v0.3c0,1.1-1,2.3-2.1,2.3C159.8,82.9,159.4,82.4,159.4,81.8z"
	/>
<path fill="#696969" d="M168.7,79.4c0,4,2.3,6.8,5.8,6.8c2.7,0,3.7-1.9,3.7-1.9h0.1c0,0,0,0.3,0,0.7v0.9h4.1V68H178v5.2
	c0,0.3,0,0.6,0,0.6h-0.1c0,0-0.8-1-3.4-1C171.1,72.7,168.7,75.3,168.7,79.4z M173,79.4c0-2,1.2-3.1,2.5-3.1c1.7,0,2.5,1.5,2.5,3.1
	c0,2.2-1.2,3.2-2.5,3.2C174.1,82.6,173,81.3,173,79.4z"/>
<path fill="#696969" d="M184.1,79.4c0,4,2.3,6.8,5.8,6.8c2.7,0,3.7-1.9,3.7-1.9h0.1c0,0,0,0.3,0,0.7v0.9h4.1V68h-4.3v5.2
	c0,0.3,0,0.6,0,0.6h-0.1c0,0-0.8-1-3.4-1C186.6,72.7,184.1,75.3,184.1,79.4z M188.5,79.4c0-2,1.2-3.1,2.5-3.1c1.7,0,2.5,1.5,2.5,3.1
	c0,2.2-1.2,3.2-2.5,3.2C189.5,82.6,188.5,81.3,188.5,79.4z"/>
<path fill-rule="evenodd" clip-rule="evenodd" fill="#ED1A47" d="M25.8,141.5H273v3.5H25.8V141.5z"/>
<path fill-rule="evenodd" clip-rule="evenodd" fill="#ED1A47" d="M25.8,96.9H273v3.5H25.8V96.9z"/>
</svg>
