<?xml version="1.0" encoding="utf-8"?>
<!-- Generator: Adobe Illustrator 18.1.1, SVG Export Plug-In . SVG Version: 6.00 Build 0)  -->
<svg version="1.1" id="Layer_1" xmlns="http://www.w3.org/2000/svg" xmlns:xlink="http://www.w3.org/1999/xlink" x="0px" y="0px"
	 width="300px" height="250px" viewBox="0 0 300 250" enable-background="new 0 0 300 250" xml:space="preserve">
<path fill="#ED1A47" d="M12.4,123.1h4.4v-8.3c0-1.1-0.2-3.1-0.2-3.1h0c0,0,0.8,1.9,1.5,3.1l5,8.3h4.4v-17.9h-4.4v8.4
	c0,1.1,0.2,3.1,0.2,3.1h-0.1c0,0-0.8-1.9-1.5-3.1l-5-8.4h-4.4V123.1z"/>
<path fill="#ED1A47" d="M29.8,116.7c0,4,3.3,6.7,7.3,6.7s7.3-2.7,7.3-6.7c0-4.1-3.3-6.8-7.3-6.8C33,109.9,29.8,112.7,29.8,116.7z
	 M34.2,116.7c0-2,1.4-3.2,2.9-3.2c1.6,0,2.9,1.2,2.9,3.2c0,1.9-1.4,3.1-2.9,3.1C35.5,119.8,34.2,118.6,34.2,116.7z"/>
<path fill="#ED1A47" d="M51.3,123.1h4.3v-5.7c0-0.6,0-1.2,0.2-1.7c0.4-1.1,1.3-1.9,2.6-1.9c1,0,1.4,0.5,1.4,1.7v7.6h4.3v-8.4
	c0-3.6-2-4.8-4.6-4.8c-1.7,0-3.2,0.8-3.9,2.1h-0.1c0,0,0.1-0.5,0.1-1.1v-5.7h-4.3V123.1z"/>
<path fill="#ED1A47" d="M66.8,108.6H71v-3.4h-4.2V108.6z M66.7,123.1h4.3v-12.9h-4.3V123.1z"/>
<path fill="#ED1A47" d="M72.9,116.7c0,4,2.3,6.8,5.8,6.8c2.7,0,3.7-1.9,3.7-1.9h0.1c0,0,0,0.3,0,0.7v0.9h4.1v-17.9h-4.3v5.2
	c0,0.3,0,0.6,0,0.6h0c0,0-0.8-1-3.4-1C75.3,109.9,72.9,112.6,72.9,116.7z M77.3,116.7c0-2,1.2-3.1,2.5-3.1c1.7,0,2.5,1.5,2.5,3.1
	c0,2.2-1.2,3.2-2.5,3.2C78.3,119.8,77.3,118.6,77.3,116.7z"/>
<path fill="#ED1A47" d="M88.3,116.7c0,4,2.3,6.8,5.8,6.8c2.7,0,3.7-1.9,3.7-1.9h0.1c0,0,0,0.3,0,0.7v0.9h4.1v-17.9h-4.3v5.2
	c0,0.3,0,0.6,0,0.6h-0.1c0,0-0.8-1-3.4-1C90.8,109.9,88.3,112.6,88.3,116.7z M92.7,116.7c0-2,1.2-3.1,2.5-3.1c1.7,0,2.5,1.5,2.5,3.1
	c0,2.2-1.2,3.2-2.5,3.2C93.7,119.8,92.7,118.6,92.7,116.7z"/>
<path fill="#ED1A47" d="M103.7,116.7c0,3.4,2.5,6.8,7.1,6.8c3.4,0,5.5-1.9,5.5-1.9l-1.6-3c0,0-1.7,1.3-3.6,1.3c-1.4,0-2.7-0.7-3-2.3
	h8.1c0,0,0.1-0.9,0.1-1.4c0-3.6-2.2-6.2-6-6.2C106.2,109.9,103.7,112.9,103.7,116.7z M108.2,115c0.2-1,0.8-1.9,2.1-1.9
	c1,0,1.7,0.9,1.7,1.9H108.2z"/>
<path fill="#ED1A47" d="M118.2,123.1h4.3v-5.7c0-0.6,0.1-1.2,0.3-1.7c0.4-1.1,1.2-1.9,2.6-1.9c1,0,1.4,0.5,1.4,1.7v7.6h4.3v-8.4
	c0-3.6-2-4.8-4.6-4.8c-2.3,0-3.5,1.2-4.1,2.2h0c0,0,0-0.4,0-0.8v-1.1h-4.2V123.1z"/>
<path fill="#ED1A47" d="M138.8,123.1h4.3v-5.3c0-0.6,0-1.1,0.1-1.6c0.3-1.4,1-2.3,2.4-2.3c0.8,0,1,0.7,1,1.6v7.6h4.3v-5.3
	c0-0.5,0-1.1,0.1-1.5c0.3-1.4,1-2.4,2.4-2.4c0.8,0,1,0.7,1,1.6v7.6h4.3v-8.4c0-3.6-1.8-4.8-4.2-4.8c-1.9,0-3.5,1.1-4.1,2.2h-0.1
	c-0.7-1.5-2-2.2-3.6-2.2c-2,0-3.2,1.3-3.8,2.2h-0.1c0,0,0.1-0.4,0.1-0.8v-1.1h-4.2V123.1z"/>
<path fill="#ED1A47" d="M160.3,116.7c0,4,3.3,6.7,7.3,6.7c4.1,0,7.3-2.7,7.3-6.7c0-4.1-3.3-6.8-7.3-6.8
	C163.6,109.9,160.3,112.7,160.3,116.7z M164.7,116.7c0-2,1.4-3.2,2.9-3.2c1.6,0,2.9,1.2,2.9,3.2c0,1.9-1.4,3.1-2.9,3.1
	C166.1,119.8,164.7,118.6,164.7,116.7z"/>
<path fill="#ED1A47" d="M176.7,123.1h4.3v-5.7c0-0.6,0.1-1.2,0.3-1.7c0.4-1.1,1.2-1.9,2.6-1.9c1,0,1.4,0.5,1.4,1.7v7.6h4.3v-8.4
	c0-3.6-2-4.8-4.6-4.8c-2.3,0-3.5,1.2-4.1,2.2h-0.1c0,0,0.1-0.4,0.1-0.8v-1.1h-4.2V123.1z"/>
<path fill="#ED1A47" d="M192.7,118.4c0,4.3,4,4.9,6,4.9c0.7,0,1.2-0.1,1.2-0.1v-3.8c0,0-0.2,0-0.6,0c-0.8,0-2.3-0.2-2.3-1.7v-4h2.7
	v-3.4H197v-3.7h-4.2v3.7h-1.8v3.4h1.7V118.4z"/>
<path fill="#ED1A47" d="M201.9,123.1h4.3v-5.7c0-0.6,0.1-1.2,0.2-1.7c0.4-1.1,1.3-1.9,2.6-1.9c1,0,1.4,0.5,1.4,1.7v7.6h4.3v-8.4
	c0-3.6-2-4.8-4.6-4.8c-1.7,0-3.2,0.8-3.9,2.1h-0.1c0,0,0.1-0.5,0.1-1.1v-5.7h-4.3V123.1z"/>
<path fill="#ED1A47" d="M217.2,118.4c0,4.3,2.5,4.9,4.8,4.9c0.7,0,1.3-0.1,1.3-0.1v-3.8c0,0-0.3,0-0.5,0c-1,0-1.2-0.4-1.2-1.7v-12.6
	h-4.3V118.4z"/>
<path fill="#ED1A47" d="M223.3,127.5c0,0,1.3,0.9,3,0.9c2.1,0,4.3-1,5.4-3.9l5.3-14.3h-4.7l-1.6,6c-0.2,0.7-0.4,1.9-0.4,1.9h-0.1
	c0,0-0.3-1.3-0.5-2l-1.9-5.9h-4.9l5.5,12.6l-0.3,0.6c-0.5,1.1-1.4,1.3-2.1,1.3c-0.6,0-1.3-0.5-1.3-0.5L223.3,127.5z"/>
<path fill="#ED1A47" d="M244.1,123.1h4.3v-9.3h2.4v-3.4h-2.4v-0.4c0-1.1,1.3-1.3,2.2-1.3c0.4,0,0.7,0.1,0.7,0.1v-3.7
	c0,0-0.5-0.1-1.3-0.1c-2.1,0-5.9,0.6-5.9,4.8v0.5h-1.6v3.4h1.6V123.1z"/>
<path fill="#ED1A47" d="M251.5,116.7c0,3.4,2.5,6.8,7.1,6.8c3.4,0,5.5-1.9,5.5-1.9l-1.6-3c0,0-1.7,1.3-3.6,1.3c-1.4,0-2.7-0.7-3-2.3
	h8.1c0,0,0.1-0.9,0.1-1.4c0-3.6-2.2-6.2-6-6.2C254,109.9,251.5,112.9,251.5,116.7z M256,115c0.2-1,0.8-1.9,2.1-1.9
	c1,0,1.7,0.9,1.7,1.9H256z"/>
<path fill="#ED1A47" d="M265,116.7c0,3.4,2.5,6.8,7.1,6.8c3.4,0,5.5-1.9,5.5-1.9l-1.6-3c0,0-1.7,1.3-3.6,1.3c-1.4,0-2.7-0.7-3-2.3
	h8.1c0,0,0.1-0.9,0.1-1.4c0-3.6-2.2-6.2-6-6.2C267.6,109.9,265,112.9,265,116.7z M269.6,115c0.2-1,0.8-1.9,2.1-1.9
	c1,0,1.7,0.9,1.7,1.9H269.6z"/>
<path fill="#ED1A47" d="M278.5,121.5c0,0,1.9,1.9,5.2,1.9c3.3,0,5.3-1.9,5.3-4.1c0-4.2-6-4.3-6-5.3c0-0.5,0.6-0.6,1.3-0.6
	c1.8,0,3.1,1.1,3.1,1.1l1.5-3.1c0,0-1.5-1.5-4.5-1.5c-3,0-5.3,1.5-5.3,3.9c0,4.2,6,4.3,6,5.5c0,0.4-0.6,0.6-1.3,0.6
	c-1.9,0-3.3-1.3-3.3-1.3L278.5,121.5z"/>
<path fill="#696969" d="M39.7,148.4c0,4.3,2.5,4.9,4.8,4.9c0.7,0,1.3-0.1,1.3-0.1v-3.8c0,0-0.3,0-0.5,0c-1,0-1.2-0.4-1.2-1.7v-12.6
	h-4.3V148.4z"/>
<path fill="#696969" d="M47.5,138.6h4.2v-3.4h-4.2V138.6z M47.5,153.1h4.3v-12.9h-4.3V153.1z"/>
<path fill="#696969" d="M54.5,153.1h4.3v-5h1.4l2.7,5h4.9l-4.3-7v0l3.8-5.9h-4.7l-2.6,4.3h-1.2v-9.3h-4.3V153.1z"/>
<path fill="#696969" d="M67.9,146.7c0,3.4,2.5,6.8,7.1,6.8c3.4,0,5.5-1.9,5.5-1.9l-1.6-3c0,0-1.7,1.3-3.6,1.3c-1.4,0-2.7-0.7-3-2.3
	h8.1c0,0,0.1-0.9,0.1-1.4c0-3.6-2.2-6.2-6-6.2C70.4,139.9,67.9,142.9,67.9,146.7z M72.4,145c0.2-1,0.8-1.9,2.1-1.9
	c1,0,1.7,0.9,1.7,1.9H72.4z"/>
<path fill="#696969" d="M88.3,148.4c0,4.3,4,4.9,6,4.9c0.7,0,1.2-0.1,1.2-0.1v-3.8c0,0-0.2,0-0.6,0c-0.8,0-2.3-0.2-2.3-1.7v-4h2.7
	v-3.4h-2.7v-3.7h-4.2v3.7h-1.8v3.4h1.7V148.4z"/>
<path fill="#696969" d="M97.5,153.1h4.3v-5.7c0-0.6,0.1-1.2,0.2-1.7c0.4-1.1,1.3-1.9,2.6-1.9c1,0,1.4,0.5,1.4,1.7v7.6h4.3v-8.4
	c0-3.6-2-4.8-4.6-4.8c-1.7,0-3.2,0.8-3.9,2.1h-0.1c0,0,0.1-0.5,0.1-1.1v-5.7h-4.3V153.1z"/>
<path fill="#696969" d="M112,146.7c0,3.4,2.5,6.8,7.1,6.8c3.4,0,5.5-1.9,5.5-1.9l-1.6-3c0,0-1.7,1.3-3.6,1.3c-1.4,0-2.7-0.7-3-2.3
	h8.1c0,0,0.1-0.9,0.1-1.4c0-3.6-2.2-6.2-6-6.2C114.5,139.9,112,142.9,112,146.7z M116.5,145c0.2-1,0.8-1.9,2.1-1.9
	c1,0,1.7,0.9,1.7,1.9H116.5z"/>
<path fill="#696969" d="M130.7,146.7c0,4,3.3,6.7,7.3,6.7c4.1,0,7.3-2.7,7.3-6.7c0-4.1-3.3-6.8-7.3-6.8
	C134,139.9,130.7,142.7,130.7,146.7z M135.1,146.7c0-2,1.4-3.2,2.9-3.2s2.9,1.2,2.9,3.2c0,1.9-1.4,3.1-2.9,3.1
	S135.1,148.7,135.1,146.7z"/>
<path fill="#696969" d="M147.7,148.4c0,4.3,4,4.9,6,4.9c0.7,0,1.2-0.1,1.2-0.1v-3.8c0,0-0.2,0-0.6,0c-0.8,0-2.3-0.2-2.3-1.7v-4h2.7
	v-3.4h-2.7v-3.7h-4.2v3.7h-1.8v3.4h1.7V148.4z"/>
<path fill="#696969" d="M157,153.1h4.3v-5.7c0-0.6,0.1-1.2,0.2-1.7c0.4-1.1,1.3-1.9,2.6-1.9c1,0,1.4,0.5,1.4,1.7v7.6h4.3v-8.4
	c0-3.6-2-4.8-4.6-4.8c-1.7,0-3.2,0.8-3.9,2.1h-0.1c0,0,0.1-0.5,0.1-1.1v-5.7H157V153.1z"/>
<path fill="#696969" d="M171.4,146.7c0,3.4,2.5,6.8,7.1,6.8c3.4,0,5.5-1.9,5.5-1.9l-1.6-3c0,0-1.7,1.3-3.6,1.3c-1.4,0-2.7-0.7-3-2.3
	h8.1c0,0,0.1-0.9,0.1-1.4c0-3.6-2.2-6.2-6-6.2C174,139.9,171.4,142.9,171.4,146.7z M176,145c0.2-1,0.8-1.9,2.1-1.9
	c1,0,1.7,0.9,1.7,1.9H176z"/>
<path fill="#696969" d="M185.9,153.1h4.3v-4.9c0-0.7,0.1-1.3,0.2-1.8c0.6-1.9,2.3-2.3,3.3-2.3c0.5,0,0.9,0.1,0.9,0.1v-4.3
	c0,0-0.3,0-0.5,0c-1.9,0-3.6,1.5-4.1,3.2H190c0,0,0.1-0.4,0.1-0.8v-2.2h-4.2V153.1z"/>
<path fill="#696969" d="M203,154l-1.2,3.3c1.3,0.7,3.2,1.2,4.9,1.2c3.5,0,7.3-1.7,7.3-6.4v-11.7h-4.1v0.7c0,0.2,0,0.3,0,0.3h-0.1
	c0,0-1.2-1.3-3.5-1.3c-3.9,0-5.8,3.1-5.8,6.3c0,3.3,1.9,6.5,5.8,6.5c1.5,0,2.5-0.5,3.2-1.4h0c0,0,0,0.3,0,0.5v0.4
	c0,1.9-1.4,2.5-3,2.5C204.6,154.8,203,154,203,154z M207.4,149.2c-1.7,0-2.5-1.4-2.5-3c0-1.5,0.8-2.6,2.3-2.6c1.3,0,2.5,0.5,2.5,2.8
	C209.7,148.6,208.5,149.2,207.4,149.2z"/>
<path fill="#696969" d="M216.5,148.6c0,3.6,2,4.8,4.6,4.8c1.7,0,3.3-0.9,4-2.2h0.1c0,0-0.1,0.4-0.1,0.8v1.1h4.2v-12.9h-4.3v5.7
	c0,1.9-0.9,3.6-2.7,3.6c-0.9,0-1.4-0.5-1.4-1.7v-7.6h-4.3V148.6z"/>
<path fill="#696969" d="M230.3,157.5c0,0,1.3,0.9,3,0.9c2.1,0,4.3-1,5.4-3.9l5.3-14.3h-4.7l-1.6,6c-0.2,0.7-0.4,1.9-0.4,1.9h-0.1
	c0,0-0.3-1.3-0.5-2l-1.9-5.9h-4.9l5.5,12.6l-0.3,0.6c-0.5,1.1-1.4,1.3-2.1,1.3c-0.6,0-1.3-0.5-1.3-0.5L230.3,157.5z"/>
<path fill="#696969" d="M244.1,151.5c0,0,1.9,1.9,5.2,1.9c3.3,0,5.3-1.9,5.3-4.1c0-4.2-6-4.3-6-5.3c0-0.5,0.6-0.6,1.3-0.6
	c1.8,0,3.1,1.1,3.1,1.1l1.5-3.1c0,0-1.5-1.5-4.5-1.5c-3,0-5.3,1.5-5.3,3.9c0,4.2,6,4.3,6,5.5c0,0.4-0.6,0.6-1.3,0.6
	c-1.9,0-3.3-1.3-3.3-1.3L244.1,151.5z"/>
<path fill="#696969" d="M256.2,153.1h4.1V149h-4.1V153.1z"/>
</svg>
