<?xml version="1.0" encoding="utf-8"?>
<!-- Generator: Adobe Illustrator 18.1.1, SVG Export Plug-In . SVG Version: 6.00 Build 0)  -->
<svg version="1.1" id="Layer_1" xmlns="http://www.w3.org/2000/svg" xmlns:xlink="http://www.w3.org/1999/xlink" x="0px" y="0px"
	 width="300px" height="250px" viewBox="0 0 300 250" enable-background="new 0 0 300 250" xml:space="preserve">
<path fill="#696969" d="M21.5,104.1c0,0,2.5,2.8,7,2.8c4.3,0,6.8-2.8,6.8-6c0-6.1-8.7-5.7-8.7-8.1c0-1.1,1.1-1.5,2.1-1.5
	c2.3,0,4.3,1.7,4.3,1.7l2-3.9c0,0-2.1-2.2-6.2-2.2c-3.8,0-6.8,2.3-6.8,5.9c0,5.9,8.7,5.9,8.7,8.1c0,1.2-1.1,1.5-2,1.5
	c-2.4,0-4.6-2-4.6-2L21.5,104.1z"/>
<path fill="#696969" d="M36.5,102.4c0,2.8,2.1,4.5,4.7,4.5c2.9,0,3.9-2,3.9-2h0.1c0,0-0.1,0.4-0.1,0.9v0.8h4.3V98
	c0-3.5-2.3-5.7-6.3-5.7c-3.4,0-5.8,1.8-5.8,1.8l1.6,3.3c0,0,2-1.3,3.8-1.3c1.2,0,2.1,0.4,2.1,1.5v0.2h-0.2
	C42.4,97.9,36.5,98.3,36.5,102.4z M41.2,102.2c0-1.2,1.7-1.6,3.2-1.6h0.4v0.3c0,1.1-1.1,2.5-2.3,2.5
	C41.6,103.3,41.2,102.8,41.2,102.2z"/>
<path fill="#696969" d="M52.1,106.6h4.7v-5.7c0-0.6,0-1.2,0.1-1.7c0.3-1.5,1.1-2.5,2.5-2.5c0.9,0,1.1,0.7,1.1,1.8v8.2h4.7v-5.7
	c0-0.6,0-1.1,0.1-1.6c0.3-1.5,1.1-2.6,2.6-2.6c0.9,0,1.1,0.7,1.1,1.8v8.2h4.7v-9c0-3.8-2-5.2-4.5-5.2c-2.1,0-3.7,1.2-4.5,2.3h-0.1
	c-0.7-1.6-2.1-2.3-3.9-2.3c-2.2,0-3.5,1.4-4.1,2.4h-0.1c0,0,0.1-0.4,0.1-0.9v-1.2h-4.5V106.6z"/>
<path fill="#696969" d="M75.4,99.6c0,3.7,2.7,7.3,7.6,7.3c3.7,0,5.9-2,5.9-2l-1.7-3.3c0,0-1.8,1.4-3.8,1.4c-1.5,0-2.9-0.8-3.2-2.5
	h8.8c0,0,0.1-1,0.1-1.5c0-3.9-2.3-6.7-6.4-6.7C78.1,92.3,75.4,95.5,75.4,99.6z M80.2,97.8c0.2-1,0.9-2,2.2-2c1.1,0,1.8,0.9,1.8,2
	H80.2z"/>
<path fill="#696969" d="M96.7,111.9h4.7v-5.2c0-0.7-0.1-1.2-0.1-1.2h0.1c0,0,1.3,1.3,3.5,1.3c3.7,0,6.5-2.9,6.5-7.3
	c0-4.3-2.5-7.3-6.3-7.3c-2.9,0-4.2,1.9-4.2,1.9h-0.1c0,0,0.1-0.4,0.1-0.9v-0.7h-4.2V111.9z M101.2,99.7c0-2.4,1.3-3.4,2.7-3.4
	c1.6,0,2.7,1.3,2.7,3.4c0,2.1-1.3,3.3-2.7,3.3C102.1,103,101.2,101.4,101.2,99.7z"/>
<path fill="#696969" d="M112.3,102.4c0,2.8,2.1,4.5,4.7,4.5c2.9,0,3.9-2,3.9-2h0.1c0,0-0.1,0.4-0.1,0.9v0.8h4.3V98
	c0-3.5-2.3-5.7-6.3-5.7c-3.4,0-5.8,1.8-5.8,1.8l1.6,3.3c0,0,2-1.3,3.8-1.3c1.2,0,2.1,0.4,2.1,1.5v0.2h-0.2
	C118.2,97.9,112.3,98.3,112.3,102.4z M117,102.2c0-1.2,1.7-1.6,3.2-1.6h0.4v0.3c0,1.1-1.1,2.5-2.3,2.5
	C117.4,103.3,117,102.8,117,102.2z"/>
<path fill="#696969" d="M126.9,99.6c0,3.8,2.8,7.3,7.7,7.3c3.9,0,6-2.3,6-2.3l-1.7-3.3c0,0-1.9,1.7-3.8,1.7c-2.3,0-3.5-1.8-3.5-3.5
	c0-1.6,1.1-3.3,3.3-3.3c1.9,0,3.3,1.3,3.3,1.3l2-3.1c0,0-1.8-2.1-5.5-2.1C129.6,92.3,126.9,95.9,126.9,99.6z"/>
<path fill="#696969" d="M142.2,106.6h4.7v-5.4h1.5l2.9,5.4h5.3L152,99V99l4.1-6.3H151l-2.8,4.6h-1.3v-10h-4.7V106.6z"/>
<path fill="#696969" d="M156.8,102.4c0,2.8,2.1,4.5,4.7,4.5c2.9,0,3.9-2,3.9-2h0.1c0,0-0.1,0.4-0.1,0.9v0.8h4.3V98
	c0-3.5-2.3-5.7-6.3-5.7c-3.4,0-5.8,1.8-5.8,1.8l1.6,3.3c0,0,2-1.3,3.8-1.3c1.2,0,2.1,0.4,2.1,1.5v0.2h-0.2
	C162.7,97.9,156.8,98.3,156.8,102.4z M161.5,102.2c0-1.2,1.7-1.6,3.2-1.6h0.4v0.3c0,1.1-1.1,2.5-2.3,2.5
	C161.9,103.3,161.5,102.8,161.5,102.2z"/>
<path fill="#696969" d="M174.2,107.4l-1.3,3.5c1.3,0.7,3.4,1.2,5.3,1.2c3.8,0,7.9-1.9,7.9-6.9V92.7h-4.4v0.7c0,0.2,0,0.3,0,0.3h-0.1
	c0,0-1.2-1.3-3.8-1.3c-4.2,0-6.2,3.3-6.2,6.8c0,3.6,2.1,7,6.3,7c1.6,0,2.7-0.5,3.5-1.5h0.1c0,0,0,0.4,0,0.5v0.5
	c0,2.1-1.5,2.7-3.2,2.7C175.9,108.3,174.2,107.4,174.2,107.4z M178.9,102.3c-1.9,0-2.7-1.5-2.7-3.3c0-1.6,0.8-2.8,2.5-2.8
	c1.4,0,2.7,0.5,2.7,3C181.4,101.6,180.1,102.3,178.9,102.3z"/>
<path fill="#696969" d="M187.9,99.6c0,3.7,2.7,7.3,7.6,7.3c3.7,0,5.9-2,5.9-2l-1.7-3.3c0,0-1.8,1.4-3.8,1.4c-1.5,0-2.9-0.8-3.2-2.5
	h8.8c0,0,0.1-1,0.1-1.5c0-3.9-2.3-6.7-6.4-6.7C190.7,92.3,187.9,95.5,187.9,99.6z M192.8,97.8c0.2-1,0.9-2,2.2-2
	c1.1,0,1.8,0.9,1.8,2H192.8z"/>
<path fill="#696969" d="M209.2,111.9h4.7v-5.2c0-0.7-0.1-1.2-0.1-1.2h0.1c0,0,1.3,1.3,3.5,1.3c3.7,0,6.5-2.9,6.5-7.3
	c0-4.3-2.5-7.3-6.3-7.3c-2.9,0-4.2,1.9-4.2,1.9h-0.1c0,0,0.1-0.4,0.1-0.9v-0.7h-4.2V111.9z M213.7,99.7c0-2.4,1.3-3.4,2.7-3.4
	c1.6,0,2.7,1.3,2.7,3.4c0,2.1-1.3,3.3-2.7,3.3C214.6,103,213.7,101.4,213.7,99.7z"/>
<path fill="#696969" d="M225.9,106.6h4.7v-5.3c0-0.8,0.1-1.4,0.2-1.9c0.7-2.1,2.5-2.4,3.6-2.4c0.6,0,0.9,0.1,0.9,0.1v-4.6
	c0,0-0.3-0.1-0.5-0.1c-2.1,0-3.8,1.6-4.4,3.5h-0.1c0,0,0.1-0.4,0.1-0.9v-2.3h-4.5V106.6z"/>
<path fill="#696969" d="M237,90.9h4.6v-3.6H237V90.9z M236.9,106.6h4.7V92.7h-4.7V106.6z"/>
<path fill="#696969" d="M243.5,99.6c0,3.8,2.8,7.3,7.7,7.3c3.9,0,6-2.3,6-2.3l-1.7-3.3c0,0-1.9,1.7-3.8,1.7c-2.3,0-3.5-1.8-3.5-3.5
	c0-1.6,1.1-3.3,3.3-3.3c1.9,0,3.3,1.3,3.3,1.3l2-3.1c0,0-1.8-2.1-5.5-2.1C246.2,92.3,243.5,95.9,243.5,99.6z"/>
<path fill="#696969" d="M257.9,99.6c0,3.7,2.7,7.3,7.6,7.3c3.7,0,5.9-2,5.9-2l-1.7-3.3c0,0-1.8,1.4-3.8,1.4c-1.5,0-2.9-0.8-3.2-2.5
	h8.8c0,0,0.1-1,0.1-1.5c0-3.9-2.3-6.7-6.4-6.7C260.6,92.3,257.9,95.5,257.9,99.6z M262.7,97.8c0.2-1,0.9-2,2.2-2
	c1.1,0,1.8,0.9,1.8,2H262.7z"/>
<path fill="#696969" d="M273.4,106.6h4.4v-4.4h-4.4V106.6z"/>
<path fill="#696969" d="M80.7,139.8h4.7v-7.1h5.9v-4h-5.9v-4h7.1v-4H80.7V139.8z"/>
<path fill="#696969" d="M93.4,132.9c0,4.3,3.5,7.2,7.9,7.2c4.4,0,7.9-2.9,7.9-7.2c0-4.4-3.5-7.3-7.9-7.3
	C96.9,125.6,93.4,128.5,93.4,132.9z M98.1,132.9c0-2.1,1.5-3.4,3.2-3.4s3.2,1.3,3.2,3.4c0,2.1-1.5,3.3-3.2,3.3S98.1,135,98.1,132.9z
	"/>
<path fill="#696969" d="M111.1,139.8h4.7v-5.3c0-0.8,0.1-1.4,0.2-1.9c0.7-2.1,2.5-2.4,3.6-2.4c0.6,0,0.9,0.1,0.9,0.1v-4.6
	c0,0-0.3-0.1-0.5-0.1c-2.1,0-3.8,1.6-4.4,3.5h-0.1c0,0,0.1-0.4,0.1-0.9v-2.3h-4.5V139.8z"/>
<path fill="#696969" d="M127.6,139.8h13.4v-4h-8.2c0.1-2.5,7.9-3.6,7.9-9.7c0-4.1-3.4-5.9-6.6-5.9c-5,0-6.8,4.2-6.8,4.2l3.5,2.3
	c0,0,1-2.1,2.9-2.1c1,0,2.1,0.6,2.1,1.9c0,2.8-8.3,4-8.3,11.2C127.3,138.4,127.4,139.1,127.6,139.8z"/>
<path fill="#696969" d="M147.4,144.5c0,0,1.4,1,3.2,1c2.2,0,4.6-1.1,5.8-4.2l5.7-15.4H157l-1.8,6.5c-0.2,0.8-0.5,2.1-0.5,2.1h-0.1
	c0,0-0.3-1.4-0.5-2.2l-2.1-6.4h-5.3l5.9,13.6l-0.3,0.6c-0.5,1.2-1.5,1.4-2.2,1.4c-0.7,0-1.4-0.5-1.4-0.5L147.4,144.5z"/>
<path fill="#696969" d="M162.3,132.9c0,3.7,2.7,7.3,7.6,7.3c3.7,0,5.9-2,5.9-2l-1.7-3.3c0,0-1.8,1.4-3.8,1.4c-1.5,0-2.9-0.8-3.2-2.5
	h8.8c0,0,0.1-1,0.1-1.5c0-3.9-2.3-6.7-6.4-6.7C165.1,125.6,162.3,128.8,162.3,132.9z M167.2,131.1c0.2-1,0.9-2,2.2-2
	c1.1,0,1.8,0.9,1.8,2H167.2z"/>
<path fill="#696969" d="M176.9,135.7c0,2.8,2.1,4.5,4.7,4.5c2.9,0,3.9-2,3.9-2h0.1c0,0-0.1,0.4-0.1,0.9v0.8h4.3v-8.6
	c0-3.5-2.3-5.7-6.3-5.7c-3.4,0-5.8,1.8-5.8,1.8l1.6,3.3c0,0,2-1.3,3.8-1.3c1.2,0,2.1,0.4,2.1,1.5v0.2H185
	C182.8,131.2,176.9,131.6,176.9,135.7z M181.6,135.4c0-1.2,1.7-1.6,3.2-1.6h0.4v0.3c0,1.1-1.1,2.5-2.3,2.5
	C182,136.6,181.6,136.1,181.6,135.4z"/>
<path fill="#696969" d="M192.5,139.8h4.7v-5.3c0-0.8,0.1-1.4,0.2-1.9c0.7-2.1,2.5-2.4,3.6-2.4c0.6,0,0.9,0.1,0.9,0.1v-4.6
	c0,0-0.3-0.1-0.5-0.1c-2.1,0-3.8,1.6-4.4,3.5H197c0,0,0.1-0.4,0.1-0.9v-2.3h-4.5V139.8z"/>
<path fill="#696969" d="M202.5,138.1c0,0,2.1,2.1,5.6,2.1c3.6,0,5.7-2,5.7-4.4c0-4.5-6.5-4.6-6.5-5.7c0-0.5,0.7-0.7,1.4-0.7
	c1.9,0,3.3,1.1,3.3,1.1l1.6-3.3c0,0-1.6-1.6-4.9-1.6c-3.2,0-5.7,1.6-5.7,4.2c0,4.5,6.5,4.7,6.5,5.9c0,0.5-0.7,0.6-1.4,0.6
	c-2,0-3.5-1.4-3.5-1.4L202.5,138.1z"/>
<path fill="#696969" d="M215.6,139.8h4.4v-4.4h-4.4V139.8z"/>
<path fill="#ED1A47" d="M72.1,163.4c0,6.3,4.5,10,9.5,10c3.2,0,5.1-1.7,5.1-1.7h0.1c0,0,0,0.4,0,0.8v0.5h3.9v-10.9h-6.9v4h2.7v1.5
	c0,0-1.6,1.4-3.9,1.4c-3,0-5.5-2.2-5.5-5.9c0-2.9,1.6-5.5,5.7-5.5c2.7,0,4.7,1.8,4.7,1.8l2.3-3.5c0,0-2.5-2.6-7.4-2.6
	C76.3,153.5,72.1,157.8,72.1,163.4z"/>
<path fill="#ED1A47" d="M92.9,168.2c0,3.9,2.2,5.2,4.9,5.2c1.9,0,3.6-0.9,4.3-2.4h0.1c0,0-0.1,0.4-0.1,0.9v1.2h4.5v-13.9H102v6.2
	c0,2.1-0.9,3.8-2.9,3.8c-1,0-1.5-0.5-1.5-1.8v-8.1h-4.7V168.2z"/>
<path fill="#ED1A47" d="M108.5,168.9c0,2.8,2.1,4.5,4.7,4.5c2.9,0,3.9-2,3.9-2h0.1c0,0-0.1,0.4-0.1,0.9v0.8h4.3v-8.6
	c0-3.5-2.3-5.7-6.3-5.7c-3.4,0-5.8,1.8-5.8,1.8l1.6,3.3c0,0,2-1.3,3.8-1.3c1.2,0,2.1,0.4,2.1,1.5v0.2h-0.2
	C114.4,164.4,108.5,164.9,108.5,168.9z M113.2,168.7c0-1.2,1.7-1.6,3.2-1.6h0.4v0.3c0,1.1-1.1,2.5-2.3,2.5
	C113.6,169.9,113.2,169.3,113.2,168.7z"/>
<path fill="#ED1A47" d="M124.2,173.1h4.7v-5.3c0-0.8,0.1-1.4,0.2-1.9c0.7-2.1,2.5-2.4,3.6-2.4c0.6,0,0.9,0.1,0.9,0.1V159
	c0,0-0.3-0.1-0.5-0.1c-2.1,0-3.8,1.6-4.4,3.5h-0.1c0,0,0.1-0.4,0.1-0.9v-2.3h-4.5V173.1z"/>
<path fill="#ED1A47" d="M134.2,168.9c0,2.8,2.1,4.5,4.7,4.5c2.9,0,3.9-2,3.9-2h0.1c0,0-0.1,0.4-0.1,0.9v0.8h4.3v-8.6
	c0-3.5-2.3-5.7-6.3-5.7c-3.4,0-5.8,1.8-5.8,1.8l1.6,3.3c0,0,2-1.3,3.8-1.3c1.2,0,2.1,0.4,2.1,1.5v0.2h-0.2
	C140.1,164.4,134.2,164.9,134.2,168.9z M138.9,168.7c0-1.2,1.7-1.6,3.2-1.6h0.4v0.3c0,1.1-1.1,2.5-2.3,2.5
	C139.3,169.9,138.9,169.3,138.9,168.7z"/>
<path fill="#ED1A47" d="M149.8,173.1h4.7v-6.2c0-0.7,0.1-1.3,0.3-1.8c0.4-1.2,1.3-2,2.8-2c1,0,1.5,0.5,1.5,1.8v8.1h4.7v-9
	c0-3.9-2.2-5.2-5-5.2c-2.5,0-3.8,1.3-4.4,2.4h-0.1c0,0,0.1-0.4,0.1-0.9v-1.2h-4.5V173.1z"/>
<path fill="#ED1A47" d="M167.1,168c0,4.7,4.3,5.3,6.5,5.3c0.8,0,1.3-0.1,1.3-0.1v-4c0,0-0.2,0-0.6,0c-0.9,0-2.5-0.2-2.5-1.8v-4.3
	h2.9v-3.6h-2.9v-4h-4.5v4h-1.9v3.6h1.8V168z"/>
<path fill="#ED1A47" d="M176.1,166.1c0,3.7,2.7,7.3,7.6,7.3c3.7,0,5.9-2,5.9-2l-1.7-3.3c0,0-1.8,1.4-3.8,1.4c-1.5,0-2.9-0.8-3.2-2.5
	h8.8c0,0,0.1-1,0.1-1.5c0-3.9-2.3-6.7-6.4-6.7C178.9,158.9,176.1,162.1,176.1,166.1z M181,164.4c0.2-1,0.9-2,2.2-2
	c1.1,0,1.8,0.9,1.8,2H181z"/>
<path fill="#ED1A47" d="M190.8,166.1c0,3.7,2.7,7.3,7.6,7.3c3.7,0,5.9-2,5.9-2l-1.7-3.3c0,0-1.8,1.4-3.8,1.4c-1.5,0-2.9-0.8-3.2-2.5
	h8.8c0,0,0.1-1,0.1-1.5c0-3.9-2.3-6.7-6.4-6.7C193.5,158.9,190.8,162.1,190.8,166.1z M195.7,164.4c0.2-1,0.9-2,2.2-2
	c1.1,0,1.8,0.9,1.8,2H195.7z"/>
<path fill="#ED1A47" d="M205.5,166.1c0,4.3,2.5,7.3,6.3,7.3c2.9,0,4-2,4-2h0.1c0,0,0,0.4,0,0.8v0.9h4.4v-19.3h-4.7v5.6
	c0,0.4,0,0.6,0,0.6h-0.1c0,0-0.8-1.1-3.6-1.1C208.1,158.9,205.5,161.7,205.5,166.1z M210.2,166.1c0-2.1,1.3-3.3,2.7-3.3
	c1.8,0,2.7,1.6,2.7,3.3c0,2.4-1.3,3.4-2.7,3.4C211.3,169.6,210.2,168.2,210.2,166.1z"/>
<path fill="#ED1A47" d="M222.9,173.1h4.4v-4.4h-4.4V173.1z"/>
</svg>
