<?xml version="1.0" encoding="utf-8"?>
<!-- Generator: Adobe Illustrator 18.1.1, SVG Export Plug-In . SVG Version: 6.00 Build 0)  -->
<svg version="1.1" id="Layer_1" xmlns="http://www.w3.org/2000/svg" xmlns:xlink="http://www.w3.org/1999/xlink" x="0px" y="0px"
	 width="300px" height="250px" viewBox="0 0 300 250" enable-background="new 0 0 300 250" xml:space="preserve">
<path fill="#8F278C" d="M180.4,168c0,1.2,1,1.8,2.1,1.8c1.5,0,1.9-1.2,1.9-1.2h0c0,0,0,0.2,0,0.5v0.6h1.1v-3.8
	c0-1.5-0.9-2.4-2.4-2.4c-1.4,0-2.3,0.7-2.3,0.7l0.5,0.9c0,0,0.8-0.6,1.7-0.6c0.8,0,1.3,0.3,1.3,1.3v0.1h-0.3
	C183.1,165.9,180.4,166,180.4,168z M181.6,168c0-1.1,1.6-1.2,2.5-1.2h0.3v0.2c0,0.9-0.6,1.9-1.6,1.9
	C182,168.9,181.6,168.4,181.6,168z"/>
<path fill="#8F278C" d="M189.9,169.7h1.2v-2.8c0-0.3,0-0.6,0.1-0.8c0.2-0.9,0.9-1.6,1.7-1.6c0.9,0,1.1,0.7,1.1,1.5v3.6h1.2v-2.8
	c0-0.3,0-0.6,0.1-0.8c0.2-0.8,0.9-1.5,1.7-1.5c0.9,0,1.1,0.7,1.1,1.5v3.6h1.2v-3.9c0-1.5-0.6-2.3-2-2.3c-1,0-1.8,0.6-2.2,1.4h0
	c-0.2-0.9-0.8-1.4-1.8-1.4c-0.9,0-1.8,0.7-2.1,1.4h0c0,0,0-0.2,0-0.4v-0.8h-1.1V169.7z"/>
<path fill="#8F278C" d="M200.1,166.7c0,1.8,1.5,3.2,3.3,3.2s3.3-1.3,3.3-3.2c0-1.8-1.5-3.2-3.3-3.2S200.1,164.8,200.1,166.7z
	 M201.3,166.7c0-1.3,0.9-2.2,2.1-2.2c1.2,0,2.1,0.9,2.1,2.2c0,1.3-0.9,2.2-2.1,2.2C202.3,168.9,201.3,167.9,201.3,166.7z"/>
<path fill="#8F278C" d="M207.8,169.7h1.2v-2.8c0-0.3,0-0.6,0.1-0.8c0.3-0.9,1-1.5,1.9-1.5c1,0,1.2,0.7,1.2,1.5v3.6h1.2v-3.9
	c0-1.5-0.7-2.3-2.1-2.3c-1.3,0-2,0.9-2.3,1.4h0c0,0,0-0.2,0-0.4v-0.8h-1.1V169.7z"/>
<path fill="#8F278C" d="M215.1,167.5c0,2,1.5,2.3,2.3,2.3c0.2,0,0.4,0,0.4,0v-1c0,0-0.1,0-0.3,0c-0.4,0-1.3-0.2-1.3-1.4v-2.7h1.5
	v-0.9h-1.5V162h-1.1v1.8h-0.8v0.9h0.8V167.5z"/>
<path fill="#8F278C" d="M218.9,169.7h1.2v-2.8c0-0.3,0-0.6,0.1-0.8c0.3-0.9,1-1.5,1.9-1.5c1,0,1.2,0.7,1.2,1.5v3.6h1.2v-3.9
	c0-1.5-0.7-2.3-2.1-2.3c-1.2,0-2,0.8-2.2,1.4h0c0,0,0-0.2,0-0.5v-3.1h-1.2V169.7z"/>
<g>
	<path fill-rule="evenodd" clip-rule="evenodd" fill="#8F278C" d="M182,158v-1h42v1H182z"/>
	<path fill="#8F278C" d="M224.5,158.5h-43v-2h43V158.5z M182.5,157.5h41H182.5z"/>
</g>
<path fill="#8F278C" d="M78.7,148.1c0,0,2.5,2.8,7.1,3.4v3.2h3.8v-3.2c4.5-0.7,7-3.9,7-7.6c0-7.7-11.4-7.5-11.4-10.5
	c0-1.4,1.4-2,2.7-2c3,0,5.5,2.2,5.5,2.2l2.6-5c0,0-2.1-2.2-6.4-2.7v-3.2h-3.8v3.3c-3.9,0.7-6.7,3.5-6.7,7.5
	c0,7.5,11.4,7.8,11.4,10.6c0,1.5-1.4,2-2.6,2c-3.2,0-6-2.6-6-2.6L78.7,148.1z"/>
<path fill="#8F278C" d="M99.1,162.2h22.2v12.1h12.1v-12.1h6V152h-6v-27.8h-15l-19.3,30.5V162.2z M111.6,152v-0.1l7.6-11.5
	c1.4-2.1,2.5-5.2,2.5-5.2h0.1c0,0-0.4,2.9-0.4,5.6V152H111.6z"/>
<path fill="#8F278C" d="M154.4,175.1c15.5,0,23.9-14.2,23.9-27.8c0-16.3-10.2-23.9-20.3-23.9c-10.9,0-17.1,8.4-17.1,16.9
	c0,8.6,6,17.2,16.4,17.2c2.4,0,5.7-0.8,6.9-1.8h0.1c-1.5,4.6-4.9,8.3-10.8,8.3c-3.6,0-6.9-1.5-6.9-1.5l-3.3,10.5
	C143.4,173,147.4,175.1,154.4,175.1z M160.5,147.6c-5.4,0-7.6-3.8-7.6-7.4c0-2.9,2-5.6,5-5.6c3.5,0,7.7,4,7.7,9.9
	C165.7,146.9,163.3,147.6,160.5,147.6z"/>
<path fill="#8F278C" d="M188.2,151.7c7.8,0,11.9-7.1,11.9-13.9c0-8.2-5.1-12-10.2-12c-5.4,0-8.5,4.2-8.5,8.4c0,4.3,3,8.6,8.2,8.6
	c1.2,0,2.9-0.4,3.4-0.9h0.1c-0.8,2.3-2.5,4.1-5.4,4.1c-1.8,0-3.4-0.7-3.4-0.7l-1.6,5.3C182.7,150.6,184.7,151.7,188.2,151.7z
	 M191.3,137.9c-2.7,0-3.8-1.9-3.8-3.7c0-1.5,1-2.8,2.5-2.8c1.8,0,3.9,2,3.9,5C193.9,137.6,192.7,137.9,191.3,137.9z"/>
<path fill="#8F278C" d="M209.2,151.7c7.8,0,11.9-7.1,11.9-13.9c0-8.2-5.1-12-10.2-12c-5.4,0-8.5,4.2-8.5,8.4c0,4.3,3,8.6,8.2,8.6
	c1.2,0,2.9-0.4,3.4-0.9h0.1c-0.8,2.3-2.5,4.1-5.4,4.1c-1.8,0-3.4-0.7-3.4-0.7l-1.6,5.3C203.7,150.6,205.7,151.7,209.2,151.7z
	 M212.2,137.9c-2.7,0-3.8-1.9-3.8-3.7c0-1.5,1-2.8,2.5-2.8c1.8,0,3.9,2,3.9,5C214.8,137.6,213.6,137.9,212.2,137.9z"/>
<path fill="#ED1A47" d="M16.6,106.1h4.9l2.3-9c0.3-1.2,0.4-2.1,0.4-2.1h0.1c0,0,0.1,1,0.4,2.1l2.3,9h4.9l4.5-17.9h-4.5l-2.5,11.2
	c-0.2,1.1-0.2,1.9-0.2,1.9h-0.1c0,0,0-0.8-0.3-1.9l-2.7-11.2h-3.5l-2.8,11.2c-0.3,1.1-0.3,1.9-0.3,1.9h-0.1c0,0,0-0.8-0.2-1.9
	l-2.3-11.2h-4.6L16.6,106.1z"/>
<path fill="#ED1A47" d="M37.8,106.1h4.3v-5.7c0-0.6,0.1-1.2,0.2-1.7c0.4-1.1,1.3-1.9,2.6-1.9c1,0,1.4,0.5,1.4,1.7v7.6h4.3v-8.4
	c0-3.6-2-4.8-4.6-4.8c-1.7,0-3.2,0.8-3.9,2.1h0c0,0,0-0.5,0-1.1v-5.7h-4.3V106.1z"/>
<path fill="#ED1A47" d="M52.2,99.7c0,4,3.3,6.7,7.3,6.7c4.1,0,7.3-2.7,7.3-6.7c0-4.1-3.3-6.8-7.3-6.8C55.5,92.9,52.2,95.7,52.2,99.7
	z M56.6,99.7c0-2,1.4-3.2,2.9-3.2c1.6,0,2.9,1.2,2.9,3.2c0,1.9-1.4,3.1-2.9,3.1C57.9,102.8,56.6,101.6,56.6,99.7z"/>
<path fill="#ED1A47" d="M76.1,106.1H81l1.5-6c0.2-0.7,0.3-1.4,0.3-1.4h0.1c0,0,0.1,0.7,0.3,1.4l1.5,6h4.8l3.6-12.9h-4.5l-1.6,7.6
	c-0.2,0.7-0.2,1.4-0.2,1.4h0c0,0,0-0.7-0.2-1.4l-1.8-7.6h-3.7l-1.8,7.6c-0.2,0.7-0.2,1.4-0.2,1.4h-0.1c0,0,0-0.7-0.2-1.4l-1.6-7.6
	h-4.6L76.1,106.1z"/>
<path fill="#ED1A47" d="M93.3,102.3c0,2.6,2,4.2,4.4,4.2c2.7,0,3.7-1.9,3.7-1.9h0c0,0,0,0.4,0,0.8v0.8h4v-7.9c0-3.3-2.2-5.3-5.8-5.3
	c-3.2,0-5.4,1.7-5.4,1.7l1.5,3.1c0,0,1.9-1.2,3.5-1.2c1.1,0,1.9,0.4,1.9,1.4v0.2h-0.2C98.8,98.1,93.3,98.5,93.3,102.3z M97.7,102
	c0-1.1,1.6-1.5,3-1.5h0.4v0.3c0,1.1-1,2.3-2.1,2.3C98,103.1,97.7,102.6,97.7,102z"/>
<path fill="#ED1A47" d="M107.8,106.1h4.3v-5.7c0-0.6,0.1-1.2,0.3-1.7c0.4-1.1,1.2-1.9,2.6-1.9c1,0,1.4,0.5,1.4,1.7v7.6h4.3v-8.4
	c0-3.6-2-4.8-4.6-4.8c-2.3,0-3.5,1.2-4.1,2.2h-0.1c0,0,0.1-0.4,0.1-0.8v-1.1h-4.2V106.1z"/>
<path fill="#ED1A47" d="M123.8,101.4c0,4.3,4,4.9,6,4.9c0.7,0,1.2-0.1,1.2-0.1v-3.8c0,0-0.2,0-0.6,0c-0.8,0-2.3-0.2-2.3-1.7v-4h2.7
	v-3.4h-2.7v-3.7H124v3.7h-1.8v3.4h1.7V101.4z"/>
<path fill="#ED1A47" d="M132.1,104.5c0,0,1.9,1.9,5.2,1.9c3.3,0,5.3-1.9,5.3-4.1c0-4.2-6-4.3-6-5.3c0-0.5,0.6-0.6,1.3-0.6
	c1.8,0,3.1,1.1,3.1,1.1l1.5-3.1c0,0-1.5-1.5-4.5-1.5c-3,0-5.3,1.5-5.3,3.9c0,4.2,6,4.3,6,5.5c0,0.4-0.6,0.6-1.3,0.6
	c-1.9,0-3.3-1.3-3.3-1.3L132.1,104.5z"/>
<path fill="#ED1A47" d="M151.2,106.9l-1.2,3.3c1.3,0.7,3.2,1.2,4.9,1.2c3.5,0,7.3-1.7,7.3-6.4V93.2H158v0.7c0,0.2,0,0.3,0,0.3H158
	c0,0-1.2-1.3-3.5-1.3c-3.9,0-5.8,3.1-5.8,6.3c0,3.3,1.9,6.5,5.8,6.5c1.5,0,2.5-0.5,3.2-1.4h0.1c0,0,0,0.3,0,0.5v0.4
	c0,1.9-1.4,2.5-3,2.5C152.8,107.8,151.2,106.9,151.2,106.9z M155.5,102.1c-1.7,0-2.5-1.4-2.5-3c0-1.5,0.8-2.6,2.3-2.6
	c1.3,0,2.5,0.5,2.5,2.8C157.9,101.6,156.7,102.1,155.5,102.1z"/>
<path fill="#ED1A47" d="M164.8,106.1h4.3v-4.9c0-0.7,0.1-1.3,0.2-1.8c0.6-1.9,2.3-2.3,3.3-2.3c0.5,0,0.9,0.1,0.9,0.1v-4.3
	c0,0-0.3,0-0.5,0c-1.9,0-3.6,1.5-4.1,3.2h-0.1c0,0,0.1-0.4,0.1-0.8v-2.2h-4.2V106.1z"/>
<path fill="#ED1A47" d="M174.1,99.7c0,3.4,2.5,6.8,7.1,6.8c3.4,0,5.5-1.9,5.5-1.9l-1.6-3c0,0-1.7,1.3-3.6,1.3c-1.4,0-2.7-0.7-3-2.3
	h8.1c0,0,0.1-0.9,0.1-1.4c0-3.6-2.2-6.2-6-6.2C176.7,92.9,174.1,95.9,174.1,99.7z M178.6,98c0.2-1,0.8-1.9,2.1-1.9
	c1,0,1.7,0.9,1.7,1.9H178.6z"/>
<path fill="#ED1A47" d="M187.6,102.3c0,2.6,2,4.2,4.4,4.2c2.7,0,3.7-1.9,3.7-1.9h0.1c0,0-0.1,0.4-0.1,0.8v0.8h4v-7.9
	c0-3.3-2.2-5.3-5.8-5.3c-3.2,0-5.4,1.7-5.4,1.7l1.5,3.1c0,0,1.9-1.2,3.5-1.2c1.1,0,1.9,0.4,1.9,1.4v0.2h-0.2
	C193.1,98.1,187.6,98.5,187.6,102.3z M192,102c0-1.1,1.6-1.5,3-1.5h0.4v0.3c0,1.1-1,2.3-2.1,2.3C192.4,103.1,192,102.6,192,102z"/>
<path fill="#ED1A47" d="M202.8,101.4c0,4.3,4,4.9,6,4.9c0.7,0,1.2-0.1,1.2-0.1v-3.8c0,0-0.2,0-0.6,0c-0.8,0-2.3-0.2-2.3-1.7v-4h2.7
	v-3.4h-2.7v-3.7h-4.2v3.7h-1.8v3.4h1.7V101.4z"/>
<path fill="#ED1A47" d="M221.1,106.1h4.4V92h5.4v-3.8h-15.2V92h5.4V106.1z"/>
<path fill="#ED1A47" d="M237.7,106.1h4.6l6.3-17.9h-4.7l-3.2,10.2c-0.4,1.1-0.7,2.9-0.7,2.9h0c0,0-0.3-1.8-0.7-2.9l-3.2-10.2h-4.8
	L237.7,106.1z"/>
<path fill="#ED1A47" d="M255.5,106.1h4.3v-9.3h2.4v-3.4h-2.4v-0.4c0-1.1,1.3-1.3,2.2-1.3c0.4,0,0.7,0.1,0.7,0.1v-3.7
	c0,0-0.5-0.1-1.3-0.1c-2.1,0-5.9,0.6-5.9,4.8v0.5h-1.6v3.4h1.6V106.1z"/>
<path fill="#ED1A47" d="M262.8,99.7c0,4,3.3,6.7,7.3,6.7c4.1,0,7.3-2.7,7.3-6.7c0-4.1-3.3-6.8-7.3-6.8
	C266.1,92.9,262.8,95.7,262.8,99.7z M267.2,99.7c0-2,1.4-3.2,2.9-3.2c1.6,0,2.9,1.2,2.9,3.2c0,1.9-1.4,3.1-2.9,3.1
	C268.6,102.8,267.2,101.6,267.2,99.7z"/>
<path fill="#ED1A47" d="M279.2,106.1h4.3v-4.9c0-0.7,0.1-1.3,0.2-1.8c0.6-1.9,2.3-2.3,3.3-2.3c0.5,0,0.9,0.1,0.9,0.1v-4.3
	c0,0-0.3,0-0.5,0c-1.9,0-3.6,1.5-4.1,3.2h-0.1c0,0,0.1-0.4,0.1-0.8v-2.2h-4.2V106.1z"/>
</svg>
