<?xml version="1.0" encoding="utf-8"?>
<!-- Generator: Adobe Illustrator 18.1.1, SVG Export Plug-In . SVG Version: 6.00 Build 0)  -->
<svg version="1.1" id="Layer_1" xmlns="http://www.w3.org/2000/svg" xmlns:xlink="http://www.w3.org/1999/xlink" x="0px" y="0px"
	 width="14px" height="14px" viewBox="0 0 14 14" style="enable-background:new 0 0 14 14;" xml:space="preserve">
<path style="fill:#FFFFFF;" d="M14,5.2H8.8l2-2c-1-1-2.3-1.5-3.7-1.5S4.3,2.3,3.3,3.3S1.8,5.6,1.8,7s0.5,2.7,1.5,3.7
	s2.3,1.5,3.7,1.5s2.7-0.5,3.7-1.5c0.1-0.1,0.2-0.2,0.2-0.3l1.3,1.2C11,13.1,9.1,14,7,14c-3.9,0-7-3.1-7-7s3.1-7,7-7
	c1.9,0,3.7,0.8,4.9,2.1L14,0V5.2z"/>
</svg>
