<?xml version="1.0" encoding="utf-8"?>
<!-- Generator: Adobe Illustrator 18.1.1, SVG Export Plug-In . SVG Version: 6.00 Build 0)  -->
<svg version="1.1" id="Layer_1" xmlns="http://www.w3.org/2000/svg" xmlns:xlink="http://www.w3.org/1999/xlink" x="0px" y="0px"
	 width="300px" height="600px" viewBox="0 0 300 600" enable-background="new 0 0 300 600" xml:space="preserve">
<path fill="#1F2D60" d="M124.4,111.3L124.4,111.3c0-3.7-2.4-5.3-6.7-6.4c-3.6-0.9-4.5-1.4-4.5-2.8v-0.1c0-1,0.9-1.8,2.7-1.8
	c1.8,0,3.6,0.8,5.5,2.1l2.4-3.5c-2.1-1.7-4.7-2.7-7.8-2.7c-4.3,0-7.4,2.5-7.4,6.3v0.1c0,4.2,2.7,5.3,7,6.4c3.5,0.9,4.2,1.5,4.2,2.7
	v0.1c0,1.2-1.1,2-3,2c-2.4,0-4.4-1-6.3-2.6l-2.7,3.3c2.5,2.3,5.7,3.4,8.9,3.4C121.2,117.8,124.4,115.5,124.4,111.3z"/>
<path fill="#1F2D60" d="M150.7,101.4h-4.5l-2.6,9.8l-3.1-9.8h-3.9l-3,9.8l-2.6-9.8h-4.6l5,16.2h4.1l3.1-9.9l3.1,9.9h4.1L150.7,101.4
	z"/>
<path fill="#1F2D60" d="M158.3,99.7v-4.1h-4.8v4.1H158.3z M158.2,117.5v-16.1h-4.6v16.1H158.2z"/>
<path fill="#1F2D60" d="M171.5,116.8v-3.7c-0.7,0.4-1.4,0.6-2.3,0.6c-1,0-1.5-0.5-1.5-1.6v-6.9h3.8v-3.9h-3.8v-4.1h-4.6v4.1h-1.9
	v3.9h1.9v7.6c0,3.7,1.9,4.8,4.7,4.8C169.5,117.8,170.6,117.4,171.5,116.8z"/>
<path fill="#1F2D60" d="M188.7,114.9l-2.7-2.7c-1.1,1-2.2,1.7-3.7,1.7c-2.5,0-4.1-2-4.1-4.4v-0.1c0-2.4,1.6-4.4,3.9-4.4
	c1.6,0,2.6,0.7,3.7,1.8l2.8-3c-1.5-1.7-3.4-2.7-6.4-2.7c-4.9,0-8.4,3.8-8.4,8.4v0.1c0,4.6,3.5,8.3,8.4,8.3
	C185.3,117.9,187.1,116.6,188.7,114.9z"/>
<path fill="#1F2D60" d="M206.4,117.5v-10.4c0-3.7-2-6-5.5-6c-2.3,0-3.7,1.2-4.7,2.6v-8.1h-4.6v21.9h4.6v-9c0-2.2,1.1-3.3,2.9-3.3
	c1.7,0,2.8,1.1,2.8,3.3v9H206.4z"/>
<path fill="#1F2D60" d="M233.2,117.5v-9.3c0-4.4-2.2-6.9-7.2-6.9c-2.7,0-4.5,0.5-6.2,1.3l1.1,3.5c1.5-0.5,2.7-0.9,4.4-0.9
	c2.3,0,3.4,1,3.4,2.9v0.3c-1.1-0.4-2.3-0.7-3.9-0.7c-3.8,0-6.5,1.6-6.5,5.1v0.1c0,3.2,2.5,4.9,5.5,4.9c2.2,0,3.8-0.8,4.9-2v1.7
	H233.2z M228.9,111.8c0,1.7-1.4,2.8-3.6,2.8c-1.5,0-2.5-0.7-2.5-2v-0.1c0-1.4,1.2-2.2,3.2-2.2c1.1,0,2.1,0.2,2.9,0.6V111.8z"/>
<path fill="#1F2D60" d="M251.8,117.5v-10.4c0-3.7-2-6-5.5-6c-2.3,0-3.7,1.2-4.7,2.6v-2.3h-4.6v16.1h4.6v-9c0-2.2,1.1-3.3,2.9-3.3
	c1.7,0,2.8,1.1,2.8,3.3v9H251.8z"/>
<path fill="#1F2D60" d="M272,117.5V95.6h-4.6v7.9c-1.1-1.3-2.6-2.4-5-2.4c-3.8,0-7.3,2.9-7.3,8.3v0.1c0,5.4,3.6,8.3,7.3,8.3
	c2.4,0,3.9-1.1,5-2.6v2.3H272z M267.5,109.5c0,2.7-1.8,4.4-3.9,4.4c-2.1,0-3.9-1.8-3.9-4.4v-0.1c0-2.7,1.8-4.4,3.9-4.4
	C265.7,105,267.5,106.8,267.5,109.5L267.5,109.5z"/>
<path fill="#1F2D60" d="M142,137.4h-4.7l-3.5,11l-3.7-11h-4.8l6.3,16.1c-0.4,0.8-0.8,1-1.6,1c-0.6,0-1.4-0.3-1.9-0.6l-1.5,3.3
	c1.2,0.7,2.4,1.1,4,1.1c2.7,0,4.1-1.2,5.3-4.5L142,137.4z"/>
<path fill="#1F2D60" d="M160.5,145.5L160.5,145.5c0-4.7-3.7-8.4-8.7-8.4c-5,0-8.7,3.8-8.7,8.4v0.1c0,4.6,3.7,8.3,8.7,8.3
	C156.7,153.9,160.5,150.1,160.5,145.5z M156,145.6c0,2.4-1.6,4.4-4.2,4.4c-2.5,0-4.2-2.1-4.2-4.4v-0.1c0-2.4,1.6-4.4,4.2-4.4
	C154.2,141.1,156,143.1,156,145.6L156,145.6z"/>
<path fill="#1F2D60" d="M178.4,153.5v-16.1h-4.6v9c0,2.2-1.1,3.3-2.9,3.3c-1.7,0-2.8-1.1-2.8-3.3v-9h-4.6v10.4c0,3.7,2,6,5.5,6
	c2.3,0,3.7-1.2,4.7-2.6v2.3H178.4z"/>
<path fill="#1F2D60" d="M205.6,150.9l-2.7-2.7c-1.1,1.1-2.2,1.7-3.7,1.7c-2.5,0-4.1-2-4.1-4.4v-0.1c0-2.4,1.6-4.4,3.9-4.4
	c1.6,0,2.6,0.7,3.7,1.8l2.8-3c-1.5-1.7-3.4-2.7-6.4-2.7c-4.9,0-8.4,3.8-8.4,8.4v0.1c0,4.6,3.5,8.3,8.4,8.3
	C202.2,153.9,204,152.6,205.6,150.9z"/>
<path fill="#1F2D60" d="M224.7,145.5L224.7,145.5c0-4.7-3.7-8.4-8.7-8.4c-5,0-8.7,3.8-8.7,8.4v0.1c0,4.6,3.7,8.3,8.7,8.3
	C221,153.9,224.7,150.1,224.7,145.5z M220.2,145.6c0,2.4-1.6,4.4-4.2,4.4c-2.5,0-4.2-2.1-4.2-4.4v-0.1c0-2.4,1.6-4.4,4.2-4.4
	C218.5,141.1,220.2,143.1,220.2,145.6L220.2,145.6z"/>
<path fill="#1F2D60" d="M242.7,153.5v-16.1h-4.6v9c0,2.2-1.1,3.3-2.9,3.3s-2.8-1.1-2.8-3.3v-9h-4.6v10.4c0,3.7,2,6,5.5,6
	c2.3,0,3.7-1.2,4.7-2.6v2.3H242.7z"/>
<path fill="#1F2D60" d="M251.5,153.5v-21.9h-4.6v21.9H251.5z"/>
<path fill="#1F2D60" d="M272,153.5v-21.9h-4.6v7.9c-1.1-1.3-2.6-2.4-5-2.4c-3.8,0-7.3,2.9-7.3,8.3v0.1c0,5.4,3.6,8.3,7.3,8.3
	c2.4,0,3.9-1.1,5-2.6v2.3H272z M267.5,145.5c0,2.7-1.8,4.4-3.9,4.4c-2.1,0-3.9-1.8-3.9-4.4v-0.1c0-2.7,1.8-4.4,3.9-4.4
	C265.7,141,267.5,142.8,267.5,145.5L267.5,145.5z"/>
<path fill="#1F2D60" d="M131.3,184.6L131.3,184.6c0-3-2.6-4.1-4.9-4.8c-1.7-0.6-3.3-1-3.3-1.9v-0.1c0-0.6,0.6-1.1,1.7-1.1
	c1.2,0,2.8,0.6,4.4,1.5l1.7-3.2c-1.7-1.2-4-1.9-6-1.9c-3.2,0-5.9,1.8-5.9,5.1v0.1c0,3.1,2.5,4.2,4.8,4.8c1.8,0.5,3.3,0.9,3.3,1.9
	v0.1c0,0.7-0.6,1.2-1.9,1.2c-1.5,0-3.3-0.7-5.1-1.9l-2,3c2.1,1.7,4.7,2.4,6.9,2.4C128.6,189.8,131.3,188.2,131.3,184.6z"/>
<path fill="#1F2D60" d="M148.4,189.5v-9.3c0-4.4-2.2-6.9-7.2-6.9c-2.7,0-4.5,0.5-6.2,1.3l1.1,3.5c1.5-0.5,2.7-0.9,4.4-0.9
	c2.3,0,3.5,1.1,3.5,2.9v0.3c-1.1-0.4-2.3-0.7-3.9-0.7c-3.8,0-6.5,1.6-6.5,5.1v0.1c0,3.2,2.5,4.9,5.5,4.9c2.2,0,3.8-0.8,4.9-2v1.7
	H148.4z M144,183.8c0,1.6-1.4,2.8-3.6,2.8c-1.5,0-2.5-0.7-2.5-1.9v-0.1c0-1.4,1.2-2.2,3.2-2.2c1.1,0,2.1,0.2,2.9,0.6V183.8z"/>
<path fill="#1F2D60" d="M167.1,173.4h-4.7l-3.6,10.8l-3.6-10.8h-4.8l6.3,16.2h4.1L167.1,173.4z"/>
<path fill="#1F2D60" d="M183.8,181.9L183.8,181.9c0-4.6-2.5-8.8-7.8-8.8c-4.7,0-8,3.8-8,8.4v0.1c0,4.9,3.6,8.3,8.4,8.3
	c2.9,0,5.1-1.1,6.6-3l-2.6-2.3c-1.3,1.2-2.4,1.6-3.9,1.6c-2,0-3.5-1.1-3.9-3.1h11.2C183.8,182.6,183.8,182.4,183.8,181.9z
	 M179.3,180.2h-6.9c0.4-2.1,1.6-3.4,3.5-3.4C177.9,176.8,179.1,178.2,179.3,180.2z"/>
<path fill="#1F2D60" d="M210.8,189.5v-16.1h-4.6v9c0,2.2-1.1,3.3-2.9,3.3c-1.7,0-2.8-1.1-2.8-3.3v-9h-4.6v10.4c0,3.7,2,6,5.5,6
	c2.3,0,3.7-1.2,4.7-2.6v2.3H210.8z"/>
<path fill="#1F2D60" d="M231.8,181.5L231.8,181.5c0-5.4-3.6-8.4-7.3-8.4c-2.4,0-3.9,1.1-5,2.6v-2.3h-4.6v20.9h4.6v-6.9
	c1.1,1.3,2.6,2.4,5,2.4C228.2,189.8,231.8,186.9,231.8,181.5z M227.2,181.5c0,2.7-1.8,4.4-3.9,4.4c-2.1,0-3.9-1.8-3.9-4.4v-0.1
	c0-2.7,1.8-4.4,3.9-4.4C225.4,177,227.2,178.8,227.2,181.5L227.2,181.5z"/>
<path fill="#1F2D60" d="M253.1,188.8v-3.7c-0.7,0.4-1.4,0.6-2.2,0.6c-1,0-1.5-0.5-1.5-1.6v-6.9h3.8v-3.9h-3.8v-4.1h-4.6v4.1h-1.9
	v3.9h1.9v7.6c0,3.7,1.9,4.8,4.7,4.8C251.1,189.8,252.2,189.4,253.1,188.8z"/>
<path fill="#1F2D60" d="M272.7,181.5L272.7,181.5c0-4.7-3.7-8.4-8.7-8.4c-5,0-8.7,3.8-8.7,8.4v0.1c0,4.6,3.7,8.3,8.7,8.3
	C269,189.9,272.7,186.1,272.7,181.5z M268.2,181.6c0,2.4-1.6,4.4-4.2,4.4c-2.5,0-4.2-2.1-4.2-4.4v-0.1c0-2.4,1.6-4.4,4.2-4.4
	C266.5,177.1,268.2,179.1,268.2,181.6L268.2,181.6z"/>
<path fill="#1F2D60" d="M155.4,210.9c-2.3-1.5-5-2.5-8.2-2.8V206h-3.6v2c-6.3,0.3-9.4,3.5-9.4,7.8v0.1c0,4.6,3.3,6.5,9.4,7.7v2.9
	c-2.3-0.3-4.7-1.3-7.3-2.9l-3.6,5.3c3,2.1,6.7,3.3,10.6,3.6v3.4h3.6v-3.4c5.5-0.4,9.1-3.1,9.1-7.7v-0.1c0-4.8-3.3-6.6-9.2-7.7v-2.9
	c1.7,0.3,3.6,1,5.1,2.1L155.4,210.9z M141.3,215.2L141.3,215.2c0-0.8,0.6-1.3,2.3-1.4v2.8C141.9,216.3,141.3,215.9,141.3,215.2z
	 M149.1,225.4L149.1,225.4c0,0.8-0.6,1.3-2.2,1.4v-2.8C148.7,224.2,149.1,224.6,149.1,225.4z"/>
<path fill="#1F2D60" d="M173.7,253.4c10.7,0,18.7-5.5,18.7-15.2V238c0-8.8-7.1-13.3-14-13.3c-3.3,0-5.8,0.9-8,2.3l0.3-5.5h19.9
	v-11.1h-30.3l-1.2,21.8l8.5,4.2c2-1.6,3.8-2.6,6.4-2.6c2.9,0,4.9,1.6,4.9,4v0.1c0,2.3-1.9,4-5.3,4c-3.4,0-6.8-1.7-10.4-4.6l-7.7,9
	C160.1,250.7,165.6,253.4,173.7,253.4z"/>
<path fill="#1F2D60" d="M213.8,253.4c12.7,0,20.3-10.3,20.3-21.9v-0.1c0-11.6-7.4-21.8-20.2-21.8c-12.7,0-20.3,10.3-20.3,21.9v0.1
	C193.7,243.2,201.1,253.4,213.8,253.4z M213.9,241.2c-3.8,0-6.4-4-6.4-9.7v-0.1c0-5.8,2.5-9.6,6.2-9.6c3.8,0,6.4,4,6.4,9.7v0.1
	C220.2,237.4,217.7,241.2,213.9,241.2z"/>
<path fill="#1F2D60" d="M251.2,242.6c-3.1,0-6.1-1.1-8.8-3.2l-6.1,9.1c4.2,3.1,9.1,4.9,15.5,4.9c13.1,0,20.5-9.4,20.5-23.2v-0.1
	c0-7.2-2-12.2-5.1-15.3c-3.2-3.2-7.1-5.2-13.7-5.2c-9.7,0-17.5,5.8-17.5,15.8v0.1c0,7.9,6.1,13,13.2,13c3,0,6.3-1,9.3-3.9
	C258.3,237.8,257,242.6,251.2,242.6z M254.1,229.5c-2.8,0-4.7-2-4.7-4.7v-0.1c0-2.8,1.8-5,4.6-5c2.8,0,4.7,2.3,4.7,5v0.1
	C258.7,227.4,256.9,229.5,254.1,229.5z"/>
<path fill="#1F2D60" d="M135.2,276.7L135.2,276.7c0-2.8-2.2-5-5.2-5c-3,0-5.2,2.2-5.2,5v0c0,2.8,2.2,5,5.2,5
	C133,281.7,135.2,279.5,135.2,276.7z M132.5,276.7c0,1.4-0.9,2.6-2.5,2.6c-1.5,0-2.5-1.2-2.5-2.7v0c0-1.4,0.9-2.6,2.5-2.6
	C131.5,274,132.5,275.3,132.5,276.7L132.5,276.7z"/>
<path fill="#1F2D60" d="M145.8,281.5v-6.2c0-2.2-1.2-3.6-3.3-3.6c-1.4,0-2.2,0.7-2.8,1.5v-1.4h-2.7v9.6h2.7v-5.4c0-1.3,0.7-2,1.7-2
	c1,0,1.7,0.7,1.7,2v5.4H145.8z"/>
<path fill="#1F2D60" d="M161.5,280l-1.6-1.6c-0.7,0.6-1.3,1-2.2,1c-1.5,0-2.4-1.2-2.4-2.7v0c0-1.4,1-2.6,2.3-2.6
	c1,0,1.6,0.4,2.2,1.1l1.7-1.8c-0.9-1-2-1.6-3.9-1.6c-3,0-5.1,2.3-5.1,5v0c0,2.8,2.1,5,5,5C159.5,281.7,160.6,281,161.5,280z"/>
<path fill="#1F2D60" d="M171.3,281.5v-5.6c0-2.6-1.3-4.2-4.3-4.2c-1.6,0-2.7,0.3-3.7,0.8l0.7,2.1c0.9-0.3,1.6-0.5,2.7-0.5
	c1.4,0,2.1,0.6,2.1,1.8v0.2c-0.7-0.2-1.4-0.4-2.4-0.4c-2.3,0-3.9,1-3.9,3.1v0c0,1.9,1.5,3,3.3,3c1.3,0,2.2-0.5,2.9-1.2v1H171.3z
	 M168.7,278.1c0,1-0.9,1.7-2.1,1.7c-0.9,0-1.5-0.4-1.5-1.2v0c0-0.9,0.7-1.3,1.9-1.3c0.7,0,1.3,0.1,1.7,0.4V278.1z"/>
<path fill="#1F2D60" d="M179.2,274.5v-2.9c-1.6-0.1-2.5,0.8-3.1,2.1v-1.9h-2.7v9.6h2.7v-3.6c0-2.3,1.1-3.4,2.9-3.4H179.2z"/>
<path fill="#1F2D60" d="M188.7,270.8v-2.4h-2.9v2.4H188.7z M188.7,281.5v-9.6h-2.7v9.6H188.7z"/>
<path fill="#1F2D60" d="M199.8,281.5v-6.2c0-2.2-1.2-3.6-3.3-3.6c-1.4,0-2.2,0.7-2.8,1.5v-1.4H191v9.6h2.7v-5.4c0-1.3,0.7-2,1.7-2
	c1,0,1.7,0.7,1.7,2v5.4H199.8z"/>
<path fill="#1F2D60" d="M209,278.6L209,278.6c0-1.8-1.6-2.4-2.9-2.9c-1-0.4-2-0.6-2-1.2v0c0-0.4,0.3-0.7,1-0.7
	c0.7,0,1.7,0.3,2.6,0.9l1-1.9c-1-0.7-2.4-1.1-3.6-1.1c-1.9,0-3.5,1.1-3.5,3.1v0c0,1.9,1.5,2.5,2.9,2.9c1.1,0.3,2,0.5,2,1.1v0
	c0,0.4-0.4,0.7-1.2,0.7c-0.9,0-2-0.4-3-1.2l-1.2,1.8c1.3,1,2.8,1.5,4.1,1.5C207.4,281.7,209,280.7,209,278.6z"/>
<path fill="#1F2D60" d="M219.4,281.5v-9.6h-2.7v5.4c0,1.3-0.7,2-1.7,2c-1,0-1.7-0.7-1.7-2v-5.4h-2.7v6.2c0,2.2,1.2,3.6,3.3,3.6
	c1.4,0,2.2-0.7,2.8-1.5v1.4H219.4z"/>
<path fill="#1F2D60" d="M227.4,274.5v-2.9c-1.6-0.1-2.5,0.8-3.1,2.1v-1.9h-2.7v9.6h2.7v-3.6c0-2.3,1.1-3.4,2.9-3.4H227.4z"/>
<path fill="#1F2D60" d="M236.7,281.5v-5.6c0-2.6-1.3-4.2-4.3-4.2c-1.6,0-2.7,0.3-3.7,0.8l0.7,2.1c0.9-0.3,1.6-0.5,2.7-0.5
	c1.4,0,2.1,0.6,2.1,1.8v0.2c-0.7-0.2-1.4-0.4-2.4-0.4c-2.3,0-3.9,1-3.9,3.1v0c0,1.9,1.5,3,3.3,3c1.3,0,2.3-0.5,2.9-1.2v1H236.7z
	 M234.1,278.1c0,1-0.9,1.7-2.1,1.7c-0.9,0-1.5-0.4-1.5-1.2v0c0-0.9,0.7-1.3,1.9-1.3c0.7,0,1.3,0.1,1.7,0.4V278.1z"/>
<path fill="#1F2D60" d="M247.6,281.5v-6.2c0-2.2-1.2-3.6-3.3-3.6c-1.4,0-2.2,0.7-2.8,1.5v-1.4h-2.7v9.6h2.7v-5.4c0-1.3,0.7-2,1.7-2
	c1,0,1.7,0.7,1.7,2v5.4H247.6z"/>
<path fill="#1F2D60" d="M258.3,280l-1.6-1.6c-0.7,0.6-1.3,1-2.2,1c-1.5,0-2.4-1.2-2.4-2.7v0c0-1.4,1-2.6,2.3-2.6
	c1,0,1.6,0.4,2.2,1.1l1.7-1.8c-0.9-1-2-1.6-3.9-1.6c-3,0-5.1,2.3-5.1,5v0c0,2.8,2.1,5,5,5C256.2,281.7,257.3,281,258.3,280z"/>
<path fill="#1F2D60" d="M268.5,276.9L268.5,276.9c0-2.8-1.5-5.3-4.7-5.3c-2.8,0-4.8,2.3-4.8,5v0c0,3,2.1,5,5,5c1.7,0,3-0.7,3.9-1.8
	l-1.6-1.4c-0.8,0.7-1.4,1-2.3,1c-1.2,0-2.1-0.6-2.4-1.9h6.7C268.5,277.4,268.5,277.2,268.5,276.9z M265.8,275.9h-4.1
	c0.2-1.2,1-2.1,2.1-2.1C264.9,273.9,265.7,274.7,265.8,275.9z"/>
<path fill="#1F2D60" d="M272.9,281.5v-2.9H270v2.9H272.9z"/>
</svg>
