<?xml version="1.0" encoding="utf-8"?>
<!-- Generator: Adobe Illustrator 18.1.1, SVG Export Plug-In . SVG Version: 6.00 Build 0)  -->
<svg version="1.1" id="Layer_1" xmlns="http://www.w3.org/2000/svg" xmlns:xlink="http://www.w3.org/1999/xlink" x="0px" y="0px"
	 width="100px" height="24px" viewBox="0 0 100 24" enable-background="new 0 0 100 24" xml:space="preserve">
<path fill-rule="evenodd" clip-rule="evenodd" fill="#FFFFFF" d="M0,0h100v24H0V0z"/>
<path fill="#2B317E" d="M17.5,15.8v-3.8h-3.9v1.7h2v1.3c-0.5,0.4-1.1,0.5-1.9,0.5c-1.6,0-2.7-1.2-2.7-2.8v0c0-1.5,1.1-2.8,2.6-2.8
	c1,0,1.7,0.3,2.4,0.9l1.3-1.5C16.2,8.5,15.2,8,13.6,8c-2.7,0-4.7,2.1-4.7,4.6v0c0,2.6,1.9,4.5,4.7,4.5
	C15.2,17.2,16.5,16.5,17.5,15.8z"/>
<path fill="#2B317E" d="M26.2,17v-1.7h-4.9v-1.9h4.3v-1.7h-4.3V9.9h4.8V8.2h-6.8V17H26.2z"/>
<path fill="#2B317E" d="M34.8,10V8.2h-7.5V10h2.7v7h2v-7H34.8z"/>
<path fill="#2B317E" d="M48,17l-2.2-3.2c1.1-0.4,1.9-1.3,1.9-2.7v0c0-1.8-1.3-2.9-3.4-2.9h-4.1V17h2v-2.8h1.6l1.9,2.8H48z
	 M45.7,11.2c0,0.7-0.6,1.3-1.5,1.3h-2V9.9h2C45.1,9.9,45.7,10.4,45.7,11.2L45.7,11.2z"/>
<path fill="#2B317E" d="M56.4,17v-1.7h-4.9v-1.9h4.3v-1.7h-4.3V9.9h4.8V8.2h-6.8V17H56.4z"/>
<path fill="#2B317E" d="M66.1,15.6l-1.3-1.3c-0.7,0.6-1.3,1-2.4,1c-1.5,0-2.6-1.3-2.6-2.8v0c0-1.5,1.1-2.8,2.6-2.8
	c0.9,0,1.6,0.4,2.3,1L66,9.4C65.2,8.6,64.2,8,62.5,8c-2.8,0-4.7,2.1-4.7,4.6v0c0,2.5,2,4.5,4.6,4.5C64.1,17.2,65.2,16.6,66.1,15.6z"
	/>
<path fill="#2B317E" d="M69.8,17V8.2h-2V17H69.8z"/>
<path fill="#2B317E" d="M79.2,11.3L79.2,11.3c0-1.8-1.3-3.1-3.5-3.1H72V17h2v-2.7h1.5C77.5,14.4,79.2,13.3,79.2,11.3z M77.1,11.3
	c0,0.8-0.6,1.3-1.6,1.3H74V9.9h1.5C76.5,9.9,77.1,10.4,77.1,11.3L77.1,11.3z"/>
<path fill="#2B317E" d="M87.5,17v-1.7h-4.9v-1.9h4.3v-1.7h-4.3V9.9h4.8V8.2h-6.8V17H87.5z"/>
</svg>
