<?xml version="1.0" encoding="utf-8"?>
<!-- Generator: Adobe Illustrator 18.1.1, SVG Export Plug-In . SVG Version: 6.00 Build 0)  -->
<svg version="1.1" id="Layer_1" xmlns="http://www.w3.org/2000/svg" xmlns:xlink="http://www.w3.org/1999/xlink" x="0px" y="0px"
	 viewBox="-93 112.5 113 27.5" enable-background="new -93 112.5 113 27.5" xml:space="preserve">
<g>
	<path fill="#FFFFFF" d="M13.5,112.5h-3c4.6,9.3-3.4,21-16.4,27.5h1.8C9.2,133.5,18.1,121.8,13.5,112.5z"/>
	<path fill="#FFFFFF" d="M8.6,112.6l-4.5-0.1c7.2,8.7-2.6,20.9-13.4,26.5c-0.7,0.4-1.4,0.7-2.1,1h3.6
		C5.8,133.4,14.1,121.9,8.6,112.6z"/>
	<path fill="#FFFFFF" d="M17.3,112.5h-2.4c4.1,9-4.1,20.9-17.2,27.5h1.6C12,133.4,20.7,122.6,17.3,112.5z"/>
	<path fill="#FFFFFF" d="M-71.6,133.5c-1.1,0-1.7-0.5-1.9-1.4c0-0.1,0-0.3,0-0.5c0-0.4,0.1-0.8,0.2-1v-0.1h6.3c0.2-0.7,0.6-2,0.6-3
		l0,0c0-1-0.2-1.8-0.7-2.2c-0.5-0.5-1.4-0.8-2.7-0.8c-1.6,0-3.2,0.7-4.5,2.1c-1.4,1.5-2.2,3.5-2.2,5.3c0.1,2.1,1.5,3.5,3.6,3.6
		c1.5,0.1,2.8-0.3,3.5-0.7c0-0.1,0.7-1.6,1-2.2C-69.2,133.1-70.4,133.5-71.6,133.5z M-72.6,128.7c0.3-0.7,1.2-2.3,2.6-2.3
		c0.3,0,0.6,0.1,0.8,0.3c0.2,0.2,0.3,0.5,0.3,0.9c0,0.5-0.2,1-0.3,1.3v0.1h-3.5L-72.6,128.7z"/>
	<path fill="#FFFFFF" d="M-9.7,131.8c0.1-0.9-0.3-1.6-0.7-2.3c-0.3-0.5-0.5-1-0.5-1.6c0-0.4,0.3-1.2,1.4-1.2c0.8,0,1.4,0.3,1.7,0.5
		c0.1-0.3,0.9-2,1-2.3c-0.8-0.3-1.9-0.5-2.9-0.5c-1.4,0-2.6,0.4-3.4,1.2c-0.6,0.6-1,1.4-1,2.3c0,0.8,0.4,1.4,0.7,2
		c0.3,0.5,0.6,1.1,0.6,1.7c0,0.4-0.1,0.7-0.4,0.9c-0.3,0.3-0.7,0.4-1.1,0.4c-0.8,0-1.5-0.3-2-0.8c-0.1,0.3-1,2.3-1.1,2.5
		c0.7,0.5,1.6,0.8,2.9,0.9C-10.9,135.7-9.8,133.2-9.7,131.8z"/>
	<path fill="#FFFFFF" d="M-80.1,128.3h0.2c3.4-0.6,5.7-2.9,5.7-5.8c0-2.1-1.7-3.2-4.9-3.2h-7.2c0.2,0.2,0.3,0.6,0.3,1
		c0,0.3-0.1,0.6-0.2,1l-5.7,12.6c-0.3,0.6-0.7,1-1.1,1.4h4c0.4,0,0.6-0.2,0.9-0.6l3.8-8.3l1.9,8.2c0.1,0.5,0.2,0.7,0.7,0.7h4.1
		c-0.3-0.3-0.6-0.8-0.8-1.4L-80.1,128.3z M-83,126.1h-1c-0.1,0-0.2,0-0.2-0.1v-0.1l2-4.3h2c0.7,0,1.3,0.2,1.6,0.5
		c0.2,0.2,0.3,0.5,0.3,0.9C-78.4,124.5-79.8,126.1-83,126.1z"/>
	<path fill="#FFFFFF" d="M-54.4,125.1L-54.4,125.1c0-0.2-0.2-0.2-0.3-0.2h-3.7c0.1,0.2,0.1,0.3,0.1,0.5c0,0.4-0.2,0.8-0.6,1.4
		l-3.3,4.7l0.6-6c0-0.2,0-0.4-0.1-0.4c-0.1-0.1-0.2-0.1-0.3-0.1h-3.3c0.2,0.3,0.4,0.7,0.4,1.3v0.1c0,1-0.3,8.4-0.3,8.7l0,0l-3.5,4.4
		c-0.2,0.3-0.4,0.4-0.6,0.6h3.1c0.6,0,0.7-0.1,1.1-0.5l10.5-13.9C-54.5,125.4-54.4,125.3-54.4,125.1z"/>
	<path fill="#FFFFFF" d="M-43.9,126.4c0-0.4-0.1-0.8-0.4-1.1c-0.3-0.4-0.8-0.6-1.4-0.7c-1.9-0.2-3.2,0.7-4.2,1.5l-0.2-0.2l0.2-0.5
		c0.1-0.2,0.1-0.4,0.1-0.4c0-0.1-0.2-0.1-0.2-0.1h-3.1c0.1,0.1,0.2,0.3,0.2,0.4c0,0.2,0,0.4-0.1,0.6l-3.8,8.3
		c-0.2,0.4-0.5,0.7-0.8,1h3c0.3,0,0.5-0.1,0.7-0.5l2.6-5.8c0.4-0.8,1.3-1.9,2.7-1.9c0.5,0,0.8,0.1,1,0.4c0.3,0.4,0.1,1,0,1.2
		l-2.8,6.2c-0.1,0.2-0.1,0.3,0,0.4c0.1,0.1,0.2,0.1,0.3,0.1h3.4c-0.1-0.2-0.2-0.4-0.2-0.7s0.1-0.6,0.2-1l2.4-5.3
		c0.2-0.4,0.4-0.9,0.5-1.7C-43.9,126.5-43.9,126.4-43.9,126.4z"/>
	<path fill="#FFFFFF" d="M-16.6,128.9l3.5-7.6c0.1-0.3,0.1-0.4,0.1-0.5v-0.1c0-0.1-0.2-0.1-0.2-0.1h-3.5c0.1,0.2,0.2,0.5,0.2,0.8
		c0,0.3-0.1,0.6-0.2,0.9l-1.6,3.6l-0.1-0.3c-0.1-0.3-0.9-0.9-2.2-0.9c-1.5,0-3,0.7-4.3,2.1c-1.6,1.7-2.5,4-2.4,5.8
		c0.2,2.4,1.8,2.7,2.5,2.8c1.5,0.1,2.4-0.8,3-1.5l0.3,0.2l-0.3,0.4c-0.1,0.3-0.1,0.5,0,0.6c0,0.1,0.1,0.1,0.2,0.1h2.5
		c-0.1-0.1-0.1-0.3-0.1-0.4c0-0.2,0-0.4,0.1-0.6L-16.6,128.9z M-19.8,129.1l-1.1,2.5c-0.4,0.8-1.1,1.7-2.1,1.7
		c-0.3,0-0.7-0.1-0.9-0.4c-0.2-0.2-0.3-0.6-0.3-1c0.1-2,1.9-5.2,3.8-5.2c0.8,0,1,0.4,1.1,0.8C-19.3,127.9-19.4,128.3-19.8,129.1z"/>
	<path fill="#FFFFFF" d="M-33.9,125.4c-0.7-0.7-1.9-1-3.3-0.9c-4.8,0.4-7,5.4-6.8,7.9c0.2,2.1,1.7,3.3,4.1,3.2
		c4.9-0.2,6.8-5.4,6.9-7.7C-33,126.9-33.3,126-33.9,125.4z M-38.1,132.5c-0.6,0.6-1.2,0.9-1.7,0.9c-0.7,0-1.2-0.4-1.2-1.2
		c-0.1-1.2,0.6-3,1.6-4.1c0.4-0.5,1.1-1.1,1.9-1.2c0.4,0,0.7,0.1,0.9,0.3c0.2,0.2,0.3,0.5,0.4,0.9
		C-36.1,129.4-36.9,131.3-38.1,132.5z"/>
	<path fill="#FFFFFF" d="M-24.5,120.8C-24.5,120.8-24.5,120.7-24.5,120.8c-0.1-0.1-0.2-0.2-0.2-0.2h-3.5c0.1,0.3,0.2,0.6,0.2,0.8
		c0,0.3-0.1,0.6-0.2,0.9l-5.4,11.9c-0.2,0.4-0.5,0.7-0.8,1h3c0.3,0,0.5-0.1,0.7-0.5l6.1-13.4C-24.5,121-24.5,120.9-24.5,120.8z"/>
	<path fill="#FFFFFF" d="M-4.2,127.3c0.8,0,1.7-0.7,1.9-1.5c0.2-0.9-0.3-1.5-1.1-1.5c-0.8,0-1.7,0.7-1.9,1.5
		C-5.5,126.6-5,127.3-4.2,127.3z M-5,125.8c0.2-0.7,0.8-1.3,1.5-1.3s1.1,0.6,0.9,1.2c-0.2,0.7-0.8,1.3-1.5,1.3
		C-4.8,127-5.2,126.5-5,125.8z"/>
	<path fill="#FFFFFF" d="M-4.1,125.9h0.3l0.2,0.7h0.4l-0.2-0.7c0.3,0,0.5-0.1,0.5-0.5c0-0.2,0-0.3-0.1-0.4s-0.3-0.1-0.4-0.1h-0.8
		l-0.4,1.7h0.3L-4.1,125.9z M-3.9,125.2h0.4c0.2,0,0.4,0,0.3,0.2c0,0.2-0.2,0.3-0.4,0.3h-0.5L-3.9,125.2z"/>
</g>
</svg>
