<?xml version="1.0" encoding="utf-8"?>
<!-- Generator: Adobe Illustrator 18.1.1, SVG Export Plug-In . SVG Version: 6.00 Build 0)  -->
<svg version="1.1" id="Layer_1" xmlns="http://www.w3.org/2000/svg" xmlns:xlink="http://www.w3.org/1999/xlink" x="0px" y="0px"
	 width="300px" height="250px" viewBox="0 0 300 250" enable-background="new 0 0 300 250" xml:space="preserve">
<path fill="#FFFFFF" d="M93.2,118.8c0-2.7-1.3-4.1-3.6-5.3c1.7-1.1,2.8-2.5,2.8-4.9c0-3.5-3.1-6.2-7.9-6.2c-4.7,0-7.9,2.7-7.9,6.2
	c0,2.4,1.1,3.9,2.8,4.9c-2.4,1.1-3.6,2.7-3.6,5.4c0,3.9,3.7,6.5,8.6,6.5C89.5,125.4,93.2,123,93.2,118.8z M87.7,109.1
	c0,1.6-1.2,2.8-3.2,2.8c-2,0-3.2-1.2-3.2-2.8c0-1.4,1.2-2.6,3.2-2.6C86.5,106.5,87.7,107.7,87.7,109.1z M88.4,118.6
	c0,1.6-1.4,2.8-3.9,2.8c-2.4,0-3.9-1.2-3.9-2.8c0-1.8,1.6-2.8,3.9-2.8C86.8,115.8,88.4,116.8,88.4,118.6z"/>
<path fill="#FFFFFF" d="M125.8,125.1v-22.4h-4.9v8.9h-9.1v-8.9h-4.9v22.4h4.9v-9h9.1v9H125.8z"/>
<path fill="#FFFFFF" d="M154,113.9L154,113.9c0-6.4-5-11.6-11.9-11.6s-11.9,5.2-11.9,11.6v0.1c0,6.4,5,11.5,11.9,11.5
	S154,120.3,154,113.9z M148.9,114c0,3.8-2.8,7-6.7,7s-6.8-3.2-6.8-7v-0.1c0-3.8,2.8-7,6.7-7S148.9,110.1,148.9,114L148.9,114z"/>
<path fill="#FFFFFF" d="M177.6,115.4v-12.6h-4.9v12.8c0,3.6-1.8,5.4-4.8,5.4c-3,0-4.8-1.9-4.8-5.5v-12.7h-4.9v12.8
	c0,6.6,3.7,10,9.7,10C173.8,125.5,177.6,122.1,177.6,115.4z"/>
<path fill="#FFFFFF" d="M202,125.1l-5.5-8c2.8-1.1,4.8-3.3,4.8-6.9v-0.1c0-4.6-3.2-7.4-8.4-7.4h-10.2v22.4h4.9V118h3.9l4.8,7.2H202z
	 M196.3,110.4c0,1.9-1.4,3.2-3.8,3.2h-5v-6.4h4.9C194.8,107.2,196.3,108.3,196.3,110.4L196.3,110.4z"/>
<path fill="#FFFFFF" d="M221.9,118.5L221.9,118.5c0-4-2.6-5.6-7.1-6.8c-3.9-1-4.8-1.5-4.8-2.9v-0.1c0-1.1,1-2,2.9-2
	c1.9,0,3.8,0.8,5.8,2.2l2.6-3.7c-2.3-1.8-5.1-2.8-8.3-2.8c-4.6,0-7.8,2.7-7.8,6.8v0.1c0,4.4,2.9,5.7,7.4,6.8c3.7,1,4.5,1.6,4.5,2.8
	v0.1c0,1.3-1.2,2.1-3.2,2.1c-2.6,0-4.7-1.1-6.7-2.7l-2.9,3.5c2.7,2.4,6.1,3.6,9.5,3.6C218.5,125.4,221.9,122.9,221.9,118.5z"/>
<path fill="#FFFFFF" d="M90,137.3v-4.5H71.4v4.5h6.8v17.9h4.9v-17.9H90z"/>
<path fill="#FFFFFF" d="M115.6,143.9L115.6,143.9c0-6.4-5-11.6-11.9-11.6c-6.9,0-11.9,5.2-11.9,11.6v0.1c0,6.4,5,11.5,11.9,11.5
	S115.6,150.3,115.6,143.9z M110.5,144c0,3.8-2.8,7-6.7,7c-4,0-6.8-3.2-6.8-7v-0.1c0-3.8,2.8-7,6.7-7S110.5,140.1,110.5,144
	L110.5,144z"/>
<path fill="#FFFFFF" d="M149.3,151.5l-3.1-3.2c-1.8,1.6-3.3,2.6-5.9,2.6c-3.8,0-6.5-3.2-6.5-7v-0.1c0-3.8,2.7-7,6.5-7
	c2.2,0,4,1,5.7,2.5l3.1-3.6c-2.1-2-4.6-3.5-8.8-3.5c-6.9,0-11.7,5.2-11.7,11.6v0.1c0,6.4,4.9,11.5,11.5,11.5
	C144.4,155.5,147,154,149.3,151.5z"/>
<path fill="#FFFFFF" d="M175.4,143.9L175.4,143.9c0-6.4-5-11.6-11.9-11.6s-11.9,5.2-11.9,11.6v0.1c0,6.4,5,11.5,11.9,11.5
	S175.4,150.3,175.4,143.9z M170.2,144c0,3.8-2.8,7-6.7,7s-6.8-3.2-6.8-7v-0.1c0-3.8,2.8-7,6.7-7C167.4,136.9,170.2,140.1,170.2,144
	L170.2,144z"/>
<path fill="#FFFFFF" d="M202.6,143.9L202.6,143.9c0-6.4-5-11.6-11.9-11.6s-11.9,5.2-11.9,11.6v0.1c0,6.4,5,11.5,11.9,11.5
	C197.6,155.5,202.6,150.3,202.6,143.9z M197.4,144c0,3.8-2.8,7-6.7,7s-6.8-3.2-6.8-7v-0.1c0-3.8,2.8-7,6.7-7
	C194.6,136.9,197.4,140.1,197.4,144L197.4,144z"/>
<path fill="#FFFFFF" d="M227.4,155.1l-9.5-12.9l9.1-9.5h-6l-9.1,9.8v-9.8H207v22.4h4.9v-6.8l2.6-2.7l6.9,9.5H227.4z"/>
</svg>
