<?xml version="1.0" encoding="utf-8"?>
<!-- Generator: Adobe Illustrator 18.1.1, SVG Export Plug-In . SVG Version: 6.00 Build 0)  -->
<svg version="1.1" id="Layer_1" xmlns="http://www.w3.org/2000/svg" xmlns:xlink="http://www.w3.org/1999/xlink" x="0px" y="0px"
	 width="300px" height="250px" viewBox="0 0 300 250" enable-background="new 0 0 300 250" xml:space="preserve">
<path fill="#FFFFFF" d="M72.6,122.8c0-2.7-1.3-4.1-3.6-5.3c1.7-1.1,2.8-2.5,2.8-4.9c0-3.5-3.1-6.2-7.9-6.2c-4.7,0-7.9,2.7-7.9,6.2
	c0,2.4,1.1,3.9,2.8,4.9c-2.4,1.1-3.6,2.7-3.6,5.4c0,3.9,3.7,6.5,8.6,6.5C68.9,129.4,72.6,127,72.6,122.8z M67.1,113.1
	c0,1.6-1.2,2.8-3.2,2.8c-2,0-3.2-1.2-3.2-2.8c0-1.4,1.2-2.6,3.2-2.6C65.9,110.5,67.1,111.7,67.1,113.1z M67.8,122.6
	c0,1.6-1.4,2.8-3.9,2.8c-2.4,0-3.9-1.2-3.9-2.8c0-1.8,1.6-2.8,3.9-2.8C66.2,119.8,67.8,120.8,67.8,122.6z"/>
<path fill="#FFFFFF" d="M102.5,122.5L102.5,122.5c0-4-2.6-5.6-7.1-6.8c-3.9-1-4.8-1.5-4.8-2.9v-0.1c0-1.1,1-2,2.9-2
	c1.9,0,3.8,0.8,5.8,2.2l2.6-3.7c-2.3-1.8-5.1-2.8-8.3-2.8c-4.6,0-7.8,2.7-7.8,6.8v0.1c0,4.4,2.9,5.7,7.4,6.8c3.7,1,4.5,1.6,4.5,2.8
	v0.1c0,1.3-1.2,2.1-3.2,2.1c-2.6,0-4.7-1.1-6.7-2.7l-2.9,3.5c2.7,2.4,6.1,3.6,9.5,3.6C99.1,129.4,102.5,126.9,102.5,122.5z"/>
<path fill="#FFFFFF" d="M123.8,129.1v-4.4h-12.2V120h10.6v-4.4h-10.6v-4.5h12v-4.4h-16.9v22.4H123.8z"/>
<path fill="#FFFFFF" d="M147.9,125.5l-3.1-3.2c-1.8,1.6-3.3,2.6-5.9,2.6c-3.8,0-6.5-3.2-6.5-7v-0.1c0-3.8,2.7-7,6.5-7
	c2.2,0,4,1,5.7,2.5l3.1-3.6c-2.1-2-4.6-3.5-8.8-3.5c-6.9,0-11.7,5.2-11.7,11.6v0.1c0,6.4,4.9,11.5,11.5,11.5
	C143,129.5,145.6,128,147.9,125.5z"/>
<path fill="#FFFFFF" d="M174,117.9L174,117.9c0-6.4-5-11.6-11.9-11.6s-11.9,5.2-11.9,11.6v0.1c0,6.4,5,11.5,11.9,11.5
	S174,124.3,174,117.9z M168.8,118c0,3.8-2.8,7-6.7,7s-6.8-3.2-6.8-7v-0.1c0-3.8,2.8-7,6.7-7S168.8,114.1,168.8,118L168.8,118z"/>
<path fill="#FFFFFF" d="M198.3,129.1v-22.4h-4.9v13.8l-10.5-13.8h-4.5v22.4h4.9v-14.2l10.8,14.2H198.3z"/>
<path fill="#FFFFFF" d="M224.3,117.9L224.3,117.9c0-6.4-4.9-11.2-11.9-11.2h-8.7v22.4h8.7C219.4,129.1,224.3,124.2,224.3,117.9z
	 M219.1,118c0,4-2.7,6.7-6.8,6.7h-3.8v-13.5h3.8C216.4,111.2,219.1,114,219.1,118L219.1,118z"/>
<path fill="#FFFFFF" d="M244.6,122.5L244.6,122.5c0-4-2.6-5.6-7.1-6.8c-3.9-1-4.8-1.5-4.8-2.9v-0.1c0-1.1,1-2,2.9-2
	c1.9,0,3.8,0.8,5.8,2.2l2.6-3.7c-2.3-1.8-5.1-2.8-8.3-2.8c-4.6,0-7.8,2.7-7.8,6.8v0.1c0,4.4,2.9,5.7,7.4,6.8c3.7,1,4.5,1.6,4.5,2.8
	v0.1c0,1.3-1.2,2.1-3.2,2.1c-2.6,0-4.7-1.1-6.7-2.7l-2.9,3.5c2.7,2.4,6.1,3.6,9.5,3.6C241.2,129.4,244.6,126.9,244.6,122.5z"/>
<path fill="#FFFFFF" d="M83.6,141.3v-4.5H65.1v4.5h6.8v17.9h4.9v-17.9H83.6z"/>
<path fill="#FFFFFF" d="M109.3,147.9L109.3,147.9c0-6.4-5-11.6-11.9-11.6s-11.9,5.2-11.9,11.6v0.1c0,6.4,5,11.5,11.9,11.5
	S109.3,154.3,109.3,147.9z M104.1,148c0,3.8-2.8,7-6.7,7c-4,0-6.8-3.2-6.8-7v-0.1c0-3.8,2.8-7,6.7-7
	C101.3,140.9,104.1,144.1,104.1,148L104.1,148z"/>
<path fill="#FFFFFF" d="M142.9,155.5l-3.1-3.2c-1.8,1.6-3.3,2.6-5.9,2.6c-3.8,0-6.5-3.2-6.5-7v-0.1c0-3.8,2.7-7,6.5-7
	c2.2,0,4,1,5.7,2.5l3.1-3.6c-2.1-2-4.6-3.5-8.8-3.5c-6.9,0-11.7,5.2-11.7,11.6v0.1c0,6.4,4.9,11.5,11.5,11.5
	C138.1,159.5,140.6,158,142.9,155.5z"/>
<path fill="#FFFFFF" d="M163,159.1v-4.5h-11.2v-17.9h-4.9v22.4H163z"/>
<path fill="#FFFFFF" d="M183.7,159.1v-4.4h-12.2V150h10.6v-4.4h-10.6v-4.5h12v-4.4h-16.9v22.4H183.7z"/>
<path fill="#FFFFFF" d="M209.9,159.1l-9.6-22.6h-4.5l-9.6,22.6h5l2-5h9.5l2,5H209.9z M201,149.7h-6l3-7.3L201,149.7z"/>
<path fill="#FFFFFF" d="M233.3,159.1v-22.4h-4.9v13.8l-10.5-13.8h-4.5v22.4h4.9v-14.2l10.8,14.2H233.3z"/>
</svg>
