<?xml version="1.0" encoding="utf-8"?>
<!-- Generator: Adobe Illustrator 18.1.1, SVG Export Plug-In . SVG Version: 6.00 Build 0)  -->
<svg version="1.1" id="Layer_1" xmlns="http://www.w3.org/2000/svg" xmlns:xlink="http://www.w3.org/1999/xlink" x="0px" y="0px"
	 width="300px" height="250px" viewBox="0 0 300 250" enable-background="new 0 0 300 250" xml:space="preserve">
<path fill="#FFFFFF" d="M48.3,210.2L48.3,210.2c0-1.9-1.2-2.6-3.3-3.2c-1.8-0.5-2.3-0.7-2.3-1.4v0c0-0.5,0.5-0.9,1.4-0.9
	s1.8,0.4,2.7,1L48,204c-1.1-0.9-2.4-1.3-3.9-1.3c-2.1,0-3.7,1.3-3.7,3.2v0c0,2.1,1.4,2.7,3.5,3.2c1.8,0.5,2.1,0.8,2.1,1.3v0
	c0,0.6-0.6,1-1.5,1c-1.2,0-2.2-0.5-3.1-1.3l-1.4,1.6c1.3,1.1,2.9,1.7,4.5,1.7C46.7,213.4,48.3,212.3,48.3,210.2z"/>
<path fill="#FFFFFF" d="M52.5,213.3v-11h-2.3v11H52.5z"/>
<path fill="#FFFFFF" d="M62.9,209.3L62.9,209.3c0-2.3-1.8-4.2-4.3-4.2c-2.5,0-4.4,1.9-4.4,4.2v0c0,2.3,1.8,4.2,4.3,4.2
	C61.1,213.5,62.9,211.6,62.9,209.3z M60.7,209.3c0,1.2-0.8,2.2-2.1,2.2c-1.3,0-2.1-1-2.1-2.2v0c0-1.2,0.8-2.2,2.1-2.2
	C59.8,207.1,60.7,208.1,60.7,209.3L60.7,209.3z"/>
<path fill="#FFFFFF" d="M75.8,205.3h-2.3l-1.3,4.9l-1.5-4.9h-2l-1.5,4.9l-1.3-4.9h-2.3l2.5,8.1h2l1.6-4.9l1.5,4.9h2.1L75.8,205.3z"
	/>
<path fill="#FFFFFF" d="M88.7,212l-1.3-1.4c-0.6,0.5-1.1,0.9-1.8,0.9c-1.2,0-2-1-2-2.2v0c0-1.2,0.8-2.2,2-2.2c0.8,0,1.3,0.3,1.8,0.9
	l1.4-1.5c-0.8-0.8-1.7-1.4-3.2-1.4c-2.5,0-4.2,1.9-4.2,4.2v0c0,2.3,1.8,4.2,4.2,4.2C87,213.5,87.9,212.9,88.7,212z"/>
<path fill="#FFFFFF" d="M98.3,209.3L98.3,209.3c0-2.3-1.8-4.2-4.3-4.2c-2.5,0-4.4,1.9-4.4,4.2v0c0,2.3,1.8,4.2,4.3,4.2
	C96.4,213.5,98.3,211.6,98.3,209.3z M96,209.3c0,1.2-0.8,2.2-2.1,2.2c-1.3,0-2.1-1-2.1-2.2v0c0-1.2,0.8-2.2,2.1-2.2
	C95.2,207.1,96,208.1,96,209.3L96,209.3z"/>
<path fill="#FFFFFF" d="M108.2,209.3L108.2,209.3c0-2.3-1.8-4.2-4.3-4.2c-2.5,0-4.4,1.9-4.4,4.2v0c0,2.3,1.8,4.2,4.3,4.2
	C106.4,213.5,108.2,211.6,108.2,209.3z M106,209.3c0,1.2-0.8,2.2-2.1,2.2c-1.3,0-2.1-1-2.1-2.2v0c0-1.2,0.8-2.2,2.1-2.2
	C105.1,207.1,106,208.1,106,209.3L106,209.3z"/>
<path fill="#FFFFFF" d="M117.7,213.3l-3.2-4.9l3.1-3.2h-2.7l-2.7,2.9v-5.8h-2.3v11h2.3v-2.4l0.8-0.8l2.1,3.3H117.7z"/>
<path fill="#FFFFFF" d="M121.2,204.4v-2h-2.4v2H121.2z M121.2,213.3v-8h-2.3v8H121.2z"/>
<path fill="#FFFFFF" d="M130.7,213.3v-5.2c0-1.8-1-3-2.7-3c-1.2,0-1.8,0.6-2.4,1.3v-1.1h-2.3v8h2.3v-4.5c0-1.1,0.6-1.6,1.4-1.6
	c0.9,0,1.4,0.6,1.4,1.6v4.5H130.7z"/>
<path fill="#FFFFFF" d="M140.7,211.5v-6.2h-2.3v1.1c-0.6-0.7-1.4-1.2-2.6-1.2c-1.8,0-3.6,1.4-3.6,3.8v0c0,2.4,1.7,3.8,3.6,3.8
	c1.2,0,2-0.5,2.6-1.3v0.4c0,1.4-0.7,2.2-2.3,2.2c-1.1,0-1.9-0.3-2.7-0.7l-0.8,1.7c1,0.5,2.3,0.8,3.6,0.8
	C139.2,215.7,140.7,214.5,140.7,211.5z M138.5,208.9c0,1.1-0.9,1.9-2,1.9c-1.1,0-2-0.8-2-1.9v0c0-1.1,0.8-1.9,2-1.9
	C137.6,207,138.5,207.8,138.5,208.9L138.5,208.9z"/>
<path fill="#FFFFFF" d="M145.1,213.3v-2.4h-2.4v2.4H145.1z"/>
<path fill="#FFFFFF" d="M48.7,219.9v-2.1h-8v10.5h2.3v-4.1h5v-2.1h-5v-2.2H48.7z"/>
<path fill="#FFFFFF" d="M56.9,228.3v-4.7c0-2.2-1.1-3.5-3.6-3.5c-1.4,0-2.2,0.3-3.1,0.6l0.6,1.7c0.7-0.3,1.4-0.4,2.2-0.4
	c1.1,0,1.7,0.5,1.7,1.5v0.1c-0.6-0.2-1.2-0.3-2-0.3c-1.9,0-3.2,0.8-3.2,2.6v0c0,1.6,1.2,2.5,2.8,2.5c1.1,0,1.9-0.4,2.4-1v0.9H56.9z
	 M54.7,225.5c0,0.8-0.7,1.4-1.8,1.4c-0.7,0-1.2-0.4-1.2-1v0c0-0.7,0.6-1.1,1.6-1.1c0.6,0,1.1,0.1,1.5,0.3V225.5z"/>
<path fill="#FFFFFF" d="M64.7,225.9L64.7,225.9c0-1.5-1.3-2-2.4-2.4c-0.9-0.3-1.6-0.5-1.6-1v0c0-0.3,0.3-0.6,0.8-0.6
	c0.6,0,1.4,0.3,2.2,0.8l0.9-1.6c-0.9-0.6-2-0.9-3-0.9c-1.6,0-2.9,0.9-2.9,2.6v0c0,1.6,1.3,2.1,2.4,2.4c0.9,0.3,1.7,0.4,1.7,0.9v0
	c0,0.4-0.3,0.6-1,0.6c-0.8,0-1.7-0.3-2.5-1l-1,1.5c1.1,0.8,2.3,1.2,3.5,1.2C63.4,228.4,64.7,227.6,64.7,225.9z"/>
<path fill="#FFFFFF" d="M70.7,228v-1.8c-0.3,0.2-0.7,0.3-1.1,0.3c-0.5,0-0.7-0.3-0.7-0.8v-3.4h1.9v-2h-1.9v-2.1h-2.3v2.1h-1v2h1v3.8
	c0,1.9,0.9,2.4,2.3,2.4C69.7,228.4,70.3,228.3,70.7,228z"/>
<path fill="#FFFFFF" d="M84,227l-1.3-1.4c-0.6,0.5-1.1,0.9-1.8,0.9c-1.2,0-2-1-2-2.2v0c0-1.2,0.8-2.2,2-2.2c0.8,0,1.3,0.3,1.8,0.9
	l1.4-1.5c-0.8-0.8-1.7-1.4-3.2-1.4c-2.5,0-4.2,1.9-4.2,4.2v0c0,2.3,1.8,4.2,4.2,4.2C82.4,228.5,83.3,227.9,84,227z"/>
<path fill="#FFFFFF" d="M87.9,228.3v-11h-2.3v11H87.9z"/>
<path fill="#FFFFFF" d="M97.6,224.5L97.6,224.5c0-2.3-1.2-4.4-3.9-4.4c-2.3,0-4,1.9-4,4.2v0c0,2.5,1.8,4.2,4.2,4.2
	c1.5,0,2.5-0.6,3.3-1.5l-1.3-1.2c-0.6,0.6-1.2,0.8-2,0.8c-1,0-1.7-0.5-2-1.6h5.6C97.5,224.9,97.6,224.7,97.6,224.5z M95.3,223.6
	h-3.4c0.2-1,0.8-1.7,1.7-1.7C94.6,221.9,95.2,222.6,95.3,223.6z"/>
<path fill="#FFFFFF" d="M106.2,228.3v-4.7c0-2.2-1.1-3.5-3.6-3.5c-1.4,0-2.2,0.3-3.1,0.6l0.6,1.7c0.7-0.3,1.4-0.4,2.2-0.4
	c1.1,0,1.7,0.5,1.7,1.5v0.1c-0.6-0.2-1.2-0.3-2-0.3c-1.9,0-3.2,0.8-3.2,2.6v0c0,1.6,1.2,2.5,2.8,2.5c1.1,0,1.9-0.4,2.4-1v0.9H106.2z
	 M104,225.5c0,0.8-0.7,1.4-1.8,1.4c-0.7,0-1.2-0.4-1.2-1v0c0-0.7,0.6-1.1,1.6-1.1c0.6,0,1.1,0.1,1.5,0.3V225.5z"/>
<path fill="#FFFFFF" d="M115.5,228.3v-5.2c0-1.8-1-3-2.7-3c-1.2,0-1.8,0.6-2.4,1.3v-1.1h-2.3v8h2.3v-4.5c0-1.1,0.6-1.6,1.4-1.6
	c0.9,0,1.4,0.6,1.4,1.6v4.5H115.5z"/>
<path fill="#FFFFFF" d="M119.9,219.4v-2h-2.4v2H119.9z M119.9,228.3v-8h-2.3v8H119.9z"/>
<path fill="#FFFFFF" d="M129.4,228.3v-5.2c0-1.8-1-3-2.7-3c-1.2,0-1.8,0.6-2.4,1.3v-1.1H122v8h2.3v-4.5c0-1.1,0.6-1.6,1.4-1.6
	c0.9,0,1.4,0.6,1.4,1.6v4.5H129.4z"/>
<path fill="#FFFFFF" d="M139.4,226.5v-6.2h-2.3v1.1c-0.6-0.7-1.4-1.2-2.6-1.2c-1.8,0-3.6,1.4-3.6,3.8v0c0,2.4,1.7,3.8,3.6,3.8
	c1.2,0,2-0.5,2.6-1.3v0.4c0,1.4-0.7,2.2-2.3,2.2c-1.1,0-1.9-0.3-2.7-0.7l-0.8,1.7c1,0.5,2.3,0.8,3.6,0.8
	C137.9,230.7,139.4,229.5,139.4,226.5z M137.2,223.9c0,1.1-0.9,1.9-2,1.9c-1.1,0-2-0.8-2-1.9v0c0-1.1,0.8-1.9,2-1.9
	C136.3,222,137.2,222.8,137.2,223.9L137.2,223.9z"/>
<path fill="#FFFFFF" d="M143.8,228.3v-2.4h-2.4v2.4H143.8z"/>
</svg>
