<svg xmlns="http://www.w3.org/2000/svg" width="73.719" height="15.875" viewBox="0 0 73.719 15.875">
  <metadata><?xpacket begin="﻿" id="W5M0MpCehiHzreSzNTczkc9d"?>
<x:xmpmeta xmlns:x="adobe:ns:meta/" x:xmptk="Adobe XMP Core 5.6-c138 79.159824, 2016/09/14-01:09:01        ">
   <rdf:RDF xmlns:rdf="http://www.w3.org/1999/02/22-rdf-syntax-ns#">
      <rdf:Description rdf:about=""/>
   </rdf:RDF>
</x:xmpmeta>
                                                                                                    
                                                                                                    
                                                                                                    
                                                                                                    
                                                                                                    
                                                                                                    
                                                                                                    
                                                                                                    
                                                                                                    
                                                                                                    
                                                                                                    
                                                                                                    
                                                                                                    
                                                                                                    
                                                                                                    
                                                                                                    
                                                                                                    
                                                                                                    
                                                                                                    
                                                                                                    
                           
<?xpacket end="w"?></metadata>
<defs>
    <style>
      .cls-1, .cls-2 {
        fill-rule: evenodd;
      }

      .cls-2 {
        fill: #fff;
      }
    </style>
  </defs>
  <path id="Rounded_Rectangle_1" data-name="Rounded Rectangle 1" class="cls-1" d="M227.266,25.685H291a5,5,0,0,1,5,5v5.875a5,5,0,0,1-5,5H227.266a5,5,0,0,1-5-5V30.685A5,5,0,0,1,227.266,25.685Z" transform="translate(-222.281 -25.688)"/>
  <path id="SHOP_NOW" data-name="SHOP NOW" class="cls-2" d="M230.941,39.213a4.718,4.718,0,0,0,1.794-.279,1.805,1.805,0,0,0,.962-0.9,3.931,3.931,0,0,0,.3-1.677,3.308,3.308,0,0,0-.384-1.677,2.067,2.067,0,0,0-1.1-.929l-0.825-.306-0.455-.182a4.683,4.683,0,0,1-.624-0.273,0.95,0.95,0,0,1-.345-0.338,1.131,1.131,0,0,1-.136-0.6,0.735,0.735,0,0,1,.845-0.819,0.84,0.84,0,0,1,.676.234,1.149,1.149,0,0,1,.195.741v0.2h1.937v-0.2a3.494,3.494,0,0,0-.26-1.489,1.56,1.56,0,0,0-.845-0.78,4.4,4.4,0,0,0-1.625-.241,3.4,3.4,0,0,0-2.255.6,2.527,2.527,0,0,0-.683,1.989,2.991,2.991,0,0,0,.286,1.424,1.972,1.972,0,0,0,.7.773,6.882,6.882,0,0,0,1.1.507l0.494,0.2q0.507,0.2.741,0.312a1.009,1.009,0,0,1,.4.4,1.472,1.472,0,0,1,.169.761,1.177,1.177,0,0,1-.215.773,0.954,0.954,0,0,1-.76.254,0.968,0.968,0,0,1-.832-0.319,1.862,1.862,0,0,1-.234-1.072v-0.3H227.99v0.338a4.329,4.329,0,0,0,.273,1.709,1.706,1.706,0,0,0,.91.9,4.515,4.515,0,0,0,1.768.279h0Zm6.525-.143V35.339h2V39.07H241.6V29.84h-2.132v3.588h-2V29.84h-2.131v9.23h2.131Zm8.8,0.143a4.027,4.027,0,0,0,1.969-.39,2.185,2.185,0,0,0,.968-1.365,10.659,10.659,0,0,0,.286-2.834V34.286a10.659,10.659,0,0,0-.286-2.834,2.185,2.185,0,0,0-.968-1.365,5.168,5.168,0,0,0-3.939,0,2.168,2.168,0,0,0-.962,1.365,10.93,10.93,0,0,0-.279,2.834v0.338a10.929,10.929,0,0,0,.279,2.834,2.168,2.168,0,0,0,.962,1.365,4.031,4.031,0,0,0,1.97.39h0Zm0-1.638a0.787,0.787,0,0,1-.644-0.26,1.82,1.82,0,0,1-.3-0.9,15.768,15.768,0,0,1-.084-1.9V34.39a15.77,15.77,0,0,1,.084-1.9,1.82,1.82,0,0,1,.3-0.9,0.787,0.787,0,0,1,.644-0.26,0.807,0.807,0,0,1,.65.26,1.787,1.787,0,0,1,.305.9,15.75,15.75,0,0,1,.085,1.892v0.13a15.75,15.75,0,0,1-.085,1.892,1.787,1.787,0,0,1-.305.9,0.806,0.806,0,0,1-.65.26h0Zm4.692,1.495h2.132V35.859h0.442a6.812,6.812,0,0,0,2.1-.254,1.782,1.782,0,0,0,1.066-.864,3.762,3.762,0,0,0,.319-1.716V32.687a3.8,3.8,0,0,0-.319-1.729,1.782,1.782,0,0,0-1.066-.864,6.812,6.812,0,0,0-2.1-.253h-2.574v9.23Zm2.132-4.875V31.5h0.4a2.294,2.294,0,0,1,.832.117,0.672,0.672,0,0,1,.39.383,2.283,2.283,0,0,1,.1.787v0.13a2.233,2.233,0,0,1-.1.774,0.671,0.671,0,0,1-.39.383,2.294,2.294,0,0,1-.832.117h-0.4Zm13.09,1.794-2.275-6.149H261.54v9.23h1.833V32.921l2.275,6.149h2.366V29.84h-1.833v6.149Zm6.512,3.224a4.031,4.031,0,0,0,1.97-.39,2.189,2.189,0,0,0,.968-1.365,10.659,10.659,0,0,0,.286-2.834V34.286a10.659,10.659,0,0,0-.286-2.834,2.189,2.189,0,0,0-.968-1.365,5.168,5.168,0,0,0-3.939,0,2.164,2.164,0,0,0-.962,1.365,10.93,10.93,0,0,0-.279,2.834v0.338a10.929,10.929,0,0,0,.279,2.834,2.164,2.164,0,0,0,.962,1.365,4.027,4.027,0,0,0,1.969.39h0Zm0-1.638a0.785,0.785,0,0,1-.643-0.26,1.82,1.82,0,0,1-.3-0.9,15.516,15.516,0,0,1-.085-1.9V34.39a15.518,15.518,0,0,1,.085-1.9,1.82,1.82,0,0,1,.3-0.9,0.785,0.785,0,0,1,.643-0.26,0.805,0.805,0,0,1,.65.26,1.8,1.8,0,0,1,.306.9,15.794,15.794,0,0,1,.084,1.892v0.13a15.794,15.794,0,0,1-.084,1.892,1.8,1.8,0,0,1-.306.9,0.8,0.8,0,0,1-.65.26h0Zm11.894-.468-1.325-7.267h-2.327l-1.326,7.228-0.962-7.228h-2.08l1.7,9.23h2.548l1.222-6.786,1.209,6.786H285.8l1.7-9.23h-1.937Z" transform="translate(-222.281 -25.688)"/>
</svg>
