<svg xmlns="http://www.w3.org/2000/svg" width="210.062" height="15.375" viewBox="0 0 210.062 15.375">
  <metadata><?xpacket begin="﻿" id="W5M0MpCehiHzreSzNTczkc9d"?>
<x:xmpmeta xmlns:x="adobe:ns:meta/" x:xmptk="Adobe XMP Core 5.6-c138 79.159824, 2016/09/14-01:09:01        ">
   <rdf:RDF xmlns:rdf="http://www.w3.org/1999/02/22-rdf-syntax-ns#">
      <rdf:Description rdf:about=""/>
   </rdf:RDF>
</x:xmpmeta>
                                                                                                    
                                                                                                    
                                                                                                    
                                                                                                    
                                                                                                    
                                                                                                    
                                                                                                    
                                                                                                    
                                                                                                    
                                                                                                    
                                                                                                    
                                                                                                    
                                                                                                    
                                                                                                    
                                                                                                    
                                                                                                    
                                                                                                    
                                                                                                    
                                                                                                    
                                                                                                    
                           
<?xpacket end="w"?></metadata>
<defs>
    <style>
      .cls-1 {
        fill: #fff;
        fill-rule: evenodd;
      }
    </style>
  </defs>
  <path id="FREE_HOLIDAY_SHIPPING" data-name="FREE HOLIDAY SHIPPING" class="cls-1" d="M7.37,41.365V35.527h4.179V32.818H7.37V29.164h4.616V26.455H3.96v14.91H7.37Zm16.384,0-2.162-6.006a2.744,2.744,0,0,0,1.435-1.375,6,6,0,0,0,.437-2.51V30.928a5.942,5.942,0,0,0-.509-2.741,2.813,2.813,0,0,0-1.695-1.344,11.338,11.338,0,0,0-3.368-.388h-4.1v14.91H17.2V35.926h1.331l1.6,5.439h3.618Zm-5.926-8.127H17.2v-4.1h0.624a4.14,4.14,0,0,1,1.352.168,1.011,1.011,0,0,1,.624.578A3.366,3.366,0,0,1,19.97,31.1v0.21a2.973,2.973,0,0,1-.177,1.145,1.121,1.121,0,0,1-.634.6,3.634,3.634,0,0,1-1.331.189h0Zm16.2,8.127V38.74H29.2V35.065h4.179V32.44H29.2V29.08h4.616V26.455H25.792v14.91h8.234Zm10.334,0V38.74H39.536V35.065h4.179V32.44H39.536V29.08h4.616V26.455H36.126v14.91h8.234Zm11,0V35.338h3.2v6.027h3.41V26.455H58.56v5.8h-3.2v-5.8h-3.41v14.91h3.41ZM69.435,41.6a6.39,6.39,0,0,0,3.15-.63,3.533,3.533,0,0,0,1.549-2.2,17.415,17.415,0,0,0,.457-4.578V33.637a17.418,17.418,0,0,0-.457-4.578,3.533,3.533,0,0,0-1.549-2.205,6.39,6.39,0,0,0-3.15-.63,6.39,6.39,0,0,0-3.15.63,3.5,3.5,0,0,0-1.539,2.205,17.781,17.781,0,0,0-.447,4.578v0.546a17.779,17.779,0,0,0,.447,4.578,3.5,3.5,0,0,0,1.539,2.2,6.39,6.39,0,0,0,3.15.63h0Zm0-2.646a1.25,1.25,0,0,1-1.029-.42,2.963,2.963,0,0,1-.478-1.449,25.5,25.5,0,0,1-.135-3.066v-0.21a25.513,25.513,0,0,1,.135-3.066,2.966,2.966,0,0,1,.478-1.449,1.251,1.251,0,0,1,1.029-.42,1.283,1.283,0,0,1,1.04.42,2.909,2.909,0,0,1,.489,1.46,25.635,25.635,0,0,1,.135,3.056v0.21a25.635,25.635,0,0,1-.135,3.056,2.907,2.907,0,0,1-.489,1.459,1.282,1.282,0,0,1-1.04.42h0Zm14.95,2.415V38.383H80.351V26.455h-3.41v14.91h7.444Zm5.219,0V26.455h-3.41v14.91H89.6Zm2.744,0h4.387a7.633,7.633,0,0,0,3.41-.609,3.47,3.47,0,0,0,1.684-2.142,15.073,15.073,0,0,0,.5-4.431V33.637a15.075,15.075,0,0,0-.5-4.431,3.472,3.472,0,0,0-1.684-2.142,7.638,7.638,0,0,0-3.41-.609H92.348v14.91Zm3.41-2.709V29.143h0.811a2.235,2.235,0,0,1,1.445.389,2.179,2.179,0,0,1,.634,1.344,18.715,18.715,0,0,1,.166,2.93v0.21a18.708,18.708,0,0,1-.166,2.93,2.126,2.126,0,0,1-.634,1.334,2.28,2.28,0,0,1-1.445.378H95.758Zm19.108,2.709-3.576-14.91H106.9l-3.576,14.91h3.452l0.52-2.835h3.534l0.52,2.835h3.514Zm-5.8-12.39,1.289,6.993h-2.578Zm12.289-2.52L119.4,32.734l-1.954-6.279h-3.639l3.847,9.6v5.313h3.41V36.052l3.846-9.6h-3.555ZM135.513,41.6a7.48,7.48,0,0,0,2.87-.452,2.9,2.9,0,0,0,1.538-1.459,6.394,6.394,0,0,0,.479-2.709,5.392,5.392,0,0,0-.614-2.709,3.314,3.314,0,0,0-1.767-1.5l-1.321-.493-0.727-.294a7.506,7.506,0,0,1-1-.441,1.521,1.521,0,0,1-.551-0.546,1.837,1.837,0,0,1-.219-0.966,1.182,1.182,0,0,1,1.352-1.323,1.334,1.334,0,0,1,1.081.378,1.869,1.869,0,0,1,.312,1.2v0.315h3.1V30.277a5.689,5.689,0,0,0-.416-2.4,2.5,2.5,0,0,0-1.351-1.26,6.979,6.979,0,0,0-2.6-.389,5.409,5.409,0,0,0-3.608.966A4.1,4.1,0,0,0,130.98,30.4a4.877,4.877,0,0,0,.458,2.3,3.172,3.172,0,0,0,1.112,1.25,10.942,10.942,0,0,0,1.757.819l0.79,0.315q0.811,0.315,1.186.5a1.619,1.619,0,0,1,.644.641,2.39,2.39,0,0,1,.27,1.228,1.913,1.913,0,0,1-.343,1.249,1.518,1.518,0,0,1-1.216.41,1.541,1.541,0,0,1-1.331-.514,3.036,3.036,0,0,1-.374-1.733V36.388h-3.14v0.546a7.056,7.056,0,0,0,.437,2.761,2.742,2.742,0,0,0,1.455,1.449,7.153,7.153,0,0,0,2.828.452h0Zm10.438-.231V35.338h3.2v6.027h3.41V26.455h-3.41v5.8h-3.2v-5.8h-3.41v14.91h3.41Zm12.767,0V26.455h-3.41v14.91h3.41Zm2.744,0h3.41V36.178h0.707a10.8,10.8,0,0,0,3.358-.41,2.862,2.862,0,0,0,1.7-1.4,6.139,6.139,0,0,0,.51-2.772V31.054a6.2,6.2,0,0,0-.51-2.793,2.863,2.863,0,0,0-1.7-1.4,10.8,10.8,0,0,0-3.358-.409h-4.117v14.91Zm3.41-7.875V29.143h0.645a3.631,3.631,0,0,1,1.33.189,1.075,1.075,0,0,1,.624.619,3.7,3.7,0,0,1,.167,1.271v0.21a3.621,3.621,0,0,1-.167,1.25,1.073,1.073,0,0,1-.624.619,3.631,3.631,0,0,1-1.33.189h-0.645Zm8.338,7.875h3.41V36.178h0.707a10.8,10.8,0,0,0,3.358-.41,2.862,2.862,0,0,0,1.7-1.4A6.154,6.154,0,0,0,182.9,31.6V31.054a6.214,6.214,0,0,0-.509-2.793,2.863,2.863,0,0,0-1.7-1.4,10.8,10.8,0,0,0-3.358-.409H173.21v14.91Zm3.41-7.875V29.143h0.645a3.631,3.631,0,0,1,1.33.189,1.075,1.075,0,0,1,.624.619,3.708,3.708,0,0,1,.166,1.271v0.21a3.625,3.625,0,0,1-.166,1.25,1.073,1.073,0,0,1-.624.619,3.631,3.631,0,0,1-1.33.189H176.62Zm11.748,7.875V26.455h-3.41v14.91h3.41Zm10.167-4.977L194.9,26.455h-3.784v14.91h2.932V31.432l3.639,9.933h3.784V26.455h-2.932v9.933Zm10.583-3.4v2.688h1.435v0.5a4.544,4.544,0,0,1-.364,2.163,1.323,1.323,0,0,1-1.237.609,1.251,1.251,0,0,1-1.029-.42,2.96,2.96,0,0,1-.478-1.449,25.342,25.342,0,0,1-.136-3.066v-0.21a25.351,25.351,0,0,1,.136-3.066,2.963,2.963,0,0,1,.478-1.449,1.252,1.252,0,0,1,1.029-.42,1.266,1.266,0,0,1,1.123.514,3.392,3.392,0,0,1,.353,1.817v0.063h3.514V31.2a7.107,7.107,0,0,0-.519-3.014,2.98,2.98,0,0,0-1.591-1.523,7.721,7.721,0,0,0-2.88-.441,6.391,6.391,0,0,0-3.15.63,3.532,3.532,0,0,0-1.549,2.205,17.408,17.408,0,0,0-.457,4.578v0.546a17.406,17.406,0,0,0,.457,4.578,3.532,3.532,0,0,0,1.549,2.2,6.391,6.391,0,0,0,3.15.63,7.25,7.25,0,0,0,2.984-.5,3.136,3.136,0,0,0,1.6-1.754,9.718,9.718,0,0,0,.509-3.538V32.986h-4.928Z" transform="translate(-3.969 -26.219)"/>
</svg>
