<svg id="CTA" xmlns="http://www.w3.org/2000/svg" width="72.25" height="15.469" viewBox="0 0 72.25 15.469">
  <metadata><?xpacket begin="﻿" id="W5M0MpCehiHzreSzNTczkc9d"?>
<x:xmpmeta xmlns:x="adobe:ns:meta/" x:xmptk="Adobe XMP Core 5.6-c138 79.159824, 2016/09/14-01:09:01        ">
   <rdf:RDF xmlns:rdf="http://www.w3.org/1999/02/22-rdf-syntax-ns#">
      <rdf:Description rdf:about=""/>
   </rdf:RDF>
</x:xmpmeta>
                                                                                                    
                                                                                                    
                                                                                                    
                                                                                                    
                                                                                                    
                                                                                                    
                                                                                                    
                                                                                                    
                                                                                                    
                                                                                                    
                                                                                                    
                                                                                                    
                                                                                                    
                                                                                                    
                                                                                                    
                                                                                                    
                                                                                                    
                                                                                                    
                                                                                                    
                                                                                                    
                           
<?xpacket end="w"?></metadata>
<defs>
    <style>
      .cls-1, .cls-2 {
        fill-rule: evenodd;
      }

      .cls-2 {
        fill: #fff;
      }
    </style>
  </defs>
  <path id="Rounded_Rectangle_1" data-name="Rounded Rectangle 1" class="cls-1" d="M225.75,27.145H288a5,5,0,0,1,5,5v5.478a5,5,0,0,1-5,5H225.75a5,5,0,0,1-5-5V32.145A5,5,0,0,1,225.75,27.145Z" transform="translate(-220.75 -27.156)"/>
  <path id="SAVE_NOW" data-name="SAVE NOW" class="cls-2" d="M231.009,39.361a4.674,4.674,0,0,0,1.785-.279,1.8,1.8,0,0,0,.957-0.9,3.932,3.932,0,0,0,.3-1.677,3.319,3.319,0,0,0-.382-1.677,2.058,2.058,0,0,0-1.1-.929l-0.822-.306-0.452-.182a4.729,4.729,0,0,1-.621-0.273,0.945,0.945,0,0,1-.343-0.338,1.131,1.131,0,0,1-.136-0.6,0.734,0.734,0,0,1,.841-0.819,0.834,0.834,0,0,1,.673.234,1.155,1.155,0,0,1,.194.741v0.2h1.927v-0.2a3.5,3.5,0,0,0-.259-1.488,1.55,1.55,0,0,0-.84-0.78,4.365,4.365,0,0,0-1.617-.241,3.377,3.377,0,0,0-2.245.6,2.533,2.533,0,0,0-.679,1.989,3,3,0,0,0,.285,1.423,1.957,1.957,0,0,0,.692.773,6.8,6.8,0,0,0,1.093.507l0.491,0.2c0.337,0.13.582,0.234,0.738,0.312a1,1,0,0,1,.4.4,1.473,1.473,0,0,1,.168.761,1.177,1.177,0,0,1-.214.773,0.946,0.946,0,0,1-.756.254,0.96,0.96,0,0,1-.828-0.319,1.871,1.871,0,0,1-.233-1.072v-0.3h-1.953v0.338a4.352,4.352,0,0,0,.271,1.709,1.7,1.7,0,0,0,.906.9,4.469,4.469,0,0,0,1.759.279h0Zm10.776-.143-2.225-9.23h-2.73l-2.225,9.23h2.148l0.323-1.755h2.2l0.324,1.755h2.186Zm-3.609-7.67,0.8,4.329h-1.6Zm6.933,5.655-1.267-7.215h-2.251l2.147,9.23h2.691l2.147-9.23h-2.212Zm9.5,2.015V37.593h-3V35.318h2.6V33.693h-2.6v-2.08h2.872V29.988h-4.993v9.23H254.6Zm9.34-3.081-2.264-6.149h-2.354v9.23h1.824V33.069l2.263,6.149h2.355v-9.23h-1.824v6.149Zm6.48,3.224a3.991,3.991,0,0,0,1.96-.39,2.188,2.188,0,0,0,.964-1.365,10.709,10.709,0,0,0,.285-2.834V34.434a10.709,10.709,0,0,0-.285-2.834,2.188,2.188,0,0,0-.964-1.365,5.118,5.118,0,0,0-3.919,0,2.167,2.167,0,0,0-.958,1.365,10.982,10.982,0,0,0-.278,2.834v0.338a10.982,10.982,0,0,0,.278,2.834,2.167,2.167,0,0,0,.958,1.365,3.989,3.989,0,0,0,1.959.39h0Zm0-1.638a0.78,0.78,0,0,1-.64-0.26,1.832,1.832,0,0,1-.3-0.9,15.559,15.559,0,0,1-.084-1.9v-0.13a15.562,15.562,0,0,1,.084-1.9,1.833,1.833,0,0,1,.3-0.9,0.78,0.78,0,0,1,.64-0.26,0.8,0.8,0,0,1,.647.26,1.788,1.788,0,0,1,.3.9,15.794,15.794,0,0,1,.084,1.892v0.13a15.794,15.794,0,0,1-.084,1.892,1.788,1.788,0,0,1-.3.9,0.8,0.8,0,0,1-.647.26h0Zm11.837-.468-1.32-7.267h-2.315l-1.32,7.228-0.957-7.228h-2.07l1.695,9.23h2.535l1.216-6.786,1.2,6.786h2.535l1.695-9.23h-1.928Z" transform="translate(-220.75 -27.156)"/>
</svg>
