<?xml version="1.0" encoding="utf-8"?>
<!-- Generator: Adobe Illustrator 18.1.1, SVG Export Plug-In . SVG Version: 6.00 Build 0)  -->
<svg version="1.1" id="Layer_1" xmlns="http://www.w3.org/2000/svg" xmlns:xlink="http://www.w3.org/1999/xlink" x="0px" y="0px"
	 width="300px" height="250px" viewBox="0 0 300 250" enable-background="new 0 0 300 250" xml:space="preserve">
<path fill="#ED1A47" d="M13.8,118.5h4.1v-5.6h1.9l3,5.6h4.6l-3.3-5.8c-0.4-0.7-0.6-1-0.6-1v0c1.7-0.8,2.5-2.8,2.5-4.6
	c0-2.4-1.2-4.1-3.1-4.9c-0.7-0.3-1.5-0.4-3.3-0.4h-5.8V118.5z M17.9,109.3v-4.1h1.4c2.1,0,2.5,0.7,2.5,2c0,1.3-0.8,2.1-2.1,2.1H17.9
	z"/>
<path fill="#ED1A47" d="M27.9,112.5c0,3.2,2.3,6.3,6.6,6.3c3.2,0,5.1-1.8,5.1-1.8l-1.5-2.8c0,0-1.6,1.2-3.3,1.2
	c-1.3,0-2.5-0.7-2.8-2.2h7.6c0,0,0.1-0.9,0.1-1.3c0-3.3-2-5.8-5.6-5.8C30.3,106.2,27.9,108.9,27.9,112.5z M32.2,110.9
	c0.2-0.9,0.8-1.7,1.9-1.7c1,0,1.6,0.8,1.6,1.7H32.2z"/>
<path fill="#ED1A47" d="M40.6,112.5c0,3.3,2.4,6.3,6.7,6.3c3.4,0,5.2-2,5.2-2L51,114c0,0-1.6,1.5-3.3,1.5c-2,0-3-1.6-3-3
	c0-1.4,1-2.9,2.9-2.9c1.7,0,2.8,1.2,2.8,1.2l1.7-2.7c0,0-1.5-1.8-4.8-1.8C43,106.2,40.6,109.2,40.6,112.5z"/>
<path fill="#ED1A47" d="M53,112.5c0,3.8,3,6.3,6.8,6.3c3.8,0,6.8-2.5,6.8-6.3c0-3.8-3-6.3-6.9-6.3C56,106.2,53,108.7,53,112.5z
	 M57.1,112.5c0-1.8,1.3-3,2.7-3c1.5,0,2.7,1.1,2.7,3c0,1.8-1.3,2.9-2.7,2.9C58.4,115.4,57.1,114.3,57.1,112.5z"/>
<path fill="#ED1A47" d="M68.3,118.5h4v-4.6c0-0.7,0.1-1.2,0.2-1.6c0.6-1.8,2.2-2.1,3.1-2.1c0.5,0,0.8,0.1,0.8,0.1v-4
	c0,0-0.2,0-0.5,0c-1.8,0-3.3,1.4-3.8,3h0c0,0,0-0.4,0-0.7v-2h-3.9V118.5z"/>
<path fill="#ED1A47" d="M77.1,112.5c0,3.7,2.2,6.3,5.4,6.3c2.5,0,3.5-1.8,3.5-1.8h0c0,0,0,0.3,0,0.7v0.8h3.8v-16.7h-4v4.8
	c0,0.3,0,0.5,0,0.5h0c0,0-0.7-1-3.2-1C79.3,106.2,77.1,108.6,77.1,112.5z M81.1,112.5c0-1.8,1.1-2.9,2.4-2.9c1.6,0,2.4,1.4,2.4,2.9
	c0,2.1-1.1,3-2.4,3C82.1,115.4,81.1,114.3,81.1,112.5z"/>
<path fill="#ED1A47" d="M97,118.5h11.1V115h-3.6v-13.2H101l-4.5,4.2l2.4,2.5l1-0.9c0.4-0.4,0.7-0.9,0.7-0.9h0c0,0,0,0.7,0,1.3v7H97
	V118.5z"/>
<path fill="#ED1A47" d="M116,118.8c3.6,0,5.7-2.8,5.7-5.6c0-2.9-2-5.7-5.5-5.7c-0.8,0-1.9,0.3-2.3,0.6h0c0.5-1.5,1.6-2.8,3.6-2.8
	c1.2,0,2.3,0.5,2.3,0.5l1.1-3.5c0,0-1.4-0.7-3.7-0.7c-5.2,0-8,4.7-8,9.3C109.3,116.2,112.7,118.8,116,118.8z M116,115
	c-1.2,0-2.6-1.3-2.6-3.3c0-0.8,0.8-1,1.7-1c1.8,0,2.5,1.3,2.5,2.5C117.7,114.1,117.1,115,116,115z"/>
<path fill="#ED1A47" d="M127.6,117c0,0,1.8,1.8,4.8,1.8c3.1,0,4.9-1.8,4.9-3.8c0-3.9-5.6-4-5.6-4.9c0-0.4,0.6-0.6,1.2-0.6
	c1.7,0,2.9,1,2.9,1l1.4-2.9c0,0-1.4-1.4-4.2-1.4c-2.8,0-5,1.4-5,3.7c0,3.9,5.6,4,5.6,5.1c0,0.4-0.6,0.6-1.2,0.6
	c-1.7,0-3.1-1.2-3.1-1.2L127.6,117z"/>
<path fill="#ED1A47" d="M139.1,118.5h4v-5.3c0-0.6,0-1.1,0.2-1.5c0.4-1.1,1.2-1.8,2.4-1.8c0.9,0,1.3,0.5,1.3,1.6v7.1h4v-7.8
	c0-3.4-1.9-4.5-4.3-4.5c-1.6,0-3,0.7-3.7,1.9h0c0,0,0-0.4,0-1v-5.3h-4V118.5z"/>
<path fill="#ED1A47" d="M152.6,112.5c0,3.8,3,6.3,6.8,6.3s6.8-2.5,6.8-6.3c0-3.8-3-6.3-6.9-6.3C155.7,106.2,152.6,108.7,152.6,112.5
	z M156.7,112.5c0-1.8,1.3-3,2.7-3c1.5,0,2.7,1.1,2.7,3c0,1.8-1.3,2.9-2.7,2.9C158,115.4,156.7,114.3,156.7,112.5z"/>
<path fill="#ED1A47" d="M170.1,118.5h4.6l1.4-5.6c0.2-0.7,0.2-1.3,0.2-1.3h0c0,0,0.1,0.6,0.2,1.3l1.4,5.6h4.5l3.4-12h-4.2l-1.5,7.1
	c-0.1,0.7-0.2,1.3-0.2,1.3h0c0,0,0-0.6-0.2-1.3l-1.7-7.1h-3.5l-1.7,7.1c-0.2,0.7-0.2,1.3-0.2,1.3h0c0,0,0-0.6-0.1-1.3l-1.5-7.1h-4.3
	L170.1,118.5z"/>
<path fill="#ED1A47" d="M186.1,117c0,0,1.8,1.8,4.8,1.8c3.1,0,4.9-1.8,4.9-3.8c0-3.9-5.6-4-5.6-4.9c0-0.4,0.6-0.6,1.2-0.6
	c1.7,0,2.9,1,2.9,1l1.4-2.9c0,0-1.4-1.4-4.2-1.4c-2.8,0-5,1.4-5,3.7c0,3.9,5.6,4,5.6,5.1c0,0.4-0.6,0.6-1.2,0.6
	c-1.7,0-3.1-1.2-3.1-1.2L186.1,117z"/>
<path fill="#ED1A47" d="M201.6,114.9c0,2.4,1.8,3.9,4.1,3.9c2.5,0,3.4-1.8,3.4-1.8h0c0,0,0,0.4,0,0.7v0.7h3.7v-7.4
	c0-3.1-2-4.9-5.4-4.9c-3,0-5.1,1.6-5.1,1.6l1.4,2.9c0,0,1.7-1.1,3.3-1.1c1,0,1.8,0.3,1.8,1.3v0.2h-0.2
	C206.7,111,201.6,111.4,201.6,114.9z M205.7,114.7c0-1,1.5-1.4,2.8-1.4h0.4v0.3c0,1-0.9,2.1-2,2.1
	C206,115.7,205.7,115.2,205.7,114.7z"/>
<path fill="#ED1A47" d="M215.7,114c0,4,3.7,4.6,5.6,4.6c0.7,0,1.1-0.1,1.1-0.1V115c0,0-0.2,0-0.5,0c-0.8,0-2.2-0.2-2.2-1.5v-3.7h2.5
	v-3.2h-2.5v-3.5h-3.9v3.5h-1.7v3.2h1.5V114z"/>
<path fill="#ED1A47" d="M228.3,112.5c0,3.8,3,6.3,6.8,6.3s6.8-2.5,6.8-6.3c0-3.8-3-6.3-6.9-6.3C231.4,106.2,228.3,108.7,228.3,112.5
	z M232.4,112.5c0-1.8,1.3-3,2.7-3c1.5,0,2.7,1.1,2.7,3c0,1.8-1.3,2.9-2.7,2.9C233.7,115.4,232.4,114.3,232.4,112.5z"/>
<path fill="#ED1A47" d="M243.6,118.5h4v-5.3c0-0.6,0.1-1.1,0.2-1.6c0.4-1,1.1-1.7,2.4-1.7c0.9,0,1.3,0.5,1.3,1.6v7.1h4v-7.8
	c0-3.4-1.9-4.5-4.3-4.5c-2.1,0-3.3,1.1-3.8,2.1h0c0,0,0-0.4,0-0.7v-1.1h-3.9V118.5z"/>
<path fill="#ED1A47" d="M257.1,112.5c0,3.3,2.4,6.3,6.7,6.3c3.4,0,5.2-2,5.2-2l-1.5-2.8c0,0-1.6,1.5-3.3,1.5c-2,0-3-1.6-3-3
	c0-1.4,1-2.9,2.9-2.9c1.7,0,2.8,1.2,2.8,1.2l1.7-2.7c0,0-1.5-1.8-4.8-1.8C259.5,106.2,257.1,109.2,257.1,112.5z"/>
<path fill="#ED1A47" d="M269.6,112.5c0,3.2,2.3,6.3,6.6,6.3c3.2,0,5.1-1.8,5.1-1.8l-1.5-2.8c0,0-1.6,1.2-3.3,1.2
	c-1.3,0-2.5-0.7-2.8-2.2h7.6c0,0,0.1-0.9,0.1-1.3c0-3.3-2-5.8-5.6-5.8C272,106.2,269.6,108.9,269.6,112.5z M273.8,110.9
	c0.2-0.9,0.8-1.7,1.9-1.7c1,0,1.6,0.8,1.6,1.7H273.8z"/>
<path fill="#ED1A47" d="M283,118.5h3.8v-3.8H283V118.5z"/>
<path fill="#696969" d="M51.2,150.9h3.3c-1.7-3.3-2.6-6.8-2.6-10.3c0-3.3,0.9-6.5,2.6-9.4h-3.3c-1.8,2.9-2.9,6.1-2.9,9.4
	C48.3,144.5,49.4,148.1,51.2,150.9z"/>
<path fill="#696969" d="M55.7,148.7h11.6v-3.5h-7.1c0.1-2.2,6.9-3.2,6.9-8.4c0-3.6-3-5.1-5.7-5.1c-4.4,0-5.9,3.6-5.9,3.6l3,2
	c0,0,0.9-1.8,2.5-1.8c0.9,0,1.8,0.5,1.8,1.7c0,2.4-7.2,3.5-7.2,9.7C55.5,147.4,55.5,148,55.7,148.7z"/>
<path fill="#696969" d="M68.3,148.7h4.5l1.9-3.5c0.6-1.1,1-2.1,1-2.1h0c0,0,0.4,1,1,2.1l1.9,3.5h4.6l-5.1-8.3l5.1-8.4h-4.7l-1.8,3.4
	c-0.6,1.1-1,2.2-1,2.2h0c0,0-0.5-1.1-1-2.2l-1.8-3.4h-4.7l5.1,8.4L68.3,148.7z"/>
<path fill="#696969" d="M88.7,145.1c0,2.4,1.8,3.9,4.1,3.9c2.5,0,3.4-1.8,3.4-1.8h0c0,0,0,0.4,0,0.7v0.7h3.7v-7.4
	c0-3.1-2-4.9-5.4-4.9c-3,0-5.1,1.6-5.1,1.6l1.4,2.9c0,0,1.7-1.1,3.3-1.1c1,0,1.8,0.3,1.8,1.3v0.2h-0.2
	C93.8,141.2,88.7,141.6,88.7,145.1z M92.8,144.9c0-1,1.5-1.4,2.8-1.4h0.4v0.3c0,1-0.9,2.1-2,2.1C93.1,145.9,92.8,145.4,92.8,144.9z"
	/>
<path fill="#696969" d="M102.2,148.7h4v-5.3c0-0.6,0.1-1.1,0.2-1.6c0.4-1,1.1-1.7,2.4-1.7c0.9,0,1.3,0.5,1.3,1.6v7.1h4v-7.8
	c0-3.4-1.9-4.5-4.3-4.5c-2.1,0-3.3,1.1-3.8,2.1h0c0,0,0-0.4,0-0.7v-1.1h-3.9V148.7z"/>
<path fill="#696969" d="M115.2,152.8c0,0,1.2,0.8,2.8,0.8c1.9,0,4-0.9,5-3.6l4.9-13.3h-4.4l-1.5,5.6c-0.2,0.7-0.4,1.8-0.4,1.8h0
	c0,0-0.2-1.2-0.4-1.9l-1.8-5.5h-4.6l5.1,11.8l-0.2,0.6c-0.4,1-1.3,1.2-1.9,1.2c-0.6,0-1.2-0.4-1.2-0.4L115.2,152.8z"/>
<path fill="#696969" d="M132.9,142.7c0,3.8,3,6.3,6.8,6.3c3.8,0,6.8-2.5,6.8-6.3c0-3.8-3-6.3-6.9-6.3
	C136,136.4,132.9,138.9,132.9,142.7z M137,142.7c0-1.8,1.3-3,2.7-3c1.5,0,2.7,1.1,2.7,3c0,1.8-1.3,2.9-2.7,2.9
	C138.3,145.6,137,144.5,137,142.7z"/>
<path fill="#696969" d="M148.8,144.2c0,4,3.7,4.6,5.6,4.6c0.7,0,1.1-0.1,1.1-0.1v-3.5c0,0-0.2,0-0.5,0c-0.8,0-2.2-0.2-2.2-1.5V140
	h2.5v-3.2h-2.5v-3.5h-3.9v3.5h-1.7v3.2h1.5V144.2z"/>
<path fill="#696969" d="M157.4,148.7h4v-5.3c0-0.6,0-1.1,0.2-1.5c0.4-1.1,1.2-1.8,2.4-1.8c0.9,0,1.3,0.5,1.3,1.6v7.1h4v-7.8
	c0-3.4-1.9-4.5-4.3-4.5c-1.6,0-3,0.7-3.7,1.9h0c0,0,0-0.4,0-1V132h-4V148.7z"/>
<path fill="#696969" d="M171,142.7c0,3.2,2.3,6.3,6.6,6.3c3.2,0,5.1-1.8,5.1-1.8l-1.5-2.8c0,0-1.6,1.2-3.3,1.2
	c-1.3,0-2.5-0.7-2.8-2.2h7.6c0,0,0.1-0.9,0.1-1.3c0-3.3-2-5.8-5.6-5.8C173.4,136.4,171,139.1,171,142.7z M175.2,141.1
	c0.2-0.9,0.8-1.7,1.9-1.7c1,0,1.6,0.8,1.6,1.7H175.2z"/>
<path fill="#696969" d="M184.5,148.7h4v-4.6c0-0.7,0.1-1.2,0.2-1.6c0.6-1.8,2.2-2.1,3.1-2.1c0.5,0,0.8,0.1,0.8,0.1v-4
	c0,0-0.2,0-0.5,0c-1.8,0-3.3,1.4-3.8,3h0c0,0,0-0.4,0-0.7v-2h-3.9V148.7z"/>
<path fill="#696969" d="M199.5,148.7h5.9c5.3,0,8.6-3.1,8.6-8.4c0-5.3-3.4-8.3-8.6-8.3h-5.9V148.7z M203.6,145.2v-9.7h1.7
	c2.8,0,4.6,1.6,4.6,4.8c0,3.2-1.7,4.9-4.6,4.9H203.6z"/>
<path fill="#696969" d="M220.2,148.7h4.3l5.9-16.7h-4.4l-3,9.5c-0.3,1.1-0.6,2.7-0.6,2.7h0c0,0-0.3-1.6-0.6-2.7l-2.9-9.5h-4.4
	L220.2,148.7z"/>
<path fill="#696969" d="M231.7,148.7h4.1v-5.6h1.9l3,5.6h4.6l-3.3-5.8c-0.4-0.7-0.6-1-0.6-1v0c1.7-0.8,2.5-2.8,2.5-4.6
	c0-2.4-1.2-4.1-3.1-4.9c-0.7-0.3-1.5-0.4-3.3-0.4h-5.8V148.7z M235.7,139.5v-4.1h1.4c2.1,0,2.5,0.7,2.5,2c0,1.3-0.8,2.1-2.1,2.1
	H235.7z"/>
<path fill="#696969" d="M248.8,150.9c1.8-2.9,2.9-6.4,2.9-10.3c0-3.4-1.1-6.6-2.9-9.4h-3.3c1.7,2.9,2.6,6.2,2.6,9.4
	c0,3.5-0.9,7-2.6,10.3H248.8z"/>
</svg>
