<?xml version="1.0" encoding="utf-8"?>
<!-- Generator: Adobe Illustrator 18.1.1, SVG Export Plug-In . SVG Version: 6.00 Build 0)  -->
<svg version="1.1" id="Layer_1" xmlns="http://www.w3.org/2000/svg" xmlns:xlink="http://www.w3.org/1999/xlink" x="0px" y="0px"
	 width="300px" height="250px" viewBox="0 0 300 250" enable-background="new 0 0 300 250" xml:space="preserve">
<path fill="#ED1A47" d="M32,139.9h10.4v-3.4H36v-3h4.9v-3.4H36v-2.9h6.1v-3.4H32V139.9z"/>
<path fill="#ED1A47" d="M46.8,139.9h4.7l3.9-11.5h-4.1l-1.8,6.1c-0.2,0.8-0.4,2-0.4,2h0c0,0-0.2-1.3-0.4-2l-1.8-6.1h-4.1L46.8,139.9
	z"/>
<path fill="#ED1A47" d="M55.6,134.1c0,3.1,2.2,6.1,6.3,6.1c3.1,0,4.9-1.7,4.9-1.7l-1.4-2.7c0,0-1.5,1.2-3.2,1.2
	c-1.2,0-2.4-0.7-2.7-2.1h7.3c0,0,0.1-0.8,0.1-1.2c0-3.2-1.9-5.6-5.3-5.6C57.9,128.1,55.6,130.7,55.6,134.1z M59.7,132.6
	c0.2-0.9,0.7-1.7,1.9-1.7c0.9,0,1.5,0.8,1.5,1.7H59.7z"/>
<path fill="#ED1A47" d="M68.6,139.9h3.9v-4.4c0-0.6,0.1-1.1,0.2-1.6c0.6-1.7,2.1-2,3-2c0.5,0,0.8,0.1,0.8,0.1v-3.8c0,0-0.2,0-0.4,0
	c-1.7,0-3.2,1.3-3.7,2.9h0c0,0,0-0.3,0-0.7v-2h-3.7V139.9z"/>
<path fill="#ED1A47" d="M77.1,143.8c0,0,1.2,0.8,2.7,0.8c1.8,0,3.9-0.9,4.8-3.5l4.7-12.8h-4.2l-1.5,5.4c-0.2,0.6-0.4,1.7-0.4,1.7h0
	c0,0-0.2-1.2-0.4-1.8l-1.7-5.3h-4.4l4.9,11.3l-0.2,0.5c-0.4,1-1.2,1.2-1.9,1.2c-0.6,0-1.2-0.4-1.2-0.4L77.1,143.8z"/>
<path fill="#ED1A47" d="M95,139.9h3.9v-4.8c0-0.5,0-1,0.1-1.4c0.3-1.2,0.9-2.1,2.1-2.1c0.7,0,0.9,0.6,0.9,1.5v6.8h3.9v-4.8
	c0-0.5,0-0.9,0.1-1.3c0.2-1.3,0.9-2.2,2.1-2.2c0.7,0,0.9,0.6,0.9,1.5v6.8h3.9v-7.5c0-3.2-1.6-4.3-3.7-4.3c-1.7,0-3.1,1-3.7,2h0
	c-0.6-1.3-1.8-2-3.2-2c-1.8,0-2.9,1.2-3.4,2h0c0,0,0-0.3,0-0.7v-1H95V139.9z"/>
<path fill="#ED1A47" d="M114.3,134.1c0,3.6,2.9,6,6.5,6s6.5-2.4,6.5-6c0-3.6-2.9-6.1-6.6-6.1C117.2,128.1,114.3,130.5,114.3,134.1z
	 M118.2,134.1c0-1.7,1.2-2.8,2.6-2.8s2.6,1.1,2.6,2.8c0,1.7-1.2,2.8-2.6,2.8S118.2,135.9,118.2,134.1z"/>
<path fill="#ED1A47" d="M128.9,139.9h3.9v-5.1c0-0.6,0.1-1.1,0.2-1.5c0.3-1,1.1-1.7,2.3-1.7c0.9,0,1.3,0.4,1.3,1.5v6.8h3.9v-7.5
	c0-3.3-1.8-4.3-4.1-4.3c-2,0-3.1,1.1-3.7,2h0c0,0,0-0.3,0-0.7v-1h-3.7V139.9z"/>
<path fill="#ED1A47" d="M143.3,135.6c0,3.9,3.6,4.4,5.4,4.4c0.6,0,1.1-0.1,1.1-0.1v-3.4c0,0-0.2,0-0.5,0c-0.7,0-2.1-0.2-2.1-1.5
	v-3.5h2.4v-3h-2.4v-3.3h-3.8v3.3h-1.6v3h1.5V135.6z"/>
<path fill="#ED1A47" d="M151.6,139.9h3.9v-5.1c0-0.5,0-1,0.2-1.5c0.3-1,1.1-1.7,2.3-1.7c0.9,0,1.3,0.4,1.3,1.5v6.8h3.9v-7.5
	c0-3.3-1.8-4.3-4.1-4.3c-1.5,0-2.9,0.7-3.5,1.8h0c0,0,0-0.4,0-1v-5.1h-3.9V139.9z"/>
<path fill="#ED1A47" d="M165.3,139.9h3.7v-3.7h-3.7V139.9z"/>
<path fill="#ED1A47" d="M175.1,129.2h3.4l1.2-5.7h-2.6L175.1,129.2z"/>
<path fill="#ED1A47" d="M185,139.9h3.9v-12.7h4.9v-3.4h-13.7v3.4h4.9V139.9z"/>
<path fill="#ED1A47" d="M194.9,126.9h3.8v-3h-3.8V126.9z M194.8,139.9h3.9v-11.5h-3.9V139.9z"/>
<path fill="#ED1A47" d="M201,135.6c0,3.9,2.2,4.4,4.3,4.4c0.6,0,1.2-0.1,1.2-0.1v-3.4c0,0-0.2,0-0.5,0c-0.9,0-1.1-0.4-1.1-1.5v-11.3
	H201V135.6z"/>
<path fill="#ED1A47" d="M212.4,139.9h11.1v-3.4h-6.8c0.1-2.1,6.6-3,6.6-8c0-3.4-2.8-4.9-5.5-4.9c-4.2,0-5.7,3.5-5.7,3.5l2.9,2
	c0,0,0.9-1.7,2.4-1.7c0.8,0,1.7,0.5,1.7,1.6c0,2.3-6.9,3.4-6.9,9.3C212.3,138.7,212.3,139.2,212.4,139.9z"/>
<path fill="#ED1A47" d="M231.4,140.1c4.6,0,6-3.7,6-8.3c0-4.6-1.5-8.3-6-8.3c-4.6,0-6,3.7-6,8.3
	C225.3,136.4,226.8,140.1,231.4,140.1z M231.4,136.6c-1.5,0-2-2.1-2-4.7c0-2.6,0.4-4.7,2-4.7c1.5,0,2,2.1,2,4.7
	C233.4,134.4,232.9,136.6,231.4,136.6z"/>
<path fill="#ED1A47" d="M239.4,139.9H250v-3.4h-3.4v-12.7h-3.4l-4.3,4.1l2.3,2.4l1-0.9c0.4-0.4,0.6-0.9,0.6-0.9h0c0,0,0,0.6,0,1.2
	v6.7h-3.4V139.9z"/>
<path fill="#ED1A47" d="M251.1,135.2c0,2.6,2,5,5.9,5c4,0,5.9-2.4,5.9-4.9c0-1.6-0.8-2.6-1.9-3.4c0.2-0.2,1.6-1.9,1.6-3.7
	c0-3-2.4-4.6-5.4-4.6c-3.7,0-5.4,2.3-5.4,4.6c0,1.4,0.6,2.3,1.5,3.1C252.8,131.6,251.1,133.1,251.1,135.2z M259,135
	c0,1.1-0.7,1.6-1.9,1.6c-1.1,0-1.9-0.8-1.9-1.9c0-0.9,0.5-1.5,0.9-2C257.5,133.6,259,134.1,259,135z M255.7,128.3
	c0-0.7,0.4-1.3,1.5-1.3c1.1,0,1.7,0.6,1.7,1.5c0,1-0.4,1.7-0.6,2C256.8,129.9,255.7,129.3,255.7,128.3z"/>
<path fill="#ED1A47" d="M264.9,139.9h3.7v-3.7h-3.7V139.9z"/>
<path fill="#ED1A47" d="M85.3,157.6c0,5.2,3.8,8.3,7.9,8.3c2.7,0,4.2-1.4,4.2-1.4h0c0,0,0,0.3,0,0.7v0.4h3.3v-9.1H95v3.3h2.3v1.2
	c0,0-1.4,1.2-3.3,1.2c-2.5,0-4.6-1.8-4.6-4.9c0-2.4,1.4-4.5,4.7-4.5c2.3,0,3.9,1.5,3.9,1.5l1.9-2.9c0,0-2.1-2.1-6.2-2.1
	C88.8,149.3,85.3,152.9,85.3,157.6z"/>
<path fill="#ED1A47" d="M102.6,161.6c0,3.3,1.8,4.3,4.1,4.3c1.5,0,3-0.8,3.6-2h0c0,0,0,0.3,0,0.7v1h3.7v-11.5h-3.9v5.1
	c0,1.7-0.8,3.2-2.4,3.2c-0.8,0-1.2-0.4-1.2-1.5v-6.8h-3.9V161.6z"/>
<path fill="#ED1A47" d="M115.6,162.2c0,2.3,1.8,3.7,3.9,3.7c2.4,0,3.3-1.7,3.3-1.7h0c0,0,0,0.3,0,0.7v0.7h3.5v-7.1
	c0-2.9-2-4.7-5.2-4.7c-2.8,0-4.8,1.5-4.8,1.5l1.3,2.7c0,0,1.7-1.1,3.1-1.1c1,0,1.7,0.3,1.7,1.3v0.2h-0.2
	C120.5,158.4,115.6,158.8,115.6,162.2z M119.5,162c0-1,1.4-1.3,2.6-1.3h0.4v0.2c0,0.9-0.9,2-1.9,2C119.8,163,119.5,162.5,119.5,162z
	"/>
<path fill="#ED1A47" d="M128.6,165.6h3.9v-4.4c0-0.6,0.1-1.1,0.2-1.6c0.6-1.7,2.1-2,3-2c0.5,0,0.8,0.1,0.8,0.1v-3.8c0,0-0.2,0-0.4,0
	c-1.7,0-3.2,1.3-3.7,2.9h0c0,0,0-0.3,0-0.7v-2h-3.7V165.6z"/>
<path fill="#ED1A47" d="M136.9,162.2c0,2.3,1.8,3.7,3.9,3.7c2.4,0,3.3-1.7,3.3-1.7h0c0,0,0,0.3,0,0.7v0.7h3.5v-7.1
	c0-2.9-2-4.7-5.2-4.7c-2.8,0-4.8,1.5-4.8,1.5l1.3,2.7c0,0,1.7-1.1,3.1-1.1c1,0,1.7,0.3,1.7,1.3v0.2h-0.2
	C141.8,158.4,136.9,158.8,136.9,162.2z M140.8,162c0-1,1.4-1.3,2.6-1.3h0.4v0.2c0,0.9-0.9,2-1.9,2C141.1,163,140.8,162.5,140.8,162z
	"/>
<path fill="#ED1A47" d="M149.9,165.6h3.9v-5.1c0-0.6,0.1-1.1,0.2-1.5c0.3-1,1.1-1.7,2.3-1.7c0.9,0,1.3,0.4,1.3,1.5v6.8h3.9v-7.5
	c0-3.3-1.8-4.3-4.1-4.3c-2,0-3.1,1.1-3.7,2h0c0,0,0-0.3,0-0.7v-1h-3.7V165.6z"/>
<path fill="#ED1A47" d="M164.2,161.4c0,3.9,3.6,4.4,5.4,4.4c0.6,0,1.1-0.1,1.1-0.1v-3.4c0,0-0.2,0-0.5,0c-0.7,0-2.1-0.2-2.1-1.5
	v-3.5h2.4v-3h-2.4V151h-3.8v3.3h-1.6v3h1.5V161.4z"/>
<path fill="#ED1A47" d="M171.7,159.9c0,3.1,2.2,6.1,6.3,6.1c3.1,0,4.9-1.7,4.9-1.7l-1.4-2.7c0,0-1.5,1.2-3.2,1.2
	c-1.2,0-2.4-0.7-2.7-2.1h7.3c0,0,0.1-0.8,0.1-1.2c0-3.2-1.9-5.6-5.3-5.6C174,153.8,171.7,156.5,171.7,159.9z M175.7,158.4
	c0.2-0.9,0.7-1.7,1.9-1.7c0.9,0,1.5,0.8,1.5,1.7H175.7z"/>
<path fill="#ED1A47" d="M183.9,159.9c0,3.1,2.2,6.1,6.3,6.1c3.1,0,4.9-1.7,4.9-1.7l-1.4-2.7c0,0-1.5,1.2-3.2,1.2
	c-1.2,0-2.4-0.7-2.7-2.1h7.3c0,0,0.1-0.8,0.1-1.2c0-3.2-1.9-5.6-5.3-5.6C186.1,153.8,183.9,156.5,183.9,159.9z M187.9,158.4
	c0.2-0.9,0.7-1.7,1.9-1.7c0.9,0,1.5,0.8,1.5,1.7H187.9z"/>
<path fill="#ED1A47" d="M196.1,159.9c0,3.6,2.1,6.1,5.2,6.1c2.4,0,3.3-1.7,3.3-1.7h0c0,0,0,0.3,0,0.7v0.8h3.6v-16h-3.9v4.6
	c0,0.3,0,0.5,0,0.5h0c0,0-0.7-0.9-3-0.9C198.3,153.8,196.1,156.2,196.1,159.9z M200,159.9c0-1.8,1.1-2.8,2.3-2.8
	c1.5,0,2.3,1.4,2.3,2.8c0,2-1.1,2.8-2.3,2.8C200.9,162.7,200,161.6,200,159.9z"/>
<path fill="#ED1A47" d="M210.6,165.6h3.7V162h-3.7V165.6z"/>
<path fill="#696969" d="M25.1,188.6h3.5v3.8h2.3v-3.8h3.5v-2.2h-3.5v-3.8h-2.3v3.8h-3.5V188.6z"/>
<path fill="#696969" d="M38.7,189.8c0,1.7,1.3,2.8,3,2.8c1.8,0,2.5-1.3,2.5-1.3h0c0,0,0,0.3,0,0.5v0.5h2.7V187
	c0-2.2-1.5-3.6-3.9-3.6c-2.2,0-3.7,1.1-3.7,1.1l1,2.1c0,0,1.3-0.8,2.4-0.8c0.7,0,1.3,0.2,1.3,1v0.2h-0.1
	C42.4,186.9,38.7,187.2,38.7,189.8z M41.7,189.6c0-0.7,1.1-1,2-1h0.3v0.2c0,0.7-0.7,1.5-1.4,1.5C41.9,190.4,41.7,190,41.7,189.6z"/>
<path fill="#696969" d="M48,188c0,2.7,1.6,4.6,3.9,4.6c1.8,0,2.5-1.3,2.5-1.3h0c0,0,0,0.2,0,0.5v0.6h2.8v-12.2h-2.9v3.5
	c0,0.2,0,0.4,0,0.4h0c0,0-0.5-0.7-2.3-0.7C49.6,183.4,48,185.2,48,188z M50.9,188c0-1.3,0.8-2.1,1.7-2.1c1.2,0,1.7,1,1.7,2.1
	c0,1.5-0.8,2.2-1.7,2.2C51.6,190.2,50.9,189.3,50.9,188z"/>
<path fill="#696969" d="M58.4,188c0,2.7,1.6,4.6,3.9,4.6c1.8,0,2.5-1.3,2.5-1.3h0c0,0,0,0.2,0,0.5v0.6h2.8v-12.2h-2.9v3.5
	c0,0.2,0,0.4,0,0.4h0c0,0-0.5-0.7-2.3-0.7C60.1,183.4,58.4,185.2,58.4,188z M61.4,188c0-1.3,0.8-2.1,1.7-2.1c1.2,0,1.7,1,1.7,2.1
	c0,1.5-0.8,2.2-1.7,2.2C62.1,190.2,61.4,189.3,61.4,188z"/>
<path fill="#696969" d="M73.4,192.4h3v-4.8h4.4v4.8h3v-12.2h-3v4.9h-4.4v-4.9h-3V192.4z"/>
<path fill="#696969" d="M85.3,188c0,2.7,2.2,4.6,5,4.6c2.8,0,5-1.8,5-4.6c0-2.8-2.2-4.6-5-4.6C87.5,183.4,85.3,185.3,85.3,188z
	 M88.3,188c0-1.3,0.9-2.2,2-2.2c1.1,0,2,0.8,2,2.2c0,1.3-0.9,2.1-2,2.1C89.2,190.2,88.3,189.4,88.3,188z"/>
<path fill="#696969" d="M96.4,195.8h2.9v-3.3c0-0.4,0-0.7,0-0.7h0c0,0,0.8,0.8,2.2,0.8c2.3,0,4.1-1.8,4.1-4.6c0-2.7-1.6-4.6-3.9-4.6
	c-1.9,0-2.7,1.2-2.7,1.2h0c0,0,0-0.3,0-0.6v-0.4h-2.7V195.8z M99.3,188.1c0-1.5,0.8-2.2,1.7-2.2c1,0,1.7,0.9,1.7,2.2
	c0,1.3-0.8,2.1-1.7,2.1C99.9,190.2,99.3,189.1,99.3,188.1z"/>
<path fill="#696969" d="M106.9,195.8h2.9v-3.3c0-0.4,0-0.7,0-0.7h0c0,0,0.8,0.8,2.2,0.8c2.3,0,4.1-1.8,4.1-4.6
	c0-2.7-1.6-4.6-3.9-4.6c-1.9,0-2.7,1.2-2.7,1.2h0c0,0,0-0.3,0-0.6v-0.4h-2.7V195.8z M109.8,188.1c0-1.5,0.8-2.2,1.7-2.2
	c1,0,1.7,0.9,1.7,2.2c0,1.3-0.8,2.1-1.7,2.1C110.3,190.2,109.8,189.1,109.8,188.1z"/>
<path fill="#696969" d="M116.8,188c0,2.3,1.7,4.6,4.8,4.6c2.3,0,3.7-1.3,3.7-1.3l-1.1-2.1c0,0-1.2,0.9-2.4,0.9c-0.9,0-1.8-0.5-2-1.6
	h5.5c0,0,0.1-0.6,0.1-0.9c0-2.4-1.5-4.2-4-4.2C118.5,183.4,116.8,185.4,116.8,188z M119.9,186.9c0.2-0.6,0.6-1.3,1.4-1.3
	c0.7,0,1.2,0.6,1.2,1.3H119.9z"/>
<path fill="#696969" d="M126.6,192.4h2.9v-3.3c0-0.5,0.1-0.9,0.2-1.2c0.4-1.3,1.6-1.5,2.3-1.5c0.4,0,0.6,0.1,0.6,0.1v-2.9
	c0,0-0.2,0-0.3,0c-1.3,0-2.4,1-2.8,2.2h0c0,0,0-0.3,0-0.5v-1.5h-2.8V192.4z"/>
<path fill="#696969" d="M137.7,192.4h2.9v-6.3h1.6v-2.3h-1.6v-0.3c0-0.7,0.9-0.8,1.5-0.8c0.3,0,0.5,0,0.5,0v-2.5
	c0,0-0.4-0.1-0.9-0.1c-1.4,0-4,0.4-4,3.3v0.4h-1.1v2.3h1.1V192.4z"/>
<path fill="#696969" d="M142.7,188c0,2.7,2.2,4.6,5,4.6c2.8,0,5-1.8,5-4.6c0-2.8-2.2-4.6-5-4.6C144.9,183.4,142.7,185.3,142.7,188z
	 M145.7,188c0-1.3,0.9-2.2,2-2.2s2,0.8,2,2.2c0,1.3-0.9,2.1-2,2.1S145.7,189.4,145.7,188z"/>
<path fill="#696969" d="M153.8,192.4h2.9v-3.3c0-0.5,0.1-0.9,0.2-1.2c0.4-1.3,1.6-1.5,2.3-1.5c0.4,0,0.6,0.1,0.6,0.1v-2.9
	c0,0-0.2,0-0.3,0c-1.3,0-2.4,1-2.8,2.2h0c0,0,0-0.3,0-0.5v-1.5h-2.8V192.4z"/>
<path fill="#696969" d="M163.9,190.9c0,0,1.2,1.3,3.5,1.7v1.5h1.9v-1.5c2.2-0.3,3.4-1.9,3.4-3.7c0-3.8-5.5-3.7-5.5-5.1
	c0-0.7,0.7-1,1.3-1c1.5,0,2.7,1.1,2.7,1.1l1.3-2.4c0,0-1-1.1-3.1-1.3v-1.5h-1.9v1.6c-1.9,0.4-3.2,1.7-3.2,3.6c0,3.7,5.5,3.8,5.5,5.1
	c0,0.7-0.7,1-1.3,1c-1.5,0-2.9-1.3-2.9-1.3L163.9,190.9z"/>
<path fill="#696969" d="M173.9,192.4h8.1v-2.6h-2.6v-9.6h-2.6l-3.3,3.1l1.7,1.8l0.7-0.7c0.3-0.3,0.5-0.6,0.5-0.6h0c0,0,0,0.5,0,0.9
	v5.1h-2.6V192.4z"/>
<path fill="#696969" d="M187.5,192.6c3.5,0,4.6-2.8,4.6-6.3c0-3.5-1.1-6.3-4.6-6.3c-3.5,0-4.6,2.8-4.6,6.3
	C183,189.8,184.1,192.6,187.5,192.6z M187.5,189.9c-1.2,0-1.5-1.6-1.5-3.6c0-2,0.3-3.5,1.5-3.5c1.2,0,1.5,1.6,1.5,3.5
	C189,188.3,188.7,189.9,187.5,189.9z"/>
<path fill="#696969" d="M193,193.1h2.4l4.4-13.5h-2.4L193,193.1z"/>
<path fill="#696969" d="M200.7,192.4h2.9v-3.6c0-0.4,0-0.8,0.1-1.1c0.2-0.9,0.7-1.6,1.6-1.6c0.6,0,0.7,0.5,0.7,1.1v5.2h2.9v-3.6
	c0-0.4,0-0.7,0.1-1c0.2-1,0.7-1.6,1.6-1.6c0.6,0,0.7,0.5,0.7,1.1v5.2h2.9v-5.7c0-2.4-1.2-3.3-2.8-3.3c-1.3,0-2.3,0.7-2.8,1.5h0
	c-0.5-1-1.3-1.5-2.4-1.5c-1.4,0-2.2,0.9-2.6,1.5h0c0,0,0-0.3,0-0.5v-0.8h-2.8V192.4z"/>
<path fill="#696969" d="M215.4,188c0,2.7,2.2,4.6,5,4.6c2.8,0,5-1.8,5-4.6c0-2.8-2.2-4.6-5-4.6C217.6,183.4,215.4,185.3,215.4,188z
	 M218.3,188c0-1.3,0.9-2.2,2-2.2s2,0.8,2,2.2c0,1.3-0.9,2.1-2,2.1S218.3,189.4,218.3,188z"/>
<path fill="#696969" d="M230,192.4h2.9v-3.6c0-0.4,0-0.8,0.1-1.1c0.2-0.9,0.7-1.6,1.6-1.6c0.6,0,0.7,0.5,0.7,1.1v5.2h2.9v-3.6
	c0-0.4,0-0.7,0.1-1c0.2-1,0.7-1.6,1.6-1.6c0.6,0,0.7,0.5,0.7,1.1v5.2h2.9v-5.7c0-2.4-1.2-3.3-2.8-3.3c-1.3,0-2.3,0.7-2.8,1.5h0
	c-0.5-1-1.3-1.5-2.4-1.5c-1.4,0-2.2,0.9-2.6,1.5h0c0,0,0-0.3,0-0.5v-0.8H230V192.4z"/>
<path fill="#696969" d="M244.7,188c0,2.7,2.2,4.6,5,4.6c2.8,0,5-1.8,5-4.6c0-2.8-2.2-4.6-5-4.6C246.9,183.4,244.7,185.3,244.7,188z
	 M247.6,188c0-1.3,0.9-2.2,2-2.2s2,0.8,2,2.2c0,1.3-0.9,2.1-2,2.1S247.6,189.4,247.6,188z"/>
<path fill="#696969" d="M255.8,192.4h2.9v-3.3c0-0.5,0.1-0.9,0.2-1.2c0.4-1.3,1.6-1.5,2.3-1.5c0.4,0,0.6,0.1,0.6,0.1v-2.9
	c0,0-0.2,0-0.3,0c-1.3,0-2.4,1-2.8,2.2h0c0,0,0-0.3,0-0.5v-1.5h-2.8V192.4z"/>
<path fill="#696969" d="M262.1,188c0,2.3,1.7,4.6,4.8,4.6c2.3,0,3.7-1.3,3.7-1.3l-1.1-2.1c0,0-1.2,0.9-2.4,0.9c-0.9,0-1.8-0.5-2-1.6
	h5.5c0,0,0.1-0.6,0.1-0.9c0-2.4-1.5-4.2-4-4.2C263.9,183.4,262.1,185.4,262.1,188z M265.2,186.9c0.2-0.6,0.6-1.3,1.4-1.3
	c0.7,0,1.2,0.6,1.2,1.3H265.2z"/>
<path fill="#696969" d="M271.9,192.4h2.8v-2.8h-2.8V192.4z"/>
<path fill="#8F278C" d="M180.4,107c0,1.2,1,1.8,2.1,1.8c1.5,0,1.9-1.2,1.9-1.2h0c0,0,0,0.2,0,0.5v0.6h1.1v-3.8
	c0-1.5-0.9-2.4-2.4-2.4c-1.4,0-2.3,0.7-2.3,0.7l0.5,0.9c0,0,0.8-0.6,1.7-0.6c0.8,0,1.3,0.3,1.3,1.3v0.1h-0.3
	C183.1,104.9,180.4,105,180.4,107z M181.6,107c0-1.1,1.6-1.2,2.5-1.2h0.3v0.2c0,0.9-0.6,1.9-1.6,1.9
	C182,107.9,181.6,107.4,181.6,107z"/>
<path fill="#8F278C" d="M189.9,108.7h1.2v-2.8c0-0.3,0-0.6,0.1-0.8c0.2-0.9,0.9-1.6,1.7-1.6c0.9,0,1.1,0.7,1.1,1.5v3.6h1.2v-2.8
	c0-0.3,0-0.6,0.1-0.8c0.2-0.8,0.9-1.5,1.7-1.5c0.9,0,1.1,0.7,1.1,1.5v3.6h1.2v-3.9c0-1.5-0.6-2.3-2-2.3c-1,0-1.8,0.6-2.2,1.4h0
	c-0.2-0.9-0.8-1.4-1.8-1.4c-0.9,0-1.8,0.7-2.1,1.4h0c0,0,0-0.2,0-0.4v-0.8h-1.1V108.7z"/>
<path fill="#8F278C" d="M200.1,105.7c0,1.8,1.5,3.2,3.3,3.2s3.3-1.3,3.3-3.2c0-1.8-1.5-3.2-3.3-3.2S200.1,103.8,200.1,105.7z
	 M201.3,105.7c0-1.3,0.9-2.2,2.1-2.2c1.2,0,2.1,0.9,2.1,2.2c0,1.3-0.9,2.2-2.1,2.2C202.3,107.9,201.3,106.9,201.3,105.7z"/>
<path fill="#8F278C" d="M207.8,108.7h1.2v-2.8c0-0.3,0-0.6,0.1-0.8c0.3-0.9,1-1.5,1.9-1.5c1,0,1.2,0.7,1.2,1.5v3.6h1.2v-3.9
	c0-1.5-0.7-2.3-2.1-2.3c-1.3,0-2,0.9-2.3,1.4h0c0,0,0-0.2,0-0.4v-0.8h-1.1V108.7z"/>
<path fill="#8F278C" d="M215.1,106.5c0,2,1.5,2.3,2.3,2.3c0.2,0,0.4,0,0.4,0v-1c0,0-0.1,0-0.3,0c-0.4,0-1.3-0.2-1.3-1.4v-2.7h1.5
	v-0.9h-1.5V101h-1.1v1.8h-0.8v0.9h0.8V106.5z"/>
<path fill="#8F278C" d="M218.9,108.7h1.2v-2.8c0-0.3,0-0.6,0.1-0.8c0.3-0.9,1-1.5,1.9-1.5c1,0,1.2,0.7,1.2,1.5v3.6h1.2v-3.9
	c0-1.5-0.7-2.3-2.1-2.3c-1.2,0-2,0.8-2.2,1.4h0c0,0,0-0.2,0-0.5v-3.1h-1.2V108.7z"/>
<g>
	<path fill-rule="evenodd" clip-rule="evenodd" fill="#8F278C" d="M182,97v-1h42v1H182z"/>
	<path fill="#8F278C" d="M224.5,97.5h-43v-2h43V97.5z M182.5,96.5h41H182.5z"/>
</g>
<path fill="#8F278C" d="M78.7,87.1c0,0,2.5,2.8,7.1,3.4v3.2h3.8v-3.2c4.5-0.7,7-3.9,7-7.6c0-7.7-11.4-7.5-11.4-10.5
	c0-1.4,1.4-2,2.7-2c3,0,5.5,2.2,5.5,2.2l2.6-5c0,0-2.1-2.2-6.4-2.7v-3.2h-3.8v3.3c-3.9,0.7-6.7,3.5-6.7,7.5
	c0,7.5,11.4,7.8,11.4,10.6c0,1.5-1.4,2-2.6,2c-3.2,0-6-2.6-6-2.6L78.7,87.1z"/>
<path fill="#8F278C" d="M99.1,101.2h22.2v12.1h12.1v-12.1h6V91h-6V63.2h-15L99.1,93.8V101.2z M111.6,91v-0.1l7.6-11.5
	c1.4-2.1,2.5-5.2,2.5-5.2h0.1c0,0-0.4,2.9-0.4,5.6V91H111.6z"/>
<path fill="#8F278C" d="M154.4,114.1c15.5,0,23.9-14.2,23.9-27.8c0-16.3-10.2-23.9-20.3-23.9c-10.9,0-17.1,8.4-17.1,16.9
	c0,8.6,6,17.2,16.4,17.2c2.4,0,5.7-0.8,6.9-1.8h0.1c-1.5,4.6-4.9,8.3-10.8,8.3c-3.6,0-6.9-1.5-6.9-1.5l-3.3,10.5
	C143.4,112,147.4,114.1,154.4,114.1z M160.5,86.6c-5.4,0-7.6-3.8-7.6-7.4c0-2.9,2-5.6,5-5.6c3.5,0,7.7,4,7.7,9.9
	C165.7,85.9,163.3,86.6,160.5,86.6z"/>
<path fill="#8F278C" d="M188.2,90.7c7.8,0,11.9-7.1,11.9-13.9c0-8.2-5.1-12-10.2-12c-5.4,0-8.5,4.2-8.5,8.4c0,4.3,3,8.6,8.2,8.6
	c1.2,0,2.9-0.4,3.4-0.9h0.1c-0.8,2.3-2.5,4.1-5.4,4.1c-1.8,0-3.4-0.7-3.4-0.7l-1.6,5.3C182.7,89.6,184.7,90.7,188.2,90.7z
	 M191.3,76.9c-2.7,0-3.8-1.9-3.8-3.7c0-1.5,1-2.8,2.5-2.8c1.8,0,3.9,2,3.9,5C193.9,76.6,192.7,76.9,191.3,76.9z"/>
<path fill="#8F278C" d="M209.2,90.7c7.8,0,11.9-7.1,11.9-13.9c0-8.2-5.1-12-10.2-12c-5.4,0-8.5,4.2-8.5,8.4c0,4.3,3,8.6,8.2,8.6
	c1.2,0,2.9-0.4,3.4-0.9h0.1c-0.8,2.3-2.5,4.1-5.4,4.1c-1.8,0-3.4-0.7-3.4-0.7l-1.6,5.3C203.7,89.6,205.7,90.7,209.2,90.7z
	 M212.2,76.9c-2.7,0-3.8-1.9-3.8-3.7c0-1.5,1-2.8,2.5-2.8c1.8,0,3.9,2,3.9,5C214.8,76.6,213.6,76.9,212.2,76.9z"/>
</svg>
