<?xml version="1.0" encoding="utf-8"?>
<!-- Generator: Adobe Illustrator 18.1.1, SVG Export Plug-In . SVG Version: 6.00 Build 0)  -->
<svg version="1.1" id="Layer_1" xmlns="http://www.w3.org/2000/svg" xmlns:xlink="http://www.w3.org/1999/xlink" x="0px" y="0px"
	 width="126px" height="28px" viewBox="0 0 126 28" enable-background="new 0 0 126 28" xml:space="preserve">
<path fill-rule="evenodd" clip-rule="evenodd" fill="#AA852E" d="M3,0h120c1.7,0,3,1.3,3,3v22c0,1.7-1.3,3-3,3H3c-1.7,0-3-1.3-3-3V3
	C0,1.3,1.3,0,3,0z"/>
<path fill="#FFFFFF" d="M20.4,18.9h2v-3.7h3.2v-1.7h-3.2v-2.1h3.4V9.8h-5.5V18.9z"/>
<path fill="#FFFFFF" d="M27.8,9.8v9.1h2V9.8H27.8z"/>
<path fill="#FFFFFF" d="M33.9,18.9v-2.7c0-1.5,0-2.8-0.1-4l0,0c0.4,1.1,1,2.2,1.6,3.2l1.9,3.5h2.1V9.8h-1.9v2.7c0,1.4,0,2.6,0.2,3.8
	h0c-0.4-1-0.9-2.2-1.5-3.1l-1.9-3.3H32v9.1H33.9z"/>
<path fill="#FFFFFF" d="M41.6,18.8c0.5,0.1,1.3,0.1,2.3,0.1c1.8,0,3.2-0.4,4.1-1.2c0.9-0.7,1.5-1.9,1.5-3.7c0-1.6-0.6-2.7-1.5-3.4
	c-0.9-0.7-2-1-3.7-1c-1,0-2,0.1-2.7,0.2V18.8z M43.6,11.4c0.2,0,0.5-0.1,0.9-0.1c1.7,0,2.8,1,2.8,2.9c0,2.2-1.2,3.2-3,3.2
	c-0.3,0-0.5,0-0.7,0V11.4z"/>
<path fill="#FFFFFF" d="M54.4,18.9h2v-3.6H57c0.8,0,1.2,0.3,1.5,1.5c0.3,1.1,0.5,1.9,0.6,2.1h2.1c-0.2-0.4-0.5-1.5-0.7-2.6
	c-0.2-0.8-0.6-1.4-1.2-1.7v0c0.8-0.3,1.6-1.1,1.6-2.2c0-0.8-0.3-1.5-0.8-1.9c-0.6-0.5-1.6-0.7-2.9-0.7c-1.1,0-2.1,0.1-2.7,0.2V18.9z
	 M56.4,11.3c0.1,0,0.4-0.1,0.9-0.1c0.9,0,1.5,0.4,1.5,1.3c0,0.8-0.6,1.3-1.6,1.3h-0.8V11.3z"/>
<path fill="#FFFFFF" d="M68,13.4h-3.3v-1.9h3.5V9.8h-5.5v9.1h5.7v-1.7h-3.7V15H68V13.4z"/>
<path fill="#FFFFFF" d="M76.4,17c-0.4,0.2-1.1,0.3-1.7,0.3c-1.8,0-2.9-1.1-2.9-3c0-2,1.3-3,2.9-3c0.7,0,1.3,0.2,1.7,0.3l0.4-1.6
	c-0.4-0.2-1.2-0.4-2.2-0.4c-2.7,0-4.9,1.7-4.9,4.8c0,2.6,1.6,4.5,4.7,4.5c1.1,0,1.9-0.2,2.3-0.4L76.4,17z"/>
<path fill="#FFFFFF" d="M78.5,9.8v9.1h2V9.8H78.5z"/>
<path fill="#FFFFFF" d="M82.7,18.9h2v-3.3c0.2,0,0.4,0,0.7,0c1.2,0,2.2-0.3,2.9-1c0.5-0.5,0.8-1.3,0.8-2.2c0-0.9-0.4-1.6-1-2.1
	c-0.6-0.5-1.5-0.7-2.7-0.7c-1.2,0-2.1,0.1-2.7,0.2V18.9z M84.7,11.3c0.1,0,0.4-0.1,0.8-0.1c1,0,1.6,0.5,1.6,1.3
	c0,0.9-0.7,1.5-1.7,1.5c-0.3,0-0.5,0-0.7-0.1V11.3z"/>
<path fill="#FFFFFF" d="M96.1,13.4h-3.3v-1.9h3.5V9.8h-5.5v9.1h5.7v-1.7h-3.7V15h3.3V13.4z"/>
<path fill="#FFFFFF" d="M98,18.5c0.5,0.3,1.5,0.6,2.5,0.6c2.5,0,3.6-1.3,3.6-2.8c0-1.3-0.7-2.1-2.3-2.7c-1.2-0.4-1.7-0.7-1.7-1.3
	c0-0.5,0.4-0.9,1.3-0.9c0.9,0,1.5,0.3,1.9,0.4l0.5-1.7c-0.5-0.2-1.3-0.5-2.3-0.5c-2.1,0-3.4,1.2-3.4,2.7c0,1.3,1,2.2,2.5,2.7
	c1.1,0.4,1.5,0.7,1.5,1.3c0,0.6-0.5,1-1.4,1c-0.9,0-1.7-0.3-2.3-0.6L98,18.5z"/>
</svg>
