<?xml version="1.0" encoding="utf-8"?>
<!-- Generator: Adobe Illustrator 18.1.1, SVG Export Plug-In . SVG Version: 6.00 Build 0)  -->
<svg version="1.1" id="Layer_1" xmlns="http://www.w3.org/2000/svg" xmlns:xlink="http://www.w3.org/1999/xlink" x="0px" y="0px"
	 width="28.5px" height="11.6px" viewBox="0 0 28.5 11.6" enable-background="new 0 0 28.5 11.6" xml:space="preserve">
<path fill="#FFFFFF" d="M7,0.9C6.8,0.8,6,0.4,4.8,0.4c-3,0-4.3,2-4.3,4.2c0,2.4,1.5,4.2,4.3,4.2c1.1,0,1.9-0.3,2.1-0.4L6.5,6.8
	C6.3,6.9,5.7,7.3,4.7,7.3c-1.6,0-2.4-1.1-2.4-2.8c0-1.8,0.9-2.8,2.4-2.8c1,0,1.5,0.4,1.8,0.5L7,0.9z"/>
<path fill="#FFFFFF" d="M9.7,8.6V0H8v8.6H9.7z"/>
<path fill="#FFFFFF" d="M13.8,3.8c0.9,0,1.3,0.8,1.3,1.8c0,1.1-0.5,1.8-1.3,1.8c-1.1,0-1.3-1-1.3-1.8C12.4,4.5,13,3.8,13.8,3.8z
	 M10.7,5.6c0,2,1.2,3.1,3,3.1c2.1,0,3-1.4,3-3.1c0-1.8-1-3.1-3-3.1C11.5,2.6,10.7,4.1,10.7,5.6z"/>
<path fill="#FFFFFF" d="M20,2.6c-1.3,0-2.4,0.5-2.4,1.8c0,1.2,1,1.6,1.5,1.8l0.4,0.2C20,6.5,20.2,6.7,20.2,7c0,0.4-0.3,0.5-1,0.5
	c-0.5,0-1-0.1-1.2-0.2c-0.1,0-0.2,0-0.3,0c-0.1,0-0.1,0-0.1,0.2l-0.1,1.2c0.2,0,0.7,0.2,1.6,0.2c1.3,0,2.7-0.5,2.7-1.9
	c0-1-0.7-1.5-1.2-1.6L20,4.9c-0.5-0.2-0.8-0.3-0.8-0.7c0-0.4,0.3-0.5,0.8-0.5c0.7,0,1,0.3,1.3,0.3c0.1,0,0.2,0,0.2-0.2
	c0-0.3,0.1-0.8,0.1-1C21.5,2.7,20.8,2.6,20,2.6z"/>
<path fill="#FFFFFF" d="M25.5,2.6c-1.7,0-3,1.2-3,3.1c0,2,1.2,3,3.3,3c0.9,0,1.6-0.2,1.8-0.3c0-0.3,0-1-0.1-1.2c0-0.1,0-0.1-0.1-0.1
	c-0.1,0-0.1,0-0.2,0.1c-0.1,0.1-0.6,0.3-1.3,0.3c-1.4,0-1.7-0.9-1.8-1.5h3.9c0-0.1,0.1-0.4,0.1-0.8C28.3,4,27.5,2.6,25.5,2.6z
	 M24.3,5c0-0.5,0.4-1.3,1.2-1.3c0.8,0,1.1,0.7,1.1,1.1c0,0,0,0.1,0,0.1H24.3z"/>
<path fill="#FFFFFF" d="M0,11.6V11h28.5v0.6H0z"/>
</svg>
