<?xml version="1.0" encoding="utf-8"?>
<!-- Generator: Adobe Illustrator 18.1.1, SVG Export Plug-In . SVG Version: 6.00 Build 0)  -->
<svg version="1.1" xmlns="http://www.w3.org/2000/svg" xmlns:xlink="http://www.w3.org/1999/xlink" x="0px" y="0px" width="123px"
	 height="32px" viewBox="0 0 123 32" enable-background="new 0 0 123 32" xml:space="preserve">
<g id="Layer_2">
	<path fill-rule="evenodd" clip-rule="evenodd" fill="#1F2D60" d="M0,0h123v32H0V0z"/>
</g>
<g id="Layer_1">
	<path fill="#FFFFFF" d="M21,19.7v-4.3h-4.3v1.9h2.2v1.4c-0.5,0.4-1.2,0.6-2,0.6c-1.7,0-3-1.3-3-3.1v0c0-1.7,1.2-3.1,2.8-3.1
		c1.1,0,1.8,0.4,2.6,1l1.4-1.6c-1-0.9-2.1-1.3-3.9-1.3c-3,0-5.1,2.3-5.1,5.1v0c0,2.9,2.1,5,5.2,5C18.6,21.2,20,20.5,21,19.7z"/>
	<path fill="#FFFFFF" d="M30.7,21.1v-1.9h-5.3v-2.1H30v-1.9h-4.6v-2h5.3v-1.9h-7.4v9.8H30.7z"/>
	<path fill="#FFFFFF" d="M40.1,13.3v-2H32v2h3v7.8h2.2v-7.8H40.1z"/>
	<path fill="#FFFFFF" d="M55.6,21.1l-4.2-9.9h-2l-4.2,9.9h2.2l0.9-2.2h4.1l0.9,2.2H55.6z M51.6,17H49l1.3-3.2L51.6,17z"/>
	<path fill="#FFFFFF" d="M71.4,19.8l-1-0.9c0.6-0.8,0.9-1.8,0.9-2.8v0c0-2.8-2.2-5-5.2-5c-3,0-5.2,2.3-5.2,5.1v0c0,2.8,2.2,5,5.2,5
		c1.1,0,2.1-0.3,2.9-0.8l1.1,1L71.4,19.8z M69,16.2c0,0.5-0.1,0.9-0.3,1.3l-1.6-1.5l-1.4,1.5l1.6,1.4c-0.4,0.2-0.8,0.3-1.3,0.3
		c-1.7,0-3-1.4-3-3.1v0c0-1.7,1.2-3.1,2.9-3.1C67.8,13.1,69,14.5,69,16.2L69,16.2z"/>
	<path fill="#FFFFFF" d="M81.7,16.8v-5.5h-2.2v5.6c0,1.6-0.8,2.4-2.1,2.4c-1.3,0-2.1-0.8-2.1-2.4v-5.5h-2.2v5.6
		c0,2.9,1.6,4.4,4.2,4.4C80,21.2,81.7,19.8,81.7,16.8z"/>
	<path fill="#FFFFFF" d="M93.9,16.2L93.9,16.2c0-2.8-2.2-5.1-5.2-5.1c-3,0-5.2,2.3-5.2,5.1v0c0,2.8,2.2,5,5.2,5
		C91.7,21.2,93.9,19,93.9,16.2z M91.7,16.2c0,1.7-1.2,3.1-2.9,3.1s-3-1.4-3-3.1v0c0-1.7,1.2-3.1,2.9-3.1
		C90.4,13.1,91.7,14.5,91.7,16.2L91.7,16.2z"/>
	<path fill="#FFFFFF" d="M103,13.3v-2h-8.1v2h3v7.8h2.2v-7.8H103z"/>
	<path fill="#FFFFFF" d="M112,21.1v-1.9h-5.3v-2.1h4.6v-1.9h-4.6v-2h5.3v-1.9h-7.4v9.8H112z"/>
</g>
</svg>
