<?xml version="1.0" encoding="utf-8"?>
<!-- Generator: Adobe Illustrator 18.1.1, SVG Export Plug-In . SVG Version: 6.00 Build 0)  -->
<svg version="1.1" id="Layer_1" xmlns="http://www.w3.org/2000/svg" xmlns:xlink="http://www.w3.org/1999/xlink" x="0px" y="0px"
	 viewBox="0 0 168.2 41.7" enable-background="new 0 0 168.2 41.7" xml:space="preserve">
<g>
	<path fill="#FFFFFF" d="M37.3,22.6c0,1.1,0.4,1.4,2.1,1.4c1.6,0,2.3-0.5,3.4-2.7h0.4l-0.4,3.4h-10v-0.4c1.5-0.4,1.6-0.7,1.6-2.1V14
		c0-1.2-0.3-1.5-1.6-1.8v-0.4h6.2v0.4c-1.3,0.3-1.6,0.6-1.6,1.7V22.6z"/>
	<path fill="#FFFFFF" d="M47.3,23c0,0.8,0.4,1.3,1.4,1.4v0.4h-5.3v-0.4c1.1-0.2,1.4-0.5,1.4-1.6v-4.5c0-1-0.3-1.3-1.5-1.6v-0.4
		l3.7-0.3h0.4V23z M46,10.8c0.8,0,1.4,0.6,1.4,1.4c0,0.8-0.6,1.5-1.4,1.5c-0.8,0-1.5-0.7-1.5-1.5C44.6,11.5,45.2,10.8,46,10.8"/>
	<path fill="#FFFFFF" d="M52.8,18.2c0.8-0.8,1.3-1,2-1c1.5,0,2.5,1.4,2.5,3.5c0,2.7-1.2,3.9-3.1,3.9c-1,0-1.3-0.4-1.3-1.4V18.2z
		 M52.8,10.8h-0.4L49,11.1v0.4c0.8,0.1,1.3,0.5,1.3,1.2v12.1c1.3,0.2,2.5,0.3,4.1,0.3c4.1,0,5.7-2.1,5.7-4.7c0-2.5-1.7-4.3-4-4.3
		c-1.2,0-2.2,0.5-3.2,1.5V10.8z"/>
	<path fill="#FFFFFF" d="M63.7,19.3c0.1-1.6,0.8-2.7,1.8-2.7c1,0,1.8,1.1,1.9,2.7H63.7z M70.1,19.8c-0.3-2.3-2-3.8-4.4-3.8
		c-2.7,0-4.7,2-4.7,4.6c0,2.6,2,4.5,4.6,4.5c2,0,3.7-1.1,4.5-2.9h-0.4c-0.8,1.2-1.8,1.8-3,1.8c-1.6,0-3.1-1.4-3-4.2H70.1z"/>
	<path fill="#FFFFFF" d="M78.2,19.3c-0.7-0.7-1.3-1.1-1.9-1.1c-0.8,0-1.2,0.3-1.9,1.2v3.4c0,1,0.2,1.3,1.4,1.6v0.4h-5.3v-0.4
		c1.1-0.3,1.4-0.6,1.4-1.6v-4.4c0-1.1-0.5-1.6-1.5-1.6v-0.4l3.7-0.3h0.4v2.7h0c0.8-1.8,1.7-2.7,2.8-2.7c0.6,0,1.1,0.2,1.5,0.7
		L78.2,19.3z"/>
	<path fill="#FFFFFF" d="M92.4,16.4v0.4c1.1,0.2,1.3,0.9,0.6,2.7l-1.2,2.7L90,18.5c-0.5-1.1-0.5-1.6,0.4-1.7v-0.4h-4.9h-0.2H83v-3.3
		h-0.4c-1.2,1.5-2.6,2.9-3.6,3.5v0.4h1.5v5.4c0,1.9,1.3,2.7,2.9,2.7c1.3,0,2.1-0.4,2.7-1.5l-0.3-0.2c-0.4,0.5-0.8,0.7-1.2,0.7
		c-1.2,0-1.5-0.8-1.5-2.2v-4.8h2.3c1.2,0,1.6,0.4,2.1,1.6l3.1,6.5c-1,2.8-1.9,3.9-3.5,3.9c-0.3,0-0.6,0-1.1-0.2l-0.5,2.5
		c0.3,0,0.5,0,0.7,0c1.7,0,2.7-0.7,3.6-2.8l4.2-9.7c0.7-1.6,1-1.9,2-2.2v-0.4H92.4z"/>
	<path fill="#FFFFFF" d="M116.7,22.5c0.2,1.1,0.7,1.8,2,2v0.4h-6.4v-0.4c1.4-0.4,1.7-1.2,1.4-2.9l-1.1-7.4h0l-4.2,10.7h-0.5
		l-4.2-10.7h0l-1.1,7.7c-0.2,1.5,0.1,2.5,1.5,2.7v0.4h-4.7v-0.4c1.4-0.1,2-0.9,2.3-2.9l1.3-8.5c-0.5-0.5-1.2-0.9-1.9-0.9v-0.4h4.7
		l3.4,8.6l3.5-8.6h4.4v0.4c-1.3,0.2-1.6,0.9-1.5,2.1L116.7,22.5z"/>
	<path fill="#FFFFFF" d="M119.7,18.3c0-0.9-0.3-1.3-1.3-1.4v-0.4l3.5-0.3h0.4v6.2c0,1,0.6,1.5,1.6,1.5c0.8,0,1.4-0.4,2.1-1.5v-4.2
		c0-0.7-0.4-1.1-1.3-1.2v-0.4l3.5-0.3h0.4v6.7c0,1.1,0.2,1.4,1.3,1.7v0.4l-3.9,0.3v-2h0c-0.9,1.4-2,2-3.3,2c-1.7,0-2.8-1-2.8-2.6
		V18.3z"/>
	<path fill="#FFFFFF" d="M131.7,17.1h-1.5v-0.4c1-0.6,2.4-2,3.6-3.5h0.4v3.3h2.8v0.7h-2.8V22c0,1.4,0.4,2.2,1.5,2.2
		c0.4,0,0.8-0.2,1.2-0.7l0.3,0.2c-0.6,1-1.4,1.5-2.7,1.5c-1.6,0-2.9-0.8-2.9-2.7V17.1z"/>
	<path fill="#FFFFFF" d="M138.6,18.3c0-0.9-0.3-1.3-1.3-1.4v-0.4l3.5-0.3h0.4v6.2c0,1,0.6,1.5,1.6,1.5c0.8,0,1.4-0.4,2.1-1.5v-4.2
		c0-0.7-0.4-1.1-1.3-1.2v-0.4l3.5-0.3h0.4v6.7c0,1.1,0.2,1.4,1.3,1.7v0.4l-3.9,0.3v-2h0c-0.9,1.4-2,2-3.3,2c-1.7,0-2.8-1-2.8-2.6
		V18.3z"/>
	<path fill="#FFFFFF" d="M154.3,23.4c-0.6,0.6-1.1,0.9-1.6,0.9c-0.7,0-1.2-0.6-1.2-1.5c0-1.1,0.6-1.6,2.7-2.5V23.4z M156.9,19.3
		c0-2.3-1.9-3.1-3.7-3.1c-2,0-3.3,1-3.8,2.9h0.3c0.5-0.9,1.4-1.4,2.5-1.4c1.5,0,2.1,0.7,2.1,2.2c-2.1,0.8-5.4,0.9-5.4,3.2
		c0,1.2,1.1,2.2,2.5,2.2c1,0,1.8-0.2,2.7-1l0.2-0.2c0.4,0.8,1,1.2,2,1.2c1.2,0,2-0.6,2-1.6h-0.4c-0.1,0.5-0.3,0.8-0.7,0.8
		c-0.4,0-0.5-0.3-0.5-1.1V19.3z"/>
	<path fill="#FFFFFF" d="M160.2,13.2c0-1.2-0.4-1.6-1.6-1.7v-0.4l3.7-0.2h0.4v11.9c0,1.1,0.2,1.4,1.5,1.7v0.4h-5.6v-0.4
		c1.2-0.2,1.6-0.6,1.6-1.7V13.2z"/>
	<path fill="#FFFFFF" d="M166.7,21.9c0.8,0,1.5,0.6,1.5,1.5c0,0.9-0.7,1.5-1.5,1.5c-0.8,0-1.5-0.6-1.5-1.5
		C165.2,22.5,165.9,21.9,166.7,21.9 M166.7,24.6c0.6,0,1.1-0.5,1.1-1.2c0-0.7-0.5-1.2-1.1-1.2c-0.6,0-1.1,0.5-1.1,1.2
		C165.6,24.1,166.1,24.6,166.7,24.6 M166.1,22.6h0.6c0.4,0,0.6,0.1,0.6,0.5c0,0.3-0.2,0.4-0.4,0.4l0.4,0.7h-0.3l-0.4-0.7h-0.2v0.7
		h-0.3V22.6z M166.4,23.3h0.3c0.2,0,0.3,0,0.3-0.2c0-0.2-0.2-0.2-0.3-0.2h-0.3V23.3z"/>
	<rect x="33" y="29.5" fill="#FFFFFF" width="50.9" height="0.5"/>
	<rect x="90.9" y="29.5" fill="#FFFFFF" width="73.5" height="0.5"/>
	<rect x="62.4" y="34.5" fill="#FFFFFF" width="1.3" height="7.1"/>
	<polygon fill="#FFFFFF" points="67.6,34.5 68.8,34.5 71.8,39.5 71.8,39.5 71.8,34.5 73,34.5 73,41.6 71.8,41.6 68.8,36.5 
		68.8,36.5 68.8,41.6 67.6,41.6 	"/>
	<path fill="#FFFFFF" d="M77.2,39.4c0.5,0.7,1.3,1.1,2.1,1.1c0.6,0,1.5-0.2,1.5-0.9c0-0.6-0.5-0.7-1.5-0.9l-0.8-0.2
		c-1.1-0.3-2.1-0.7-2.1-2c0-1.5,1.4-2.2,2.7-2.2c1.2,0,2.2,0.4,3,1.4L81,36.6c-0.3-0.6-1-1-1.9-1c-0.8,0-1.3,0.3-1.3,0.8
		c0,0.6,0.7,0.7,1.5,0.9l0.9,0.2c1.1,0.2,2,0.7,2,2c0,1.7-1.6,2.3-3.1,2.3c-1.2,0-2.4-0.5-3.1-1.5L77.2,39.4z"/>
	<path fill="#FFFFFF" d="M91.4,39.4c0,1.4-1.1,2.4-2.9,2.4c-1.7,0-2.9-0.9-2.9-2.4v-4.9H87V39c0,0.9,0.4,1.4,1.5,1.4S90,39.9,90,39
		v-4.6h1.3V39.4z"/>
	<path fill="#FFFFFF" d="M95.2,34.5h3c1.5,0,2.4,0.9,2.4,2.1c0,1.6-1.1,2-1.4,2.1l1.6,2.9h-1.5l-1.4-2.6h-1.3v2.6h-1.3V34.5z
		 M96.5,37.8H98c0.7,0,1.2-0.4,1.2-1.1c0-0.6-0.4-1.1-1.4-1.1h-1.3V37.8z"/>
	<path fill="#FFFFFF" d="M105.7,34.5h1.6l2.4,7.1h-1.4l-0.4-1.4h-2.7l-0.4,1.4h-1.4L105.7,34.5z M106.5,35.8L106.5,35.8l-1,3.2h2
		L106.5,35.8z"/>
	<polygon fill="#FFFFFF" points="112.6,34.5 113.8,34.5 116.8,39.5 116.8,39.5 116.8,34.5 118,34.5 118,41.6 116.8,41.6 113.8,36.5 
		113.8,36.5 113.8,41.6 112.6,41.6 	"/>
	<path fill="#FFFFFF" d="M126.4,36.8c-0.1-0.8-0.8-1.3-1.6-1.3c-1.4,0-2,1.3-2,2.5c0,1.2,0.6,2.5,2,2.5c0.9,0,1.5-0.6,1.7-1.4
		l1.2,0.6c-0.6,1.4-1.5,2.1-2.9,2.1c-2.3,0-3.4-1.7-3.4-3.7s1.3-3.7,3.4-3.7c1.4,0,2.5,0.7,2.8,2.2L126.4,36.8z"/>
	<polygon fill="#FFFFFF" points="130.6,34.5 135.7,34.5 135.7,35.7 132,35.7 132,37.3 135.4,37.3 135.4,38.5 132,38.5 132,40.3 
		135.9,40.3 135.9,41.6 130.6,41.6 	"/>
	<path fill="#FFFFFF" d="M19.8,16.1c0.2,0.1,0.2,0.1,0.3,0.2l2.8-3.1c-0.9-1-1.8-1.6-3-2.1c-0.5-0.2-0.6-0.3-1.1-0.4l0.7,5.3
		C19.4,16,19.7,16.1,19.8,16.1"/>
	<path fill="#FFFFFF" d="M10.5,11.2l5,4.8c0,0,0.2-0.1,0.3-0.1c0.2-0.1,0.3-0.1,0.3-0.1l0.5-5.5c-0.5-0.1-0.8-0.1-1.3-0.1
		c-1.2,0-2.9,0.2-4.1,0.7C10.7,11,10.5,11.2,10.5,11.2"/>
	<path fill="#FFFFFF" d="M7.6,33c0-2.1-0.4-5-0.8-6.3c-0.2-0.8-1.9-5.9-2-6.1c0-0.1-0.1-1.5-0.1-2.7c-0.8,2.2-1.2,4.8-1.2,7.6v0
		c0,4.5,1.2,8.5,3.4,11.4C7.6,35.3,7.6,34,7.6,33C7.6,33.1,7.6,33.1,7.6,33"/>
	<path fill="#FFFFFF" d="M13.6,33.5c1.9-1.7,3.1-2.2,5.1-3.3c-3,0.6-6.5,2.7-8.4,5.1c-1.3,1.6-2.1,3-2.1,3.1
		c0.3,0.2,0.6,0.4,0.9,0.5C10.5,36.3,12.4,34.5,13.6,33.5"/>
	<path fill="#FFFFFF" d="M9.1,11.9c-0.2,0.1-0.3,0.2-0.3,0.3c0.9,2.3,2.1,5.2,2.4,6.1c0,0.1,0.1,0.2,0.1,0.3l2,1l0,0
		c0,0,0-0.3,0-0.4c0-0.1,0.1-0.4,0.1-0.4l-3.9-7.2C9.3,11.8,9.3,11.8,9.1,11.9"/>
	<path fill="#FFFFFF" d="M14.2,34.3c-2.1,2-3.5,4.4-3.9,5c0.2,0.1,0.4,0.1,0.7,0.2c4.5-8,11.6-9.8,15.7-10c0.1-0.2,0,0.1,0-0.3
		C23.9,29.1,18.6,30.1,14.2,34.3"/>
	<path fill="#FFFFFF" d="M23.1,18.5C23.1,18.5,23.1,18.5,23.1,18.5l2.5-1c-0.3-0.7-0.7-1.5-1.1-2.2l-1.6,3
		C23,18.4,23.1,18.5,23.1,18.5"/>
	<path fill="#FFFFFF" d="M24.3,22.4c-0.1,0.2-0.3,0.6-0.3,0.6l0.2,1.9l2,3.3l0.6,0.1c0.1-0.9,0.1-1.7,0.1-2.6c0-2-0.1-3.7-0.5-5.5
		l-2,1.7C24.4,21.8,24.3,22.2,24.3,22.4"/>
	<path fill="#FFFFFF" d="M29.3,16.9l-5,3.9c-0.1-0.6-0.3-1.2-0.6-1.6L29.3,16.9C29.3,16.9,29.3,16.9,29.3,16.9
		C29.3,16.9,29.3,16.9,29.3,16.9"/>
	<path fill="#FFFFFF" d="M10.4,12.1C10.4,12.1,10.4,12.1,10.4,12.1C10.4,12,10.4,12.1,10.4,12.1l4.3,4.3c-0.4,0.2-0.8,0.8-1,1.3
		L10.4,12.1z"/>
	<path fill="#FFFFFF" d="M12.9,20.3c0,0-0.1,0.2-0.1,0.5c0,0.3,0.1,0.6,0.1,0.6l-1.3-0.9c0-0.3,0-0.4,0-0.6c0,0,0-0.3,0-0.4
		L12.9,20.3z"/>
	<path fill="#FFFFFF" d="M10.8,30c-0.2,1.5-0.5,2.9-1.1,3.8c-0.4,0.6-1.4,1.9-1.7,2.3c0.4-0.8,0.7-2.6,0.7-4.1c0-0.9-0.3-3-0.1-4.4
		c0.3-1.5,0.7-2.3,1.7-3.2c0.5-0.5,1.5-1,3-0.7l1.2,2.2c-0.6-0.1-1.5,0-2,0.4C11.4,27.3,11,28.4,10.8,30"/>
	<path fill="#FFFFFF" d="M11,33c0.3-0.6,0.7-2.5,0.8-3.1c0.1-0.8,0.3-1.9,1.2-2.7c0.5-0.4,1.2-0.4,1.5-0.3l1.3,2.7
		c0.1,0.3,0.5,0.4,0.8,0.4C15.3,30.4,12.2,31.9,11,33"/>
	<path fill="#FFFFFF" d="M22.3,24.3c-0.2,0.3-0.1,0.7,0,0.9c0.1,0.3,0.8,1.6,0.8,1.6c0.2,0.6,0.4,0.9,0.6,1.3c0.4,0,0.8,0,1.2,0
		c-0.5-1-1.5-3.1-1.5-3.1l-0.1-1.6C23,23.6,22.6,24,22.3,24.3"/>
	<path fill="#FFFFFF" d="M17.6,7.6l-0.7,8c0.5-0.1,1.5,0.1,1.7,0.2L17.6,7.6C17.6,7.6,17.6,7.6,17.6,7.6C17.6,7.6,17.6,7.6,17.6,7.6
		"/>
	<path fill="#FFFFFF" d="M6.5,9.3c0-0.1-0.1-0.3-0.2-0.4C6.1,8.8,5.9,8.7,5.7,8.6C5.6,8.6,5.4,8.3,5.2,8.3C4.7,8.3,4.1,8.2,3.9,8
		C3.7,8.5,3.8,8.7,4,8.9c0.2,0.2,0.6,0.3,1,0.3l0.1,2.4c0.1,0.2,0.5,0.3,0.8,0.3V12l-0.4,0.3c0,0.3,0.4,8,0.5,8.2
		c0.1,0.1,2,5.9,2,6.2c0.1-0.7,0.7-2.1,1.4-2.8c0.7-0.7,1.5-1,2-0.9c-0.1-0.1-0.7-1.5-0.7-1.6c0-0.1-0.2-1.8-0.3-1.9
		C10.3,19.4,6.5,9.4,6.5,9.3"/>
	<path fill="#FFFFFF" d="M25.7,11.4l-4.9,5.3c0.3,0.2,1.2,0.8,1.5,1.2L25.7,11.4C25.7,11.4,25.8,11.4,25.7,11.4
		C25.7,11.4,25.7,11.4,25.7,11.4"/>
	<path fill="#FFFFFF" d="M23.1,20.2c-0.1-0.3-0.8-1.2-2.2-2.2c-1-0.8-2.6-1.6-3.8-1.6c-2.1,0-3,1.5-3.1,2.2c-0.1,0.5-0.1,1,0,1.2
		c-0.3,0.3-0.5,0.5-0.5,0.8c0,0.2,0,0.6,0.2,0.8c0-0.3,0.2-0.7,0.4-0.9c0.2-0.3,0.5-0.4,0.8-0.5l0,0.6c-0.3,0.2-0.6,0.5-0.6,0.7l0,1
		l0.7-0.4l0.1,0.3l-0.3,1.7l0.4-0.1l0.7,0.3l-0.7,0.6v0.2c0,0,0.1-0.1,0.4-0.1c0.3,0,0.9,0.3,0.9,0.3l0,0.1h-0.3h-1
		c0,0.2,0.1,0.3,0.2,0.4c0.2,0,0.3-0.1,0.4-0.1c0.1,0,0.3,0.1,0.5,0.1l-0.2,0.3c0,0-0.1,0.1-0.3,0c-0.1,0-0.2,0.1-0.2,0.3
		c0,0.1,0.1,0.5,0.1,0.5c0.1,0.5,0.7,0.4,0.7,0.4c0.3,0,1.5-0.4,1.5-0.4l-1.1,1.5l0.5,1.6c0.7-0.3,2.9-1.1,5.2-1.4
		c-0.3-0.4-0.3-0.6-0.6-1.2l-1.2-2.8l0.2-0.4c0.3,0.1,0.7-0.1,0.9-0.3c0.3-0.2,0.6-0.6,0.7-0.8c-0.2-0.1-0.3-0.1-0.5,0
		c-0.1,0.1-0.3,0.3-0.5,0.2c-0.2-0.1-0.1-0.3-0.1-0.5c0-0.2-0.2-0.2-0.4-0.1c-0.2,0.2-0.6,0.1-0.9-0.2c-0.3-0.3-1.5-1.3-2-1.6
		c-0.7-0.4-1.5-0.5-2.2-0.4c-0.4,0.1-0.6,0.2-0.8,0.2l-0.5-0.7l0.1,0c0.2,0.1,0.3,0.2,0.5,0.1c0.2-0.1,0.9-0.2,1.5-0.2
		c1,0,2.1,0.3,2.6,0.6c0,0.6,1.3,1.4,1.8,1.5c0.5,0.1,0.8-0.1,1.1-0.2l-1.2-1.1l0.6-0.8c0,0,1,1,1.2,1.2
		C23.2,20.5,23.2,20.3,23.1,20.2 M15.8,21.4c0,0,0.5-0.3,1-0.4c0.7-0.2,1.5,0.3,2.1,0.7l-0.1,0.2L18,22.1c-0.2-0.1-0.5-0.2-0.8-0.2
		c-0.3,0-0.5,0.1-0.5,0.1l0.2,0.3l-0.4,0.1c-0.2-0.2-0.4-0.5-0.7-0.5V21.4z M14.5,19.5c-0.2-0.7,0.4-1.4,0.6-1.7l0.4,0.9
		C15.3,18.9,14.8,19.3,14.5,19.5 M18.3,18.7c-0.4-0.3-1.7-0.2-2.2-0.1l-0.4-1.1c0.3-0.2,0.8-0.4,1.3-0.4c0.5,0,1.1,0.1,1.4,0.3
		L18.3,18.7z M20.8,19.8c-0.5-0.3-1.6-0.8-1.9-0.9l0.5-1.2c0.4,0.2,1.8,1.1,2,1.3L20.8,19.8z"/>
	<path fill="#FFFFFF" d="M4,7.4c1.1,0,1.6,0.5,1.9,0.7c0-0.4,0-0.7-0.4-1C5.2,6.9,4.7,6.7,4,6.7c-0.5,0-1,0.1-1.3,0.4
		C2.3,7.4,2.3,7.6,2.3,8C2.4,7.7,3.1,7.4,4,7.4"/>
	<path fill="#FFFFFF" d="M1.8,1.7c0,0.4,0.1,0.8,0.3,1.1c0.1,0.1,0.4,0.4,0.6,0.4c0.3,0,0.5-0.5,1.2-0.5c0.4,0,0.7,0.6,1,0.6
		c0.3,0,0.4-0.3,0.7-0.3C5.7,3,5.8,3.1,6,3.3c0.1-0.2,0.2-0.4,0.6-0.6C7,2.3,8.5,2,9.1,1.5c0.3-0.3,0.4-0.8,0.3-1.1
		C9.1,0.6,8.5,1,7.8,1C7.5,1,6.8,0.9,6.5,0.8C6.6,0.5,6.7,0.3,6.6,0C6.3,0.2,5.4,0.2,5.1,0.2s-1-0.1-1.6-0.1C2.4,0.2,1.8,1,1.8,1.7"
		/>
	<path fill="#FFFFFF" d="M2.5,10.2c-0.2,0-0.5,0.3-0.7,0.6C1.8,11,2,11.4,2.2,11.5c0-0.2,0.3-0.6,0.4-0.6c0.2-0.1,0.3-0.2,0.4-0.3
		c0.1-0.1,0.2-0.1,0.2-0.3c0-0.1,0-0.2-0.1-0.4c0.1,0,0.4,0,0.4-0.1c0.1-0.1,0.1-0.3,0.1-0.4S3.7,9.3,3.5,9.3c-0.1,0-0.6,0-0.8,0
		c0,0,0.3-0.2,0.4-0.2c0.1,0,0.1-0.1,0.1-0.2c0-0.1,0-0.3,0-0.5C2.8,8.4,1.9,8.8,1.7,9l0.2,0.4l-0.3,0c0,0.2,0,0.6,0.1,0.7
		C1.9,10.2,2.3,10.1,2.5,10.2"/>
	<path fill="#FFFFFF" d="M5.3,13.9c0-0.2-0.1-0.3-0.3-0.4c0.1-0.4,0.1-0.8,0.1-1.1c0-0.3-0.1-0.6-0.3-0.9c-0.2-0.3-0.6-0.7-0.8-0.9
		c0,0.2-0.1,0.3-0.2,0.3c-0.2,0-0.7,0.5-0.7,0.5L3,13.4c0,0,0,0,0,0c0,0,0,0,0,0c-0.2,0.1-0.5,0.3-0.4,0.7c0,0.3,0.3,0.6,0.8,0.7
		c0.1,0,0.1,0,0.2,0l0-0.1c0,0-0.1,0-0.2,0c-0.5-0.1-0.6-0.5-0.3-0.6C3.4,14,3.7,13.9,4,13.9c0.4,0,0.9,0.2,1.1,0.4
		C5.2,14.1,5.3,14,5.3,13.9"/>
	<path fill="#FFFFFF" d="M7.9,6.6c0-0.3-0.4-1-0.4-1.2c0-0.2,0-0.4,0.1-0.6c-0.2,0-0.7,0.3-1,0.1C6.3,4.6,6.5,4.1,6.2,4
		C5.8,3.9,5.3,4.3,5,4.2S4.4,3.7,4,3.7c-0.4,0-0.5,0.4-1,0.5C2.7,4.3,2.2,4.1,1.9,4.1c-0.2,0-0.4,0.2-0.5,0.4C1.4,4.7,1.3,4.8,1,4.9
		C0.8,5,0.4,4.8,0.3,4.8c0.1,0.1,0.2,0.3,0.2,0.5C0.4,5.9,0,6.2,0,7.2c0,1.1,1.1,1.6,1.1,1.6l0.1-0.1C0.9,8.5,0.5,8,0.4,7.3
		c0-0.1,0-0.1,0-0.2C0.5,6.8,0.7,6.5,1,6.2c0,0,0,0,0,0c0.6-0.6,1.7-0.9,3.1-0.9c2.5,0,3.7,1.2,3.7,2.2C7.9,7.2,7.9,6.9,7.9,6.6"/>
</g>
</svg>
