<?xml version="1.0" encoding="utf-8"?>
<!-- Generator: Adobe Illustrator 18.1.1, SVG Export Plug-In . SVG Version: 6.00 Build 0)  -->
<svg version="1.1" id="Layer_1" xmlns="http://www.w3.org/2000/svg" xmlns:xlink="http://www.w3.org/1999/xlink" x="0px" y="0px"
	 viewBox="25 0 249.9 250" enable-background="new 25 0 249.9 250" xml:space="preserve">
<path fill="#FFFFFF" d="M41,186.2c33.7,60.1,110.1,81.6,170.2,47.6s81.6-110.1,47.6-170.2S149-17.8,88.8,16S7.2,126,41,186.2z
	 M165.4,61.7L150.3,103c0,0-7.1-2.4-10.2-1.6c-3.4,0.8-10.5,7.6-10.5,7.6L93.3,88.7c5.5-8.4,13.1-15.7,22.5-20.9
	C131.4,58.6,149.2,57,165.4,61.7z M204.7,92.6c9.4,16.7,10.5,36.1,4.7,53.1l-36.9-17c0,0,0.5-6.5,0-8.6c-1-2.6-6.8-9.4-6.8-9.4
	l16-41.8C190.8,74.3,198.9,82.4,204.7,92.6z M179.6,181.5c-15.4,8.6-32.9,10.5-48.9,6l14.4-38.2c0,0,1.8,2.9,9.4-0.5
	c4.4-2.1,9.7-7.1,9.7-7.1l34.5,23C193.7,171.5,187.4,177,179.6,181.5z M90.6,156.4c-9.2-16.2-10.5-34.8-5.5-51.3l35,20.4
	c0,0-0.5,8.9,0.3,11.5c1,3.4,7.3,11.8,7.3,11.8l-15.2,30.9C103.7,173.9,96.1,166.3,90.6,156.4z"/>
</svg>
