<svg xmlns="http://www.w3.org/2000/svg" width="251.313" height="72.469" viewBox="0 0 251.313 72.469">
  <metadata><?xpacket begin="﻿" id="W5M0MpCehiHzreSzNTczkc9d"?>
<x:xmpmeta xmlns:x="adobe:ns:meta/" x:xmptk="Adobe XMP Core 5.6-c138 79.159824, 2016/09/14-01:09:01        ">
   <rdf:RDF xmlns:rdf="http://www.w3.org/1999/02/22-rdf-syntax-ns#">
      <rdf:Description rdf:about=""/>
   </rdf:RDF>
</x:xmpmeta>
                                                                                                    
                                                                                                    
                                                                                                    
                                                                                                    
                                                                                                    
                                                                                                    
                                                                                                    
                                                                                                    
                                                                                                    
                                                                                                    
                                                                                                    
                                                                                                    
                                                                                                    
                                                                                                    
                                                                                                    
                                                                                                    
                                                                                                    
                                                                                                    
                                                                                                    
                                                                                                    
                           
<?xpacket end="w"?></metadata>
<defs>
    <style>
      .cls-1 {
        fill: #fff;
        fill-rule: evenodd;
      }
    </style>
  </defs>
  <path id="FREE_HOLIDAY" data-name="FREE HOLIDAY" class="cls-1" d="M25.8,112.31V100.356h8.643V94.809H25.8V87.327H35.35V81.78h-16.6v30.53H25.8Zm33.883,0-4.472-12.3A5.649,5.649,0,0,0,58.182,97.2a12.188,12.188,0,0,0,.9-5.139V90.939a12.062,12.062,0,0,0-1.053-5.612,5.805,5.805,0,0,0-3.5-2.752,23.662,23.662,0,0,0-6.966-.8H39.09v30.53h7.052V101.173h2.752l3.311,11.137h7.482ZM47.432,95.669h-1.29V87.284h1.29a8.644,8.644,0,0,1,2.8.344,2.083,2.083,0,0,1,1.29,1.183,6.831,6.831,0,0,1,.344,2.472v0.43a6.032,6.032,0,0,1-.366,2.343,2.309,2.309,0,0,1-1.312,1.226,7.586,7.586,0,0,1-2.752.387h0Zm33.5,16.641v-5.375H70.953V99.41H79.6V94.035H70.953v-6.88H80.5V81.78H63.9v30.53H80.929Zm21.371,0v-5.375H92.324V99.41h8.643V94.035H92.324v-6.88h9.546V81.78h-16.6v30.53H102.3Zm22.746,0V99.969h6.622V112.31h7.052V81.78h-7.052V93.648h-6.622V81.78h-7.052v30.53h7.052Zm29.11,0.473a13.328,13.328,0,0,0,6.515-1.29,7.238,7.238,0,0,0,3.2-4.515,35.327,35.327,0,0,0,.946-9.374V96.486a35.332,35.332,0,0,0-.946-9.374,7.238,7.238,0,0,0-3.2-4.515,17.094,17.094,0,0,0-13.029,0,7.16,7.16,0,0,0-3.182,4.515,36.057,36.057,0,0,0-.925,9.374V97.6a36.051,36.051,0,0,0,.925,9.374,7.16,7.16,0,0,0,3.182,4.515,13.324,13.324,0,0,0,6.514,1.29h0Zm0-5.418a2.6,2.6,0,0,1-2.128-.86,6.025,6.025,0,0,1-.989-2.967,51.679,51.679,0,0,1-.28-6.278V96.83a51.7,51.7,0,0,1,.28-6.278,6.031,6.031,0,0,1,.989-2.967,2.6,2.6,0,0,1,2.128-.86,2.666,2.666,0,0,1,2.15.86,5.92,5.92,0,0,1,1.011,2.989,52.028,52.028,0,0,1,.279,6.256v0.43a52.036,52.036,0,0,1-.279,6.257,5.915,5.915,0,0,1-1.011,2.988,2.663,2.663,0,0,1-2.15.86h0Zm30.917,4.945V106.2h-8.342V81.78h-7.052v30.53h15.394Zm10.792,0V81.78h-7.052v30.53h7.052Zm5.676,0h9.073a15.921,15.921,0,0,0,7.052-1.247,7.122,7.122,0,0,0,3.483-4.386,30.6,30.6,0,0,0,1.032-9.073V96.486a30.6,30.6,0,0,0-1.032-9.073,7.126,7.126,0,0,0-3.483-4.386,15.934,15.934,0,0,0-7.052-1.247h-9.073v30.53Zm7.052-5.547V87.284h1.677a4.655,4.655,0,0,1,2.988.8,4.445,4.445,0,0,1,1.312,2.752,37.96,37.96,0,0,1,.344,6v0.43a37.95,37.95,0,0,1-.344,6,4.337,4.337,0,0,1-1.312,2.73,4.748,4.748,0,0,1-2.988.774h-1.677Zm39.517,5.547-7.4-30.53h-9.073l-7.4,30.53h7.138l1.075-5.805h7.31l1.075,5.805h7.267Zm-12-25.37,2.666,14.319h-5.332Zm25.413-5.16-4.042,12.857L253.442,81.78h-7.525l7.955,19.651V112.31h7.052V101.431l7.955-19.651h-7.353Z" transform="translate(-17.563 -81.313)"/>
  <path id="SHIPPING" class="cls-1" d="M27.309,153.783a15.6,15.6,0,0,0,5.934-.924,5.965,5.965,0,0,0,3.182-2.989,12.989,12.989,0,0,0,.989-5.547,10.96,10.96,0,0,0-1.269-5.547A6.835,6.835,0,0,0,32.49,135.7q-2.386-.88-2.73-1.011l-1.505-.6a15.7,15.7,0,0,1-2.064-.9,3.142,3.142,0,0,1-1.139-1.118,3.74,3.74,0,0,1-.451-1.978q0-2.709,2.795-2.709a2.776,2.776,0,0,1,2.236.774,3.8,3.8,0,0,1,.645,2.451v0.645h6.407v-0.645a11.543,11.543,0,0,0-.86-4.923,5.156,5.156,0,0,0-2.8-2.58,14.558,14.558,0,0,0-5.375-.8q-5.2,0-7.46,1.978t-2.258,6.579a9.9,9.9,0,0,0,.946,4.709,6.5,6.5,0,0,0,2.3,2.558,22.687,22.687,0,0,0,3.634,1.677l1.634,0.645q1.677,0.645,2.451,1.032a3.335,3.335,0,0,1,1.333,1.312,4.853,4.853,0,0,1,.559,2.515,3.894,3.894,0,0,1-.71,2.559,3.161,3.161,0,0,1-2.515.838,3.2,3.2,0,0,1-2.752-1.053,6.159,6.159,0,0,1-.774-3.548v-0.989H17.548v1.118a14.321,14.321,0,0,0,.9,5.655,5.643,5.643,0,0,0,3.01,2.967,14.927,14.927,0,0,0,5.848.924h0Zm21.586-.473V140.969h6.622V153.31h7.052V122.78H55.517v11.868H48.895V122.78H41.843v30.53h7.052Zm26.4,0V122.78H68.245v30.53H75.3Zm5.675,0h7.052V142.689h1.462a22.548,22.548,0,0,0,6.945-.838,5.9,5.9,0,0,0,3.526-2.86,12.47,12.47,0,0,0,1.054-5.676V132.2a12.593,12.593,0,0,0-1.054-5.719,5.906,5.906,0,0,0-3.526-2.859,22.543,22.543,0,0,0-6.945-.839H80.972v30.53Zm7.052-16.125v-8.9h1.333a7.586,7.586,0,0,1,2.752.387,2.213,2.213,0,0,1,1.29,1.269,7.529,7.529,0,0,1,.344,2.6v0.43a7.366,7.366,0,0,1-.344,2.559,2.209,2.209,0,0,1-1.29,1.268,7.586,7.586,0,0,1-2.752.387H88.024Zm17.243,16.125h7.052V142.689h1.462a22.542,22.542,0,0,0,6.944-.838,5.9,5.9,0,0,0,3.526-2.86,12.478,12.478,0,0,0,1.054-5.676V132.2a12.6,12.6,0,0,0-1.054-5.719,5.905,5.905,0,0,0-3.526-2.859,22.537,22.537,0,0,0-6.944-.839h-8.514v30.53Zm7.052-16.125v-8.9h1.333a7.586,7.586,0,0,1,2.752.387,2.215,2.215,0,0,1,1.29,1.269,7.532,7.532,0,0,1,.344,2.6v0.43a7.368,7.368,0,0,1-.344,2.559,2.21,2.21,0,0,1-1.29,1.268,7.586,7.586,0,0,1-2.752.387h-1.333Zm24.3,16.125V122.78h-7.052v30.53h7.052Zm21.026-10.191-7.525-20.339h-7.826v30.53h6.063V132.971l7.525,20.339H163.7V122.78H157.64v20.339Zm21.887-6.966v5.5h2.967v1.032a9.243,9.243,0,0,1-.753,4.429,2.745,2.745,0,0,1-2.558,1.247,2.6,2.6,0,0,1-2.129-.86,6.025,6.025,0,0,1-.989-2.967,51.725,51.725,0,0,1-.279-6.278v-0.43a51.748,51.748,0,0,1,.279-6.278,6.033,6.033,0,0,1,.989-2.967,2.6,2.6,0,0,1,2.129-.86,2.63,2.63,0,0,1,2.322,1.054,6.876,6.876,0,0,1,.731,3.719v0.129H189.5V132.5a14.415,14.415,0,0,0-1.075-6.17,6.139,6.139,0,0,0-3.29-3.118,16.107,16.107,0,0,0-5.955-.9,13.328,13.328,0,0,0-6.515,1.29,7.235,7.235,0,0,0-3.2,4.515,35.291,35.291,0,0,0-.946,9.374V138.6a35.286,35.286,0,0,0,.946,9.374,7.235,7.235,0,0,0,3.2,4.515,13.328,13.328,0,0,0,6.515,1.29,15.118,15.118,0,0,0,6.17-1.032,6.447,6.447,0,0,0,3.311-3.59,19.7,19.7,0,0,0,1.054-7.246v-5.762H179.527Z" transform="translate(-17.563 -81.313)"/>
</svg>
