<svg xmlns="http://www.w3.org/2000/svg" width="614.313" height="42.437" viewBox="0 0 614.313 42.437">
  <metadata><?xpacket begin="﻿" id="W5M0MpCehiHzreSzNTczkc9d"?>
<x:xmpmeta xmlns:x="adobe:ns:meta/" x:xmptk="Adobe XMP Core 5.6-c138 79.159824, 2016/09/14-01:09:01        ">
   <rdf:RDF xmlns:rdf="http://www.w3.org/1999/02/22-rdf-syntax-ns#">
      <rdf:Description rdf:about=""/>
   </rdf:RDF>
</x:xmpmeta>
                                                                                                    
                                                                                                    
                                                                                                    
                                                                                                    
                                                                                                    
                                                                                                    
                                                                                                    
                                                                                                    
                                                                                                    
                                                                                                    
                                                                                                    
                                                                                                    
                                                                                                    
                                                                                                    
                                                                                                    
                                                                                                    
                                                                                                    
                                                                                                    
                                                                                                    
                                                                                                    
                           
<?xpacket end="w"?></metadata>
<defs>
    <style>
      .cls-1 {
        fill: #fff;
        fill-rule: evenodd;
      }
    </style>
  </defs>
  <path id="CELEBRATE_THE_HOLIDAYS" data-name="CELEBRATE THE HOLIDAYS" class="cls-1" d="M28.791,80.41a17.991,17.991,0,0,0,7.926-1.45,8.837,8.837,0,0,0,4.277-4.988,28.891,28.891,0,0,0,1.369-10.034V63.764H32.726v0.174a30.211,30.211,0,0,1-.4,5.626A5.2,5.2,0,0,1,31.1,72.319a3.227,3.227,0,0,1-2.309.783A3.112,3.112,0,0,1,26.168,72a8.365,8.365,0,0,1-1.2-3.944,78.461,78.461,0,0,1-.342-8.584v-0.58a78.474,78.474,0,0,1,.342-8.584,8.373,8.373,0,0,1,1.2-3.944,3.115,3.115,0,0,1,2.623-1.1,2.916,2.916,0,0,1,2.794,1.653q0.855,1.653.855,6.235v0.174h9.637V53.15a24.837,24.837,0,0,0-1.369-9.222,8.391,8.391,0,0,0-4.248-4.64,18.467,18.467,0,0,0-7.67-1.334q-5.532,0-8.44,1.74t-4.106,6.09a50.613,50.613,0,0,0-1.2,12.644v1.508a50.607,50.607,0,0,0,1.2,12.644q1.2,4.35,4.106,6.09t8.44,1.74h0Zm42.255-.638v-7.25H57.816V62.372H69.278v-7.25H57.816v-9.28H70.476v-7.25H48.464v41.18H71.046Zm26.174,0V71.536H86.157V38.592H76.8v41.18H97.219Zm27.543,0v-7.25h-13.23V62.372h11.462v-7.25H111.532v-9.28h12.659v-7.25H102.18v41.18h22.582Zm26.515-21.46a7.186,7.186,0,0,0,3.679-2.958,10.128,10.128,0,0,0,1.111-5.1V48.742a11.666,11.666,0,0,0-1.34-6.148,7.517,7.517,0,0,0-4.476-3.074,32.717,32.717,0,0,0-8.839-.928H130.52v41.18h12.033a32.006,32.006,0,0,0,8.9-.957,7.526,7.526,0,0,0,4.5-3.248,12.674,12.674,0,0,0,1.369-6.467V67.592a11.178,11.178,0,0,0-1.4-6.061,8.256,8.256,0,0,0-4.648-3.219h0Zm-11.4-13.34h1.654a9.674,9.674,0,0,1,3.336.435,2.6,2.6,0,0,1,1.54,1.508,8.749,8.749,0,0,1,.428,3.1V50.6a7.6,7.6,0,0,1-.428,2.9,2.631,2.631,0,0,1-1.568,1.421,9.72,9.72,0,0,1-3.308.435h-1.654V44.972Zm7.87,22.62a11.233,11.233,0,0,1-.428,3.538,2.881,2.881,0,0,1-1.568,1.74,8.41,8.41,0,0,1-3.364.522h-2.51V61.618h2.51a9.37,9.37,0,0,1,3.364.464,2.685,2.685,0,0,1,1.568,1.624,9.976,9.976,0,0,1,.428,3.306v0.58Zm43.167,12.18-5.93-16.588a7.552,7.552,0,0,0,3.935-3.8,16.694,16.694,0,0,0,1.2-6.931V50.946a16.512,16.512,0,0,0-1.4-7.569,7.725,7.725,0,0,0-4.648-3.712,30.881,30.881,0,0,0-9.238-1.073H163.6v41.18h9.352V64.75H176.6l4.391,15.022h9.922ZM174.657,57.326h-1.71V46.016h1.71a11.288,11.288,0,0,1,3.707.464,2.782,2.782,0,0,1,1.711,1.595,9.356,9.356,0,0,1,.456,3.335v0.58a8.254,8.254,0,0,1-.485,3.161,3.082,3.082,0,0,1-1.739,1.653,9.907,9.907,0,0,1-3.65.522h0Zm50.3,22.446-9.809-41.18H203.112L193.3,79.772h9.466l1.426-7.83h9.694l1.425,7.83h9.638Zm-15.91-34.22,3.535,19.314h-7.071Zm31.82,34.22V46.828H248.9V38.592H223.528v8.236h7.983V79.772h9.352Zm35.241,0v-7.25h-13.23V62.372h11.462v-7.25H262.874v-9.28h12.66v-7.25H253.522v41.18H276.1Zm34.556,0V46.828H318.7V38.592H293.325v8.236h7.983V79.772h9.352Zm22.012,0V63.126h8.781V79.772h9.352V38.592h-9.352V54.6h-8.781V38.592H323.32v41.18h9.352Zm48.242,0v-7.25h-13.23V62.372h11.462v-7.25H367.684v-9.28h12.66v-7.25H358.332v41.18h22.582Zm30.165,0V63.126h8.782V79.772h9.352V38.592h-9.352V54.6h-8.782V38.592h-9.352v41.18h9.352Zm38.605,0.638q5.646,0,8.639-1.74a9.758,9.758,0,0,0,4.249-6.09q1.252-4.35,1.254-12.644V58.428q0-8.294-1.254-12.644a9.758,9.758,0,0,0-4.249-6.09q-2.994-1.74-8.639-1.74t-8.639,1.74a9.652,9.652,0,0,0-4.22,6.09A49.449,49.449,0,0,0,435.6,58.428v1.508a49.444,49.444,0,0,0,1.226,12.644,9.652,9.652,0,0,0,4.22,6.09q2.994,1.74,8.639,1.74h0Zm0-7.308a3.42,3.42,0,0,1-2.823-1.16,8.225,8.225,0,0,1-1.311-4,70.908,70.908,0,0,1-.371-8.468v-0.58a70.931,70.931,0,0,1,.371-8.468,8.233,8.233,0,0,1,1.311-4,3.423,3.423,0,0,1,2.823-1.16,3.505,3.505,0,0,1,2.851,1.16,8.062,8.062,0,0,1,1.34,4.031,71.249,71.249,0,0,1,.371,8.439v0.58a71.249,71.249,0,0,1-.371,8.439,8.058,8.058,0,0,1-1.34,4.031,3.5,3.5,0,0,1-2.851,1.16h0Zm41,6.67V71.536H479.622V38.592H470.27v41.18h20.414Zm14.313,0V38.592h-9.352v41.18H505Zm7.526,0h12.032q6.1,0,9.352-1.682a9.575,9.575,0,0,0,4.619-5.916q1.37-4.233,1.369-12.238V58.428q0-8-1.369-12.238a9.58,9.58,0,0,0-4.619-5.916q-3.25-1.681-9.352-1.682H512.523v41.18Zm9.352-7.482V46.016H524.1a6.1,6.1,0,0,1,3.963,1.073A6.032,6.032,0,0,1,529.8,50.8a52.032,52.032,0,0,1,.456,8.091v0.58a52.015,52.015,0,0,1-.456,8.091,5.886,5.886,0,0,1-1.74,3.683A6.218,6.218,0,0,1,524.1,72.29h-2.224Zm52.406,7.482-9.809-41.18H552.44l-9.808,41.18H552.1l1.426-7.83h9.694l1.425,7.83h9.638Zm-15.91-34.22,3.535,19.314h-7.071Zm33.7-6.96-5.36,17.342-5.361-17.342h-9.979L581.923,65.1V79.772h9.352V65.1l10.549-26.506h-9.751ZM615.966,80.41a20.377,20.377,0,0,0,7.87-1.247,7.967,7.967,0,0,0,4.22-4.031,17.786,17.786,0,0,0,1.311-7.482,14.987,14.987,0,0,0-1.682-7.482,9.106,9.106,0,0,0-4.847-4.147q-3.165-1.188-3.621-1.363l-2-.812a20.609,20.609,0,0,1-2.737-1.218,4.2,4.2,0,0,1-1.511-1.508,5.107,5.107,0,0,1-.6-2.668q0-3.654,3.706-3.654a3.648,3.648,0,0,1,2.966,1.044,5.192,5.192,0,0,1,.855,3.306v0.87h8.5v-0.87a15.806,15.806,0,0,0-1.141-6.641,6.885,6.885,0,0,0-3.706-3.48,19.012,19.012,0,0,0-7.129-1.073q-6.9,0-9.893,2.668T603.535,49.5a13.56,13.56,0,0,0,1.254,6.351A8.731,8.731,0,0,0,607.84,59.3a29.881,29.881,0,0,0,4.819,2.262l2.167,0.87q2.223,0.87,3.25,1.392a4.461,4.461,0,0,1,1.768,1.769,6.635,6.635,0,0,1,.741,3.393,5.311,5.311,0,0,1-.941,3.451,4.149,4.149,0,0,1-3.336,1.131q-2.624,0-3.649-1.421t-1.027-4.785V66.026h-8.61v1.508a19.619,19.619,0,0,0,1.2,7.627,7.551,7.551,0,0,0,3.992,4,19.492,19.492,0,0,0,7.755,1.247h0Z" transform="translate(-15.063 -37.969)"/>
</svg>
