<svg id="CTA" xmlns="http://www.w3.org/2000/svg" width="175.219" height="38" viewBox="0 0 175.219 38">
  <metadata><?xpacket begin="﻿" id="W5M0MpCehiHzreSzNTczkc9d"?>
<x:xmpmeta xmlns:x="adobe:ns:meta/" x:xmptk="Adobe XMP Core 5.6-c138 79.159824, 2016/09/14-01:09:01        ">
   <rdf:RDF xmlns:rdf="http://www.w3.org/1999/02/22-rdf-syntax-ns#">
      <rdf:Description rdf:about=""/>
   </rdf:RDF>
</x:xmpmeta>
                                                                                                    
                                                                                                    
                                                                                                    
                                                                                                    
                                                                                                    
                                                                                                    
                                                                                                    
                                                                                                    
                                                                                                    
                                                                                                    
                                                                                                    
                                                                                                    
                                                                                                    
                                                                                                    
                                                                                                    
                                                                                                    
                                                                                                    
                                                                                                    
                                                                                                    
                                                                                                    
                           
<?xpacket end="w"?></metadata>
<defs>
    <style>
      .cls-1, .cls-2 {
        fill-rule: evenodd;
      }

      .cls-2 {
        fill: #fff;
      }
    </style>
  </defs>
  <path id="Rounded_Rectangle_1" data-name="Rounded Rectangle 1" class="cls-1" d="M538.792,44H704a5,5,0,0,1,5,5V77a5,5,0,0,1-5,5H538.792a5,5,0,0,1-5-5V49A5,5,0,0,1,538.792,44Z" transform="translate(-533.781 -44)"/>
  <path id="Save_Now" data-name="Save Now" class="cls-2" d="M561.227,76.468a11.235,11.235,0,0,0,4.34-.688,4.4,4.4,0,0,0,2.327-2.224,9.816,9.816,0,0,0,.723-4.128,8.274,8.274,0,0,0-.928-4.128,5.018,5.018,0,0,0-2.673-2.288l-2-.752-1.1-.448a11.4,11.4,0,0,1-1.51-.672,2.321,2.321,0,0,1-.833-0.832,2.825,2.825,0,0,1-.33-1.472,1.794,1.794,0,0,1,2.044-2.016,2.009,2.009,0,0,1,1.635.576,2.861,2.861,0,0,1,.472,1.824V59.7h4.685V59.22a8.726,8.726,0,0,0-.629-3.664,3.792,3.792,0,0,0-2.044-1.92,10.472,10.472,0,0,0-3.93-.592q-3.806,0-5.456,1.472t-1.651,4.9a7.485,7.485,0,0,0,.691,3.5,4.81,4.81,0,0,0,1.683,1.9,16.474,16.474,0,0,0,2.657,1.248l1.195,0.48q1.227,0.48,1.792.768a2.45,2.45,0,0,1,.975.976,3.656,3.656,0,0,1,.409,1.872,2.933,2.933,0,0,1-.519,1.9,2.287,2.287,0,0,1-1.839.624,2.321,2.321,0,0,1-2.013-.784,4.65,4.65,0,0,1-.566-2.64V68.532h-4.748v0.832a10.83,10.83,0,0,0,.66,4.208,4.163,4.163,0,0,0,2.2,2.208,10.746,10.746,0,0,0,4.277.688h0Zm26.2-.352L582.013,53.4h-6.635l-5.409,22.72h5.22l0.786-4.32h5.346l0.786,4.32h5.315Zm-8.774-18.88,1.95,10.656h-3.9ZM595.5,71.156L592.422,53.4H586.95l5.22,22.72h6.541l5.22-22.72h-5.377Zm23.082,4.96v-4h-7.3v-5.6h6.321v-4h-6.321V57.4h6.982v-4H606.132v22.72h12.453Zm22.7-7.584-5.5-15.136h-5.723v22.72H634.5V60.98L640,76.116h5.723V53.4h-4.434V68.532Zm15.755,7.936a9.6,9.6,0,0,0,4.764-.96,5.384,5.384,0,0,0,2.343-3.36,26.729,26.729,0,0,0,.691-6.976V64.34a26.731,26.731,0,0,0-.691-6.976A5.384,5.384,0,0,0,661.807,54a12.3,12.3,0,0,0-9.528,0,5.322,5.322,0,0,0-2.327,3.36,27.3,27.3,0,0,0-.676,6.976v0.832a27.3,27.3,0,0,0,.676,6.976,5.322,5.322,0,0,0,2.327,3.36,9.6,9.6,0,0,0,4.764.96h0Zm0-4.032a1.885,1.885,0,0,1-1.557-.64,4.535,4.535,0,0,1-.723-2.208,39.117,39.117,0,0,1-.2-4.672V64.6a39.128,39.128,0,0,1,.2-4.672,4.539,4.539,0,0,1,.723-2.208,1.886,1.886,0,0,1,1.557-.64,1.932,1.932,0,0,1,1.572.64,4.449,4.449,0,0,1,.739,2.224,39.356,39.356,0,0,1,.2,4.656v0.32a39.356,39.356,0,0,1-.2,4.656,4.448,4.448,0,0,1-.739,2.224,1.931,1.931,0,0,1-1.572.64h0Zm28.773-1.152L682.609,53.4H676.98l-3.208,17.792L671.445,53.4h-5.031l4.119,22.72H676.7l2.956-16.7,2.924,16.7h6.164L692.86,53.4h-4.685Z" transform="translate(-533.781 -44)"/>
</svg>
