<?xml version="1.0" encoding="utf-8"?>
<!-- Generator: Adobe Illustrator 18.1.1, SVG Export Plug-In . SVG Version: 6.00 Build 0)  -->
<svg version="1.1" id="Layer_1" xmlns="http://www.w3.org/2000/svg" xmlns:xlink="http://www.w3.org/1999/xlink" x="0px" y="0px"
	 width="300px" height="250px" viewBox="0 0 300 250" enable-background="new 0 0 300 250" xml:space="preserve">
<path fill="#F0B824" d="M32.7,109.3h12.1v-3.5h-6.3l2.6-1.8c0.6-0.4,1.1-0.8,1.5-1.2c0.4-0.4,0.8-0.8,1.1-1.2
	c0.3-0.4,0.5-0.9,0.7-1.4c0.2-0.5,0.2-1,0.2-1.6v0c0-0.7-0.1-1.4-0.4-2C44,96,43.6,95.5,43.1,95c-0.5-0.4-1.1-0.8-1.8-1
	c-0.7-0.2-1.5-0.4-2.3-0.4c-0.7,0-1.4,0.1-2,0.2c-0.6,0.1-1.1,0.4-1.6,0.6c-0.5,0.3-0.9,0.6-1.4,1c-0.4,0.4-0.8,0.9-1.2,1.4l2.9,2.4
	c0.6-0.7,1.1-1.2,1.6-1.5c0.5-0.3,0.9-0.5,1.5-0.5c0.5,0,0.9,0.1,1.2,0.4c0.3,0.3,0.5,0.7,0.5,1.1c0,0.5-0.1,0.9-0.4,1.3
	c-0.3,0.4-0.8,0.9-1.5,1.5l-5.7,4.4V109.3z"/>
<path fill="#F0B824" d="M50.1,103.2l3.7-4.4v4.4H50.1z M53.7,109.3h4.1v-3h1.9v-3.2h-1.9v-9.3h-4.3l-8,9.5l0.7,3h7.4V109.3z"/>
<path fill="#F0B824" d="M59.3,112.2h3.4l9.7-20.4H69L59.3,112.2z"/>
<path fill="#F0B824" d="M72.8,109.3h4.7l6.8-12.2v-3.2H72.5v3.6h7.1L72.8,109.3z"/>
<path fill="#F0B824" d="M101.4,109.4c0.7-0.2,1.3-0.4,1.8-0.7s1-0.7,1.5-1.1c0.4-0.4,0.8-0.9,1.2-1.4l-3.2-2.3
	c-0.2,0.3-0.5,0.5-0.7,0.8c-0.2,0.2-0.5,0.4-0.8,0.6c-0.3,0.2-0.6,0.3-0.9,0.4c-0.3,0.1-0.7,0.1-1.1,0.1c-0.5,0-1-0.1-1.5-0.3
	c-0.4-0.2-0.8-0.5-1.1-0.9c-0.3-0.4-0.6-0.8-0.8-1.3c-0.2-0.5-0.3-1-0.3-1.6v0c0-0.6,0.1-1.1,0.3-1.6c0.2-0.5,0.4-0.9,0.8-1.3
	c0.3-0.4,0.7-0.7,1.1-0.9c0.4-0.2,0.9-0.3,1.5-0.3c0.7,0,1.4,0.2,1.9,0.5c0.5,0.3,1,0.8,1.4,1.3l3.2-2.5c-0.3-0.5-0.7-0.9-1.1-1.3
	c-0.4-0.4-0.9-0.7-1.4-1c-0.5-0.3-1.1-0.5-1.8-0.7c-0.6-0.2-1.4-0.2-2.1-0.2c-1.2,0-2.2,0.2-3.2,0.6c-1,0.4-1.8,1-2.6,1.7
	c-0.7,0.7-1.3,1.6-1.7,2.6c-0.4,1-0.6,2-0.6,3.1v0c0,1.1,0.2,2.2,0.6,3.2c0.4,1,1,1.8,1.7,2.5c0.7,0.7,1.5,1.3,2.5,1.7
	c1,0.4,2,0.6,3.1,0.6C99.9,109.6,100.7,109.6,101.4,109.4z"/>
<path fill="#F0B824" d="M107.2,109.3h4.2V93.3h-4.2V109.3z"/>
<path fill="#F0B824" d="M117.2,106.6c-0.3-0.2-0.4-0.5-0.4-1v0c0-0.4,0.2-0.8,0.5-1.1c0.3-0.3,0.8-0.4,1.4-0.4c0.3,0,0.6,0,0.9,0.1
	c0.3,0.1,0.5,0.1,0.7,0.2v0.6c0,0.6-0.2,1.1-0.6,1.4c-0.4,0.4-0.9,0.5-1.5,0.5C117.8,107,117.5,106.9,117.2,106.6z M118.8,109.2
	c0.6-0.3,1-0.6,1.5-1.1v1.2h4.1v-6.8c0-0.8-0.1-1.6-0.3-2.2c-0.2-0.6-0.5-1.2-1-1.6c-0.5-0.5-1.1-0.8-1.8-1.1
	c-0.7-0.2-1.6-0.4-2.7-0.4c-1,0-1.9,0.1-2.7,0.3c-0.8,0.2-1.5,0.4-2.1,0.7l0.9,2.9c0.5-0.2,1-0.4,1.6-0.5c0.5-0.1,1.1-0.2,1.7-0.2
	c0.8,0,1.4,0.2,1.8,0.5c0.4,0.3,0.6,0.8,0.6,1.4v0.2c-0.3-0.1-0.8-0.2-1.3-0.3c-0.5-0.1-1-0.1-1.6-0.1c-0.7,0-1.3,0.1-1.9,0.2
	c-0.6,0.2-1.1,0.4-1.5,0.7c-0.4,0.3-0.7,0.7-0.9,1.2c-0.2,0.5-0.3,1-0.3,1.6v0c0,0.6,0.1,1.1,0.3,1.6c0.2,0.5,0.5,0.8,0.8,1.1
	c0.4,0.3,0.8,0.5,1.3,0.7c0.5,0.2,1,0.2,1.6,0.2C117.6,109.6,118.2,109.5,118.8,109.2z"/>
<path fill="#F0B824" d="M126.2,109.3h4.2V97.4h-4.2V109.3z M126.2,96.4h4.4v-3.1h-4.4V96.4z"/>
<path fill="#F0B824" d="M132.4,109.3h4.2v-6.5c0-0.7,0.2-1.2,0.5-1.5c0.3-0.3,0.7-0.5,1.2-0.5c0.5,0,0.9,0.2,1.2,0.5
	c0.3,0.3,0.4,0.8,0.4,1.5v6.5h4.2v-6.5c0-0.7,0.2-1.2,0.5-1.5c0.3-0.3,0.7-0.5,1.2-0.5c0.5,0,0.9,0.2,1.2,0.5
	c0.3,0.3,0.4,0.8,0.4,1.5v6.5h4.2v-7.8c0-1.4-0.4-2.5-1.1-3.2c-0.7-0.8-1.7-1.1-3-1.1c-0.9,0-1.6,0.2-2.3,0.5
	c-0.6,0.3-1.2,0.8-1.7,1.4c-0.3-0.6-0.8-1.1-1.4-1.4c-0.6-0.3-1.3-0.5-2.1-0.5c-0.8,0-1.5,0.2-2.1,0.6c-0.6,0.4-1,0.8-1.4,1.3v-1.6
	h-4.2V109.3z"/>
<path fill="#F0B824" d="M160,109.3c0.6-0.2,1.1-0.4,1.5-0.8c0.4-0.3,0.8-0.8,1-1.2c0.2-0.5,0.4-1.1,0.4-1.7v0c0-0.6-0.1-1.1-0.3-1.5
	c-0.2-0.4-0.5-0.8-0.9-1c-0.4-0.3-0.8-0.5-1.3-0.7c-0.5-0.2-1.1-0.4-1.6-0.5c-0.6-0.2-1.1-0.4-1.4-0.5c-0.3-0.1-0.5-0.3-0.5-0.6v0
	c0-0.2,0.1-0.3,0.2-0.4c0.2-0.1,0.4-0.2,0.7-0.2c0.5,0,1,0.1,1.6,0.3c0.6,0.2,1.2,0.5,1.9,0.8l1.4-2.6c-0.7-0.4-1.5-0.8-2.3-1
	c-0.8-0.2-1.7-0.4-2.6-0.4c-0.7,0-1.3,0.1-1.9,0.3c-0.6,0.2-1.1,0.4-1.5,0.8c-0.4,0.3-0.8,0.7-1,1.2c-0.2,0.5-0.4,1.1-0.4,1.7v0
	c0,0.6,0.1,1.1,0.3,1.5c0.2,0.4,0.5,0.8,0.9,1c0.4,0.3,0.8,0.5,1.3,0.7c0.5,0.2,1.1,0.4,1.6,0.5c0.6,0.2,1.1,0.3,1.4,0.5
	c0.3,0.1,0.5,0.3,0.5,0.5v0c0,0.4-0.4,0.6-1.1,0.6c-0.6,0-1.3-0.1-2-0.3c-0.7-0.2-1.4-0.6-2.1-1l-1.6,2.5c0.8,0.6,1.7,1,2.7,1.3
	c0.9,0.3,1.9,0.4,2.9,0.4C158.8,109.6,159.4,109.5,160,109.3z"/>
<path fill="#F0B824" d="M38.9,124.3l1.7-4.4l1.7,4.4H38.9z M32.1,130.3h4.5l1.1-2.8h5.9l1.1,2.8h4.6l-6.5-15.5h-4.1L32.1,130.3z"/>
<path fill="#F0B824" d="M57.2,130.3c0.6-0.2,1.1-0.4,1.5-0.8c0.4-0.3,0.8-0.8,1-1.2c0.2-0.5,0.4-1.1,0.4-1.7v0
	c0-0.6-0.1-1.1-0.3-1.5c-0.2-0.4-0.5-0.8-0.9-1c-0.4-0.3-0.8-0.5-1.3-0.7c-0.5-0.2-1.1-0.4-1.6-0.5c-0.6-0.2-1.1-0.4-1.4-0.5
	c-0.3-0.1-0.5-0.3-0.5-0.6v0c0-0.2,0.1-0.3,0.2-0.4c0.2-0.1,0.4-0.2,0.7-0.2c0.5,0,1,0.1,1.6,0.3c0.6,0.2,1.2,0.5,1.9,0.8l1.4-2.6
	c-0.7-0.4-1.5-0.8-2.3-1c-0.8-0.2-1.7-0.4-2.6-0.4c-0.7,0-1.3,0.1-1.9,0.3c-0.6,0.2-1.1,0.4-1.5,0.8c-0.4,0.3-0.8,0.7-1,1.2
	c-0.2,0.5-0.4,1.1-0.4,1.7v0c0,0.6,0.1,1.1,0.3,1.5c0.2,0.4,0.5,0.8,0.9,1c0.4,0.3,0.8,0.5,1.3,0.7c0.5,0.2,1.1,0.4,1.6,0.5
	c0.6,0.2,1.1,0.3,1.4,0.5c0.3,0.1,0.5,0.3,0.5,0.5v0c0,0.4-0.4,0.6-1.1,0.6c-0.6,0-1.3-0.1-2-0.3c-0.7-0.2-1.4-0.6-2.1-1l-1.6,2.5
	c0.8,0.6,1.7,1,2.7,1.3c0.9,0.3,1.9,0.4,2.9,0.4C55.9,130.6,56.6,130.5,57.2,130.3z"/>
<path fill="#F0B824" d="M68.4,130.3c0.6-0.2,1.1-0.4,1.5-0.8c0.4-0.3,0.8-0.8,1-1.2c0.2-0.5,0.4-1.1,0.4-1.7v0
	c0-0.6-0.1-1.1-0.3-1.5c-0.2-0.4-0.5-0.8-0.9-1c-0.4-0.3-0.8-0.5-1.3-0.7c-0.5-0.2-1.1-0.4-1.6-0.5c-0.6-0.2-1.1-0.4-1.4-0.5
	c-0.3-0.1-0.5-0.3-0.5-0.6v0c0-0.2,0.1-0.3,0.2-0.4c0.2-0.1,0.4-0.2,0.7-0.2c0.5,0,1,0.1,1.6,0.3c0.6,0.2,1.2,0.5,1.9,0.8l1.4-2.6
	c-0.7-0.4-1.5-0.8-2.3-1c-0.8-0.2-1.7-0.4-2.6-0.4c-0.7,0-1.3,0.1-1.9,0.3c-0.6,0.2-1.1,0.4-1.5,0.8c-0.4,0.3-0.8,0.7-1,1.2
	c-0.2,0.5-0.4,1.1-0.4,1.7v0c0,0.6,0.1,1.1,0.3,1.5c0.2,0.4,0.5,0.8,0.9,1c0.4,0.3,0.8,0.5,1.3,0.7c0.5,0.2,1.1,0.4,1.6,0.5
	c0.6,0.2,1.1,0.3,1.4,0.5c0.3,0.1,0.5,0.3,0.5,0.5v0c0,0.4-0.4,0.6-1.1,0.6c-0.6,0-1.3-0.1-2-0.3c-0.7-0.2-1.4-0.6-2.1-1l-1.6,2.5
	c0.8,0.6,1.7,1,2.7,1.3c0.9,0.3,1.9,0.4,2.9,0.4C67.2,130.6,67.8,130.5,68.4,130.3z"/>
<path fill="#F0B824" d="M73.1,130.3h4.2v-11.9h-4.2V130.3z M73,117.4h4.4v-3.1H73V117.4z"/>
<path fill="#F0B824" d="M86.2,130.3c0.6-0.2,1.1-0.4,1.5-0.8c0.4-0.3,0.8-0.8,1-1.2c0.2-0.5,0.4-1.1,0.4-1.7v0
	c0-0.6-0.1-1.1-0.3-1.5c-0.2-0.4-0.5-0.8-0.9-1c-0.4-0.3-0.8-0.5-1.3-0.7c-0.5-0.2-1.1-0.4-1.6-0.5c-0.6-0.2-1.1-0.4-1.4-0.5
	c-0.3-0.1-0.5-0.3-0.5-0.6v0c0-0.2,0.1-0.3,0.2-0.4c0.2-0.1,0.4-0.2,0.7-0.2c0.5,0,1,0.1,1.6,0.3c0.6,0.2,1.2,0.5,1.9,0.8l1.4-2.6
	c-0.7-0.4-1.5-0.8-2.3-1c-0.8-0.2-1.7-0.4-2.6-0.4c-0.7,0-1.3,0.1-1.9,0.3c-0.6,0.2-1.1,0.4-1.5,0.8c-0.4,0.3-0.8,0.7-1,1.2
	c-0.2,0.5-0.4,1.1-0.4,1.7v0c0,0.6,0.1,1.1,0.3,1.5c0.2,0.4,0.5,0.8,0.9,1c0.4,0.3,0.8,0.5,1.3,0.7c0.5,0.2,1.1,0.4,1.6,0.5
	c0.6,0.2,1.1,0.3,1.4,0.5c0.3,0.1,0.5,0.3,0.5,0.5v0c0,0.4-0.4,0.6-1.1,0.6c-0.6,0-1.3-0.1-2-0.3c-0.7-0.2-1.4-0.6-2.1-1l-1.6,2.5
	c0.8,0.6,1.7,1,2.7,1.3c0.9,0.3,1.9,0.4,2.9,0.4C85,130.6,85.6,130.5,86.2,130.3z"/>
<path fill="#F0B824" d="M97.1,130.4c0.5-0.1,0.9-0.3,1.3-0.5v-3.3c-0.2,0.1-0.5,0.2-0.8,0.3c-0.3,0.1-0.5,0.1-0.8,0.1
	c-0.4,0-0.7-0.1-0.9-0.3c-0.2-0.2-0.3-0.5-0.3-0.9v-4h2.8v-3.4h-2.8v-3h-4.2v3h-1.4v3.4h1.4v4.8c0,1.4,0.4,2.4,1.1,3
	c0.7,0.6,1.7,0.9,3,0.9C96.1,130.6,96.6,130.5,97.1,130.4z"/>
<path fill="#F0B824" d="M104,127.6c-0.3-0.2-0.4-0.5-0.4-1v0c0-0.4,0.2-0.8,0.5-1.1c0.3-0.3,0.8-0.4,1.4-0.4c0.3,0,0.6,0,0.9,0.1
	c0.3,0.1,0.5,0.1,0.7,0.2v0.5c0,0.6-0.2,1.1-0.6,1.4c-0.4,0.4-0.9,0.5-1.5,0.5C104.6,128,104.3,127.9,104,127.6z M105.6,130.2
	c0.6-0.3,1-0.6,1.5-1.1v1.2h4.1v-6.8c0-0.8-0.1-1.6-0.3-2.2c-0.2-0.6-0.5-1.2-1-1.6c-0.5-0.5-1.1-0.8-1.8-1.1
	c-0.7-0.2-1.6-0.4-2.7-0.4c-1,0-1.9,0.1-2.7,0.3c-0.8,0.2-1.5,0.4-2.1,0.7l0.9,2.9c0.5-0.2,1-0.4,1.6-0.5c0.5-0.1,1.1-0.2,1.7-0.2
	c0.8,0,1.4,0.2,1.8,0.5c0.4,0.3,0.6,0.8,0.6,1.4v0.2c-0.3-0.1-0.8-0.2-1.3-0.3c-0.5-0.1-1-0.1-1.6-0.1c-0.7,0-1.3,0.1-1.9,0.2
	c-0.6,0.2-1.1,0.4-1.5,0.7c-0.4,0.3-0.7,0.7-0.9,1.2c-0.2,0.5-0.3,1-0.3,1.6v0c0,0.6,0.1,1.1,0.3,1.6c0.2,0.5,0.5,0.8,0.8,1.1
	c0.4,0.3,0.8,0.5,1.3,0.7c0.5,0.2,1,0.2,1.6,0.2C104.4,130.6,105,130.5,105.6,130.2z"/>
<path fill="#F0B824" d="M113.3,130.3h4.2v-6.4c0-0.7,0.2-1.2,0.5-1.5c0.3-0.3,0.7-0.5,1.2-0.5c0.5,0,0.9,0.2,1.2,0.5
	c0.3,0.3,0.5,0.8,0.5,1.5v6.4h4.2v-7.8c0-1.4-0.4-2.4-1.1-3.2c-0.7-0.8-1.7-1.2-3-1.2c-0.4,0-0.8,0.1-1.1,0.2
	c-0.3,0.1-0.7,0.3-1,0.4c-0.3,0.2-0.5,0.4-0.8,0.6c-0.2,0.2-0.4,0.5-0.6,0.7v-1.7h-4.2V130.3z"/>
<path fill="#F0B824" d="M136.1,129.9c0.8-0.5,1.5-1.2,2.1-2l-2.8-2c-0.3,0.4-0.7,0.7-1,0.9c-0.3,0.2-0.8,0.3-1.3,0.3
	c-0.4,0-0.7-0.1-1-0.2c-0.3-0.1-0.5-0.3-0.7-0.6c-0.2-0.2-0.4-0.5-0.5-0.9c-0.1-0.3-0.2-0.7-0.2-1.1v0c0-0.4,0.1-0.7,0.2-1
	c0.1-0.3,0.3-0.6,0.5-0.8c0.2-0.2,0.4-0.4,0.7-0.6c0.3-0.1,0.6-0.2,0.9-0.2c0.5,0,0.9,0.1,1.3,0.3c0.3,0.2,0.6,0.5,0.9,0.9l2.8-2.1
	c-0.5-0.8-1.2-1.5-2-1.9c-0.8-0.5-1.8-0.7-3.1-0.7c-0.9,0-1.8,0.2-2.6,0.5c-0.8,0.3-1.4,0.8-2,1.3c-0.6,0.6-1,1.2-1.3,2
	c-0.3,0.8-0.5,1.6-0.5,2.4v0c0,0.8,0.2,1.6,0.5,2.4c0.3,0.8,0.7,1.4,1.3,2c0.5,0.6,1.2,1,2,1.3c0.8,0.3,1.6,0.5,2.5,0.5
	C134.2,130.6,135.2,130.4,136.1,129.9z"/>
<path fill="#F0B824" d="M143,123.4c0.1-0.7,0.4-1.2,0.7-1.6c0.4-0.4,0.8-0.6,1.4-0.6c0.6,0,1,0.2,1.4,0.6c0.4,0.4,0.6,0.9,0.7,1.6
	H143z M148.5,130c0.8-0.4,1.5-1,2.1-1.8l-2.3-1.9c-0.4,0.4-0.8,0.7-1.3,0.9c-0.4,0.2-0.9,0.3-1.4,0.3c-0.7,0-1.2-0.2-1.7-0.5
	c-0.4-0.3-0.7-0.8-0.9-1.5h7.9c0-0.1,0-0.3,0-0.4c0-0.1,0-0.3,0-0.4c0-0.9-0.1-1.7-0.4-2.5c-0.2-0.8-0.6-1.5-1.1-2.1
	c-0.5-0.6-1.1-1.1-1.9-1.4c-0.8-0.4-1.6-0.5-2.7-0.5c-0.9,0-1.7,0.2-2.4,0.5c-0.7,0.3-1.4,0.8-1.9,1.3c-0.5,0.6-0.9,1.2-1.2,2
	c-0.3,0.8-0.4,1.6-0.4,2.4v0c0,0.9,0.2,1.8,0.5,2.5c0.3,0.8,0.8,1.4,1.3,1.9c0.6,0.5,1.2,1,2,1.3c0.8,0.3,1.6,0.5,2.6,0.5
	C146.6,130.6,147.7,130.4,148.5,130z"/>
<path fill="#F0B824" d="M152.6,130.3h4.3V126h-4.3V130.3z"/>
<path fill="#FFFFFF" d="M33.3,152.7H35v-4.1h4.7v4.1h1.7v-9.8h-1.7v4.1H35v-4.1h-1.7V152.7z"/>
<path fill="#FFFFFF" d="M46.3,151.2c-0.3-0.1-0.5-0.3-0.7-0.5c-0.2-0.2-0.4-0.5-0.5-0.8c-0.1-0.3-0.2-0.6-0.2-0.9v0
	c0-0.3,0.1-0.6,0.2-0.9c0.1-0.3,0.2-0.5,0.4-0.7c0.2-0.2,0.4-0.4,0.7-0.5c0.3-0.1,0.6-0.2,0.9-0.2c0.3,0,0.6,0.1,0.9,0.2
	c0.3,0.1,0.5,0.3,0.7,0.5c0.2,0.2,0.4,0.5,0.5,0.8c0.1,0.3,0.2,0.6,0.2,0.9v0c0,0.3-0.1,0.6-0.2,0.9c-0.1,0.3-0.2,0.5-0.4,0.7
	c-0.2,0.2-0.4,0.4-0.7,0.5c-0.3,0.1-0.6,0.2-0.9,0.2C46.9,151.4,46.6,151.3,46.3,151.2z M48.7,152.6c0.5-0.2,0.9-0.5,1.2-0.8
	c0.3-0.3,0.6-0.8,0.8-1.2c0.2-0.5,0.3-1,0.3-1.5v0c0-0.5-0.1-1-0.3-1.5c-0.2-0.5-0.5-0.9-0.8-1.2c-0.3-0.3-0.8-0.6-1.2-0.8
	c-0.5-0.2-1-0.3-1.6-0.3c-0.6,0-1.1,0.1-1.6,0.3c-0.5,0.2-0.9,0.5-1.2,0.8c-0.3,0.3-0.6,0.8-0.8,1.2c-0.2,0.5-0.3,1-0.3,1.5v0
	c0,0.5,0.1,1,0.3,1.5c0.2,0.5,0.5,0.9,0.8,1.2c0.3,0.3,0.8,0.6,1.2,0.8c0.5,0.2,1,0.3,1.6,0.3C47.7,152.9,48.2,152.8,48.7,152.6z"/>
<path fill="#FFFFFF" d="M52.8,152.7h1.7v-4.1c0-0.6,0.1-1,0.4-1.4c0.3-0.3,0.7-0.5,1.1-0.5s0.8,0.2,1.1,0.5c0.3,0.3,0.4,0.7,0.4,1.3
	v4.2h1.7v-4.2c0-0.6,0.1-1,0.4-1.4c0.3-0.3,0.7-0.5,1.1-0.5c0.5,0,0.8,0.2,1.1,0.5c0.3,0.3,0.4,0.8,0.4,1.3v4.2H64V148
	c0-0.9-0.2-1.6-0.7-2.1c-0.5-0.5-1.1-0.7-1.9-0.7c-0.6,0-1,0.1-1.4,0.4s-0.8,0.6-1.1,1c-0.2-0.4-0.5-0.7-0.8-1
	c-0.4-0.2-0.8-0.4-1.3-0.4c-0.3,0-0.5,0-0.8,0.1c-0.2,0.1-0.4,0.2-0.6,0.3c-0.2,0.1-0.3,0.3-0.5,0.4c-0.1,0.2-0.3,0.3-0.4,0.5v-1.1
	h-1.7V152.7z"/>
<path fill="#FFFFFF" d="M67.3,148.5c0.1-0.6,0.3-1,0.6-1.4c0.3-0.4,0.8-0.5,1.3-0.5c0.3,0,0.5,0.1,0.7,0.2c0.2,0.1,0.4,0.2,0.6,0.4
	c0.2,0.2,0.3,0.4,0.4,0.6c0.1,0.2,0.2,0.5,0.2,0.8H67.3z M71.2,152.5c0.5-0.3,0.9-0.6,1.3-1l-1-0.9c-0.3,0.3-0.6,0.5-0.9,0.7
	c-0.3,0.1-0.7,0.2-1.1,0.2c-0.5,0-1-0.2-1.4-0.5c-0.4-0.3-0.6-0.8-0.7-1.4h5.4c0-0.1,0-0.2,0-0.2c0-0.1,0-0.2,0-0.2
	c0-0.5-0.1-1-0.2-1.5c-0.1-0.5-0.4-0.9-0.7-1.3c-0.3-0.4-0.7-0.7-1.1-0.9c-0.4-0.2-1-0.3-1.5-0.3c-0.5,0-1,0.1-1.4,0.3
	c-0.4,0.2-0.8,0.5-1.1,0.8c-0.3,0.4-0.6,0.8-0.7,1.2c-0.2,0.5-0.3,1-0.3,1.5v0c0,0.6,0.1,1.1,0.3,1.6c0.2,0.5,0.5,0.9,0.8,1.2
	c0.3,0.3,0.7,0.6,1.2,0.8s1,0.3,1.5,0.3C70.1,152.9,70.7,152.7,71.2,152.5z"/>
<path fill="#FFFFFF" d="M78.7,152.7h1.7v-7.4h-1.7V152.7z M78.7,144.2h1.8v-1.6h-1.8V144.2z"/>
<path fill="#FFFFFF" d="M82.6,152.7h1.7v-4.2c0-0.6,0.2-1,0.5-1.3c0.3-0.3,0.7-0.5,1.2-0.5c0.5,0,0.9,0.2,1.2,0.5
	c0.3,0.3,0.4,0.8,0.4,1.3v4.2h1.7V148c0-0.9-0.2-1.6-0.7-2.1c-0.5-0.5-1.1-0.8-1.9-0.8c-0.3,0-0.5,0-0.8,0.1
	c-0.2,0.1-0.4,0.2-0.6,0.3c-0.2,0.1-0.4,0.3-0.5,0.4c-0.1,0.2-0.3,0.3-0.4,0.5v-1.2h-1.7V152.7z"/>
<path fill="#FFFFFF" d="M94.9,152.7c0.3-0.1,0.6-0.2,0.9-0.4c0.2-0.2,0.4-0.4,0.6-0.7c0.1-0.3,0.2-0.6,0.2-1v0
	c0-0.3-0.1-0.6-0.2-0.9c-0.1-0.2-0.3-0.4-0.5-0.6c-0.2-0.2-0.5-0.3-0.7-0.4c-0.3-0.1-0.5-0.2-0.8-0.3c-0.2-0.1-0.4-0.1-0.6-0.2
	c-0.2-0.1-0.4-0.1-0.5-0.2c-0.2-0.1-0.3-0.2-0.4-0.3c-0.1-0.1-0.1-0.2-0.1-0.3v0c0-0.2,0.1-0.4,0.3-0.5c0.2-0.1,0.4-0.2,0.8-0.2
	c0.3,0,0.6,0.1,1,0.2c0.4,0.1,0.7,0.3,1.1,0.5l0.7-1.2c-0.4-0.3-0.8-0.5-1.3-0.6c-0.5-0.2-0.9-0.2-1.4-0.2c-0.4,0-0.7,0.1-1,0.2
	c-0.3,0.1-0.6,0.3-0.8,0.4c-0.2,0.2-0.4,0.4-0.6,0.7c-0.1,0.3-0.2,0.6-0.2,0.9v0c0,0.4,0.1,0.7,0.2,0.9c0.1,0.2,0.3,0.4,0.5,0.6
	c0.2,0.2,0.5,0.3,0.7,0.4c0.3,0.1,0.5,0.2,0.8,0.3c0.2,0.1,0.4,0.1,0.6,0.2c0.2,0.1,0.4,0.1,0.5,0.2c0.2,0.1,0.3,0.2,0.4,0.3
	c0.1,0.1,0.1,0.2,0.1,0.4v0c0,0.2-0.1,0.4-0.3,0.6c-0.2,0.1-0.5,0.2-0.8,0.2c-0.4,0-0.8-0.1-1.2-0.2c-0.4-0.2-0.8-0.4-1.2-0.7
	l-0.8,1.2c0.5,0.4,1,0.6,1.5,0.8c0.5,0.2,1.1,0.3,1.6,0.3C94.2,152.8,94.5,152.8,94.9,152.7z"/>
<path fill="#FFFFFF" d="M102.2,152.5c0.4-0.3,0.7-0.6,0.9-0.9v1.2h1.7v-7.4h-1.7v4.2c0,0.6-0.2,1-0.5,1.3c-0.3,0.3-0.7,0.5-1.2,0.5
	c-0.5,0-0.9-0.2-1.2-0.5c-0.3-0.3-0.4-0.8-0.4-1.3v-4.2h-1.7v4.7c0,0.9,0.2,1.6,0.7,2.1c0.5,0.5,1.1,0.8,1.9,0.8
	C101.3,152.9,101.8,152.7,102.2,152.5z"/>
<path fill="#FFFFFF" d="M106.9,152.7h1.7v-2.8c0-0.5,0.1-0.9,0.2-1.3c0.1-0.4,0.3-0.7,0.5-0.9c0.2-0.2,0.5-0.4,0.8-0.5
	c0.3-0.1,0.6-0.2,1-0.2h0.1v-1.8c-0.7,0-1.2,0.1-1.6,0.5c-0.4,0.3-0.8,0.8-1,1.3v-1.7h-1.7V152.7z"/>
<path fill="#FFFFFF" d="M117.2,150c0,0.2,0,0.4-0.1,0.6c-0.1,0.2-0.2,0.4-0.4,0.5c-0.2,0.1-0.4,0.2-0.6,0.3
	c-0.2,0.1-0.5,0.1-0.8,0.1c-0.4,0-0.7-0.1-1-0.3c-0.3-0.2-0.4-0.5-0.4-0.8v0c0-0.4,0.1-0.6,0.4-0.8c0.3-0.2,0.7-0.3,1.2-0.3
	c0.3,0,0.6,0,0.9,0.1s0.5,0.1,0.8,0.2V150z M118.8,152.7v-4.4c0-1-0.3-1.8-0.8-2.3c-0.5-0.5-1.3-0.8-2.4-0.8c-0.6,0-1.1,0.1-1.5,0.2
	c-0.4,0.1-0.8,0.3-1.3,0.4l0.5,1.4c0.3-0.1,0.7-0.3,1-0.3c0.3-0.1,0.7-0.1,1.1-0.1c0.6,0,1,0.1,1.3,0.4c0.3,0.3,0.5,0.7,0.5,1.2v0.1
	c-0.3-0.1-0.6-0.2-0.9-0.2c-0.3-0.1-0.7-0.1-1.1-0.1c-0.4,0-0.8,0-1.2,0.1c-0.4,0.1-0.7,0.2-0.9,0.4c-0.3,0.2-0.5,0.5-0.6,0.8
	c-0.1,0.3-0.2,0.7-0.2,1.1v0c0,0.4,0.1,0.7,0.2,1c0.1,0.3,0.3,0.5,0.6,0.7c0.2,0.2,0.5,0.3,0.8,0.4c0.3,0.1,0.7,0.1,1,0.1
	c0.6,0,1-0.1,1.4-0.3c0.4-0.2,0.7-0.5,1-0.8v0.9H118.8z"/>
<path fill="#FFFFFF" d="M120.8,152.7h1.7v-4.2c0-0.6,0.2-1,0.5-1.3c0.3-0.3,0.7-0.5,1.2-0.5c0.5,0,0.9,0.2,1.2,0.5
	c0.3,0.3,0.4,0.8,0.4,1.3v4.2h1.7V148c0-0.9-0.2-1.6-0.7-2.1c-0.5-0.5-1.1-0.8-1.9-0.8c-0.3,0-0.5,0-0.8,0.1
	c-0.2,0.1-0.4,0.2-0.6,0.3c-0.2,0.1-0.4,0.3-0.5,0.4c-0.1,0.2-0.3,0.3-0.4,0.5v-1.2h-1.7V152.7z"/>
<path fill="#FFFFFF" d="M134.7,152.5c0.5-0.3,0.9-0.6,1.2-1l-1-1c-0.3,0.3-0.6,0.5-0.9,0.7c-0.3,0.2-0.7,0.3-1.1,0.3
	c-0.3,0-0.6-0.1-0.9-0.2c-0.3-0.1-0.5-0.3-0.7-0.5c-0.2-0.2-0.3-0.5-0.5-0.8c-0.1-0.3-0.2-0.6-0.2-0.9v0c0-0.3,0.1-0.6,0.2-0.9
	c0.1-0.3,0.3-0.5,0.4-0.7c0.2-0.2,0.4-0.4,0.7-0.5c0.3-0.1,0.5-0.2,0.9-0.2c0.4,0,0.8,0.1,1.1,0.3c0.3,0.2,0.6,0.4,0.8,0.7l1-1.1
	c-0.3-0.4-0.7-0.7-1.2-0.9c-0.5-0.2-1-0.4-1.7-0.4c-0.5,0-1.1,0.1-1.5,0.3c-0.5,0.2-0.9,0.5-1.2,0.8c-0.3,0.3-0.6,0.8-0.8,1.2
	c-0.2,0.5-0.3,1-0.3,1.5v0c0,0.5,0.1,1,0.3,1.5c0.2,0.5,0.5,0.9,0.8,1.2c0.3,0.3,0.7,0.6,1.2,0.8c0.5,0.2,1,0.3,1.5,0.3
	C133.6,152.9,134.2,152.7,134.7,152.5z"/>
<path fill="#FFFFFF" d="M138.7,148.5c0.1-0.6,0.3-1,0.6-1.4c0.3-0.4,0.8-0.5,1.3-0.5c0.3,0,0.5,0.1,0.7,0.2c0.2,0.1,0.4,0.2,0.6,0.4
	c0.2,0.2,0.3,0.4,0.4,0.6c0.1,0.2,0.2,0.5,0.2,0.8H138.7z M142.6,152.5c0.5-0.3,0.9-0.6,1.3-1l-1-0.9c-0.3,0.3-0.6,0.5-0.9,0.7
	c-0.3,0.1-0.7,0.2-1.1,0.2c-0.5,0-1-0.2-1.4-0.5c-0.4-0.3-0.6-0.8-0.7-1.4h5.4c0-0.1,0-0.2,0-0.2c0-0.1,0-0.2,0-0.2
	c0-0.5-0.1-1-0.2-1.5c-0.1-0.5-0.4-0.9-0.7-1.3c-0.3-0.4-0.7-0.7-1.1-0.9c-0.4-0.2-1-0.3-1.5-0.3c-0.5,0-1,0.1-1.4,0.3
	c-0.4,0.2-0.8,0.5-1.1,0.8c-0.3,0.4-0.6,0.8-0.7,1.2c-0.2,0.5-0.3,1-0.3,1.5v0c0,0.6,0.1,1.1,0.3,1.6c0.2,0.5,0.5,0.9,0.8,1.2
	c0.3,0.3,0.7,0.6,1.2,0.8c0.5,0.2,1,0.3,1.5,0.3C141.5,152.9,142.1,152.7,142.6,152.5z"/>
<path fill="#FFFFFF" d="M153.3,152.7c0.2-0.1,0.5-0.2,0.7-0.3v-1.4c-0.3,0.2-0.7,0.3-1,0.3c-0.3,0-0.5-0.1-0.7-0.2
	c-0.2-0.1-0.2-0.4-0.2-0.7v-3.6h2v-1.5h-2v-2h-1.7v2h-0.9v1.5h0.9v3.9c0,0.4,0.1,0.8,0.2,1c0.1,0.3,0.3,0.5,0.4,0.7s0.4,0.3,0.7,0.4
	c0.3,0.1,0.5,0.1,0.9,0.1C152.8,152.8,153.1,152.8,153.3,152.7z"/>
<path fill="#FFFFFF" d="M155.7,152.7h1.7v-4.2c0-0.6,0.2-1,0.5-1.3c0.3-0.3,0.7-0.5,1.2-0.5c0.5,0,0.9,0.2,1.2,0.5
	c0.3,0.3,0.4,0.8,0.4,1.3v4.2h1.7V148c0-0.9-0.2-1.6-0.7-2.1c-0.5-0.5-1.1-0.8-1.9-0.8c-0.3,0-0.5,0-0.8,0.1
	c-0.2,0.1-0.4,0.2-0.6,0.3c-0.2,0.1-0.4,0.3-0.5,0.4c-0.1,0.2-0.3,0.3-0.4,0.5v-4h-1.7V152.7z"/>
<path fill="#FFFFFF" d="M168.9,150c0,0.2,0,0.4-0.1,0.6c-0.1,0.2-0.2,0.4-0.4,0.5c-0.2,0.1-0.4,0.2-0.6,0.3
	c-0.2,0.1-0.5,0.1-0.8,0.1c-0.4,0-0.7-0.1-1-0.3c-0.3-0.2-0.4-0.5-0.4-0.8v0c0-0.4,0.1-0.6,0.4-0.8c0.3-0.2,0.7-0.3,1.2-0.3
	c0.3,0,0.6,0,0.9,0.1c0.3,0.1,0.5,0.1,0.8,0.2V150z M170.6,152.7v-4.4c0-1-0.3-1.8-0.8-2.3c-0.5-0.5-1.3-0.8-2.4-0.8
	c-0.6,0-1.1,0.1-1.5,0.2c-0.4,0.1-0.8,0.3-1.3,0.4l0.5,1.4c0.3-0.1,0.7-0.3,1-0.3c0.3-0.1,0.7-0.1,1.1-0.1c0.6,0,1,0.1,1.3,0.4
	c0.3,0.3,0.5,0.7,0.5,1.2v0.1c-0.3-0.1-0.6-0.2-0.9-0.2c-0.3-0.1-0.7-0.1-1.1-0.1c-0.4,0-0.8,0-1.2,0.1c-0.4,0.1-0.7,0.2-0.9,0.4
	c-0.3,0.2-0.5,0.5-0.6,0.8c-0.1,0.3-0.2,0.7-0.2,1.1v0c0,0.4,0.1,0.7,0.2,1c0.1,0.3,0.3,0.5,0.6,0.7c0.2,0.2,0.5,0.3,0.8,0.4
	c0.3,0.1,0.7,0.1,1,0.1c0.6,0,1-0.1,1.4-0.3c0.4-0.2,0.7-0.5,1-0.8v0.9H170.6z"/>
<path fill="#FFFFFF" d="M175.9,152.7c0.2-0.1,0.5-0.2,0.7-0.3v-1.4c-0.3,0.2-0.7,0.3-1,0.3c-0.3,0-0.5-0.1-0.7-0.2
	c-0.2-0.1-0.2-0.4-0.2-0.7v-3.6h2v-1.5h-2v-2h-1.7v2H172v1.5h0.9v3.9c0,0.4,0.1,0.8,0.2,1c0.1,0.3,0.3,0.5,0.4,0.7
	c0.2,0.2,0.4,0.3,0.7,0.4c0.3,0.1,0.5,0.1,0.9,0.1C175.4,152.8,175.6,152.8,175.9,152.7z"/>
<path fill="#FFFFFF" d="M177.9,146.9c0.7-0.1,1.2-0.3,1.6-0.6c0.4-0.4,0.5-0.9,0.5-1.7v-1.6h-1.9v1.9h0.7c0.1,0.7-0.3,1.2-1.2,1.3
	L177.9,146.9z"/>
<path fill="#FFFFFF" d="M185.6,152.7c0.3-0.1,0.6-0.2,0.9-0.4c0.2-0.2,0.4-0.4,0.6-0.7c0.1-0.3,0.2-0.6,0.2-1v0
	c0-0.3-0.1-0.6-0.2-0.9c-0.1-0.2-0.3-0.4-0.5-0.6c-0.2-0.2-0.5-0.3-0.7-0.4c-0.3-0.1-0.5-0.2-0.8-0.3c-0.2-0.1-0.4-0.1-0.6-0.2
	c-0.2-0.1-0.4-0.1-0.5-0.2c-0.2-0.1-0.3-0.2-0.4-0.3c-0.1-0.1-0.1-0.2-0.1-0.3v0c0-0.2,0.1-0.4,0.3-0.5c0.2-0.1,0.4-0.2,0.8-0.2
	c0.3,0,0.6,0.1,1,0.2c0.4,0.1,0.7,0.3,1.1,0.5l0.7-1.2c-0.4-0.3-0.8-0.5-1.3-0.6c-0.5-0.2-0.9-0.2-1.4-0.2c-0.4,0-0.7,0.1-1,0.2
	c-0.3,0.1-0.6,0.3-0.8,0.4c-0.2,0.2-0.4,0.4-0.6,0.7c-0.1,0.3-0.2,0.6-0.2,0.9v0c0,0.4,0.1,0.7,0.2,0.9c0.1,0.2,0.3,0.4,0.5,0.6
	c0.2,0.2,0.5,0.3,0.7,0.4c0.3,0.1,0.5,0.2,0.8,0.3c0.2,0.1,0.4,0.1,0.6,0.2c0.2,0.1,0.4,0.1,0.5,0.2c0.2,0.1,0.3,0.2,0.4,0.3
	c0.1,0.1,0.1,0.2,0.1,0.4v0c0,0.2-0.1,0.4-0.3,0.6c-0.2,0.1-0.5,0.2-0.8,0.2c-0.4,0-0.8-0.1-1.2-0.2c-0.4-0.2-0.8-0.4-1.2-0.7
	l-0.8,1.2c0.5,0.4,1,0.6,1.5,0.8c0.5,0.2,1.1,0.3,1.6,0.3C184.9,152.8,185.3,152.8,185.6,152.7z"/>
<path fill="#FFFFFF" d="M37.6,165c0,0.2,0,0.4-0.1,0.6c-0.1,0.2-0.2,0.4-0.4,0.5c-0.2,0.1-0.4,0.2-0.6,0.3c-0.2,0.1-0.5,0.1-0.8,0.1
	c-0.4,0-0.7-0.1-1-0.3c-0.3-0.2-0.4-0.5-0.4-0.8v0c0-0.4,0.1-0.6,0.4-0.8c0.3-0.2,0.7-0.3,1.2-0.3c0.3,0,0.6,0,0.9,0.1
	c0.3,0.1,0.5,0.1,0.8,0.2V165z M39.2,167.7v-4.4c0-1-0.3-1.8-0.8-2.3c-0.5-0.5-1.3-0.8-2.4-0.8c-0.6,0-1.1,0.1-1.5,0.2
	c-0.4,0.1-0.8,0.3-1.3,0.4l0.5,1.4c0.3-0.1,0.7-0.3,1-0.3c0.3-0.1,0.7-0.1,1.1-0.1c0.6,0,1,0.1,1.3,0.4c0.3,0.3,0.5,0.7,0.5,1.2v0.1
	c-0.3-0.1-0.6-0.2-0.9-0.2c-0.3-0.1-0.7-0.1-1.1-0.1c-0.4,0-0.8,0-1.2,0.1c-0.4,0.1-0.7,0.2-0.9,0.4c-0.3,0.2-0.5,0.5-0.6,0.8
	c-0.1,0.3-0.2,0.7-0.2,1.1v0c0,0.4,0.1,0.7,0.2,1c0.1,0.3,0.3,0.5,0.6,0.7c0.2,0.2,0.5,0.3,0.8,0.4c0.3,0.1,0.7,0.1,1,0.1
	c0.6,0,1-0.1,1.4-0.3s0.7-0.5,1-0.8v0.9H39.2z"/>
<path fill="#FFFFFF" d="M41.3,167.7H43v-10.2h-1.7V167.7z"/>
<path fill="#FFFFFF" d="M47,167.8h1.5l1.7-5.1l1.6,5.1h1.5l2.4-7.4H54l-1.5,5.1l-1.6-5.1h-1.4l-1.6,5.1l-1.5-5.1h-1.7L47,167.8z"/>
<path fill="#FFFFFF" d="M61.8,165c0,0.2,0,0.4-0.1,0.6c-0.1,0.2-0.2,0.4-0.4,0.5c-0.2,0.1-0.4,0.2-0.6,0.3c-0.2,0.1-0.5,0.1-0.8,0.1
	c-0.4,0-0.7-0.1-1-0.3c-0.3-0.2-0.4-0.5-0.4-0.8v0c0-0.4,0.1-0.6,0.4-0.8c0.3-0.2,0.7-0.3,1.2-0.3c0.3,0,0.6,0,0.9,0.1
	s0.5,0.1,0.8,0.2V165z M63.4,167.7v-4.4c0-1-0.3-1.8-0.8-2.3c-0.5-0.5-1.3-0.8-2.4-0.8c-0.6,0-1.1,0.1-1.5,0.2
	c-0.4,0.1-0.8,0.3-1.3,0.4l0.5,1.4c0.3-0.1,0.7-0.3,1-0.3c0.3-0.1,0.7-0.1,1.1-0.1c0.6,0,1,0.1,1.3,0.4c0.3,0.3,0.5,0.7,0.5,1.2v0.1
	c-0.3-0.1-0.6-0.2-0.9-0.2c-0.3-0.1-0.7-0.1-1.1-0.1c-0.4,0-0.8,0-1.2,0.1c-0.4,0.1-0.7,0.2-0.9,0.4c-0.3,0.2-0.5,0.5-0.6,0.8
	c-0.1,0.3-0.2,0.7-0.2,1.1v0c0,0.4,0.1,0.7,0.2,1c0.1,0.3,0.3,0.5,0.6,0.7c0.2,0.2,0.5,0.3,0.8,0.4c0.3,0.1,0.7,0.1,1,0.1
	c0.6,0,1-0.1,1.4-0.3s0.7-0.5,1-0.8v0.9H63.4z"/>
<path fill="#FFFFFF" d="M67.7,169.9c0.2-0.1,0.4-0.2,0.6-0.4c0.2-0.2,0.4-0.4,0.5-0.6c0.2-0.3,0.3-0.6,0.5-1l2.9-7.6h-1.8l-1.9,5.5
	l-2.1-5.5h-1.8l3.1,7.4c-0.1,0.3-0.3,0.6-0.4,0.7c-0.2,0.1-0.4,0.2-0.6,0.2c-0.2,0-0.3,0-0.5-0.1c-0.2-0.1-0.3-0.1-0.5-0.2l-0.6,1.3
	c0.3,0.1,0.5,0.2,0.8,0.3c0.3,0.1,0.6,0.1,0.9,0.1C67.2,170,67.5,169.9,67.7,169.9z"/>
<path fill="#FFFFFF" d="M77.3,167.7c0.3-0.1,0.6-0.2,0.9-0.4c0.2-0.2,0.4-0.4,0.6-0.7c0.1-0.3,0.2-0.6,0.2-1v0
	c0-0.3-0.1-0.6-0.2-0.9c-0.1-0.2-0.3-0.4-0.5-0.6c-0.2-0.2-0.5-0.3-0.7-0.4c-0.3-0.1-0.5-0.2-0.8-0.3c-0.2-0.1-0.4-0.1-0.6-0.2
	c-0.2-0.1-0.4-0.1-0.5-0.2c-0.2-0.1-0.3-0.2-0.4-0.3c-0.1-0.1-0.1-0.2-0.1-0.3v0c0-0.2,0.1-0.4,0.3-0.5c0.2-0.1,0.4-0.2,0.8-0.2
	c0.3,0,0.6,0.1,1,0.2c0.4,0.1,0.7,0.3,1.1,0.5l0.7-1.2c-0.4-0.3-0.8-0.5-1.3-0.6c-0.5-0.2-0.9-0.2-1.4-0.2c-0.4,0-0.7,0.1-1,0.2
	c-0.3,0.1-0.6,0.3-0.8,0.4c-0.2,0.2-0.4,0.4-0.6,0.7c-0.1,0.3-0.2,0.6-0.2,0.9v0c0,0.4,0.1,0.7,0.2,0.9c0.1,0.2,0.3,0.4,0.5,0.6
	c0.2,0.2,0.5,0.3,0.7,0.4c0.3,0.1,0.5,0.2,0.8,0.3c0.2,0.1,0.4,0.1,0.6,0.2c0.2,0.1,0.4,0.1,0.5,0.2c0.2,0.1,0.3,0.2,0.4,0.3
	c0.1,0.1,0.1,0.2,0.1,0.4v0c0,0.2-0.1,0.4-0.3,0.6c-0.2,0.1-0.5,0.2-0.8,0.2c-0.4,0-0.8-0.1-1.2-0.2c-0.4-0.2-0.8-0.4-1.2-0.7
	l-0.8,1.2c0.5,0.4,1,0.6,1.5,0.8c0.5,0.2,1.1,0.3,1.6,0.3C76.6,167.8,77,167.8,77.3,167.7z"/>
<path fill="#FFFFFF" d="M84.9,167.7h1.7v-4.2c0-0.6,0.2-1,0.5-1.3c0.3-0.3,0.7-0.5,1.2-0.5c0.5,0,0.9,0.2,1.2,0.5
	c0.3,0.3,0.4,0.8,0.4,1.3v4.2h1.7V163c0-0.9-0.2-1.6-0.7-2.1c-0.5-0.5-1.1-0.8-1.9-0.8c-0.3,0-0.5,0-0.8,0.1
	c-0.2,0.1-0.4,0.2-0.6,0.3c-0.2,0.1-0.4,0.3-0.5,0.4c-0.1,0.2-0.3,0.3-0.4,0.5v-4h-1.7V167.7z"/>
<path fill="#FFFFFF" d="M94.8,163.5c0.1-0.6,0.3-1,0.6-1.4c0.3-0.4,0.8-0.5,1.3-0.5c0.3,0,0.5,0.1,0.7,0.2c0.2,0.1,0.4,0.2,0.6,0.4
	c0.2,0.2,0.3,0.4,0.4,0.6c0.1,0.2,0.2,0.5,0.2,0.8H94.8z M98.6,167.5c0.5-0.3,0.9-0.6,1.3-1l-1-0.9c-0.3,0.3-0.6,0.5-0.9,0.7
	c-0.3,0.1-0.7,0.2-1.1,0.2c-0.5,0-1-0.2-1.4-0.5c-0.4-0.3-0.6-0.8-0.7-1.4h5.4c0-0.1,0-0.2,0-0.2c0-0.1,0-0.2,0-0.2
	c0-0.5-0.1-1-0.2-1.5c-0.1-0.5-0.4-0.9-0.7-1.3c-0.3-0.4-0.7-0.7-1.1-0.9c-0.4-0.2-1-0.3-1.5-0.3c-0.5,0-1,0.1-1.4,0.3
	c-0.4,0.2-0.8,0.5-1.1,0.8c-0.3,0.4-0.6,0.8-0.7,1.2c-0.2,0.5-0.3,1-0.3,1.5v0c0,0.6,0.1,1.1,0.3,1.6c0.2,0.5,0.5,0.9,0.8,1.2
	c0.3,0.3,0.7,0.6,1.2,0.8c0.5,0.2,1,0.3,1.5,0.3C97.6,167.9,98.1,167.7,98.6,167.5z"/>
<path fill="#FFFFFF" d="M101.9,167.7h1.7v-2.8c0-0.5,0.1-0.9,0.2-1.3c0.1-0.4,0.3-0.7,0.5-0.9c0.2-0.2,0.5-0.4,0.8-0.5
	c0.3-0.1,0.6-0.2,1-0.2h0.1v-1.8c-0.7,0-1.2,0.1-1.6,0.5c-0.4,0.3-0.8,0.8-1,1.3v-1.7h-1.7V167.7z"/>
<path fill="#FFFFFF" d="M109,163.5c0.1-0.6,0.3-1,0.6-1.4c0.3-0.4,0.8-0.5,1.3-0.5c0.3,0,0.5,0.1,0.7,0.2c0.2,0.1,0.4,0.2,0.6,0.4
	c0.2,0.2,0.3,0.4,0.4,0.6c0.1,0.2,0.2,0.5,0.2,0.8H109z M112.8,167.5c0.5-0.3,0.9-0.6,1.3-1l-1-0.9c-0.3,0.3-0.6,0.5-0.9,0.7
	c-0.3,0.1-0.7,0.2-1.1,0.2c-0.5,0-1-0.2-1.4-0.5c-0.4-0.3-0.6-0.8-0.7-1.4h5.4c0-0.1,0-0.2,0-0.2c0-0.1,0-0.2,0-0.2
	c0-0.5-0.1-1-0.2-1.5c-0.1-0.5-0.4-0.9-0.7-1.3s-0.7-0.7-1.1-0.9c-0.4-0.2-1-0.3-1.5-0.3c-0.5,0-1,0.1-1.4,0.3
	c-0.4,0.2-0.8,0.5-1.1,0.8c-0.3,0.4-0.6,0.8-0.7,1.2c-0.2,0.5-0.3,1-0.3,1.5v0c0,0.6,0.1,1.1,0.3,1.6c0.2,0.5,0.5,0.9,0.8,1.2
	c0.3,0.3,0.7,0.6,1.2,0.8c0.5,0.2,1,0.3,1.5,0.3C111.7,167.9,112.3,167.7,112.8,167.5z"/>
<path fill="#FFFFFF" d="M120.7,167.7h1.7v-5.9h1.9v-1.4h-2V160c0-0.7,0.3-1.1,1-1.1c0.2,0,0.4,0,0.5,0c0.2,0,0.3,0.1,0.5,0.1v-1.4
	c-0.2-0.1-0.4-0.1-0.6-0.1c-0.2,0-0.5-0.1-0.8-0.1c-0.7,0-1.3,0.2-1.7,0.6c-0.4,0.4-0.6,1-0.6,1.8v0.5h-0.9v1.4h0.9V167.7z"/>
<path fill="#FFFFFF" d="M128.2,166.2c-0.3-0.1-0.5-0.3-0.7-0.5c-0.2-0.2-0.4-0.5-0.5-0.8c-0.1-0.3-0.2-0.6-0.2-0.9v0
	c0-0.3,0.1-0.6,0.2-0.9c0.1-0.3,0.2-0.5,0.4-0.7c0.2-0.2,0.4-0.4,0.7-0.5c0.3-0.1,0.6-0.2,0.9-0.2c0.3,0,0.6,0.1,0.9,0.2
	c0.3,0.1,0.5,0.3,0.7,0.5c0.2,0.2,0.4,0.5,0.5,0.8c0.1,0.3,0.2,0.6,0.2,0.9v0c0,0.3-0.1,0.6-0.2,0.9c-0.1,0.3-0.2,0.5-0.4,0.7
	c-0.2,0.2-0.4,0.4-0.7,0.5c-0.3,0.1-0.6,0.2-0.9,0.2C128.7,166.4,128.4,166.3,128.2,166.2z M130.6,167.6c0.5-0.2,0.9-0.5,1.2-0.8
	c0.3-0.3,0.6-0.8,0.8-1.2c0.2-0.5,0.3-1,0.3-1.5v0c0-0.5-0.1-1-0.3-1.5c-0.2-0.5-0.5-0.9-0.8-1.2c-0.3-0.4-0.8-0.6-1.2-0.8
	c-0.5-0.2-1-0.3-1.6-0.3c-0.6,0-1.1,0.1-1.6,0.3c-0.5,0.2-0.9,0.5-1.2,0.8c-0.3,0.3-0.6,0.8-0.8,1.2c-0.2,0.5-0.3,1-0.3,1.5v0
	c0,0.5,0.1,1,0.3,1.5c0.2,0.5,0.5,0.9,0.8,1.2c0.3,0.3,0.8,0.6,1.2,0.8c0.5,0.2,1,0.3,1.6,0.3C129.6,167.9,130.1,167.8,130.6,167.6z
	"/>
<path fill="#FFFFFF" d="M134.7,167.7h1.7v-2.8c0-0.5,0.1-0.9,0.2-1.3c0.1-0.4,0.3-0.7,0.5-0.9c0.2-0.2,0.5-0.4,0.8-0.5
	c0.3-0.1,0.6-0.2,1-0.2h0.1v-1.8c-0.7,0-1.2,0.1-1.6,0.5c-0.4,0.3-0.8,0.8-1,1.3v-1.7h-1.7V167.7z"/>
<path fill="#FFFFFF" d="M146.9,169.9c0.2-0.1,0.4-0.2,0.6-0.4c0.2-0.2,0.4-0.4,0.5-0.6c0.2-0.3,0.3-0.6,0.5-1l2.9-7.6h-1.8l-1.9,5.5
	l-2.1-5.5h-1.8l3.1,7.4c-0.1,0.3-0.3,0.6-0.4,0.7c-0.2,0.1-0.4,0.2-0.6,0.2c-0.2,0-0.3,0-0.5-0.1c-0.2-0.1-0.3-0.1-0.5-0.2l-0.6,1.3
	c0.3,0.1,0.5,0.2,0.8,0.3c0.3,0.1,0.6,0.1,0.9,0.1C146.4,170,146.7,169.9,146.9,169.9z"/>
<path fill="#FFFFFF" d="M155.6,166.2c-0.3-0.1-0.5-0.3-0.7-0.5c-0.2-0.2-0.4-0.5-0.5-0.8c-0.1-0.3-0.2-0.6-0.2-0.9v0
	c0-0.3,0.1-0.6,0.2-0.9c0.1-0.3,0.2-0.5,0.4-0.7c0.2-0.2,0.4-0.4,0.7-0.5c0.3-0.1,0.6-0.2,0.9-0.2c0.3,0,0.6,0.1,0.9,0.2
	c0.3,0.1,0.5,0.3,0.7,0.5c0.2,0.2,0.4,0.5,0.5,0.8c0.1,0.3,0.2,0.6,0.2,0.9v0c0,0.3-0.1,0.6-0.2,0.9c-0.1,0.3-0.2,0.5-0.4,0.7
	c-0.2,0.2-0.4,0.4-0.7,0.5c-0.3,0.1-0.6,0.2-0.9,0.2C156.1,166.4,155.8,166.3,155.6,166.2z M158,167.6c0.5-0.2,0.9-0.5,1.2-0.8
	c0.3-0.3,0.6-0.8,0.8-1.2c0.2-0.5,0.3-1,0.3-1.5v0c0-0.5-0.1-1-0.3-1.5c-0.2-0.5-0.5-0.9-0.8-1.2c-0.3-0.4-0.8-0.6-1.2-0.8
	c-0.5-0.2-1-0.3-1.6-0.3c-0.6,0-1.1,0.1-1.6,0.3c-0.5,0.2-0.9,0.5-1.2,0.8c-0.3,0.3-0.6,0.8-0.8,1.2c-0.2,0.5-0.3,1-0.3,1.5v0
	c0,0.5,0.1,1,0.3,1.5c0.2,0.5,0.5,0.9,0.8,1.2c0.3,0.3,0.8,0.6,1.2,0.8c0.5,0.2,1,0.3,1.6,0.3C157,167.9,157.5,167.8,158,167.6z"/>
<path fill="#FFFFFF" d="M166,167.5c0.4-0.3,0.7-0.6,0.9-0.9v1.2h1.7v-7.4h-1.7v4.2c0,0.6-0.2,1-0.5,1.3c-0.3,0.3-0.7,0.5-1.2,0.5
	c-0.5,0-0.9-0.2-1.2-0.5c-0.3-0.3-0.4-0.8-0.4-1.3v-4.2H162v4.7c0,0.9,0.2,1.6,0.7,2.1c0.5,0.5,1.1,0.8,1.9,0.8
	C165.2,167.9,165.6,167.7,166,167.5z"/>
<path fill="#FFFFFF" d="M170.6,167.7h1.9v-1.9h-1.9V167.7z"/>
</svg>
