<?xml version="1.0" encoding="utf-8"?>
<!-- Generator: Adobe Illustrator 18.1.1, SVG Export Plug-In . SVG Version: 6.00 Build 0)  -->
<svg version="1.1" id="Layer_1" xmlns="http://www.w3.org/2000/svg" xmlns:xlink="http://www.w3.org/1999/xlink" x="0px" y="0px"
	 viewBox="0 0 407.5 167.2" style="enable-background:new 0 0 407.5 167.2;" xml:space="preserve">
<g>
	<path style="fill:#FFFFFF;" d="M383,121h13.5v-8.5h-38.4v8.5h13.5v45.4H383V121z M329,137.2c-3.2,0-5.4-0.2-6.2-0.2v-15.8
		c0.6,0,3.5-0.2,6.2-0.2c7.1,0,10.2,3.6,10.2,8.2C339.2,133.8,336,137.2,329,137.2 M331.8,145.6l11,20.9h12.5l-12.6-22.7
		c1.3-0.6,9-3.7,9-14.7c0-10-6.5-16.5-19.7-16.5h-20.6v53.9h11.4v-20.9H331.8z M261.6,139.5c0-12.1,6.2-18.5,15.3-18.5
		c9.1,0,15.4,6.5,15.4,18.5c0,11.8-6,18.6-15.4,18.6C267.6,158,261.6,151.2,261.6,139.5 M276.9,111.7c-16.4,0-27.1,10.6-27.1,27.8
		c0,17.5,11,27.8,27.1,27.8c17.2,0,27.1-11.4,27.1-27.8C304,123.2,294.1,111.7,276.9,111.7 M223,147.4c12.4,0,19.8-6.2,19.8-17.8
		c0-10-6.8-17.1-19.4-17.1h-17.6v53.9h11.4v-19.5C217.8,147.1,221.3,147.4,223,147.4 M217.1,138.8v-17.6c0.3-0.1,1.1-0.2,3.6-0.2
		c6.7,0,10.5,3.5,10.5,9c0,5.4-3.4,9-10.5,9C219.2,138.9,217.6,138.8,217.1,138.8 M191.7,112.8c-1.4-0.3-5.8-1-10.8-1
		c-14.1,0-20.9,6.8-20.9,15.9c0,9,5.4,12.2,11.4,14.6l5,2.1c4.6,1.8,7.9,3.5,7.9,7.4c0,4.1-4.1,6.4-11.4,6.4c-5.7,0-10.1-1.4-11.5-2
		l-0.9,9.6c1.8,0.5,6.7,1.4,13,1.4c15.7,0,22.2-7.2,22.2-16.3c0-9.6-6.9-13.6-13-16l-5.4-2.2c-3.6-1.5-5.5-3-5.5-6
		c0-3.2,2.4-5.8,9.6-5.8c4.3,0,8.2,1,9.4,1.4L191.7,112.8z M149.4,112.8c-1.4-0.3-5.8-1-10.8-1c-14.1,0-20.9,6.8-20.9,15.9
		c0,9,5.4,12.2,11.4,14.6l5,2.1c4.6,1.8,7.9,3.5,7.9,7.4c0,4.1-4.1,6.4-11.4,6.4c-5.7,0-10.1-1.4-11.5-2l-0.9,9.6
		c1.8,0.5,6.7,1.4,13,1.4c15.7,0,22.2-7.2,22.2-16.3c0-9.6-6.9-13.6-13-16l-5.4-2.2c-3.6-1.5-5.5-3-5.5-6c0-3.2,2.4-5.8,9.6-5.8
		c4.3,0,8.2,1,9.4,1.4L149.4,112.8z M85.1,123.6l8.2,23H76.8l8-23H85.1z M58.6,166.4h10.7l4.4-11.8h22.6l4.4,11.8h11.4l-20.2-53.9
		H79.1L58.6,166.4z M39.4,147.4c12.4,0,19.8-6.2,19.8-17.8c0-10-6.8-17.1-19.4-17.1H22.1v53.9h11.4v-19.5
		C34.2,147.1,37.7,147.4,39.4,147.4 M33.5,138.8v-17.6c0.3-0.1,1.1-0.2,3.6-0.2c6.7,0,10.5,3.5,10.5,9c0,5.4-3.4,9-10.5,9
		C35.5,138.9,33.9,138.8,33.5,138.8"/>
	<path style="fill:#FFFFFF;" d="M371,103.4v-39h0.3l23,39h13.2V49.5H397v37.9h-0.4l-22.3-37.9h-13.8v53.9H371z M326,60.6l8.2,23
		h-16.5l8-23H326z M299.5,103.4h10.7l4.4-11.8h22.6l4.4,11.8H353l-20.2-53.9H320L299.5,103.4z M293.7,51.8c-1-0.6-6.6-3-14.2-3
		c-20.3,0-29,13.6-29,27.8c0,15.7,10,27.8,29,27.8c7.4,0,13-2.3,14.2-3l-3-9.8c-1,0.6-5.6,3.5-12.2,3.5c-10.6,0-16.1-7.3-16.1-18.6
		c0-11.8,5.9-18.5,16.1-18.5c6.7,0,10.3,2.5,12.2,3.5L293.7,51.8z M230.4,103.4h11.4V49.5h-11.4V103.4z M195.9,74.2
		c-3.2,0-5.4-0.2-6.2-0.2V58.2c0.6,0,3.5-0.2,6.2-0.2c7.1,0,10.2,3.6,10.2,8.2C206.2,70.8,203,74.2,195.9,74.2 M198.7,82.6l11,20.9
		h12.5l-12.6-22.7c1.3-0.6,9-3.7,9-14.7c0-10-6.5-16.5-19.7-16.5h-20.6v53.9h11.4V82.6H198.7z M136,103.4h32.1v-8.9h-20.6V80.1h19.4
		v-9h-19.4V58.4h20.5v-8.9H136V103.4z M70.6,103.4l5-38.8H76l11.9,38.8h10l12.4-38.8h0.3l5.7,38.8h10.9l-8.1-53.9h-13.4L93.9,87.4
		L82.3,49.5H68.8L61,103.4H70.6z M26.5,60.6l8.2,23H18.2l8-23H26.5z M0,103.4h10.7l4.4-11.8h22.6l4.4,11.8h11.4L33.3,49.5H20.5
		L0,103.4z"/>
</g>
<path style="fill:#FFFFFF;" d="M81.3,0v6.4h10.1v34.1h8.5V6.4h10.1V0H81.3z M141,0v16.2h-16.2V0h-8.6v40.4h8.6V22.9H141v17.5h8.6V0
	H141z M156.1,0v40.4h24.1v-6.7h-15.5V22.9h14.6v-6.7h-14.6V6.7H180V0H156.1z M232.8,0v28.4h-0.3L215.7,0h-10.4v40.4h7.9V11.2h0.2
	l17.3,29.3h9.9V0H232.8z M247.2,0v40.4h24.1v-6.7h-15.5V22.9h14.6v-6.7h-14.6V6.7h15.4V0H247.2z M325,0l-6.7,30.4H318L310.1,0h-10
	l-7.6,31.3h-0.3L284.7,0h-8.2l10.1,40.4H297l7.6-31.1h0.2l8.4,31.1h9.8L332.8,0H325z"/>
</svg>
