<?xml version="1.0" encoding="utf-8"?>
<!-- Generator: Adobe Illustrator 18.0.0, SVG Export Plug-In . SVG Version: 6.00 Build 0)  -->
<!DOCTYPE svg PUBLIC "-//W3C//DTD SVG 1.1//EN" "http://www.w3.org/Graphics/SVG/1.1/DTD/svg11.dtd">
<svg version="1.1" xmlns="http://www.w3.org/2000/svg" xmlns:xlink="http://www.w3.org/1999/xlink" x="0px" y="0px" width="101px"
	 height="24px" viewBox="0 0 101 24" enable-background="new 0 0 101 24" xml:space="preserve">
<g id="Layer_1">
	<g id="rounded_edges__x2B__square_xA0_Image_1_">
		
			<linearGradient id="SVGID_1_" gradientUnits="userSpaceOnUse" x1="50.5" y1="25.3333" x2="50.5" y2="1.9976" gradientTransform="matrix(1 0 0 -1 0 26)">
			<stop  offset="0" style="stop-color:#4B9F29"/>
			<stop  offset="1" style="stop-color:#3D841E"/>
		</linearGradient>
		<path fill="url(#SVGID_1_)" d="M5,0h91c2.8,0,5,2.2,5,5v14c0,2.8-2.2,5-5,5H5c-2.8,0-5-2.2-5-5V5C0,2.2,2.2,0,5,0z"/>
	</g>
	<g id="Learn_More_1_" enable-background="new    ">
		<g id="Learn_More">
			<g>
				<path fill="#FFFFFF" d="M9.7,7.3H8.5v9.5h6v-1.1H9.7V7.3z M18.6,9.8c-1,0-1.7,0.3-2.3,1c-0.6,0.6-0.9,1.5-0.9,2.7
					c0,1.1,0.3,2,0.9,2.6c0.6,0.6,1.4,0.9,2.4,0.9c0.8,0,1.5-0.2,2-0.6s0.9-0.9,1.1-1.6l-1.2-0.1c-0.2,0.5-0.4,0.9-0.7,1.1
					c-0.3,0.2-0.7,0.3-1.1,0.3c-0.6,0-1.1-0.2-1.4-0.6c-0.4-0.4-0.6-1-0.6-1.7H22c0-0.1,0-0.2,0-0.3c0-1.1-0.3-2-0.9-2.7
					C20.3,10.1,19.6,9.8,18.6,9.8z M16.7,12.8c0-0.6,0.2-1.1,0.6-1.4c0.4-0.4,0.8-0.5,1.4-0.5s1.1,0.2,1.5,0.7
					c0.2,0.3,0.4,0.7,0.4,1.3h-3.9V12.8z M28.8,14v-1.6c0-0.5,0-0.9-0.1-1.1c-0.1-0.3-0.2-0.6-0.4-0.8c-0.2-0.2-0.4-0.4-0.8-0.5
					s-0.8-0.2-1.4-0.2S25,9.9,24.5,10c-0.5,0.2-0.8,0.4-1,0.7s-0.4,0.7-0.5,1.2l1.1,0.2c0.1-0.5,0.3-0.8,0.6-1
					c0.3-0.2,0.7-0.3,1.2-0.3c0.6,0,1,0.1,1.3,0.4c0.2,0.2,0.3,0.5,0.3,1c0,0,0,0.1,0,0.3c-0.4,0.2-1.1,0.3-2.1,0.4
					c-0.5,0.1-0.8,0.1-1,0.2c-0.3,0.1-0.6,0.2-0.8,0.4c-0.2,0.2-0.5,0.4-0.6,0.7c-0.2,0.3-0.2,0.6-0.2,0.9c0,0.6,0.2,1.1,0.6,1.4
					c0.4,0.4,1,0.6,1.8,0.6c0.5,0,0.9-0.1,1.3-0.2c0.4-0.2,0.8-0.4,1.3-0.8c0,0.3,0.1,0.6,0.2,0.9h1.2c-0.1-0.3-0.2-0.5-0.3-0.8
					C28.8,15.8,28.8,15.1,28.8,14z M27.6,13.8c0,0.5-0.1,0.9-0.2,1.2c-0.2,0.3-0.4,0.6-0.8,0.8s-0.8,0.3-1.2,0.3
					c-0.5,0-0.8-0.1-1-0.3S24,15.3,24,15c0-0.2,0.1-0.4,0.2-0.6c0.1-0.2,0.3-0.3,0.5-0.4c0.2-0.1,0.5-0.2,1-0.2
					c0.9-0.1,1.5-0.3,1.9-0.4V13.8z M32.4,10c-0.2,0.2-0.5,0.5-0.7,1v-1h-1.1v6.9h1.2v-3.6c0-0.5,0.1-1,0.2-1.4
					c0.1-0.3,0.2-0.5,0.4-0.6c0.2-0.2,0.4-0.2,0.7-0.2s0.6,0.1,0.9,0.3l0.4-1.1C34,10,33.6,9.9,33.2,9.9C32.9,9.8,32.6,9.9,32.4,10z
					 M40.3,10.6c-0.2-0.2-0.4-0.4-0.8-0.6c-0.3-0.1-0.7-0.2-1.1-0.2c-1,0-1.7,0.4-2.2,1.1v-1h-1.1v6.9h1.2V13c0-0.9,0.2-1.5,0.5-1.8
					c0.4-0.3,0.8-0.5,1.3-0.5c0.3,0,0.6,0.1,0.8,0.2c0.2,0.1,0.4,0.3,0.5,0.6c0.1,0.2,0.1,0.6,0.1,1.1v4.2h1.2v-4.3
					c0-0.5,0-0.9-0.1-1.1C40.5,11.2,40.4,10.9,40.3,10.6z M51.4,14c-0.2,0.7-0.4,1.2-0.5,1.5c-0.1-0.3-0.2-0.8-0.5-1.4l-2.3-6.8
					h-1.9v9.5h1.2v-8l2.8,8.1h1.1l2.8-8v8h1.2V7.3h-1.7L51.4,14z M60.1,9.8c-0.9,0-1.6,0.3-2.2,0.8c-0.7,0.6-1.1,1.6-1.1,2.8
					s0.3,2.1,0.9,2.7c0.6,0.6,1.4,0.9,2.3,0.9c0.6,0,1.2-0.1,1.7-0.4s0.9-0.7,1.2-1.2s0.4-1.2,0.4-2.1c0-1.1-0.3-2-0.9-2.6
					S61,9.8,60.1,9.8z M61.5,15.4c-0.4,0.4-0.9,0.7-1.5,0.7s-1.1-0.2-1.5-0.7c-0.4-0.4-0.6-1.1-0.6-2s0.2-1.5,0.6-2
					c0.4-0.4,0.9-0.7,1.5-0.7s1.1,0.2,1.4,0.7c0.4,0.4,0.6,1.1,0.6,1.9C62.1,14.3,61.9,15,61.5,15.4z M66.5,10
					c-0.2,0.2-0.5,0.5-0.7,1v-1h-1.1v6.9h1.2v-3.6c0-0.5,0.1-1,0.2-1.4c0.1-0.3,0.2-0.5,0.4-0.6c0.2-0.2,0.4-0.2,0.7-0.2
					c0.3,0,0.6,0.1,0.9,0.3l0.4-1.1c-0.4-0.3-0.8-0.4-1.2-0.4C67,9.8,66.7,9.9,66.5,10z M75.1,13.4c0-1.1-0.3-2-0.9-2.7
					c-0.6-0.6-1.3-0.9-2.3-0.9s-1.7,0.3-2.3,1c-0.6,0.6-0.9,1.5-0.9,2.7c0,1.1,0.3,2,0.9,2.6S71,17,72,17c0.8,0,1.5-0.2,2-0.6
					s0.9-0.9,1.1-1.6l-1.2-0.1c-0.2,0.5-0.4,0.9-0.7,1.1c-0.3,0.2-0.7,0.3-1.1,0.3c-0.6,0-1.1-0.2-1.4-0.6c-0.4-0.4-0.6-1-0.6-1.7
					h5.2C75.1,13.6,75.1,13.5,75.1,13.4z M70,12.8c0-0.6,0.2-1.1,0.6-1.4c0.4-0.4,0.8-0.5,1.4-0.5s1.1,0.2,1.5,0.7
					c0.2,0.3,0.4,0.7,0.4,1.3H70V12.8z"/>
			</g>
		</g>
	</g>
</g>
<g id="Layer_2">
	<path fill="#FFFFFF" d="M88.8,6.3c-4.1,0-7.5,3.1-7.5,7c0,3.9,3.4,7,7.5,7c4.1,0,7.5-3.1,7.5-7C96.3,9.4,93,6.3,88.8,6.3z
		 M92.2,14.5l-4.2,3.2c-0.2,0.2-0.5,0.3-0.8,0.3c-0.4,0-0.8-0.2-1-0.4c-0.4-0.5-0.4-1.3,0.2-1.7l3-2.3l-3.1-2.7
		c-0.5-0.5-0.5-1.2-0.1-1.7c0.5-0.5,1.3-0.5,1.8,0l4.2,3.7c0.3,0.2,0.4,0.6,0.4,0.9C92.7,13.9,92.5,14.2,92.2,14.5z"/>
</g>
</svg>
