<?xml version="1.0" encoding="utf-8"?>
<!-- Generator: Adobe Illustrator 18.1.1, SVG Export Plug-In . SVG Version: 6.00 Build 0)  -->
<svg version="1.1" id="Layer_1" xmlns="http://www.w3.org/2000/svg" xmlns:xlink="http://www.w3.org/1999/xlink" x="0px" y="0px"
	 viewBox="0 0 38 36" style="enable-background:new 0 0 38 36;" xml:space="preserve">
<g>
	<path style="fill:#FFCC00;" d="M18.5,1c0.3-0.5,0.7-0.5,1,0l4.8,9.7c0.3,0.5,1,1,1.5,1.1l10.7,1.6c0.6,0.1,0.7,0.5,0.3,0.9L29,21.7
		c-0.4,0.4-0.7,1.2-0.6,1.8l1.8,10.6c0.1,0.6-0.2,0.8-0.8,0.6l-9.5-5c-0.5-0.3-1.4-0.3-1.9,0l-9.5,5c-0.5,0.3-0.9,0-0.8-0.6
		l1.8-10.6C9.7,23,9.4,22.2,9,21.7l-7.7-7.5c-0.4-0.4-0.3-0.8,0.3-0.9l10.7-1.6c0.6-0.1,1.3-0.6,1.5-1.1L18.5,1z"/>
	<path style="fill:#DCDDDE;" d="M19,0.6c0.2,0,0.3,0.1,0.5,0.4l4.8,9.7c0.3,0.5,1,1,1.5,1.1l10.7,1.6c0.6,0.1,0.7,0.5,0.3,0.9
		L29,21.7c-0.4,0.4-0.7,1.2-0.6,1.8l1.8,10.6c0.1,0.4-0.1,0.7-0.4,0.7c-0.1,0-0.2,0-0.4-0.1l-9.5-5c-0.3-0.1-0.6-0.2-1-0.2
		c-0.3,0-0.7,0.1-1,0.2l-9.5,5c-0.1,0.1-0.3,0.1-0.4,0.1c-0.3,0-0.5-0.2-0.4-0.7l1.8-10.6C9.7,23,9.4,22.2,9,21.7l-7.7-7.5
		c-0.4-0.4-0.3-0.8,0.3-0.9l10.7-1.6c0.6-0.1,1.3-0.6,1.5-1.1L18.5,1C18.7,0.7,18.8,0.6,19,0.6 M19-0.4c-0.6,0-1.1,0.3-1.4,1
		l-4.8,9.7c-0.1,0.2-0.5,0.5-0.8,0.6L1.4,12.3c-0.7,0.1-1.2,0.5-1.3,1c-0.2,0.5,0,1.1,0.5,1.6l7.7,7.5c0.2,0.2,0.3,0.7,0.3,0.9
		L6.7,34c-0.1,0.5,0,1,0.3,1.4c0.3,0.3,0.6,0.5,1.1,0.5c0.3,0,0.6-0.1,0.9-0.2l9.5-5c0.1,0,0.3-0.1,0.5-0.1c0.2,0,0.4,0,0.5,0.1
		l9.5,5c0.3,0.2,0.6,0.2,0.9,0.2c0.4,0,0.8-0.2,1.1-0.5c0.3-0.3,0.4-0.8,0.3-1.4l-1.8-10.6c0-0.3,0.1-0.7,0.3-0.9l7.7-7.5
		c0.5-0.5,0.7-1.1,0.5-1.6c-0.2-0.5-0.7-0.9-1.3-1l-10.7-1.6c-0.3,0-0.7-0.3-0.8-0.6l-4.8-9.7C20.1-0.1,19.6-0.4,19-0.4L19-0.4z"/>
</g>
<path style="fill:#ACACAC;" d="M37.1,13.8c0.2-0.2,0.2-0.4-0.2-0.5l-11.7-1.7c-0.3,0-0.7-0.3-0.8-0.6l-2.8-5.6v25.2l8.2,4.3
	c0.3,0.1,0.5,0,0.4-0.3l-2-11.6c-0.1-0.3,0.1-0.8,0.3-1L37.1,13.8z"/>
</svg>
