<?xml version="1.0" encoding="utf-8"?>
<!-- Generator: Adobe Illustrator 18.1.1, SVG Export Plug-In . SVG Version: 6.00 Build 0)  -->
<svg version="1.1" id="Layer_1" xmlns="http://www.w3.org/2000/svg" xmlns:xlink="http://www.w3.org/1999/xlink" x="0px" y="0px"
	 width="250px" height="250px" viewBox="0 0 250 250" enable-background="new 0 0 250 250" xml:space="preserve">
<path fill="#FFFFFF" d="M21.2,92.6c0-0.8,0.7-1.4,1.9-1.4c1,0,2.1,0.4,3.1,1.2l1.1-1.5c-1.2-0.9-2.5-1.4-4.1-1.4
	c-2.3,0-3.9,1.3-3.9,3.3c0,2.1,1.4,2.8,3.8,3.4c2.1,0.5,2.6,0.9,2.6,1.8c0,0.9-0.8,1.4-2,1.4c-1.4,0-2.5-0.5-3.6-1.5l-1.2,1.4
	c1.4,1.2,3,1.8,4.7,1.8c2.4,0,4.1-1.3,4.1-3.4c0-1.9-1.3-2.8-3.7-3.3C21.7,93.8,21.2,93.5,21.2,92.6z"/>
<path fill="#FFFFFF" d="M35.7,92.4H34l-1.9,5.9l-1.7-5.9h-2l2.8,8.6h1.8l1.9-5.9l1.9,5.9h1.8l2.8-8.6h-2l-1.8,5.9L35.7,92.4z"/>
<path fill="#FFFFFF" d="M44.8,91.1v-1.9h-2.1v1.9H44.8z M44.7,101v-8.6h-2v8.6H44.7z"/>
<path fill="#FFFFFF" d="M49.3,94.1h2.3v-1.7h-2.3V90h-2v2.4h-1.1v1.7h1.1v4.5c0,1.9,1,2.5,2.5,2.5c0.7,0,1.3-0.2,1.8-0.4v-1.6
	c-0.4,0.2-0.8,0.3-1.2,0.3c-0.7,0-1.1-0.3-1.1-1.1V94.1z"/>
<path fill="#FFFFFF" d="M60.4,99.6l-1.2-1.2c-0.6,0.6-1.3,1.1-2.2,1.1c-1.5,0-2.6-1.2-2.6-2.8c0-1.5,1-2.7,2.5-2.7
	c1,0,1.6,0.4,2.2,1.1l1.2-1.3c-0.8-0.9-1.8-1.5-3.4-1.5c-2.6,0-4.5,2-4.5,4.5c0,2.5,1.9,4.5,4.4,4.5
	C58.6,101.2,59.6,100.5,60.4,99.6z"/>
<path fill="#FFFFFF" d="M63.8,96.1c0-1.3,0.8-2.1,1.9-2.1c1.2,0,1.8,0.8,1.8,2.1v4.9h2v-5.5c0-2-1.1-3.3-3.1-3.3
	c-1.3,0-2.1,0.7-2.7,1.5v-4.6h-2V101h2V96.1z"/>
<path fill="#FFFFFF" d="M83.1,101v-5.1c0-2.3-1.2-3.6-3.8-3.6c-1.4,0-2.3,0.3-3.3,0.7l0.5,1.6c0.8-0.3,1.5-0.5,2.5-0.5
	c1.4,0,2.1,0.7,2.1,1.8v0.2c-0.7-0.2-1.3-0.4-2.4-0.4c-2,0-3.5,0.9-3.5,2.8v0c0,1.7,1.4,2.6,3.1,2.6c1.3,0,2.2-0.5,2.8-1.2v1.1H83.1
	z M81.2,97.9c0,1.1-1,1.8-2.3,1.8c-0.9,0-1.7-0.5-1.7-1.3v0c0-0.9,0.7-1.4,2-1.4c0.8,0,1.5,0.1,2,0.3V97.9z"/>
<path fill="#FFFFFF" d="M87,96.1c0-1.3,0.8-2.1,1.9-2.1c1.2,0,1.8,0.8,1.8,2.1v4.9h2v-5.5c0-2-1.1-3.3-3.1-3.3
	c-1.3,0-2.1,0.7-2.7,1.5v-1.3h-2v8.6h2V96.1z"/>
<path fill="#FFFFFF" d="M103.2,101V89.1h-2v4.6c-0.6-0.8-1.5-1.5-2.9-1.5c-2,0-4,1.6-4,4.5c0,2.9,2,4.5,4,4.5c1.4,0,2.3-0.7,2.9-1.6
	v1.4H103.2z M101.3,96.7c0,1.7-1.2,2.8-2.5,2.8c-1.3,0-2.5-1.1-2.5-2.8c0-1.7,1.1-2.8,2.5-2.8C100.1,93.9,101.3,95,101.3,96.7z"/>
<path fill="#FFFFFF" d="M27.2,110.7h-2L23,117l-2.4-6.4h-2.1l3.6,8.6c-0.3,0.7-0.7,1-1.2,1c-0.4,0-0.8-0.1-1.2-0.3l-0.7,1.5
	c0.6,0.3,1.2,0.5,2,0.5c1.4,0,2.1-0.7,2.8-2.4L27.2,110.7z"/>
<path fill="#FFFFFF" d="M36.7,115c0-2.5-1.9-4.5-4.6-4.5c-2.6,0-4.6,2-4.6,4.5c0,2.5,1.9,4.5,4.6,4.5
	C34.8,119.4,36.7,117.4,36.7,115z M34.7,115c0,1.5-1,2.7-2.6,2.7c-1.5,0-2.6-1.3-2.6-2.8c0-1.5,1-2.7,2.6-2.7
	C33.7,112.2,34.7,113.5,34.7,115z"/>
<path fill="#FFFFFF" d="M43.9,115.5c0,1.3-0.8,2.1-1.9,2.1c-1.2,0-1.8-0.8-1.8-2.1v-4.9h-2v5.5c0,2,1.1,3.3,3.1,3.3
	c1.3,0,2.1-0.7,2.7-1.5v1.3h2v-8.6h-2V115.5z"/>
<path fill="#FFFFFF" d="M59.9,117.8l-1.2-1.2c-0.6,0.6-1.3,1.1-2.2,1.1c-1.5,0-2.6-1.2-2.6-2.8c0-1.5,1-2.7,2.5-2.7
	c1,0,1.6,0.4,2.2,1.1l1.2-1.3c-0.8-0.9-1.8-1.5-3.4-1.5c-2.6,0-4.5,2-4.5,4.5c0,2.5,1.9,4.5,4.4,4.5
	C58.1,119.4,59.1,118.8,59.9,117.8z"/>
<path fill="#FFFFFF" d="M69.8,115c0-2.5-1.9-4.5-4.6-4.5c-2.6,0-4.6,2-4.6,4.5c0,2.5,1.9,4.5,4.6,4.5
	C67.8,119.4,69.8,117.4,69.8,115z M67.8,115c0,1.5-1,2.7-2.6,2.7c-1.5,0-2.6-1.3-2.6-2.8c0-1.5,1-2.7,2.6-2.7
	C66.7,112.2,67.8,113.5,67.8,115z"/>
<path fill="#FFFFFF" d="M77,115.5c0,1.3-0.8,2.1-1.9,2.1c-1.2,0-1.8-0.8-1.8-2.1v-4.9h-2v5.5c0,2,1.1,3.3,3.1,3.3
	c1.3,0,2.1-0.7,2.7-1.5v1.3h2v-8.6h-2V115.5z"/>
<path fill="#FFFFFF" d="M83.1,119.3v-11.9h-2v11.9H83.1z"/>
<path fill="#FFFFFF" d="M93.7,119.3v-11.9h-2v4.6c-0.6-0.8-1.5-1.5-2.9-1.5c-2,0-4,1.6-4,4.5c0,2.9,2,4.5,4,4.5
	c1.4,0,2.3-0.7,2.9-1.6v1.4H93.7z M91.8,115c0,1.7-1.2,2.8-2.5,2.8c-1.3,0-2.5-1.1-2.5-2.8c0-1.7,1.1-2.8,2.5-2.8
	C90.6,112.2,91.8,113.3,91.8,115z"/>
<path fill="#FFFFFF" d="M106.4,116.7L106.4,116.7c0-1.6-1.4-2.1-2.7-2.5c-1-0.3-1.9-0.6-1.9-1.2v0c0-0.5,0.4-0.9,1.2-0.9
	c0.7,0,1.6,0.3,2.4,0.8l0.8-1.4c-0.9-0.6-2.1-1-3.2-1c-1.7,0-3.1,1-3.1,2.6v0c0,1.6,1.4,2.2,2.7,2.5c1,0.3,1.9,0.5,1.9,1.2v0
	c0,0.6-0.5,0.9-1.3,0.9c-0.9,0-1.9-0.4-2.8-1.1l-0.9,1.3c1.1,0.8,2.4,1.3,3.6,1.3C105,119.4,106.4,118.5,106.4,116.7z"/>
<path fill="#FFFFFF" d="M115.2,119.3v-5.1c0-2.3-1.2-3.6-3.8-3.6c-1.4,0-2.3,0.3-3.3,0.7l0.5,1.6c0.8-0.3,1.5-0.5,2.5-0.5
	c1.4,0,2.1,0.7,2.1,1.8v0.2c-0.7-0.2-1.3-0.4-2.4-0.4c-2,0-3.5,0.9-3.5,2.8v0c0,1.7,1.4,2.7,3.1,2.7c1.3,0,2.2-0.5,2.8-1.2v1.1
	H115.2z M113.3,116.1c0,1.1-1,1.8-2.3,1.8c-0.9,0-1.7-0.5-1.7-1.3v0c0-0.9,0.7-1.4,2-1.4c0.8,0,1.5,0.1,2,0.3V116.1z"/>
<path fill="#FFFFFF" d="M120.4,117l-2.3-6.3h-2.1l3.5,8.6h1.8l3.5-8.6h-2.1L120.4,117z"/>
<path fill="#FFFFFF" d="M127,115.7h6.3c0-0.2,0-0.4,0-0.5c0-2.5-1.4-4.6-4.1-4.6c-2.5,0-4.2,2-4.2,4.5c0,2.7,1.9,4.5,4.4,4.5
	c1.6,0,2.7-0.6,3.5-1.6l-1.2-1c-0.7,0.7-1.4,1-2.3,1C128.2,117.8,127.3,117.1,127,115.7z M127,114.4c0.2-1.3,1-2.3,2.2-2.3
	c1.3,0,2,1,2.2,2.3H127z"/>
<path fill="#F0B824" d="M49.4,129.2c-3.1-2.1-6.6-3.4-10.8-4v-3.1h-5.3v3c-7.8,0.6-12.3,4.7-12.3,10.7v0.1c0,6.4,4.3,9.2,12.5,11.1
	v6.2c-3.2-0.6-6.2-2-9.5-4.3l-4.6,6.8c3.8,2.8,8.8,4.6,13.9,5.1v5.1h5.3v-5c7.3-0.7,12.1-4.5,12.1-10.8v-0.1
	c0-6.4-4.2-9.2-12.3-11.1V133c2.3,0.6,4.8,1.6,6.9,3.1L49.4,129.2z M41.7,150.9v0.1c0,1.5-1.1,2.4-3.4,2.6v-5.6
	C40.9,148.7,41.7,149.5,41.7,150.9z M30,135.2v-0.1c0-1.3,1-2.4,3.5-2.5v5.5C30.7,137.4,30,136.6,30,135.2z"/>
<path fill="#F0B824" d="M66.4,161.8c8.7,0,14.8-4.8,14.8-12.8v-0.1c0-7.8-5.9-11.4-12.3-11.4c-2.4,0-4.1,0.5-5.7,1.3l0.3-5.4h16.2
	v-8.2h-24l-1,18.2l5.9,3.3c1.7-1,3.5-1.8,5.7-1.8c3.1,0,5.3,1.5,5.3,4.2v0.1c0,2.6-1.9,4.2-5.2,4.2c-3.1,0-5.9-1.4-8.7-3.9l-5.7,6.7
	C55.7,159.6,60.1,161.8,66.4,161.8z"/>
<path fill="#F0B824" d="M99.3,161.8c10.3,0,16.7-8.5,16.7-18.7V143c0-10.2-6.4-18.6-16.6-18.6s-16.7,8.5-16.7,18.7v0.1
	C82.8,153.4,89.1,161.8,99.3,161.8z M99.4,153c-4,0-6.7-4.1-6.7-9.8V143c0-5.7,2.6-9.8,6.6-9.8c4,0,6.7,4.2,6.7,9.9v0.1
	C106,148.9,103.4,153,99.4,153z"/>
<path fill="#F0B824" d="M130.6,153.5c-2.8,0-5.2-0.9-7.7-2.9l-4.7,6.9c3.3,2.6,7.2,4.3,12.6,4.3c10.7,0,16.6-8.1,16.6-19.8v-0.1
	c0-6.6-1.7-10.7-4.3-13.3c-2.7-2.7-5.8-4.2-11-4.2c-8.2,0-14.3,5.1-14.3,13v0.1c0,7,5.1,11.4,12.1,11.4c2.8,0,5.4-0.9,7.6-2.9
	C137.2,148.9,135.9,153.5,130.6,153.5z M132.5,141.8c-3.1,0-5.1-2-5.1-4.7V137c0-2.8,1.9-4.9,5-4.9c3.1,0,5.1,2.2,5.1,4.9v0.1
	C137.6,139.8,135.7,141.8,132.5,141.8z"/>
<path fill="#FFFFFF" d="M27.9,175.1c0-2.5-1.9-4.5-4.6-4.5c-2.6,0-4.6,2-4.6,4.5c0,2.5,1.9,4.5,4.6,4.5
	C26,179.6,27.9,177.5,27.9,175.1z M26,175.1c0,1.5-1,2.7-2.6,2.7c-1.5,0-2.6-1.3-2.6-2.8c0-1.5,1-2.7,2.6-2.7
	C24.9,172.3,26,173.6,26,175.1z"/>
<path fill="#FFFFFF" d="M31.5,174.5c0-1.3,0.8-2.1,1.9-2.1c1.2,0,1.8,0.8,1.8,2.1v4.9h2v-5.5c0-2-1.1-3.3-3.1-3.3
	c-1.3,0-2.1,0.7-2.7,1.5v-1.3h-2v8.6h2V174.5z"/>
<path fill="#FFFFFF" d="M51.1,178l-1.2-1.2c-0.6,0.6-1.3,1.1-2.2,1.1c-1.5,0-2.6-1.2-2.6-2.8c0-1.5,1-2.7,2.5-2.7
	c1,0,1.6,0.4,2.2,1.1l1.2-1.3c-0.8-0.9-1.8-1.5-3.4-1.5c-2.6,0-4.5,2-4.5,4.5c0,2.5,1.9,4.5,4.4,4.5C49.3,179.6,50.3,178.9,51.1,178
	z"/>
<path fill="#FFFFFF" d="M59.7,179.4v-5.1c0-2.3-1.2-3.6-3.8-3.6c-1.4,0-2.3,0.3-3.3,0.7l0.5,1.6c0.8-0.3,1.5-0.5,2.5-0.5
	c1.4,0,2.1,0.7,2.1,1.8v0.2c-0.7-0.2-1.3-0.4-2.4-0.4c-2,0-3.5,0.9-3.5,2.8v0c0,1.7,1.4,2.7,3.1,2.7c1.3,0,2.2-0.5,2.8-1.2v1.1H59.7
	z M57.8,176.3c0,1.1-1,1.8-2.3,1.8c-0.9,0-1.7-0.5-1.7-1.3v0c0-0.9,0.7-1.4,2-1.4c0.8,0,1.5,0.1,2,0.3V176.3z"/>
<path fill="#FFFFFF" d="M63.6,176.1c0-2.3,1.2-3.4,2.9-3.4h0.1v-2.1c-1.5-0.1-2.5,0.8-3,2.1v-1.9h-2v8.6h2V176.1z"/>
<path fill="#FFFFFF" d="M74.6,169.5v-1.9h-2.1v1.9H74.6z M74.5,179.4v-8.6h-2v8.6H74.5z"/>
<path fill="#FFFFFF" d="M78.7,174.5c0-1.3,0.8-2.1,1.9-2.1c1.2,0,1.8,0.8,1.8,2.1v4.9h2v-5.5c0-2-1.1-3.3-3.1-3.3
	c-1.3,0-2.1,0.7-2.7,1.5v-1.3h-2v8.6h2V174.5z"/>
<path fill="#FFFFFF" d="M92.5,176.8L92.5,176.8c0-1.6-1.4-2.1-2.7-2.5c-1-0.3-1.9-0.6-1.9-1.2v0c0-0.5,0.4-0.9,1.2-0.9
	c0.7,0,1.6,0.3,2.4,0.8l0.8-1.4c-0.9-0.6-2.1-1-3.2-1c-1.7,0-3.1,1-3.1,2.6v0c0,1.6,1.4,2.2,2.7,2.5c1,0.3,1.9,0.5,1.9,1.2v0
	c0,0.6-0.5,0.9-1.3,0.9c-0.9,0-1.9-0.4-2.8-1.1l-0.9,1.3c1.1,0.8,2.4,1.3,3.6,1.3C91.1,179.5,92.5,178.6,92.5,176.8z"/>
<path fill="#FFFFFF" d="M99.7,175.6c0,1.3-0.8,2.1-1.9,2.1c-1.2,0-1.8-0.8-1.8-2.1v-4.9h-2v5.5c0,2,1.1,3.3,3.1,3.3
	c1.3,0,2.1-0.7,2.7-1.5v1.3h2v-8.6h-2V175.6z"/>
<path fill="#FFFFFF" d="M105.7,176.1c0-2.3,1.2-3.4,2.9-3.4h0.1v-2.1c-1.5-0.1-2.5,0.8-3,2.1v-1.9h-2v8.6h2V176.1z"/>
<path fill="#FFFFFF" d="M116.9,179.4v-5.1c0-2.3-1.2-3.6-3.8-3.6c-1.4,0-2.3,0.3-3.3,0.7l0.5,1.6c0.8-0.3,1.5-0.5,2.5-0.5
	c1.4,0,2.1,0.7,2.1,1.8v0.2c-0.7-0.2-1.3-0.4-2.4-0.4c-2,0-3.5,0.9-3.5,2.8v0c0,1.7,1.4,2.7,3.1,2.7c1.3,0,2.2-0.5,2.8-1.2v1.1
	H116.9z M115,176.3c0,1.1-1,1.8-2.3,1.8c-0.9,0-1.7-0.5-1.7-1.3v0c0-0.9,0.7-1.4,2-1.4c0.8,0,1.5,0.1,2,0.3V176.3z"/>
<path fill="#FFFFFF" d="M120.8,174.5c0-1.3,0.8-2.1,1.9-2.1c1.2,0,1.8,0.8,1.8,2.1v4.9h2v-5.5c0-2-1.1-3.3-3.1-3.3
	c-1.3,0-2.1,0.7-2.7,1.5v-1.3h-2v8.6h2V174.5z"/>
<path fill="#FFFFFF" d="M135.9,178l-1.2-1.2c-0.6,0.6-1.3,1.1-2.2,1.1c-1.5,0-2.6-1.2-2.6-2.8c0-1.5,1-2.7,2.5-2.7
	c1,0,1.6,0.4,2.2,1.1l1.2-1.3c-0.8-0.9-1.8-1.5-3.4-1.5c-2.6,0-4.5,2-4.5,4.5c0,2.5,1.9,4.5,4.4,4.5
	C134.1,179.6,135.1,178.9,135.9,178z"/>
<path fill="#FFFFFF" d="M138.6,175.8h6.3c0-0.2,0-0.4,0-0.5c0-2.5-1.4-4.6-4.1-4.6c-2.5,0-4.2,2-4.2,4.5c0,2.7,1.9,4.5,4.4,4.5
	c1.6,0,2.7-0.6,3.5-1.6l-1.2-1c-0.7,0.7-1.4,1-2.3,1C139.8,178,138.8,177.2,138.6,175.8z M138.6,174.5c0.2-1.3,1-2.3,2.2-2.3
	c1.3,0,2,1,2.2,2.3H138.6z"/>
<path fill="#FFFFFF" d="M148.4,179.4v-2.2h-2.2v2.2H148.4z"/>
</svg>
