<?xml version="1.0" encoding="utf-8"?>
<!-- Generator: Adobe Illustrator 18.1.1, SVG Export Plug-In . SVG Version: 6.00 Build 0)  -->
<svg version="1.1" id="Layer_1" xmlns="http://www.w3.org/2000/svg" xmlns:xlink="http://www.w3.org/1999/xlink" x="0px" y="0px"
	 width="88.3px" height="12px" viewBox="0 0 88.3 12" enable-background="new 0 0 88.3 12" xml:space="preserve">
<path fill="#FFFFFF" d="M2.6,8.9C2.8,9.1,3,9.4,3.2,9.5C3.4,9.7,3.7,9.8,4,9.9C4.3,10,4.6,10,4.9,10c0.2,0,0.5,0,0.7-0.1
	c0.3,0,0.5-0.1,0.7-0.2c0.2-0.1,0.4-0.3,0.6-0.4c0.1-0.2,0.2-0.4,0.2-0.7c0-0.3-0.1-0.6-0.3-0.8C6.7,7.6,6.4,7.5,6.1,7.4
	C5.8,7.2,5.4,7.1,5,7C4.6,6.9,4.2,6.8,3.8,6.7C3.4,6.6,2.9,6.5,2.5,6.3C2.1,6.2,1.8,6,1.5,5.7C1.1,5.5,0.9,5.2,0.7,4.8
	C0.5,4.4,0.4,4,0.4,3.5c0-0.6,0.1-1.1,0.4-1.5c0.2-0.4,0.6-0.8,1-1.1c0.4-0.3,0.9-0.5,1.4-0.6C3.6,0.1,4.1,0,4.6,0
	c0.6,0,1.2,0.1,1.7,0.2c0.5,0.1,1,0.3,1.5,0.6c0.4,0.3,0.8,0.7,1,1.1c0.2,0.5,0.4,1,0.4,1.7H6.8c0-0.3-0.1-0.6-0.2-0.8
	C6.4,2.6,6.3,2.4,6.1,2.3C5.9,2.2,5.6,2.1,5.4,2C5.1,2,4.8,2,4.5,2C4.3,2,4.1,2,3.9,2c-0.2,0-0.4,0.1-0.6,0.2C3.2,2.3,3.1,2.5,3,2.6
	C2.9,2.8,2.8,3,2.8,3.2c0,0.2,0,0.4,0.1,0.5C3,3.9,3.2,4.1,3.4,4.2c0.2,0.1,0.6,0.2,1,0.4c0.4,0.1,1,0.3,1.7,0.4
	c0.2,0,0.5,0.1,0.9,0.2c0.4,0.1,0.8,0.3,1.1,0.5c0.4,0.2,0.7,0.6,1,1c0.3,0.4,0.4,0.9,0.4,1.6c0,0.5-0.1,1-0.3,1.5
	c-0.2,0.4-0.5,0.8-0.9,1.2c-0.4,0.3-0.9,0.6-1.5,0.8c-0.6,0.2-1.3,0.3-2,0.3c-0.6,0-1.2-0.1-1.8-0.2S1.9,11.3,1.5,11
	C1,10.7,0.6,10.2,0.4,9.7C0.1,9.2,0,8.6,0,7.9h2.4C2.4,8.3,2.5,8.6,2.6,8.9z"/>
<path fill="#FFFFFF" d="M13.7,0.3v4.4h4.6V0.3h2.5v11.4h-2.5V6.8h-4.6v4.9h-2.5V0.3H13.7z"/>
<path fill="#FFFFFF" d="M25.2,7.4c0.1,0.5,0.3,0.9,0.5,1.2c0.2,0.4,0.6,0.7,1,0.9c0.4,0.2,0.9,0.3,1.4,0.3c0.6,0,1-0.1,1.4-0.3
	c0.4-0.2,0.7-0.5,1-0.9c0.2-0.4,0.4-0.8,0.5-1.2C31.2,7,31.2,6.5,31.2,6c0-0.5-0.1-1-0.2-1.5c-0.1-0.5-0.3-0.9-0.5-1.3
	c-0.2-0.4-0.6-0.7-1-0.9c-0.4-0.2-0.9-0.3-1.4-0.3c-0.6,0-1,0.1-1.4,0.3c-0.4,0.2-0.7,0.5-1,0.9c-0.2,0.4-0.4,0.8-0.5,1.3
	C25.1,5,25,5.5,25,6C25,6.5,25.1,7,25.2,7.4z M22.9,3.7c0.3-0.7,0.6-1.4,1.1-1.9c0.5-0.5,1.1-1,1.8-1.3C26.5,0.2,27.2,0,28.1,0
	c0.9,0,1.7,0.2,2.4,0.5c0.7,0.3,1.3,0.7,1.8,1.3c0.5,0.5,0.8,1.2,1.1,1.9c0.3,0.7,0.4,1.5,0.4,2.4c0,0.8-0.1,1.6-0.4,2.3
	s-0.6,1.3-1.1,1.9c-0.5,0.5-1.1,1-1.8,1.3C29.8,11.8,29,12,28.1,12c-0.9,0-1.7-0.2-2.4-0.5c-0.7-0.3-1.3-0.7-1.8-1.3
	c-0.5-0.5-0.8-1.2-1.1-1.9c-0.3-0.7-0.4-1.5-0.4-2.3C22.5,5.2,22.6,4.4,22.9,3.7z"/>
<path fill="#FFFFFF" d="M39.9,5.6c0.3,0,0.6,0,0.8-0.1c0.3,0,0.5-0.1,0.7-0.2c0.2-0.1,0.4-0.3,0.5-0.5c0.1-0.2,0.2-0.5,0.2-0.9
	c0-0.4-0.1-0.7-0.2-0.9c-0.1-0.2-0.3-0.4-0.5-0.5c-0.2-0.1-0.4-0.2-0.7-0.2c-0.3,0-0.5-0.1-0.8-0.1h-1.9v3.4H39.9z M40.5,0.3
	c0.7,0,1.3,0.1,1.8,0.3c0.5,0.2,0.9,0.5,1.2,0.8c0.3,0.3,0.5,0.7,0.7,1.2c0.1,0.4,0.2,0.9,0.2,1.4c0,0.5-0.1,0.9-0.2,1.4
	c-0.1,0.4-0.4,0.8-0.7,1.2c-0.3,0.3-0.7,0.6-1.2,0.8c-0.5,0.2-1.1,0.3-1.8,0.3h-2.6v4.1h-2.5V0.3H40.5z"/>
<path fill="#FFFFFF" d="M53,0.3l4.8,7.7h0V0.3h2.3v11.4h-2.5L52.9,4h0v7.6h-2.3V0.3H53z"/>
<path fill="#FFFFFF" d="M64.5,7.4c0.1,0.5,0.3,0.9,0.5,1.2c0.2,0.4,0.6,0.7,1,0.9c0.4,0.2,0.9,0.3,1.4,0.3c0.6,0,1-0.1,1.4-0.3
	c0.4-0.2,0.7-0.5,1-0.9c0.2-0.4,0.4-0.8,0.5-1.2C70.4,7,70.5,6.5,70.5,6c0-0.5-0.1-1-0.2-1.5c-0.1-0.5-0.3-0.9-0.5-1.3
	c-0.2-0.4-0.6-0.7-1-0.9c-0.4-0.2-0.9-0.3-1.4-0.3c-0.6,0-1,0.1-1.4,0.3c-0.4,0.2-0.7,0.5-1,0.9c-0.2,0.4-0.4,0.8-0.5,1.3
	c-0.1,0.5-0.2,1-0.2,1.5C64.3,6.5,64.4,7,64.5,7.4z M62.2,3.7c0.3-0.7,0.6-1.4,1.1-1.9c0.5-0.5,1.1-1,1.8-1.3
	C65.7,0.2,66.5,0,67.4,0c0.9,0,1.7,0.2,2.4,0.5c0.7,0.3,1.3,0.7,1.8,1.3c0.5,0.5,0.8,1.2,1.1,1.9C72.9,4.4,73,5.2,73,6
	c0,0.8-0.1,1.6-0.4,2.3c-0.3,0.7-0.6,1.3-1.1,1.9c-0.5,0.5-1.1,1-1.8,1.3c-0.7,0.3-1.5,0.5-2.4,0.5c-0.9,0-1.7-0.2-2.4-0.5
	c-0.7-0.3-1.3-0.7-1.8-1.3c-0.5-0.5-0.8-1.2-1.1-1.9c-0.3-0.7-0.4-1.5-0.4-2.3C61.8,5.2,61.9,4.4,62.2,3.7z"/>
<path fill="#FFFFFF" d="M82.8,11.7l-1.9-7.8h0l-1.9,7.8h-2.5l-3-11.4h2.5L77.7,8h0l2-7.8H82L84,8.1h0l1.9-7.9h2.5l-3.1,11.4H82.8z"
	/>
</svg>
