<?xml version="1.0" encoding="utf-8"?>
<!-- Generator: Adobe Illustrator 18.1.1, SVG Export Plug-In . SVG Version: 6.00 Build 0)  -->
<svg version="1.1" id="Layer_1" xmlns="http://www.w3.org/2000/svg" xmlns:xlink="http://www.w3.org/1999/xlink" x="0px" y="0px"
	 width="193.8px" height="24.1px" viewBox="0 0 193.8 24.1" enable-background="new 0 0 193.8 24.1" xml:space="preserve">
<g>
	<path d="M193.2,8.3C193.2,8.3,193.2,8.3,193.2,8.3c0,0-0.7-1.6-1.7-2.6c-0.8-0.8-7.2-1.7-10.8,3.8c-0.1-0.2-1.6-3.9-5.7-3h-6.8
		l-2.8,4.9c0.2-2-0.6-6.7-5.6-6.9c-1.4-0.1-2.8,0.6-2.8,0.6l2.1-3.6L158,0.1l-17.6,1.5l-4.9,5.5l0.9,1.5h6.2l-9,6.6
		c0.1-0.2,0.2-0.4,0.2-0.7c0.9-2.5,0.8-4.6,0-6.2c0,0-0.7-1.6-1.7-2.5c-0.8-0.8-6.6,0.4-8.2,1.4l0.3-0.6h0l-0.9-1.5L122,5.3l0.6-1
		l-0.9-1.5l-7.5,1.5l-1.2,2.2h-12.8c0-0.8-0.2-1.5-0.5-2.2c0,0,0,0,0,0c0,0-0.8-1.6-1.5-2.2c-0.7-0.6-3.5-0.6-5.2-0.6
		c-1.6,0-5.2,0.3-7.7,2.8l1.6-2.8l-0.9-1.5l-85,1.5L0,22l0.9,1.5h73.3h16.7l1.4-2.4c0.1,0.2,0.3,0.4,0.4,0.6c0.6,0.9,2.3,2.4,6,2.4
		h0c1.6,0,5.5-0.4,7.7-3.5c0.3,0.6,0.8,1.2,1.2,1.6c0.1,0.1,0.2,0.2,0.3,0.3c0,0,0.1,0.1,0.1,0.1l0,0c0.6,0.6,1.5,1.1,2.7,1.1h4.1
		l1.9-3.2c0.4,1,1.6,2.1,1.6,2.2c1,1,2.4,1.5,3.9,1.5c1.9,0.1,3.6-0.3,5.1-1.1l0.4,0.6h18.6l1.5-2.6c0.5,0.8,1.3,1.5,1.3,1.5
		c0.7,0.8,1.9,1.4,3.9,1.6c1.7,0.1,3.6-0.3,5.1-1.1l0.3,0.5h15.6l2.1-3.6c0.4,1.1,1.8,2.5,1.8,2.5l0,0c0.8,0.9,2.1,1.5,3.8,1.6
		c5.3,0.3,8.7-3.7,10.2-6.8C194,12.7,194,10,193.2,8.3"/>
	<path d="M191.9,2.8V2.2h0.4c0.2,0,0.4,0,0.4,0.3c0,0.3-0.2,0.3-0.4,0.3H191.9z M191.9,3h0.3l0.5,0.8h0.3L192.5,3
		c0.3,0,0.5-0.2,0.5-0.5c0-0.4-0.2-0.5-0.6-0.5h-0.7v1.8h0.3V3z M191,2.9c0-0.7,0.5-1.3,1.3-1.3c0.7,0,1.2,0.5,1.2,1.3
		c0,0.7-0.6,1.3-1.2,1.3C191.5,4.2,191,3.6,191,2.9 M192.3,4.4c0.8,0,1.6-0.7,1.6-1.5c0-0.9-0.7-1.5-1.6-1.5c-0.9,0-1.6,0.7-1.6,1.5
		C190.7,3.8,191.4,4.4,192.3,4.4"/>
</g>
<polygon fill="#FFFFFF" points="0,0.1 0,22 73.3,22 85.9,0.1 "/>
<g>
	<path fill="#FFFFFF" d="M128.3,4.3c-1.9-0.1-3.6,0.4-5.3,1.4l0.3-0.6h-2.9l1.3-2.2h-8.4L112,5H99.2c0.1-3-2.8-5-7.2-5
		c-2,0-6.8,0.5-9.1,4.8L73,22h17l1.5-2.5c0.1,0.4,1.3,3,6.4,3c1.6,0,5.6-0.4,7.8-3.8c0.2,0.5,1.2,3.3,4.1,3.3h4.1l2.3-3.9
		c0.3,3.1,2.6,4.3,5.1,4.4c5.4,0.3,9.4-3.5,11.6-9.5C134.7,8,132.6,4.4,128.3,4.3"/>
	<path fill="#FFFFFF" d="M187.8,4.3c-3-0.2-5.9,1.2-8.1,3.8c-0.1-0.2-1-3.9-5.7-3h-6.8l-2.8,4.9c0.2-2-0.7-5.7-5.5-5.7
		c-1.4,0-2.4,0.2-3.7,0.7l2.9-5h-18.5l-4,7h6.2L131,14.8l-4.2,7.2h18.6l1.8-3c0.5,1.6,1.4,3.3,4.9,3.6c2.1,0.2,4.4-0.5,6-1.6l-0.6,1
		l15.6,0l2.7-4.8c-0.3,2.5,1.2,5.1,4.9,5.3c5.3,0.3,8.7-3.7,10.2-6.8C195.6,5.9,190.2,4.4,187.8,4.3"/>
</g>
<path fill="#F58426" d="M68.5,1.2L57.2,20.9H61L72.3,1.2H68.5z M76.5,1.2h-2.3L62.9,20.9h2.3l4.1-7L76.5,1.2z M83.1,1.2L71.8,20.9
	h0.7L83.7,1.2H83.1z M79,1.2L67.7,20.9h1.4L80.4,1.2H79z M1.1,1.2v19.6h28.5L40.9,1.2H1.1z M61.2,1.2L49.9,20.9h5.9L67.1,1.2H61.2z
	 M41.7,1.2L30.4,20.9H40L51.2,1.2H41.7z M52.2,1.2L40.9,20.9h7.8L60,1.2H52.2z"/>
<g>
	<path fill="#EE3124" d="M106.1,6.2l-5.5,9.7c-0.4,0.8-0.9,1-1.6,0.9c-0.9-0.2-0.5-0.8-0.3-1.3l5.4-9.3h-5.4c0,0-6.1,10.6-6.1,10.6
		c-1.1,2,0.3,4,3.9,4.4c2,0.2,6.2,0,8.2-3.4c0,0,0,0,0,0l6.7-11.6H106.1z"/>
	<path fill="#EE3124" d="M116,10.4h2.9l2.4-4.2h-2.9l1.3-2.2h-5.7l-6.9,12c-0.6,1.1-0.6,2.4,0.3,3.6c0.7,0.8,1.3,1.3,2.6,1.3h3.3
		l2.3-3.9H113c-0.2,0-0.4,0-0.5-0.1c0-0.1-0.1-0.2,0-0.3L116,10.4z"/>
	<path fill="#EE3124" d="M91.1,7.8l-2.3,4H86l2.5-4.4c0.3-0.6,1-1.1,2-1C91.4,6.5,91.6,6.9,91.1,7.8 M93.4,1.2
		c-2.3-0.3-7.3,0-9.5,4.1L75,20.9h5.8l2.5-4.3h2.8l-2.5,4.3h5.7l8.2-14.2C98.9,4.1,97.6,1.8,93.4,1.2"/>
	<path fill="#EE3124" d="M126.4,12.8c-1.3,2.5-2.2,3.8-3.3,3.6c-0.8-0.2-0.5-1.3,0.3-2.8c1.1-2.1,2.3-3.7,3.3-3.5
		C127.6,10.2,127.2,11.3,126.4,12.8 M128.4,5.4C124,5.2,119.9,8.7,118,14c-1.4,3.8-0.8,7.1,3.4,7.3c4.2,0.2,8.2-2.4,10.5-8.8
		C133.2,8.7,132.2,5.6,128.4,5.4"/>
	<path fill="#EE3124" d="M176.5,6.2c-2.6-0.6-4.3,1-4.3,1l0.6-1h-4.9l-8.4,14.6h5.4l5.1-8.8c0.4-0.6,0.8-1.3,1.6-1.2
		c0.6,0.1,0.8,0.7,0.6,1.1l-5.1,8.9h5.3l6.1-10.7C179.3,8.7,177.9,6.6,176.5,6.2"/>
</g>
<polygon fill="#EE3124" points="152.9,6.6 156,1.2 140.1,1.2 137.5,5.9 145.3,5.9 131.9,15.6 128.8,20.9 144.7,20.9 147.4,16.2 
	139.9,16.2 "/>
<g>
	<path fill="#EE3124" d="M185.6,12.6c-0.3,0-1.5,0-2.5,0c0.9-1.6,1.8-2.6,2.6-2.5C186.5,10.2,186.3,11.2,185.6,12.6 M187.8,5.5
		c-4.4-0.2-8.3,3.3-10.2,8.6c-1.4,3.9-1.1,7.1,3.1,7.3c3.5,0.2,6.6-1.6,8.9-5.9h-5.4c-0.7,1.1-1.4,1.8-2.1,1.7
		c-0.6-0.1-0.4-1.3,0.1-2.5h7.8c0.3-0.6,0.6-1.3,0.8-2C192.3,8.8,191.6,5.7,187.8,5.5"/>
	<path fill="#EE3124" d="M157.2,12.9c-1.3,2.5-2.2,3.8-3.3,3.6c-0.8-0.2-0.5-1.3,0.3-2.8c1.1-2.1,2.3-3.7,3.3-3.5
		C158.4,10.3,158,11.3,157.2,12.9 M159.2,5.5c-4.4-0.2-8.5,3.3-10.4,8.6c-1.4,3.9-0.8,7.1,3.4,7.3c4.2,0.2,8.2-2.4,10.5-8.8
		C164,8.8,163,5.7,159.2,5.5"/>
</g>
</svg>
