<?xml version="1.0" encoding="utf-8"?>
<!-- Generator: Adobe Illustrator 18.1.1, SVG Export Plug-In . SVG Version: 6.00 Build 0)  -->
<svg version="1.1" id="Layer_1" xmlns="http://www.w3.org/2000/svg" xmlns:xlink="http://www.w3.org/1999/xlink" x="0px" y="0px"
	 viewBox="0 0 199.9 30" enable-background="new 0 0 199.9 30" xml:space="preserve">
<path d="M0.8,29.6h2.6V2.9h0.1L11,29.6h2.4L21,2.9h0.1v26.6h2.6V0.5h-4.3l-7,25.8h-0.1l-7-25.8H0.8V29.6z"/>
<path d="M28.1,15c0,10.4,3.3,15,9.3,15c6,0,9.3-4.6,9.3-15c0-10.4-3.3-15-9.3-15C31.5,0,28.1,4.6,28.1,15z M30.7,15
	c0-9.4,2.5-12.8,6.7-12.8s6.7,3.4,6.7,12.8c0,9.4-2.5,12.8-6.7,12.8S30.7,24.4,30.7,15z"/>
<path d="M51,29.6h2.6V16.3h4.9c4.7,0,5.6,1.6,5.8,6.8l0.1,2.4c0,1.5,0.2,3.1,0.8,4.1h3.1c-1-1.1-1.2-2.7-1.2-4.3l-0.1-3.2
	c-0.1-4.5-1.3-6.6-5-6.9v-0.1c3.9-0.7,5.3-3.9,5.3-7.4c0-4.5-2.7-7.3-7.6-7.3H51V29.6z M53.6,2.7h4.8c4.7,0,6.2,2.2,6.2,5.7
	c0,3.8-2.4,5.7-6.5,5.7h-4.5V2.7z"/>
<path d="M71.6,29.6h14.8v-2.2H74.2V15.5h11.1v-2.2H74.2V2.7H86V0.5H71.6V29.6z"/>
<path d="M102.1,2.7h4.4c4,0,6.2,1.7,6.2,6c0,4.5-2.7,6-6.2,6h-4.4V2.7z M99.5,29.6h2.6V16.9h4.4c6.7,0,8.9-3.7,8.9-8.2
	c0-4.9-2.4-8.2-8-8.2h-7.9V29.6z"/>
<path d="M120.6,18.9l4.5-16.4h0.1l4.5,16.4H120.6z M114.9,29.6h2.8l2.4-8.5h10.2l2.4,8.5h2.8l-8.6-29.1h-3.3L114.9,29.6z"/>
<path d="M138.2,29.6h2.6V16.3h4.9c4.7,0,5.6,1.6,5.8,6.8l0.1,2.4c0,1.5,0.2,3.1,0.8,4.1h3.1c-1-1.1-1.2-2.7-1.2-4.3l-0.1-3.2
	c-0.1-4.5-1.3-6.6-5-6.9v-0.1c3.9-0.7,5.3-3.9,5.3-7.4c0-4.5-2.7-7.3-7.6-7.3h-8.7V29.6z M140.8,2.7h4.8c4.7,0,6.2,2.2,6.2,5.7
	c0,3.8-2.4,5.7-6.5,5.7h-4.5V2.7z"/>
<path d="M164.1,29.6h2.6V2.7h7.5V0.5h-17.6v2.2h7.5V29.6z"/>
<path d="M192.2,7.9c0-5.2-2.5-7.9-7.9-7.9c-5.1,0-8,3.1-8,7.7c0,10.5,14.1,5.6,14.1,14.2c0,4.1-2.6,5.9-6.3,5.9
	c-3.8,0-5.8-2.5-5.8-6.2v-1.1h-2.6v0.9c0,5.7,3,8.6,8.5,8.6c5.3,0,8.8-2.9,8.8-8.5c0-10.2-14.1-5.5-14.1-14.1c0-2.9,2-5.2,5.5-5.2
	s5.2,2.2,5.2,5.7H192.2z"/>
<path d="M197.2,29.6h2.8v-4.2h-2.8V29.6z"/>
</svg>
