<?xml version="1.0" encoding="utf-8"?>
<!-- Generator: Adobe Illustrator 18.0.0, SVG Export Plug-In . SVG Version: 6.00 Build 0)  -->
<!DOCTYPE svg PUBLIC "-//W3C//DTD SVG 1.1//EN" "http://www.w3.org/Graphics/SVG/1.1/DTD/svg11.dtd">
<svg version="1.1" id="Layer_1" xmlns="http://www.w3.org/2000/svg" xmlns:xlink="http://www.w3.org/1999/xlink" x="0px" y="0px"
	 width="296.3px" height="39.6px" viewBox="0 0 296.3 39.6" enable-background="new 0 0 296.3 39.6" xml:space="preserve">
<g>
	<g>
		<path fill="#FFFFFF" d="M4.5,15.2h4.1V3.3h4.6V0.4H0v2.9h4.5V15.2z M19,9.2h4.9v6h4.1V0.4h-4.1v5.8H19V0.4h-4.1v14.9H19V9.2z
			 M35.1,9.2h6.6V6.3h-6.6V3.3h7V0.4H31v14.8h11.2v-2.9h-7.2V9.2z M57.7,12.6c-3.2,0-3.2-3.7-3.2-4.7c0-2.7,0.8-5,3.2-5
			c1.2,0,2.2,0.6,2.4,2.1h4.2c0-0.6,0-1.9-1.2-3.2c-1.2-1.2-3-1.8-5.4-1.8c-2.1,0-4.1,0.5-5.6,2.2c-1.4,1.6-1.9,3.6-1.9,5.7
			c0,1.5,0.3,3.9,1.9,5.6c1.6,1.7,4.2,2,5.6,2c1.9,0,6.6-0.4,6.6-5h-4.2C60,11.1,59.8,12.6,57.7,12.6z M73.8,15.6
			c1.9,0,4.5-0.3,5.9-2.1c0.9-1.1,1.1-2.9,1.1-4.5V0.4h-4v8.7c0,1.5-0.3,3.6-2.9,3.6c-1,0-2-0.4-2.5-1.2C71.1,10.8,71,10,71,9.2V0.4
			h-4.1l0,8.5C66.9,11.3,66.9,15.6,73.8,15.6z M94.5,9.2c0.6-0.3,2.2-1.4,2.2-4.1c0-1.9-0.8-3.3-2.1-4c-1.2-0.8-2.7-0.8-3.8-0.8
			h-6.8v14.9h4.1V9.9l2.6,0C91.6,9.9,93.4,9.9,94.5,9.2z M88.2,7V3.1h1.8c1.2,0,2.6,0.1,2.6,1.9c0,2-1.6,2-2.6,2H88.2z M112.2,15.2
			V3.3h4.6V0.4h-13.2v2.9h4.5v11.9H112.2z M127.6,6.2h-4.9V0.4h-4.1v14.9h4.1v-6h4.9v6h4.1V0.4h-4.1V6.2z M138.5,12.2h5.9l1,3h4.6
			l-5.8-14.9h-5l-5.8,14.9h4.1L138.5,12.2z M141.5,3.3L141.5,3.3l2,6.2h-4L141.5,3.3z M152.8,15.2h4.1V3.3h4.6V0.4h-13.2v2.9h4.5
			V15.2z M181.2,0.4H168v2.9h4.5v11.9h4.1V3.3h4.6V0.4z M184.5,12.2h5.9l1,3h4.6l-5.8-14.9h-5l-5.8,14.9h4.1L184.5,12.2z M187.5,3.3
			L187.5,3.3l2,6.2h-4L187.5,3.3z M201.9,0.4h-4.2v14.9h4.2V0.4z M215.5,12.3h-6.6V0.4h-4.1v14.9h10.7V12.3z M231.6,14.7V6.8h-6.9
			v2.8h3.1v2.9c-0.8,0.1-1.5,0.2-2.3,0.2c-2.5,0-4.4-1.5-4.4-4.9c0-2.5,1-5,3.8-5c1.1,0,2.3,0.4,2.5,2h4.1c0-0.7,0-2-1.1-3.1
			c-1.2-1.2-3.1-1.7-5.4-1.7c-1.8,0-4.3,0.3-6.1,2c-1.7,1.6-2.2,4.1-2.2,5.9c0,2.4,0.9,4.7,2.7,6.1c1.7,1.3,3.9,1.5,5.5,1.5
			C227.3,15.6,229.5,15.2,231.6,14.7z M244.2,0.4h-5l-5.8,14.9h4.1l1-3h5.9l1,3h4.6L244.2,0.4z M239.4,9.5l2-6.2h0.1l1.9,6.2H239.4z
			 M252.7,15.2h4.1V3.3h4.6V0.4h-13.2v2.9h4.5V15.2z M274.4,12.3h-7.2V9.2h6.6V6.3h-6.6V3.3h7V0.4h-11v14.8h11.2V12.3z M283.1,12.8
			c-2.4,0-2.5-1.7-2.5-2.3h-4.1c0,0.6,0,2.1,1.1,3.3c1.3,1.5,3.8,1.8,5.3,1.8c3.7,0,6.5-1.5,6.5-4.8c0-3.1-2.3-3.8-4.3-4.3l-2.7-0.7
			c-0.6-0.2-1.5-0.4-1.5-1.5c0-0.9,0.8-1.6,1.9-1.6c2,0,1.9,1.6,1.9,2.1h4.1c0-1.6-0.3-4.7-6-4.7c-4.4,0-6.2,2.2-6.2,4.7
			c0,3.1,2.6,3.8,3.6,4.1l3.6,0.9c1,0.3,1.3,0.7,1.3,1.4C285.2,12.8,283.4,12.8,283.1,12.8z M7.3,20.3L0,39.1h5.1l1.3-3.8h7.4
			l1.3,3.8h5.8l-7.3-18.7H7.3z M7.6,31.9l2.6-7.9h0.1l2.4,7.9H7.6z M32.8,28.1l-3.5-0.9c-0.7-0.2-1.9-0.5-1.9-1.9c0-1.1,0.9-2,2.4-2
			c2.5,0,2.4,2,2.4,2.6h5.2c0-2-0.3-6-7.6-6c-5.5,0-7.8,2.8-7.8,5.9c0,3.9,3.3,4.8,4.6,5.1l4.5,1.2c1.2,0.3,1.6,0.9,1.6,1.8
			c0,2.1-2.3,2.1-2.7,2.1c-3.1,0-3.1-2.2-3.1-2.9h-5.2c0,0.8,0.1,2.6,1.4,4.1c1.7,1.9,4.8,2.2,6.7,2.2c4.6,0,8.2-1.9,8.2-6
			C38.2,29.5,35.3,28.7,32.8,28.1z M58.8,27.7h-6.2v-7.3h-5.2v18.7h5.2v-7.6h6.2v7.6H64V20.3h-5.2V27.7z M73.5,20.3l-7.3,18.7h5.1
			l1.3-3.8H80l1.3,3.8h5.8l-7.3-18.7H73.5z M73.8,31.9l2.6-7.9h0.1l2.4,7.9H73.8z M100.3,29.9v-0.1c0.5-0.1,1.6-0.2,2.8-1
			c0.9-0.5,1.7-1.4,1.7-3.5c0-2-0.7-3.1-1.3-3.6c-1.1-1.1-2.4-1.3-5.7-1.3h-8.6v18.7h5.2v-7.3h2.2c2.3,0,2.4,0.8,2.6,3.1
			c0.2,1.7,0.3,3.1,0.6,4.2h5.6c-0.4-1.3-0.7-3.3-0.9-4.6C104.1,31.6,103.9,30,100.3,29.9z M98.5,28.2c-0.4,0.2-1,0.2-2.1,0.2h-1.9
			v-4.6h1.9c1.5,0,3.5,0,3.5,2.3C99.9,26.7,99.6,27.9,98.5,28.2z M123.2,21.9c-1.9-1.3-4.8-1.6-7.1-1.6h-7.8v18.7h7.9
			c1.3,0,3.5,0,5.4-0.7c3.7-1.5,5.1-4.5,5.1-8.7C126.7,26.9,125.9,23.8,123.2,21.9z M115.7,35.5h-2.2V23.9l2,0c1.6,0,5.8,0,5.8,5.7
			C121.3,34,119.2,35.4,115.7,35.5z M141.8,20.3l-7.3,18.7h5.1l1.3-3.8h7.4l1.3,3.8h5.8L148,20.3H141.8z M142.1,31.9l2.6-7.9h0.1
			l2.4,7.9H142.1z M167.3,28.1l-3.5-0.9c-0.7-0.2-1.9-0.5-1.9-1.9c0-1.1,0.9-2,2.4-2c2.5,0,2.4,2,2.4,2.6h5.2c0-2-0.3-6-7.6-6
			c-5.5,0-7.8,2.8-7.8,5.9c0,3.9,3.3,4.8,4.6,5.1l4.5,1.2c1.2,0.3,1.6,0.9,1.6,1.8c0,2.1-2.3,2.1-2.7,2.1c-3.1,0-3.1-2.2-3.1-2.9
			h-5.2c0,0.8,0.1,2.6,1.4,4.1c1.7,1.9,4.8,2.2,6.7,2.2c4.6,0,8.2-1.9,8.2-6C172.6,29.5,169.7,28.7,167.3,28.1z M194.6,20.3
			l-4.2,7.9l-4.1-7.9h-6l7.1,11.9v6.8h5.2v-6.6l7.2-12.1H194.6z M209.4,19.8c-1.4,0-4.9,0.2-7.2,2.6c-2.3,2.4-2.5,6.1-2.5,7.4
			c0,7,4.6,9.7,9.5,9.7c4.4,0,9.6-2.3,9.6-9.8C218.7,25.2,216.7,19.8,209.4,19.8z M209.2,35.7c-3.4,0-4.3-3-4.3-5.9
			c0-3.2,0.9-6.2,4.3-6.2c1.1,0,2.3,0.3,3.1,1.3c0.6,0.8,1.2,2.1,1.2,4.7C213.4,32.3,212.8,35.7,209.2,35.7z M234.7,31.3
			c0,1.9-0.4,4.5-3.7,4.5c-1.3,0-2.5-0.5-3.2-1.5c-0.5-0.8-0.6-1.8-0.6-2.8V20.3H222l0,10.7c0,3.1,0,8.6,8.8,8.6
			c2.3,0,5.6-0.4,7.4-2.7c1.2-1.4,1.4-3.6,1.4-5.7V20.3h-5V31.3z M264.8,21.9c-1.9-1.3-4.8-1.6-7.1-1.6h-7.8v18.7h7.9
			c1.3,0,3.5,0,5.4-0.7c3.7-1.5,5.1-4.5,5.1-8.7C268.3,26.9,267.5,23.8,264.8,21.9z M257.4,35.5h-2.2V23.9l2,0c1.6,0,5.8,0,5.8,5.7
			C263,34,260.8,35.4,257.4,35.5z M280.5,19.8c-1.4,0-4.9,0.2-7.2,2.6c-2.3,2.4-2.5,6.1-2.5,7.4c0,7,4.6,9.7,9.5,9.7
			c4.4,0,9.6-2.3,9.6-9.8C289.9,25.2,287.9,19.8,280.5,19.8z M280.3,35.7c-3.4,0-4.3-3-4.3-5.9c0-3.2,0.9-6.2,4.3-6.2
			c1.1,0,2.3,0.3,3.1,1.3c0.6,0.8,1.2,2.1,1.2,4.7C284.5,32.3,283.9,35.7,280.3,35.7z M292.8,36v3.1h3.6V36H292.8z"/>
	</g>
</g>
<g>
</g>
<g>
</g>
<g>
</g>
<g>
</g>
<g>
</g>
<g>
</g>
<g>
</g>
<g>
</g>
<g>
</g>
<g>
</g>
<g>
</g>
<g>
</g>
<g>
</g>
<g>
</g>
<g>
</g>
</svg>
