<svg xmlns="http://www.w3.org/2000/svg" width="268.438" height="24.156" viewBox="0 0 268.438 24.156">
  <metadata><?xpacket begin="﻿" id="W5M0MpCehiHzreSzNTczkc9d"?>
<x:xmpmeta xmlns:x="adobe:ns:meta/" x:xmptk="Adobe XMP Core 5.6-c138 79.159824, 2016/09/14-01:09:01        ">
   <rdf:RDF xmlns:rdf="http://www.w3.org/1999/02/22-rdf-syntax-ns#">
      <rdf:Description rdf:about=""/>
   </rdf:RDF>
</x:xmpmeta>
                                                                                                    
                                                                                                    
                                                                                                    
                                                                                                    
                                                                                                    
                                                                                                    
                                                                                                    
                                                                                                    
                                                                                                    
                                                                                                    
                                                                                                    
                                                                                                    
                                                                                                    
                                                                                                    
                                                                                                    
                                                                                                    
                                                                                                    
                                                                                                    
                                                                                                    
                                                                                                    
                           
<?xpacket end="w"?></metadata>
<defs>
    <style>
      .cls-1 {
        fill: #fff;
        fill-rule: evenodd;
      }
    </style>
  </defs>
  <path id="AT_YOUR_DOORSTEP" data-name="AT YOUR DOORSTEP" class="cls-1" d="M23.111,43.938l-5.675-23.43H10.473L4.8,43.938h5.478L11.1,39.483h5.61l0.825,4.455h5.576ZM13.9,24.468l2.046,10.989H11.859Zm18.413,19.47V25.194h4.653V20.508H22.287v4.686h4.62V43.938h5.412Zm24.814-23.43-3.1,9.867-3.1-9.867H45.154l6.1,15.081v8.349H56.67V35.589l6.1-15.081H57.132ZM71.651,44.3a10.225,10.225,0,0,0,5-.99,5.555,5.555,0,0,0,2.458-3.465,27.108,27.108,0,0,0,.726-7.194V31.794a27.111,27.111,0,0,0-.726-7.194,5.555,5.555,0,0,0-2.458-3.465,10.225,10.225,0,0,0-5-.99,10.226,10.226,0,0,0-5,.99A5.5,5.5,0,0,0,64.21,24.6a27.685,27.685,0,0,0-.709,7.194v0.858a27.682,27.682,0,0,0,.709,7.194,5.5,5.5,0,0,0,2.442,3.465,10.226,10.226,0,0,0,5,.99h0Zm0-4.158a1.994,1.994,0,0,1-1.633-.66,4.626,4.626,0,0,1-.759-2.277,39.731,39.731,0,0,1-.214-4.818v-0.33a39.742,39.742,0,0,1,.214-4.818,4.63,4.63,0,0,1,.759-2.277,2,2,0,0,1,1.633-.66,2.046,2.046,0,0,1,1.65.66,4.541,4.541,0,0,1,.775,2.294,39.9,39.9,0,0,1,.215,4.8v0.33a39.9,39.9,0,0,1-.215,4.8,4.539,4.539,0,0,1-.775,2.293,2.044,2.044,0,0,1-1.65.66h0ZM91.317,44.3a11.021,11.021,0,0,0,4.768-.825A4.753,4.753,0,0,0,98.461,40.7a17.03,17.03,0,0,0,.709-5.577V20.508H93.627V35.523a15.18,15.18,0,0,1-.2,2.805,2.375,2.375,0,0,1-.693,1.4,2.647,2.647,0,0,1-2.838,0,2.375,2.375,0,0,1-.693-1.4,15.18,15.18,0,0,1-.2-2.8V20.508H83.464V35.127a17.016,17.016,0,0,0,.709,5.577,4.75,4.75,0,0,0,2.376,2.772,11.018,11.018,0,0,0,4.768.825h0Zm27.949-.363L115.834,34.5a4.336,4.336,0,0,0,2.277-2.162,9.354,9.354,0,0,0,.693-3.943V27.537A9.254,9.254,0,0,0,118,23.23a4.453,4.453,0,0,0-2.689-2.112,18.16,18.16,0,0,0-5.346-.61h-6.5v23.43h5.412V35.391h2.111l2.541,8.547h5.742Zm-9.405-12.771h-0.989V24.732h0.989a6.632,6.632,0,0,1,2.145.264,1.6,1.6,0,0,1,.99.907,5.239,5.239,0,0,1,.264,1.9v0.33a4.644,4.644,0,0,1-.28,1.8,1.771,1.771,0,0,1-1.007.941,5.821,5.821,0,0,1-2.112.3h0ZM131.21,43.938h6.963a12.219,12.219,0,0,0,5.411-.957,5.466,5.466,0,0,0,2.673-3.366,23.482,23.482,0,0,0,.792-6.963V31.794a23.484,23.484,0,0,0-.792-6.963,5.468,5.468,0,0,0-2.673-3.366,12.226,12.226,0,0,0-5.411-.957H131.21v23.43Zm5.412-4.257V24.732h1.287a3.573,3.573,0,0,1,2.293.61,3.408,3.408,0,0,1,1.006,2.112,29.1,29.1,0,0,1,.264,4.6v0.33a29.091,29.091,0,0,1-.264,4.6,3.327,3.327,0,0,1-1.006,2.1,3.645,3.645,0,0,1-2.293.594h-1.287Zm21.613,4.62a10.225,10.225,0,0,0,5-.99,5.554,5.554,0,0,0,2.458-3.465,27.092,27.092,0,0,0,.726-7.194V31.794a27.094,27.094,0,0,0-.726-7.194,5.554,5.554,0,0,0-2.458-3.465,13.116,13.116,0,0,0-10,0,5.5,5.5,0,0,0-2.442,3.465,27.693,27.693,0,0,0-.71,7.194v0.858a27.691,27.691,0,0,0,.71,7.194,5.5,5.5,0,0,0,2.442,3.465,10.225,10.225,0,0,0,5,.99h0Zm0-4.158a2,2,0,0,1-1.634-.66,4.627,4.627,0,0,1-.759-2.277,39.811,39.811,0,0,1-.214-4.818v-0.33a39.822,39.822,0,0,1,.214-4.818,4.631,4.631,0,0,1,.759-2.277,2,2,0,0,1,1.634-.66,2.047,2.047,0,0,1,1.65.66,4.546,4.546,0,0,1,.775,2.294,39.836,39.836,0,0,1,.215,4.8v0.33a39.836,39.836,0,0,1-.215,4.8,4.544,4.544,0,0,1-.775,2.293,2.045,2.045,0,0,1-1.65.66h0Zm19.4,4.158a10.225,10.225,0,0,0,5-.99,5.559,5.559,0,0,0,2.459-3.465,27.141,27.141,0,0,0,.725-7.194V31.794A27.144,27.144,0,0,0,185.1,24.6a5.559,5.559,0,0,0-2.459-3.465,13.116,13.116,0,0,0-10,0A5.5,5.5,0,0,0,170.2,24.6a27.7,27.7,0,0,0-.709,7.194v0.858a27.7,27.7,0,0,0,.709,7.194,5.5,5.5,0,0,0,2.442,3.465,10.225,10.225,0,0,0,5,.99h0Zm0-4.158a1.993,1.993,0,0,1-1.633-.66,4.627,4.627,0,0,1-.759-2.277,39.559,39.559,0,0,1-.215-4.818v-0.33a39.57,39.57,0,0,1,.215-4.818A4.631,4.631,0,0,1,176,24.963a2,2,0,0,1,1.633-.66,2.045,2.045,0,0,1,1.65.66,4.536,4.536,0,0,1,.775,2.294,39.836,39.836,0,0,1,.215,4.8v0.33a39.836,39.836,0,0,1-.215,4.8,4.535,4.535,0,0,1-.775,2.293,2.044,2.044,0,0,1-1.65.66h0Zm27.718,3.8L201.923,34.5a4.336,4.336,0,0,0,2.277-2.162,9.354,9.354,0,0,0,.693-3.943V27.537a9.254,9.254,0,0,0-.809-4.306,4.453,4.453,0,0,0-2.689-2.112,18.16,18.16,0,0,0-5.346-.61h-6.5v23.43h5.412V35.391h2.111l2.541,8.547h5.742ZM195.95,31.167h-0.989V24.732h0.989A6.632,6.632,0,0,1,198.1,25a1.6,1.6,0,0,1,.99.907,5.239,5.239,0,0,1,.264,1.9v0.33a4.644,4.644,0,0,1-.28,1.8,1.771,1.771,0,0,1-1.007.941,5.821,5.821,0,0,1-2.112.3h0ZM214.99,44.3a11.973,11.973,0,0,0,4.554-.71,4.58,4.58,0,0,0,2.442-2.293,9.982,9.982,0,0,0,.758-4.257,8.407,8.407,0,0,0-.973-4.257,5.245,5.245,0,0,0-2.8-2.36q-1.832-.676-2.095-0.776l-1.155-.462a12.092,12.092,0,0,1-1.584-.693,2.413,2.413,0,0,1-.874-0.858,2.871,2.871,0,0,1-.347-1.518,1.867,1.867,0,0,1,2.145-2.079,2.13,2.13,0,0,1,1.716.594,2.916,2.916,0,0,1,.5,1.881v0.5h4.917v-0.5a8.872,8.872,0,0,0-.66-3.779,3.958,3.958,0,0,0-2.145-1.98,11.172,11.172,0,0,0-4.125-.61q-3.993,0-5.725,1.518T207.8,26.712a7.59,7.59,0,0,0,.726,3.613,4.988,4.988,0,0,0,1.765,1.964,17.428,17.428,0,0,0,2.788,1.287l1.254,0.495q1.287,0.495,1.881.792a2.557,2.557,0,0,1,1.023,1.007,3.721,3.721,0,0,1,.429,1.93,2.988,2.988,0,0,1-.545,1.964,2.424,2.424,0,0,1-1.93.643,2.457,2.457,0,0,1-2.112-.808,4.726,4.726,0,0,1-.594-2.723V36.117H207.5v0.858a10.989,10.989,0,0,0,.693,4.34,4.33,4.33,0,0,0,2.309,2.277,11.455,11.455,0,0,0,4.488.71h0Zm19.172-.363V25.194h4.653V20.508H224.131v4.686h4.619V43.938h5.412Zm20.392,0V39.813H246.9V34.038h6.632V29.913H246.9v-5.28h7.325V20.508H241.487v23.43h13.067Zm3.333,0H263.3V35.787h1.122a17.3,17.3,0,0,0,5.329-.644,4.53,4.53,0,0,0,2.706-2.194,9.574,9.574,0,0,0,.808-4.356V27.735a9.667,9.667,0,0,0-.808-4.389,4.532,4.532,0,0,0-2.706-2.195,17.3,17.3,0,0,0-5.329-.643h-6.533v23.43ZM263.3,31.563V24.732h1.023a5.821,5.821,0,0,1,2.112.3,1.7,1.7,0,0,1,.99.973,5.775,5.775,0,0,1,.264,2v0.33a5.647,5.647,0,0,1-.264,1.963,1.694,1.694,0,0,1-.99.973,5.821,5.821,0,0,1-2.112.3H263.3Z" transform="translate(-4.813 -20.156)"/>
</svg>
