<?xml version="1.0" encoding="utf-8"?>
<!-- Generator: Adobe Illustrator 18.1.1, SVG Export Plug-In . SVG Version: 6.00 Build 0)  -->
<svg version="1.1" id="Layer_1" xmlns="http://www.w3.org/2000/svg" xmlns:xlink="http://www.w3.org/1999/xlink" x="0px" y="0px"
	 width="247.8px" height="92.1px" viewBox="0 0 247.8 92.1" enable-background="new 0 0 247.8 92.1" xml:space="preserve">
<path fill="#FFFFFF" d="M8,0.8c-4.4,0-7.1,2.9-7.1,7.6c0,4.8,2.8,7.6,7.1,7.6c4.5,0,7.1-3.1,7.1-7.6C15.1,3.9,12.5,0.8,8,0.8z
	 M3.7,8.4c0-3.5,1.8-5.5,4.4-5.5c2.6,0,4.3,2,4.3,5.5c0,3.4-1.7,5.5-4.3,5.5C5.3,13.9,3.7,11.8,3.7,8.4z"/>
<path fill="#FFFFFF" d="M19.7,15.8c0,0,0-3.8,0-5.3c0-2.6,1.3-3.8,2.6-3.8c0.9,0,1.7,0.5,1.7,2.2c0,0.7,0,6.9,0,6.9h2.5
	c0,0,0-5.8,0-7.6c0-1.8-1.3-3.5-3.7-3.5c-1.7,0-2.7,0.7-3.3,1.9h-0.1c0,0,0-1.1,0-1.4C19.3,5,19.3,5,19.1,5c-0.4,0-2,0-2,0
	c0,0.8,0.1,2.2,0.1,3.3c0,0.8,0,7.5,0,7.5H19.7z"/>
<path fill="#FFFFFF" d="M31.5,15.8V0.1h-2.5v15.8H31.5z"/>
<path fill="#FFFFFF" d="M34.2,15.8V5h2.5v10.9H34.2z M34.2,2.5h2.6V0h-2.6V2.5z"/>
<path fill="#FFFFFF" d="M42,15.8c0,0,0-3.8,0-5.3c0-2.6,1.3-3.8,2.6-3.8c0.9,0,1.7,0.5,1.7,2.2c0,0.7,0,6.9,0,6.9h2.5
	c0,0,0-5.8,0-7.6c0-1.8-1.3-3.5-3.7-3.5c-1.7,0-2.7,0.7-3.3,1.9h-0.1c0,0,0-1.1,0-1.4C41.6,5,41.5,5,41.3,5c-0.4,0-2,0-2,0
	c0,0.8,0.1,2.2,0.1,3.3c0,0.8,0,7.5,0,7.5H42z"/>
<path fill="#FFFFFF" d="M55.5,4.8c-3.1,0-5,2.2-5,5.7c0,3.6,1.8,5.6,5.7,5.6c1.5,0,2.9-0.4,3.3-0.6c0-0.5-0.1-1.5-0.1-1.8
	c0-0.2-0.1-0.2-0.2-0.2s-0.2,0.1-0.4,0.2c-0.2,0.1-1.2,0.5-2.4,0.5c-2.2,0-3.4-1.4-3.4-3.2h7c0-0.2,0.1-1.2,0.1-1.5
	C60.2,7.3,59.1,4.8,55.5,4.8z M53.2,9.3c0-0.9,0.4-2.7,2.4-2.7c1.8,0,2.2,1.5,2.2,2.5c0,0.1,0,0.2,0,0.3H53.2z"/>
<path fill="#FFFFFF" d="M65.8,15.8h2.7l1.2-3.3h6.3l1.2,3.3h2.8L74.4,1h-3L65.8,15.8z M72.8,3.7l2.4,6.8h-4.8L72.8,3.7L72.8,3.7z"/>
<path fill="#FFFFFF" d="M85.8,4.8c-3.5,0-5.3,2.2-5.3,5.7c0,3.8,2.1,5.7,5.3,5.7c1.5,0,2.6-0.6,2.9-0.7c0-0.5,0-1.4-0.1-1.6
	c0-0.2-0.1-0.2-0.2-0.2c-0.1,0-0.2,0.1-0.4,0.2c-0.2,0.1-1,0.5-2,0.5c-2.1,0-2.9-1.4-2.9-3.7c0-2.3,0.8-3.7,3-3.7c1,0,2,0.5,2.1,0.6
	c0.1,0,0.2,0.1,0.2,0.1c0.2,0,0.2-0.2,0.2-0.3c0-0.3,0.1-1,0.1-1.5C88.3,5.3,87.2,4.8,85.8,4.8z"/>
<path fill="#FFFFFF" d="M94.9,4.8c-3.5,0-5.3,2.2-5.3,5.7c0,3.8,2.1,5.7,5.3,5.7c1.5,0,2.6-0.6,2.9-0.7c0-0.5,0-1.4-0.1-1.6
	c0-0.2-0.1-0.2-0.2-0.2c-0.1,0-0.2,0.1-0.4,0.2c-0.2,0.1-1,0.5-2,0.5c-2.1,0-2.9-1.4-2.9-3.7c0-2.3,0.8-3.7,3-3.7c1,0,2,0.5,2.1,0.6
	c0.1,0,0.2,0.1,0.2,0.1c0.2,0,0.2-0.2,0.2-0.3c0-0.3,0.1-1,0.1-1.5C97.4,5.3,96.2,4.8,94.9,4.8z"/>
<path fill="#FFFFFF" d="M104.1,6.7c1.8,0,2.7,1.6,2.7,3.7c0,2.3-1.1,3.7-2.7,3.7c-2.2,0-2.7-2.1-2.7-3.7
	C101.4,8,102.5,6.7,104.1,6.7z M98.8,10.4c0,3.6,2,5.7,5.3,5.7c3.7,0,5.3-2.6,5.3-5.7c0-3.2-1.7-5.7-5.3-5.7
	C100.2,4.8,98.8,7.6,98.8,10.4z"/>
<path fill="#FFFFFF" d="M118,5c0,0,0,3.8,0,5.3c0,2.6-1.3,3.8-2.6,3.8c-0.9,0-1.7-0.5-1.7-2.2c0-0.7,0-6.9,0-6.9h-2.5
	c0,0,0,5.8,0,7.6c0,1.8,1.3,3.5,3.7,3.5c1.8,0,2.7-0.7,3.3-1.9h0.1c0,0,0,1.1,0,1.4c0,0.2,0.1,0.3,0.3,0.3c0.4,0,2,0,2,0
	c-0.1-0.9-0.1-2.2-0.1-3.3c0-0.8,0-7.5,0-7.5H118z"/>
<path fill="#FFFFFF" d="M125.8,15.8c0,0,0-3.8,0-5.3c0-2.6,1.3-3.8,2.6-3.8c0.9,0,1.7,0.5,1.7,2.2c0,0.7,0,6.9,0,6.9h2.5
	c0,0,0-5.8,0-7.6c0-1.8-1.3-3.5-3.7-3.5c-1.7,0-2.7,0.7-3.3,1.9h-0.1c0,0,0-1.1,0-1.4c0-0.2-0.1-0.3-0.3-0.3c-0.4,0-2,0-2,0
	c0,0.8,0.1,2.2,0.1,3.3c0,0.8,0,7.5,0,7.5H125.8z"/>
<path fill="#FFFFFF" d="M139.3,16.1c0.9,0,1.5-0.2,1.7-0.2c0-0.4-0.1-1.6-0.1-1.6c0-0.2-0.1-0.3-0.2-0.3c-0.2,0-0.6,0.2-1.2,0.2
	c-0.9,0-1.4-0.5-1.4-1.5V6.8h2.6V5h-2.6V2.6h-2.5V5h-1.5v1.9h1.5v5.4C135.6,14.5,136.6,16.1,139.3,16.1z"/>
<path fill="#FFFFFF" d="M155.1,1c-0.4-0.1-1.5-0.3-2.6-0.3c-3.7,0-5.7,1.8-5.7,4.2c0,2.4,1.5,3.5,3.1,4.2l1.4,0.6
	c1.3,0.5,2.1,1.1,2.1,2.2c0,1.3-1,2.1-3.1,2.1c-1.7,0-2.5-0.4-2.9-0.5l-0.1,2.3c0.5,0.2,1.6,0.4,3.2,0.4c3.4,0,5.6-1.7,5.6-4.5
	c0-2.3-1.7-3.5-3.4-4.1l-1.5-0.6c-1-0.4-1.7-0.9-1.7-2c0-1,0.8-1.9,2.9-1.9c1.2,0,2.2,0.2,2.6,0.4L155.1,1z"/>
<path fill="#FFFFFF" d="M164.8,5c0,0,0,3.8,0,5.3c0,2.6-1.3,3.8-2.6,3.8c-0.9,0-1.7-0.5-1.7-2.2c0-0.7,0-6.9,0-6.9h-2.5
	c0,0,0,5.8,0,7.6c0,1.8,1.3,3.5,3.7,3.5c1.8,0,2.7-0.7,3.3-1.9h0.1c0,0,0,1.1,0,1.4c0,0.2,0.1,0.3,0.3,0.3c0.4,0,2,0,2,0
	c-0.1-0.9-0.1-2.2-0.1-3.3c0-0.8,0-7.5,0-7.5H164.8z"/>
<path fill="#FFFFFF" d="M170.1,5c0,0.7,0.1,2,0.1,3.3s0,7.6,0,7.6h2.5c0,0,0-4.8,0-5.6c0-1.7,0.7-3.5,2.3-3.5c1.1,0,1.8,0.6,1.8,2.3
	c0,0.9,0,6.9,0,6.9h2.5c0,0,0-4.2,0-5.6c0-1.8,0.7-3.5,2.3-3.5c1.6,0,1.8,1.3,1.8,2.5c0,1.1,0,6.6,0,6.6h2.5c0,0,0-6.4,0-7.5
	c0-2.6-1.7-3.6-3.7-3.6c-2,0-3,1.3-3.3,2c-0.3-0.7-1.2-2-3.1-2c-2.3,0-3.1,1.6-3.2,1.9h-0.1c0,0,0-1.2,0-1.3s0-0.3-0.3-0.3
	C171.8,5,170.1,5,170.1,5z"/>
<path fill="#FFFFFF" d="M188.4,5c0,0.7,0.1,2,0.1,3.3s0,7.6,0,7.6h2.5c0,0,0-4.8,0-5.6c0-1.7,0.7-3.5,2.3-3.5c1.1,0,1.8,0.6,1.8,2.3
	c0,0.9,0,6.9,0,6.9h2.5c0,0,0-4.2,0-5.6c0-1.8,0.7-3.5,2.3-3.5c1.6,0,1.8,1.3,1.8,2.5c0,1.1,0,6.6,0,6.6h2.5c0,0,0-6.4,0-7.5
	c0-2.6-1.7-3.6-3.7-3.6c-2,0-3,1.3-3.3,2c-0.3-0.7-1.2-2-3.1-2c-2.3,0-3.1,1.6-3.2,1.9h-0.1c0,0,0-1.2,0-1.3s0-0.3-0.3-0.3
	C190.1,5,188.4,5,188.4,5z"/>
<path fill="#FFFFFF" d="M206.7,5.5c0,0.3,0,1.3,0.1,1.7c0,0,0,0.2,0.2,0.2c0.1,0,0.3-0.1,0.4-0.1c0.3-0.2,1.4-0.6,2.7-0.6
	c1.4,0,2.3,0.5,2.3,1.8c0,0,0,0.4,0,0.4s-0.4,0-0.6,0c-2.8,0-6,0.9-6,3.8c0,2,1.4,3.5,3.4,3.5c2,0,2.9-1.1,3.2-1.6h0.1l0.1,0.9
	c0,0.3,0,0.5,0.4,0.5c0.3,0,2.1,0,2.1,0c-0.1-0.7-0.2-1.8-0.2-2.8V8.7c0-2.6-1.5-4-4.6-4C208.6,4.8,207.1,5.3,206.7,5.5z
	 M211.9,10.3c0.3,0,0.6,0,0.6,0s0,0.7,0,0.8c0,1.7-0.9,3.1-2.4,3.1c-1.1,0-1.7-0.8-1.7-1.8C208.3,11.1,209.5,10.3,211.9,10.3z"/>
<path fill="#FFFFFF" d="M217.2,5c0,0.6,0.1,1.9,0.1,3.1c0,1,0,7.8,0,7.8h2.5c0,0,0-4.4,0-5.4c0-2.7,1.3-3.7,2.6-3.7
	c0.3,0,0.5,0,0.7,0.1c0.1,0,0.3,0.1,0.4,0.1c0.1,0,0.2-0.1,0.2-0.2c0-0.2,0.1-1.1,0.1-1.8c-0.1-0.1-0.6-0.2-1.3-0.2
	c-2.2,0-2.9,1.7-2.9,1.9h-0.1c0-0.2,0-1.1,0-1.4c0-0.1,0-0.3-0.3-0.3C218.7,5,217.2,5,217.2,5z"/>
<path fill="#FFFFFF" d="M225.3,15.8V5h2.5v10.9H225.3z M225.3,2.5h2.6V0h-2.6V2.5z"/>
<path fill="#FFFFFF" d="M234.6,4.8c-3.1,0-5,2.2-5,5.7c0,3.6,1.8,5.6,5.7,5.6c1.5,0,2.9-0.4,3.3-0.6c0-0.5-0.1-1.5-0.1-1.8
	c0-0.2-0.1-0.2-0.2-0.2s-0.2,0.1-0.4,0.2c-0.2,0.1-1.2,0.5-2.4,0.5c-2.2,0-3.4-1.4-3.4-3.2h7c0-0.2,0.1-1.2,0.1-1.5
	C239.3,7.3,238.2,4.8,234.6,4.8z M232.3,9.3c0-0.9,0.4-2.7,2.4-2.7c1.8,0,2.2,1.5,2.2,2.5c0,0.1,0,0.2,0,0.3H232.3z"/>
<path fill="#FFFFFF" d="M244.5,4.8c-2.1,0-4.1,1.1-4.1,3.2c0,2,1.3,2.7,2.1,3l1.2,0.5c1.1,0.4,1.4,0.9,1.4,1.4c0,0.7-0.6,1.3-2,1.3
	c-0.8,0-1.6-0.2-1.8-0.2c-0.1,0-0.3-0.1-0.4-0.1c-0.2,0-0.2,0.1-0.2,0.3c0,0.4-0.1,1.5-0.1,1.8c0.2,0.1,1.1,0.2,2.4,0.2
	c2.3,0,4.7-0.9,4.7-3.5c0-1.6-1.3-2.5-2.2-2.9l-1.1-0.4c-1-0.4-1.4-0.7-1.4-1.5c0-0.7,0.6-1.3,1.9-1.3c0.8,0,1.5,0.2,1.7,0.3
	c0.1,0,0.1,0.1,0.3,0.1c0.2,0,0.2-0.1,0.2-0.4c0-0.6,0.1-1.2,0.1-1.5C246.8,4.9,245.8,4.8,244.5,4.8z"/>
<path fill="#FFFFFF" d="M31,53.8h2.6v-6.6h5.1v-2h-5.1V41H39v-2h-8V53.8z"/>
<path fill="#FFFFFF" d="M41.2,43c0,0.6,0.1,1.9,0.1,3.1c0,1,0,7.8,0,7.8h2.5c0,0,0-4.4,0-5.4c0-2.7,1.3-3.7,2.6-3.7
	c0.3,0,0.5,0,0.7,0.1c0.1,0,0.3,0.1,0.4,0.1c0.1,0,0.2-0.1,0.2-0.2c0-0.2,0.1-1.1,0.1-1.8c-0.1-0.1-0.6-0.2-1.3-0.2
	c-2.2,0-2.9,1.7-2.9,1.9h-0.1c0-0.2,0-1.1,0-1.4c0-0.1,0-0.3-0.3-0.3C42.7,43,41.2,43,41.2,43z"/>
<path fill="#FFFFFF" d="M52.8,42.8c-3.1,0-5,2.2-5,5.7c0,3.6,1.8,5.6,5.7,5.6c1.5,0,2.9-0.4,3.3-0.6c0-0.5-0.1-1.5-0.1-1.8
	c0-0.2-0.1-0.2-0.2-0.2s-0.2,0.1-0.4,0.2c-0.2,0.1-1.2,0.5-2.4,0.5c-2.2,0-3.4-1.4-3.4-3.2h7c0-0.2,0.1-1.2,0.1-1.5
	C57.4,45.3,56.4,42.8,52.8,42.8z M50.4,47.3c0-0.9,0.4-2.7,2.4-2.7c1.8,0,2.2,1.5,2.2,2.5c0,0.1,0,0.2,0,0.3H50.4z"/>
<path fill="#FFFFFF" d="M63.5,42.8c-3.1,0-5,2.2-5,5.7c0,3.6,1.8,5.6,5.7,5.6c1.5,0,2.9-0.4,3.3-0.6c0-0.5-0.1-1.5-0.1-1.8
	c0-0.2-0.1-0.2-0.2-0.2s-0.2,0.1-0.4,0.2c-0.2,0.1-1.2,0.5-2.4,0.5c-2.2,0-3.4-1.4-3.4-3.2h7c0-0.2,0.1-1.2,0.1-1.5
	C68.1,45.3,67.1,42.8,63.5,42.8z M61.1,47.3c0-0.9,0.4-2.7,2.4-2.7c1.8,0,2.2,1.5,2.2,2.5c0,0.1,0,0.2,0,0.3H61.1z"/>
<path fill="#FFFFFF" d="M75.3,53.8h8.1v-2h-5.4v-4.6H83v-2h-5.1V41h5.4v-2h-8V53.8z"/>
<path fill="#FFFFFF" d="M85.5,43c0,0.7,0.1,2,0.1,3.3s0,7.6,0,7.6h2.5c0,0,0-4.8,0-5.6c0-1.7,0.7-3.5,2.3-3.5c1.1,0,1.8,0.6,1.8,2.3
	c0,0.9,0,6.9,0,6.9h2.5c0,0,0-4.2,0-5.6c0-1.8,0.7-3.5,2.3-3.5c1.6,0,1.8,1.3,1.8,2.5c0,1.1,0,6.6,0,6.6h2.5c0,0,0-6.4,0-7.5
	c0-2.6-1.7-3.6-3.7-3.6c-2,0-3,1.3-3.3,2c-0.3-0.7-1.2-2-3.1-2c-2.3,0-3.1,1.6-3.2,1.9h-0.1c0,0,0-1.2,0-1.3s0-0.3-0.3-0.3
	C87.2,43,85.5,43,85.5,43z"/>
<path fill="#FFFFFF" d="M106.4,53.8c0.2,0.1,0.7,0.2,1.7,0.2c3.5,0,5.7-2.5,5.7-6.2c0-2-0.6-5.1-4.3-5.1c-2.1,0-3,1.2-3.3,1.9h-0.1
	c0,0,0-1.1,0-1.4c0-0.2-0.1-0.3-0.3-0.3c-0.4,0-2,0-2,0c0.1,0.8,0.1,2.2,0.1,3.3c0,0.8,0,12.6,0,12.6h2.5V53.8z M108.1,52.1
	c-1,0-1.5-0.2-1.7-0.2c0,0,0-3,0-3.6c0-2.6,1.3-3.7,2.5-3.7c2,0,2.3,1.6,2.3,3.4C111.3,50.8,110.2,52.1,108.1,52.1z"/>
<path fill="#FFFFFF" d="M118.2,53.8V38.1h-2.5v15.8H118.2z"/>
<path fill="#FFFFFF" d="M125.4,44.7c1.8,0,2.7,1.6,2.7,3.7c0,2.3-1.1,3.7-2.7,3.7c-2.2,0-2.7-2.1-2.7-3.7
	C122.6,46,123.7,44.7,125.4,44.7z M120.1,48.4c0,3.6,2,5.7,5.3,5.7c3.7,0,5.3-2.6,5.3-5.7c0-3.2-1.7-5.7-5.3-5.7
	C121.4,42.8,120.1,45.6,120.1,48.4z"/>
<path fill="#FFFFFF" d="M135.7,53.8c0,0-0.4,0.9-0.6,1.7c-0.7,1.7-1.6,1.8-2.4,1.8c-0.6,0-0.9-0.2-1.1-0.2c-0.1,0-0.2,0.1-0.2,0.3
	c-0.1,0.7-0.1,1.6-0.1,1.6c0.2,0.1,0.7,0.2,1.9,0.2c3,0,3.8-2.2,4.8-4.8c1-2.6,4.3-11.5,4.3-11.5h-2.6l-2.5,7.6H137l-2.6-7.6h-2.8
	L135.7,53.8z"/>
<path fill="#FFFFFF" d="M147.7,42.8c-3.1,0-5,2.2-5,5.7c0,3.6,1.8,5.6,5.7,5.6c1.5,0,2.9-0.4,3.3-0.6c0-0.5-0.1-1.5-0.1-1.8
	c0-0.2-0.1-0.2-0.2-0.2s-0.2,0.1-0.4,0.2c-0.2,0.1-1.2,0.5-2.4,0.5c-2.2,0-3.4-1.4-3.4-3.2h7c0-0.2,0.1-1.2,0.1-1.5
	C152.3,45.3,151.3,42.8,147.7,42.8z M145.3,47.3c0-0.9,0.4-2.7,2.4-2.7c1.8,0,2.2,1.5,2.2,2.5c0,0.1,0,0.2,0,0.3H145.3z"/>
<path fill="#FFFFFF" d="M158.4,42.8c-3.1,0-5,2.2-5,5.7c0,3.6,1.8,5.6,5.7,5.6c1.5,0,2.9-0.4,3.3-0.6c0-0.5-0.1-1.5-0.1-1.8
	c0-0.2-0.1-0.2-0.2-0.2s-0.2,0.1-0.4,0.2c-0.2,0.1-1.2,0.5-2.4,0.5c-2.2,0-3.4-1.4-3.4-3.2h7c0-0.2,0.1-1.2,0.1-1.5
	C163,45.3,162,42.8,158.4,42.8z M156,47.3c0-0.9,0.4-2.7,2.4-2.7c1.8,0,2.2,1.5,2.2,2.5c0,0.1,0,0.2,0,0.3H156z"/>
<path fill="#FFFFFF" d="M180.4,39.4c-0.4-0.2-1.7-0.6-3.4-0.6c-5.8,0-7.7,3.7-7.7,7.6c0,4.3,2.2,7.6,7.7,7.6c1.5,0,3.1-0.5,3.4-0.6
	l-0.3-2.2c-0.3,0.1-1.7,0.7-3.3,0.7c-3.6,0-4.7-3.2-4.7-5.5c0-3.7,2.2-5.5,4.7-5.5c1.4,0,2.8,0.5,3.3,0.7L180.4,39.4z"/>
<path fill="#FFFFFF" d="M182.2,43.5c0,0.3,0,1.3,0.1,1.7c0,0,0,0.2,0.2,0.2c0.1,0,0.3-0.1,0.4-0.1c0.3-0.2,1.4-0.6,2.7-0.6
	c1.4,0,2.3,0.5,2.3,1.8c0,0,0,0.4,0,0.4s-0.4,0-0.6,0c-2.8,0-6,0.9-6,3.8c0,2,1.4,3.5,3.4,3.5c2,0,2.9-1.1,3.2-1.6h0.1l0.1,0.9
	c0,0.3,0,0.5,0.4,0.5c0.3,0,2.1,0,2.1,0c-0.1-0.7-0.2-1.8-0.2-2.8v-4.3c0-2.6-1.5-4-4.6-4C184.1,42.8,182.6,43.3,182.2,43.5z
	 M187.3,48.3c0.3,0,0.6,0,0.6,0s0,0.7,0,0.8c0,1.7-0.9,3.1-2.4,3.1c-1.1,0-1.7-0.8-1.7-1.8C183.8,49.1,184.9,48.3,187.3,48.3z"/>
<path fill="#FFFFFF" d="M192.6,43c0,0.6,0.1,1.9,0.1,3.1c0,1,0,7.8,0,7.8h2.5c0,0,0-4.4,0-5.4c0-2.7,1.3-3.7,2.6-3.7
	c0.3,0,0.5,0,0.7,0.1c0.1,0,0.3,0.1,0.4,0.1c0.1,0,0.2-0.1,0.2-0.2c0-0.2,0.1-1.1,0.1-1.8c-0.1-0.1-0.6-0.2-1.3-0.2
	c-2.2,0-2.9,1.7-2.9,1.9h-0.1c0-0.2,0-1.1,0-1.4c0-0.1,0-0.3-0.3-0.3C194.2,43,192.6,43,192.6,43z"/>
<path fill="#FFFFFF" d="M206.7,43c-0.2-0.1-0.7-0.2-1.7-0.2c-3.5,0-5.7,2.5-5.7,6.2c0,2,0.6,5.1,4.3,5.1c2.1,0,3-1.2,3.3-1.9h0.1
	c0,0,0,1.1,0,1.4c0,0.2,0.1,0.3,0.3,0.3c0.4,0,2,0,2,0c-0.1-0.9-0.1-2.2-0.1-3.3c0-0.8,0-12.5,0-12.5h-2.5V43z M205,44.7
	c1,0,1.5,0.2,1.7,0.2c0,0,0,3,0,3.6c0,2.6-1.2,3.7-2.5,3.7c-2,0-2.3-1.6-2.3-3.4C201.9,46.1,203,44.7,205,44.7z"/>
<path fill="#FFFFFF" d="M215.3,42.8c-2.1,0-4.1,1.1-4.1,3.2c0,2,1.3,2.7,2.1,3l1.2,0.5c1.1,0.4,1.4,0.9,1.4,1.4c0,0.7-0.6,1.3-2,1.3
	c-0.8,0-1.6-0.2-1.8-0.2c-0.1,0-0.3-0.1-0.4-0.1c-0.2,0-0.2,0.1-0.2,0.3c0,0.4-0.1,1.5-0.1,1.8c0.2,0.1,1.1,0.2,2.4,0.2
	c2.3,0,4.7-0.9,4.7-3.5c0-1.6-1.3-2.5-2.2-2.9l-1.1-0.4c-1-0.4-1.4-0.7-1.4-1.5c0-0.7,0.6-1.3,1.9-1.3c0.8,0,1.5,0.2,1.7,0.3
	c0.1,0,0.1,0.1,0.3,0.1c0.2,0,0.2-0.1,0.2-0.4c0-0.6,0.1-1.2,0.1-1.5C217.6,42.9,216.6,42.8,215.3,42.8z"/>
<path fill="#FFFFFF" d="M5.4,84.4v-5.5c0.1,0,0.4,0,1.1,0c2.1,0,3.3,1,3.3,2.8c0,1.7-1.1,2.8-3.3,2.8C6,84.4,5.6,84.4,5.4,84.4z
	 M7,86.4c3.4,0,5.5-1.8,5.5-4.8c0-2.5-1.9-4.6-5.3-4.6c-2.2,0-4.4,0-4.4,0v14.8h2.6v-5.5C5.6,86.3,6.5,86.4,7,86.4z"/>
<path fill="#FFFFFF" d="M18.4,80.8c-3.1,0-5,2.2-5,5.7c0,3.6,1.8,5.6,5.7,5.6c1.5,0,2.9-0.4,3.3-0.6c0-0.5-0.1-1.5-0.1-1.8
	c0-0.2-0.1-0.2-0.2-0.2c-0.1,0-0.2,0.1-0.4,0.2c-0.2,0.1-1.2,0.5-2.4,0.5c-2.2,0-3.4-1.4-3.4-3.2h7c0-0.2,0.1-1.2,0.1-1.5
	C23,83.3,22,80.8,18.4,80.8z M16,85.3c0-0.9,0.4-2.7,2.4-2.7c1.8,0,2.2,1.5,2.2,2.5c0,0.1,0,0.2,0,0.3H16z"/>
<path fill="#FFFFFF" d="M24.9,81c0,0.6,0.1,1.9,0.1,3.1c0,1,0,7.8,0,7.8h2.5c0,0,0-4.4,0-5.4c0-2.7,1.3-3.7,2.6-3.7
	c0.3,0,0.5,0,0.7,0.1c0.1,0,0.3,0.1,0.4,0.1c0.1,0,0.2-0.1,0.2-0.2c0-0.2,0.1-1.1,0.1-1.8c-0.1-0.1-0.6-0.2-1.3-0.2
	c-2.2,0-2.9,1.7-2.9,1.9h-0.1c0-0.2,0-1.1,0-1.4c0-0.1,0-0.3-0.3-0.3C26.5,81,24.9,81,24.9,81z"/>
<path fill="#FFFFFF" d="M36.4,80.8c-2.1,0-4.1,1.1-4.1,3.2c0,2,1.3,2.7,2.1,3l1.2,0.5c1.1,0.4,1.4,0.9,1.4,1.4c0,0.7-0.6,1.3-2,1.3
	c-0.8,0-1.6-0.2-1.8-0.2c-0.1,0-0.3-0.1-0.4-0.1c-0.2,0-0.2,0.1-0.2,0.3c0,0.4-0.1,1.5-0.1,1.8c0.2,0.1,1.1,0.2,2.4,0.2
	c2.3,0,4.7-0.9,4.7-3.5c0-1.6-1.3-2.5-2.2-2.9l-1.1-0.4c-1-0.4-1.4-0.7-1.4-1.5c0-0.7,0.6-1.3,1.9-1.3c0.8,0,1.5,0.2,1.7,0.3
	c0.1,0,0.1,0.1,0.3,0.1c0.2,0,0.2-0.1,0.2-0.4c0-0.6,0.1-1.2,0.1-1.5C38.7,80.9,37.7,80.8,36.4,80.8z"/>
<path fill="#FFFFFF" d="M45.8,82.7c1.8,0,2.7,1.6,2.7,3.7c0,2.3-1.1,3.7-2.7,3.7c-2.2,0-2.7-2.1-2.7-3.7C43,84,44.1,82.7,45.8,82.7z
	 M40.5,86.4c0,3.6,2,5.7,5.3,5.7c3.7,0,5.3-2.6,5.3-5.7c0-3.2-1.7-5.7-5.3-5.7C41.9,80.8,40.5,83.6,40.5,86.4z"/>
<path fill="#FFFFFF" d="M55.5,91.8c0,0,0-3.8,0-5.3c0-2.6,1.3-3.8,2.6-3.8c0.9,0,1.7,0.5,1.7,2.2c0,0.7,0,6.9,0,6.9h2.5
	c0,0,0-5.8,0-7.6c0-1.8-1.3-3.5-3.7-3.5c-1.7,0-2.7,0.7-3.3,1.9h-0.1c0,0,0-1.1,0-1.4c0-0.2-0.1-0.3-0.3-0.3c-0.4,0-2,0-2,0
	c0,0.8,0.1,2.2,0.1,3.3c0,0.8,0,7.5,0,7.5H55.5z"/>
<path fill="#FFFFFF" d="M64.9,81.5c0,0.3,0,1.3,0.1,1.7c0,0,0,0.2,0.2,0.2c0.1,0,0.3-0.1,0.4-0.1c0.3-0.2,1.4-0.6,2.7-0.6
	c1.4,0,2.3,0.5,2.3,1.8c0,0,0,0.4,0,0.4s-0.4,0-0.6,0c-2.8,0-6,0.9-6,3.8c0,2,1.4,3.5,3.4,3.5c2,0,2.9-1.1,3.2-1.6h0.1l0.1,0.9
	c0,0.3,0,0.5,0.4,0.5c0.3,0,2.1,0,2.1,0c-0.1-0.7-0.2-1.8-0.2-2.8v-4.3c0-2.6-1.5-4-4.6-4C66.8,80.8,65.3,81.3,64.9,81.5z
	 M70.1,86.3c0.3,0,0.6,0,0.6,0s0,0.7,0,0.8c0,1.7-0.9,3.1-2.4,3.1c-1.1,0-1.7-0.8-1.7-1.8C66.5,87.1,67.7,86.3,70.1,86.3z"/>
<path fill="#FFFFFF" d="M77.8,91.8V76.1h-2.5v15.8H77.8z"/>
<path fill="#FFFFFF" d="M85.8,91.8c0,0,2.5,0,4.9,0c3.9,0,5.3-2.1,5.3-4.4c0-2.5-2-3.4-2.8-3.5v-0.1c0.4-0.1,2.5-0.7,2.5-3.2
	c0-1.6-0.9-3.7-4.7-3.7c-1.3,0-5.2,0-5.2,0V91.8z M88.4,78.8c0.1,0,0.9,0,1.7,0c2.1,0,3,0.8,3,2.2c0,1.5-1.1,2.2-3,2.2
	c-0.4,0-1.7,0-1.7,0V78.8z M88.4,85.1c0,0,1.1,0,1.6,0c2.4,0,3.3,1,3.3,2.4c0,1.5-1.1,2.4-3.3,2.4c-0.5,0-1.3,0-1.6-0.1V85.1z"/>
<path fill="#FFFFFF" d="M104.5,81c0,0,0,3.8,0,5.3c0,2.6-1.3,3.8-2.6,3.8c-0.9,0-1.7-0.5-1.7-2.2c0-0.7,0-6.9,0-6.9h-2.5
	c0,0,0,5.8,0,7.6c0,1.8,1.3,3.5,3.7,3.5c1.8,0,2.7-0.7,3.3-1.9h0.1c0,0,0,1.1,0,1.4c0,0.2,0.1,0.3,0.3,0.3c0.4,0,2,0,2,0
	c-0.1-0.9-0.1-2.2-0.1-3.3c0-0.8,0-7.5,0-7.5H104.5z"/>
<path fill="#FFFFFF" d="M113.1,80.8c-2.1,0-4.1,1.1-4.1,3.2c0,2,1.3,2.7,2.1,3l1.2,0.5c1.1,0.4,1.4,0.9,1.4,1.4c0,0.7-0.6,1.3-2,1.3
	c-0.8,0-1.6-0.2-1.8-0.2c-0.1,0-0.3-0.1-0.4-0.1c-0.2,0-0.2,0.1-0.2,0.3c0,0.4-0.1,1.5-0.1,1.8c0.2,0.1,1.1,0.2,2.4,0.2
	c2.3,0,4.7-0.9,4.7-3.5c0-1.6-1.3-2.5-2.2-2.9l-1.1-0.4c-1-0.4-1.4-0.7-1.4-1.5c0-0.7,0.6-1.3,1.9-1.3c0.8,0,1.5,0.2,1.7,0.3
	c0.1,0,0.1,0.1,0.3,0.1c0.2,0,0.2-0.1,0.2-0.4c0-0.6,0.1-1.2,0.1-1.5C115.4,80.9,114.4,80.8,113.1,80.8z"/>
<path fill="#FFFFFF" d="M118,91.8V81h2.5v10.9H118z M118,78.5h2.6V76H118V78.5z"/>
<path fill="#FFFFFF" d="M125.7,91.8c0,0,0-3.8,0-5.3c0-2.6,1.3-3.8,2.6-3.8c0.9,0,1.7,0.5,1.7,2.2c0,0.7,0,6.9,0,6.9h2.5
	c0,0,0-5.8,0-7.6c0-1.8-1.3-3.5-3.7-3.5c-1.7,0-2.7,0.7-3.3,1.9h-0.1c0,0,0-1.1,0-1.4c0-0.2-0.1-0.3-0.3-0.3c-0.4,0-2,0-2,0
	c0,0.8,0.1,2.2,0.1,3.3c0,0.8,0,7.5,0,7.5H125.7z"/>
<path fill="#FFFFFF" d="M139.3,80.8c-3.1,0-5,2.2-5,5.7c0,3.6,1.8,5.6,5.7,5.6c1.5,0,2.9-0.4,3.3-0.6c0-0.5-0.1-1.5-0.1-1.8
	c0-0.2-0.1-0.2-0.2-0.2c-0.1,0-0.2,0.1-0.4,0.2c-0.2,0.1-1.2,0.5-2.4,0.5c-2.2,0-3.4-1.4-3.4-3.2h7c0-0.2,0.1-1.2,0.1-1.5
	C144,83.3,142.9,80.8,139.3,80.8z M137,85.3c0-0.9,0.4-2.7,2.4-2.7c1.8,0,2.2,1.5,2.2,2.5c0,0.1,0,0.2,0,0.3H137z"/>
<path fill="#FFFFFF" d="M149.2,80.8c-2.1,0-4.1,1.1-4.1,3.2c0,2,1.3,2.7,2.1,3l1.2,0.5c1.1,0.4,1.4,0.9,1.4,1.4c0,0.7-0.6,1.3-2,1.3
	c-0.8,0-1.6-0.2-1.8-0.2c-0.1,0-0.3-0.1-0.4-0.1c-0.2,0-0.2,0.1-0.2,0.3c0,0.4-0.1,1.5-0.1,1.8c0.2,0.1,1.1,0.2,2.4,0.2
	c2.3,0,4.7-0.9,4.7-3.5c0-1.6-1.3-2.5-2.2-2.9l-1.1-0.4c-1-0.4-1.4-0.7-1.4-1.5c0-0.7,0.6-1.3,1.9-1.3c0.8,0,1.5,0.2,1.7,0.3
	c0.1,0,0.1,0.1,0.3,0.1c0.2,0,0.2-0.1,0.2-0.4c0-0.6,0.1-1.2,0.1-1.5C151.5,80.9,150.5,80.8,149.2,80.8z"/>
<path fill="#FFFFFF" d="M157.4,80.8c-2.1,0-4.1,1.1-4.1,3.2c0,2,1.3,2.7,2.1,3l1.2,0.5c1.1,0.4,1.4,0.9,1.4,1.4c0,0.7-0.6,1.3-2,1.3
	c-0.8,0-1.6-0.2-1.8-0.2c-0.1,0-0.3-0.1-0.4-0.1c-0.2,0-0.2,0.1-0.2,0.3c0,0.4-0.1,1.5-0.1,1.8c0.2,0.1,1.1,0.2,2.4,0.2
	c2.3,0,4.7-0.9,4.7-3.5c0-1.6-1.3-2.5-2.2-2.9l-1.1-0.4c-1-0.4-1.4-0.7-1.4-1.5c0-0.7,0.6-1.3,1.9-1.3c0.8,0,1.5,0.2,1.7,0.3
	c0.1,0,0.1,0.1,0.3,0.1c0.2,0,0.2-0.1,0.2-0.4c0-0.6,0.1-1.2,0.1-1.5C159.7,80.9,158.7,80.8,157.4,80.8z"/>
<path fill="#FFFFFF" d="M166,91.8h2.7l1.2-3.3h6.3l1.2,3.3h2.8L174.7,77h-3L166,91.8z M173.1,79.7l2.4,6.8h-4.8L173.1,79.7
	L173.1,79.7z"/>
<path fill="#FFFFFF" d="M184.9,80.8c-2.1,0-4.1,1.1-4.1,3.2c0,2,1.3,2.7,2.1,3l1.2,0.5c1.1,0.4,1.4,0.9,1.4,1.4c0,0.7-0.6,1.3-2,1.3
	c-0.8,0-1.6-0.2-1.8-0.2c-0.1,0-0.3-0.1-0.4-0.1c-0.2,0-0.2,0.1-0.2,0.3c0,0.4-0.1,1.5-0.1,1.8c0.2,0.1,1.1,0.2,2.4,0.2
	c2.3,0,4.7-0.9,4.7-3.5c0-1.6-1.3-2.5-2.2-2.9l-1.1-0.4c-1-0.4-1.4-0.7-1.4-1.5c0-0.7,0.6-1.3,1.9-1.3c0.8,0,1.5,0.2,1.7,0.3
	c0.1,0,0.1,0.1,0.3,0.1c0.2,0,0.2-0.1,0.2-0.4c0-0.6,0.1-1.2,0.1-1.5C187.1,80.9,186.2,80.8,184.9,80.8z"/>
<path fill="#FFFFFF" d="M193.1,80.8c-2.1,0-4.1,1.1-4.1,3.2c0,2,1.3,2.7,2.1,3l1.2,0.5c1.1,0.4,1.4,0.9,1.4,1.4c0,0.7-0.6,1.3-2,1.3
	c-0.8,0-1.6-0.2-1.8-0.2c-0.1,0-0.3-0.1-0.4-0.1c-0.2,0-0.2,0.1-0.2,0.3c0,0.4-0.1,1.5-0.1,1.8c0.2,0.1,1.1,0.2,2.4,0.2
	c2.3,0,4.7-0.9,4.7-3.5c0-1.6-1.3-2.5-2.2-2.9l-1.1-0.4c-1-0.4-1.4-0.7-1.4-1.5c0-0.7,0.6-1.3,1.9-1.3c0.8,0,1.5,0.2,1.7,0.3
	c0.1,0,0.1,0.1,0.3,0.1c0.2,0,0.2-0.1,0.2-0.4c0-0.6,0.1-1.2,0.1-1.5C195.4,80.9,194.4,80.8,193.1,80.8z"/>
<path fill="#FFFFFF" d="M198,91.8V81h2.5v10.9H198z M198,78.5h2.6V76H198V78.5z"/>
<path fill="#FFFFFF" d="M206.5,80.8c-2.1,0-4.1,1.1-4.1,3.2c0,2,1.3,2.7,2.1,3l1.2,0.5c1.1,0.4,1.4,0.9,1.4,1.4c0,0.7-0.6,1.3-2,1.3
	c-0.8,0-1.6-0.2-1.8-0.2c-0.1,0-0.3-0.1-0.4-0.1c-0.2,0-0.2,0.1-0.2,0.3c0,0.4-0.1,1.5-0.1,1.8c0.2,0.1,1.1,0.2,2.4,0.2
	c2.3,0,4.7-0.9,4.7-3.5c0-1.6-1.3-2.5-2.2-2.9l-1.1-0.4c-1-0.4-1.4-0.7-1.4-1.5c0-0.7,0.6-1.3,1.9-1.3c0.8,0,1.5,0.2,1.7,0.3
	c0.1,0,0.1,0.1,0.3,0.1c0.2,0,0.2-0.1,0.2-0.4c0-0.6,0.1-1.2,0.1-1.5C208.8,80.9,207.8,80.8,206.5,80.8z"/>
<path fill="#FFFFFF" d="M215.5,92.1c0.9,0,1.5-0.2,1.7-0.2c0-0.4-0.1-1.6-0.1-1.6c0-0.2-0.1-0.3-0.2-0.3c-0.2,0-0.6,0.2-1.2,0.2
	c-0.9,0-1.4-0.5-1.4-1.5v-5.8h2.6V81h-2.6v-2.4h-2.5V81h-1.5v1.9h1.5v5.4C211.8,90.5,212.7,92.1,215.5,92.1z"/>
<path fill="#FFFFFF" d="M218.8,81.5c0,0.3,0,1.3,0.1,1.7c0,0,0,0.2,0.2,0.2c0.1,0,0.3-0.1,0.4-0.1c0.3-0.2,1.4-0.6,2.7-0.6
	c1.4,0,2.3,0.5,2.3,1.8c0,0,0,0.4,0,0.4s-0.4,0-0.6,0c-2.8,0-6,0.9-6,3.8c0,2,1.4,3.5,3.4,3.5c2,0,2.9-1.1,3.2-1.6h0.1l0.1,0.9
	c0,0.3,0,0.5,0.4,0.5c0.3,0,2.1,0,2.1,0c-0.1-0.7-0.2-1.8-0.2-2.8v-4.3c0-2.6-1.5-4-4.6-4C220.7,80.8,219.2,81.3,218.8,81.5z
	 M223.9,86.3c0.3,0,0.6,0,0.6,0s0,0.7,0,0.8c0,1.7-0.9,3.1-2.4,3.1c-1.1,0-1.7-0.8-1.7-1.8C220.4,87.1,221.5,86.3,223.9,86.3z"/>
<path fill="#FFFFFF" d="M231.8,91.8c0,0,0-3.8,0-5.3c0-2.6,1.3-3.8,2.6-3.8c0.9,0,1.7,0.5,1.7,2.2c0,0.7,0,6.9,0,6.9h2.5
	c0,0,0-5.8,0-7.6c0-1.8-1.3-3.5-3.7-3.5c-1.7,0-2.7,0.7-3.3,1.9h-0.1c0,0,0-1.1,0-1.4c0-0.2-0.1-0.3-0.3-0.3c-0.4,0-2,0-2,0
	c0,0.8,0.1,2.2,0.1,3.3c0,0.8,0,7.5,0,7.5H231.8z"/>
<path fill="#FFFFFF" d="M245.3,92.1c0.9,0,1.5-0.2,1.7-0.2c0-0.4-0.1-1.6-0.1-1.6c0-0.2-0.1-0.3-0.2-0.3c-0.2,0-0.6,0.2-1.2,0.2
	c-0.9,0-1.4-0.5-1.4-1.5v-5.8h2.6V81h-2.6v-2.4h-2.5V81h-1.5v1.9h1.5v5.4C241.6,90.5,242.5,92.1,245.3,92.1z"/>
</svg>
