<?xml version="1.0" encoding="utf-8"?>
<!-- Generator: Adobe Illustrator 18.1.1, SVG Export Plug-In . SVG Version: 6.00 Build 0)  -->
<svg version="1.1" id="Layer_1" xmlns="http://www.w3.org/2000/svg" xmlns:xlink="http://www.w3.org/1999/xlink" x="0px" y="0px"
	 width="512.1px" height="101.5px" viewBox="0 0 512.1 101.5" enable-background="new 0 0 512.1 101.5" xml:space="preserve">
<path fill="#FFFFFF" d="M0.2,13.8v2.3h9.1v-2.4H4.1c0,0,1.6-2,2.2-2.8C7.9,9,8.8,7.4,8.8,5.3C8.8,3,7.2,1,3.9,1C1.6,1,0.2,1.8,0,2
	l0.7,2.4C1,4.1,2.1,3.4,3.4,3.4c1.8,0,2.5,1,2.5,2.2c0,1.2-0.7,2.5-2.6,4.8C2.8,11,0.2,13.8,0.2,13.8z"/>
<path fill="#FFFFFF" d="M15.3,8.6l-4.9,7.5h3.4l3.1-5.4l3.3,5.4h3.9l-5.2-7.8l4.6-7h-3.2l-3,4.9l-3.1-4.9h-3.7L15.3,8.6z"/>
<path fill="#FFFFFF" d="M28.5,16.1h2.9l1.2-3.3h6.2l1.2,3.3h3.1L37.7,1.3h-3.5L28.5,16.1z M35.8,4.3l2.2,6.3h-4.5L35.8,4.3L35.8,4.3
	z"/>
<path fill="#FFFFFF" d="M43.7,16.1h2.9l1.2-3.3h6.2l1.2,3.3h3.1L52.8,1.3h-3.5L43.7,16.1z M51,4.3l2.2,6.3h-4.5L51,4.3L51,4.3z"/>
<path fill="#FFFFFF" d="M66.4,5.3C66.2,5.2,65.6,5,64.7,5c-3.5,0-5.8,2.5-5.8,6.2c0,2,1,5.1,4.7,5.1c2,0,2.8-1.2,3-1.5h0.1
	c0,0,0,0.7,0.1,1c0,0.2,0.1,0.3,0.3,0.3c0.4,0,2.5,0,2.5,0c0-0.8-0.1-2.2-0.1-3.3c0-0.8,0-12.5,0-12.5h-3V5.3z M64.9,7.3
	c0.8,0,1.4,0.2,1.5,0.2c0,0,0,2.9,0,3.4c0,2.2-1.1,3.1-2.3,3.1c-1.5,0-2.1-1.3-2.1-3.1C62,8.7,63,7.3,64.9,7.3z"/>
<path fill="#FFFFFF" d="M74.9,16.1h3.3l4.1-10.9h-2.9l-2.6,8h-0.1l-2.7-8h-3.2L74.9,16.1z"/>
<path fill="#FFFFFF" d="M83.7,5.7c0,0.4,0.2,1.7,0.2,2.1c0,0,0,0.2,0.2,0.2c0.4,0,1.1-0.7,3-0.7c1.7,0,2.5,0.6,2.5,1.7v0.2
	c0,0-1.1,0-1.3,0c-2.8,0-5.6,0.7-5.6,3.5c0,2,1.4,3.5,3.4,3.5c2,0,3.1-1.1,3.5-1.6h0.1l0.1,0.9c0,0.2,0,0.5,0.4,0.5
	c0.3,0,2.6,0,2.6,0c-0.1-0.7-0.2-1.8-0.2-2.8V9.2c0-2.7-1.7-4.2-4.9-4.2C85.8,5,84.1,5.5,83.7,5.7z M88.9,11c0.3,0,0.7,0,0.7,0
	s0,0.2,0,0.4c0,1.6-0.8,2.8-2.2,2.8c-1,0-1.6-0.6-1.6-1.5C85.8,11.5,86.9,11,88.9,11z"/>
<path fill="#FFFFFF" d="M95,16.1H98c0,0,0-3.6,0-5.1c0-2.2,1-3.6,2.4-3.6c1,0,1.7,0.7,1.7,2.2c0,0.7,0,6.6,0,6.6h2.9
	c0,0,0-5.2,0-7.1c0-1.8-0.9-4-3.9-4c-1.8,0-2.7,0.7-3.3,1.8h-0.1c0,0,0-1.1,0-1.4c0-0.2-0.1-0.3-0.3-0.3c-0.4,0-2.5,0-2.5,0
	C95,6.1,95,7.4,95,8.5C95,9.3,95,16.1,95,16.1z"/>
<path fill="#FFFFFF" d="M112,16.3c0.9,0,2.2-0.3,2.4-0.3c0-0.5-0.2-1.9-0.2-1.9c0-0.2-0.1-0.3-0.3-0.3c-0.2,0-0.6,0.2-1.3,0.2
	c-0.9,0-1.4-0.5-1.4-1.5V7.6h2.8V5.2h-2.8v-3h-3v3h-1.9v2.4h1.9v4.9C108.3,14.8,109.2,16.3,112,16.3z"/>
<path fill="#FFFFFF" d="M116,5.7c0,0.4,0.2,1.7,0.2,2.1c0,0,0,0.2,0.2,0.2c0.4,0,1.1-0.7,3-0.7c1.7,0,2.5,0.6,2.5,1.7v0.2
	c0,0-1.1,0-1.3,0c-2.8,0-5.6,0.7-5.6,3.5c0,2,1.4,3.5,3.4,3.5c2,0,3.1-1.1,3.5-1.6h0.1l0.1,0.9c0,0.2,0,0.5,0.4,0.5
	c0.3,0,2.6,0,2.6,0c-0.1-0.7-0.2-1.8-0.2-2.8V9.2c0-2.7-1.7-4.2-4.9-4.2C118,5,116.4,5.5,116,5.7z M121.1,11c0.3,0,0.7,0,0.7,0
	s0,0.2,0,0.4c0,1.6-0.8,2.8-2.2,2.8c-1,0-1.6-0.6-1.6-1.5C118.1,11.5,119.2,11,121.1,11z"/>
<path fill="#FFFFFF" d="M131.8,5c-3,0-5,1.4-5,4c0,1.8,1.2,2.8,1.7,3c-0.6,0.2-1.4,0.7-1.4,1.8c0,1.1,1,1.7,1.5,1.8
	c-0.4,0.1-2.1,0.7-2.1,2.5c0,1.6,1.1,3.3,4.8,3.3c3.9,0,6.3-1.8,6.3-4c0-1.8-0.9-3.2-4.2-3.2h-2c-0.9,0-1.5-0.2-1.5-0.8
	c0-0.4,0.3-0.6,0.6-0.7c0.2,0,0.7,0.1,1.3,0.1c2.8,0,4.8-1.3,4.8-4c0-0.7-0.3-1.3-0.5-1.5c0,0,0.5,0,0.8,0c0.4,0,0.6-0.2,0.6-0.6
	c0-0.6,0.1-1.1,0.1-1.4c-0.2,0-2.6,0-3.5,0C133.5,5.2,132.7,5,131.8,5z M129.4,17.8c0-0.8,0.7-1.3,1-1.4c0.1,0,0.2,0,0.5,0h2
	c1.2,0,1.8,0.6,1.8,1.3c0,0.9-1,1.7-3,1.7C130.2,19.4,129.4,18.7,129.4,17.8z M129.6,9c0-1.2,0.8-2,2.1-2c1.3,0,2,0.7,2,2
	c0,1.2-0.8,2-2.1,2C130.2,10.9,129.6,10.1,129.6,9z"/>
<path fill="#FFFFFF" d="M143.7,5c-3.1,0-5.4,2.3-5.4,5.7c0,3.6,2.3,5.6,6.1,5.6c1.7,0,2.9-0.4,3.3-0.6c0-0.6-0.1-1.8-0.1-2.1
	c0-0.2-0.1-0.2-0.2-0.2c-0.1,0-0.2,0.1-0.4,0.2c-0.2,0.1-1.2,0.5-2.3,0.5c-2.6,0-3.2-1.6-3.3-2.8h7.2c0.1-0.3,0.2-0.8,0.2-1.5
	C148.8,7.6,147.3,5,143.7,5z M141.5,9.5c0.1-0.9,0.7-2.3,2.2-2.3c1.5,0,2,1.2,2,2.1c0,0.1,0,0.2,0,0.2H141.5z"/>
<path fill="#FFFFFF" d="M153.3,4.2V3.1c0,0,0.1,0,0.2,0c0.5,0,0.7,0.2,0.7,0.6c0,0.4-0.2,0.6-0.7,0.6C153.4,4.2,153.3,4.2,153.3,4.2
	z M154.3,6.1h0.7l-0.8-1.5c0.1,0,0.7-0.2,0.7-0.9c0-0.6-0.4-1-1.2-1c-0.5,0-1,0-1,0v3.3h0.6V4.7h0.3L154.3,6.1z M153.7,1.1
	c-1.8,0-3.4,1.5-3.4,3.4c0,1.9,1.5,3.4,3.4,3.4c1.9,0,3.4-1.5,3.4-3.4C157,2.6,155.5,1.1,153.7,1.1z M156.5,4.4
	c0,1.6-1.3,2.9-2.9,2.9c-1.6,0-2.8-1.3-2.8-2.9c0-1.6,1.3-2.8,2.8-2.8C155.3,1.6,156.5,2.9,156.5,4.4z"/>
<path fill="#FFFFFF" d="M163.9,5.2c0,0.7,0.1,2,0.1,3.3s0,7.6,0,7.6h2.9c0,0,0-4.9,0-5.7c0-1.7,0.9-3.1,2.2-3.1c1,0,1.6,0.7,1.6,2.1
	c0,0.9,0,6.7,0,6.7h3c0,0,0-4.3,0-5.7c0-1.8,1-3.1,2.2-3.1c1.1,0,1.6,0.9,1.6,2.1c0,1.1,0,6.7,0,6.7h2.9c0,0,0-5.9,0-6.9
	c0-2.6-1.7-4.1-4.1-4.1c-2.2,0-3.1,1.5-3.4,2c-0.3-0.7-1.2-2-3.1-2c-2.3,0-3,1.5-3.2,1.8h-0.1c0,0,0-1.2,0-1.3c0-0.1,0-0.3-0.3-0.3
	C166.1,5.2,163.9,5.2,163.9,5.2z"/>
<path fill="#FFFFFF" d="M182.9,16.1V5.2h2.9v10.9H182.9z M185.9,0h-3v3h3V0z"/>
<path fill="#FFFFFF" d="M191.5,16.1V0.3h-3v15.8H191.5z"/>
<path fill="#FFFFFF" d="M198.9,5c-3.1,0-5.4,2.3-5.4,5.7c0,3.6,2.3,5.6,6.1,5.6c1.7,0,2.9-0.4,3.3-0.6c0-0.6-0.1-1.8-0.1-2.1
	c0-0.2-0.1-0.2-0.2-0.2s-0.2,0.1-0.4,0.2c-0.2,0.1-1.2,0.5-2.3,0.5c-2.6,0-3.2-1.6-3.3-2.8h7.2c0.1-0.3,0.2-0.8,0.2-1.5
	C204,7.6,202.5,5,198.9,5z M196.7,9.5c0.1-0.9,0.7-2.3,2.2-2.3c1.5,0,2,1.2,2,2.1c0,0.1,0,0.2,0,0.2H196.7z"/>
<path fill="#FFFFFF" d="M209.9,5c-2.4,0-4.4,0.8-4.4,3.3c0,2.2,1.9,2.9,2.8,3.3l0.7,0.3c0.9,0.4,1.3,0.6,1.3,1.1c0,0.7-0.6,1-1.8,1
	c-0.9,0-1.8-0.2-2.2-0.4c-0.1,0-0.4-0.1-0.5-0.1c-0.2,0-0.2,0.1-0.3,0.3l-0.2,2.1c0.3,0.1,1.3,0.3,3,0.3c2.3,0,4.9-0.8,4.9-3.5
	c0-1.8-1.3-2.7-2.2-3l-1.2-0.4c-0.9-0.3-1.4-0.5-1.4-1.2c0-0.7,0.6-0.9,1.5-0.9c1.2,0,1.9,0.5,2.3,0.5c0.2,0,0.3-0.1,0.3-0.4
	c0.1-0.5,0.2-1.5,0.2-1.8C212.6,5.3,211.3,5,209.9,5z"/>
<path fill="#FFFFFF" d="M29.9,35.4c1.4,0,2.1,1.2,2.1,2.9c0,1.8-0.8,2.9-2.1,2.9c-1.7,0-2.1-1.6-2.1-2.9
	C27.8,36.4,28.6,35.4,29.9,35.4z M25.8,38.3c0,2.8,1.5,4.4,4.1,4.4c2.9,0,4.1-2,4.1-4.4c0-2.5-1.3-4.4-4.1-4.4
	C26.9,33.9,25.8,36.1,25.8,38.3z"/>
<path fill="#FFFFFF" d="M37.4,42.5c0,0,0-2.9,0-4.1c0-2,1-3,2-3c0.7,0,1.3,0.4,1.3,1.7c0,0.5,0,5.4,0,5.4h1.9c0,0,0-4.5,0-5.9
	c0-1.4-1-2.7-2.8-2.7c-1.3,0-2.1,0.6-2.6,1.4h-0.1c0,0,0-0.8,0-1.1c0-0.2-0.1-0.2-0.2-0.2c-0.3,0-1.5,0-1.5,0c0,0.6,0.1,1.7,0.1,2.6
	c0,0.6,0,5.8,0,5.8H37.4z"/>
<path fill="#FFFFFF" d="M50.6,42.5c0.1,0.1,0.5,0.2,1.3,0.2c2.7,0,4.4-1.9,4.4-4.8c0-1.5-0.4-4-3.3-4c-1.6,0-2.3,0.9-2.6,1.4h-0.1
	c0,0,0-0.8,0-1.1c0-0.2-0.1-0.2-0.2-0.2c-0.3,0-1.5,0-1.5,0c0.1,0.6,0.1,1.7,0.1,2.6c0,0.6,0,9.8,0,9.8h1.9V42.5z M51.9,41.2
	c-0.8,0-1.1-0.1-1.3-0.2c0,0,0-2.3,0-2.8c0-2,1-2.9,2-2.9c1.5,0,1.8,1.3,1.8,2.6C54.4,40.1,53.5,41.2,51.9,41.2z"/>
<path fill="#FFFFFF" d="M63,34.1c0,0,0,2.9,0,4.1c0,2-1,3-2,3c-0.7,0-1.3-0.4-1.3-1.7c0-0.5,0-5.4,0-5.4h-1.9c0,0,0,4.5,0,5.9
	c0,1.4,1,2.7,2.8,2.7c1.4,0,2.1-0.6,2.6-1.4h0.1c0,0,0,0.8,0,1.1c0,0.2,0.1,0.2,0.2,0.2c0.3,0,1.5,0,1.5,0c-0.1-0.7-0.1-1.7-0.1-2.6
	c0-0.6,0-5.8,0-5.8H63z"/>
<path fill="#FFFFFF" d="M67.1,34.1c0,0.5,0.1,1.5,0.1,2.4c0,0.8,0,6,0,6h1.9c0,0,0-3.4,0-4.2c0-2.1,1-2.8,2-2.8c0.2,0,0.4,0,0.6,0.1
	c0.1,0,0.2,0.1,0.3,0.1c0.1,0,0.1-0.1,0.1-0.2c0-0.1,0.1-0.9,0.1-1.4c-0.1-0.1-0.5-0.2-1-0.2c-1.7,0-2.2,1.3-2.3,1.4h-0.1
	c0-0.2,0-0.9,0-1.1c0-0.1,0-0.2-0.2-0.2C68.3,34.1,67.1,34.1,67.1,34.1z"/>
<path fill="#FFFFFF" d="M76.4,33.9c-2.7,0-4.1,1.7-4.1,4.4c0,2.9,1.6,4.4,4.1,4.4c1.1,0,2-0.4,2.2-0.6c0-0.4,0-1.1-0.1-1.3
	c0-0.1-0.1-0.2-0.2-0.2c-0.1,0-0.2,0.1-0.3,0.1c-0.2,0.1-0.8,0.4-1.5,0.4c-1.6,0-2.3-1.1-2.3-2.9c0-1.8,0.6-2.9,2.3-2.9
	c0.7,0,1.5,0.4,1.6,0.4c0.1,0,0.1,0.1,0.2,0.1c0.2,0,0.2-0.2,0.2-0.3c0-0.2,0.1-0.8,0.1-1.2C78.3,34.3,77.4,33.9,76.4,33.9z"/>
<path fill="#FFFFFF" d="M81.9,42.5c0,0,0-2.9,0-4.1c0-2,1-3,2-3c0.7,0,1.3,0.4,1.3,1.7c0,0.5,0,5.4,0,5.4h1.9c0,0,0-4.5,0-5.9
	c0-1.4-0.9-2.7-2.8-2.7c-1.2,0-1.9,0.4-2.3,1.1h-0.1v-4.7H80v12.2H81.9z"/>
<path fill="#FFFFFF" d="M89.2,34.5c0,0.3,0,1,0.1,1.3c0,0,0,0.2,0.2,0.2c0.1,0,0.2-0.1,0.3-0.1c0.2-0.1,1.1-0.5,2.1-0.5
	c1.1,0,1.8,0.4,1.8,1.4c0,0,0,0.3,0,0.3s-0.3,0-0.5,0c-2.2,0-4.6,0.7-4.6,2.9c0,1.5,1.1,2.7,2.6,2.7c1.5,0,2.2-0.9,2.5-1.2h0.1
	l0.1,0.7c0,0.2,0,0.4,0.3,0.4c0.3,0,1.6,0,1.6,0c-0.1-0.6-0.2-1.4-0.2-2.2V37c0-2-1.2-3.1-3.5-3.1C90.7,33.9,89.5,34.3,89.2,34.5z
	 M93.2,38.2c0.2,0,0.4,0,0.4,0s0,0.5,0,0.6c0,1.3-0.7,2.4-1.8,2.4c-0.9,0-1.3-0.6-1.3-1.4C90.4,38.8,91.3,38.2,93.2,38.2z"/>
<path fill="#FFFFFF" d="M100,33.9c-1.6,0-3.2,0.8-3.2,2.5c0,1.5,1,2.1,1.6,2.3l1,0.4c0.8,0.3,1.1,0.7,1.1,1.1c0,0.5-0.5,1-1.6,1
	c-0.6,0-1.2-0.2-1.4-0.2c-0.1,0-0.2-0.1-0.3-0.1c-0.1,0-0.2,0.1-0.2,0.2c0,0.3-0.1,1.1-0.1,1.4c0.2,0.1,0.8,0.2,1.9,0.2
	c1.8,0,3.6-0.7,3.6-2.7c0-1.2-1-2-1.7-2.2l-0.9-0.3c-0.8-0.3-1.1-0.6-1.1-1.1c0-0.5,0.5-1,1.4-1c0.6,0,1.1,0.2,1.3,0.3
	c0.1,0,0.1,0.1,0.2,0.1c0.1,0,0.2-0.1,0.2-0.3c0-0.4,0.1-0.9,0.1-1.2C101.8,34.1,101,33.9,100,33.9z"/>
<path fill="#FFFFFF" d="M107,33.9c-2.4,0-3.8,1.7-3.8,4.4c0,2.8,1.4,4.4,4.4,4.4c1.2,0,2.2-0.3,2.5-0.5c0-0.4-0.1-1.1-0.1-1.4
	c0-0.2-0.1-0.2-0.2-0.2c-0.1,0-0.2,0.1-0.3,0.1c-0.2,0.1-0.9,0.4-1.8,0.4c-1.7,0-2.6-1.1-2.6-2.5h5.4c0-0.2,0.1-0.9,0.1-1.2
	C110.6,35.9,109.8,33.9,107,33.9z M105.2,37.4c0-0.7,0.3-2.1,1.8-2.1c1.4,0,1.7,1.2,1.7,1.9c0,0.1,0,0.2,0,0.2H105.2z"/>
<path fill="#FFFFFF" d="M114.7,33.9c-1.6,0-3.2,0.8-3.2,2.5c0,1.5,1,2.1,1.6,2.3l1,0.4c0.8,0.3,1.1,0.7,1.1,1.1c0,0.5-0.5,1-1.6,1
	c-0.6,0-1.2-0.2-1.4-0.2c-0.1,0-0.2-0.1-0.3-0.1c-0.1,0-0.2,0.1-0.2,0.2c0,0.3-0.1,1.1-0.1,1.4c0.2,0.1,0.8,0.2,1.9,0.2
	c1.8,0,3.6-0.7,3.6-2.7c0-1.2-1-2-1.7-2.2l-0.9-0.3c-0.8-0.3-1.1-0.6-1.1-1.1c0-0.5,0.5-1,1.4-1c0.6,0,1.1,0.2,1.3,0.3
	c0.1,0,0.1,0.1,0.2,0.1c0.1,0,0.2-0.1,0.2-0.3c0-0.4,0.1-0.9,0.1-1.2C116.4,34.1,115.7,33.9,114.7,33.9z"/>
<path fill="#FFFFFF" d="M122.3,34.5c0,0.3,0,1,0.1,1.3c0,0,0,0.2,0.2,0.2c0.1,0,0.2-0.1,0.3-0.1c0.2-0.1,1.1-0.5,2.1-0.5
	c1.1,0,1.8,0.4,1.8,1.4c0,0,0,0.3,0,0.3s-0.3,0-0.5,0c-2.2,0-4.6,0.7-4.6,2.9c0,1.5,1.1,2.7,2.6,2.7c1.5,0,2.2-0.9,2.5-1.2h0.1
	l0.1,0.7c0,0.2,0,0.4,0.3,0.4c0.3,0,1.6,0,1.6,0c-0.1-0.6-0.2-1.4-0.2-2.2V37c0-2-1.2-3.1-3.5-3.1C123.8,33.9,122.6,34.3,122.3,34.5
	z M126.3,38.2c0.2,0,0.4,0,0.4,0s0,0.5,0,0.6c0,1.3-0.7,2.4-1.8,2.4c-0.9,0-1.3-0.6-1.3-1.4C123.6,38.8,124.5,38.2,126.3,38.2z"/>
<path fill="#FFFFFF" d="M133.6,42.7c0.7,0,1.2-0.1,1.3-0.2c0-0.3-0.1-1.2-0.1-1.2c0-0.2-0.1-0.2-0.2-0.2c-0.2,0-0.4,0.2-1,0.2
	c-0.7,0-1.1-0.4-1.1-1.1v-4.5h2v-1.4h-2v-1.9h-1.9v1.9h-1.2v1.4h1.2v4.2C130.7,41.5,131.4,42.7,133.6,42.7z"/>
<path fill="#FFFFFF" d="M143.4,33.9c-2.7,0-4.1,1.7-4.1,4.4c0,2.9,1.6,4.4,4.1,4.4c1.1,0,2-0.4,2.2-0.6c0-0.4,0-1.1-0.1-1.3
	c0-0.1-0.1-0.2-0.2-0.2c-0.1,0-0.2,0.1-0.3,0.1c-0.2,0.1-0.8,0.4-1.5,0.4c-1.6,0-2.3-1.1-2.3-2.9c0-1.8,0.6-2.9,2.3-2.9
	c0.7,0,1.5,0.4,1.6,0.4c0.1,0,0.1,0.1,0.2,0.1c0.2,0,0.2-0.2,0.2-0.3c0-0.2,0.1-0.8,0.1-1.2C145.3,34.3,144.4,33.9,143.4,33.9z"/>
<path fill="#FFFFFF" d="M150.2,33.9c-2.4,0-3.8,1.7-3.8,4.4c0,2.8,1.4,4.4,4.4,4.4c1.2,0,2.2-0.3,2.5-0.5c0-0.4-0.1-1.1-0.1-1.4
	c0-0.2-0.1-0.2-0.2-0.2c-0.1,0-0.2,0.1-0.3,0.1c-0.2,0.1-0.9,0.4-1.8,0.4c-1.7,0-2.6-1.1-2.6-2.5h5.4c0-0.2,0.1-0.9,0.1-1.2
	C153.8,35.9,153,33.9,150.2,33.9z M148.4,37.4c0-0.7,0.3-2.1,1.8-2.1c1.4,0,1.7,1.2,1.7,1.9c0,0.1,0,0.2,0,0.2H148.4z"/>
<path fill="#FFFFFF" d="M155.3,34.1c0,0.5,0.1,1.5,0.1,2.4c0,0.8,0,6,0,6h1.9c0,0,0-3.4,0-4.2c0-2.1,1-2.8,2-2.8
	c0.2,0,0.4,0,0.6,0.1c0.1,0,0.2,0.1,0.3,0.1c0.1,0,0.1-0.1,0.1-0.2c0-0.1,0.1-0.9,0.1-1.4c-0.1-0.1-0.5-0.2-1-0.2
	c-1.7,0-2.2,1.3-2.3,1.4H157c0-0.2,0-0.9,0-1.1c0-0.1,0-0.2-0.2-0.2C156.5,34.1,155.3,34.1,155.3,34.1z"/>
<path fill="#FFFFFF" d="M165.4,42.7c0.7,0,1.2-0.1,1.3-0.2c0-0.3-0.1-1.2-0.1-1.2c0-0.2-0.1-0.2-0.2-0.2c-0.2,0-0.4,0.2-1,0.2
	c-0.7,0-1.1-0.4-1.1-1.1v-4.5h2v-1.4h-2v-1.9h-1.9v1.9h-1.2v1.4h1.2v4.2C162.5,41.5,163.3,42.7,165.4,42.7z"/>
<path fill="#FFFFFF" d="M167.9,34.5c0,0.3,0,1,0.1,1.3c0,0,0,0.2,0.2,0.2c0.1,0,0.2-0.1,0.3-0.1c0.2-0.1,1.1-0.5,2.1-0.5
	c1.1,0,1.8,0.4,1.8,1.4c0,0,0,0.3,0,0.3s-0.3,0-0.5,0c-2.2,0-4.6,0.7-4.6,2.9c0,1.5,1.1,2.7,2.6,2.7c1.5,0,2.2-0.9,2.5-1.2h0.1
	l0.1,0.7c0,0.2,0,0.4,0.3,0.4c0.3,0,1.6,0,1.6,0c-0.1-0.6-0.2-1.4-0.2-2.2V37c0-2-1.2-3.1-3.5-3.1C169.4,33.9,168.3,34.3,167.9,34.5
	z M171.9,38.2c0.2,0,0.4,0,0.4,0s0,0.5,0,0.6c0,1.3-0.7,2.4-1.8,2.4c-0.9,0-1.3-0.6-1.3-1.4C169.2,38.8,170.1,38.2,171.9,38.2z"/>
<path fill="#FFFFFF" d="M176.1,42.5v-8.4h1.9v8.4H176.1z M176,32.2h2v-1.9h-2V32.2z"/>
<path fill="#FFFFFF" d="M182,42.5c0,0,0-2.9,0-4.1c0-2,1-3,2-3c0.7,0,1.3,0.4,1.3,1.7c0,0.5,0,5.4,0,5.4h1.9c0,0,0-4.5,0-5.9
	c0-1.4-1-2.7-2.8-2.7c-1.3,0-2.1,0.6-2.6,1.4h-0.1c0,0,0-0.8,0-1.1c0-0.2-0.1-0.2-0.2-0.2c-0.3,0-1.5,0-1.5,0c0,0.6,0.1,1.7,0.1,2.6
	c0,0.6,0,5.8,0,5.8H182z"/>
<path fill="#FFFFFF" d="M31.6,66h2.6v-2.6h-2.6V66z"/>
<path fill="#FFFFFF" d="M44.9,59h3.1v-1.6h-8.2V59h3.1v9.9h2V59z"/>
<path fill="#FFFFFF" d="M51,60.3c-2.4,0-3.8,1.7-3.8,4.4c0,2.8,1.4,4.4,4.4,4.4c1.2,0,2.2-0.3,2.5-0.5c0-0.4-0.1-1.1-0.1-1.4
	c0-0.2-0.1-0.2-0.2-0.2c-0.1,0-0.2,0.1-0.3,0.1c-0.2,0.1-0.9,0.4-1.8,0.4c-1.7,0-2.6-1.1-2.6-2.5h5.4c0-0.2,0.1-0.9,0.1-1.2
	C54.6,62.3,53.8,60.3,51,60.3z M49.2,63.8c0-0.7,0.3-2.1,1.8-2.1c1.4,0,1.7,1.2,1.7,1.9c0,0.1,0,0.2,0,0.2H49.2z"/>
<path fill="#FFFFFF" d="M57.9,68.9V56.7H56v12.2H57.9z"/>
<path fill="#FFFFFF" d="M63.2,60.3c-2.4,0-3.8,1.7-3.8,4.4c0,2.8,1.4,4.4,4.4,4.4c1.2,0,2.2-0.3,2.5-0.5c0-0.4-0.1-1.1-0.1-1.4
	c0-0.2-0.1-0.2-0.2-0.2c-0.1,0-0.2,0.1-0.3,0.1c-0.2,0.1-0.9,0.4-1.8,0.4c-1.7,0-2.6-1.1-2.6-2.5h5.4c0-0.2,0.1-0.9,0.1-1.2
	C66.8,62.3,66,60.3,63.2,60.3z M61.4,63.8c0-0.7,0.3-2.1,1.8-2.1c1.4,0,1.7,1.2,1.7,1.9c0,0.1,0,0.2,0,0.2H61.4z"/>
<path fill="#FFFFFF" d="M71.7,60.3c-2.7,0-4.1,1.7-4.1,4.4c0,2.9,1.6,4.4,4.1,4.4c1.1,0,2-0.4,2.2-0.6c0-0.4,0-1.1-0.1-1.3
	c0-0.1-0.1-0.2-0.2-0.2c-0.1,0-0.2,0.1-0.3,0.1c-0.2,0.1-0.8,0.4-1.5,0.4c-1.6,0-2.3-1.1-2.3-2.9c0-1.8,0.6-2.9,2.3-2.9
	c0.7,0,1.5,0.4,1.6,0.4c0.1,0,0.1,0.1,0.2,0.1c0.2,0,0.2-0.2,0.2-0.3c0-0.2,0.1-0.8,0.1-1.2C73.7,60.7,72.8,60.3,71.7,60.3z"/>
<path fill="#FFFFFF" d="M78.9,61.8c1.4,0,2.1,1.2,2.1,2.9c0,1.8-0.8,2.9-2.1,2.9c-1.7,0-2.1-1.6-2.1-2.9
	C76.8,62.8,77.6,61.8,78.9,61.8z M74.8,64.7c0,2.8,1.5,4.4,4.1,4.4c2.9,0,4.1-2,4.1-4.4c0-2.5-1.3-4.4-4.1-4.4
	C75.9,60.3,74.8,62.5,74.8,64.7z"/>
<path fill="#FFFFFF" d="M84.4,60.5c0,0.6,0.1,1.6,0.1,2.5s0,5.9,0,5.9h1.9c0,0,0-3.7,0-4.3c0-1.3,0.5-2.7,1.8-2.7
	c0.8,0,1.4,0.5,1.4,1.8c0,0.7,0,5.3,0,5.3h1.9c0,0,0-3.3,0-4.3c0-1.4,0.6-2.7,1.8-2.7c1.2,0,1.4,1,1.4,2c0,0.8,0,5.1,0,5.1h1.9
	c0,0,0-4.9,0-5.8c0-2-1.3-2.8-2.8-2.8c-1.6,0-2.3,1-2.6,1.5c-0.2-0.5-0.9-1.5-2.4-1.5c-1.8,0-2.4,1.2-2.5,1.4h-0.1c0,0,0-0.9,0-1
	c0-0.1,0-0.2-0.3-0.2C85.7,60.5,84.4,60.5,84.4,60.5z"/>
<path fill="#FFFFFF" d="M98.6,60.5c0,0.6,0.1,1.6,0.1,2.5s0,5.9,0,5.9h1.9c0,0,0-3.7,0-4.3c0-1.3,0.5-2.7,1.8-2.7
	c0.8,0,1.4,0.5,1.4,1.8c0,0.7,0,5.3,0,5.3h1.9c0,0,0-3.3,0-4.3c0-1.4,0.6-2.7,1.8-2.7c1.2,0,1.4,1,1.4,2c0,0.8,0,5.1,0,5.1h1.9
	c0,0,0-4.9,0-5.8c0-2-1.3-2.8-2.8-2.8c-1.6,0-2.3,1-2.6,1.5c-0.2-0.5-0.9-1.5-2.4-1.5c-1.8,0-2.4,1.2-2.5,1.4h-0.1c0,0,0-0.9,0-1
	c0-0.1,0-0.2-0.3-0.2C99.9,60.5,98.6,60.5,98.6,60.5z"/>
<path fill="#FFFFFF" d="M117.9,60.5c0,0,0,2.9,0,4.1c0,2-1,3-2,3c-0.7,0-1.3-0.4-1.3-1.7c0-0.5,0-5.4,0-5.4h-1.9c0,0,0,4.5,0,5.9
	c0,1.4,1,2.7,2.8,2.7c1.4,0,2.1-0.6,2.6-1.4h0.1c0,0,0,0.8,0,1.1c0,0.2,0.1,0.2,0.2,0.2c0.3,0,1.5,0,1.5,0c-0.1-0.7-0.1-1.7-0.1-2.6
	c0-0.6,0-5.8,0-5.8H117.9z"/>
<path fill="#FFFFFF" d="M124,68.9c0,0,0-2.9,0-4.1c0-2,1-3,2-3c0.7,0,1.3,0.4,1.3,1.7c0,0.5,0,5.4,0,5.4h1.9c0,0,0-4.5,0-5.9
	c0-1.4-1-2.7-2.8-2.7c-1.3,0-2.1,0.6-2.6,1.4h-0.1c0,0,0-0.8,0-1.1c0-0.2-0.1-0.2-0.2-0.2c-0.3,0-1.5,0-1.5,0c0,0.6,0.1,1.7,0.1,2.6
	c0,0.6,0,5.8,0,5.8H124z"/>
<path fill="#FFFFFF" d="M131.3,68.9v-8.4h1.9v8.4H131.3z M131.2,58.6h2v-1.9h-2V58.6z"/>
<path fill="#FFFFFF" d="M138.8,60.3c-2.7,0-4.1,1.7-4.1,4.4c0,2.9,1.6,4.4,4.1,4.4c1.1,0,2-0.4,2.2-0.6c0-0.4,0-1.1-0.1-1.3
	c0-0.1-0.1-0.2-0.2-0.2c-0.1,0-0.2,0.1-0.3,0.1c-0.2,0.1-0.8,0.4-1.5,0.4c-1.6,0-2.3-1.1-2.3-2.9c0-1.8,0.6-2.9,2.3-2.9
	c0.7,0,1.5,0.4,1.6,0.4c0.1,0,0.1,0.1,0.2,0.1c0.2,0,0.2-0.2,0.2-0.3c0-0.2,0.1-0.8,0.1-1.2C140.7,60.7,139.8,60.3,138.8,60.3z"/>
<path fill="#FFFFFF" d="M142.4,60.9c0,0.3,0,1,0.1,1.3c0,0,0,0.2,0.2,0.2c0.1,0,0.2-0.1,0.3-0.1c0.2-0.1,1.1-0.5,2.1-0.5
	c1.1,0,1.8,0.4,1.8,1.4c0,0,0,0.3,0,0.3s-0.3,0-0.5,0c-2.2,0-4.6,0.7-4.6,2.9c0,1.5,1.1,2.7,2.6,2.7c1.5,0,2.2-0.8,2.5-1.2h0.1
	l0.1,0.7c0,0.2,0,0.4,0.3,0.4c0.3,0,1.6,0,1.6,0c-0.1-0.6-0.2-1.4-0.2-2.2v-3.3c0-2-1.2-3.1-3.5-3.1
	C143.9,60.3,142.7,60.7,142.4,60.9z M146.4,64.6c0.2,0,0.4,0,0.4,0s0,0.5,0,0.6c0,1.3-0.7,2.4-1.8,2.4c-0.9,0-1.3-0.6-1.3-1.4
	C143.7,65.2,144.6,64.6,146.4,64.6z"/>
<path fill="#FFFFFF" d="M153.7,69.1c0.7,0,1.2-0.1,1.3-0.2c0-0.3-0.1-1.2-0.1-1.2c0-0.2-0.1-0.2-0.2-0.2c-0.2,0-0.4,0.2-1,0.2
	c-0.7,0-1.1-0.4-1.1-1.1v-4.5h2v-1.4h-2v-1.9h-1.9v1.9h-1.2v1.4h1.2v4.2C150.8,67.9,151.5,69.1,153.7,69.1z"/>
<path fill="#FFFFFF" d="M156.1,68.9v-8.4h1.9v8.4H156.1z M156,58.6h2v-1.9h-2V58.6z"/>
<path fill="#FFFFFF" d="M163.5,61.8c1.4,0,2.1,1.2,2.1,2.9c0,1.8-0.8,2.9-2.1,2.9c-1.7,0-2.1-1.6-2.1-2.9
	C161.4,62.8,162.3,61.8,163.5,61.8z M159.4,64.7c0,2.8,1.5,4.4,4.1,4.4c2.9,0,4.1-2,4.1-4.4c0-2.5-1.3-4.4-4.1-4.4
	C160.5,60.3,159.4,62.5,159.4,64.7z"/>
<path fill="#FFFFFF" d="M171,68.9c0,0,0-2.9,0-4.1c0-2,1-3,2-3c0.7,0,1.3,0.4,1.3,1.7c0,0.5,0,5.4,0,5.4h1.9c0,0,0-4.5,0-5.9
	c0-1.4-1-2.7-2.8-2.7c-1.3,0-2.1,0.6-2.6,1.4h-0.1c0,0,0-0.8,0-1.1c0-0.2-0.1-0.2-0.2-0.2c-0.3,0-1.5,0-1.5,0c0,0.6,0.1,1.7,0.1,2.6
	c0,0.6,0,5.8,0,5.8H171z"/>
<path fill="#FFFFFF" d="M180.9,60.3c-1.6,0-3.2,0.8-3.2,2.5c0,1.5,1,2.1,1.6,2.3l1,0.4c0.8,0.3,1.1,0.7,1.1,1.1c0,0.5-0.5,1-1.6,1
	c-0.6,0-1.2-0.2-1.4-0.2c-0.1,0-0.2-0.1-0.3-0.1c-0.1,0-0.2,0.1-0.2,0.2c0,0.3-0.1,1.1-0.1,1.4c0.2,0.1,0.8,0.2,1.9,0.2
	c1.8,0,3.6-0.7,3.6-2.7c0-1.2-1-2-1.7-2.2l-0.9-0.3c-0.8-0.3-1.1-0.6-1.1-1.1c0-0.5,0.5-1,1.4-1c0.6,0,1.1,0.2,1.3,0.3
	c0.1,0,0.1,0.1,0.2,0.1c0.1,0,0.2-0.1,0.2-0.3c0-0.4,0.1-0.9,0.1-1.2C182.7,60.5,181.9,60.3,180.9,60.3z"/>
<path fill="#FFFFFF" d="M30.2,92.4h2.6v-2.6h-2.6V92.4z"/>
<path fill="#FFFFFF" d="M47.4,84.1C47,84,46,83.7,44.7,83.7c-4.5,0-5.9,2.9-5.9,5.9c0,3.3,1.7,5.9,5.9,5.9c1.2,0,2.4-0.4,2.7-0.5
	l-0.2-1.7c-0.2,0.1-1.3,0.6-2.6,0.6c-2.8,0-3.6-2.5-3.6-4.2c0-2.9,1.7-4.2,3.6-4.2c1.1,0,2.2,0.4,2.6,0.5L47.4,84.1z"/>
<path fill="#FFFFFF" d="M48.7,87.3c0,0.3,0,1,0.1,1.3c0,0,0,0.2,0.2,0.2c0.1,0,0.2-0.1,0.3-0.1c0.2-0.1,1.1-0.5,2.1-0.5
	c1.1,0,1.8,0.4,1.8,1.4c0,0,0,0.3,0,0.3s-0.3,0-0.5,0c-2.2,0-4.6,0.7-4.6,2.9c0,1.5,1.1,2.7,2.6,2.7c1.5,0,2.2-0.9,2.5-1.2h0.1
	l0.1,0.7c0,0.2,0,0.4,0.3,0.4c0.3,0,1.6,0,1.6,0c-0.1-0.6-0.2-1.4-0.2-2.2v-3.3c0-2-1.2-3.1-3.5-3.1C50.2,86.7,49,87.1,48.7,87.3z
	 M52.7,91c0.2,0,0.4,0,0.4,0s0,0.5,0,0.6c0,1.3-0.7,2.4-1.8,2.4c-0.9,0-1.3-0.6-1.3-1.4C50,91.6,50.9,91,52.7,91z"/>
<path fill="#FFFFFF" d="M56.8,86.9c0,0.5,0.1,1.5,0.1,2.4c0,0.8,0,6,0,6h1.9c0,0,0-3.4,0-4.2c0-2.1,1-2.8,2-2.8c0.2,0,0.4,0,0.6,0.1
	c0.1,0,0.2,0.1,0.3,0.1c0.1,0,0.1-0.1,0.1-0.2c0-0.1,0.1-0.9,0.1-1.4c-0.1-0.1-0.5-0.2-1-0.2c-1.7,0-2.2,1.3-2.3,1.4h-0.1
	c0-0.2,0-0.9,0-1.1c0-0.1,0-0.2-0.2-0.2C58,86.9,56.8,86.9,56.8,86.9z"/>
<path fill="#FFFFFF" d="M67,86.9c0,0.5,0.1,1.5,0.1,2.4c0,0.8,0,6,0,6H69c0,0,0-3.4,0-4.2c0-2.1,1-2.8,2-2.8c0.2,0,0.4,0,0.6,0.1
	c0.1,0,0.2,0.1,0.3,0.1c0.1,0,0.1-0.1,0.1-0.2c0-0.1,0.1-0.9,0.1-1.4c-0.1-0.1-0.5-0.2-1-0.2c-1.7,0-2.2,1.3-2.3,1.4h-0.1
	c0-0.2,0-0.9,0-1.1c0-0.1,0-0.2-0.2-0.2C68.2,86.9,67,86.9,67,86.9z"/>
<path fill="#FFFFFF" d="M76,86.7c-2.4,0-3.8,1.7-3.8,4.4c0,2.8,1.4,4.4,4.4,4.4c1.2,0,2.2-0.3,2.5-0.5c0-0.4-0.1-1.1-0.1-1.4
	c0-0.2-0.1-0.2-0.2-0.2s-0.2,0.1-0.3,0.1c-0.2,0.1-0.9,0.4-1.8,0.4c-1.7,0-2.6-1.1-2.6-2.5h5.4c0-0.2,0.1-0.9,0.1-1.2
	C79.6,88.7,78.8,86.7,76,86.7z M74.2,90.2c0-0.7,0.3-2.1,1.8-2.1c1.4,0,1.7,1.2,1.7,1.9c0,0.1,0,0.2,0,0.2H74.2z"/>
<path fill="#FFFFFF" d="M83,95.3c0,0,0-2.9,0-4.1c0-2,1-3,2-3c0.7,0,1.3,0.4,1.3,1.7c0,0.5,0,5.4,0,5.4h1.9c0,0,0-4.5,0-5.9
	c0-1.4-1-2.7-2.8-2.7c-1.3,0-2.1,0.6-2.6,1.4h-0.1c0,0,0-0.8,0-1.1c0-0.2-0.1-0.2-0.2-0.2c-0.3,0-1.5,0-1.5,0c0,0.6,0.1,1.7,0.1,2.6
	c0,0.6,0,5.8,0,5.8H83z"/>
<path fill="#FFFFFF" d="M93.4,95.5c0.7,0,1.2-0.1,1.3-0.2c0-0.3-0.1-1.2-0.1-1.2c0-0.2-0.1-0.2-0.2-0.2c-0.2,0-0.4,0.2-1,0.2
	c-0.7,0-1.1-0.4-1.1-1.1v-4.5h2v-1.4h-2V85h-1.9v1.9h-1.2v1.4h1.2v4.2C90.6,94.3,91.3,95.5,93.4,95.5z"/>
<path fill="#FFFFFF" d="M96,87.3c0,0.3,0,1,0.1,1.3c0,0,0,0.2,0.2,0.2c0.1,0,0.2-0.1,0.3-0.1c0.2-0.1,1.1-0.5,2.1-0.5
	c1.1,0,1.8,0.4,1.8,1.4c0,0,0,0.3,0,0.3s-0.3,0-0.5,0c-2.2,0-4.6,0.7-4.6,2.9c0,1.5,1.1,2.7,2.6,2.7c1.5,0,2.2-0.9,2.5-1.2h0.1
	l0.1,0.7c0,0.2,0,0.4,0.3,0.4c0.3,0,1.6,0,1.6,0c-0.1-0.6-0.2-1.4-0.2-2.2v-3.3c0-2-1.2-3.1-3.5-3.1C97.5,86.7,96.3,87.1,96,87.3z
	 M100,91c0.2,0,0.4,0,0.4,0s0,0.5,0,0.6c0,1.3-0.7,2.4-1.8,2.4c-0.9,0-1.3-0.6-1.3-1.4C97.2,91.6,98.1,91,100,91z"/>
<path fill="#FFFFFF" d="M106,95.3V83.1h-1.9v12.2H106z"/>
<path fill="#FFFFFF" d="M111.9,86.9c0,0.6,0.1,1.6,0.1,2.5c0,1,0,5.9,0,5.9h1.9c0,0,0-3.7,0-4.3c0-1.3,0.5-2.7,1.8-2.7
	c0.8,0,1.4,0.5,1.4,1.8c0,0.7,0,5.3,0,5.3h1.9c0,0,0-3.3,0-4.3c0-1.4,0.6-2.7,1.8-2.7c1.2,0,1.4,1,1.4,2c0,0.8,0,5.1,0,5.1h1.9
	c0,0,0-4.9,0-5.8c0-2-1.3-2.8-2.8-2.8c-1.6,0-2.3,1-2.6,1.5c-0.2-0.5-0.9-1.5-2.4-1.5c-1.8,0-2.4,1.2-2.5,1.4h-0.1c0,0,0-0.9,0-1
	c0-0.1,0-0.2-0.3-0.2C113.2,86.9,111.9,86.9,111.9,86.9z"/>
<path fill="#FFFFFF" d="M129.3,86.7c-2.4,0-3.8,1.7-3.8,4.4c0,2.8,1.4,4.4,4.4,4.4c1.2,0,2.2-0.3,2.5-0.5c0-0.4-0.1-1.1-0.1-1.4
	c0-0.2-0.1-0.2-0.2-0.2c-0.1,0-0.2,0.1-0.3,0.1c-0.2,0.1-0.9,0.4-1.8,0.4c-1.7,0-2.6-1.1-2.6-2.5h5.4c0-0.2,0.1-0.9,0.1-1.2
	C132.9,88.7,132.1,86.7,129.3,86.7z M127.5,90.2c0-0.7,0.3-2.1,1.8-2.1c1.4,0,1.7,1.2,1.7,1.9c0,0.1,0,0.2,0,0.2H127.5z"/>
<path fill="#FFFFFF" d="M134.3,86.9c0,0.5,0.1,1.5,0.1,2.4c0,0.8,0,6,0,6h1.9c0,0,0-3.4,0-4.2c0-2.1,1-2.8,2-2.8
	c0.2,0,0.4,0,0.6,0.1c0.1,0,0.2,0.1,0.3,0.1c0.1,0,0.1-0.1,0.1-0.2c0-0.1,0.1-0.9,0.1-1.4c-0.1-0.1-0.5-0.2-1-0.2
	c-1.7,0-2.2,1.3-2.3,1.4h-0.1c0-0.2,0-0.9,0-1.1c0-0.1,0-0.2-0.2-0.2C135.5,86.9,134.3,86.9,134.3,86.9z"/>
<path fill="#FFFFFF" d="M143.6,86.7c-2.7,0-4.1,1.7-4.1,4.4c0,2.9,1.6,4.4,4.1,4.4c1.1,0,2-0.4,2.2-0.6c0-0.4,0-1.1-0.1-1.3
	c0-0.1-0.1-0.2-0.2-0.2c-0.1,0-0.2,0.1-0.3,0.1c-0.2,0.1-0.8,0.4-1.5,0.4c-1.6,0-2.3-1.1-2.3-2.9c0-1.8,0.6-2.9,2.3-2.9
	c0.7,0,1.5,0.4,1.6,0.4c0.1,0,0.1,0.1,0.2,0.1c0.2,0,0.2-0.2,0.2-0.3c0-0.2,0.1-0.8,0.1-1.2C145.5,87.1,144.6,86.7,143.6,86.7z"/>
<path fill="#FFFFFF" d="M149.2,95.3c0,0,0-2.9,0-4.1c0-2,1-3,2-3c0.7,0,1.3,0.4,1.3,1.7c0,0.5,0,5.4,0,5.4h1.9c0,0,0-4.5,0-5.9
	c0-1.4-0.9-2.7-2.8-2.7c-1.2,0-1.9,0.4-2.3,1.1h-0.1v-4.7h-1.9v12.2H149.2z"/>
<path fill="#FFFFFF" d="M156.4,87.3c0,0.3,0,1,0.1,1.3c0,0,0,0.2,0.2,0.2c0.1,0,0.2-0.1,0.3-0.1c0.2-0.1,1.1-0.5,2.1-0.5
	c1.1,0,1.8,0.4,1.8,1.4c0,0,0,0.3,0,0.3s-0.3,0-0.5,0c-2.2,0-4.6,0.7-4.6,2.9c0,1.5,1.1,2.7,2.6,2.7c1.5,0,2.2-0.9,2.5-1.2h0.1
	l0.1,0.7c0,0.2,0,0.4,0.3,0.4c0.3,0,1.6,0,1.6,0c-0.1-0.6-0.2-1.4-0.2-2.2v-3.3c0-2-1.2-3.1-3.5-3.1
	C157.9,86.7,156.8,87.1,156.4,87.3z M160.4,91c0.2,0,0.4,0,0.4,0s0,0.5,0,0.6c0,1.3-0.7,2.4-1.8,2.4c-0.9,0-1.3-0.6-1.3-1.4
	C157.7,91.6,158.6,91,160.4,91z"/>
<path fill="#FFFFFF" d="M166.5,95.3c0,0,0-2.9,0-4.1c0-2,1-3,2-3c0.7,0,1.3,0.4,1.3,1.7c0,0.5,0,5.4,0,5.4h1.9c0,0,0-4.5,0-5.9
	c0-1.4-1-2.7-2.8-2.7c-1.3,0-2.1,0.6-2.6,1.4h-0.1c0,0,0-0.8,0-1.1c0-0.2-0.1-0.2-0.2-0.2c-0.3,0-1.5,0-1.5,0c0,0.6,0.1,1.7,0.1,2.6
	c0,0.6,0,5.8,0,5.8H166.5z"/>
<path fill="#FFFFFF" d="M176.9,95.5c0.7,0,1.2-0.1,1.3-0.2c0-0.3-0.1-1.2-0.1-1.2c0-0.2-0.1-0.2-0.2-0.2c-0.2,0-0.4,0.2-1,0.2
	c-0.7,0-1.1-0.4-1.1-1.1v-4.5h2v-1.4h-2V85h-1.9v1.9h-1.2v1.4h1.2v4.2C174.1,94.3,174.8,95.5,176.9,95.5z"/>
<path fill="#FFFFFF" d="M182.3,86.7c-1.6,0-3.2,0.8-3.2,2.5c0,1.5,1,2.1,1.6,2.3l1,0.4c0.8,0.3,1.1,0.7,1.1,1.1c0,0.5-0.5,1-1.6,1
	c-0.6,0-1.2-0.2-1.4-0.2c-0.1,0-0.2-0.1-0.3-0.1c-0.1,0-0.2,0.1-0.2,0.2c0,0.3-0.1,1.1-0.1,1.4c0.2,0.1,0.8,0.2,1.9,0.2
	c1.8,0,3.6-0.7,3.6-2.7c0-1.2-1-2-1.7-2.2l-0.9-0.3c-0.8-0.3-1.1-0.6-1.1-1.1c0-0.5,0.5-1,1.4-1c0.6,0,1.1,0.2,1.3,0.3
	c0.1,0,0.1,0.1,0.2,0.1c0.1,0,0.2-0.1,0.2-0.3c0-0.4,0.1-0.9,0.1-1.2C184,86.9,183.3,86.7,182.3,86.7z"/>
<path fill="#FFFFFF" d="M299.1,15.8v2.3h9.1v-2.4H303c0,0,1.6-2,2.2-2.8c1.5-1.9,2.5-3.4,2.5-5.5c0-2.3-1.7-4.3-4.9-4.3
	c-2.3,0-3.7,0.8-3.9,0.9l0.7,2.4c0.3-0.2,1.4-0.9,2.7-0.9c1.8,0,2.5,1,2.5,2.2c0,1.2-0.7,2.5-2.6,4.8
	C301.7,13,299.1,15.8,299.1,15.8z"/>
<path fill="#FFFFFF" d="M314.2,10.6l-4.9,7.5h3.4l3.1-5.4l3.3,5.4h3.9l-5.2-7.8l4.6-7h-3.2l-3,4.9l-3.1-4.9h-3.7L314.2,10.6z"/>
<path fill="#FFFFFF" d="M327.4,18.1h2.9l1.2-3.3h6.2l1.2,3.3h3.1l-5.5-14.8H333L327.4,18.1z M334.7,6.3l2.2,6.3h-4.5L334.7,6.3
	L334.7,6.3z"/>
<path fill="#FFFFFF" d="M342.6,18.1h2.9l1.2-3.3h6.2l1.2,3.3h3.1l-5.5-14.8h-3.5L342.6,18.1z M349.9,6.3l2.2,6.3h-4.5L349.9,6.3
	L349.9,6.3z"/>
<path fill="#FFFFFF" d="M365.3,7.3c-0.2-0.1-0.7-0.3-1.7-0.3c-3.5,0-5.8,2.5-5.8,6.2c0,2,1,5.1,4.7,5.1c2,0,2.8-1.2,3-1.5h0.1
	c0,0,0,0.7,0.1,1c0,0.2,0.1,0.3,0.3,0.3c0.4,0,2.5,0,2.5,0c0-0.8-0.1-2.2-0.1-3.3c0-0.8,0-12.5,0-12.5h-3V7.3z M363.8,9.3
	c0.8,0,1.4,0.2,1.5,0.2c0,0,0,2.9,0,3.4c0,2.2-1.1,3.1-2.3,3.1c-1.5,0-2.1-1.3-2.1-3.1C360.9,10.7,361.9,9.3,363.8,9.3z"/>
<path fill="#FFFFFF" d="M373.8,18.1h3.3l4.1-10.9h-2.9l-2.6,8h-0.1l-2.7-8h-3.2L373.8,18.1z"/>
<path fill="#FFFFFF" d="M382.6,7.7c0,0.4,0.2,1.7,0.2,2.1c0,0,0,0.2,0.2,0.2c0.4,0,1.1-0.7,3-0.7c1.7,0,2.5,0.6,2.5,1.7v0.2
	c0,0-1.1,0-1.3,0c-2.8,0-5.6,0.7-5.6,3.5c0,2,1.4,3.5,3.4,3.5c2,0,3.1-1.1,3.5-1.6h0.1l0.1,0.9c0,0.2,0,0.5,0.4,0.5
	c0.3,0,2.6,0,2.6,0c-0.1-0.7-0.2-1.8-0.2-2.8v-4.1c0-2.7-1.7-4.2-4.9-4.2C384.7,7,383,7.5,382.6,7.7z M387.8,13c0.3,0,0.7,0,0.7,0
	s0,0.2,0,0.4c0,1.6-0.8,2.8-2.2,2.8c-1,0-1.6-0.6-1.6-1.5C384.7,13.5,385.8,13,387.8,13z"/>
<path fill="#FFFFFF" d="M393.9,18.1h2.9c0,0,0-3.6,0-5.1c0-2.2,1-3.6,2.4-3.6c1,0,1.7,0.7,1.7,2.2c0,0.7,0,6.6,0,6.6h2.9
	c0,0,0-5.2,0-7.1c0-1.8-0.9-4-3.9-4c-1.8,0-2.7,0.7-3.3,1.8h-0.1c0,0,0-1.1,0-1.4c0-0.2-0.1-0.3-0.3-0.3c-0.4,0-2.5,0-2.5,0
	c0,0.9,0.1,2.2,0.1,3.3C393.9,11.3,393.9,18.1,393.9,18.1z"/>
<path fill="#FFFFFF" d="M410.9,18.3c0.9,0,2.2-0.3,2.4-0.3c0-0.5-0.2-1.9-0.2-1.9c0-0.2-0.1-0.3-0.3-0.3c-0.2,0-0.6,0.2-1.3,0.2
	c-0.9,0-1.4-0.5-1.4-1.5V9.6h2.8V7.2h-2.8v-3h-3v3h-1.9v2.4h1.9v4.9C407.2,16.8,408.1,18.3,410.9,18.3z"/>
<path fill="#FFFFFF" d="M414.9,7.7c0,0.4,0.2,1.7,0.2,2.1c0,0,0,0.2,0.2,0.2c0.4,0,1.1-0.7,3-0.7c1.7,0,2.5,0.6,2.5,1.7v0.2
	c0,0-1.1,0-1.3,0c-2.8,0-5.6,0.7-5.6,3.5c0,2,1.4,3.5,3.4,3.5c2,0,3.1-1.1,3.5-1.6h0.1l0.1,0.9c0,0.2,0,0.5,0.4,0.5
	c0.3,0,2.6,0,2.6,0c-0.1-0.7-0.2-1.8-0.2-2.8v-4.1c0-2.7-1.7-4.2-4.9-4.2C416.9,7,415.3,7.5,414.9,7.7z M420,13c0.3,0,0.7,0,0.7,0
	s0,0.2,0,0.4c0,1.6-0.8,2.8-2.2,2.8c-1,0-1.6-0.6-1.6-1.5C417,13.5,418.1,13,420,13z"/>
<path fill="#FFFFFF" d="M430.7,7c-3,0-5,1.4-5,4c0,1.8,1.2,2.8,1.7,3c-0.6,0.2-1.4,0.7-1.4,1.8c0,1.1,1,1.7,1.5,1.8
	c-0.4,0.1-2.1,0.7-2.1,2.5c0,1.6,1.1,3.3,4.8,3.3c3.9,0,6.3-1.8,6.3-4c0-1.8-0.9-3.2-4.2-3.2h-2c-0.9,0-1.5-0.2-1.5-0.8
	c0-0.4,0.3-0.6,0.6-0.7c0.2,0,0.7,0.1,1.3,0.1c2.8,0,4.8-1.3,4.8-4c0-0.7-0.3-1.3-0.5-1.5c0,0,0.5,0,0.8,0c0.4,0,0.6-0.2,0.6-0.6
	c0-0.6,0.1-1.1,0.1-1.4c-0.2,0-2.6,0-3.5,0C432.4,7.2,431.7,7,430.7,7z M428.3,19.8c0-0.8,0.7-1.3,1-1.4c0.1,0,0.2,0,0.5,0h2
	c1.2,0,1.8,0.6,1.8,1.3c0,0.9-1,1.7-3,1.7C429.1,21.4,428.3,20.7,428.3,19.8z M428.5,11c0-1.2,0.8-2,2.1-2c1.3,0,2,0.7,2,2
	c0,1.2-0.8,2-2.1,2C429.1,12.9,428.5,12.1,428.5,11z"/>
<path fill="#FFFFFF" d="M442.6,7c-3.1,0-5.4,2.3-5.4,5.7c0,3.6,2.3,5.6,6.1,5.6c1.7,0,2.9-0.4,3.3-0.6c0-0.6-0.1-1.8-0.1-2.1
	c0-0.2-0.1-0.2-0.2-0.2c-0.1,0-0.2,0.1-0.4,0.2c-0.2,0.1-1.2,0.5-2.3,0.5c-2.6,0-3.2-1.6-3.3-2.8h7.2c0.1-0.3,0.2-0.8,0.2-1.5
	C447.7,9.6,446.2,7,442.6,7z M440.4,11.5c0.1-0.9,0.7-2.3,2.2-2.3c1.5,0,2,1.2,2,2.1c0,0.1,0,0.2,0,0.2H440.4z"/>
<path fill="#FFFFFF" d="M452.2,6.2V5.1c0,0,0.1,0,0.2,0c0.5,0,0.7,0.2,0.7,0.6c0,0.4-0.2,0.6-0.7,0.6C452.3,6.2,452.2,6.2,452.2,6.2
	z M453.2,8.1h0.7l-0.8-1.5c0.1,0,0.7-0.2,0.7-0.9c0-0.6-0.4-1-1.2-1c-0.5,0-1,0-1,0v3.3h0.6V6.7h0.3L453.2,8.1z M452.6,3.1
	c-1.8,0-3.4,1.5-3.4,3.4c0,1.9,1.5,3.4,3.4,3.4c1.9,0,3.4-1.5,3.4-3.4C455.9,4.6,454.4,3.1,452.6,3.1z M455.4,6.4
	c0,1.6-1.3,2.9-2.9,2.9c-1.6,0-2.8-1.3-2.8-2.9c0-1.6,1.3-2.8,2.8-2.8C454.2,3.6,455.4,4.9,455.4,6.4z"/>
<path fill="#FFFFFF" d="M462.8,7.2c0,0.7,0.1,2,0.1,3.3s0,7.6,0,7.6h2.9c0,0,0-4.9,0-5.7c0-1.7,0.9-3.1,2.2-3.1c1,0,1.6,0.7,1.6,2.1
	c0,0.9,0,6.7,0,6.7h3c0,0,0-4.3,0-5.7c0-1.8,1-3.1,2.2-3.1c1.1,0,1.6,0.9,1.6,2.1c0,1.1,0,6.7,0,6.7h2.9c0,0,0-5.9,0-6.9
	c0-2.6-1.7-4.1-4.1-4.1c-2.2,0-3.1,1.5-3.4,2c-0.3-0.7-1.2-2-3.1-2c-2.3,0-3,1.5-3.2,1.8h-0.1c0,0,0-1.2,0-1.3c0-0.1,0-0.3-0.3-0.3
	C465,7.2,462.8,7.2,462.8,7.2z"/>
<path fill="#FFFFFF" d="M481.9,18.1V7.2h2.9v10.9H481.9z M484.8,2h-3v3h3V2z"/>
<path fill="#FFFFFF" d="M490.4,18.1V2.3h-3v15.8H490.4z"/>
<path fill="#FFFFFF" d="M497.8,7c-3.1,0-5.4,2.3-5.4,5.7c0,3.6,2.3,5.6,6.1,5.6c1.7,0,2.9-0.4,3.3-0.6c0-0.6-0.1-1.8-0.1-2.1
	c0-0.2-0.1-0.2-0.2-0.2c-0.1,0-0.2,0.1-0.4,0.2c-0.2,0.1-1.2,0.5-2.3,0.5c-2.6,0-3.2-1.6-3.3-2.8h7.2c0.1-0.3,0.2-0.8,0.2-1.5
	C502.9,9.6,501.4,7,497.8,7z M495.6,11.5c0.1-0.9,0.7-2.3,2.2-2.3c1.5,0,2,1.2,2,2.1c0,0.1,0,0.2,0,0.2H495.6z"/>
<path fill="#FFFFFF" d="M508.8,7c-2.4,0-4.4,0.8-4.4,3.3c0,2.2,1.9,2.9,2.8,3.3l0.7,0.3c0.9,0.4,1.3,0.6,1.3,1.1c0,0.7-0.6,1-1.8,1
	c-0.9,0-1.8-0.2-2.2-0.4c-0.1,0-0.4-0.1-0.5-0.1c-0.2,0-0.2,0.1-0.3,0.3l-0.2,2.1c0.3,0.1,1.3,0.3,3,0.3c2.3,0,4.9-0.8,4.9-3.5
	c0-1.8-1.3-2.7-2.2-3l-1.2-0.4c-0.9-0.3-1.4-0.5-1.4-1.2c0-0.7,0.6-0.9,1.5-0.9c1.2,0,1.9,0.5,2.3,0.5c0.2,0,0.3-0.1,0.3-0.4
	c0.1-0.5,0.2-1.5,0.2-1.8C511.5,7.3,510.2,7,508.8,7z"/>
<path fill="#FFFFFF" d="M352.1,32.1c-2.2,0-3.4,1-3.4,3.5v0.5h-1.2v1.4h1.2c0,2.9,0,7,0,7h1.9c0,0,0-4.1,0-7h2v-1.4h-2v-0.6
	c0-1,0.4-1.8,1.6-1.8c0.6,0,0.9,0.1,1,0.1s0.2-0.1,0.2-0.2c0,0,0.1-0.9,0.1-1.2C353.3,32.2,352.8,32.1,352.1,32.1z"/>
<path fill="#FFFFFF" d="M357.5,37.4c1.4,0,2.1,1.2,2.1,2.9c0,1.8-0.8,2.9-2.1,2.9c-1.7,0-2.1-1.6-2.1-2.9
	C355.3,38.4,356.2,37.4,357.5,37.4z M353.4,40.3c0,2.8,1.5,4.4,4.1,4.4c2.9,0,4.1-2,4.1-4.4c0-2.5-1.3-4.4-4.1-4.4
	C354.4,35.9,353.4,38.1,353.4,40.3z"/>
<path fill="#FFFFFF" d="M363,36.1c0,0.5,0.1,1.5,0.1,2.4c0,0.8,0,6,0,6h1.9c0,0,0-3.4,0-4.2c0-2.1,1-2.8,2-2.8c0.2,0,0.4,0,0.6,0.1
	c0.1,0,0.2,0.1,0.3,0.1c0.1,0,0.1-0.1,0.1-0.2c0-0.1,0.1-0.9,0.1-1.4c-0.1-0.1-0.5-0.2-1-0.2c-1.7,0-2.2,1.3-2.3,1.4h-0.1
	c0-0.2,0-0.9,0-1.1c0-0.1,0-0.2-0.2-0.2C364.2,36.1,363,36.1,363,36.1z"/>
<path fill="#FFFFFF" d="M375.2,44.5c0.1,0.1,0.5,0.2,1.3,0.2c2.7,0,4.4-1.9,4.4-4.8c0-1.5-0.4-4-3.3-4c-1.6,0-2.3,0.9-2.6,1.4h-0.1
	c0,0,0-0.8,0-1.1c0-0.2-0.1-0.2-0.2-0.2c-0.3,0-1.5,0-1.5,0c0.1,0.6,0.1,1.7,0.1,2.6c0,0.6,0,9.8,0,9.8h1.9V44.5z M376.5,43.2
	c-0.8,0-1.1-0.1-1.3-0.2c0,0,0-2.3,0-2.8c0-2,1-2.9,2-2.9c1.5,0,1.8,1.3,1.8,2.6C378.9,42.1,378.1,43.2,376.5,43.2z"/>
<path fill="#FFFFFF" d="M387.6,36.1c0,0,0,2.9,0,4.1c0,2-1,3-2,3c-0.7,0-1.3-0.4-1.3-1.7c0-0.5,0-5.4,0-5.4h-1.9c0,0,0,4.5,0,5.9
	c0,1.4,1,2.7,2.8,2.7c1.4,0,2.1-0.6,2.6-1.4h0.1c0,0,0,0.8,0,1.1c0,0.2,0.1,0.2,0.2,0.2c0.3,0,1.5,0,1.5,0c-0.1-0.7-0.1-1.7-0.1-2.6
	c0-0.6,0-5.8,0-5.8H387.6z"/>
<path fill="#FFFFFF" d="M391.6,36.1c0,0.5,0.1,1.5,0.1,2.4c0,0.8,0,6,0,6h1.9c0,0,0-3.4,0-4.2c0-2.1,1-2.8,2-2.8
	c0.2,0,0.4,0,0.6,0.1c0.1,0,0.2,0.1,0.3,0.1c0.1,0,0.1-0.1,0.1-0.2c0-0.1,0.1-0.9,0.1-1.4c-0.1-0.1-0.5-0.2-1-0.2
	c-1.7,0-2.2,1.3-2.3,1.4h-0.1c0-0.2,0-0.9,0-1.1c0-0.1,0-0.2-0.2-0.2C392.8,36.1,391.6,36.1,391.6,36.1z"/>
<path fill="#FFFFFF" d="M400.9,35.9c-2.7,0-4.1,1.7-4.1,4.4c0,2.9,1.6,4.4,4.1,4.4c1.1,0,2-0.4,2.2-0.6c0-0.4,0-1.1-0.1-1.3
	c0-0.1-0.1-0.2-0.2-0.2c-0.1,0-0.2,0.1-0.3,0.1c-0.2,0.1-0.8,0.4-1.5,0.4c-1.6,0-2.3-1.1-2.3-2.9c0-1.8,0.6-2.9,2.3-2.9
	c0.7,0,1.5,0.4,1.6,0.4c0.1,0,0.1,0.1,0.2,0.1c0.2,0,0.2-0.2,0.2-0.3c0-0.2,0.1-0.8,0.1-1.2C402.8,36.3,401.9,35.9,400.9,35.9z"/>
<path fill="#FFFFFF" d="M406.5,44.5c0,0,0-2.9,0-4.1c0-2,1-3,2-3c0.7,0,1.3,0.4,1.3,1.7c0,0.5,0,5.4,0,5.4h1.9c0,0,0-4.5,0-5.9
	c0-1.4-0.9-2.7-2.8-2.7c-1.2,0-1.9,0.4-2.3,1.1h-0.1v-4.7h-1.9v12.2H406.5z"/>
<path fill="#FFFFFF" d="M413.7,36.5c0,0.3,0,1,0.1,1.3c0,0,0,0.2,0.2,0.2c0.1,0,0.2-0.1,0.3-0.1c0.2-0.1,1.1-0.5,2.1-0.5
	c1.1,0,1.8,0.4,1.8,1.4c0,0,0,0.3,0,0.3s-0.3,0-0.5,0c-2.2,0-4.6,0.7-4.6,2.9c0,1.5,1.1,2.7,2.6,2.7c1.5,0,2.2-0.9,2.5-1.2h0.1
	l0.1,0.7c0,0.2,0,0.4,0.3,0.4c0.3,0,1.6,0,1.6,0c-0.1-0.6-0.2-1.4-0.2-2.2V39c0-2-1.2-3.1-3.5-3.1C415.2,35.9,414,36.3,413.7,36.5z
	 M417.7,40.2c0.2,0,0.4,0,0.4,0s0,0.5,0,0.6c0,1.3-0.7,2.4-1.8,2.4c-0.9,0-1.3-0.6-1.3-1.4C415,40.8,415.9,40.2,417.7,40.2z"/>
<path fill="#FFFFFF" d="M424.6,35.9c-1.6,0-3.2,0.8-3.2,2.5c0,1.5,1,2.1,1.6,2.3l1,0.4c0.8,0.3,1.1,0.7,1.1,1.1c0,0.5-0.5,1-1.6,1
	c-0.6,0-1.2-0.2-1.4-0.2c-0.1,0-0.2-0.1-0.3-0.1c-0.1,0-0.2,0.1-0.2,0.2c0,0.3-0.1,1.1-0.1,1.4c0.2,0.1,0.9,0.2,1.9,0.2
	c1.8,0,3.6-0.7,3.6-2.7c0-1.2-1-2-1.7-2.2l-0.9-0.3c-0.8-0.3-1.1-0.6-1.1-1.1c0-0.5,0.5-1,1.4-1c0.6,0,1.1,0.2,1.3,0.3
	c0.1,0,0.1,0.1,0.2,0.1c0.1,0,0.2-0.1,0.2-0.3c0-0.4,0.1-0.9,0.1-1.2C426.3,36.1,425.6,35.9,424.6,35.9z"/>
<path fill="#FFFFFF" d="M431.6,35.9c-2.4,0-3.8,1.7-3.8,4.4c0,2.8,1.4,4.4,4.4,4.4c1.2,0,2.2-0.3,2.5-0.5c0-0.4-0.1-1.1-0.1-1.4
	c0-0.2-0.1-0.2-0.2-0.2c-0.1,0-0.2,0.1-0.3,0.1c-0.2,0.1-0.9,0.4-1.8,0.4c-1.7,0-2.6-1.1-2.6-2.5h5.4c0-0.2,0.1-0.9,0.1-1.2
	C435.2,37.9,434.3,35.9,431.6,35.9z M429.7,39.4c0-0.7,0.3-2.1,1.8-2.1c1.4,0,1.7,1.2,1.7,1.9c0,0.1,0,0.2,0,0.2H429.7z"/>
<path fill="#FFFFFF" d="M439.2,35.9c-1.6,0-3.2,0.8-3.2,2.5c0,1.5,1,2.1,1.6,2.3l1,0.4c0.8,0.3,1.1,0.7,1.1,1.1c0,0.5-0.5,1-1.6,1
	c-0.6,0-1.2-0.2-1.4-0.2c-0.1,0-0.2-0.1-0.3-0.1c-0.1,0-0.2,0.1-0.2,0.2c0,0.3-0.1,1.1-0.1,1.4c0.2,0.1,0.9,0.2,1.9,0.2
	c1.8,0,3.6-0.7,3.6-2.7c0-1.2-1-2-1.7-2.2l-0.9-0.3c-0.8-0.3-1.1-0.6-1.1-1.1c0-0.5,0.5-1,1.4-1c0.6,0,1.1,0.2,1.3,0.3
	c0.1,0,0.1,0.1,0.2,0.1c0.1,0,0.2-0.1,0.2-0.3c0-0.4,0.1-0.9,0.1-1.2C441,36.1,440.2,35.9,439.2,35.9z"/>
<path fill="#FFFFFF" d="M450.4,37.4c1.4,0,2.1,1.2,2.1,2.9c0,1.8-0.8,2.9-2.1,2.9c-1.7,0-2.1-1.6-2.1-2.9
	C448.3,38.4,449.1,37.4,450.4,37.4z M446.3,40.3c0,2.8,1.5,4.4,4.1,4.4c2.9,0,4.1-2,4.1-4.4c0-2.5-1.3-4.4-4.1-4.4
	C447.3,35.9,446.3,38.1,446.3,40.3z"/>
<path fill="#FFFFFF" d="M457.9,44.5c0,0,0-2.9,0-4.1c0-2,1-3,2-3c0.7,0,1.3,0.4,1.3,1.7c0,0.5,0,5.4,0,5.4h1.9c0,0,0-4.5,0-5.9
	c0-1.4-1-2.7-2.8-2.7c-1.3,0-2.1,0.6-2.6,1.4h-0.1c0,0,0-0.8,0-1.1c0-0.2-0.1-0.2-0.2-0.2c-0.3,0-1.5,0-1.5,0c0,0.6,0.1,1.7,0.1,2.6
	c0,0.6,0,5.8,0,5.8H457.9z"/>
<path fill="#FFFFFF" d="M339.9,68h2.6v-2.6h-2.6V68z"/>
<path fill="#FFFFFF" d="M348,70.9h2.1l0.9-2.6h4.8l0.9,2.6h2.2l-4.3-11.5h-2.3L348,70.9z M353.4,61.5l1.8,5.2h-3.7L353.4,61.5
	L353.4,61.5z"/>
<path fill="#FFFFFF" d="M359.9,62.5c0,0.6,0.1,1.6,0.1,2.5c0,1,0,5.9,0,5.9h1.9c0,0,0-3.7,0-4.3c0-1.3,0.5-2.7,1.8-2.7
	c0.8,0,1.4,0.5,1.4,1.8c0,0.7,0,5.3,0,5.3h1.9c0,0,0-3.3,0-4.3c0-1.4,0.6-2.7,1.8-2.7c1.2,0,1.4,1,1.4,2c0,0.8,0,5.1,0,5.1h1.9
	c0,0,0-4.9,0-5.8c0-2-1.3-2.8-2.8-2.8c-1.6,0-2.3,1-2.6,1.5c-0.2-0.5-0.9-1.5-2.4-1.5c-1.8,0-2.4,1.2-2.5,1.4h-0.1c0,0,0-0.9,0-1
	c0-0.1,0-0.2-0.3-0.2C361.2,62.5,359.9,62.5,359.9,62.5z"/>
<path fill="#FFFFFF" d="M377.3,62.3c-2.4,0-3.8,1.7-3.8,4.4c0,2.8,1.4,4.4,4.4,4.4c1.2,0,2.2-0.3,2.5-0.5c0-0.4-0.1-1.1-0.1-1.4
	c0-0.2-0.1-0.2-0.2-0.2s-0.2,0.1-0.3,0.1c-0.2,0.1-0.9,0.4-1.8,0.4c-1.7,0-2.6-1.1-2.6-2.5h5.4c0-0.2,0.1-0.9,0.1-1.2
	C380.9,64.3,380.1,62.3,377.3,62.3z M375.5,65.8c0-0.7,0.3-2.1,1.8-2.1c1.4,0,1.7,1.2,1.7,1.9c0,0.1,0,0.2,0,0.2H375.5z"/>
<path fill="#FFFFFF" d="M382.3,62.5c0,0.5,0.1,1.5,0.1,2.4c0,0.8,0,6,0,6h1.9c0,0,0-3.4,0-4.2c0-2.1,1-2.8,2-2.8
	c0.2,0,0.4,0,0.6,0.1c0.1,0,0.2,0.1,0.3,0.1c0.1,0,0.1-0.1,0.1-0.2c0-0.1,0.1-0.9,0.1-1.4c-0.1-0.1-0.5-0.2-1-0.2
	c-1.7,0-2.2,1.3-2.3,1.4h-0.1c0-0.2,0-0.9,0-1.1c0-0.1,0-0.2-0.2-0.2C383.5,62.5,382.3,62.5,382.3,62.5z"/>
<path fill="#FFFFFF" d="M388.6,70.9v-8.4h1.9v8.4H388.6z M388.6,60.6h2v-1.9h-2V60.6z"/>
<path fill="#FFFFFF" d="M396.1,62.3c-2.7,0-4.1,1.7-4.1,4.4c0,2.9,1.6,4.4,4.1,4.4c1.1,0,2-0.4,2.2-0.6c0-0.4,0-1.1-0.1-1.3
	c0-0.1-0.1-0.2-0.2-0.2c-0.1,0-0.2,0.1-0.3,0.1c-0.2,0.1-0.8,0.4-1.5,0.4c-1.6,0-2.3-1.1-2.3-2.9c0-1.8,0.6-2.9,2.3-2.9
	c0.7,0,1.5,0.4,1.6,0.4c0.1,0,0.1,0.1,0.2,0.1c0.2,0,0.2-0.2,0.2-0.3c0-0.2,0.1-0.8,0.1-1.2C398.1,62.7,397.2,62.3,396.1,62.3z"/>
<path fill="#FFFFFF" d="M399.8,62.9c0,0.3,0,1,0.1,1.3c0,0,0,0.2,0.2,0.2c0.1,0,0.2-0.1,0.3-0.1c0.2-0.1,1.1-0.5,2.1-0.5
	c1.1,0,1.8,0.4,1.8,1.4c0,0,0,0.3,0,0.3s-0.3,0-0.5,0c-2.2,0-4.6,0.7-4.6,2.9c0,1.5,1.1,2.7,2.6,2.7c1.5,0,2.2-0.8,2.5-1.2h0.1
	l0.1,0.7c0,0.2,0,0.4,0.3,0.4c0.3,0,1.6,0,1.6,0c-0.1-0.6-0.2-1.4-0.2-2.2v-3.3c0-2-1.2-3.1-3.5-3.1
	C401.3,62.3,400.1,62.7,399.8,62.9z M403.8,66.6c0.2,0,0.4,0,0.4,0s0,0.5,0,0.6c0,1.3-0.7,2.4-1.8,2.4c-0.9,0-1.3-0.6-1.3-1.4
	C401,67.2,401.9,66.6,403.8,66.6z"/>
<path fill="#FFFFFF" d="M409.9,70.9c0,0,0-2.9,0-4.1c0-2,1-3,2-3c0.7,0,1.3,0.4,1.3,1.7c0,0.5,0,5.4,0,5.4h1.9c0,0,0-4.5,0-5.9
	c0-1.4-1-2.7-2.8-2.7c-1.3,0-2.1,0.6-2.6,1.4h-0.1c0,0,0-0.8,0-1.1c0-0.2-0.1-0.2-0.2-0.2c-0.3,0-1.5,0-1.5,0c0,0.6,0.1,1.7,0.1,2.6
	c0,0.6,0,5.8,0,5.8H409.9z"/>
<path fill="#FFFFFF" d="M420,70.9h2.1l0.9-2.6h4.8l0.9,2.6h2.2l-4.3-11.5h-2.3L420,70.9z M425.5,61.5l1.8,5.2h-3.7L425.5,61.5
	L425.5,61.5z"/>
<path fill="#FFFFFF" d="M432,70.9v-8.4h1.9v8.4H432z M432,60.6h2v-1.9h-2V60.6z"/>
<path fill="#FFFFFF" d="M436,62.5c0,0.5,0.1,1.5,0.1,2.4c0,0.8,0,6,0,6h1.9c0,0,0-3.4,0-4.2c0-2.1,1-2.8,2-2.8c0.2,0,0.4,0,0.6,0.1
	c0.1,0,0.2,0.1,0.3,0.1c0.1,0,0.1-0.1,0.1-0.2c0-0.1,0.1-0.9,0.1-1.4c-0.1-0.1-0.5-0.2-1-0.2c-1.7,0-2.2,1.3-2.3,1.4h-0.1
	c0-0.2,0-0.9,0-1.1c0-0.1,0-0.2-0.2-0.2C437.2,62.5,436,62.5,436,62.5z"/>
<path fill="#FFFFFF" d="M444.2,70.9V58.7h-1.9v12.2H444.2z"/>
<path fill="#FFFFFF" d="M446.2,70.9v-8.4h1.9v8.4H446.2z M446.2,60.6h2v-1.9h-2V60.6z"/>
<path fill="#FFFFFF" d="M452.2,70.9c0,0,0-2.9,0-4.1c0-2,1-3,2-3c0.7,0,1.3,0.4,1.3,1.7c0,0.5,0,5.4,0,5.4h1.9c0,0,0-4.5,0-5.9
	c0-1.4-1-2.7-2.8-2.7c-1.3,0-2.1,0.6-2.6,1.4H452c0,0,0-0.8,0-1.1c0-0.2-0.1-0.2-0.2-0.2c-0.3,0-1.5,0-1.5,0c0,0.6,0.1,1.7,0.1,2.6
	c0,0.6,0,5.8,0,5.8H452.2z"/>
<path fill="#FFFFFF" d="M462.7,62.3c-2.4,0-3.8,1.7-3.8,4.4c0,2.8,1.4,4.4,4.4,4.4c1.2,0,2.2-0.3,2.5-0.5c0-0.4-0.1-1.1-0.1-1.4
	c0-0.2-0.1-0.2-0.2-0.2c-0.1,0-0.2,0.1-0.3,0.1c-0.2,0.1-0.9,0.4-1.8,0.4c-1.7,0-2.6-1.1-2.6-2.5h5.4c0-0.2,0.1-0.9,0.1-1.2
	C466.3,64.3,465.5,62.3,462.7,62.3z M460.9,65.8c0-0.7,0.3-2.1,1.8-2.1c1.4,0,1.7,1.2,1.7,1.9c0,0.1,0,0.2,0,0.2H460.9z"/>
<path fill="#FFFFFF" d="M470.4,62.3c-1.6,0-3.2,0.8-3.2,2.5c0,1.5,1,2.1,1.6,2.3l1,0.4c0.8,0.3,1.1,0.7,1.1,1.1c0,0.5-0.5,1-1.6,1
	c-0.6,0-1.2-0.2-1.4-0.2c-0.1,0-0.2-0.1-0.3-0.1c-0.1,0-0.2,0.1-0.2,0.2c0,0.3-0.1,1.1-0.1,1.4c0.2,0.1,0.8,0.2,1.9,0.2
	c1.8,0,3.6-0.7,3.6-2.7c0-1.2-1-2-1.7-2.2l-0.9-0.3c-0.8-0.3-1.1-0.6-1.1-1.1c0-0.5,0.5-1,1.4-1c0.6,0,1.1,0.2,1.3,0.3
	c0.1,0,0.1,0.1,0.2,0.1c0.1,0,0.2-0.1,0.2-0.3c0-0.4,0.1-0.9,0.1-1.2C472.1,62.5,471.4,62.3,470.4,62.3z"/>
<path fill="#FFFFFF" d="M324.9,94.4h2.6v-2.6h-2.6V94.4z"/>
<path fill="#FFFFFF" d="M343.2,93.2v-7.3h-2v7.3c0,1.4-0.7,2.7-2.5,2.7c-1.5,0-2.5-0.9-2.5-2.7v-7.3h-2v7.3c0,2.4,1.3,4.3,4.5,4.3
	C341.7,97.5,343.2,95.8,343.2,93.2z"/>
<path fill="#FFFFFF" d="M351.3,85.8c-0.3-0.1-1.1-0.2-2-0.2c-2.8,0-4.4,1.4-4.4,3.2s1.1,2.7,2.4,3.2l1.1,0.5c1,0.4,1.6,0.8,1.6,1.7
	c0,1-0.8,1.6-2.4,1.6c-1.3,0-1.9-0.3-2.2-0.4l-0.1,1.8c0.4,0.1,1.2,0.3,2.5,0.3c2.6,0,4.4-1.3,4.4-3.5c0-1.8-1.3-2.7-2.7-3.2
	l-1.1-0.5c-0.8-0.3-1.3-0.7-1.3-1.5c0-0.8,0.6-1.5,2.2-1.5c0.9,0,1.7,0.2,2,0.3L351.3,85.8z"/>
<path fill="#FFFFFF" d="M356.5,97.3h2.1l0.9-2.6h4.8l0.9,2.6h2.2l-4.3-11.5h-2.3L356.5,97.3z M361.9,87.9l1.8,5.2H360L361.9,87.9
	L361.9,87.9z"/>
<path fill="#FFFFFF" d="M368.5,97.3v-8.4h1.9v8.4H368.5z M368.4,87h2V85h-2V87z"/>
<path fill="#FFFFFF" d="M372.4,88.9c0,0.5,0.1,1.5,0.1,2.4c0,0.8,0,6,0,6h1.9c0,0,0-3.4,0-4.2c0-2.1,1-2.8,2-2.8
	c0.2,0,0.4,0,0.6,0.1c0.1,0,0.2,0.1,0.3,0.1c0.1,0,0.1-0.1,0.1-0.2c0-0.1,0.1-0.9,0.1-1.4c-0.1-0.1-0.5-0.2-1-0.2
	c-1.7,0-2.2,1.3-2.3,1.4h-0.1c0-0.2,0-0.9,0-1.1c0-0.1,0-0.2-0.2-0.2C373.6,88.9,372.4,88.9,372.4,88.9z"/>
<path fill="#FFFFFF" d="M381.1,97.3h2.2l1.8-6.2h0.1l1.8,6.2h2.2l2.6-8.4h-1.8l-1.7,6.2H388l-1.8-6.2h-2.1l-1.8,6.2h-0.1l-1.7-6.2
	h-2L381.1,97.3z"/>
<path fill="#FFFFFF" d="M392.8,89.3c0,0.3,0,1,0.1,1.3c0,0,0,0.2,0.2,0.2c0.1,0,0.2-0.1,0.3-0.1c0.2-0.1,1.1-0.5,2.1-0.5
	c1.1,0,1.8,0.4,1.8,1.4c0,0,0,0.3,0,0.3s-0.3,0-0.5,0c-2.2,0-4.6,0.7-4.6,2.9c0,1.5,1.1,2.7,2.6,2.7c1.5,0,2.2-0.9,2.5-1.2h0.1
	l0.1,0.7c0,0.2,0,0.4,0.3,0.4c0.3,0,1.6,0,1.6,0c-0.1-0.6-0.2-1.4-0.2-2.2v-3.3c0-2-1.2-3.1-3.5-3.1
	C394.3,88.7,393.1,89.1,392.8,89.3z M396.8,93c0.2,0,0.4,0,0.4,0s0,0.5,0,0.6c0,1.3-0.7,2.4-1.8,2.4c-0.9,0-1.3-0.6-1.3-1.4
	C394,93.6,394.9,93,396.8,93z"/>
<path fill="#FFFFFF" d="M403,97.3c0,0-0.3,0.7-0.5,1.3c-0.5,1.3-1.3,1.4-1.9,1.4c-0.5,0-0.7-0.1-0.8-0.1c-0.1,0-0.2,0.1-0.2,0.2
	c-0.1,0.6-0.1,1.3-0.1,1.3c0.2,0.1,0.6,0.2,1.5,0.2c2.3,0,3-1.7,3.7-3.7c0.8-2,3.3-8.9,3.3-8.9h-2l-1.9,5.8H404l-2-5.8h-2.1
	L403,97.3z"/>
<path fill="#FFFFFF" d="M411.7,88.7c-1.6,0-3.2,0.8-3.2,2.5c0,1.5,1,2.1,1.6,2.3l1,0.4c0.8,0.3,1.1,0.7,1.1,1.1c0,0.5-0.5,1-1.6,1
	c-0.6,0-1.2-0.2-1.4-0.2c-0.1,0-0.2-0.1-0.3-0.1c-0.1,0-0.2,0.1-0.2,0.2c0,0.3-0.1,1.1-0.1,1.4c0.2,0.1,0.8,0.2,1.9,0.2
	c1.8,0,3.6-0.7,3.6-2.7c0-1.2-1-2-1.7-2.2l-0.9-0.3c-0.8-0.3-1.1-0.6-1.1-1.1c0-0.5,0.5-1,1.4-1c0.6,0,1.1,0.2,1.3,0.3
	c0.1,0,0.1,0.1,0.2,0.1c0.1,0,0.2-0.1,0.2-0.3c0-0.4,0.1-0.9,0.1-1.2C413.4,88.9,412.7,88.7,411.7,88.7z"/>
<path fill="#FFFFFF" d="M419.4,97.3v-8.4h1.9v8.4H419.4z M419.3,87h2V85h-2V87z"/>
<path fill="#FFFFFF" d="M426.5,97.5c0.7,0,1.2-0.1,1.3-0.2c0-0.3-0.1-1.2-0.1-1.2c0-0.2-0.1-0.2-0.2-0.2c-0.2,0-0.4,0.2-1,0.2
	c-0.7,0-1.1-0.4-1.1-1.1v-4.5h2v-1.4h-2V87h-1.9v1.9h-1.2v1.4h1.2v4.2C423.6,96.3,424.4,97.5,426.5,97.5z"/>
<path fill="#FFFFFF" d="M428.9,97.3v-8.4h1.9v8.4H428.9z M428.9,87h2V85h-2V87z"/>
<path fill="#FFFFFF" d="M434.9,97.3c0,0,0-2.9,0-4.1c0-2,1-3,2-3c0.7,0,1.3,0.4,1.3,1.7c0,0.5,0,5.4,0,5.4h1.9c0,0,0-4.5,0-5.9
	c0-1.4-1-2.7-2.8-2.7c-1.3,0-2.1,0.6-2.6,1.4h-0.1c0,0,0-0.8,0-1.1c0-0.2-0.1-0.2-0.2-0.2c-0.3,0-1.5,0-1.5,0c0,0.6,0.1,1.7,0.1,2.6
	c0,0.6,0,5.8,0,5.8H434.9z"/>
<path fill="#FFFFFF" d="M445.4,88.7c-2.4,0-3.8,1.7-3.8,4.4c0,2.8,1.4,4.4,4.4,4.4c1.2,0,2.2-0.3,2.5-0.5c0-0.4-0.1-1.1-0.1-1.4
	c0-0.2-0.1-0.2-0.2-0.2s-0.2,0.1-0.3,0.1c-0.2,0.1-0.9,0.4-1.8,0.4c-1.7,0-2.6-1.1-2.6-2.5h5.4c0-0.2,0.1-0.9,0.1-1.2
	C448.9,90.7,448.1,88.7,445.4,88.7z M443.5,92.2c0-0.7,0.3-2.1,1.8-2.1c1.4,0,1.7,1.2,1.7,1.9c0,0.1,0,0.2,0,0.2H443.5z"/>
<path fill="#FFFFFF" d="M450.4,88.9c0,0.5,0.1,1.5,0.1,2.4c0,0.8,0,6,0,6h1.9c0,0,0-3.4,0-4.2c0-2.1,1-2.8,2-2.8
	c0.2,0,0.4,0,0.6,0.1c0.1,0,0.2,0.1,0.3,0.1c0.1,0,0.1-0.1,0.1-0.2c0-0.1,0.1-0.9,0.1-1.4c-0.1-0.1-0.5-0.2-1-0.2
	c-1.7,0-2.2,1.3-2.3,1.4h-0.1c0-0.2,0-0.9,0-1.1c0-0.1,0-0.2-0.2-0.2C451.6,88.9,450.4,88.9,450.4,88.9z"/>
<path fill="#FFFFFF" d="M456.2,89.3c0,0.3,0,1,0.1,1.3c0,0,0,0.2,0.2,0.2c0.1,0,0.2-0.1,0.3-0.1c0.2-0.1,1.1-0.5,2.1-0.5
	c1.1,0,1.8,0.4,1.8,1.4c0,0,0,0.3,0,0.3s-0.3,0-0.5,0c-2.2,0-4.6,0.7-4.6,2.9c0,1.5,1.1,2.7,2.6,2.7c1.5,0,2.2-0.9,2.5-1.2h0.1
	l0.1,0.7c0,0.2,0,0.4,0.3,0.4c0.3,0,1.6,0,1.6,0c-0.1-0.6-0.2-1.4-0.2-2.2v-3.3c0-2-1.2-3.1-3.5-3.1
	C457.7,88.7,456.5,89.1,456.2,89.3z M460.2,93c0.2,0,0.4,0,0.4,0s0,0.5,0,0.6c0,1.3-0.7,2.4-1.8,2.4c-0.9,0-1.3-0.6-1.3-1.4
	C457.4,93.6,458.3,93,460.2,93z"/>
<path fill="#FFFFFF" d="M464.2,88.9c0,0.5,0.1,1.5,0.1,2.4c0,0.8,0,6,0,6h1.9c0,0,0-3.4,0-4.2c0-2.1,1-2.8,2-2.8
	c0.2,0,0.4,0,0.6,0.1c0.1,0,0.2,0.1,0.3,0.1c0.1,0,0.1-0.1,0.1-0.2c0-0.1,0.1-0.9,0.1-1.4c-0.1-0.1-0.5-0.2-1-0.2
	c-1.7,0-2.2,1.3-2.3,1.4H466c0-0.2,0-0.9,0-1.1c0-0.1,0-0.2-0.2-0.2C465.4,88.9,464.2,88.9,464.2,88.9z"/>
<path fill="#FFFFFF" d="M470.6,97.3v-8.4h1.9v8.4H470.6z M470.5,87h2V85h-2V87z"/>
<path fill="#FFFFFF" d="M477.8,88.7c-2.4,0-3.8,1.7-3.8,4.4c0,2.8,1.4,4.4,4.4,4.4c1.2,0,2.2-0.3,2.5-0.5c0-0.4-0.1-1.1-0.1-1.4
	c0-0.2-0.1-0.2-0.2-0.2c-0.1,0-0.2,0.1-0.3,0.1c-0.2,0.1-0.9,0.4-1.8,0.4c-1.7,0-2.6-1.1-2.6-2.5h5.4c0-0.2,0.1-0.9,0.1-1.2
	C481.4,90.7,480.5,88.7,477.8,88.7z M475.9,92.2c0-0.7,0.3-2.1,1.8-2.1c1.4,0,1.7,1.2,1.7,1.9c0,0.1,0,0.2,0,0.2H475.9z"/>
<path fill="#FFFFFF" d="M485.4,88.7c-1.6,0-3.2,0.8-3.2,2.5c0,1.5,1,2.1,1.6,2.3l1,0.4c0.8,0.3,1.1,0.7,1.1,1.1c0,0.5-0.5,1-1.6,1
	c-0.6,0-1.2-0.2-1.4-0.2c-0.1,0-0.2-0.1-0.3-0.1c-0.1,0-0.2,0.1-0.2,0.2c0,0.3-0.1,1.1-0.1,1.4c0.2,0.1,0.9,0.2,1.9,0.2
	c1.8,0,3.6-0.7,3.6-2.7c0-1.2-1-2-1.7-2.2l-0.9-0.3c-0.8-0.3-1.1-0.6-1.1-1.1c0-0.5,0.5-1,1.4-1c0.6,0,1.1,0.2,1.3,0.3
	c0.1,0,0.1,0.1,0.2,0.1c0.1,0,0.2-0.1,0.2-0.3c0-0.4,0.1-0.9,0.1-1.2C487.1,88.9,486.4,88.7,485.4,88.7z"/>
</svg>
