<?xml version="1.0" encoding="utf-8"?>
<!-- Generator: Adobe Illustrator 18.1.1, SVG Export Plug-In . SVG Version: 6.00 Build 0)  -->
<svg version="1.1" id="Layer_1" xmlns="http://www.w3.org/2000/svg" xmlns:xlink="http://www.w3.org/1999/xlink" x="0px" y="0px"
	 width="121px" height="35px" viewBox="0 0 121 35" enable-background="new 0 0 121 35" xml:space="preserve">
<g>
	<path fill="#CC3333" d="M121,35H0V0h121V35z M2,33h117V2H2V33z"/>
</g>
<path fill-rule="evenodd" clip-rule="evenodd" fill="#CC3333" d="M2.8,2.8h115.4v29.4H2.8V2.8z"/>
<path fill="#FFFFFF" d="M10,13.8v8h2.6c2.6,0,4-1.6,4-4c0-2.4-1.5-4-4-4H10z M10.7,21.3v-6.9h1.9c2.1,0,3.4,1.3,3.4,3.4
	c0,2.1-1.2,3.5-3.4,3.5H10.7z"/>
<path fill="#FFFFFF" d="M19.2,21.9v-8h-0.7v8H19.2z"/>
<path fill="#FFFFFF" d="M20.9,20.9c0.7,0.7,2.1,1.1,3.3,1.1c1.6,0,3.3-0.7,3.3-2.2c0-1.8-1.7-2-3.4-2.3c-1.1-0.2-2.2-0.5-2.2-1.6
	c0-1.1,1.2-1.6,2.5-1.6c0.9,0,1.7,0.2,2.3,0.6l0.4-0.5c-0.7-0.4-1.7-0.7-2.6-0.7c-1.7,0-3.3,0.7-3.3,2.2c0,1.5,1.3,1.8,2.7,2.1
	c1.6,0.3,2.9,0.4,2.9,1.8c0,1.2-1.3,1.6-2.5,1.6c-1.1,0-2.3-0.4-2.9-1L20.9,20.9z"/>
<path fill="#FFFFFF" d="M34.9,20.9c-0.5,0.4-1.1,0.6-1.9,0.6c-2.1,0-3.3-1.5-3.3-3.6c0-2.1,1.2-3.6,3.3-3.6c0.8,0,1.4,0.2,1.9,0.6
	l0.4-0.5c-0.6-0.4-1.4-0.7-2.3-0.7c-2.6,0-4,1.8-4,4.2c0,2.4,1.5,4.2,4,4.2c0.9,0,1.7-0.2,2.3-0.7L34.9,20.9z"/>
<path fill="#FFFFFF" d="M40.8,13.7c-2.6,0-4,1.8-4,4.2c0,2.4,1.5,4.2,4,4.2c2.6,0,4-1.8,4-4.2C44.9,15.5,43.4,13.7,40.8,13.7
	L40.8,13.7z M40.8,14.3c2.1,0,3.4,1.5,3.4,3.6c0,2.1-1.2,3.6-3.4,3.6c-2.1,0-3.3-1.4-3.3-3.6C37.5,15.7,38.7,14.3,40.8,14.3
	L40.8,14.3z"/>
<path fill="#FFFFFF" d="M49.6,21.9l3.3-8h-0.7l-2.9,7.3l-2.9-7.3h-0.7l3.3,8H49.6z"/>
<path fill="#FFFFFF" d="M59.5,14.4v-0.6h-5v8h5v-0.6h-4.3V18h4v-0.6h-4v-3H59.5z"/>
<path fill="#FFFFFF" d="M61.3,13.8v8H62v-3h2.5l2.2,3h0.8l-2.3-3.1c1.3-0.2,2-1.1,2-2.4c0-1.5-0.9-2.5-2.5-2.5H61.3z M62,14.4h2.6
	c1.2,0,1.9,0.8,1.9,1.9c0,1.2-0.7,2-1.9,2H62V14.4z"/>
<path fill="#FFFFFF" d="M72.1,20.9c0.7,0.7,2.1,1.1,3.3,1.1c1.6,0,3.3-0.7,3.3-2.2c0-1.8-1.7-2-3.4-2.3c-1.1-0.2-2.2-0.5-2.2-1.6
	c0-1.1,1.2-1.6,2.5-1.6c0.9,0,1.7,0.2,2.3,0.6l0.4-0.5c-0.7-0.4-1.7-0.7-2.6-0.7c-1.7,0-3.3,0.7-3.3,2.2c0,1.5,1.3,1.8,2.7,2.1
	c1.6,0.3,2.9,0.4,2.9,1.8c0,1.2-1.3,1.6-2.5,1.6c-1.1,0-2.3-0.4-2.9-1L72.1,20.9z"/>
<path fill="#FFFFFF" d="M86.5,14.4v-0.6h-6.7v0.6h3v7.5h0.7v-7.5H86.5z"/>
<path fill="#FFFFFF" d="M91.1,13.7c-2.6,0-4,1.8-4,4.2c0,2.4,1.5,4.2,4,4.2c2.6,0,4-1.8,4-4.2C95.2,15.5,93.7,13.7,91.1,13.7
	L91.1,13.7z M91.1,14.3c2.1,0,3.4,1.5,3.4,3.6c0,2.1-1.2,3.6-3.4,3.6c-2.1,0-3.3-1.4-3.3-3.6C87.8,15.7,89,14.3,91.1,14.3L91.1,14.3
	z"/>
<path fill="#FFFFFF" d="M97.1,13.8v8h0.7v-3h2.5l2.2,3h0.8l-2.3-3.1c1.3-0.2,2-1.1,2-2.4c0-1.5-0.9-2.5-2.5-2.5H97.1z M97.8,14.4
	h2.6c1.2,0,1.9,0.8,1.9,1.9c0,1.2-0.7,2-1.9,2h-2.6V14.4z"/>
<path fill="#FFFFFF" d="M107.8,18.7l3.1-4.8h-0.8l-2.7,4.2l-2.7-4.2h-0.8l3.1,4.8v3.2h0.7V18.7z"/>
</svg>
