<?xml version="1.0" encoding="utf-8"?>
<!-- Generator: Adobe Illustrator 18.1.1, SVG Export Plug-In . SVG Version: 6.00 Build 0)  -->
<svg version="1.1" id="Layer_1" xmlns="http://www.w3.org/2000/svg" xmlns:xlink="http://www.w3.org/1999/xlink" x="0px" y="0px"
	 width="300px" height="250px" viewBox="0 0 300 250" enable-background="new 0 0 300 250" xml:space="preserve">
<path fill="#FFFFFF" d="M59,120.7v-4H41.5v4h6.3v15.7h4.9v-15.7H59z"/>
<path fill="#FFFFFF" d="M66.5,136.4v-19.7h-4.9v19.7H66.5z"/>
<path fill="#FFFFFF" d="M92.2,136.4v-19.7h-5.6l-5.4,13.9l-5.4-13.9h-5.6v19.7H75v-9.3l4,9.3h4.4l4-9.3v9.3H92.2z"/>
<path fill="#FFFFFF" d="M110,120.7v-4H95.9v19.7H110v-4h-9.2v-4.1h8.4v-4h-8.4v-3.6H110z"/>
<path fill="#FFFFFF" d="M111.9,133.9c1.9,1.8,5.5,2.8,8.7,2.8c4.4,0,8.8-1.9,8.8-6.1c0-4.6-3.9-5.4-8.2-6.2
	c-1.3-0.3-3.8-0.6-3.8-2.1c0-1.4,1.6-2,3.2-2c1.7,0,3.3,0.4,4.6,1.2l2.9-3.4c-1.9-1.1-4.4-1.6-6.8-1.6c-4.5,0-8.9,1.9-8.9,6.2
	c0,4.1,3.5,5.1,7.3,5.8c2.8,0.5,4.5,0.5,4.5,2.3c0,1.5-1.7,2.1-3.4,2.1c-2.4,0-4.8-0.8-6.1-2.1L111.9,133.9z"/>
<path fill="#FFFFFF" d="M154,130.8c-0.9,1.2-2.3,1.8-4,1.8c-3.4,0-5.4-2.3-5.4-6.1c0-3.8,2-6.1,5.4-6.1c1.8,0,3.1,0.6,4,1.8l3.2-3.2
	c-1.7-1.6-4.2-2.6-7.2-2.6c-6.6,0-10.3,4.5-10.3,10.1c0,5.6,3.7,10.1,10.3,10.1c3.1,0,5.5-1,7.2-2.6L154,130.8z"/>
<path fill="#FFFFFF" d="M177,136.4v-19.7h-4.9v7.8h-7.2v-7.8H160v19.7h4.9v-7.8h7.2v7.8H177z"/>
<path fill="#FFFFFF" d="M200.4,136.4l-8-19.7h-4.9l-8,19.7h5.1l1.4-3.7h7.9l1.4,3.7H200.4z M187.5,128.7l2.5-6.6l2.5,6.6H187.5z"/>
<path fill="#FFFFFF" d="M219.7,136.4v-19.7h-4.9v10.8l-6.4-10.8h-5.6v19.7h4.9v-10.8l6.4,10.8H219.7z"/>
<path fill="#FFFFFF" d="M241.4,124.6h-8.5v3.8h3.7v2.9c-0.9,0.9-2.2,1.4-3.7,1.4c-3.3,0-5.4-2.3-5.4-6.1c0-4,2.3-6.1,5.4-6.1
	c1.6,0,3.3,0.6,4.8,1.7l2.9-2.8c-1.8-1.9-4.3-3-7.7-3c-6.6,0-10.3,4.5-10.3,10.1c0,5.7,3.8,10.1,10.3,10.1c3.9,0,6.8-1.6,8.5-4
	V124.6z"/>
<path fill="#FFFFFF" d="M259.1,120.7v-4H245v19.7h14.1v-4h-9.2v-4.1h8.4v-4h-8.4v-3.6H259.1z"/>
<path fill="#FFFFFF" d="M68.9,239.3h1.1l0.7-3.5h1.2c0.6,0,1,0.1,1.2,0.3c0.4,0.4,0.8,1.3,0.9,1.7l0.6,1.5h1.2l-0.6-1.5
	c-0.3-0.8-0.8-1.6-1.4-2.1c0.6-0.1,2.7-0.4,2.7-2.4c0-1.9-1.6-1.9-2.6-1.9h-3.3L68.9,239.3z M71.4,232.3H74c0.6,0,1.4,0,1.4,1
	c0,0.6-0.4,1.1-1,1.4c-0.5,0.2-1.1,0.2-2.1,0.2h-1.5L71.4,232.3z"/>
<path fill="#FFFFFF" d="M78.3,235.3c0.3-0.8,0.9-1,1.6-1c0.3,0,1.2,0,1.2,0.8c0,0.1,0,0.4-0.1,0.7c-0.4,0.2-0.8,0.2-1.6,0.2
	c-0.6,0-2.6,0.1-2.6,1.8c0,1.1,0.8,1.7,1.8,1.7c1,0,1.7-0.6,2-0.8c0,0.1,0,0.4,0.1,0.7h1c0,0,0-0.1,0-0.1c-0.1-0.3-0.1-0.5-0.1-0.7
	c0-0.4,0.1-0.7,0.1-1.1l0.3-1.4c0.1-0.6,0.1-1,0.1-1.1c0-0.9-1-1.5-2.2-1.5c-0.6,0-1.6,0.1-2.2,1c-0.2,0.3-0.3,0.5-0.4,0.7
	L78.3,235.3z M80.8,236.4c-0.1,0.6-0.2,1-0.5,1.4c-0.4,0.5-1,0.8-1.6,0.8c-0.8,0-1.1-0.5-1.1-0.9c0-0.9,1-1,1.6-1.1
	C80.2,236.6,80.5,236.6,80.8,236.4z"/>
<path fill="#FFFFFF" d="M82.7,239.8c0,0.1,0,0.2,0,0.3c0,1.4,1.7,1.5,2.2,1.5c2.1,0,2.4-1.7,2.6-2.5l1.2-5.5h-0.9l-0.2,0.9h0
	c-0.5-0.9-1.2-1.1-1.7-1.1c-1.6,0-2.9,1.7-2.9,3.4c0,1.6,0.9,2.4,2,2.4c0.4,0,1-0.1,1.6-0.8l0,0l-0.1,0.4c-0.2,1-0.4,1.8-1.7,1.8
	c-1.1,0-1.1-0.6-1.1-0.9L82.7,239.8z M83.9,236.8c0-0.8,0.6-2.5,1.9-2.5c0.8,0,1.4,0.7,1.4,1.5c0,1.1-0.7,2.7-2,2.7
	c-0.4,0-0.8-0.3-1-0.6C83.9,237.6,83.9,237.3,83.9,236.8z"/>
<path fill="#FFFFFF" d="M91.5,232.9h0.8l1.4-1.5h-1.2L91.5,232.9z M89.3,236.9c-0.1,0.5-0.2,0.9-0.2,1.2c0,0.8,0.7,1.3,1.5,1.3
	c0.9,0,1.6-0.5,2.1-1.2l0,0l-0.2,1h0.9l1.2-5.7h-1l-0.5,2.5c-0.2,0.8-0.3,1.4-0.9,2c-0.5,0.4-0.9,0.6-1.3,0.6c-0.1,0-0.8,0-0.8-0.7
	c0-0.2,0.1-0.5,0.1-0.7l0.8-3.6h-1L89.3,236.9z"/>
<path fill="#FFFFFF" d="M97.9,239.3h1l1-5h1.1l0.2-0.7h-1.1l0.1-0.6c0.1-0.5,0.2-0.8,0.7-0.8c0.3,0,0.7,0.1,0.8,0.1l0.2-0.8
	c-0.2,0-0.7-0.2-1.1-0.2c-1.2,0-1.4,0.7-1.6,1.5l-0.2,0.8h-0.9l-0.2,0.7H99L97.9,239.3z"/>
<path fill="#FFFFFF" d="M101,237.2c0,1.5,1.1,2.3,2.3,2.3c1.7,0,3.1-1.5,3.1-3.6c0-1.5-0.9-2.4-2.3-2.4
	C102.1,233.5,101,235.2,101,237.2z M102,237.1c0-1.2,0.7-2.8,2.1-2.8c0.9,0,1.4,0.8,1.4,1.6c0,1.2-0.8,2.8-2.1,2.8
	C103,238.7,102,238.6,102,237.1z"/>
<path fill="#FFFFFF" d="M107.4,236.9c-0.1,0.5-0.2,0.9-0.2,1.2c0,0.8,0.7,1.3,1.5,1.3c0.9,0,1.6-0.5,2.1-1.2l0,0l-0.2,1h0.9l1.2-5.7
	h-1l-0.5,2.5c-0.2,0.8-0.3,1.4-0.9,2c-0.5,0.4-0.9,0.6-1.3,0.6c-0.1,0-0.8,0-0.8-0.7c0-0.2,0.1-0.5,0.1-0.7l0.8-3.6h-1L107.4,236.9z
	"/>
<path fill="#FFFFFF" d="M112.9,239.3h1l0.6-2.7c0.2-0.8,0.4-1.4,0.7-1.7c0.3-0.4,0.9-0.7,1.5-0.7c0.3,0,0.8,0.1,0.8,0.6
	c0,0.2,0,0.4-0.1,0.8l-0.8,3.6h1l0.7-3.5c0.1-0.3,0.1-0.7,0.1-1c0-1.2-1.1-1.4-1.5-1.4c-1,0-1.7,0.8-2.1,1.1l0,0l0.2-1h-0.9
	L112.9,239.3z"/>
<path fill="#FFFFFF" d="M123.6,234.5L123.6,234.5c-0.4-0.8-1-1-1.6-1c-1.5,0-2.8,1.6-2.8,3.6c0,1.8,1.1,2.3,1.9,2.3
	c0.7,0,1.3-0.4,1.7-1l0,0l-0.2,0.8h0.9l1.6-7.9h-1L123.6,234.5z M120.2,236.9c0-0.6,0.5-2.7,1.9-2.7c0.6,0,1.2,0.4,1.2,1.5
	c0,1.5-0.9,2.9-1.9,2.9C120.2,238.7,120.2,237.3,120.2,236.9z"/>
<path fill="#FFFFFF" d="M129.2,237.4c-0.5,1-1.3,1.3-1.7,1.3c-0.7,0-1.3-0.5-1.3-1.7c0-0.1,0-0.2,0-0.3h4.2c0-0.2,0.1-0.4,0.1-0.9
	c0-1-0.5-2.4-2.2-2.4c-2.1,0-3,2.1-3,3.5c0,1.6,1,2.4,2.2,2.4c1.5,0,2.5-1.2,2.7-2L129.2,237.4z M126.4,236c0.2-0.7,0.8-1.7,1.9-1.7
	c0.6,0,1.2,0.4,1.3,1.3c0,0.2,0,0.3,0,0.4H126.4z"/>
<path fill="#FFFFFF" d="M131.1,239.3h0.9l0.5-2.3c0.2-0.9,0.4-1.5,0.6-1.8c0.2-0.3,0.7-0.8,1.2-0.8c0.2,0,0.4,0.1,0.6,0.2l0.4-0.9
	c-0.2-0.1-0.5-0.2-0.7-0.2c-0.9,0-1.5,0.9-1.7,1.3l0,0l0.2-1.1h-0.9L131.1,239.3z"/>
<path fill="#FFFFFF" d="M135.9,234.7h1.1l0.2-1.1h-1.1L135.9,234.7z M135,239.3h1.1l0.2-1.1h-1.1L135,239.3z"/>
<path fill="#FFFFFF" d="M139.7,239.3h1.2l1.3-2.3h3.2l0.4,2.3h1l-1.3-7.9h-1.2L139.7,239.3z M143.9,233.9c0.4-0.7,0.5-0.9,0.8-1.6h0
	c0,0.6,0.1,1.1,0.2,2l0.3,2h-2.6L143.9,233.9z"/>
<path fill="#FFFFFF" d="M147.7,237.4c-0.1,1.9,1.8,2.1,2.3,2.1c1.6,0,2.3-0.9,2.3-1.7c0-1-0.8-1.4-1.9-1.8c-0.7-0.3-1.1-0.5-1.1-0.9
	c0-0.3,0.4-0.7,1.1-0.7c0.2,0,1.3,0,1.3,1.1l1-0.1c0-1.5-1.4-1.8-2.2-1.8c-1.5,0-2,1-2,1.6c0,0.9,0.7,1.2,1.7,1.7
	c0.7,0.3,1.2,0.5,1.2,1c0,0.6-0.6,0.9-1.3,0.9c-1.4,0-1.4-1.1-1.4-1.4L147.7,237.4z"/>
<path fill="#FFFFFF" d="M153.1,237.4c-0.1,1.9,1.8,2.1,2.3,2.1c1.6,0,2.3-0.9,2.3-1.7c0-1-0.8-1.4-1.9-1.8c-0.7-0.3-1.1-0.5-1.1-0.9
	c0-0.3,0.4-0.7,1.1-0.7c0.2,0,1.3,0,1.3,1.1l1-0.1c0-1.5-1.4-1.8-2.2-1.8c-1.5,0-2,1-2,1.6c0,0.9,0.7,1.2,1.7,1.7
	c0.7,0.3,1.2,0.5,1.2,1c0,0.6-0.6,0.9-1.3,0.9c-1.4,0-1.4-1.1-1.4-1.4L153.1,237.4z"/>
<path fill="#FFFFFF" d="M159,236.9c-0.1,0.5-0.2,0.9-0.2,1.2c0,0.8,0.7,1.3,1.5,1.3c0.9,0,1.6-0.5,2.1-1.2l0,0l-0.2,1h0.9l1.2-5.7
	h-1l-0.5,2.5c-0.2,0.8-0.3,1.4-0.9,2c-0.5,0.4-0.9,0.6-1.3,0.6c-0.1,0-0.8,0-0.8-0.7c0-0.2,0.1-0.5,0.1-0.7l0.8-3.6h-1L159,236.9z"
	/>
<path fill="#FFFFFF" d="M164.5,239.3h1l0.6-2.7c0.2-0.8,0.4-1.4,0.7-1.7c0.3-0.4,0.9-0.7,1.5-0.7c0.3,0,0.8,0.1,0.8,0.6
	c0,0.2,0,0.4-0.1,0.8l-0.8,3.6h1l0.7-3.5c0.1-0.3,0.1-0.7,0.1-1c0-1.2-1.1-1.4-1.5-1.4c-1,0-1.7,0.8-2.1,1.1l0,0l0.2-1h-0.9
	L164.5,239.3z"/>
<path fill="#FFFFFF" d="M172.9,238.5c-0.2,0-0.4,0.1-0.6,0.1c-0.3,0-0.4-0.1-0.4-0.4c0-0.1,0-0.3,0.1-0.7l0.7-3.1h1l0.2-0.7h-1
	l0.4-2.1l-1.1,0.7l-0.3,1.4h-0.8l-0.2,0.7h0.8l-0.7,3.3c-0.1,0.5-0.1,0.7-0.1,0.9c0,0.7,0.7,0.9,1.2,0.9c0.1,0,0.4,0,0.7-0.1
	L172.9,238.5z"/>
<path fill="#FFFFFF" d="M175.3,235.3c0.3-0.8,0.9-1,1.6-1c0.3,0,1.2,0,1.2,0.8c0,0.1,0,0.4-0.1,0.7c-0.4,0.2-0.8,0.2-1.6,0.2
	c-0.6,0-2.6,0.1-2.6,1.8c0,1.1,0.8,1.7,1.8,1.7c1,0,1.7-0.6,2-0.8c0,0.1,0,0.4,0.1,0.7h1c0,0,0-0.1,0-0.1c-0.1-0.3-0.1-0.5-0.1-0.7
	c0-0.4,0.1-0.7,0.1-1.1l0.3-1.4c0.1-0.6,0.1-1,0.1-1.1c0-0.9-1-1.5-2.2-1.5c-0.6,0-1.6,0.1-2.2,1c-0.2,0.3-0.3,0.5-0.4,0.7
	L175.3,235.3z M177.8,236.4c-0.1,0.6-0.2,1-0.5,1.4c-0.4,0.5-1,0.8-1.6,0.8c-0.8,0-1.1-0.5-1.1-0.9c0-0.9,1-1,1.6-1.1
	C177.2,236.6,177.5,236.6,177.8,236.4z"/>
<path fill="#FFFFFF" d="M189,236.6c-0.2,0.6-0.9,2-2.4,2c-0.8,0-2.1-0.4-2.1-2.5c0-1.9,1.1-3.9,3.1-3.9c1.5,0,1.8,1.3,1.9,1.7l1-0.1
	c-0.2-2.1-2-2.5-2.9-2.5c-2.5,0-4.1,2.1-4.1,4.8c0,2.4,1.4,3.4,3.1,3.4c1.7,0,3-1.1,3.6-2.8L189,236.6z"/>
<path fill="#FFFFFF" d="M192.2,235.3c0.3-0.8,0.9-1,1.6-1c0.3,0,1.2,0,1.2,0.8c0,0.1,0,0.4-0.1,0.7c-0.4,0.2-0.8,0.2-1.6,0.2
	c-0.6,0-2.6,0.1-2.6,1.8c0,1.1,0.8,1.7,1.8,1.7c1,0,1.7-0.6,2-0.8c0,0.1,0,0.4,0.1,0.7h1c0,0,0-0.1,0-0.1c-0.1-0.3-0.1-0.5-0.1-0.7
	c0-0.4,0.1-0.7,0.1-1.1l0.3-1.4c0.1-0.6,0.1-1,0.1-1.1c0-0.9-1-1.5-2.2-1.5c-0.6,0-1.6,0.1-2.2,1c-0.2,0.3-0.3,0.5-0.4,0.7
	L192.2,235.3z M194.8,236.4c-0.1,0.6-0.2,1-0.5,1.4c-0.4,0.5-1,0.8-1.6,0.8c-0.8,0-1.1-0.5-1.1-0.9c0-0.9,1-1,1.6-1.1
	C194.2,236.6,194.4,236.6,194.8,236.4z"/>
<path fill="#FFFFFF" d="M196.6,239.3h1l0.6-2.7c0.2-0.8,0.4-1.4,0.7-1.7c0.3-0.4,0.9-0.7,1.5-0.7c0.3,0,0.8,0.1,0.8,0.6
	c0,0.2,0,0.4-0.1,0.8l-0.8,3.6h1l0.7-3.5c0.1-0.3,0.1-0.7,0.1-1c0-1.2-1.1-1.4-1.5-1.4c-1,0-1.7,0.8-2.1,1.1l0,0l0.2-1h-0.9
	L196.6,239.3z"/>
<path fill="#FFFFFF" d="M205,238.5c-0.2,0-0.4,0.1-0.6,0.1c-0.3,0-0.4-0.1-0.4-0.4c0-0.1,0-0.3,0.1-0.7l0.7-3.1h1l0.2-0.7h-1
	l0.4-2.1l-1.1,0.7l-0.3,1.4h-0.8l-0.2,0.7h0.8l-0.7,3.3c-0.1,0.5-0.1,0.7-0.1,0.9c0,0.7,0.7,0.9,1.2,0.9c0.1,0,0.4,0,0.7-0.1
	L205,238.5z"/>
<path fill="#FFFFFF" d="M205.6,239.3h1l1.2-5.7h-1L205.6,239.3z M207.1,232.6h1l0.2-1.1h-1L207.1,232.6z"/>
<path fill="#FFFFFF" d="M208.1,237.4c-0.1,1.9,1.8,2.1,2.3,2.1c1.6,0,2.3-0.9,2.3-1.7c0-1-0.8-1.4-1.9-1.8c-0.7-0.3-1.1-0.5-1.1-0.9
	c0-0.3,0.4-0.7,1.1-0.7c0.2,0,1.3,0,1.3,1.1l1-0.1c0-1.5-1.4-1.8-2.2-1.8c-1.5,0-2,1-2,1.6c0,0.9,0.7,1.2,1.7,1.7
	c0.7,0.3,1.2,0.5,1.2,1c0,0.6-0.6,0.9-1.3,0.9c-1.4,0-1.4-1.1-1.4-1.4L208.1,237.4z"/>
<path fill="#FFFFFF" d="M215.2,235.3c0.3-0.8,0.9-1,1.6-1c0.3,0,1.2,0,1.2,0.8c0,0.1,0,0.4-0.1,0.7c-0.4,0.2-0.8,0.2-1.6,0.2
	c-0.6,0-2.6,0.1-2.6,1.8c0,1.1,0.8,1.7,1.8,1.7c1,0,1.7-0.6,2-0.8c0,0.1,0,0.4,0.1,0.7h1c0,0,0-0.1,0-0.1c-0.1-0.3-0.1-0.5-0.1-0.7
	c0-0.4,0.1-0.7,0.1-1.1l0.3-1.4c0.1-0.6,0.1-1,0.1-1.1c0-0.9-1-1.5-2.2-1.5c-0.6,0-1.6,0.1-2.2,1c-0.2,0.3-0.3,0.5-0.4,0.7
	L215.2,235.3z M217.7,236.4c-0.1,0.6-0.2,1-0.5,1.4c-0.4,0.5-1,0.8-1.6,0.8c-0.8,0-1.1-0.5-1.1-0.9c0-0.9,1-1,1.6-1.1
	C217.1,236.6,217.4,236.6,217.7,236.4z"/>
<path fill="#FFFFFF" d="M219.6,239.3h1l0.6-2.7c0.2-0.8,0.4-1.4,0.7-1.7c0.3-0.4,0.9-0.7,1.5-0.7c0.3,0,0.8,0.1,0.8,0.6
	c0,0.2,0,0.4-0.1,0.8l-0.8,3.6h1l0.7-3.5c0.1-0.3,0.1-0.7,0.1-1c0-1.2-1.1-1.4-1.5-1.4c-1,0-1.7,0.8-2.1,1.1l0,0l0.2-1h-0.9
	L219.6,239.3z"/>
<path fill="#FFFFFF" d="M225.8,237.2c0,1.5,1.1,2.3,2.3,2.3c1.7,0,3.1-1.5,3.1-3.6c0-1.5-0.9-2.4-2.3-2.4
	C227,233.5,225.8,235.2,225.8,237.2z M226.8,237.1c0-1.2,0.7-2.8,2.1-2.8c0.9,0,1.4,0.8,1.4,1.6c0,1.2-0.8,2.8-2.1,2.8
	C227.9,238.7,226.8,238.6,226.8,237.1z"/>
</svg>
