<?xml version="1.0" encoding="utf-8"?>
<!-- Generator: Adobe Illustrator 18.1.1, SVG Export Plug-In . SVG Version: 6.00 Build 0)  -->
<svg version="1.1" id="Layer_1" xmlns="http://www.w3.org/2000/svg" xmlns:xlink="http://www.w3.org/1999/xlink" x="0px" y="0px"
	 width="300px" height="250px" viewBox="0 0 300 250" enable-background="new 0 0 300 250" xml:space="preserve">
<path fill="#FFFFFF" d="M195.7,232.6h5.5v-1h-4.3v-8.3h-1.2V232.6z"/>
<path fill="#FFFFFF" d="M205.5,232.8c0.6,0,1.1-0.1,1.5-0.3c0.4-0.2,0.8-0.4,1.2-0.8l-0.5-0.7c-0.3,0.3-0.6,0.5-1,0.6
	c-0.4,0.1-0.7,0.2-1.1,0.2c-0.4,0-0.7-0.1-1-0.2c-0.3-0.1-0.5-0.3-0.7-0.5c-0.2-0.2-0.4-0.5-0.5-0.7c-0.1-0.3-0.2-0.6-0.2-0.9h5.5
	v-0.3c0-0.5-0.1-1-0.2-1.4c-0.1-0.4-0.4-0.8-0.6-1.2c-0.3-0.3-0.6-0.6-1-0.8c-0.4-0.2-0.9-0.3-1.4-0.3c-0.5,0-0.9,0.1-1.3,0.3
	c-0.4,0.2-0.8,0.4-1.1,0.8c-0.3,0.3-0.5,0.7-0.7,1.1c-0.2,0.4-0.3,0.9-0.3,1.4c0,0.5,0.1,1,0.3,1.4c0.2,0.4,0.4,0.8,0.7,1.1
	c0.3,0.3,0.7,0.6,1.1,0.7C204.6,232.7,205,232.8,205.5,232.8z M207.6,228.8h-4.4c0-0.3,0.1-0.5,0.2-0.8c0.1-0.3,0.2-0.5,0.4-0.7
	c0.2-0.2,0.4-0.4,0.7-0.5c0.3-0.1,0.6-0.2,1-0.2c0.4,0,0.7,0.1,1,0.2c0.3,0.1,0.5,0.3,0.7,0.5c0.2,0.2,0.3,0.5,0.4,0.7
	C207.6,228.3,207.6,228.6,207.6,228.8z"/>
<path fill="#FFFFFF" d="M214.6,232.6h1.1V228c0-0.4-0.1-0.8-0.2-1.1c-0.1-0.3-0.3-0.5-0.6-0.7c-0.2-0.2-0.5-0.3-0.8-0.4
	c-0.3-0.1-0.7-0.1-1-0.1c-1.1,0-2,0.4-2.7,1.1l0.5,0.7c0.6-0.6,1.3-0.9,2.1-0.9c0.5,0,0.9,0.1,1.2,0.4c0.3,0.2,0.5,0.6,0.5,1.1v1.2
	c-0.3-0.3-0.6-0.6-1-0.7c-0.4-0.1-0.8-0.2-1.3-0.2c-0.3,0-0.6,0-0.9,0.1c-0.3,0.1-0.5,0.2-0.8,0.4c-0.2,0.2-0.4,0.4-0.5,0.7
	c-0.1,0.3-0.2,0.6-0.2,1c0,0.4,0.1,0.7,0.2,1c0.1,0.3,0.3,0.5,0.5,0.7c0.2,0.2,0.5,0.3,0.8,0.4c0.3,0.1,0.6,0.1,0.9,0.1
	c0.9,0,1.7-0.3,2.2-0.9V232.6z M212.7,232c-0.5,0-0.9-0.1-1.2-0.4c-0.3-0.3-0.5-0.6-0.5-1.1c0-0.4,0.2-0.8,0.5-1.1
	c0.3-0.3,0.7-0.4,1.2-0.4c0.4,0,0.7,0.1,1.1,0.2s0.6,0.4,0.8,0.6v1.3c-0.2,0.3-0.5,0.5-0.8,0.6C213.5,232,213.1,232,212.7,232z"/>
<path fill="#FFFFFF" d="M217.7,232.6h1.1v-4.8c0.1-0.1,0.2-0.3,0.3-0.4s0.3-0.2,0.5-0.3c0.2-0.1,0.4-0.2,0.5-0.2s0.4-0.1,0.5-0.1
	c0.1,0,0.3,0,0.4,0v-1.1c-0.5,0-0.9,0.1-1.3,0.4c-0.4,0.2-0.7,0.5-1,0.9v-1.1h-1.1V232.6z"/>
<path fill="#FFFFFF" d="M226.9,232.6h1.1v-4.7c0-1.5-0.7-2.2-2.2-2.2c-0.3,0-0.5,0-0.7,0.1c-0.2,0.1-0.5,0.2-0.7,0.3
	c-0.2,0.1-0.4,0.2-0.6,0.4c-0.2,0.1-0.3,0.3-0.4,0.4v-1h-1.1v6.8h1.1v-4.9c0.1-0.1,0.2-0.3,0.4-0.4c0.1-0.1,0.3-0.2,0.5-0.3
	c0.2-0.1,0.4-0.2,0.6-0.2c0.2-0.1,0.4-0.1,0.6-0.1c0.5,0,0.8,0.1,1.1,0.3c0.3,0.2,0.4,0.6,0.4,1.2V232.6z"/>
<path fill="#FFFFFF" d="M241.7,232.6h1.2v-9.3h-1.7l-2.9,7l-2.9-7h-1.7v9.3h1.2v-7.7l3.2,7.7h0.5l3.2-7.7V232.6z"/>
<path fill="#FFFFFF" d="M248,232.8c0.5,0,1-0.1,1.4-0.3c0.4-0.2,0.8-0.4,1.1-0.8c0.3-0.3,0.5-0.7,0.7-1.1c0.2-0.4,0.2-0.9,0.2-1.4
	c0-0.5-0.1-0.9-0.2-1.4c-0.2-0.4-0.4-0.8-0.7-1.1c-0.3-0.3-0.6-0.6-1.1-0.8c-0.4-0.2-0.9-0.3-1.4-0.3s-1,0.1-1.4,0.3
	c-0.4,0.2-0.8,0.4-1.1,0.8c-0.3,0.3-0.5,0.7-0.7,1.1c-0.2,0.4-0.2,0.9-0.2,1.4c0,0.5,0.1,1,0.2,1.4c0.2,0.4,0.4,0.8,0.7,1.1
	c0.3,0.3,0.6,0.6,1.1,0.8C247,232.7,247.5,232.8,248,232.8z M248,231.9c-0.4,0-0.7-0.1-1-0.2c-0.3-0.1-0.5-0.3-0.7-0.6
	c-0.2-0.2-0.3-0.5-0.4-0.8c-0.1-0.3-0.1-0.6-0.1-1c0-0.3,0-0.7,0.1-1c0.1-0.3,0.2-0.6,0.4-0.8c0.2-0.2,0.4-0.4,0.7-0.6
	c0.3-0.1,0.6-0.2,1-0.2s0.7,0.1,1,0.2c0.3,0.1,0.5,0.3,0.7,0.6s0.3,0.5,0.4,0.8c0.1,0.3,0.1,0.6,0.1,1c0,0.3,0,0.7-0.1,1
	c-0.1,0.3-0.2,0.6-0.4,0.8c-0.2,0.2-0.4,0.4-0.7,0.6C248.7,231.8,248.3,231.9,248,231.9z"/>
<path fill="#FFFFFF" d="M253,232.6h1.1v-4.8c0.1-0.1,0.2-0.3,0.3-0.4c0.1-0.1,0.3-0.2,0.5-0.3c0.2-0.1,0.4-0.2,0.5-0.2
	c0.2-0.1,0.4-0.1,0.5-0.1c0.1,0,0.3,0,0.4,0v-1.1c-0.5,0-0.9,0.1-1.3,0.4c-0.4,0.2-0.7,0.5-1,0.9v-1.1H253V232.6z"/>
<path fill="#FFFFFF" d="M260.7,232.8c0.6,0,1.1-0.1,1.5-0.3c0.4-0.2,0.8-0.4,1.2-0.8l-0.5-0.7c-0.3,0.3-0.6,0.5-1,0.6
	s-0.7,0.2-1.1,0.2c-0.4,0-0.7-0.1-1-0.2c-0.3-0.1-0.5-0.3-0.7-0.5c-0.2-0.2-0.4-0.5-0.5-0.7c-0.1-0.3-0.2-0.6-0.2-0.9h5.5v-0.3
	c0-0.5-0.1-1-0.2-1.4c-0.1-0.4-0.4-0.8-0.6-1.2c-0.3-0.3-0.6-0.6-1-0.8c-0.4-0.2-0.9-0.3-1.4-0.3c-0.5,0-0.9,0.1-1.3,0.3
	c-0.4,0.2-0.8,0.4-1.1,0.8c-0.3,0.3-0.5,0.7-0.7,1.1c-0.2,0.4-0.3,0.9-0.3,1.4c0,0.5,0.1,1,0.3,1.4c0.2,0.4,0.4,0.8,0.7,1.1
	c0.3,0.3,0.7,0.6,1.1,0.7C259.7,232.7,260.2,232.8,260.7,232.8z M262.8,228.8h-4.4c0-0.3,0.1-0.5,0.2-0.8c0.1-0.3,0.2-0.5,0.4-0.7
	c0.2-0.2,0.4-0.4,0.7-0.5c0.3-0.1,0.6-0.2,1-0.2c0.4,0,0.7,0.1,1,0.2c0.3,0.1,0.5,0.3,0.7,0.5c0.2,0.2,0.3,0.5,0.4,0.7
	C262.8,228.3,262.8,228.6,262.8,228.8z"/>
<g>
	<defs>
		<polygon id="SVGID_1_" points="270.4,234 269.5,233.1 273.6,229 269.5,224.9 270.4,224 275.3,229 		"/>
	</defs>
	<use xlink:href="#SVGID_1_"  overflow="visible" fill="#FFFFFF"/>
	<clipPath id="SVGID_2_">
		<use xlink:href="#SVGID_1_"  overflow="visible"/>
	</clipPath>
	<g clip-path="url(#SVGID_2_)">
		<defs>
			<rect id="SVGID_3_" x="-4.5" y="1" width="300" height="250"/>
		</defs>
		<use xlink:href="#SVGID_3_"  overflow="visible" fill="#FFFFFF"/>
		<clipPath id="SVGID_4_">
			<use xlink:href="#SVGID_3_"  overflow="visible"/>
		</clipPath>
		<rect x="264.5" y="219" clip-path="url(#SVGID_4_)" fill="#FFFFFF" width="15.8" height="20"/>
	</g>
</g>
</svg>
