<?xml version="1.0" encoding="utf-8"?>
<!-- Generator: Adobe Illustrator 18.1.1, SVG Export Plug-In . SVG Version: 6.00 Build 0)  -->
<svg version="1.1" id="Layer_1" xmlns="http://www.w3.org/2000/svg" xmlns:xlink="http://www.w3.org/1999/xlink" x="0px" y="0px"
	 viewBox="0 0 121 34" enable-background="new 0 0 121 34" xml:space="preserve">
<g>
	<defs>
		<path id="SVGID_1_" d="M10.6,0L10.6,0C7.2,0,3.8,1.3,1.5,3.7C2,4.1,2.9,4.2,3.5,3.8c2-1.5,4.4-2.4,7.1-2.4c2.4,0,4.7,0.7,6.6,2.1
			l0,0l0.1,0.1c0.7,0.6,1.7,0.6,2.4,0C17.3,1.3,14.1,0,10.6,0"/>
	</defs>
	<use xlink:href="#SVGID_1_"  overflow="visible" fill-rule="evenodd" clip-rule="evenodd" fill="#FFFFFF"/>
	<clipPath id="SVGID_2_">
		<use xlink:href="#SVGID_1_"  overflow="visible"/>
	</clipPath>
	<g clip-path="url(#SVGID_2_)">
		<defs>
			<rect id="SVGID_3_" x="-153" y="-39" width="300" height="250"/>
		</defs>
		<use xlink:href="#SVGID_3_"  overflow="visible" fill="#FFFFFF"/>
		<clipPath id="SVGID_4_">
			<use xlink:href="#SVGID_3_"  overflow="visible"/>
		</clipPath>
		<rect x="-3.5" y="-5" clip-path="url(#SVGID_4_)" fill="#FFFFFF" width="28.3" height="14.1"/>
	</g>
</g>
<g>
	<defs>
		<path id="SVGID_5_" d="M10.6,3.8L10.6,3.8c-2.5,0-4.7,0.9-6.4,2.5c0.5,0.5,1.3,0.6,2,0.3C7.5,5.7,9,5.3,10.6,5.3h0
			c1.4,0,2.7,0.3,3.9,1l0,0l0.1,0.1c0,0,0.1,0,0.1,0.1l0.1,0c0.1,0,0.2,0.1,0.2,0.1c0.6,0.3,1.5,0.2,2-0.3C15.4,4.7,13,3.8,10.6,3.8
			"/>
	</defs>
	<use xlink:href="#SVGID_5_"  overflow="visible" fill-rule="evenodd" clip-rule="evenodd" fill="#FFFFFF"/>
	<clipPath id="SVGID_6_">
		<use xlink:href="#SVGID_5_"  overflow="visible"/>
	</clipPath>
	<g clip-path="url(#SVGID_6_)">
		<defs>
			<rect id="SVGID_7_" x="-153" y="-39" width="300" height="250"/>
		</defs>
		<use xlink:href="#SVGID_7_"  overflow="visible" fill="#FFFFFF"/>
		<clipPath id="SVGID_8_">
			<use xlink:href="#SVGID_7_"  overflow="visible"/>
		</clipPath>
		<rect x="-0.8" y="-1.2" clip-path="url(#SVGID_8_)" fill="#FFFFFF" width="22.8" height="13"/>
	</g>
</g>
<g>
	<defs>
		<path id="SVGID_9_" d="M12,7.7C10.8,7.5,9.7,7.5,8.6,8C7.9,8.2,7.4,8.6,6.9,9l0.1,0.1c0.2,0.2,1,0.8,2,0.3l0.1-0.1l0,0
			c0.5-0.2,1-0.3,1.5-0.3h0c0.5,0,1.1,0.1,1.5,0.3l0,0l0.1,0.1c0.9,0.4,1.6,0,1.9-0.2L14.3,9C13.7,8.4,12.9,8,12,7.7"/>
	</defs>
	<use xlink:href="#SVGID_9_"  overflow="visible" fill-rule="evenodd" clip-rule="evenodd" fill="#FFFFFF"/>
	<clipPath id="SVGID_10_">
		<use xlink:href="#SVGID_9_"  overflow="visible"/>
	</clipPath>
	<g clip-path="url(#SVGID_10_)">
		<defs>
			<rect id="SVGID_11_" x="-153" y="-39" width="300" height="250"/>
		</defs>
		<use xlink:href="#SVGID_11_"  overflow="visible" fill="#FFFFFF"/>
		<clipPath id="SVGID_12_">
			<use xlink:href="#SVGID_11_"  overflow="visible"/>
		</clipPath>
		<rect x="1.9" y="2.6" clip-path="url(#SVGID_12_)" fill="#FFFFFF" width="17.5" height="12"/>
	</g>
</g>
<g>
	<defs>
		<path id="SVGID_13_" d="M20.9,23.7L20.9,23.7c0,5.6-4.6,10.2-10.3,10.2c-5.7,0-10.3-4.6-10.3-10.2L0.2,9.8c2.2,0,4,1.8,4,3.9v10
			c0,3.5,2.9,6.4,6.4,6.4c3.6,0,6.4-2.9,6.4-6.4h0v-10c0-2.2,1.8-3.9,4-3.9L20.9,23.7z"/>
	</defs>
	<use xlink:href="#SVGID_13_"  overflow="visible" fill-rule="evenodd" clip-rule="evenodd" fill="#FFFFFF"/>
	<clipPath id="SVGID_14_">
		<use xlink:href="#SVGID_13_"  overflow="visible"/>
	</clipPath>
	<g clip-path="url(#SVGID_14_)">
		<defs>
			<rect id="SVGID_15_" x="-153" y="-39" width="300" height="250"/>
		</defs>
		<use xlink:href="#SVGID_15_"  overflow="visible" fill="#FFFFFF"/>
		<clipPath id="SVGID_16_">
			<use xlink:href="#SVGID_15_"  overflow="visible"/>
		</clipPath>
		<rect x="-4.8" y="4.8" clip-path="url(#SVGID_16_)" fill="#FFFFFF" width="30.8" height="34"/>
	</g>
</g>
<g>
	<defs>
		<rect id="SVGID_17_" x="52.3" y="12.7" width="10.6" height="14.2"/>
	</defs>
	<clipPath id="SVGID_18_">
		<use xlink:href="#SVGID_17_"  overflow="visible"/>
	</clipPath>
	<g clip-path="url(#SVGID_18_)">
		<defs>
			<rect id="SVGID_19_" x="-153" y="-39" width="300" height="250"/>
		</defs>
		<clipPath id="SVGID_20_">
			<use xlink:href="#SVGID_19_"  overflow="visible"/>
		</clipPath>
		<g clip-path="url(#SVGID_20_)" enable-background="new    ">
			<g>
				<defs>
					<rect id="SVGID_21_" x="52" y="12" width="11" height="15"/>
				</defs>
				<clipPath id="SVGID_22_">
					<use xlink:href="#SVGID_21_"  overflow="visible"/>
				</clipPath>
				<g clip-path="url(#SVGID_22_)">
					<defs>
						<path id="SVGID_23_" d="M60,24c-0.6,0.7-1.5,1.1-2.5,1.1c-1,0-1.9-0.4-2.5-1.1c-0.6-0.7-1-1.6-1-2.6v-5.9l5.7,3
							c0.8,0.5,1.4,1.8,1.4,2.8C61.1,22.5,60.7,23.4,60,24 M60.9,17.3l-8.7-4.6v8.7c0,1.5,0.6,2.9,1.5,3.9c1,1,2.3,1.6,3.7,1.6
							c1.5,0,2.8-0.6,3.7-1.6c1-1,1.5-2.4,1.5-3.9C62.8,19.9,62.1,18,60.9,17.3"/>
					</defs>
					<clipPath id="SVGID_24_">
						<use xlink:href="#SVGID_23_"  overflow="visible"/>
					</clipPath>
					<g clip-path="url(#SVGID_24_)">
						<defs>
							<rect id="SVGID_25_" x="52" y="12" width="11" height="15"/>
						</defs>
						<clipPath id="SVGID_26_">
							<use xlink:href="#SVGID_25_"  overflow="visible"/>
						</clipPath>
						<rect x="47.3" y="7.7" clip-path="url(#SVGID_26_)" fill="#FFFFFF" width="20.6" height="24.2"/>
					</g>
				</g>
			</g>
		</g>
	</g>
</g>
<g>
	<defs>
		<rect id="SVGID_27_" x="57.2" y="12.7" width="10.6" height="14.2"/>
	</defs>
	<clipPath id="SVGID_28_">
		<use xlink:href="#SVGID_27_"  overflow="visible"/>
	</clipPath>
	<g clip-path="url(#SVGID_28_)">
		<defs>
			<rect id="SVGID_29_" x="-153" y="-39" width="300" height="250"/>
		</defs>
		<clipPath id="SVGID_30_">
			<use xlink:href="#SVGID_29_"  overflow="visible"/>
		</clipPath>
		<g clip-path="url(#SVGID_30_)" enable-background="new    ">
			<g>
				<defs>
					<rect id="SVGID_31_" x="57" y="12" width="11" height="15"/>
				</defs>
				<clipPath id="SVGID_32_">
					<use xlink:href="#SVGID_31_"  overflow="visible"/>
				</clipPath>
				<g clip-path="url(#SVGID_32_)">
					<defs>
						<path id="SVGID_33_" d="M58.9,21.4c0-1,0.6-2.3,1.4-2.8l5.7-3v5.9c0,1-0.4,1.9-1,2.6c-0.6,0.7-1.5,1.1-2.5,1.1
							c-1,0-1.9-0.4-2.5-1.1C59.3,23.4,58.9,22.5,58.9,21.4 M57.2,21.4c0,1.5,0.6,2.9,1.5,3.9c1,1,2.3,1.6,3.7,1.6
							c1.5,0,2.8-0.6,3.7-1.6c1-1,1.5-2.4,1.5-3.9v-8.7l-8.7,4.6C57.9,18,57.2,19.9,57.2,21.4"/>
					</defs>
					<clipPath id="SVGID_34_">
						<use xlink:href="#SVGID_33_"  overflow="visible"/>
					</clipPath>
					<g clip-path="url(#SVGID_34_)">
						<defs>
							<rect id="SVGID_35_" x="57" y="12" width="11" height="15"/>
						</defs>
						<clipPath id="SVGID_36_">
							<use xlink:href="#SVGID_35_"  overflow="visible"/>
						</clipPath>
						<rect x="52.2" y="7.7" clip-path="url(#SVGID_36_)" fill="#FFFFFF" width="20.6" height="24.2"/>
					</g>
				</g>
			</g>
		</g>
	</g>
</g>
<g>
	<defs>
		<polygon id="SVGID_37_" points="79.8,25.1 79.8,19.6 79.7,19.6 77.7,22.8 76.6,22.8 74.5,19.6 74.5,19.6 74.5,25.1 72,25.1 
			72,15.6 74.2,15.6 77.1,19.9 77.2,19.9 80,15.6 82.3,15.6 82.3,25.1 		"/>
	</defs>
	<use xlink:href="#SVGID_37_"  overflow="visible" fill-rule="evenodd" clip-rule="evenodd" fill="#FFFFFF"/>
	<clipPath id="SVGID_38_">
		<use xlink:href="#SVGID_37_"  overflow="visible"/>
	</clipPath>
	<g clip-path="url(#SVGID_38_)">
		<defs>
			<rect id="SVGID_39_" x="-153" y="-39" width="300" height="250"/>
		</defs>
		<use xlink:href="#SVGID_39_"  overflow="visible" fill="#FFFFFF"/>
		<clipPath id="SVGID_40_">
			<use xlink:href="#SVGID_39_"  overflow="visible"/>
		</clipPath>
		<rect x="67" y="10.6" clip-path="url(#SVGID_40_)" fill="#FFFFFF" width="20.3" height="19.6"/>
	</g>
</g>
<g>
	<defs>
		<path id="SVGID_41_" d="M88.8,17.4c-1.4,0-2.3,1.1-2.3,2.9c0,1.8,0.9,2.9,2.3,2.9c1.4,0,2.2-1.1,2.2-2.9
			C91,18.6,90.2,17.4,88.8,17.4 M92.1,24.2c-0.8,0.7-2,1.2-3.3,1.2c-1.3,0-2.4-0.4-3.3-1.1c-1-0.9-1.6-2.2-1.6-3.9
			c0-1.6,0.6-2.9,1.6-3.8c0.8-0.7,2-1.2,3.3-1.2c1.4,0,2.6,0.5,3.4,1.2c0.9,0.9,1.4,2.2,1.4,3.7C93.7,22,93.1,23.3,92.1,24.2"/>
	</defs>
	<use xlink:href="#SVGID_41_"  overflow="visible" fill-rule="evenodd" clip-rule="evenodd" fill="#FFFFFF"/>
	<clipPath id="SVGID_42_">
		<use xlink:href="#SVGID_41_"  overflow="visible"/>
	</clipPath>
	<g clip-path="url(#SVGID_42_)">
		<defs>
			<rect id="SVGID_43_" x="-153" y="-39" width="300" height="250"/>
		</defs>
		<use xlink:href="#SVGID_43_"  overflow="visible" fill="#FFFFFF"/>
		<clipPath id="SVGID_44_">
			<use xlink:href="#SVGID_43_"  overflow="visible"/>
		</clipPath>
		<rect x="78.9" y="10.4" clip-path="url(#SVGID_44_)" fill="#FFFFFF" width="19.7" height="19.9"/>
	</g>
</g>
<g>
	<defs>
		<polygon id="SVGID_45_" points="101,17.5 97.9,17.5 97.9,19.3 101,19.3 101,21.2 97.9,21.2 97.9,23.2 101.5,23.2 101.5,25.1 
			95.4,25.1 95.4,15.6 101.6,15.6 		"/>
	</defs>
	<use xlink:href="#SVGID_45_"  overflow="visible" fill-rule="evenodd" clip-rule="evenodd" fill="#FFFFFF"/>
	<clipPath id="SVGID_46_">
		<use xlink:href="#SVGID_45_"  overflow="visible"/>
	</clipPath>
	<g clip-path="url(#SVGID_46_)">
		<defs>
			<rect id="SVGID_47_" x="-153" y="-39" width="300" height="250"/>
		</defs>
		<use xlink:href="#SVGID_47_"  overflow="visible" fill="#FFFFFF"/>
		<clipPath id="SVGID_48_">
			<use xlink:href="#SVGID_47_"  overflow="visible"/>
		</clipPath>
		<rect x="90.4" y="10.6" clip-path="url(#SVGID_48_)" fill="#FFFFFF" width="16.3" height="19.6"/>
	</g>
</g>
<g>
	<defs>
		<polygon id="SVGID_49_" points="110.5,25.1 106.2,19.2 106.1,19.2 106.1,25.1 103.6,25.1 103.6,15.6 106.1,15.6 110.3,21.3 
			110.3,21.3 110.3,15.6 112.8,15.6 112.8,25.1 		"/>
	</defs>
	<use xlink:href="#SVGID_49_"  overflow="visible" fill-rule="evenodd" clip-rule="evenodd" fill="#FFFFFF"/>
	<clipPath id="SVGID_50_">
		<use xlink:href="#SVGID_49_"  overflow="visible"/>
	</clipPath>
	<g clip-path="url(#SVGID_50_)">
		<defs>
			<rect id="SVGID_51_" x="-153" y="-39" width="300" height="250"/>
		</defs>
		<use xlink:href="#SVGID_51_"  overflow="visible" fill="#FFFFFF"/>
		<clipPath id="SVGID_52_">
			<use xlink:href="#SVGID_51_"  overflow="visible"/>
		</clipPath>
		<rect x="98.6" y="10.6" clip-path="url(#SVGID_52_)" fill="#FFFFFF" width="19.2" height="19.6"/>
	</g>
</g>
<g>
	<defs>
		<path id="SVGID_53_" d="M37.7,21.9c0,0.3,0,0.6-0.1,0.8c-0.1,0.2-0.2,0.4-0.4,0.6c-0.2,0.2-0.4,0.3-0.6,0.4
			c-0.2,0.1-0.5,0.1-0.8,0.1H33v-6.8h2.6c0.6,0,1.1,0.2,1.5,0.5c0.4,0.3,0.5,0.8,0.5,1.4c0,0.2,0,0.4-0.1,0.5
			c-0.1,0.2-0.1,0.3-0.2,0.4c-0.1,0.1-0.2,0.2-0.3,0.3c-0.1,0.1-0.2,0.1-0.3,0.2c0.1,0.1,0.2,0.1,0.3,0.2c0.1,0.1,0.2,0.2,0.3,0.3
			c0.1,0.1,0.2,0.3,0.2,0.4C37.7,21.5,37.7,21.7,37.7,21.9 M36.4,19.1c0-0.2-0.1-0.4-0.2-0.6c-0.1-0.1-0.4-0.2-0.6-0.2h-1.2v1.6h1.2
			c0.3,0,0.5-0.1,0.6-0.2C36.3,19.5,36.4,19.3,36.4,19.1 M36.5,21.9c0-0.2-0.1-0.4-0.2-0.6c-0.1-0.2-0.4-0.2-0.6-0.2h-1.3v1.7h1.3
			c0.3,0,0.5-0.1,0.6-0.2C36.4,22.3,36.5,22.1,36.5,21.9"/>
	</defs>
	<use xlink:href="#SVGID_53_"  overflow="visible" fill-rule="evenodd" clip-rule="evenodd" fill="#FFFFFF"/>
	<clipPath id="SVGID_54_">
		<use xlink:href="#SVGID_53_"  overflow="visible"/>
	</clipPath>
	<g clip-path="url(#SVGID_54_)">
		<defs>
			<rect id="SVGID_55_" x="-153" y="-39" width="300" height="250"/>
		</defs>
		<use xlink:href="#SVGID_55_"  overflow="visible" fill="#FFFFFF"/>
		<clipPath id="SVGID_56_">
			<use xlink:href="#SVGID_55_"  overflow="visible"/>
		</clipPath>
		<rect x="28" y="12.1" clip-path="url(#SVGID_56_)" fill="#FFFFFF" width="14.7" height="16.8"/>
	</g>
</g>
<g>
	<defs>
		<polygon id="SVGID_57_" points="41.3,21.1 41.3,23.9 40.1,23.9 40.1,21.1 38.1,17.1 39.5,17.1 40.7,19.8 41.9,17.1 43.3,17.1 		
			"/>
	</defs>
	<use xlink:href="#SVGID_57_"  overflow="visible" fill-rule="evenodd" clip-rule="evenodd" fill="#FFFFFF"/>
	<clipPath id="SVGID_58_">
		<use xlink:href="#SVGID_57_"  overflow="visible"/>
	</clipPath>
	<g clip-path="url(#SVGID_58_)">
		<defs>
			<rect id="SVGID_59_" x="-153" y="-39" width="300" height="250"/>
		</defs>
		<use xlink:href="#SVGID_59_"  overflow="visible" fill="#FFFFFF"/>
		<clipPath id="SVGID_60_">
			<use xlink:href="#SVGID_59_"  overflow="visible"/>
		</clipPath>
		<rect x="33.1" y="12.1" clip-path="url(#SVGID_60_)" fill="#FFFFFF" width="15.2" height="16.8"/>
	</g>
</g>
<g>
	<defs>
		<rect id="SVGID_61_" x="114.9" y="15.6" width="5.2" height="3.1"/>
	</defs>
	<clipPath id="SVGID_62_">
		<use xlink:href="#SVGID_61_"  overflow="visible"/>
	</clipPath>
	<g clip-path="url(#SVGID_62_)">
		<defs>
			<rect id="SVGID_63_" x="-153" y="-39" width="300" height="250"/>
		</defs>
		<clipPath id="SVGID_64_">
			<use xlink:href="#SVGID_63_"  overflow="visible"/>
		</clipPath>
		<g clip-path="url(#SVGID_64_)" enable-background="new    ">
			<g>
				<defs>
					<rect id="SVGID_65_" x="114" y="15" width="7" height="4"/>
				</defs>
				<clipPath id="SVGID_66_">
					<use xlink:href="#SVGID_65_"  overflow="visible"/>
				</clipPath>
				<g clip-path="url(#SVGID_66_)">
					<defs>
						<path id="SVGID_67_" d="M116.1,16v2.7h-0.4V16h-0.8v-0.4h2.1V16H116.1z M119.7,18.7v-2.3l-0.7,1.5h-0.4l-0.7-1.5v2.3h-0.4
							v-3.1h0.4l0.9,1.9l0.9-1.9h0.4v3.1H119.7z"/>
					</defs>
					<use xlink:href="#SVGID_67_"  overflow="visible" fill-rule="evenodd" clip-rule="evenodd" fill="#FFFFFF"/>
					<clipPath id="SVGID_68_">
						<use xlink:href="#SVGID_67_"  overflow="visible"/>
					</clipPath>
					<g clip-path="url(#SVGID_68_)">
						<defs>
							<rect id="SVGID_69_" x="114" y="15" width="7" height="4"/>
						</defs>
						<use xlink:href="#SVGID_69_"  overflow="visible" fill="#FFFFFF"/>
						<clipPath id="SVGID_70_">
							<use xlink:href="#SVGID_69_"  overflow="visible"/>
						</clipPath>
						<rect x="109.9" y="10.6" clip-path="url(#SVGID_70_)" fill="#FFFFFF" width="15.2" height="13.1"/>
					</g>
				</g>
			</g>
		</g>
	</g>
</g>
</svg>
