<?xml version="1.0" encoding="utf-8"?>
<!-- Generator: Adobe Illustrator 18.1.1, SVG Export Plug-In . SVG Version: 6.00 Build 0)  -->
<svg version="1.1" id="Layer_1" xmlns="http://www.w3.org/2000/svg" xmlns:xlink="http://www.w3.org/1999/xlink" x="0px" y="0px"
	 width="68px" height="16px" viewBox="0 0 68 16" enable-background="new 0 0 68 16" xml:space="preserve">
<g>
	<defs>
		<path id="SVGID_1_" d="M8.7,12.4C8,13.1,7,13.6,5.9,13.6c-1.1,0-2.1-0.4-2.8-1.2c-0.7-0.7-1.2-1.7-1.2-2.8V3.2l6.3,3.3
			c0.9,0.6,1.6,1.9,1.6,3C9.8,10.7,9.4,11.7,8.7,12.4 M9.7,5.1L0,0.1v9.4c0,1.6,0.7,3.1,1.7,4.2c1.1,1.1,2.5,1.7,4.2,1.7
			c1.6,0,3.1-0.7,4.2-1.7c1.1-1.1,1.7-2.6,1.7-4.2C11.8,7.9,11,5.9,9.7,5.1"/>
	</defs>
	<use xlink:href="#SVGID_1_"  overflow="visible" fill-rule="evenodd" clip-rule="evenodd" fill="#FFFFFF"/>
	<clipPath id="SVGID_2_">
		<use xlink:href="#SVGID_1_"  overflow="visible"/>
	</clipPath>
	<g clip-path="url(#SVGID_2_)">
		<defs>
			<rect id="SVGID_3_" x="-20" y="-219" width="300" height="250"/>
		</defs>
		<use xlink:href="#SVGID_3_"  overflow="visible" fill="#FFFFFF"/>
		<clipPath id="SVGID_4_">
			<use xlink:href="#SVGID_3_"  overflow="visible"/>
		</clipPath>
		<rect x="-5" y="-4.9" clip-path="url(#SVGID_4_)" fill="#FFFFFF" width="21.8" height="25.4"/>
	</g>
</g>
<g>
	<defs>
		<path id="SVGID_5_" d="M7.5,9.6c0-1.1,0.7-2.5,1.6-3l6.3-3.3v6.3c0,1.1-0.4,2.1-1.2,2.8c-0.7,0.7-1.7,1.2-2.8,1.2
			c-1.1,0-2.1-0.4-2.8-1.2C7.9,11.7,7.5,10.7,7.5,9.6 M5.5,9.6c0,1.6,0.7,3.1,1.7,4.2c1.1,1.1,2.5,1.7,4.2,1.7
			c1.6,0,3.1-0.7,4.2-1.7c1.1-1.1,1.7-2.6,1.7-4.2V0.1l-9.7,5C6.3,5.9,5.5,7.9,5.5,9.6"/>
	</defs>
	<use xlink:href="#SVGID_5_"  overflow="visible" fill-rule="evenodd" clip-rule="evenodd" fill="#FFFFFF"/>
	<clipPath id="SVGID_6_">
		<use xlink:href="#SVGID_5_"  overflow="visible"/>
	</clipPath>
	<g clip-path="url(#SVGID_6_)">
		<defs>
			<rect id="SVGID_7_" x="-20" y="-219" width="300" height="250"/>
		</defs>
		<use xlink:href="#SVGID_7_"  overflow="visible" fill="#FFFFFF"/>
		<clipPath id="SVGID_8_">
			<use xlink:href="#SVGID_7_"  overflow="visible"/>
		</clipPath>
		<rect x="0.5" y="-4.9" clip-path="url(#SVGID_8_)" fill="#FFFFFF" width="21.8" height="25.4"/>
	</g>
</g>
<g>
	<defs>
		<polygon id="SVGID_9_" points="30.7,13.6 30.7,7.5 30.7,7.5 28.5,11 27.2,11 24.9,7.6 24.9,7.6 24.9,13.6 22.1,13.6 22.1,3.2 
			24.5,3.2 27.8,8 27.8,8 31,3.2 33.5,3.2 33.5,13.6 		"/>
	</defs>
	<use xlink:href="#SVGID_9_"  overflow="visible" fill-rule="evenodd" clip-rule="evenodd" fill="#FFFFFF"/>
	<clipPath id="SVGID_10_">
		<use xlink:href="#SVGID_9_"  overflow="visible"/>
	</clipPath>
	<g clip-path="url(#SVGID_10_)">
		<defs>
			<rect id="SVGID_11_" x="-20" y="-219" width="300" height="250"/>
		</defs>
		<use xlink:href="#SVGID_11_"  overflow="visible" fill="#FFFFFF"/>
		<clipPath id="SVGID_12_">
			<use xlink:href="#SVGID_11_"  overflow="visible"/>
		</clipPath>
		<rect x="17.1" y="-1.8" clip-path="url(#SVGID_12_)" fill="#FFFFFF" width="21.5" height="20.4"/>
	</g>
</g>
<g>
	<defs>
		<path id="SVGID_13_" d="M40.8,5.2c-1.6,0-2.5,1.2-2.5,3.2c0,2,1,3.2,2.5,3.2c1.6,0,2.5-1.2,2.5-3.2C43.3,6.5,42.4,5.2,40.8,5.2
			 M44.5,12.5c-0.9,0.8-2.2,1.3-3.7,1.3c-1.5,0-2.7-0.4-3.6-1.2c-1.1-0.9-1.8-2.4-1.8-4.2c0-1.7,0.6-3.2,1.8-4.1
			C38.1,3.5,39.3,3,40.8,3c1.6,0,2.9,0.5,3.8,1.3c1,1,1.6,2.3,1.6,4C46.2,10.1,45.6,11.6,44.5,12.5"/>
	</defs>
	<use xlink:href="#SVGID_13_"  overflow="visible" fill-rule="evenodd" clip-rule="evenodd" fill="#FFFFFF"/>
	<clipPath id="SVGID_14_">
		<use xlink:href="#SVGID_13_"  overflow="visible"/>
	</clipPath>
	<g clip-path="url(#SVGID_14_)">
		<defs>
			<rect id="SVGID_15_" x="-20" y="-219" width="300" height="250"/>
		</defs>
		<use xlink:href="#SVGID_15_"  overflow="visible" fill="#FFFFFF"/>
		<clipPath id="SVGID_16_">
			<use xlink:href="#SVGID_15_"  overflow="visible"/>
		</clipPath>
		<rect x="30.4" y="-2" clip-path="url(#SVGID_16_)" fill="#FFFFFF" width="20.9" height="20.8"/>
	</g>
</g>
<g>
	<defs>
		<polygon id="SVGID_17_" points="54.4,5.3 50.9,5.3 50.9,7.3 54.4,7.3 54.4,9.3 50.9,9.3 50.9,11.4 54.9,11.4 54.9,13.6 48.1,13.6 
			48.1,3.2 55.1,3.2 		"/>
	</defs>
	<use xlink:href="#SVGID_17_"  overflow="visible" fill-rule="evenodd" clip-rule="evenodd" fill="#FFFFFF"/>
	<clipPath id="SVGID_18_">
		<use xlink:href="#SVGID_17_"  overflow="visible"/>
	</clipPath>
	<g clip-path="url(#SVGID_18_)">
		<defs>
			<rect id="SVGID_19_" x="-20" y="-219" width="300" height="250"/>
		</defs>
		<use xlink:href="#SVGID_19_"  overflow="visible" fill="#FFFFFF"/>
		<clipPath id="SVGID_20_">
			<use xlink:href="#SVGID_19_"  overflow="visible"/>
		</clipPath>
		<rect x="43.1" y="-1.8" clip-path="url(#SVGID_20_)" fill="#FFFFFF" width="17" height="20.4"/>
	</g>
</g>
<g>
	<defs>
		<polygon id="SVGID_21_" points="65,13.6 60.2,7.2 60.1,7.2 60.1,13.6 57.4,13.6 57.4,3.2 60.1,3.2 64.8,9.4 64.8,9.4 64.8,3.2 
			67.6,3.2 67.6,13.6 		"/>
	</defs>
	<use xlink:href="#SVGID_21_"  overflow="visible" fill-rule="evenodd" clip-rule="evenodd" fill="#FFFFFF"/>
	<clipPath id="SVGID_22_">
		<use xlink:href="#SVGID_21_"  overflow="visible"/>
	</clipPath>
	<g clip-path="url(#SVGID_22_)">
		<defs>
			<rect id="SVGID_23_" x="-20" y="-219" width="300" height="250"/>
		</defs>
		<use xlink:href="#SVGID_23_"  overflow="visible" fill="#FFFFFF"/>
		<clipPath id="SVGID_24_">
			<use xlink:href="#SVGID_23_"  overflow="visible"/>
		</clipPath>
		<rect x="52.4" y="-1.8" clip-path="url(#SVGID_24_)" fill="#FFFFFF" width="20.2" height="20.4"/>
	</g>
</g>
</svg>
