<?xml version="1.0" encoding="utf-8"?>
<!-- Generator: Adobe Illustrator 18.1.1, SVG Export Plug-In . SVG Version: 6.00 Build 0)  -->
<svg version="1.1" id="Layer_1" xmlns="http://www.w3.org/2000/svg" xmlns:xlink="http://www.w3.org/1999/xlink" x="0px" y="0px"
	 width="300px" height="250px" viewBox="0 0 300 250" enable-background="new 0 0 300 250" xml:space="preserve">
<path fill="#FFFFFF" d="M35.9,79.9V67.7c0-3.9-2.8-5.6-6.3-5.6c-2.9,0-4.9,1-6.7,2.9l1,1.3c1.6-1.8,3.3-2.6,5.4-2.6
	c2.6,0,4.7,1.4,4.7,4v3.5c-1.5-1.7-3.5-2.5-5.9-2.5c-3,0-6.1,2-6.1,5.8c0,3.7,3.1,5.8,6.1,5.8c2.4,0,4.4-0.8,5.9-2.5v2.1H35.9z
	 M28.8,78.9c-2.9,0-4.8-1.8-4.8-4.3c0-2.5,1.9-4.3,4.8-4.3c2.1,0,4,0.8,5.3,2.4v3.8C32.8,78.1,30.9,78.9,28.8,78.9z"/>
<path fill="#FFFFFF" d="M56.3,80.4c4.4,0,6.5-2.3,6.5-5.1c0-6.7-11-4-11-8.4c0-1.8,1.7-3.2,4.4-3.2c2.3,0,4.2,0.9,5.2,2.3l1-1.3
	c-1.3-1.4-3.2-2.6-6.2-2.6c-3.9,0-6.2,2.2-6.2,4.8c0,6.2,11,3.6,11,8.3c0,2-1.7,3.5-4.6,3.5c-2.4,0-4.5-1.2-5.6-2.6l-1.1,1.4
	C51.3,79.5,53.5,80.4,56.3,80.4z"/>
<path fill="#FFFFFF" d="M75.5,80.4c4.6,0,7.8-3.6,7.8-9.1c0-5.6-3.1-9.1-7.8-9.1c-2.6,0-4.8,1.4-6,3.2v-2.7h-1.9v24h1.9v-9.4
	C70.9,79.1,73.1,80.4,75.5,80.4z M75.2,78.7c-2.4,0-4.7-1.5-5.7-3.2v-8.6c1-1.7,3.3-3.1,5.7-3.1c3.9,0,6.1,3.2,6.1,7.4
	S79.1,78.7,75.2,78.7z"/>
<path fill="#FFFFFF" d="M101,79.9V67.7c0-3.9-2.8-5.6-6.3-5.6c-2.9,0-4.9,1-6.7,2.9l1,1.3c1.6-1.8,3.3-2.6,5.4-2.6
	c2.6,0,4.7,1.4,4.7,4v3.5c-1.5-1.7-3.5-2.5-5.9-2.5c-3,0-6.1,2-6.1,5.8c0,3.7,3.1,5.8,6.1,5.8c2.4,0,4.4-0.8,5.9-2.5v2.1H101z
	 M93.8,78.9c-2.9,0-4.8-1.8-4.8-4.3c0-2.5,1.9-4.3,4.8-4.3c2.1,0,4,0.8,5.3,2.4v3.8C97.9,78.1,95.9,78.9,93.8,78.9z"/>
<path fill="#FFFFFF" d="M123.8,80.4c2.9,0,5.1-1,6.8-2.8l-1-1.2c-1.5,1.6-3.5,2.4-5.7,2.4c-4.1,0-6.6-3.1-6.8-6.9h14.5v-0.5
	c0-5-2.9-9.2-8.2-9.2c-4.8,0-8.4,4.1-8.4,9.1C115.1,76.6,118.7,80.4,123.8,80.4z M129.8,70.4h-12.6c0.1-3,2.2-6.6,6.3-6.6
	C127.8,63.7,129.7,67.4,129.8,70.4z"/>
<path fill="#FFFFFF" d="M141.7,80.4c4.4,0,6.5-2.3,6.5-5.1c0-6.7-11-4-11-8.4c0-1.8,1.7-3.2,4.4-3.2c2.3,0,4.2,0.9,5.2,2.3l1-1.3
	c-1.3-1.4-3.2-2.6-6.2-2.6c-3.9,0-6.2,2.2-6.2,4.8c0,6.2,11,3.6,11,8.3c0,2-1.7,3.5-4.6,3.5c-2.4,0-4.5-1.2-5.6-2.6l-1.1,1.4
	C136.7,79.5,138.9,80.4,141.7,80.4z"/>
<path fill="#FFFFFF" d="M160.5,80.4c3,0,4.8-1.2,6.2-3l-1.3-1.2c-1.3,1.7-2.8,2.4-4.8,2.4c-4.1,0-6.6-3.3-6.6-7.5s2.5-7.4,6.6-7.4
	c1.9,0,3.5,0.7,4.8,2.4l1.3-1.2c-1.4-1.8-3.1-3-6.2-3c-5.1,0-8.5,4-8.5,9.1C152,76.3,155.4,80.4,160.5,80.4z"/>
<path fill="#FFFFFF" d="M183.7,79.9V67.7c0-3.9-2.8-5.6-6.3-5.6c-2.9,0-4.9,1-6.7,2.9l1,1.3c1.6-1.8,3.3-2.6,5.4-2.6
	c2.6,0,4.7,1.4,4.7,4v3.5c-1.5-1.7-3.5-2.5-5.9-2.5c-3,0-6.1,2-6.1,5.8c0,3.7,3.1,5.8,6.1,5.8c2.4,0,4.4-0.8,5.9-2.5v2.1H183.7z
	 M176.6,78.9c-2.9,0-4.8-1.8-4.8-4.3c0-2.5,1.9-4.3,4.8-4.3c2.1,0,4,0.8,5.3,2.4v3.8C180.7,78.1,178.7,78.9,176.6,78.9z"/>
<path fill="#FFFFFF" d="M197.5,80.4c4.6,0,7.8-3.6,7.8-9.1c0-5.6-3.1-9.1-7.8-9.1c-2.6,0-4.8,1.4-6,3.2v-2.7h-1.9v24h1.9v-9.4
	C192.9,79.1,195.1,80.4,197.5,80.4z M197.2,78.7c-2.4,0-4.7-1.5-5.7-3.2v-8.6c1-1.7,3.3-3.1,5.7-3.1c3.9,0,6.1,3.2,6.1,7.4
	S201.1,78.7,197.2,78.7z"/>
<path fill="#FFFFFF" d="M217.7,80.4c2.9,0,5.1-1,6.8-2.8l-1-1.2c-1.5,1.6-3.5,2.4-5.7,2.4c-4.1,0-6.6-3.1-6.8-6.9h14.5v-0.5
	c0-5-2.9-9.2-8.2-9.2c-4.8,0-8.4,4.1-8.4,9.1C209,76.6,212.6,80.4,217.7,80.4z M223.7,70.4H211c0.1-3,2.2-6.6,6.3-6.6
	C221.7,63.7,223.6,67.4,223.7,70.4z"/>
</svg>
