<?xml version="1.0" encoding="utf-8"?>
<!-- Generator: Adobe Illustrator 18.1.1, SVG Export Plug-In . SVG Version: 6.00 Build 0)  -->
<svg version="1.1" id="Layer_1" xmlns="http://www.w3.org/2000/svg" xmlns:xlink="http://www.w3.org/1999/xlink" x="0px" y="0px"
	 width="300px" height="250px" viewBox="70 176 300 250" enable-background="new 70 176 300 250" xml:space="preserve">
<path fill="#FFFFFF" d="M100.9,256.4c4.6,0,7.8-3.6,7.8-9.1c0-5.6-3.1-9.1-7.8-9.1c-2.6,0-4.8,1.4-6,3.2v-2.7H93v24h1.9v-9.4
	C96.3,255.1,98.5,256.4,100.9,256.4z M100.6,254.7c-2.4,0-4.7-1.5-5.7-3.2v-8.6c1-1.7,3.3-3.1,5.7-3.1c3.9,0,6.1,3.2,6.1,7.4
	C106.7,251.4,104.5,254.7,100.6,254.7z"/>
<path fill="#FFFFFF" d="M120.8,256.4c5.1,0,8.4-4.1,8.4-9.1c0-5.1-3.2-9.1-8.4-9.1c-5.1,0-8.4,4-8.4,9.1
	C112.4,252.3,115.7,256.4,120.8,256.4z M120.8,254.7c-4,0-6.3-3.6-6.3-7.5s2.3-7.4,6.3-7.4c4.1,0,6.4,3.6,6.4,7.4
	C127.1,251.1,124.9,254.7,120.8,254.7z"/>
<path fill="#FFFFFF" d="M139.2,256.4c4.4,0,6.5-2.3,6.5-5.1c0-6.7-11-4-11-8.4c0-1.8,1.7-3.2,4.4-3.2c2.3,0,4.2,0.9,5.2,2.3l1-1.3
	c-1.3-1.4-3.2-2.6-6.2-2.6c-3.9,0-6.2,2.2-6.2,4.8c0,6.2,11,3.6,11,8.3c0,2-1.7,3.5-4.6,3.5c-2.4,0-4.5-1.2-5.6-2.6l-1.1,1.4
	C134.2,255.5,136.4,256.4,139.2,256.4z"/>
<path fill="#FFFFFF" d="M154.3,256.4c1.4,0,2.3-0.4,3-1.1l-0.7-1.4c-0.4,0.4-1.1,0.8-1.9,0.8c-1.2,0-1.8-1-1.8-2.4v-12.1h3.5v-1.7
	h-3.5v-4.8H151v4.8h-3v1.7h2.9v12.4C150.9,255,152,256.4,154.3,256.4z"/>
<path fill="#FFFFFF" d="M167.2,248.1v-1.7h-8.6v1.7H167.2z"/>
<path fill="#FFFFFF" d="M187.9,255.9l5.7-17.4h-2l-4.6,14.8l-5-14.8h-1.6l-4.9,14.8l-4.6-14.8h-2l5.7,17.4h1.8l4.9-14.9l4.9,14.9
	H187.9z"/>
<path fill="#FFFFFF" d="M204.4,256.4c5.1,0,8.4-4.1,8.4-9.1c0-5.1-3.2-9.1-8.4-9.1c-5.1,0-8.4,4-8.4,9.1
	C196.1,252.3,199.4,256.4,204.4,256.4z M204.4,254.7c-4,0-6.3-3.6-6.3-7.5s2.3-7.4,6.3-7.4c4.1,0,6.4,3.6,6.4,7.4
	C210.8,251.1,208.5,254.7,204.4,254.7z"/>
<path fill="#FFFFFF" d="M219.5,255.9v-12.6c0.8-1.5,3.2-3.1,4.9-3.1c0.4,0,0.6,0,0.9,0.1v-2.1c-2.4,0-4.4,1.4-5.9,3.3v-3h-1.9v17.4
	C217.5,255.9,219.5,255.9,219.5,255.9z"/>
<path fill="#FFFFFF" d="M243.6,255.9l-8.1-9.5l8.1-7.8h-2.5l-10.3,9.9v-16.6h-1.9v24h1.9v-5.2l3.2-3.1l6.9,8.3
	C240.9,255.9,243.6,255.9,243.6,255.9z"/>
<path fill="#FFFFFF" d="M254.5,256.4c5.1,0,8.4-4.1,8.4-9.1c0-5.1-3.2-9.1-8.4-9.1c-5.1,0-8.4,4-8.4,9.1
	C246.2,252.3,249.5,256.4,254.5,256.4z M254.5,254.7c-4,0-6.3-3.6-6.3-7.5s2.3-7.4,6.3-7.4c4.1,0,6.4,3.6,6.4,7.4
	C260.9,251.1,258.6,254.7,254.5,254.7z"/>
<path fill="#FFFFFF" d="M281.4,255.9v-17.4h-1.9v13.2c-1.2,1.5-3.4,2.9-5.7,2.9c-2.5,0-4.2-0.9-4.2-4.3v-11.8h-1.9v12.2
	c0,3.9,1.9,5.6,5.5,5.6c2.5,0,4.8-1.4,6.3-3v2.6C279.5,255.9,281.4,255.9,281.4,255.9z"/>
<path fill="#FFFFFF" d="M291,256.4c1.4,0,2.3-0.4,3-1.1l-0.7-1.4c-0.4,0.4-1.1,0.8-1.9,0.8c-1.2,0-1.8-1-1.8-2.4v-12.1h3.5v-1.7
	h-3.5v-4.8h-1.9v4.8h-2.9v1.7h2.9v12.4C287.6,255,288.7,256.4,291,256.4z"/>
</svg>
