<?xml version="1.0" encoding="utf-8"?>
<!-- Generator: Adobe Illustrator 18.1.1, SVG Export Plug-In . SVG Version: 6.00 Build 0)  -->
<svg version="1.1" id="Layer_1" xmlns="http://www.w3.org/2000/svg" xmlns:xlink="http://www.w3.org/1999/xlink" x="0px" y="0px"
	 width="300px" height="250px" viewBox="70 176 300 250" enable-background="new 70 176 300 250" xml:space="preserve">
<path fill="#FFFFFF" d="M96.8,256.4c1.4,0,2.3-0.4,3-1.1l-0.8-1.5c-0.4,0.4-1.1,0.8-1.9,0.8c-1.2,0-1.8-1-1.8-2.4v-12h3.5v-1.7h-3.5
	v-4.8h-1.9v4.8h-2.9v1.7h2.9v12.4C93.4,255,94.5,256.4,96.8,256.4z"/>
<path fill="#FFFFFF" d="M116.5,255.9v-12.2c0-3.9-1.9-5.6-5.5-5.6c-2.5,0-5,1.5-6.3,3.1v-9.3h-1.9v24h1.9v-13.1c1.1-1.6,3.4-3,5.7-3
	c2.5,0,4.2,0.9,4.2,4.3v11.8C114.6,255.9,116.5,255.9,116.5,255.9z"/>
<path fill="#FFFFFF" d="M130.1,256.4c2.9,0,5.1-1,6.8-2.8l-1-1.2c-1.5,1.6-3.5,2.4-5.7,2.4c-4.1,0-6.6-3.1-6.8-6.9h14.5v-0.5
	c0-5-2.9-9.2-8.2-9.2c-4.8,0-8.4,4.1-8.4,9.1C121.3,252.6,125,256.4,130.1,256.4z M136,246.4h-12.6c0.1-3,2.2-6.6,6.3-6.6
	C134.1,239.7,136,243.4,136,246.4z"/>
<path fill="#FFFFFF" d="M160,256.4c4.6,0,7.8-3.6,7.8-9.1c0-5.6-3.1-9.1-7.8-9.1c-2.6,0-4.8,1.4-6,3.2v-2.7h-1.9v24h1.9v-9.4
	C155.4,255.1,157.6,256.4,160,256.4z M159.7,254.7c-2.4,0-4.7-1.5-5.7-3.2v-8.6c1-1.7,3.3-3.1,5.7-3.1c3.9,0,6.1,3.2,6.1,7.4
	C165.8,251.4,163.6,254.7,159.7,254.7z"/>
<path fill="#FFFFFF" d="M180.2,256.4c2.9,0,5.1-1,6.8-2.8l-1-1.2c-1.5,1.6-3.5,2.4-5.7,2.4c-4.1,0-6.6-3.1-6.8-6.9H188v-0.5
	c0-5-2.9-9.2-8.2-9.2c-4.8,0-8.4,4.1-8.4,9.1C171.5,252.6,175.1,256.4,180.2,256.4z M186.2,246.4h-12.6c0.1-3,2.2-6.6,6.3-6.6
	C184.2,239.7,186.1,243.4,186.2,246.4z"/>
<path fill="#FFFFFF" d="M194.8,255.9v-12.6c0.8-1.5,3.2-3.1,4.9-3.1c0.4,0,0.6,0,0.9,0.1v-2.1c-2.4,0-4.4,1.4-5.9,3.3v-3h-1.9v17.4
	C192.8,255.9,194.8,255.9,194.8,255.9z"/>
<path fill="#FFFFFF" d="M206.8,255.9v-15.7h3.5v-1.7h-3.5V237c0-2.4,1-3.8,3-3.8c0.9,0,1.7,0.4,2.2,0.9l0.9-1.3
	c-1.1-1-2.1-1.2-3.3-1.2c-2.9,0-4.7,2-4.7,5.4v1.6H202v1.7h2.9V256h1.9V255.9z"/>
<path fill="#FFFFFF" d="M221.6,256.4c2.9,0,5.1-1,6.8-2.8l-1-1.2c-1.5,1.6-3.5,2.4-5.7,2.4c-4.1,0-6.6-3.1-6.8-6.9h14.5v-0.5
	c0-5-2.9-9.2-8.2-9.2c-4.8,0-8.4,4.1-8.4,9.1C212.9,252.6,216.5,256.4,221.6,256.4z M227.5,246.4h-12.6c0.1-3,2.2-6.6,6.3-6.6
	C225.6,239.7,227.5,243.4,227.5,246.4z"/>
<path fill="#FFFFFF" d="M241.7,256.4c3,0,4.8-1.2,6.2-3l-1.3-1.2c-1.3,1.7-2.8,2.4-4.8,2.4c-4.1,0-6.6-3.3-6.6-7.5s2.5-7.4,6.6-7.4
	c1.9,0,3.5,0.7,4.8,2.4l1.3-1.2c-1.4-1.8-3.1-3-6.2-3c-5.1,0-8.5,4-8.5,9.1C233.3,252.3,236.6,256.4,241.7,256.4z"/>
<path fill="#FFFFFF" d="M255.8,256.4c1.4,0,2.3-0.4,3-1.1l-0.7-1.4c-0.4,0.4-1.1,0.8-1.9,0.8c-1.2,0-1.8-1-1.8-2.4v-12.1h3.5v-1.7
	h-3.5v-4.8h-1.9v4.8h-2.9v1.7h2.9v12.4C252.4,255,253.5,256.4,255.8,256.4z"/>
<path fill="#FFFFFF" d="M98.2,292.4c4.4,0,6.5-2.3,6.5-5.1c0-6.7-11-4-11-8.4c0-1.8,1.7-3.2,4.4-3.2c2.3,0,4.2,0.9,5.2,2.3l1-1.3
	c-1.3-1.4-3.2-2.6-6.2-2.6c-3.9,0-6.2,2.2-6.2,4.8c0,6.2,11,3.6,11,8.3c0,2-1.7,3.5-4.6,3.5c-2.4,0-4.5-1.2-5.6-2.6l-1.1,1.4
	C93.2,291.5,95.4,292.4,98.2,292.4z"/>
<path fill="#FFFFFF" d="M123.1,291.9v-12.2c0-3.9-1.9-5.6-5.5-5.6c-2.5,0-5,1.5-6.3,3.1v-9.3h-1.9v24h1.9v-13.1c1.1-1.6,3.4-3,5.7-3
	c2.5,0,4.2,0.9,4.2,4.3v11.8C121.2,291.9,123.1,291.9,123.1,291.9z"/>
<path fill="#FFFFFF" d="M136.3,292.4c5.1,0,8.4-4.1,8.4-9.1c0-5.1-3.2-9.1-8.4-9.1c-5.1,0-8.4,4-8.4,9.1
	C128,288.3,131.2,292.4,136.3,292.4z M136.3,290.7c-4,0-6.3-3.6-6.3-7.5c0-3.9,2.3-7.4,6.3-7.4c4.1,0,6.4,3.6,6.4,7.4
	C142.7,287.1,140.4,290.7,136.3,290.7z"/>
<path fill="#FFFFFF" d="M166.2,291.9l5.7-17.4h-2l-4.6,14.8l-4.9-14.8h-1.6l-4.9,14.8l-4.6-14.8h-2l5.7,17.4h1.8l4.9-14.9l4.9,14.9
	H166.2z"/>
<path fill="#FFFFFF" d="M183.1,292.4c2.9,0,5.1-1,6.8-2.8l-1-1.2c-1.5,1.6-3.5,2.4-5.7,2.4c-4.1,0-6.6-3.1-6.8-6.9H191v-0.5
	c0-5-2.9-9.2-8.2-9.2c-4.8,0-8.4,4.1-8.4,9.1C174.4,288.6,178,292.4,183.1,292.4z M189.1,282.4h-12.6c0.1-3,2.2-6.6,6.3-6.6
	C187.1,275.7,189.1,279.4,189.1,282.4z"/>
<path fill="#FFFFFF" d="M197.7,291.9v-12.7c0.8-1.5,3.2-3.1,4.9-3.1c0.4,0,0.6,0,0.9,0.1v-2.1c-2.4,0-4.4,1.4-5.9,3.3v-3h-1.9v17.4
	L197.7,291.9L197.7,291.9z"/>
</svg>
