<?xml version="1.0" encoding="utf-8"?>
<!-- Generator: Adobe Illustrator 18.1.1, SVG Export Plug-In . SVG Version: 6.00 Build 0)  -->
<svg version="1.1" id="Layer_1" xmlns="http://www.w3.org/2000/svg" xmlns:xlink="http://www.w3.org/1999/xlink" x="0px" y="0px"
	 width="300px" height="250px" viewBox="0 0 300 250" enable-background="new 0 0 300 250" xml:space="preserve">
<path fill="#FFFFFF" d="M159,55.2c1.1,0,1.9-0.2,2.6-0.6c0.7-0.4,1.2-0.9,1.7-1.4l-1.2-1.1c-0.8,1-1.7,1.5-3,1.5
	c-0.6,0-1.2-0.1-1.7-0.3c-0.5-0.2-0.9-0.5-1.3-0.9c-0.4-0.4-0.6-0.9-0.8-1.4c-0.2-0.6-0.3-1.1-0.3-1.8c0-0.6,0.1-1.2,0.3-1.8
	c0.2-0.5,0.5-1,0.8-1.4s0.8-0.7,1.3-0.9c0.5-0.2,1-0.3,1.7-0.3c0.6,0,1.2,0.1,1.6,0.4c0.5,0.2,0.9,0.6,1.3,1.2l1.2-1.1
	c-0.4-0.6-1-1.1-1.7-1.4c-0.7-0.4-1.5-0.6-2.6-0.6c-0.9,0-1.7,0.2-2.4,0.5c-0.7,0.3-1.3,0.7-1.8,1.3c-0.5,0.5-0.9,1.2-1.2,1.9
	c-0.3,0.7-0.4,1.5-0.4,2.4c0,0.9,0.1,1.7,0.4,2.4s0.7,1.4,1.2,1.9c0.5,0.5,1.1,1,1.8,1.3C157.4,55.1,158.1,55.2,159,55.2z"/>
<path fill="#FFFFFF" d="M173.6,54.9h1.8V43.3h-1.8v8.5c-0.3,0.5-0.8,0.9-1.4,1.2c-0.6,0.4-1.3,0.5-2,0.5c-0.4,0-0.7,0-1.1-0.1
	c-0.3-0.1-0.6-0.2-0.8-0.4c-0.2-0.2-0.4-0.5-0.5-0.8c-0.1-0.3-0.2-0.8-0.2-1.3v-7.6h-1.8v8.2c0,1.3,0.3,2.2,0.9,2.8
	c0.6,0.6,1.5,0.9,2.8,0.9c0.9,0,1.7-0.2,2.4-0.6c0.7-0.4,1.3-0.8,1.8-1.3V54.9z"/>
<path fill="#FFFFFF" d="M182.7,55.2c0.8,0,1.4-0.1,2-0.3c0.6-0.2,1-0.4,1.4-0.7s0.7-0.7,0.9-1.1c0.2-0.4,0.3-0.9,0.3-1.4
	c0-0.8-0.2-1.3-0.5-1.8c-0.4-0.4-0.8-0.8-1.3-1c-0.5-0.3-1.1-0.5-1.7-0.6c-0.6-0.1-1.2-0.3-1.7-0.4c-0.5-0.2-1-0.3-1.3-0.6
	s-0.5-0.5-0.5-1c0-0.5,0.2-0.9,0.7-1.3c0.5-0.4,1.1-0.5,1.9-0.5c0.8,0,1.4,0.1,2,0.4c0.6,0.3,1.1,0.6,1.4,1l0.8-1.2
	c-0.5-0.5-1-0.9-1.8-1.2c-0.7-0.3-1.6-0.5-2.5-0.5c-0.7,0-1.3,0.1-1.8,0.3c-0.5,0.2-1,0.4-1.4,0.7c-0.4,0.3-0.6,0.7-0.8,1.1
	c-0.2,0.4-0.3,0.8-0.3,1.3c0,0.7,0.2,1.3,0.5,1.7c0.4,0.4,0.8,0.7,1.3,1c0.5,0.2,1.1,0.4,1.7,0.6c0.6,0.1,1.2,0.3,1.7,0.4
	c0.5,0.2,1,0.4,1.3,0.6c0.4,0.2,0.5,0.6,0.5,1.1c0,0.6-0.2,1.1-0.7,1.4c-0.5,0.4-1.1,0.6-2,0.6c-0.8,0-1.5-0.2-2.2-0.5
	c-0.7-0.3-1.2-0.7-1.6-1.2l-0.9,1.3c0.6,0.6,1.3,1.1,2.1,1.4C180.8,55.1,181.7,55.2,182.7,55.2z"/>
<path fill="#FFFFFF" d="M193.1,55.2c0.5,0,1-0.1,1.3-0.2c0.3-0.1,0.6-0.3,0.9-0.5l-0.5-1.3c-0.1,0.1-0.3,0.2-0.5,0.3
	c-0.2,0.1-0.5,0.1-0.7,0.1c-0.4,0-0.7-0.1-0.9-0.4c-0.2-0.3-0.3-0.6-0.3-1.1v-7.2h2.4v-1.6h-2.4v-3.2h-1.8v3.2h-1.9v1.6h1.9v7.6
	c0,0.9,0.2,1.5,0.6,2C191.6,55,192.2,55.2,193.1,55.2z"/>
<path fill="#FFFFFF" d="M202.3,55.2c0.9,0,1.7-0.2,2.4-0.5c0.7-0.3,1.3-0.8,1.8-1.3c0.5-0.6,0.9-1.2,1.1-1.9
	c0.3-0.7,0.4-1.5,0.4-2.4c0-0.8-0.1-1.6-0.4-2.4c-0.3-0.7-0.6-1.4-1.1-1.9c-0.5-0.5-1.1-1-1.8-1.3c-0.7-0.3-1.5-0.5-2.4-0.5
	s-1.7,0.2-2.4,0.5s-1.3,0.8-1.8,1.3c-0.5,0.5-0.9,1.2-1.1,1.9c-0.3,0.7-0.4,1.5-0.4,2.4c0,0.8,0.1,1.6,0.4,2.4
	c0.3,0.7,0.6,1.4,1.1,1.9c0.5,0.6,1.1,1,1.8,1.3C200.6,55.1,201.4,55.2,202.3,55.2z M202.3,53.6c-0.6,0-1.2-0.1-1.7-0.4
	c-0.5-0.2-0.9-0.6-1.2-1c-0.3-0.4-0.6-0.9-0.7-1.4c-0.2-0.5-0.3-1.1-0.3-1.7c0-0.6,0.1-1.2,0.3-1.7c0.2-0.5,0.4-1,0.7-1.4
	c0.3-0.4,0.7-0.7,1.2-1c0.5-0.2,1-0.4,1.7-0.4c0.6,0,1.2,0.1,1.6,0.4c0.5,0.2,0.9,0.6,1.2,1c0.3,0.4,0.6,0.9,0.7,1.4
	c0.2,0.5,0.3,1.1,0.3,1.7c0,0.6-0.1,1.2-0.3,1.7c-0.2,0.5-0.4,1-0.7,1.4c-0.3,0.4-0.7,0.7-1.2,1C203.5,53.5,202.9,53.6,202.3,53.6z"
	/>
<path fill="#FFFFFF" d="M224.9,54.9h1.8v-8.4c0-1.2-0.3-2-0.8-2.6c-0.6-0.6-1.4-0.9-2.4-0.9c-0.4,0-0.8,0.1-1.2,0.2
	c-0.4,0.1-0.8,0.3-1.1,0.5c-0.3,0.2-0.6,0.4-0.9,0.7c-0.3,0.3-0.5,0.5-0.6,0.8c-0.2-0.6-0.5-1.1-1-1.5c-0.5-0.4-1.2-0.6-2.1-0.6
	c-0.4,0-0.8,0.1-1.2,0.2c-0.4,0.1-0.8,0.3-1.1,0.5c-0.3,0.2-0.6,0.4-0.9,0.6c-0.2,0.2-0.4,0.4-0.5,0.6v-1.7h-1.8v11.6h1.8v-8.5
	c0.3-0.5,0.8-0.9,1.3-1.2c0.6-0.4,1.1-0.6,1.7-0.6c0.8,0,1.3,0.2,1.6,0.6c0.3,0.4,0.5,1,0.5,1.8v7.9h1.8v-8.5
	c0.3-0.5,0.7-0.9,1.3-1.2c0.6-0.4,1.2-0.5,1.8-0.5c0.8,0,1.3,0.2,1.6,0.6c0.3,0.4,0.5,1,0.5,1.8V54.9z"/>
<path fill="#FFFFFF" d="M231.2,41.7c0.3,0,0.6-0.1,0.9-0.3c0.2-0.2,0.4-0.5,0.4-0.9c0-0.3-0.1-0.6-0.4-0.9c-0.2-0.2-0.5-0.4-0.9-0.4
	c-0.3,0-0.6,0.1-0.8,0.4c-0.2,0.2-0.4,0.5-0.4,0.9c0,0.3,0.1,0.6,0.4,0.9C230.6,41.6,230.9,41.7,231.2,41.7z M230.3,54.9h1.8V43.3
	h-1.8V54.9z"/>
<path fill="#FFFFFF" d="M235.2,54.9h8.8v-1.6h-6.5l6.4-8.7v-1.4h-8.7v1.6h6.4l-6.4,8.6V54.9z"/>
<path fill="#FFFFFF" d="M252.3,55.2c1,0,1.8-0.2,2.6-0.5c0.8-0.3,1.4-0.7,2-1.3l-0.9-1.2c-0.5,0.5-1,0.8-1.6,1.1
	c-0.6,0.3-1.3,0.4-1.9,0.4c-0.6,0-1.2-0.1-1.7-0.3c-0.5-0.2-0.9-0.5-1.3-0.9c-0.4-0.4-0.6-0.8-0.9-1.3c-0.2-0.5-0.3-1-0.4-1.5h9.4
	v-0.5c0-0.9-0.1-1.7-0.4-2.4c-0.2-0.8-0.6-1.4-1.1-2c-0.5-0.6-1.1-1-1.8-1.3c-0.7-0.3-1.5-0.5-2.4-0.5c-0.8,0-1.6,0.2-2.3,0.5
	c-0.7,0.3-1.3,0.8-1.8,1.3c-0.5,0.5-0.9,1.2-1.2,1.9c-0.3,0.7-0.4,1.5-0.4,2.4c0,0.9,0.1,1.7,0.4,2.5c0.3,0.7,0.7,1.4,1.2,1.9
	c0.5,0.5,1.1,1,1.9,1.2C250.6,55.1,251.4,55.2,252.3,55.2z M255.9,48.4h-7.6c0-0.4,0.1-0.9,0.3-1.4c0.2-0.5,0.4-0.9,0.7-1.2
	c0.3-0.4,0.7-0.7,1.2-0.9c0.5-0.2,1-0.4,1.6-0.4c0.7,0,1.2,0.1,1.7,0.4c0.5,0.2,0.9,0.5,1.2,0.9c0.3,0.4,0.5,0.8,0.7,1.2
	C255.8,47.5,255.9,48,255.9,48.4z"/>
<path fill="#FFFFFF" d="M262.8,54.4c0-0.6-0.2-1-0.5-1.3c-0.3-0.3-0.7-0.5-1.1-0.5c-0.4,0-0.7,0.1-0.9,0.4c-0.2,0.3-0.4,0.6-0.4,0.9
	c0,0.4,0.1,0.7,0.3,0.9c0.2,0.2,0.5,0.3,0.8,0.3c0.2,0,0.3,0,0.3,0c0,0.4-0.2,0.8-0.5,1.2c-0.3,0.4-0.6,0.8-1,1l0.9,0.7
	c0.6-0.4,1-0.9,1.4-1.6C262.6,55.8,262.8,55.1,262.8,54.4z"/>
<path fill="#FFFFFF" d="M159,79.2c1.1,0,1.9-0.2,2.6-0.6c0.7-0.4,1.2-0.9,1.7-1.4l-1.2-1.1c-0.8,1-1.7,1.5-3,1.5
	c-0.6,0-1.2-0.1-1.7-0.3c-0.5-0.2-0.9-0.5-1.3-0.9c-0.4-0.4-0.6-0.9-0.8-1.4c-0.2-0.6-0.3-1.1-0.3-1.8c0-0.6,0.1-1.2,0.3-1.8
	c0.2-0.5,0.5-1,0.8-1.4c0.4-0.4,0.8-0.7,1.3-0.9c0.5-0.2,1-0.3,1.7-0.3c0.6,0,1.2,0.1,1.6,0.4c0.5,0.2,0.9,0.6,1.3,1.2l1.2-1.1
	c-0.4-0.6-1-1.1-1.7-1.4c-0.7-0.4-1.5-0.6-2.6-0.6c-0.9,0-1.7,0.2-2.4,0.5c-0.7,0.3-1.3,0.7-1.8,1.3c-0.5,0.5-0.9,1.2-1.2,1.9
	c-0.3,0.7-0.4,1.5-0.4,2.4c0,0.9,0.1,1.7,0.4,2.4c0.3,0.7,0.7,1.4,1.2,1.9c0.5,0.5,1.1,1,1.8,1.3C157.4,79.1,158.1,79.2,159,79.2z"
	/>
<path fill="#FFFFFF" d="M170.8,79.2c0.9,0,1.7-0.2,2.4-0.5c0.7-0.3,1.3-0.8,1.8-1.3c0.5-0.6,0.9-1.2,1.1-1.9
	c0.3-0.7,0.4-1.5,0.4-2.4c0-0.8-0.1-1.6-0.4-2.4c-0.3-0.7-0.6-1.4-1.1-1.9c-0.5-0.5-1.1-1-1.8-1.3c-0.7-0.3-1.5-0.5-2.4-0.5
	c-0.9,0-1.7,0.2-2.4,0.5c-0.7,0.3-1.3,0.8-1.8,1.3c-0.5,0.5-0.9,1.2-1.1,1.9c-0.3,0.7-0.4,1.5-0.4,2.4c0,0.8,0.1,1.6,0.4,2.4
	c0.3,0.7,0.6,1.4,1.1,1.9c0.5,0.6,1.1,1,1.8,1.3C169.2,79.1,170,79.2,170.8,79.2z M170.8,77.6c-0.6,0-1.2-0.1-1.7-0.4
	c-0.5-0.2-0.9-0.6-1.2-1c-0.3-0.4-0.6-0.9-0.7-1.4c-0.2-0.5-0.3-1.1-0.3-1.7c0-0.6,0.1-1.2,0.3-1.7c0.2-0.5,0.4-1,0.7-1.4
	c0.3-0.4,0.7-0.7,1.2-1c0.5-0.2,1-0.4,1.7-0.4c0.6,0,1.2,0.1,1.6,0.4c0.5,0.2,0.9,0.6,1.2,1c0.3,0.4,0.6,0.9,0.7,1.4
	c0.2,0.5,0.3,1.1,0.3,1.7c0,0.6-0.1,1.2-0.3,1.7c-0.2,0.5-0.4,1-0.7,1.4c-0.3,0.4-0.7,0.7-1.2,1C172,77.5,171.5,77.6,170.8,77.6z"/>
<path fill="#FFFFFF" d="M187.3,78.9h1.8v-8.1c0-2.5-1.2-3.7-3.7-3.7c-0.4,0-0.9,0.1-1.3,0.2c-0.4,0.1-0.8,0.3-1.2,0.5
	s-0.7,0.4-1,0.6c-0.3,0.2-0.5,0.5-0.7,0.7v-1.7h-1.8v11.6h1.8v-8.5c0.2-0.2,0.4-0.5,0.6-0.7c0.2-0.2,0.5-0.4,0.8-0.6
	c0.3-0.2,0.6-0.3,1-0.4c0.3-0.1,0.7-0.1,1-0.1c0.8,0,1.4,0.2,1.9,0.6c0.5,0.4,0.7,1.1,0.7,2.1V78.9z"/>
<path fill="#FFFFFF" d="M195.7,79.2c0.5,0,1-0.1,1.3-0.2c0.3-0.1,0.6-0.3,0.9-0.5l-0.5-1.3c-0.1,0.1-0.3,0.2-0.5,0.3
	s-0.5,0.1-0.7,0.1c-0.4,0-0.7-0.1-0.9-0.4c-0.2-0.3-0.3-0.6-0.3-1.1v-7.2h2.4v-1.6h-2.4v-3.2h-1.8v3.2h-1.9v1.6h1.9v7.6
	c0,0.9,0.2,1.5,0.6,2C194.1,79,194.8,79.2,195.7,79.2z"/>
<path fill="#FFFFFF" d="M199.8,78.9h1.8v-8.2c0.1-0.2,0.3-0.5,0.6-0.7c0.2-0.2,0.5-0.4,0.8-0.6c0.3-0.2,0.6-0.3,0.9-0.4
	c0.3-0.1,0.6-0.2,0.9-0.2c0.3,0,0.5,0,0.7,0.1v-1.8c-0.8,0-1.5,0.2-2.2,0.6c-0.7,0.4-1.2,0.9-1.7,1.5v-1.9h-1.8V78.9z"/>
<path fill="#FFFFFF" d="M212.8,79.2c0.9,0,1.7-0.2,2.4-0.5c0.7-0.3,1.3-0.8,1.8-1.3c0.5-0.6,0.9-1.2,1.1-1.9
	c0.3-0.7,0.4-1.5,0.4-2.4c0-0.8-0.1-1.6-0.4-2.4c-0.3-0.7-0.6-1.4-1.1-1.9c-0.5-0.5-1.1-1-1.8-1.3c-0.7-0.3-1.5-0.5-2.4-0.5
	c-0.9,0-1.7,0.2-2.4,0.5c-0.7,0.3-1.3,0.8-1.8,1.3c-0.5,0.5-0.9,1.2-1.1,1.9c-0.3,0.7-0.4,1.5-0.4,2.4c0,0.8,0.1,1.6,0.4,2.4
	c0.3,0.7,0.6,1.4,1.1,1.9c0.5,0.6,1.1,1,1.8,1.3C211.1,79.1,211.9,79.2,212.8,79.2z M212.8,77.6c-0.6,0-1.2-0.1-1.7-0.4
	c-0.5-0.2-0.9-0.6-1.2-1c-0.3-0.4-0.6-0.9-0.7-1.4c-0.2-0.5-0.3-1.1-0.3-1.7c0-0.6,0.1-1.2,0.3-1.7c0.2-0.5,0.4-1,0.7-1.4
	c0.3-0.4,0.7-0.7,1.2-1c0.5-0.2,1-0.4,1.7-0.4c0.6,0,1.2,0.1,1.6,0.4c0.5,0.2,0.9,0.6,1.2,1c0.3,0.4,0.6,0.9,0.7,1.4
	c0.2,0.5,0.3,1.1,0.3,1.7c0,0.6-0.1,1.2-0.3,1.7c-0.2,0.5-0.4,1-0.7,1.4c-0.3,0.4-0.7,0.7-1.2,1C213.9,77.5,213.4,77.6,212.8,77.6z"
	/>
<path fill="#FFFFFF" d="M221.4,78.9h1.8v-16h-1.8V78.9z"/>
<path fill="#FFFFFF" d="M229.3,78.4c0-0.6-0.2-1-0.5-1.3c-0.3-0.3-0.7-0.5-1.1-0.5c-0.4,0-0.7,0.1-0.9,0.4c-0.2,0.3-0.4,0.6-0.4,0.9
	c0,0.4,0.1,0.7,0.3,0.9c0.2,0.2,0.5,0.3,0.8,0.3c0.2,0,0.3,0,0.3,0c0,0.4-0.2,0.8-0.5,1.2c-0.3,0.4-0.6,0.8-1,1l0.9,0.7
	c0.6-0.4,1-0.9,1.4-1.6C229.1,79.8,229.3,79.1,229.3,78.4z"/>
<path fill="#FFFFFF" d="M245.8,78.9h1.8v-8c0-0.7-0.1-1.3-0.4-1.8c-0.2-0.5-0.6-0.9-1-1.2c-0.4-0.3-0.9-0.5-1.4-0.7
	c-0.5-0.1-1.1-0.2-1.7-0.2c-1.9,0-3.4,0.6-4.6,1.9l0.8,1.2c1-1.1,2.2-1.6,3.6-1.6c0.8,0,1.5,0.2,2.1,0.6c0.6,0.4,0.8,1,0.8,1.8v2.1
	c-0.5-0.5-1-0.9-1.7-1.2c-0.6-0.3-1.4-0.4-2.2-0.4c-0.5,0-1,0.1-1.5,0.2c-0.5,0.2-0.9,0.4-1.3,0.7c-0.4,0.3-0.7,0.7-0.9,1.2
	c-0.2,0.5-0.4,1-0.4,1.7c0,0.6,0.1,1.2,0.4,1.7c0.2,0.5,0.6,0.9,0.9,1.2c0.4,0.3,0.8,0.6,1.3,0.7c0.5,0.2,1,0.2,1.5,0.2
	c1.6,0,2.9-0.5,3.8-1.6V78.9z M242.6,77.9c-0.8,0-1.5-0.2-2.1-0.7c-0.5-0.5-0.8-1.1-0.8-1.8c0-0.8,0.3-1.4,0.8-1.8
	c0.5-0.5,1.2-0.7,2.1-0.7c0.6,0,1.2,0.1,1.8,0.4c0.6,0.2,1,0.6,1.4,1.1v2.2c-0.4,0.5-0.8,0.8-1.4,1.1
	C243.8,77.8,243.2,77.9,242.6,77.9z"/>
<path fill="#FFFFFF" d="M259,78.9h1.8v-8.1c0-2.5-1.2-3.7-3.7-3.7c-0.4,0-0.9,0.1-1.3,0.2s-0.8,0.3-1.2,0.5s-0.7,0.4-1,0.6
	c-0.3,0.2-0.5,0.5-0.7,0.7v-1.7h-1.8v11.6h1.8v-8.5c0.2-0.2,0.4-0.5,0.6-0.7c0.2-0.2,0.5-0.4,0.8-0.6c0.3-0.2,0.6-0.3,1-0.4
	c0.3-0.1,0.7-0.1,1-0.1c0.8,0,1.4,0.2,1.9,0.6c0.5,0.4,0.7,1.1,0.7,2.1V78.9z"/>
<path fill="#FFFFFF" d="M272.8,78.9h1.8v-16h-1.8v6.2c-0.5-0.6-1-1.1-1.7-1.5c-0.7-0.4-1.4-0.5-2.2-0.5c-0.8,0-1.5,0.1-2.1,0.4
	c-0.6,0.3-1.2,0.7-1.6,1.2c-0.5,0.5-0.8,1.2-1.1,1.9c-0.2,0.8-0.4,1.6-0.4,2.5c0,0.9,0.1,1.8,0.4,2.5c0.3,0.8,0.6,1.4,1.1,1.9
	c0.5,0.5,1,0.9,1.6,1.2c0.6,0.3,1.3,0.4,2.1,0.4c0.8,0,1.6-0.2,2.2-0.6c0.7-0.4,1.2-0.9,1.7-1.5V78.9z M269.3,77.6
	c-0.6,0-1.1-0.1-1.6-0.3c-0.5-0.2-0.9-0.5-1.2-0.9c-0.3-0.4-0.6-0.9-0.7-1.4c-0.2-0.5-0.3-1.1-0.3-1.8c0-0.6,0.1-1.2,0.3-1.8
	c0.2-0.6,0.4-1,0.7-1.4c0.3-0.4,0.7-0.7,1.2-0.9c0.5-0.2,1-0.3,1.6-0.3c0.7,0,1.4,0.2,2,0.6c0.6,0.4,1.1,0.8,1.4,1.3v5.3
	c-0.3,0.5-0.8,0.9-1.4,1.3C270.7,77.4,270.1,77.6,269.3,77.6z"/>
<path fill="#FFFFFF" d="M159.6,103.2c0.8,0,1.5-0.1,2.1-0.4c0.6-0.3,1.2-0.7,1.6-1.2c0.5-0.5,0.8-1.2,1.1-1.9s0.4-1.6,0.4-2.5
	c0-0.9-0.1-1.8-0.4-2.5c-0.2-0.8-0.6-1.4-1.1-1.9c-0.5-0.5-1-0.9-1.6-1.2c-0.6-0.3-1.3-0.4-2.1-0.4c-0.8,0-1.6,0.2-2.3,0.6
	s-1.2,0.9-1.7,1.5v-1.7h-1.8v16h1.8v-6.2c0.5,0.7,1,1.2,1.7,1.5C158.1,103,158.8,103.2,159.6,103.2z M159.2,101.6
	c-0.7,0-1.4-0.2-2-0.6c-0.6-0.4-1.1-0.8-1.4-1.3v-5.2c0.3-0.5,0.8-0.9,1.4-1.3c0.6-0.4,1.3-0.5,2-0.5c0.6,0,1.1,0.1,1.6,0.3
	c0.5,0.2,0.9,0.5,1.2,0.9c0.3,0.4,0.6,0.9,0.7,1.4c0.2,0.5,0.3,1.1,0.3,1.8c0,0.6-0.1,1.2-0.3,1.8c-0.2,0.6-0.4,1-0.7,1.4
	c-0.3,0.4-0.7,0.7-1.2,0.9C160.3,101.5,159.7,101.6,159.2,101.6z"/>
<path fill="#FFFFFF" d="M174.9,102.9h1.8v-8c0-0.7-0.1-1.3-0.4-1.8c-0.2-0.5-0.6-0.9-1-1.2c-0.4-0.3-0.9-0.5-1.4-0.7
	c-0.5-0.1-1.1-0.2-1.7-0.2c-1.9,0-3.4,0.6-4.6,1.9l0.8,1.2c1-1.1,2.2-1.6,3.6-1.6c0.8,0,1.5,0.2,2.1,0.6c0.6,0.4,0.8,1,0.8,1.8v2.1
	c-0.5-0.5-1-0.9-1.7-1.2c-0.6-0.3-1.4-0.4-2.2-0.4c-0.5,0-1,0.1-1.5,0.2c-0.5,0.2-0.9,0.4-1.3,0.7c-0.4,0.3-0.7,0.7-0.9,1.2
	c-0.2,0.5-0.4,1-0.4,1.7c0,0.6,0.1,1.2,0.4,1.7c0.2,0.5,0.6,0.9,0.9,1.2c0.4,0.3,0.8,0.6,1.3,0.7c0.5,0.2,1,0.2,1.5,0.2
	c1.6,0,2.9-0.5,3.8-1.6V102.9z M171.7,101.9c-0.8,0-1.5-0.2-2.1-0.7c-0.5-0.5-0.8-1.1-0.8-1.8c0-0.8,0.3-1.4,0.8-1.8
	c0.5-0.5,1.2-0.7,2.1-0.7c0.6,0,1.2,0.1,1.8,0.4c0.6,0.2,1,0.6,1.4,1.1v2.2c-0.4,0.5-0.8,0.8-1.4,1.1
	C172.9,101.8,172.3,101.9,171.7,101.9z"/>
<path fill="#FFFFFF" d="M188.1,102.9h1.8V91.3h-1.8v8.5c-0.3,0.5-0.8,0.9-1.4,1.2c-0.6,0.4-1.3,0.5-2,0.5c-0.4,0-0.7,0-1.1-0.1
	c-0.3-0.1-0.6-0.2-0.8-0.4c-0.2-0.2-0.4-0.5-0.5-0.8c-0.1-0.3-0.2-0.8-0.2-1.3v-7.6h-1.8v8.2c0,1.3,0.3,2.2,0.9,2.8
	c0.6,0.6,1.5,0.9,2.8,0.9c0.9,0,1.7-0.2,2.4-0.6c0.7-0.4,1.3-0.8,1.8-1.3V102.9z"/>
<path fill="#FFFFFF" d="M197.2,103.2c0.8,0,1.4-0.1,2-0.3c0.6-0.2,1-0.4,1.4-0.7c0.4-0.3,0.7-0.7,0.9-1.1c0.2-0.4,0.3-0.9,0.3-1.4
	c0-0.8-0.2-1.3-0.5-1.8c-0.4-0.4-0.8-0.8-1.3-1c-0.5-0.3-1.1-0.5-1.7-0.6c-0.6-0.1-1.2-0.3-1.7-0.4c-0.5-0.2-1-0.3-1.3-0.6
	c-0.4-0.2-0.5-0.5-0.5-1c0-0.5,0.2-0.9,0.7-1.3c0.5-0.4,1.1-0.5,1.9-0.5c0.8,0,1.4,0.1,2,0.4c0.6,0.3,1.1,0.6,1.4,1l0.8-1.2
	c-0.5-0.5-1-0.9-1.8-1.2c-0.7-0.3-1.6-0.5-2.5-0.5c-0.7,0-1.3,0.1-1.8,0.3c-0.5,0.2-1,0.4-1.4,0.7c-0.4,0.3-0.6,0.7-0.8,1.1
	c-0.2,0.4-0.3,0.8-0.3,1.3c0,0.7,0.2,1.3,0.5,1.7c0.4,0.4,0.8,0.7,1.3,1s1.1,0.4,1.7,0.6c0.6,0.1,1.2,0.3,1.7,0.4
	c0.5,0.2,1,0.4,1.3,0.6c0.4,0.2,0.5,0.6,0.5,1.1c0,0.6-0.2,1.1-0.7,1.4c-0.5,0.4-1.1,0.6-2,0.6c-0.8,0-1.5-0.2-2.2-0.5
	c-0.7-0.3-1.2-0.7-1.6-1.2l-0.9,1.3c0.6,0.6,1.3,1.1,2.1,1.4C195.3,103.1,196.2,103.2,197.2,103.2z"/>
<path fill="#FFFFFF" d="M209.9,103.2c1,0,1.8-0.2,2.6-0.5c0.8-0.3,1.4-0.7,2-1.3l-0.9-1.2c-0.5,0.5-1,0.8-1.6,1.1
	c-0.6,0.3-1.3,0.4-1.9,0.4c-0.6,0-1.2-0.1-1.7-0.3c-0.5-0.2-0.9-0.5-1.3-0.9c-0.4-0.4-0.6-0.8-0.9-1.3c-0.2-0.5-0.3-1-0.4-1.5h9.4
	v-0.5c0-0.9-0.1-1.7-0.4-2.4s-0.6-1.4-1.1-2c-0.5-0.6-1.1-1-1.8-1.3c-0.7-0.3-1.5-0.5-2.4-0.5c-0.8,0-1.6,0.2-2.3,0.5
	c-0.7,0.3-1.3,0.8-1.8,1.3c-0.5,0.5-0.9,1.2-1.2,1.9c-0.3,0.7-0.4,1.5-0.4,2.4c0,0.9,0.1,1.7,0.4,2.5c0.3,0.7,0.7,1.4,1.2,1.9
	c0.5,0.5,1.1,1,1.9,1.2C208.2,103.1,209,103.2,209.9,103.2z M213.5,96.4h-7.6c0-0.4,0.1-0.9,0.3-1.4c0.2-0.5,0.4-0.9,0.7-1.2
	c0.3-0.4,0.7-0.7,1.2-0.9c0.5-0.2,1-0.4,1.6-0.4c0.7,0,1.2,0.1,1.7,0.4s0.9,0.5,1.2,0.9c0.3,0.4,0.5,0.8,0.7,1.2
	C213.4,95.5,213.5,96,213.5,96.4z"/>
<path fill="#FFFFFF" d="M224,105.8l-0.3,1.6c0.2,0,0.4,0.1,0.6,0.1c0.3,0,0.5,0,0.7,0c0.8,0,1.4-0.2,2-0.6c0.6-0.4,1-1,1.4-1.8
	l5.8-13.9h-2l-3.8,9.5l-3.9-9.5h-1.9l4.8,11.7l-0.8,1.8c-0.2,0.5-0.4,0.8-0.7,1c-0.3,0.2-0.6,0.3-1,0.3c-0.1,0-0.3,0-0.5,0
	C224.3,105.9,224.1,105.9,224,105.8z"/>
<path fill="#FFFFFF" d="M241.2,103.2c0.9,0,1.7-0.2,2.4-0.5c0.7-0.3,1.3-0.8,1.8-1.3c0.5-0.6,0.9-1.2,1.1-1.9
	c0.3-0.7,0.4-1.5,0.4-2.4c0-0.8-0.1-1.6-0.4-2.4c-0.3-0.7-0.6-1.4-1.1-1.9c-0.5-0.5-1.1-1-1.8-1.3c-0.7-0.3-1.5-0.5-2.4-0.5
	s-1.7,0.2-2.4,0.5c-0.7,0.3-1.3,0.8-1.8,1.3c-0.5,0.5-0.9,1.2-1.1,1.9c-0.3,0.7-0.4,1.5-0.4,2.4c0,0.8,0.1,1.6,0.4,2.4
	c0.3,0.7,0.6,1.4,1.1,1.9c0.5,0.6,1.1,1,1.8,1.3C239.5,103.1,240.3,103.2,241.2,103.2z M241.2,101.6c-0.6,0-1.2-0.1-1.7-0.4
	c-0.5-0.2-0.9-0.6-1.2-1c-0.3-0.4-0.6-0.9-0.7-1.4c-0.2-0.5-0.3-1.1-0.3-1.7c0-0.6,0.1-1.2,0.3-1.7c0.2-0.5,0.4-1,0.7-1.4
	c0.3-0.4,0.7-0.7,1.2-1c0.5-0.2,1-0.4,1.7-0.4c0.6,0,1.2,0.1,1.6,0.4c0.5,0.2,0.9,0.6,1.2,1c0.3,0.4,0.6,0.9,0.7,1.4
	c0.2,0.5,0.3,1.1,0.3,1.7c0,0.6-0.1,1.2-0.3,1.7c-0.2,0.5-0.4,1-0.7,1.4c-0.3,0.4-0.7,0.7-1.2,1
	C242.4,101.5,241.8,101.6,241.2,101.6z"/>
<path fill="#FFFFFF" d="M257.7,102.9h1.8V91.3h-1.8v8.5c-0.3,0.5-0.8,0.9-1.4,1.2c-0.6,0.4-1.3,0.5-2,0.5c-0.4,0-0.7,0-1.1-0.1
	c-0.3-0.1-0.6-0.2-0.8-0.4c-0.2-0.2-0.4-0.5-0.5-0.8c-0.1-0.3-0.2-0.8-0.2-1.3v-7.6h-1.8v8.2c0,1.3,0.3,2.2,0.9,2.8
	c0.6,0.6,1.5,0.9,2.8,0.9c0.9,0,1.7-0.2,2.4-0.6c0.7-0.4,1.3-0.8,1.8-1.3V102.9z"/>
<path fill="#FFFFFF" d="M263.1,102.9h1.8v-8.2c0.1-0.2,0.3-0.5,0.6-0.7c0.2-0.2,0.5-0.4,0.8-0.6c0.3-0.2,0.6-0.3,0.9-0.4
	c0.3-0.1,0.6-0.2,0.9-0.2c0.3,0,0.5,0,0.7,0.1v-1.8c-0.8,0-1.5,0.2-2.2,0.6c-0.7,0.4-1.2,0.9-1.7,1.5v-1.9h-1.8V102.9z"/>
<path fill="#FFFFFF" d="M157.6,127.2c0.8,0,1.4-0.1,2-0.3c0.6-0.2,1-0.4,1.4-0.7c0.4-0.3,0.7-0.7,0.9-1.1c0.2-0.4,0.3-0.9,0.3-1.4
	c0-0.8-0.2-1.3-0.5-1.8c-0.4-0.4-0.8-0.8-1.3-1c-0.5-0.3-1.1-0.5-1.7-0.6c-0.6-0.1-1.2-0.3-1.7-0.4c-0.5-0.2-1-0.3-1.3-0.6
	c-0.4-0.2-0.5-0.5-0.5-1c0-0.5,0.2-0.9,0.7-1.3c0.5-0.4,1.1-0.5,1.9-0.5c0.8,0,1.4,0.1,2,0.4c0.6,0.3,1.1,0.6,1.4,1l0.8-1.2
	c-0.5-0.5-1-0.9-1.8-1.2c-0.7-0.3-1.6-0.5-2.5-0.5c-0.7,0-1.3,0.1-1.8,0.3c-0.5,0.2-1,0.4-1.4,0.7c-0.4,0.3-0.6,0.7-0.8,1.1
	c-0.2,0.4-0.3,0.8-0.3,1.3c0,0.7,0.2,1.3,0.5,1.7s0.8,0.7,1.3,1c0.5,0.2,1.1,0.4,1.7,0.6c0.6,0.1,1.2,0.3,1.7,0.4
	c0.5,0.2,1,0.4,1.3,0.6c0.4,0.2,0.5,0.6,0.5,1.1c0,0.6-0.2,1.1-0.7,1.4c-0.5,0.4-1.1,0.6-2,0.6c-0.8,0-1.5-0.2-2.2-0.5
	c-0.7-0.3-1.2-0.7-1.6-1.2l-0.9,1.3c0.6,0.6,1.3,1.1,2.1,1.4C155.7,127.1,156.6,127.2,157.6,127.2z"/>
<path fill="#FFFFFF" d="M172.9,126.9h1.8v-8.2c0-1.3-0.3-2.2-0.9-2.8c-0.6-0.6-1.5-0.9-2.8-0.9c-0.4,0-0.9,0.1-1.3,0.2
	c-0.4,0.1-0.8,0.3-1.2,0.5c-0.4,0.2-0.7,0.4-1,0.6c-0.3,0.2-0.5,0.5-0.7,0.7v-6.1h-1.8v16h1.8v-8.5c0.2-0.2,0.4-0.5,0.6-0.7
	c0.2-0.2,0.5-0.4,0.8-0.6c0.3-0.2,0.6-0.3,0.9-0.4c0.3-0.1,0.7-0.1,1-0.1c0.4,0,0.7,0,1.1,0.1c0.3,0.1,0.6,0.2,0.8,0.4
	c0.2,0.2,0.4,0.5,0.5,0.8c0.1,0.3,0.2,0.8,0.2,1.3V126.9z"/>
<path fill="#FFFFFF" d="M183.4,127.2c0.9,0,1.7-0.2,2.4-0.5c0.7-0.3,1.3-0.8,1.8-1.3c0.5-0.6,0.9-1.2,1.1-1.9
	c0.3-0.7,0.4-1.5,0.4-2.4c0-0.8-0.1-1.6-0.4-2.4c-0.3-0.7-0.6-1.4-1.1-1.9c-0.5-0.5-1.1-1-1.8-1.3c-0.7-0.3-1.5-0.5-2.4-0.5
	c-0.9,0-1.7,0.2-2.4,0.5c-0.7,0.3-1.3,0.8-1.8,1.3c-0.5,0.5-0.9,1.2-1.1,1.9c-0.3,0.7-0.4,1.5-0.4,2.4c0,0.8,0.1,1.6,0.4,2.4
	c0.3,0.7,0.6,1.4,1.1,1.9c0.5,0.6,1.1,1,1.8,1.3C181.7,127.1,182.5,127.2,183.4,127.2z M183.4,125.6c-0.6,0-1.2-0.1-1.7-0.4
	c-0.5-0.2-0.9-0.6-1.2-1c-0.3-0.4-0.6-0.9-0.7-1.4c-0.2-0.5-0.3-1.1-0.3-1.7c0-0.6,0.1-1.2,0.3-1.7c0.2-0.5,0.4-1,0.7-1.4
	c0.3-0.4,0.7-0.7,1.2-1c0.5-0.2,1-0.4,1.7-0.4c0.6,0,1.2,0.1,1.6,0.4c0.5,0.2,0.9,0.6,1.2,1c0.3,0.4,0.6,0.9,0.7,1.4
	c0.2,0.5,0.3,1.1,0.3,1.7c0,0.6-0.1,1.2-0.3,1.7c-0.2,0.5-0.4,1-0.7,1.4c-0.3,0.4-0.7,0.7-1.2,1C184.5,125.5,184,125.6,183.4,125.6z
	"/>
<path fill="#FFFFFF" d="M202.1,126.9h1.8l3.7-11.6h-1.9l-2.8,9.2l-3-9.2h-1.5l-3,9.2l-2.8-9.2h-1.9l3.7,11.6h1.8l3-9.3L202.1,126.9z
	"/>
<path fill="#FFFFFF" d="M214.9,127.2c1,0,1.8-0.2,2.6-0.5c0.8-0.3,1.4-0.7,2-1.3l-0.9-1.2c-0.5,0.5-1,0.8-1.6,1.1
	c-0.6,0.3-1.3,0.4-1.9,0.4c-0.6,0-1.2-0.1-1.7-0.3c-0.5-0.2-0.9-0.5-1.3-0.9c-0.4-0.4-0.6-0.8-0.9-1.3c-0.2-0.5-0.3-1-0.4-1.5h9.4
	v-0.5c0-0.9-0.1-1.7-0.4-2.4s-0.6-1.4-1.1-2c-0.5-0.6-1.1-1-1.8-1.3c-0.7-0.3-1.5-0.5-2.4-0.5c-0.8,0-1.6,0.2-2.3,0.5
	c-0.7,0.3-1.3,0.8-1.8,1.3c-0.5,0.5-0.9,1.2-1.2,1.9c-0.3,0.7-0.4,1.5-0.4,2.4c0,0.9,0.1,1.7,0.4,2.5c0.3,0.7,0.7,1.4,1.2,1.9
	c0.5,0.5,1.1,1,1.9,1.2C213.2,127.1,214,127.2,214.9,127.2z M218.5,120.4h-7.6c0-0.4,0.1-0.9,0.3-1.4s0.4-0.9,0.7-1.2
	c0.3-0.4,0.7-0.7,1.2-0.9c0.5-0.2,1-0.4,1.6-0.4c0.7,0,1.2,0.1,1.7,0.4c0.5,0.2,0.9,0.5,1.2,0.9c0.3,0.4,0.5,0.8,0.7,1.2
	C218.4,119.5,218.5,120,218.5,120.4z"/>
<path fill="#FFFFFF" d="M223.2,126.9h1.8v-8.2c0.1-0.2,0.3-0.5,0.6-0.7c0.2-0.2,0.5-0.4,0.8-0.6c0.3-0.2,0.6-0.3,0.9-0.4
	c0.3-0.1,0.6-0.2,0.9-0.2c0.3,0,0.5,0,0.7,0.1v-1.8c-0.8,0-1.5,0.2-2.2,0.6c-0.7,0.4-1.2,0.9-1.7,1.5v-1.9h-1.8V126.9z"/>
</svg>
