<?xml version="1.0" encoding="utf-8"?>
<!-- Generator: Adobe Illustrator 18.1.1, SVG Export Plug-In . SVG Version: 6.00 Build 0)  -->
<svg version="1.1" id="Layer_1" xmlns="http://www.w3.org/2000/svg" xmlns:xlink="http://www.w3.org/1999/xlink" x="0px" y="0px"
	 viewBox="0 0 494.6 36" enable-background="new 0 0 494.6 36" xml:space="preserve">
<polygon fill="#FFFFFF" points="0,0 0,36 221.7,36 246.7,0 "/>
<polygon fill="#FFFFFF" points="490.5,0 465.5,36 469.6,36 494.6,0 "/>
<polygon fill="#FFFFFF" points="467,0 442,36 450.6,36 475.6,0 "/>
<polygon fill="#FFFFFF" points="438.7,0 413.7,36 428.2,36 453.1,0 "/>
<polygon fill="#FFFFFF" points="406.1,0 381.1,36 404.1,36 429.1,0 "/>
<polygon fill="#FFFFFF" points="364.7,0 339.7,36 374.3,36 399.3,0 "/>
<polygon fill="#FFFFFF" points="312.4,0 287.4,36 334.8,36 359.8,0 "/>
<polygon fill="#FFFFFF" points="251,0 226,36 282.9,36 307.9,0 "/>
</svg>
