<?xml version="1.0" encoding="utf-8"?>
<!-- Generator: Adobe Illustrator 18.1.1, SVG Export Plug-In . SVG Version: 6.00 Build 0)  -->
<svg version="1.1" id="Layer_1" xmlns="http://www.w3.org/2000/svg" xmlns:xlink="http://www.w3.org/1999/xlink" x="0px" y="0px"
	 width="1573.5px" height="26.2px" viewBox="0 0 1573.5 26.2" enable-background="new 0 0 1573.5 26.2" xml:space="preserve">
<path fill="#FFFFFF" d="M0,21.2h4.9v-8.7h6.7v-4H4.9V4.4h7.2v-4H0V21.2z"/>
<path fill="#FFFFFF" d="M18.8,3.8h1.5c2,0,2.5,1,2.5,2.6c0,1.2-0.5,2.7-2.5,2.7h-1.5V3.8z M13.9,21.2h4.9v-8.6h1.9
	c1.5,0,2,0.8,2,4.4c0,2.4,0.1,3.5,0.5,4.2h5.3V21c-0.7-0.3-0.8-0.7-0.9-4.8c-0.1-2.8-0.2-4.8-3.4-5.2v-0.1c2.3-0.6,3.5-2,3.5-5.1
	c0-2.9-1.4-5.4-5.6-5.4h-8.2V21.2z"/>
<path fill="#FFFFFF" d="M34.7,10.8c0-5.7,0.3-7.6,2.2-7.6c2,0,2.3,1.8,2.3,7.6S39,18.4,37,18.4C35,18.4,34.7,16.5,34.7,10.8z
	 M44.3,10.8C44.3,5,43.9,0,37,0c-6.5,0-7.3,4.2-7.3,10.8c0,6.6,0.9,10.8,7.3,10.8C43.9,21.6,44.3,16.6,44.3,10.8z"/>
<path fill="#FFFFFF" d="M46.7,21.2h4.4V5h0.1l3.4,16.2h3.8L61.5,5h0.1v16.2h4.6V0.4H59l-2.5,13.7h-0.1L53.9,0.4h-7.2V21.2z"/>
<path fill="#FFFFFF" d="M85.5,13.5H82l1.7-9.3h0.1L85.5,13.5z M75.5,21.2h5.1l0.7-4h5l0.8,4h5.1L86.9,0.4h-6.1L75.5,21.2z"/>
<path fill="#FFFFFF" d="M93.8,21.2h4.9V0.4h-4.9V21.2z"/>
<path fill="#FFFFFF" d="M106.3,3.8h1.5c2,0,2.5,1,2.5,2.6c0,1.2-0.5,2.7-2.5,2.7h-1.5V3.8z M101.4,21.2h4.9v-8.6h1.9
	c1.5,0,2,0.8,2,4.4c0,2.4,0.1,3.5,0.5,4.2h5.3V21c-0.7-0.3-0.8-0.7-0.9-4.8c-0.1-2.8-0.2-4.8-3.4-5.2v-0.1c2.3-0.6,3.5-2,3.5-5.1
	c0-2.9-1.4-5.4-5.6-5.4h-8.2V21.2z"/>
<path fill="#FFFFFF" d="M125.8,21.2h4.9v-8.7h6.7v-4h-6.7V4.4h7.2v-4h-12.1V21.2z"/>
<path fill="#FFFFFF" d="M139.7,21.2h4.9V0.4h-4.9V21.2z"/>
<path fill="#FFFFFF" d="M147.4,21.2h12v-4h-7.1V0.4h-4.9V21.2z"/>
<path fill="#FFFFFF" d="M162.4,21.2h4.9V4.4h4.4v-4H158v4h4.4V21.2z"/>
<path fill="#FFFFFF" d="M173.3,21.2h12.4v-4h-7.5v-4.8h6.7v-4h-6.7V4.4h7.2v-4h-12.1V21.2z"/>
<path fill="#FFFFFF" d="M192.7,3.8h1.5c2,0,2.5,1,2.5,2.6c0,1.2-0.5,2.7-2.5,2.7h-1.5V3.8z M187.8,21.2h4.9v-8.6h1.9
	c1.5,0,2,0.8,2,4.4c0,2.4,0.1,3.5,0.5,4.2h5.3V21c-0.7-0.3-0.8-0.7-0.9-4.8c-0.1-2.8-0.2-4.8-3.4-5.2v-0.1c2.3-0.6,3.5-2,3.5-5.1
	c0-2.9-1.4-5.4-5.6-5.4h-8.2V21.2z"/>
<path fill="#FFFFFF" d="M203.5,14.9v1.3c0,4.3,3.3,5.4,6.9,5.4c4.5,0,7.1-1.9,7.1-6.6c0-7.3-9-5.2-9-9.5c0-1.5,0.7-2.2,2-2.2
	c0.7,0,1.2,0.2,1.5,0.7c0.3,0.5,0.4,1.2,0.4,2.2h4.7V5.7c0-3.2-1.8-5.7-6.7-5.7c-5.1,0-6.8,2.8-6.8,6.1c0,7.8,9,5.3,9,9.8
	c0,1.2-0.5,2.5-2.2,2.5c-1.7,0-2.1-1.2-2.1-2.8v-0.7H203.5z"/>
<path fill="#FFFFFF" d="M230.5,21.2h4.9V4.4h4.4v-4h-13.7v4h4.4V21.2z"/>
<path fill="#FFFFFF" d="M246,10.8c0-5.7,0.3-7.6,2.2-7.6c2,0,2.3,1.8,2.3,7.6s-0.3,7.6-2.3,7.6C246.3,18.4,246,16.5,246,10.8z
	 M255.6,10.8c0-5.8-0.4-10.8-7.3-10.8c-6.5,0-7.3,4.2-7.3,10.8c0,6.6,0.9,10.8,7.3,10.8C255.2,21.6,255.6,16.6,255.6,10.8z"/>
<path fill="#FFFFFF" d="M257.5,21.2h4.6V16h-4.6V21.2z"/>
<path fill="#FFFFFF" d="M264.8,21.2h4.6V16h-4.6V21.2z"/>
<path fill="#FFFFFF" d="M272.1,21.2h4.6V16h-4.6V21.2z"/>
<path fill="#FFFFFF" d="M303.5,13.5h-3.6l1.7-9.3h0.1L303.5,13.5z M293.4,21.2h5.1l0.7-4h5l0.8,4h5.1l-5.2-20.8h-6.1L293.4,21.2z"/>
<path fill="#FFFFFF" d="M311,21.2h5.4l2.5-6.9l2.5,6.9h5.6l-5.2-10.6l4.8-10.2h-5.4l-2.1,6.4H319l-2.1-6.4h-5.4l4.6,10.2L311,21.2z"
	/>
<path fill="#FFFFFF" d="M328.7,21.2h12v-4h-7.1V0.4h-4.9V21.2z"/>
<path fill="#FFFFFF" d="M342.3,21.2h12.4v-4h-7.5v-4.8h6.7v-4h-6.7V4.4h7.2v-4h-12.1V21.2z"/>
<path fill="#FFFFFF" d="M363.8,14.9v1.3c0,4.3,3.3,5.4,6.9,5.4c4.5,0,7.1-1.9,7.1-6.6c0-7.3-9-5.2-9-9.5c0-1.5,0.7-2.2,2-2.2
	c0.7,0,1.2,0.2,1.5,0.7c0.3,0.5,0.4,1.2,0.4,2.2h4.7V5.7c0-3.2-1.8-5.7-6.7-5.7c-5.1,0-6.8,2.8-6.8,6.1c0,7.8,9,5.3,9,9.8
	c0,1.2-0.5,2.5-2.2,2.5c-1.7,0-2.1-1.2-2.1-2.8v-0.7H363.8z"/>
<path fill="#FFFFFF" d="M379.8,21.2h12.4v-4h-7.5v-4.8h6.7v-4h-6.7V4.4h7.2v-4h-12.1V21.2z"/>
<path fill="#FFFFFF" d="M403.5,13.5h-3.6l1.7-9.3h0.1L403.5,13.5z M393.4,21.2h5.1l0.7-4h5l0.8,4h5.1l-5.2-20.8h-6.1L393.4,21.2z"/>
<path fill="#FFFFFF" d="M411.7,21.2h12v-4h-7.1V0.4h-4.9V21.2z"/>
<path fill="#FFFFFF" d="M425.7,21h1.8c0,1.9-0.5,2.8-1.8,2.8v2.3c4-0.2,4.6-2.9,4.6-5.8V16h-4.6V21z"/>
<path fill="#FFFFFF" d="M454.3,7.6V6.8c0-4.9-2.4-6.8-6.7-6.8c-7,0-7.2,5.3-7.2,10.7c0,6.3,0.5,11,6.8,11c6.1,0,7.3-3.4,7.3-7.8
	v-0.7h-4.7c0,3.2-0.2,5.3-2,5.3c-2,0-2.2-1.6-2.2-7.8c0-5.5,0.2-7.3,2.1-7.3c1.6,0,2,1.3,2,4.4H454.3z"/>
<path fill="#FFFFFF" d="M461.4,3.8h1.5c2,0,2.5,1,2.5,2.6c0,1.2-0.5,2.7-2.5,2.7h-1.5V3.8z M456.5,21.2h4.9v-8.6h1.9
	c1.5,0,2,0.8,2,4.4c0,2.4,0.1,3.5,0.5,4.2h5.3V21c-0.7-0.3-0.8-0.7-0.9-4.8c-0.1-2.8-0.2-4.8-3.4-5.2v-0.1c2.3-0.6,3.5-2,3.5-5.1
	c0-2.9-1.4-5.4-5.6-5.4h-8.2V21.2z"/>
<path fill="#FFFFFF" d="M482.4,13.5h-3.6l1.7-9.3h0.1L482.4,13.5z M472.3,21.2h5.1l0.7-4h5l0.8,4h5.1l-5.2-20.8h-6.1L472.3,21.2z"/>
<path fill="#FFFFFF" d="M490.6,21.2h4.4V6.9h0.1l4.3,14.3h5.5V0.4h-4.6v13.5h-0.1l-4-13.5h-5.6V21.2z"/>
<path fill="#FFFFFF" d="M507.6,21.2h4.9v-5.8l1.3-2l3.8,7.8h5.5L517,9.4l5.5-9h-5.3l-4.6,8.2h-0.1V0.4h-4.9V21.2z"/>
<path fill="#FFFFFF" d="M531.3,14.9v1.3c0,4.3,3.3,5.4,6.9,5.4c4.5,0,7.1-1.9,7.1-6.6c0-7.3-9-5.2-9-9.5c0-1.5,0.7-2.2,2-2.2
	c0.7,0,1.2,0.2,1.5,0.7c0.3,0.5,0.4,1.2,0.4,2.2h4.7V5.7c0-3.2-1.8-5.7-6.7-5.7c-5.1,0-6.8,2.8-6.8,6.1c0,7.8,9,5.3,9,9.8
	c0,1.2-0.5,2.5-2.2,2.5c-1.7,0-2.1-1.2-2.1-2.8v-0.7H531.3z"/>
<path fill="#FFFFFF" d="M547.3,21.2h12.4v-4h-7.5v-4.8h6.7v-4h-6.7V4.4h7.2v-4h-12.1V21.2z"/>
<path fill="#FFFFFF" d="M561.8,21.2h4.4V6.9h0.1l4.3,14.3h5.5V0.4h-4.6v13.5h-0.1l-4-13.5h-5.6V21.2z"/>
<path fill="#FFFFFF" d="M578.2,14.9v1.3c0,4.3,3.3,5.4,6.9,5.4c4.5,0,7.1-1.9,7.1-6.6c0-7.3-9-5.2-9-9.5c0-1.5,0.7-2.2,2-2.2
	c0.7,0,1.2,0.2,1.5,0.7c0.3,0.5,0.4,1.2,0.4,2.2h4.7V5.7c0-3.2-1.8-5.7-6.7-5.7c-5.1,0-6.8,2.8-6.8,6.1c0,7.8,9,5.3,9,9.8
	c0,1.2-0.5,2.5-2.2,2.5c-1.7,0-2.1-1.2-2.1-2.8v-0.7H578.2z"/>
<path fill="#FFFFFF" d="M599,10.8c0-5.7,0.3-7.6,2.2-7.6c2,0,2.3,1.8,2.3,7.6s-0.3,7.6-2.3,7.6C599.3,18.4,599,16.5,599,10.8z
	 M608.6,10.8c0-5.8-0.4-10.8-7.3-10.8c-6.5,0-7.3,4.2-7.3,10.8c0,6.6,0.9,10.8,7.3,10.8C608.2,21.6,608.6,16.6,608.6,10.8z"/>
<path fill="#FFFFFF" d="M615.8,3.8h1.5c2,0,2.5,1,2.5,2.6c0,1.2-0.5,2.7-2.5,2.7h-1.5V3.8z M610.9,21.2h4.9v-8.6h1.9
	c1.5,0,2,0.8,2,4.4c0,2.4,0.1,3.5,0.5,4.2h5.3V21c-0.7-0.3-0.8-0.7-0.9-4.8c-0.1-2.8-0.2-4.8-3.4-5.2v-0.1c2.3-0.6,3.5-2,3.5-5.1
	c0-2.9-1.4-5.4-5.6-5.4h-8.2V21.2z"/>
<path fill="#FFFFFF" d="M626.6,14.9v1.3c0,4.3,3.3,5.4,6.9,5.4c4.5,0,7.1-1.9,7.1-6.6c0-7.3-9-5.2-9-9.5c0-1.5,0.7-2.2,2-2.2
	c0.7,0,1.2,0.2,1.5,0.7c0.3,0.5,0.4,1.2,0.4,2.2h4.7V5.7c0-3.2-1.8-5.7-6.7-5.7c-5.1,0-6.8,2.8-6.8,6.1c0,7.8,9,5.3,9,9.8
	c0,1.2-0.5,2.5-2.2,2.5c-1.7,0-2.1-1.2-2.1-2.8v-0.7H626.6z"/>
<path fill="#FFFFFF" d="M642.6,21h1.8c0,1.9-0.5,2.8-1.8,2.8v2.3c4-0.2,4.6-2.9,4.6-5.8V16h-4.6V21z"/>
<path fill="#FFFFFF" d="M657.8,21.2h6.8c6.5,0,7.4-3.5,7.4-11.1c0-7.2-2.1-9.7-6.9-9.7h-7.3V21.2z M662.7,4h1.4c2.6,0,3,1.4,3,6.4
	c0,6.2-0.8,7.1-3.1,7.1h-1.3V4z"/>
<path fill="#FFFFFF" d="M679.2,3.8h1.5c2,0,2.5,1,2.5,2.6c0,1.2-0.5,2.7-2.5,2.7h-1.5V3.8z M674.3,21.2h4.9v-8.6h1.9
	c1.5,0,2,0.8,2,4.4c0,2.4,0.1,3.5,0.5,4.2h5.3V21c-0.7-0.3-0.8-0.7-0.9-4.8c-0.1-2.8-0.2-4.8-3.4-5.2v-0.1c2.3-0.6,3.5-2,3.5-5.1
	c0-2.9-1.4-5.4-5.6-5.4h-8.2V21.2z"/>
<path fill="#FFFFFF" d="M690.9,21.2h4.9V0.4h-4.9V21.2z"/>
<path fill="#FFFFFF" d="M698.5,21.2h4.9v-8.1h2.2c4.9,0,6.7-2.6,6.7-6.4c0-2.6-1-6.3-6.2-6.3h-7.6V21.2z M703.4,4h1.3
	c2,0,2.5,1.2,2.5,2.8c0,1.4-0.5,2.6-2.4,2.6h-1.3V4z"/>
<path fill="#FFFFFF" d="M722.4,21.2h4.9v-8.1h2.2c4.9,0,6.7-2.6,6.7-6.4c0-2.6-1-6.3-6.2-6.3h-7.6V21.2z M727.3,4h1.3
	c2,0,2.5,1.2,2.5,2.8c0,1.4-0.5,2.6-2.4,2.6h-1.3V4z"/>
<path fill="#FFFFFF" d="M745.8,13.5h-3.6l1.7-9.3h0.1L745.8,13.5z M735.8,21.2h5.1l0.7-4h5l0.8,4h5.1l-5.2-20.8h-6.1L735.8,21.2z"/>
<path fill="#FFFFFF" d="M754,21.2h4.4V6.9h0.1l4.3,14.3h5.5V0.4h-4.6v13.5h-0.1l-4-13.5H754V21.2z"/>
<path fill="#FFFFFF" d="M770.4,14.9v1.3c0,4.3,3.3,5.4,6.9,5.4c4.5,0,7.1-1.9,7.1-6.6c0-7.3-9-5.2-9-9.5c0-1.5,0.7-2.2,2-2.2
	c0.7,0,1.2,0.2,1.5,0.7c0.3,0.5,0.4,1.2,0.4,2.2h4.7V5.7c0-3.2-1.8-5.7-6.7-5.7c-5.1,0-6.8,2.8-6.8,6.1c0,7.8,9,5.3,9,9.8
	c0,1.2-0.5,2.5-2.2,2.5c-1.7,0-2.1-1.2-2.1-2.8v-0.7H770.4z"/>
<path fill="#FFFFFF" d="M786.5,21h1.8c0,1.9-0.5,2.8-1.8,2.8v2.3c4-0.2,4.6-2.9,4.6-5.8V16h-4.6V21z"/>
<path fill="#FFFFFF" d="M801.7,21.2H814v-4h-7.5v-4.8h6.7v-4h-6.7V4.4h7.2v-4h-12.1V21.2z"/>
<path fill="#FFFFFF" d="M816.1,21.2h4.4V6.9h0.1l4.3,14.3h5.5V0.4h-4.6v13.5h-0.1l-4-13.5h-5.6V21.2z"/>
<path fill="#FFFFFF" d="M846.7,6.7c0-2.4-0.3-6.7-6.6-6.7c-7,0-7.4,4.4-7.4,11.3c0,6.5,0.9,10.4,6.1,10.4c1.9,0,3.7-0.5,4.5-2.4h0.1
	l0.1,2h3.4V10.1H840v3.3h2.3V14c0,2.9-0.6,4.4-2.2,4.4c-2,0-2.2-1.8-2.2-7.5c0-5.5,0.2-7.6,2.2-7.6c1.8,0,2,2.1,2,3.5H846.7z"/>
<path fill="#FFFFFF" d="M849.4,21.2h4.9V0.4h-4.9V21.2z"/>
<path fill="#FFFFFF" d="M857.1,21.2h4.4V6.9h0.1l4.3,14.3h5.5V0.4h-4.6v13.5h-0.1l-4-13.5h-5.6V21.2z"/>
<path fill="#FFFFFF" d="M874.1,21.2h12.4v-4H879v-4.8h6.7v-4H879V4.4h7.2v-4h-12.1V21.2z"/>
<path fill="#FFFFFF" d="M896.3,21.2h4.9v-8.1h2.2c4.9,0,6.7-2.6,6.7-6.4c0-2.6-1-6.3-6.2-6.3h-7.6V21.2z M901.2,4h1.3
	c2,0,2.5,1.2,2.5,2.8c0,1.4-0.5,2.6-2.4,2.6h-1.3V4z"/>
<path fill="#FFFFFF" d="M919.8,13.5h-3.6l1.7-9.3h0.1L919.8,13.5z M909.7,21.2h5.1l0.7-4h5l0.8,4h5.1l-5.2-20.8H915L909.7,21.2z"/>
<path fill="#FFFFFF" d="M928,21.2h4.9V0.4H928V21.2z"/>
<path fill="#FFFFFF" d="M935.7,21.2h4.4V6.9h0.1l4.3,14.3h5.5V0.4h-4.6v13.5h-0.1l-4-13.5h-5.6V21.2z"/>
<path fill="#FFFFFF" d="M956,21.2h4.9V4.4h4.4v-4h-13.7v4h4.4V21.2z"/>
<path fill="#FFFFFF" d="M965.1,21h1.8c0,1.9-0.5,2.8-1.8,2.8v2.3c4-0.2,4.6-2.9,4.6-5.8V16h-4.6V21z"/>
<path fill="#FFFFFF" d="M980.3,21.2h12v-4h-7.1V0.4h-4.9V21.2z"/>
<path fill="#FFFFFF" d="M993.9,21.2h12.4v-4h-7.5v-4.8h6.7v-4h-6.7V4.4h7.2v-4h-12.1V21.2z"/>
<path fill="#FFFFFF" d="M1017.5,13.5h-3.6l1.7-9.3h0.1L1017.5,13.5z M1007.5,21.2h5.1l0.7-4h5l0.8,4h5.1l-5.2-20.8h-6.1L1007.5,21.2
	z"/>
<path fill="#FFFFFF" d="M1025.7,21.2h4.9v-5.8l1.3-2l3.8,7.8h5.5l-6.1-11.8l5.5-9h-5.3l-4.6,8.2h-0.1V0.4h-4.9V21.2z"/>
<path fill="#FFFFFF" d="M1050.1,21.2h6.8c6.5,0,7.4-3.5,7.4-11.1c0-7.2-2.1-9.7-6.9-9.7h-7.3V21.2z M1055,4h1.4c2.6,0,3,1.4,3,6.4
	c0,6.2-0.8,7.1-3.1,7.1h-1.3V4z"/>
<path fill="#FFFFFF" d="M1066.6,21.2h12.4v-4h-7.5v-4.8h6.7v-4h-6.7V4.4h7.2v-4h-12.1V21.2z"/>
<path fill="#FFFFFF" d="M1084.4,21.2h4.9V4.4h4.4v-4h-13.7v4h4.4V21.2z"/>
<path fill="#FFFFFF" d="M1095.4,21.2h12.4v-4h-7.5v-4.8h6.7v-4h-6.7V4.4h7.2v-4h-12.1V21.2z"/>
<path fill="#FFFFFF" d="M1123.1,7.6V6.8c0-4.9-2.4-6.8-6.7-6.8c-7,0-7.2,5.3-7.2,10.7c0,6.3,0.5,11,6.8,11c6.1,0,7.3-3.4,7.3-7.8
	v-0.7h-4.7c0,3.2-0.2,5.3-2,5.3c-2,0-2.2-1.6-2.2-7.8c0-5.5,0.2-7.3,2.1-7.3c1.6,0,2,1.3,2,4.4H1123.1z"/>
<path fill="#FFFFFF" d="M1128.7,21.2h4.9V4.4h4.4v-4h-13.7v4h4.4V21.2z"/>
<path fill="#FFFFFF" d="M1144.2,10.8c0-5.7,0.3-7.6,2.2-7.6c2,0,2.3,1.8,2.3,7.6s-0.3,7.6-2.3,7.6
	C1144.5,18.4,1144.2,16.5,1144.2,10.8z M1153.8,10.8c0-5.8-0.4-10.8-7.3-10.8c-6.5,0-7.3,4.2-7.3,10.8c0,6.6,0.9,10.8,7.3,10.8
	C1153.4,21.6,1153.8,16.6,1153.8,10.8z"/>
<path fill="#FFFFFF" d="M1161.1,3.8h1.5c2,0,2.5,1,2.5,2.6c0,1.2-0.5,2.7-2.5,2.7h-1.5V3.8z M1156.2,21.2h4.9v-8.6h1.9
	c1.5,0,2,0.8,2,4.4c0,2.4,0.1,3.5,0.5,4.2h5.3V21c-0.7-0.3-0.8-0.7-0.9-4.8c-0.1-2.8-0.2-4.8-3.4-5.2v-0.1c2.3-0.6,3.5-2,3.5-5.1
	c0-2.9-1.4-5.4-5.6-5.4h-8.2V21.2z"/>
<path fill="#FFFFFF" d="M1171.9,14.9v1.3c0,4.3,3.3,5.4,6.9,5.4c4.5,0,7.1-1.9,7.1-6.6c0-7.3-9-5.2-9-9.5c0-1.5,0.7-2.2,2-2.2
	c0.7,0,1.2,0.2,1.5,0.7c0.3,0.5,0.4,1.2,0.4,2.2h4.7V5.7c0-3.2-1.8-5.7-6.7-5.7c-5.1,0-6.8,2.8-6.8,6.1c0,7.8,9,5.3,9,9.8
	c0,1.2-0.5,2.5-2.2,2.5c-1.7,0-2.1-1.2-2.1-2.8v-0.7H1171.9z"/>
<path fill="#FFFFFF" d="M1187.9,21h1.8c0,1.9-0.5,2.8-1.8,2.8v2.3c4-0.2,4.6-2.9,4.6-5.8V16h-4.6V21z"/>
<path fill="#FFFFFF" d="M1203.1,21.2h4.9v-5.8l1.3-2l3.8,7.8h5.5l-6.1-11.8l5.5-9h-5.3l-4.6,8.2h-0.1V0.4h-4.9V21.2z"/>
<path fill="#FFFFFF" d="M1220.1,21.2h4.9V0.4h-4.9V21.2z"/>
<path fill="#FFFFFF" d="M1227.8,21.2h12v-4h-7.1V0.4h-4.9V21.2z"/>
<path fill="#FFFFFF" d="M1241.4,21.2h12v-4h-7.1V0.4h-4.9V21.2z"/>
<path fill="#FFFFFF" d="M1261.8,14.9v1.3c0,4.3,3.3,5.4,6.9,5.4c4.5,0,7.1-1.9,7.1-6.6c0-7.3-9-5.2-9-9.5c0-1.5,0.7-2.2,2-2.2
	c0.7,0,1.2,0.2,1.5,0.7c0.3,0.5,0.4,1.2,0.4,2.2h4.7V5.7c0-3.2-1.8-5.7-6.7-5.7c-5.1,0-6.8,2.8-6.8,6.1c0,7.8,9,5.3,9,9.8
	c0,1.2-0.5,2.5-2.2,2.5c-1.7,0-2.1-1.2-2.1-2.8v-0.7H1261.8z"/>
<path fill="#FFFFFF" d="M1280.3,21.2h5.4l2-14.8h0.1l2.1,14.8h5.4l3.6-20.8h-4.7l-1.8,14.8h-0.1l-2.3-14.8h-4.6l-2.2,14.8h-0.1
	l-1.8-14.8h-4.9L1280.3,21.2z"/>
<path fill="#FFFFFF" d="M1300.7,21.2h4.9V0.4h-4.9V21.2z"/>
<path fill="#FFFFFF" d="M1311.7,21.2h4.9V4.4h4.4v-4h-13.7v4h4.4V21.2z"/>
<path fill="#FFFFFF" d="M1336.1,7.6V6.8c0-4.9-2.4-6.8-6.7-6.8c-7,0-7.2,5.3-7.2,10.7c0,6.3,0.5,11,6.8,11c6.1,0,7.3-3.4,7.3-7.8
	v-0.7h-4.7c0,3.2-0.2,5.3-2,5.3c-2,0-2.2-1.6-2.2-7.8c0-5.5,0.2-7.3,2.1-7.3c1.6,0,2,1.3,2,4.4H1336.1z"/>
<path fill="#FFFFFF" d="M1338.2,21.2h4.9v-8.9h3.9v8.9h4.9V0.4h-4.9v7.8h-3.9V0.4h-4.9V21.2z"/>
<path fill="#FFFFFF" d="M1354.7,21.2h12.4v-4h-7.5v-4.8h6.7v-4h-6.7V4.4h7.2v-4h-12.1V21.2z"/>
<path fill="#FFFFFF" d="M1368.7,14.9v1.3c0,4.3,3.3,5.4,6.9,5.4c4.5,0,7.1-1.9,7.1-6.6c0-7.3-9-5.2-9-9.5c0-1.5,0.7-2.2,2-2.2
	c0.7,0,1.2,0.2,1.5,0.7c0.3,0.5,0.4,1.2,0.4,2.2h4.7V5.7c0-3.2-1.8-5.7-6.7-5.7c-5.1,0-6.8,2.8-6.8,6.1c0,7.8,9,5.3,9,9.8
	c0,1.2-0.5,2.5-2.2,2.5c-1.7,0-2.1-1.2-2.1-2.8v-0.7H1368.7z"/>
<path fill="#FFFFFF" d="M1384.7,21h1.8c0,1.9-0.5,2.8-1.8,2.8v2.3c4-0.2,4.6-2.9,4.6-5.8V16h-4.6V21z"/>
<path opacity="0.9" fill="#FFFFFF" d="M1402.2,21.2h5.4l2-14.8h0.1l2.1,14.8h5.4l3.6-20.8h-4.7l-1.8,14.8h-0.1L1412,0.4h-4.6
	l-2.2,14.8h-0.1l-1.8-14.8h-4.9L1402.2,21.2z"/>
<path opacity="0.8" fill="#FFFFFF" d="M1430.2,13.5h-3.6l1.7-9.3h0.1L1430.2,13.5z M1420.1,21.2h5.1l0.7-4h5l0.8,4h5.1l-5.2-20.8
	h-6.1L1420.1,21.2z"/>
<path opacity="0.7" fill="#FFFFFF" d="M1440,21.2h4.9V4.4h4.4v-4h-13.7v4h4.4V21.2z"/>
<path opacity="0.6" fill="#FFFFFF" d="M1450.9,21.2h12.4v-4h-7.5v-4.8h6.7v-4h-6.7V4.4h7.2v-4h-12.1V21.2z"/>
<path opacity="0.5" fill="#FFFFFF" d="M1470.3,3.8h1.5c2,0,2.5,1,2.5,2.6c0,1.2-0.5,2.7-2.5,2.7h-1.5V3.8z M1465.4,21.2h4.9v-8.6
	h1.9c1.5,0,2,0.8,2,4.4c0,2.4,0.1,3.5,0.5,4.2h5.3V21c-0.7-0.3-0.8-0.7-0.9-4.8c-0.1-2.8-0.2-4.8-3.4-5.2v-0.1
	c2.3-0.6,3.5-2,3.5-5.1c0-2.9-1.4-5.4-5.6-5.4h-8.2V21.2z"/>
<path opacity="0.4" fill="#FFFFFF" d="M1489.7,21.2h4.9v-8.1h2.2c4.9,0,6.7-2.6,6.7-6.4c0-2.6-1-6.3-6.2-6.3h-7.6V21.2z M1494.6,4
	h1.3c2,0,2.5,1.2,2.5,2.8c0,1.4-0.5,2.6-2.4,2.6h-1.3V4z"/>
<path opacity="0.3" fill="#FFFFFF" d="M1519.1,0.4h-4.9v15.4c0,1.6-0.6,2.6-2,2.6c-1.3,0-2-1-2-2.6V0.4h-4.9v13.9
	c0,4.1,1.2,7.3,6.9,7.3c5.7,0,6.9-3.2,6.9-7.3V0.4z"/>
<path opacity="0.2" fill="#FFFFFF" d="M1521.8,21.2h4.4V5h0.1l3.4,16.2h3.8l3.2-16.2h0.1v16.2h4.6V0.4h-7.1l-2.5,13.7h-0.1L1529,0.4
	h-7.2V21.2z"/>
<path opacity="0.1" fill="#FFFFFF" d="M1544,21.2h4.9v-8.1h2.2c4.9,0,6.7-2.6,6.7-6.4c0-2.6-1-6.3-6.2-6.3h-7.6V21.2z M1549,4h1.3
	c2,0,2.5,1.2,2.5,2.8c0,1.4-0.5,2.6-2.4,2.6h-1.3V4z"/>
<path opacity="0" fill="#FFFFFF" d="M1559.5-15.1v1.3c0,4.3,3.3,5.4,6.9,5.4c4.5,0,7.1-1.9,7.1-6.6c0-7.3-9-5.2-9-9.5
	c0-1.5,0.7-2.2,2-2.2c0.7,0,1.2,0.2,1.5,0.7c0.3,0.5,0.4,1.2,0.4,2.2h4.7v-0.5c0-3.2-1.8-5.7-6.7-5.7c-5.1,0-6.8,2.8-6.8,6.1
	c0,7.8,9,5.3,9,9.8c0,1.2-0.5,2.5-2.2,2.5c-1.7,0-2.1-1.2-2.1-2.8v-0.7H1559.5z"/>
</svg>
