<?xml version="1.0" encoding="utf-8"?>
<!-- Generator: Adobe Illustrator 18.1.1, SVG Export Plug-In . SVG Version: 6.00 Build 0)  -->
<svg version="1.1" id="Layer_1" xmlns="http://www.w3.org/2000/svg" xmlns:xlink="http://www.w3.org/1999/xlink" x="0px" y="0px"
	 width="283.8px" height="30.2px" viewBox="0 0 283.8 30.2" enable-background="new 0 0 283.8 30.2" xml:space="preserve">
<path fill="#FFFFFF" d="M1.5,29.6h6.9V17.5h9.4v-5.5H8.3V6.1h10V0.6H1.5V29.6z"/>
<path fill="#FFFFFF" d="M27.3,15.1c0-8,0.4-10.5,3.1-10.5c2.8,0,3.2,2.6,3.2,10.5c0,8-0.4,10.5-3.2,10.5
	C27.7,25.6,27.3,23.1,27.3,15.1z M40.7,15.1C40.7,7,40.2,0,30.5,0c-9,0-10.2,5.9-10.2,15.1c0,9.2,1.2,15.1,10.2,15.1
	C40.2,30.2,40.7,23.2,40.7,15.1z"/>
<path fill="#FFFFFF" d="M50.9,5.4h2.1c2.7,0,3.6,1.5,3.6,3.7c0,1.7-0.7,3.8-3.5,3.8h-2.1V5.4z M44,29.6h6.9v-12h2.6
	c2.2,0,2.9,1.1,2.9,6.1c0,3.3,0.2,4.9,0.7,5.9h7.4v-0.4c-1-0.4-1.2-1-1.3-6.7c-0.1-3.9-0.3-6.6-4.7-7.2v-0.1
	c3.2-0.8,4.9-2.8,4.9-7.1c0-4-2-7.6-7.8-7.6H44V29.6z"/>
<path fill="#FFFFFF" d="M78.2,29.6h6.1V7h0.1l4.7,22.6h5.3L98.9,7H99v22.6h6.4V0.6h-9.9L92,19.7h-0.1L88.3,0.6h-10V29.6z"/>
<path fill="#FFFFFF" d="M115.8,15.1c0-8,0.4-10.5,3.1-10.5c2.8,0,3.2,2.6,3.2,10.5c0,8-0.4,10.5-3.2,10.5
	C116.2,25.6,115.8,23.1,115.8,15.1z M129.2,15.1C129.2,7,128.7,0,119,0c-9,0-10.2,5.9-10.2,15.1c0,9.2,1.2,15.1,10.2,15.1
	C128.7,30.2,129.2,23.2,129.2,15.1z"/>
<path fill="#FFFFFF" d="M139.3,5.4h2.1c2.7,0,3.6,1.5,3.6,3.7c0,1.7-0.7,3.8-3.5,3.8h-2.1V5.4z M132.5,29.6h6.9v-12h2.6
	c2.2,0,2.9,1.1,2.9,6.1c0,3.3,0.2,4.9,0.7,5.9h7.4v-0.4c-1-0.4-1.2-1-1.3-6.7c-0.1-3.9-0.3-6.6-4.7-7.2v-0.1
	c3.2-0.8,4.9-2.8,4.9-7.1c0-4-2-7.6-7.8-7.6h-11.5V29.6z"/>
<path fill="#FFFFFF" d="M155.6,29.6h17.3v-5.5h-10.4v-6.6h9.4v-5.5h-9.4V6.1h10V0.6h-16.9V29.6z"/>
<path fill="#FFFFFF" d="M205.4,10.7V9.4c0-6.8-3.3-9.4-9.3-9.4c-9.7,0-10.1,7.4-10.1,14.9c0,8.8,0.7,15.3,9.5,15.3
	c8.5,0,10.2-4.7,10.2-11v-1H199c0,4.5-0.3,7.4-2.9,7.4c-2.9,0-3.1-2.2-3.1-10.9c0-7.6,0.2-10.2,3-10.2c2.3,0,2.8,1.9,2.8,6.1H205.4z
	"/>
<path fill="#FFFFFF" d="M220.4,18.8h-5l2.4-12.9h0.1L220.4,18.8z M206.3,29.6h7.1l1-5.5h7l1.1,5.5h7.1l-7.3-29.1h-8.6L206.3,29.6z"
	/>
<path fill="#FFFFFF" d="M238.7,5.4h2.1c2.7,0,3.6,1.5,3.6,3.7c0,1.7-0.7,3.8-3.5,3.8h-2.1V5.4z M231.9,29.6h6.9v-12h2.6
	c2.2,0,2.9,1.1,2.9,6.1c0,3.3,0.2,4.9,0.7,5.9h7.4v-0.4c-1-0.4-1.2-1-1.3-6.7c-0.1-3.9-0.3-6.6-4.7-7.2v-0.1
	c3.2-0.8,4.9-2.8,4.9-7.1c0-4-2-7.6-7.8-7.6h-11.5V29.6z"/>
<path fill="#FFFFFF" d="M253.8,20.8v1.9c0,6.1,4.6,7.6,9.6,7.6c6.3,0,10-2.6,10-9.2c0-10.3-12.5-7.2-12.5-13.3c0-2.1,1-3.1,2.7-3.1
	c1,0,1.7,0.3,2.1,1c0.4,0.7,0.6,1.7,0.6,3.1h6.6V7.9c0-4.5-2.4-7.9-9.3-7.9c-7.1,0-9.5,3.9-9.5,8.5c0,10.9,12.5,7.4,12.5,13.6
	c0,1.7-0.7,3.5-3.1,3.5c-2.4,0-3-1.7-3-3.9v-1H253.8z"/>
<path fill="#FFFFFF" d="M276.3,29.6h6.4v-7.3h-6.4V29.6z"/>
</svg>
