<?xml version="1.0" encoding="utf-8"?>
<!-- Generator: Adobe Illustrator 18.1.1, SVG Export Plug-In . SVG Version: 6.00 Build 0)  -->
<svg version="1.1" id="Layer_1" xmlns="http://www.w3.org/2000/svg" xmlns:xlink="http://www.w3.org/1999/xlink" x="0px" y="0px"
	 viewBox="0 0 244.5 21.6" enable-background="new 0 0 244.5 21.6" xml:space="preserve">
<path fill="#FFFFFF" d="M0,21.2h4.9V0.4H0V21.2z"/>
<path fill="#FFFFFF" d="M7.7,21.2h4.9v-8.7h6.7v-4h-6.7V4.4h7.2v-4H7.7V21.2z"/>
<path fill="#FFFFFF" d="M33.2,21.2h4.9V13l5.3-12.6h-5.3l-2.4,7.7h-0.1l-2.3-7.7h-5.4L33.2,13V21.2z"/>
<path fill="#FFFFFF" d="M48.8,10.8c0-5.7,0.3-7.6,2.2-7.6c2,0,2.3,1.8,2.3,7.6S53,18.4,51,18.4C49.1,18.4,48.8,16.5,48.8,10.8z
	 M58.4,10.8C58.4,5,58,0,51,0c-6.5,0-7.3,4.2-7.3,10.8c0,6.6,0.9,10.8,7.3,10.8C58,21.6,58.4,16.6,58.4,10.8z"/>
<path fill="#FFFFFF" d="M74.2,0.4h-4.9v15.4c0,1.6-0.6,2.6-2,2.6s-2-1-2-2.6V0.4h-4.9v13.9c0,4.1,1.2,7.3,6.9,7.3
	c5.7,0,6.9-3.2,6.9-7.3V0.4z"/>
<path fill="#FFFFFF" d="M84.6,21.2H89V6.9H89l4.3,14.3h5.5V0.4h-4.6v13.5h-0.1l-4-13.5h-5.6V21.2z"/>
<path fill="#FFFFFF" d="M101.6,21.2H114v-4h-7.5v-4.8h6.7v-4h-6.7V4.4h7.2v-4h-12.1V21.2z"/>
<path fill="#FFFFFF" d="M116.1,21.2h12.4v-4H121v-4.8h6.7v-4H121V4.4h7.2v-4h-12.1V21.2z"/>
<path fill="#FFFFFF" d="M130.5,21.2h6.8c6.5,0,7.4-3.5,7.4-11.1c0-7.2-2.1-9.7-6.9-9.7h-7.3V21.2z M135.4,4h1.4c2.6,0,3,1.4,3,6.4
	c0,6.2-0.8,7.1-3.1,7.1h-1.3V4z"/>
<path fill="#FFFFFF" d="M163.5,13.5h-3.6l1.7-9.3h0.1L163.5,13.5z M153.4,21.2h5.1l0.7-4h5l0.8,4h5.1l-5.2-20.8h-6.1L153.4,21.2z"/>
<path fill="#FFFFFF" d="M179.2,21.2h4.9v-8.1h2.2c4.9,0,6.7-2.6,6.7-6.4c0-2.6-1-6.3-6.2-6.3h-7.6V21.2z M184.1,4h1.3
	c2,0,2.5,1.2,2.5,2.8c0,1.4-0.5,2.6-2.4,2.6h-1.3V4z"/>
<path fill="#FFFFFF" d="M202.7,13.5h-3.6l1.7-9.3h0.1L202.7,13.5z M192.7,21.2h5.1l0.7-4h5l0.8,4h5.1l-5.2-20.8H198L192.7,21.2z"/>
<path fill="#FFFFFF" d="M215.8,3.8h1.5c2,0,2.5,1,2.5,2.6c0,1.2-0.5,2.7-2.5,2.7h-1.5V3.8z M210.9,21.2h4.9v-8.6h1.9
	c1.5,0,2,0.8,2,4.4c0,2.4,0.1,3.5,0.5,4.2h5.3V21c-0.7-0.3-0.8-0.7-0.9-4.8c-0.1-2.8-0.2-4.8-3.4-5.2v-0.1c2.3-0.6,3.5-2,3.5-5.1
	c0-2.9-1.4-5.4-5.6-5.4h-8.2V21.2z"/>
<path fill="#FFFFFF" d="M230.7,21.2h4.9V4.4h4.4v-4h-13.7v4h4.4V21.2z"/>
<path fill="#FFFFFF" d="M239.9,21.2h4.6V16h-4.6V21.2z"/>
</svg>
