<?xml version="1.0" encoding="utf-8"?>
<!-- Generator: Adobe Illustrator 18.1.1, SVG Export Plug-In . SVG Version: 6.00 Build 0)  -->
<svg version="1.1" id="Layer_1" xmlns="http://www.w3.org/2000/svg" xmlns:xlink="http://www.w3.org/1999/xlink" x="0px" y="0px"
	 width="253.7px" height="21.2px" viewBox="0 0 253.7 21.2" enable-background="new 0 0 253.7 21.2" xml:space="preserve">
<path fill="#FFFFFF" d="M3.7,20.8h5.4l2-14.8h0.1l2.1,14.8h5.4L22.4,0h-4.7l-1.8,14.8h-0.1L13.5,0H8.9L6.8,14.8H6.7L4.9,0H0
	L3.7,20.8z"/>
<path fill="#FFFFFF" d="M24.1,20.8h12.4v-4H29v-4.8h6.7v-4H29V4h7.2V0H24.1V20.8z"/>
<path fill="#FFFFFF" d="M46.3,20.8h4.9v-8.9h3.9v8.9H60V0h-4.9v7.8h-3.9V0h-4.9V20.8z"/>
<path fill="#FFFFFF" d="M71.7,13.1h-3.6l1.7-9.3h0.1L71.7,13.1z M61.6,20.8h5.1l0.7-4h5l0.8,4h5.1L73.1,0h-6.1L61.6,20.8z"/>
<path fill="#FFFFFF" d="M81.8,20.8H88L92.7,0h-5.3L85,16.1h-0.1L82.4,0h-5.3L81.8,20.8z"/>
<path fill="#FFFFFF" d="M94.4,20.8h12.4v-4h-7.5v-4.8h6.7v-4h-6.7V4h7.2V0H94.4V20.8z"/>
<path fill="#FFFFFF" d="M120.4,20.8h4.9v-8.2L130.6,0h-5.3L123,7.7h-0.1L120.6,0h-5.4l5.3,12.6V20.8z"/>
<path fill="#FFFFFF" d="M136,10.4c0-5.7,0.3-7.6,2.2-7.6c2,0,2.3,1.8,2.3,7.6s-0.3,7.6-2.3,7.6C136.3,18,136,16.1,136,10.4z
	 M145.6,10.4c0-5.8-0.4-10.8-7.3-10.8c-6.5,0-7.3,4.2-7.3,10.8c0,6.6,0.9,10.8,7.3,10.8C145.2,21.2,145.6,16.2,145.6,10.4z"/>
<path fill="#FFFFFF" d="M161.5,0h-4.9v15.4c0,1.6-0.6,2.6-2,2.6s-2-1-2-2.6V0h-4.9v13.9c0,4.1,1.2,7.3,6.9,7.3s6.9-3.2,6.9-7.3V0z"
	/>
<path fill="#FFFFFF" d="M169,3.4h1.5c2,0,2.5,1,2.5,2.6c0,1.2-0.5,2.7-2.5,2.7H169V3.4z M164.1,20.8h4.9v-8.6h1.9c1.5,0,2,0.8,2,4.4
	c0,2.4,0.1,3.5,0.5,4.2h5.3v-0.3c-0.7-0.3-0.8-0.7-0.9-4.8c-0.1-2.8-0.2-4.8-3.4-5.2v-0.1c2.3-0.6,3.5-2,3.5-5.1
	c0-2.9-1.4-5.4-5.6-5.4h-8.2V20.8z"/>
<path fill="#FFFFFF" d="M188.5,20.8h4.9v-8.1h2.2c4.9,0,6.7-2.6,6.7-6.4c0-2.6-1-6.3-6.2-6.3h-7.6V20.8z M193.4,3.6h1.3
	c2,0,2.5,1.2,2.5,2.8c0,1.4-0.5,2.6-2.4,2.6h-1.3V3.6z"/>
<path fill="#FFFFFF" d="M211.9,13.1h-3.6l1.7-9.3h0.1L211.9,13.1z M201.9,20.8h5.1l0.7-4h5l0.8,4h5.1L213.3,0h-6.1L201.9,20.8z"/>
<path fill="#FFFFFF" d="M225,3.4h1.5c2,0,2.5,1,2.5,2.6c0,1.2-0.5,2.7-2.5,2.7H225V3.4z M220.1,20.8h4.9v-8.6h1.9c1.5,0,2,0.8,2,4.4
	c0,2.4,0.1,3.5,0.5,4.2h5.3v-0.3c-0.7-0.3-0.8-0.7-0.9-4.8c-0.1-2.8-0.2-4.8-3.4-5.2v-0.1c2.3-0.6,3.5-2,3.5-5.1
	c0-2.9-1.4-5.4-5.6-5.4h-8.2V20.8z"/>
<path fill="#FFFFFF" d="M239.9,20.8h4.9V4h4.4V0h-13.7v4h4.4V20.8z"/>
<path fill="#FFFFFF" d="M249.1,20.8h4.6v-5.2h-4.6V20.8z"/>
</svg>
