<?xml version="1.0" encoding="utf-8"?>
<!-- Generator: Adobe Illustrator 18.1.1, SVG Export Plug-In . SVG Version: 6.00 Build 0)  -->
<svg version="1.1" id="Layer_1" xmlns="http://www.w3.org/2000/svg" xmlns:xlink="http://www.w3.org/1999/xlink" x="0px" y="0px"
	 viewBox="0 0 486 101" style="enable-background:new 0 0 486 101;" xml:space="preserve">
<line style="fill:none;stroke:#FFFFFF;stroke-miterlimit:10;" x1="159.3" y1="25.5" x2="159.3" y2="82.7"/>
<g>
	<g>
		<path style="fill:#FFFFFF;" d="M75.1,58.2l-0.1,0.1c-2.2,2.3-4.8,3.5-7.4,3.5c-5.5,0-9.6-4.2-9.6-9.9s4-9.9,9.6-9.9
			c2.7,0,5.2,1.2,7.4,3.5l0.1,0.1l3.6-4.3l-0.1-0.1c-3-3.5-6.5-5.2-10.9-5.2c-4.4,0-8.4,1.5-11.3,4.1c-3.1,2.9-4.8,7-4.8,11.8
			c0,4.8,1.7,8.9,4.8,11.8c2.9,2.7,6.9,4.1,11.3,4.1c4.4,0,7.9-1.7,10.9-5.2l0.1-0.1L75.1,58.2z"/>
		<rect x="82.2" y="36.5" style="fill:#FFFFFF;" width="6.3" height="30.7"/>
		<path style="fill:#FFFFFF;" d="M113.2,60.5c-1.7,1-3.2,1.5-4.7,1.5c-2,0-2.9-1.1-2.9-3.5V42.3h6.4v-5.8h-6.4V27l-6.2,3.3v6.3h-5.3
			v5.8h5.3v17.3c0,4.7,2.8,8,7,8c2.8,0.1,4.5-0.8,5.6-1.4l0.1,0l1.5-5.9L113.2,60.5z"/>
		<rect x="118.4" y="36.5" style="fill:#FFFFFF;" width="6.3" height="30.7"/>
		<path style="fill:#E40520;" d="M128.6,31.5c-5.2-7.9-14.9-13.4-25.3-13.4c-10.2,0-19.9,5.4-25.3,13.4h7.2
			c4.9-5.1,11.3-7.8,18.1-7.9c6.6,0,13.1,2.8,18.1,7.9H128.6z"/>
	</g>
</g>
<path style="fill:#FFFFFF;" d="M129.5,28.4c0-1.4,1.1-2.5,2.5-2.5c1.4,0,2.5,1.1,2.5,2.5c0,1.5-1.1,2.5-2.5,2.5
	C130.6,30.9,129.5,29.9,129.5,28.4z M131.9,31.4c1.7,0,3.1-1.3,3.1-3c0-1.7-1.4-3-3.1-3c-1.7,0-3.1,1.3-3.1,3
	C128.9,30.2,130.3,31.4,131.9,31.4z M131.3,28.6h0.6l0.9,1.5h0.6l-1-1.5c0.5-0.1,0.9-0.3,0.9-1c0-0.7-0.4-1-1.2-1h-1.3v3.5h0.5V28.6
	z M131.3,28.2v-1.1h0.7c0.4,0,0.8,0.1,0.8,0.5c0,0.5-0.4,0.6-0.9,0.6H131.3z"/>
<path style="fill:#FFFFFF;" d="M438.8,73.7V74h-0.7v2h-0.3v-2h-0.7v-0.3H438.8z M439.9,73.7l0.5,1.8h0l0.5-1.8h0.4l0.3,2.3h-0.3
	l-0.2-1.8h0l-0.5,1.8h-0.4l-0.5-1.8h0l-0.2,1.8h-0.3l0.3-2.3H439.9z"/>
<path style="fill:#FFFFFF;" d="M219.2,40.4h-5.4L206,61l-7.6-20.5H193l-10.2,26.7h4.8l2.1-6h11.3l2.1,6h5.3l2.1-6H222l2.1,6h5.1
	L219.2,40.4z M191.1,57.5l4.3-12.2h0.2l4.3,12.2H191.1z M211.9,57.5l4.3-12.2h0.2l4.3,12.2H211.9z M242.9,38.7h4.5c0,0,0,21,0,22.4
	c0,2,0.1,4.4,0.2,6c0,0-2.9,0-3.6,0c-0.4,0-0.5-0.1-0.5-0.5c0-0.5,0-2.5,0-2.5h-0.2c-0.6,1.2-2.2,3.4-6,3.4c-6.8,0-7.8-5.8-7.8-9.3
	c0-6.7,4-11.1,10.4-11.1c1.8,0,2.7,0.3,3,0.4V38.7z M234.1,58c0,3.1,0.6,6.1,4.2,6.1c2.3,0,4.6-2,4.6-6.7c0-1,0-6.4,0-6.4
	c-0.4-0.1-1.3-0.4-3.1-0.4C236.1,50.6,234.1,53.1,234.1,58z M249.5,47.6h4.9l4.9,14.4h0.2l4.8-14.4h4.8l-7.4,19.6h-4.7L249.5,47.6z
	 M278,47.2c5.5,0,8.3,2.5,8.3,7.1v7.8c0,1.7,0.2,3.7,0.4,5c0,0-3.1,0-3.7,0c-0.6,0-0.7-0.4-0.7-0.9l-0.1-1.6h-0.2
	c-0.6,0.9-2.3,2.9-5.8,2.9c-3.7,0-6.1-2.7-6.1-6.3c0-5.2,5.7-6.9,10.8-6.9c0.3,0,1.1,0,1.1,0s0-0.6,0-0.6c0-2.4-1.8-3.2-4.2-3.2
	c-2.4,0-4.4,0.8-4.9,1.1c-0.2,0.1-0.5,0.2-0.7,0.2c-0.4,0-0.3-0.3-0.4-0.4c0-0.7-0.1-2.4-0.1-3C272.3,48.2,275,47.2,278,47.2z
	 M274.4,61.1c0,1.7,1.1,3.2,3.1,3.2c2.7,0,4.3-2.5,4.3-5.7c0-0.2,0-1.4,0-1.4s-0.5,0-1,0C276.5,57.2,274.4,58.6,274.4,61.1z
	 M290.2,67.2c0,0,0-12.2,0-13.6c0-2-0.1-4.5-0.2-6c0,0,2.9,0,3.5,0c0.4,0,0.5,0.1,0.5,0.5c0,0.5,0,2.5,0,2.5h0.2
	c1.2-2,2.9-3.4,6-3.4c4.3,0,6.6,2.9,6.6,6.2c0,3.4,0,13.8,0,13.8h-4.5c0,0,0-11.2,0-12.5c0-3.1-1.5-4-3.1-4c-2.3,0-4.6,2.3-4.6,6.9
	c0,2.9,0,9.6,0,9.6H290.2z M311.9,60.7v-9.7h-2.7v-3.4h2.7v-4.3h4.5v4.3h4.7v3.4h-4.7v10.4c0,1.7,0.8,2.7,2.5,2.7
	c1.2,0,1.9-0.4,2.2-0.4c0.3,0,0.4,0.2,0.4,0.5c0,0,0.2,2.2,0.2,2.9c-0.4,0.2-1.5,0.4-3.1,0.4C313.6,67.6,311.9,64.8,311.9,60.7z
	 M331,47.2c5.5,0,8.2,2.5,8.2,7.1v7.8c0,1.7,0.2,3.7,0.4,5c0,0-3.1,0-3.7,0c-0.6,0-0.7-0.4-0.7-0.9l-0.1-1.6h-0.2
	c-0.6,0.9-2.3,2.9-5.8,2.9c-3.7,0-6.1-2.7-6.1-6.3c0-5.2,5.7-6.9,10.8-6.9c0.3,0,1.1,0,1.1,0s0-0.6,0-0.6c0-2.4-1.7-3.2-4.2-3.2
	c-2.4,0-4.4,0.8-4.9,1.1c-0.2,0.1-0.5,0.2-0.7,0.2c-0.4,0-0.3-0.3-0.4-0.4c0-0.7-0.1-2.4-0.1-3C325.3,48.2,328,47.2,331,47.2z
	 M327.4,61.1c0,1.7,1.1,3.2,3.1,3.2c2.7,0,4.3-2.5,4.3-5.7c0-0.2,0-1.4,0-1.4s-0.5,0-1,0C329.5,57.2,327.4,58.6,327.4,61.1z
	 M350.9,77c-5.6,0-8.5-2.2-8.5-6c0-2.7,2.1-4,3.5-4.4c-0.7-0.2-2.1-0.9-2.1-2.9c0-2.1,1.8-2.9,2.6-3.2c-1.3-0.4-3.5-2.1-3.5-5.8
	c0-4.1,3.1-7.5,8.7-7.5c1.1,0,2.1,0.2,3.2,0.4h6.6c0,0.6,0,1.6-0.1,2.4c-0.1,0.9-0.6,0.9-1.2,0.9c-0.6,0-1.7,0-1.7,0
	c0.5,0.3,1.3,1.5,1.3,3.2c0,4.2-2.9,7.2-8.4,7.2c-0.8,0-1.6-0.1-2.2-0.2c-0.5,0.1-1.2,0.6-1.2,1.3c0,1,0.6,1.7,2.5,1.7h3.8
	c4.6,0,6.8,2,6.8,5.4C361,73.7,357.1,77,350.9,77z M352.7,67.4h-3c-0.4,0-0.8,0-1.2,0c-0.8,0.3-2,1.3-2,3.1c0,2.1,1.8,3.2,4.6,3.2
	c3.6,0,5.4-1.5,5.4-3.6C356.6,68.5,355.6,67.4,352.7,67.4z M351.3,50.3c-2.7,0-4.2,1.7-4.2,4c0,2.5,1.4,4,4.2,4
	c2.6,0,4.2-1.4,4.2-3.9S353.9,50.3,351.3,50.3z M380.1,55.6c0,0.7-0.1,2.4-0.2,2.8h-12.6c0,3.2,2,5.8,6.1,5.8c2.1,0,3.8-0.8,4.2-1
	c0.3-0.1,0.5-0.3,0.7-0.3c0.2,0,0.3,0.1,0.4,0.4c0,0.5,0.2,2.2,0.2,3.2c-0.8,0.3-3.1,1.1-5.9,1.1c-6.9,0-10.2-3.7-10.2-10.2
	c0-6.2,3.3-10.2,8.9-10.2C378.2,47.2,380.1,51.9,380.1,55.6z M375.6,55.3c0-0.1,0-0.3,0-0.5c0-1.7-0.8-4.4-4-4.4
	c-3.6,0-4.2,3.3-4.2,4.9H375.6z"/>
<path style="fill:#FFFFFF;" d="M314.2,37.6v-5.1c0-1-0.4-1.6-1.3-1.6c-1.1,0-1.8,1.2-1.8,2.7v3.9h-1.8c0,0,0-5.6,0-5.7
	c0-0.6-0.1-1.6-0.1-2.1c0,0,0.8,0,1.4,0c0.2,0,0.2,0.1,0.2,0.2c0,0.2,0,1,0,1h0c0.2-0.4,0.8-1.4,2.4-1.4c1.7,0,2.6,1.2,2.6,2.4v5.5
	H314.2z M300.3,35.8c0,0,0.1,0,0.1,0.2c0,0.4,0,1,0.1,1.2c-0.4,0.2-1.1,0.5-2.1,0.5c-2.4,0-3.8-1.4-3.8-4.1c0-2.5,1.3-4.1,3.8-4.1
	c0.8,0,1.6,0.3,2.1,0.5c0,0.3,0,0.9-0.1,1.2c0,0.1-0.1,0.2-0.1,0.2c-0.1,0-0.1,0-0.1,0c-0.6-0.3-1.1-0.4-1.6-0.4
	c-1.5,0-2.1,1-2.1,2.7c0,1.5,0.5,2.7,2.1,2.7c0.6,0,1.2-0.2,1.5-0.4C300.2,35.9,300.2,35.8,300.3,35.8z M306.4,37.6
	c-0.1,0-0.3,0-0.3-0.3c0-0.3-0.1-0.7-0.1-0.7h0c-0.1,0.1-0.8,1.2-2.4,1.2c-1.6,0-2.4-1.2-2.4-2.5c0-1.8,1.8-2.7,4.4-2.7
	c0,0,0.3,0,0.3,0v-0.3c0-0.8-0.6-1.3-1.7-1.3c-1,0-1.8,0.3-2.1,0.5c0,0-0.1,0-0.1,0c-0.1,0-0.1-0.1-0.1-0.1c0-0.3,0-0.9-0.1-1.2
	c0.3-0.1,1.4-0.5,2.6-0.5c2.3,0,3.3,1.1,3.3,2.8v3.1c0,1.1,0.1,1.8,0.1,2.1C307.9,37.6,306.5,37.6,306.4,37.6z M306,33.6
	c0,0-0.3,0-0.3,0c-2.2,0-2.7,0.8-2.7,1.6c0,0.6,0.4,1.3,1.3,1.3c1.1,0,1.7-1.1,1.7-2.2V33.6z M283.7,35.8c0.1,0,0.1,0.1,0.1,0.2
	c0,0.3,0.1,1.1,0.1,1.3c-0.2,0.1-1.1,0.4-2.4,0.4c-2.5,0-4-1.3-4-4.1c0-2.4,1.3-4.1,3.6-4.1c2.3,0,3.3,1.5,3.3,3.4
	c0,0.2,0,0.6-0.1,1.1h-5c0,1.3,0.9,2.3,2.4,2.3c0.9,0,1.6-0.3,1.8-0.4C283.6,35.9,283.6,35.8,283.7,35.8z M279.3,32.8h3.3
	c0.1-1.3-0.6-2-1.6-2C280,30.9,279.4,31.6,279.3,32.8z M274.4,37.6v-5c0-0.9-0.4-1.6-1.3-1.6c-1,0-1.6,1.1-1.6,2.7v3.9h-1.8v-5
	c0-0.8-0.3-1.6-1.3-1.6c-1.1,0-1.6,1.1-1.6,2.8v3.8H265c0,0,0-4.9,0-5.7c0-0.7-0.1-1.8-0.1-2.1c0,0,0.9,0,1.4,0
	c0.2,0,0.2,0.1,0.2,0.2c0,0.2,0,1,0,1h0c0.1-0.2,0.7-1.4,2.3-1.4c1.5,0,2.1,1.1,2.2,1.4c0.1-0.3,0.8-1.4,2.3-1.4
	c1.6,0,2.7,0.9,2.7,2.6v5.4H274.4z M287.5,33.7v3.8h-1.8c0,0,0-5.3,0-5.8c0-0.6-0.1-1.6-0.1-2c0,0,0.8,0,1.4,0
	c0.2,0,0.2,0.1,0.2,0.2c0,0.2,0,1,0,1h0c0.1-0.3,0.6-1.4,2.1-1.4c0.5,0,0.9,0.2,0.9,0.2c0,0.3,0,1.1-0.1,1.3c0,0.1-0.1,0.2-0.1,0.2
	c-0.1,0-0.1,0-0.1,0c-0.1,0-0.4-0.1-0.7-0.1C288.4,31,287.5,31.7,287.5,33.7z M291.3,37.6v-7.8h1.8v7.8H291.3z M291.3,28.6v-1.7h1.8
	v1.7H291.3z M262.3,37.6l-0.8-2.3h-4.4l-0.8,2.3h-1.9l3.9-10.3h2.1l3.8,10.3H262.3z M259.3,29.2L259.3,29.2l-1.7,4.7h3.4L259.3,29.2
	z M364,37.7c2.3,0,3.4-0.9,3.4-2.4c0-1.4-1-2-2-2.3c-0.3-0.1-0.6-0.2-0.9-0.3c-0.7-0.2-1.1-0.5-1.1-1c0-0.5,0.4-0.8,1.4-0.8
	c0.8,0,1.5,0.3,1.8,0.5c0,0,0.1,0,0.2,0c0.1,0,0.1,0,0.1-0.2c0-0.3,0-0.7,0-1.2c-0.2-0.1-1-0.5-2.2-0.5c-1.9,0-3.1,1-3.1,2.3
	c0,1.3,0.9,1.9,1.8,2.2c0.2,0.1,0.6,0.2,0.9,0.3c1,0.3,1.3,0.6,1.3,1.1c0,0.6-0.7,0.9-1.8,0.9c-0.9,0-1.5-0.3-1.8-0.5
	c0,0-0.1,0-0.1,0c-0.1,0-0.1,0.2-0.1,0.2c0,0.1,0,0.9,0,1.2C361.9,37.3,362.8,37.7,364,37.7z M359.9,35.8c0.1,0,0.1,0.1,0.1,0.2
	c0,0.3,0.1,1.1,0.1,1.3c-0.2,0.1-1.1,0.4-2.4,0.4c-2.5,0-4-1.3-4-4.1c0-2.4,1.3-4.1,3.6-4.1c2.3,0,3.3,1.5,3.3,3.4
	c0,0.2,0,0.6-0.1,1.1h-5c0,1.3,0.8,2.3,2.4,2.3c0.9,0,1.6-0.3,1.8-0.4C359.8,35.9,359.8,35.8,359.9,35.8z M355.5,32.8h3.3
	c0.1-1.3-0.6-2-1.6-2C356.1,30.9,355.5,31.6,355.5,32.8z M350.6,37.6v-5.1c0-1-0.4-1.6-1.3-1.6c-1.1,0-1.8,1.2-1.8,2.7v3.9h-1.8
	c0,0,0-5.6,0-5.7c0-0.6-0.1-1.6-0.1-2.1c0,0,0.8,0,1.4,0c0.2,0,0.2,0.1,0.2,0.2c0,0.2,0,1,0,1h0c0.2-0.4,0.8-1.4,2.4-1.4
	c1.7,0,2.6,1.2,2.6,2.4v5.5H350.6z M334.4,33.7v3.8h-1.8c0,0,0-5.3,0-5.8c0-0.6-0.1-1.6-0.1-2c0,0,0.8,0,1.4,0
	c0.2,0,0.2,0.1,0.2,0.2c0,0.2,0,1,0,1h0c0.1-0.3,0.6-1.4,2.1-1.4c0.5,0,0.9,0.2,0.9,0.2c0,0.3,0,1.1-0.1,1.3c0,0.1-0.1,0.2-0.1,0.2
	c-0.1,0-0.1,0-0.1,0c-0.1,0-0.4-0.1-0.7-0.1C335.3,31,334.4,31.7,334.4,33.7z M340,37.6V26.9h-1.8v10.7H340z M328.9,37.6v-7.8h1.8
	v7.8H328.9z M328.9,28.6v-1.7h1.8v1.7H328.9z M342,37.6v-7.8h1.8v7.8H342z M342,28.6v-1.7h1.8v1.7H342z M326.2,37.6l-0.8-2.3H321
	l-0.8,2.3h-1.9l3.9-10.3h2.1l3.8,10.3H326.2z M323.2,29.2L323.2,29.2l-1.7,4.7h3.4L323.2,29.2z"/>
<g>
	<linearGradient id="SVGID_1_" gradientUnits="userSpaceOnUse" x1="421.0975" y1="54.309" x2="421.0975" y2="86.7541">
		<stop  offset="0" style="stop-color:#E30613"/>
		<stop  offset="0.1356" style="stop-color:#DE0713"/>
		<stop  offset="0.2901" style="stop-color:#D10912"/>
		<stop  offset="0.4539" style="stop-color:#BA0C10"/>
		<stop  offset="0.623" style="stop-color:#9A110E"/>
		<stop  offset="0.7546" style="stop-color:#7C150C"/>
	</linearGradient>
	<path style="fill:url(#SVGID_1_);" d="M412.2,71.3c2.9,4.7,7.4,4.6,8.6,4.6h14.7l-17.3-21.1c-8,0.3-12.2,5.5-11.4,7.6L412.2,71.3z"
		/>
	<linearGradient id="SVGID_2_" gradientUnits="userSpaceOnUse" x1="406.3232" y1="57.0093" x2="418.166" y2="57.0093">
		<stop  offset="0" style="stop-color:#6F251A"/>
		<stop  offset="0.2211" style="stop-color:#8B271B"/>
		<stop  offset="0.5565" style="stop-color:#B0291D"/>
		<stop  offset="0.8281" style="stop-color:#C72A1E"/>
		<stop  offset="1" style="stop-color:#CF2B1E"/>
	</linearGradient>
	<path style="fill:url(#SVGID_2_);" d="M406.8,62.5c0,0-0.5-1.1-0.5-2.4c0-4.8,4.3-7.6,9.1-8.6l2.7,3.3
		C410.2,55.2,405.9,60.3,406.8,62.5z"/>
	<linearGradient id="SVGID_3_" gradientUnits="userSpaceOnUse" x1="405.0238" y1="55.2777" x2="418.2178" y2="47.3499">
		<stop  offset="0.1" style="stop-color:#F5F7FA"/>
		<stop  offset="0.3538" style="stop-color:#E3E7EB"/>
		<stop  offset="0.8632" style="stop-color:#B3BFC5"/>
		<stop  offset="1" style="stop-color:#A5B3BA"/>
	</linearGradient>
	<path style="fill:url(#SVGID_3_);" d="M413.5,46.9c-7.3,0-12.8,1.2-12.8,4.1c0,1,0.3,2,1.2,3.6l4.9,8c0,0-0.5-1.1-0.5-2.4
		c0-4.8,4.3-7.6,9.1-8.6c1.4-0.3,2.8-0.4,4.3-0.4c1.2,0,2.3,0.1,3.2,0.4C422.3,49.6,421,46.9,413.5,46.9z"/>
	<linearGradient id="SVGID_4_" gradientUnits="userSpaceOnUse" x1="397.75" y1="48.6036" x2="397.75" y2="26.1862">
		<stop  offset="0" style="stop-color:#212B6C"/>
		<stop  offset="0.118" style="stop-color:#1B4080"/>
		<stop  offset="0.3973" style="stop-color:#106CAC"/>
		<stop  offset="0.6474" style="stop-color:#078CCB"/>
		<stop  offset="0.8569" style="stop-color:#02A0DE"/>
		<stop  offset="1" style="stop-color:#00A7E5"/>
	</linearGradient>
	<path style="fill:url(#SVGID_4_);" d="M394.3,41.9c2,3.3,2.8,4.1,7.5,4.1c3.5,0,9.1,0,9.1,0l-12.6-15.9c-2.8-3.4-4.4-4.1-6.9-4.1
		h-6.8L394.3,41.9z"/>
</g>
</svg>
