<?xml version="1.0" encoding="utf-8"?>
<!-- Generator: Adobe Illustrator 18.1.1, SVG Export Plug-In . SVG Version: 6.00 Build 0)  -->
<svg version="1.1" id="Layer_1" xmlns="http://www.w3.org/2000/svg" xmlns:xlink="http://www.w3.org/1999/xlink" x="0px" y="0px"
	 width="300px" height="600px" viewBox="0 0 300 600" enable-background="new 0 0 300 600" xml:space="preserve">
<path fill="#454545" d="M13.3,564.3c0,0,0.8,0.9,2.3,1v1.1h0.7v-1.1c1.3-0.1,2.1-1.1,2.1-2.2c0-2.6-4.1-2.2-4.1-4.1
	c0-0.7,0.7-1.4,1.7-1.4c1.1,0,1.8,0.7,1.8,0.7l0.4-0.7c0,0-0.7-0.7-1.9-0.8v-1.1h-0.7v1.1c-1.3,0.2-2.1,1.1-2.1,2.2
	c0,2.5,4.1,2.1,4.1,4.1c0,0.9-0.7,1.4-1.6,1.4c-1.3,0-2.1-0.9-2.1-0.9L13.3,564.3z"/>
<path fill="#454545" d="M19.5,567.9h7v3.9h1.4v-3.9h2v-1.2h-2v-8.9h-1.5l-6.9,9.3V567.9z M21.2,566.7L21.2,566.7l4.7-6.1
	c0.4-0.5,0.7-1.1,0.7-1.1h0c0,0-0.1,0.7-0.1,1.3v5.9H21.2z"/>
<path fill="#454545" d="M34.8,572.1c4.4,0,6.2-4.4,6.2-7.9c0-3.8-2-6.6-5.1-6.6c-2.5,0-4.4,1.8-4.4,4.7c0,2.7,1.8,4.5,4.4,4.5
	c1.5,0,2.9-0.6,3.6-1.6h0c-0.3,2.7-1.7,5.6-4.7,5.6c-1.2,0-2-0.5-2-0.5l-0.5,1.2C32.2,571.5,33.2,572.1,34.8,572.1z M36.1,565.5
	c-1.9,0-3.2-1.3-3.2-3.3c0-1.9,1.1-3.4,3-3.4c2.1,0,3.6,2.4,3.6,4.3C39.5,564.3,38,565.5,36.1,565.5z"/>
<path fill="#454545" d="M42.8,571.8h1.6v-1.6h-1.6V571.8z"/>
<path fill="#454545" d="M49.9,572.1c4.4,0,6.2-4.4,6.2-7.9c0-3.8-2-6.6-5.1-6.6c-2.5,0-4.4,1.8-4.4,4.7c0,2.7,1.8,4.5,4.4,4.5
	c1.5,0,2.9-0.6,3.6-1.6h0c-0.3,2.7-1.7,5.6-4.7,5.6c-1.2,0-2-0.5-2-0.5l-0.5,1.2C47.3,571.5,48.3,572.1,49.9,572.1z M51.2,565.5
	c-1.9,0-3.2-1.3-3.2-3.3c0-1.9,1.1-3.4,3-3.4c2.1,0,3.6,2.4,3.6,4.3C54.6,564.3,53.1,565.5,51.2,565.5z"/>
<path fill="#454545" d="M61.4,572.1c4.4,0,6.2-4.4,6.2-7.9c0-3.8-2-6.6-5.1-6.6c-2.5,0-4.4,1.8-4.4,4.7c0,2.7,1.8,4.5,4.4,4.5
	c1.5,0,2.9-0.6,3.6-1.6h0c-0.3,2.7-1.7,5.6-4.7,5.6c-1.2,0-2-0.5-2-0.5l-0.5,1.2C58.8,571.5,59.8,572.1,61.4,572.1z M62.6,565.5
	c-1.9,0-3.2-1.3-3.2-3.3c0-1.9,1.1-3.4,3-3.4c2.1,0,3.6,2.4,3.6,4.3C66,564.3,64.5,565.5,62.6,565.5z"/>
<path fill="#454545" d="M69.3,572.7h1.3l5.1-15.7h-1.3L69.3,572.7z"/>
<path fill="#454545" d="M77.5,571.8h1.4v-4.8c0-0.5,0-0.9,0.1-1.3c0.4-1.5,1.7-3,3.3-3c1.9,0,2.1,1.5,2.1,3v6.1h1.4v-4.8
	c0-0.5,0-1,0.2-1.5c0.4-1.5,1.6-2.8,3.2-2.8c1.8,0,2.2,1.4,2.2,3v6.1h1.4v-6.4c0-2.5-0.9-3.9-3.3-3.9c-1.7,0-3.2,1.2-3.7,2.5h0
	c-0.3-1.7-1.3-2.5-3.1-2.5c-1.6,0-3.2,1.2-3.6,2.5h0c0,0,0-0.4,0-0.8v-1.5h-1.3V571.8z"/>
<path fill="#454545" d="M94.7,566.7c0,3,2.4,5.3,5.3,5.3s5.3-2.3,5.3-5.3c0-3-2.4-5.2-5.3-5.2S94.7,563.8,94.7,566.7z M96.1,566.7
	c0-2.3,1.8-4,3.9-4c2.2,0,3.9,1.7,3.9,4c0,2.3-1.8,4.1-3.9,4.1C97.9,570.8,96.1,569.1,96.1,566.7z"/>
<path fill="#454545" d="M29.1,587.6h1v-6.2h1.8v-0.8h-1.8v-0.3c0-1.6,1-1.8,1.6-1.8c0.2,0,0.3,0,0.3,0v-0.9c0,0-0.2,0-0.4,0
	c-0.8,0-2.4,0.3-2.4,2.6v0.3h-0.9v0.8h0.9V587.6z"/>
<path fill="#454545" d="M32.4,584.1c0,2.1,1.7,3.7,3.7,3.7c2.1,0,3.7-1.6,3.7-3.7c0-2.1-1.7-3.7-3.7-3.7
	C34.1,580.4,32.4,582,32.4,584.1z M33.4,584.1c0-1.6,1.2-2.8,2.7-2.8c1.5,0,2.7,1.2,2.7,2.8c0,1.6-1.2,2.9-2.7,2.9
	C34.7,586.9,33.4,585.7,33.4,584.1z"/>
<path fill="#454545" d="M41.4,587.6h1v-3c0-0.4,0.1-0.9,0.2-1.4c0.3-1,1.1-1.8,2-1.8c0.2,0,0.4,0,0.4,0v-0.9c0,0-0.2,0-0.4,0
	c-1.1,0-1.9,0.8-2.2,1.9h0c0,0,0-0.3,0-0.6v-1.2h-0.9V587.6z"/>
<path fill="#454545" d="M49.3,587.6h6.1v-0.9h-5.1c0-2.6,5-3.1,5-6.4c0-1.5-1.1-2.8-3-2.8c-2.1,0-3,1.8-3,1.8l0.7,0.5
	c0,0,0.8-1.3,2.2-1.3c1.2,0,2,0.8,2,1.9c0,2.7-5,3.1-5,6.6C49.3,587.2,49.3,587.4,49.3,587.6z"/>
<path fill="#454545" d="M59.6,590.1c0,0,0.5,0.4,1.2,0.4c0.9,0,1.7-0.6,2-1.5l3.5-8.5h-1l-2,5.1c-0.1,0.4-0.2,0.7-0.2,0.7h0
	c0,0-0.1-0.4-0.3-0.7l-2.1-5.1h-1.1l2.9,7l-0.4,1c-0.3,0.6-0.7,1.1-1.3,1.1c-0.4,0-0.8-0.3-0.8-0.3L59.6,590.1z"/>
<path fill="#454545" d="M66.9,584.1c0,2.2,1.6,3.7,3.7,3.7c1.6,0,2.6-1,2.6-1l-0.4-0.7c0,0-0.9,0.9-2.1,0.9c-1.5,0-2.7-1-2.7-2.8
	h5.4c0,0,0-0.3,0-0.5c0-1.8-1-3.2-2.9-3.2C68.5,580.4,66.9,581.8,66.9,584.1z M67.9,583.4c0.2-1.4,1.2-2.2,2.4-2.2
	c1.1,0,1.9,0.7,2,2.2H67.9z"/>
<path fill="#454545" d="M74.3,585.7c0,1.4,1.2,2.1,2.4,2.1c1.8,0,2.4-1.5,2.4-1.5h0c0,0,0,0.2,0,0.6v0.8h0.9v-4.5
	c0-1.8-0.9-2.7-2.6-2.7c-1.6,0-2.5,0.8-2.5,0.8l0.4,0.7c0,0,0.8-0.7,2-0.7c1,0,1.8,0.5,1.8,1.8v0.2h-0.4
	C77.4,583.3,74.3,583.3,74.3,585.7z M75.3,585.6c0-1.6,2.2-1.6,3.3-1.6H79v0.3c0,1.2-0.8,2.6-2.2,2.6
	C75.8,587,75.3,586.3,75.3,585.6z"/>
<path fill="#454545" d="M81.9,587.6h1v-3c0-0.4,0.1-0.9,0.2-1.4c0.3-1,1.1-1.8,2-1.8c0.2,0,0.4,0,0.4,0v-0.9c0,0-0.2,0-0.4,0
	c-1.1,0-1.9,0.8-2.2,1.9h0c0,0,0-0.3,0-0.6v-1.2h-0.9V587.6z"/>
<path fill="#454545" d="M86,586.8c0,0,0.9,1,2.6,1c1.4,0,2.4-0.8,2.4-2c0-2.3-3.8-1.9-3.8-3.5c0-0.8,0.7-1.1,1.4-1.1
	c1.2,0,1.8,0.6,1.8,0.6l0.4-0.7c0,0-0.7-0.8-2.2-0.8c-1.3,0-2.4,0.7-2.4,1.9c0,2.3,3.8,1.9,3.8,3.5c0,0.7-0.7,1.1-1.4,1.1
	c-1.3,0-2.1-0.9-2.1-0.9L86,586.8z"/>
</svg>
