<?xml version="1.0" encoding="utf-8"?>
<!-- Generator: Adobe Illustrator 18.1.1, SVG Export Plug-In . SVG Version: 6.00 Build 0)  -->
<svg version="1.1" id="Layer_1" xmlns="http://www.w3.org/2000/svg" xmlns:xlink="http://www.w3.org/1999/xlink" x="0px" y="0px"
	 viewBox="0 0 41.7 18" enable-background="new 0 0 41.7 18" xml:space="preserve">
<g>
	<path fill="#FFFFFF" d="M20.3,9c0,2,1.5,3,3.1,3.9l1.4,0.8c0.8,0.4,1.1,0.9,1.1,1.6c0,0.9-0.7,1.5-1.7,1.5c-2,0-2.6-1.6-2.9-3.2
		l0-0.2h-1v4.5h0.8l0.1-0.1c0.2-0.2,0.2-0.2,0.3-0.2c0.3,0,0.7,0.1,1.1,0.2c0.5,0.1,1.2,0.3,1.8,0.3c1.6,0,3.9-1.1,3.9-3.5
		c0-1.7-1-2.5-2.2-3.2c0,0-2.7-1.6-2.7-1.6c-0.6-0.4-0.9-0.9-0.9-1.5c0-0.5,0.4-1.3,1.6-1.3c0.9,0,1.9,0.3,2.5,2.8l0.1,0.2h0.9
		l-0.1-4h-0.8L26.6,6c0,0.1-0.1,0.1-0.2,0.1c0,0-0.3-0.1-0.4-0.1c-0.5-0.2-1.2-0.4-1.9-0.4C21.9,5.6,20.3,7,20.3,9"/>
	<path fill="#FFFFFF" d="M2.8,11.3c0-3.2,1.5-4.3,2.8-4.3c1.4,0,2.3,1.2,2.3,2.3c0,0,0,5.5,0,5.5c-0.2,0.7-1,1.2-1.9,1.2
		C4.5,16.1,2.8,14.8,2.8,11.3 M10.1,0L10.1,0L10.1,0C9.6,0.2,7.8,0.8,6.4,1.2L6.1,1.2v1l0.3,0c0.8-0.1,1.1,0,1.2,0.1
		C7.8,2.4,7.8,2.6,7.8,3c0,0,0,3,0,3.3C7.1,5.8,6.4,5.6,5.5,5.6c-1.4,0-2.8,0.7-3.9,2C0.6,8.8,0,10.4,0,12.1C0,17.8,4.4,18,4.9,18
		c1.2,0,2.2-0.4,3-1.1c0,0.3,0,0.9,0,0.9L8.2,18l4-1.4v-1l-0.3,0c-0.8,0.1-1.1-0.1-1.2-0.2c-0.1-0.1-0.1-0.3-0.1-0.6V0.2L10.1,0
		L10.1,0z"/>
	<path fill="#FFFFFF" d="M40.2,16.7c-1.1-0.2-1.2-0.2-1.2-1.8v-5c0-2.8-1.1-4.3-3.4-4.3c-1.3,0-2.4,0.5-3.4,1.6c0-0.4,0-6.9,0-6.9
		L31.8,0l0,0l-0.1,0c-0.5,0.2-2.6,0.8-3.5,1.1L28,1.2v1l0.3,0c0.2,0,0.4,0,0.6,0c0.2,0,0.4,0,0.5,0.1c0.2,0.2,0.2,0.5,0.1,0.7
		c0,0,0,0.1,0,0.1v11.7c0,1.6-0.1,1.7-1.3,1.9l-0.3,0v1h5.8v-1l-0.1,0c-1.1-0.1-1.4-0.2-1.4-1.8c0,0,0-5.9,0-5.9
		c0.1-0.2,1.2-1.4,2.4-1.4c1.1,0,1.6,0.7,1.6,2.4v4.9c0,1.6-0.3,1.7-1.4,1.8l0,0v1h5.7v-0.9L40.2,16.7"/>
	<path fill-rule="evenodd" clip-rule="evenodd" fill="#FFFFFF" d="M16.2,17.5c1.9,0,2.9-1.1,3.6-2.4c0-0.1,0-0.1-0.1-0.1
		c-0.5,0.2-1.8,0.9-3.5,0.9c-1.6,0-3-0.6-3.5-0.9c-0.1,0-0.1,0-0.1,0.1C13.4,16.4,14.3,17.5,16.2,17.5"/>
	<path fill-rule="evenodd" clip-rule="evenodd" fill="#FFFFFF" d="M13.4,11.9c0.5,1,1.3,1.9,2.8,1.9c1.5,0,2.3-0.9,2.8-1.9
		c0-0.1,0-0.1-0.1-0.1c-0.3,0.2-1.4,0.6-2.7,0.6C14.9,12.5,13.8,12,13.4,11.9C13.4,11.8,13.4,11.9,13.4,11.9"/>
	<path fill-rule="evenodd" clip-rule="evenodd" fill="#FFFFFF" d="M14.1,9c0.4,0.8,1,1.5,2.1,1.5c1.1,0,1.7-0.7,2.1-1.5
		c0-0.1,0-0.1-0.1-0.1c-0.2,0.1-1,0.4-2,0.4C15.2,9.4,14.4,9,14.1,9C14.1,8.9,14.1,9,14.1,9"/>
	<path fill-rule="evenodd" clip-rule="evenodd" fill="#FFFFFF" d="M16.2,7.3c0.8,0,1.2-0.5,1.4-1c0,0,0-0.1,0-0.1
		c0,0-0.6,0.2-1.4,0.2c-0.8,0-1.4-0.2-1.4-0.2c-0.1,0-0.1,0,0,0.1C15.1,6.8,15.4,7.3,16.2,7.3"/>
	<path fill="#FFFFFF" d="M14.1,2.2C14.1,1,15,0,16.2,0c1.2,0,2.2,1,2.2,2.2s-1,2.2-2.2,2.2C15,4.4,14.1,3.4,14.1,2.2"/>
	<g>
		<path fill="#FFFFFF" d="M41.3,17.3l0.2,0.2h-0.1L41.3,17.3l-0.2,0v0.2h-0.1V17h0.2c0.1,0,0.2,0,0.2,0.2
			C41.5,17.2,41.4,17.3,41.3,17.3z M41.3,17.2c0.1,0,0.1,0,0.1-0.1c0-0.1-0.1-0.1-0.1-0.1h-0.1L41.3,17.2L41.3,17.2z"/>
		<path fill="#FFFFFF" d="M41.7,17.3c0,0.3-0.2,0.5-0.5,0.5c-0.3,0-0.5-0.2-0.5-0.5c0-0.3,0.2-0.5,0.5-0.5
			C41.5,16.8,41.7,17,41.7,17.3z M41.6,17.3c0-0.2-0.2-0.4-0.4-0.4c-0.2,0-0.4,0.2-0.4,0.4c0,0.2,0.2,0.4,0.4,0.4
			C41.5,17.6,41.6,17.5,41.6,17.3z"/>
	</g>
</g>
</svg>
