<?xml version="1.0" encoding="utf-8"?>
<!-- Generator: Adobe Illustrator 18.1.1, SVG Export Plug-In . SVG Version: 6.00 Build 0)  -->
<svg version="1.1" id="Layer_1" xmlns="http://www.w3.org/2000/svg" xmlns:xlink="http://www.w3.org/1999/xlink" x="0px" y="0px"
	 width="300px" height="600px" viewBox="0 0 300 600" enable-background="new 0 0 300 600" xml:space="preserve">
<path fill="#FFFFFF" d="M80.4,233.1c0,0,5.1,5.6,14.4,5.6c8.9,0,13.9-5.7,13.9-12.2c0-12.4-17.7-11.5-17.7-16.5
	c0-2.2,2.2-3.1,4.2-3.1c4.7,0,8.7,3.5,8.7,3.5l4.1-7.9c0,0-4.2-4.5-12.6-4.5c-7.8,0-13.9,4.8-13.9,12c0,12.1,17.7,11.9,17.7,16.6
	c0,2.4-2.1,3.1-4.1,3.1c-4.9,0-9.4-4.1-9.4-4.1L80.4,233.1z"/>
<path fill="#FFFFFF" d="M121.6,238h9.6v-31.1h11.9v-8.2h-33.5v8.2h11.9V238z"/>
<path fill="#FFFFFF" d="M144.2,218.1c0,11.5,8.7,20.6,20.6,20.6c11.9,0,20.6-9,20.6-20.6c0-11.3-8.7-20.1-20.6-20.1
	C152.9,198,144.2,206.8,144.2,218.1z M154.2,218.1c0-6.4,4.7-11.3,10.6-11.3c5.9,0,10.6,4.8,10.6,11.3c0,6.7-4.7,11.8-10.6,11.8
	C158.9,229.9,154.2,224.8,154.2,218.1z"/>
<path fill="#FFFFFF" d="M190.8,238h9.6v-12.2h6.7c7.6,0,12.8-5.7,12.8-13.6c0-7.9-5.2-13.5-12.8-13.5h-16.3V238z M200.4,217.6v-10.7
	h4.9c3.2,0,4.8,2.1,4.8,5.3s-1.6,5.4-5,5.4H200.4z"/>
</svg>
