<?xml version="1.0" encoding="utf-8"?>
<!-- Generator: Adobe Illustrator 18.1.1, SVG Export Plug-In . SVG Version: 6.00 Build 0)  -->
<svg version="1.1" id="Layer_1" xmlns="http://www.w3.org/2000/svg" xmlns:xlink="http://www.w3.org/1999/xlink" x="0px" y="0px"
	 width="300px" height="600px" viewBox="0 0 300 600" enable-background="new 0 0 300 600" xml:space="preserve">
<path fill="#FFFFFF" d="M15.2,214.4c0,6.4,4.5,11.1,11.2,11.1c5.6,0,8.6-3.6,8.6-3.6l-2.7-3.8c0,0-2.5,2.6-5.7,2.6
	c-4,0-6.1-3.3-6.1-6.4c0-3.1,2-6.1,6.1-6.1c3,0,5.4,2.2,5.4,2.2l2.4-4c0,0-2.7-3-8-3C20,203.3,15.2,208.1,15.2,214.4z"/>
<path fill="#FFFFFF" d="M35.9,217.5c0,4.8,3.9,8,8.8,8s8.8-3.2,8.8-8c0-4.9-3.9-8.1-8.8-8.1C39.8,209.3,35.9,212.6,35.9,217.5z
	 M41.2,217.5c0-2.3,1.6-3.8,3.5-3.8s3.5,1.5,3.5,3.8c0,2.3-1.6,3.7-3.5,3.7S41.2,219.8,41.2,217.5z"/>
<path fill="#FFFFFF" d="M55.5,225.1h5.2v-6.4c0-0.7,0-1.3,0.1-1.9c0.4-1.6,1.2-2.8,2.8-2.8c1,0,1.2,0.8,1.2,1.9v9.1h5.2v-6.4
	c0-0.6,0-1.3,0.1-1.8c0.3-1.7,1.2-2.9,2.8-2.9c1,0,1.2,0.8,1.2,1.9v9.1h5.2v-10c0-4.3-2.2-5.8-5-5.8c-2.3,0-4.1,1.3-4.9,2.6h-0.1
	c-0.8-1.7-2.4-2.6-4.3-2.6c-2.4,0-3.9,1.6-4.6,2.7h-0.1c0,0,0.1-0.4,0.1-1v-1.3h-5V225.1z"/>
<path fill="#FFFFFF" d="M81.4,217.4c0,4.1,3,8.1,8.5,8.1c4.1,0,6.6-2.2,6.6-2.2l-1.9-3.6c0,0-2,1.6-4.3,1.6c-1.6,0-3.2-0.9-3.6-2.8
	h9.7c0,0,0.1-1.1,0.1-1.6c0-4.3-2.6-7.5-7.1-7.5C84.4,209.3,81.4,212.9,81.4,217.4z M86.8,215.4c0.3-1.1,1-2.2,2.5-2.2
	c1.2,0,2,1,2,2.2H86.8z"/>
<path fill="#FFFFFF" d="M105,225.1h4.9v-0.5c0-0.5,0-0.9,0-0.9h0.1c0,0,1.4,1.7,4.2,1.7c4.1,0,7.2-3.2,7.2-8.1c0-4.8-2.8-8.1-7-8.1
	c-2.7,0-4.2,1.6-4.2,1.6h-0.1c0,0,0.1-0.5,0.1-1.3v-6H105V225.1z M110.1,217.5c0-2.7,1.5-3.8,3-3.8c1.8,0,3,1.5,3,3.8
	c0,2.4-1.4,3.7-3,3.7C111.1,221.2,110.1,219.4,110.1,217.5z"/>
<path fill="#FFFFFF" d="M122.4,220.5c0,3.1,2.4,5,5.2,5c3.2,0,4.4-2.2,4.4-2.2h0.1c0,0-0.1,0.4-0.1,1v0.9h4.7v-9.5
	c0-3.9-2.6-6.3-7-6.3c-3.8,0-6.5,2-6.5,2l1.8,3.7c0,0,2.2-1.5,4.2-1.5c1.3,0,2.3,0.4,2.3,1.7v0.3h-0.2
	C128.9,215.5,122.4,216,122.4,220.5z M127.6,220.2c0-1.3,1.9-1.8,3.5-1.8h0.5v0.3c0,1.3-1.2,2.7-2.5,2.7
	C128,221.5,127.6,221,127.6,220.2z"/>
<path fill="#FFFFFF" d="M138.6,217.4c0,4.3,3.1,8.1,8.6,8.1c4.3,0,6.6-2.5,6.6-2.5l-1.9-3.6c0,0-2.1,1.9-4.2,1.9
	c-2.6,0-3.9-2-3.9-3.8c0-1.8,1.2-3.7,3.7-3.7c2.1,0,3.6,1.5,3.6,1.5l2.2-3.5c0,0-1.9-2.3-6.1-2.3
	C141.7,209.3,138.6,213.3,138.6,217.4z"/>
<path fill="#FFFFFF" d="M155.7,225.1h5.2v-6h1.6l3.3,6h5.9l-5.2-8.4v-0.1l4.5-7h-5.6l-3.1,5.1h-1.5v-11.1h-5.2V225.1z"/>
<path fill="#FFFFFF" d="M180.1,219.4c0,5.2,4.8,5.8,7.2,5.8c0.8,0,1.4-0.1,1.4-0.1v-4.5c0,0-0.3,0-0.7,0c-1,0-2.8-0.2-2.8-2V214h3.2
	v-4h-3.2v-4.4h-5v4.4h-2.1v4h2V219.4z"/>
<path fill="#FFFFFF" d="M190,217.5c0,4.8,3.9,8,8.8,8c4.9,0,8.8-3.2,8.8-8c0-4.9-3.9-8.1-8.8-8.1C193.9,209.3,190,212.6,190,217.5z
	 M195.3,217.5c0-2.3,1.6-3.8,3.5-3.8c1.9,0,3.5,1.5,3.5,3.8c0,2.3-1.6,3.7-3.5,3.7C196.9,221.2,195.3,219.8,195.3,217.5z"/>
<path fill="#FFFFFF" d="M216.5,225.1h7.6c6.7,0,11.1-4,11.1-10.8s-4.3-10.7-11.1-10.7h-7.6V225.1z M221.8,220.6v-12.4h2.2
	c3.5,0,5.8,2.1,5.8,6.2c0,4.1-2.2,6.3-5.8,6.3H221.8z"/>
<path fill="#FFFFFF" d="M238.3,225.1h5.2v-21.4h-5.2V225.1z"/>
<path fill="#FFFFFF" d="M246.4,222.4c0,0,2.8,3.1,7.8,3.1c4.8,0,7.6-3.1,7.6-6.7c0-6.8-9.7-6.3-9.7-9c0-1.2,1.2-1.7,2.3-1.7
	c2.6,0,4.7,1.9,4.7,1.9l2.2-4.3c0,0-2.3-2.4-6.9-2.4c-4.3,0-7.6,2.6-7.6,6.6c0,6.6,9.7,6.5,9.7,9.1c0,1.3-1.2,1.7-2.2,1.7
	c-2.7,0-5.1-2.2-5.1-2.2L246.4,222.4z"/>
<path fill="#FFFFFF" d="M264.8,225.1h5.2v-8.4h7.8v8.4h5.2v-21.4h-5.2v8.6H270v-8.6h-5.2V225.1z"/>
<path fill="#FFFFFF" d="M33.2,250.1h1.6v-10.6h3.1v-1.4h-3.1v-0.6c0-2.7,1.8-3,2.7-3c0.3,0,0.6,0,0.6,0v-1.5c0,0-0.3,0-0.7,0
	c-1.4,0-4.2,0.5-4.2,4.5v0.6h-1.5v1.4h1.5V250.1z"/>
<path fill="#FFFFFF" d="M38.9,244c0,3.6,2.9,6.4,6.4,6.4c3.5,0,6.4-2.7,6.4-6.4c0-3.6-2.9-6.3-6.4-6.3
	C41.7,237.8,38.9,240.5,38.9,244z M40.6,244c0-2.7,2.1-4.8,4.7-4.8c2.6,0,4.7,2,4.7,4.8c0,2.8-2.1,4.9-4.7,4.9
	C42.7,249,40.6,246.8,40.6,244z"/>
<path fill="#FFFFFF" d="M54.2,250.1h1.6V245c0-0.8,0.1-1.6,0.3-2.4c0.5-1.8,1.8-3.1,3.5-3.1c0.3,0,0.6,0,0.6,0V238
	c0,0-0.3-0.1-0.6-0.1c-1.9,0-3.2,1.4-3.8,3.2h0c0,0,0-0.4,0-1v-2.1h-1.6V250.1z"/>
<path fill="#FFFFFF" d="M67.3,246.8c0,2.4,2.1,3.6,4.1,3.6c3,0,4-2.6,4-2.6h0c0,0,0,0.4,0,1v1.3H77v-7.7c0-3-1.6-4.6-4.5-4.6
	c-2.7,0-4.3,1.4-4.3,1.4l0.8,1.2c0,0,1.4-1.2,3.4-1.2c1.7,0,3,0.8,3,3.1v0.3h-0.7C72.6,242.7,67.3,242.8,67.3,246.8z M69,246.7
	c0-2.7,3.8-2.7,5.7-2.7h0.7v0.5c0,2.1-1.4,4.5-3.7,4.5C69.8,249,69,247.9,69,246.7z"/>
<path fill="#FFFFFF" d="M80.3,250.1h1.6v-5.8c0-0.6,0-1.1,0.2-1.6c0.6-2,2.3-3.4,4.4-3.4c2.3,0,2.6,1.7,2.6,3.6v7.2h1.6v-7.7
	c0-3-1.1-4.7-4-4.7c-2.9,0-4.4,1.9-4.8,3h0c0,0,0-0.4,0-1v-1.8h-1.6V250.1z"/>
<path fill="#FFFFFF" d="M100,250.1h1.6v-5.8c0-0.6,0-1.1,0.2-1.6c0.6-2,2.3-3.4,4.4-3.4c2.3,0,2.6,1.7,2.6,3.6v7.2h1.6v-7.7
	c0-3-1.1-4.7-4-4.7c-2.7,0-4.3,1.8-4.8,3h0c0,0,0-0.4,0-1v-6.5H100V250.1z"/>
<path fill="#FFFFFF" d="M112.9,244c0,3.6,2.9,6.4,6.4,6.4s6.4-2.7,6.4-6.4c0-3.6-2.9-6.3-6.4-6.3S112.9,240.5,112.9,244z M114.5,244
	c0-2.7,2.1-4.8,4.7-4.8s4.7,2,4.7,4.8c0,2.8-2.1,4.9-4.7,4.9S114.5,246.8,114.5,244z"/>
<path fill="#FFFFFF" d="M128.2,250.1h1.6v-5.8c0-0.6,0-1.1,0.2-1.6c0.6-2,2.3-3.4,4.4-3.4c2.3,0,2.6,1.7,2.6,3.6v7.2h1.6v-7.7
	c0-3-1.1-4.7-4-4.7c-2.9,0-4.4,1.9-4.8,3h0c0,0,0-0.4,0-1v-1.8h-1.6V250.1z"/>
<path fill="#FFFFFF" d="M141.1,244.1c0,3.7,2.7,6.3,6.3,6.3c2.7,0,4.5-1.7,4.5-1.7l-0.7-1.2c0,0-1.5,1.5-3.7,1.5
	c-2.5,0-4.6-1.7-4.7-4.8h9.3c0,0,0-0.6,0-0.8c0-3-1.7-5.6-5-5.6C143.8,237.8,141.1,240.1,141.1,244.1z M142.9,242.8
	c0.4-2.4,2.1-3.7,4.2-3.7c1.8,0,3.3,1.2,3.4,3.7H142.9z"/>
<path fill="#FFFFFF" d="M153.7,248.7c0,0,1.5,1.8,4.5,1.8c2.4,0,4.1-1.4,4.1-3.4c0-4-6.5-3.3-6.5-5.9c0-1.3,1.2-1.9,2.4-1.9
	c2,0,3,1.1,3,1.1l0.7-1.2c0,0-1.2-1.3-3.7-1.3c-2.2,0-4.1,1.2-4.1,3.3c0,3.9,6.5,3.3,6.5,5.9c0,1.3-1.1,1.9-2.4,1.9
	c-2.3,0-3.6-1.5-3.6-1.5L153.7,248.7z"/>
<path fill="#FFFFFF" d="M165.3,245.7c0,4,2.8,4.5,4.2,4.5c0.4,0,0.7,0,0.7,0v-1.5c0,0-0.2,0-0.6,0c-0.9,0-2.7-0.4-2.7-3.2v-6h3v-1.4
	h-3v-3.5h-1.6v3.5h-1.6v1.4h1.6V245.7z"/>
<path fill="#FFFFFF" d="M182.7,250.1h1.7v-15.4h6v-1.5h-13.8v1.5h6.1V250.1z"/>
<path fill="#FFFFFF" d="M197,250.1h1.7l6.3-16.9h-1.8l-4.7,12.8c-0.3,0.9-0.6,2.2-0.6,2.2h0c0,0-0.3-1.3-0.6-2.2l-4.7-12.8h-1.8
	L197,250.1z"/>
<path fill="#FFFFFF" d="M212.8,254.9h1.6v-5.8c0-0.6,0-1.1,0-1.1h0c0,0,1.1,2.3,4,2.3c3.1,0,5.4-2.5,5.4-6.3c0-3.7-2-6.3-5.3-6.3
	c-3.2,0-4.2,2.4-4.2,2.4h0c0,0,0-0.4,0-0.9v-1.2h-1.6V254.9z M214.4,244.1c0-3.4,1.9-4.9,3.9-4.9c2.3,0,3.8,1.9,3.8,4.8
	c0,3.1-1.8,4.9-3.9,4.9C215.7,249,214.4,246.6,214.4,244.1z"/>
<path fill="#FFFFFF" d="M226.4,250.1h1.6V245c0-0.8,0.1-1.6,0.3-2.4c0.5-1.8,1.8-3.1,3.5-3.1c0.3,0,0.6,0,0.6,0V238
	c0,0-0.3-0.1-0.6-0.1c-1.9,0-3.2,1.4-3.8,3.2h0c0,0,0-0.4,0-1v-2.1h-1.6V250.1z"/>
<path fill="#FFFFFF" d="M234.5,235.3h1.7v-2h-1.7V235.3z M234.5,250.1h1.6v-12.1h-1.6V250.1z"/>
<path fill="#FFFFFF" d="M238.8,244.1c0,3.7,2.8,6.3,6.3,6.3c3.1,0,4.7-1.9,4.7-1.9l-0.7-1.3c0,0-1.4,1.7-3.9,1.7
	c-2.7,0-4.8-2-4.8-4.8c0-2.9,2.1-4.8,4.7-4.8c2.2,0,3.5,1.5,3.5,1.5l0.8-1.2c0,0-1.5-1.7-4.4-1.7
	C241.5,237.8,238.8,240.4,238.8,244.1z"/>
<path fill="#FFFFFF" d="M251.4,244.1c0,3.7,2.7,6.3,6.3,6.3c2.7,0,4.5-1.7,4.5-1.7l-0.7-1.2c0,0-1.5,1.5-3.7,1.5
	c-2.5,0-4.6-1.7-4.7-4.8h9.3c0,0,0-0.6,0-0.8c0-3-1.7-5.6-5-5.6C254.1,237.8,251.4,240.1,251.4,244.1z M253.2,242.8
	c0.4-2.4,2.1-3.7,4.2-3.7c1.8,0,3.3,1.2,3.4,3.7H253.2z"/>
<path fill="#FFFFFF" d="M265.1,250.1h1.9v-1.9h-1.9V250.1z"/>
<path fill-rule="evenodd" clip-rule="evenodd" fill="#B81F39" d="M17,279h270v1H17V279z"/>
</svg>
