<svg id="CTA" xmlns="http://www.w3.org/2000/svg" width="178.281" height="37.781" viewBox="0 0 178.281 37.781">
  <metadata><?xpacket begin="﻿" id="W5M0MpCehiHzreSzNTczkc9d"?>
<x:xmpmeta xmlns:x="adobe:ns:meta/" x:xmptk="Adobe XMP Core 5.6-c138 79.159824, 2016/09/14-01:09:01        ">
   <rdf:RDF xmlns:rdf="http://www.w3.org/1999/02/22-rdf-syntax-ns#">
      <rdf:Description rdf:about=""/>
   </rdf:RDF>
</x:xmpmeta>
                                                                                                    
                                                                                                    
                                                                                                    
                                                                                                    
                                                                                                    
                                                                                                    
                                                                                                    
                                                                                                    
                                                                                                    
                                                                                                    
                                                                                                    
                                                                                                    
                                                                                                    
                                                                                                    
                                                                                                    
                                                                                                    
                                                                                                    
                                                                                                    
                                                                                                    
                                                                                                    
                           
<?xpacket end="w"?></metadata>
<defs>
    <style>
      .cls-1, .cls-2 {
        fill-rule: evenodd;
      }

      .cls-2 {
        fill: #fff;
      }
    </style>
  </defs>
  <path id="Rounded_Rectangle_1" data-name="Rounded Rectangle 1" class="cls-1" d="M537.729,44.205H706a5,5,0,0,1,5,5V77a5,5,0,0,1-5,5H537.729a5,5,0,0,1-5-5V49.205A5,5,0,0,1,537.729,44.205Z" transform="translate(-532.719 -44.219)"/>
  <path id="SHOP_NOW" data-name="SHOP NOW" class="cls-2" d="M550.622,75.906a12.482,12.482,0,0,0,4.721-.731,4.735,4.735,0,0,0,2.532-2.363,10.221,10.221,0,0,0,.787-4.386,8.617,8.617,0,0,0-1.01-4.386,5.429,5.429,0,0,0-2.908-2.431q-1.9-.7-2.172-0.8l-1.2-.476a12.567,12.567,0,0,1-1.642-.714,2.489,2.489,0,0,1-.906-0.884,2.938,2.938,0,0,1-.36-1.564,1.93,1.93,0,0,1,2.224-2.142,2.215,2.215,0,0,1,1.779.612,2.992,2.992,0,0,1,.513,1.938v0.51h5.1V57.58a9.078,9.078,0,0,0-.684-3.893,4.1,4.1,0,0,0-2.224-2.04,11.644,11.644,0,0,0-4.276-.629q-4.14,0-5.936,1.564t-1.8,5.2a7.789,7.789,0,0,0,.752,3.723,5.158,5.158,0,0,0,1.831,2.023,18.1,18.1,0,0,0,2.89,1.326l1.3,0.51q1.334,0.51,1.95.816a2.642,2.642,0,0,1,1.06,1.037,3.82,3.82,0,0,1,.445,1.989,3.067,3.067,0,0,1-.564,2.023,2.526,2.526,0,0,1-2,.663,2.557,2.557,0,0,1-2.19-.833,4.85,4.85,0,0,1-.615-2.8V67.474h-5.166v0.884a11.259,11.259,0,0,0,.718,4.471,4.477,4.477,0,0,0,2.4,2.346,11.939,11.939,0,0,0,4.653.731h0Zm17.174-.374V65.774h5.269v9.758h5.611V51.392h-5.611v9.384H567.8V51.392h-5.61v24.14h5.61Zm23.162,0.374a10.657,10.657,0,0,0,5.183-1.02,5.724,5.724,0,0,0,2.549-3.57,27.777,27.777,0,0,0,.753-7.412V63.02a27.779,27.779,0,0,0-.753-7.412,5.724,5.724,0,0,0-2.549-3.57,13.678,13.678,0,0,0-10.366,0,5.661,5.661,0,0,0-2.532,3.57,28.336,28.336,0,0,0-.736,7.412V63.9a28.333,28.333,0,0,0,.736,7.412,5.661,5.661,0,0,0,2.532,3.57,10.657,10.657,0,0,0,5.183,1.02h0Zm0-4.284a2.075,2.075,0,0,1-1.694-.68,4.75,4.75,0,0,1-.786-2.346,40.562,40.562,0,0,1-.223-4.964v-0.34a40.573,40.573,0,0,1,.223-4.964,4.754,4.754,0,0,1,.786-2.346,2.076,2.076,0,0,1,1.694-.68,2.129,2.129,0,0,1,1.711.68,4.669,4.669,0,0,1,.8,2.363,40.882,40.882,0,0,1,.222,4.947v0.34a40.882,40.882,0,0,1-.222,4.947,4.667,4.667,0,0,1-.8,2.363,2.128,2.128,0,0,1-1.711.68h0Zm12.35,3.91h5.611v-8.4h1.163a18.049,18.049,0,0,0,5.526-.663,4.691,4.691,0,0,0,2.805-2.261,9.808,9.808,0,0,0,.838-4.488V58.838a9.9,9.9,0,0,0-.838-4.522,4.693,4.693,0,0,0-2.805-2.261,18.049,18.049,0,0,0-5.526-.663h-6.774v24.14Zm5.611-12.75V55.744h1.061a6.066,6.066,0,0,1,2.189.306,1.755,1.755,0,0,1,1.027,1,5.93,5.93,0,0,1,.273,2.057v0.34a5.8,5.8,0,0,1-.273,2.023,1.753,1.753,0,0,1-1.027,1,6.066,6.066,0,0,1-2.189.306h-1.061Zm34.452,4.692-5.988-16.082h-6.226v24.14h4.824V59.45l5.987,16.082H648.2V51.392h-4.824V67.474Zm17.14,8.432a10.659,10.659,0,0,0,5.183-1.02,5.727,5.727,0,0,0,2.549-3.57A27.784,27.784,0,0,0,669,63.9V63.02a27.787,27.787,0,0,0-.752-7.412,5.727,5.727,0,0,0-2.549-3.57,13.678,13.678,0,0,0-10.366,0,5.661,5.661,0,0,0-2.532,3.57,28.336,28.336,0,0,0-.736,7.412V63.9a28.333,28.333,0,0,0,.736,7.412,5.661,5.661,0,0,0,2.532,3.57,10.657,10.657,0,0,0,5.183,1.02h0Zm0-4.284a2.075,2.075,0,0,1-1.694-.68,4.749,4.749,0,0,1-.787-2.346,40.812,40.812,0,0,1-.222-4.964v-0.34a40.823,40.823,0,0,1,.222-4.964,4.753,4.753,0,0,1,.787-2.346,2.076,2.076,0,0,1,1.694-.68,2.127,2.127,0,0,1,1.71.68,4.65,4.65,0,0,1,.8,2.363,40.839,40.839,0,0,1,.223,4.947v0.34a40.839,40.839,0,0,1-.223,4.947,4.649,4.649,0,0,1-.8,2.363,2.125,2.125,0,0,1-1.71.68h0Zm31.3-1.224-3.489-19.006H682.2l-3.489,18.9-2.532-18.9h-5.474l4.482,24.14h6.706l3.216-17.748,3.181,17.748H695l4.482-24.14h-5.1Z" transform="translate(-532.719 -44.219)"/>
</svg>
