<?xml version="1.0" encoding="utf-8"?>
<!-- Generator: Adobe Illustrator 18.1.1, SVG Export Plug-In . SVG Version: 6.00 Build 0)  -->
<svg version="1.1" id="Layer_1" xmlns="http://www.w3.org/2000/svg" xmlns:xlink="http://www.w3.org/1999/xlink" x="0px" y="0px"
	 viewBox="0 0 101 24" style="enable-background:new 0 0 101 24;" xml:space="preserve">
<path style="fill:#FFFFFF;" d="M9.3,7.6H7.6V17h5.1v-1.3H9.3V7.6z"/>
<path style="fill:#FFFFFF;" d="M16.6,10c-2,0-3.1,1.4-3.1,3.6c0,2.3,1.1,3.6,3.6,3.6c1,0,1.8-0.3,2.1-0.4c0-0.3,0-0.9-0.1-1.1
	c0-0.1-0.1-0.2-0.1-0.2s-0.2,0.1-0.3,0.1C18.6,15.7,18,16,17.2,16c-1.4,0-2.1-0.9-2.1-2h4.4c0-0.1,0.1-0.7,0.1-1
	C19.6,11.6,18.9,10,16.6,10z M15.1,12.9c0-0.6,0.2-1.7,1.5-1.7c1.1,0,1.4,1,1.4,1.6c0,0.1,0,0.1,0,0.2H15.1z"/>
<path style="fill:#FFFFFF;" d="M21.1,10.4c0,0.2,0,0.8,0,1.1c0,0,0,0.1,0.1,0.1c0.1,0,0.2-0.1,0.2-0.1c0.2-0.1,0.9-0.4,1.7-0.4
	c0.9,0,1.5,0.3,1.5,1.1c0,0,0,0.2,0,0.2s-0.3,0-0.4,0c-1.8,0-3.8,0.6-3.8,2.4c0,1.3,0.9,2.2,2.2,2.2c1.3,0,1.8-0.7,2.1-1h0.1l0,0.6
	c0,0.2,0,0.3,0.3,0.3c0.2,0,1.3,0,1.3,0c-0.1-0.5-0.1-1.2-0.1-1.8v-2.8c0-1.7-1-2.5-2.9-2.5C22.3,10,21.3,10.3,21.1,10.4z
	 M24.3,13.5c0.2,0,0.4,0,0.4,0s0,0.4,0,0.5c0,1.1-0.6,2-1.5,2c-0.7,0-1.1-0.5-1.1-1.1C22.1,14,22.8,13.5,24.3,13.5z"/>
<path style="fill:#FFFFFF;" d="M28,10.1c0,0.4,0.1,1.2,0.1,1.9c0,0.6,0,5,0,5h1.6c0,0,0-2.8,0-3.4c0-1.7,0.8-2.3,1.6-2.3
	c0.2,0,0.3,0,0.5,0.1c0.1,0,0.2,0.1,0.3,0.1c0.1,0,0.1-0.1,0.1-0.2c0-0.1,0-0.7,0.1-1.1c-0.1,0-0.4-0.2-0.8-0.2
	c-1.4,0-1.8,1.1-1.9,1.2h-0.1c0-0.2,0-0.7,0-0.9c0-0.1,0-0.2-0.2-0.2C29,10.1,28,10.1,28,10.1z"/>
<path style="fill:#FFFFFF;" d="M35.1,17c0,0,0-2.4,0-3.4c0-1.6,0.8-2.4,1.6-2.4c0.6,0,1.1,0.3,1.1,1.4c0,0.4,0,4.4,0,4.4h1.6
	c0,0,0-3.7,0-4.9c0-1.2-0.8-2.2-2.3-2.2c-1.1,0-1.7,0.5-2.1,1.2h-0.1c0,0,0-0.7,0-0.9c0-0.1-0.1-0.2-0.2-0.2c-0.2,0-1.2,0-1.2,0
	c0,0.5,0.1,1.4,0.1,2.1c0,0.5,0,4.8,0,4.8H35.1z"/>
<path style="fill:#FFFFFF;" d="M45.8,17l0.8-7.2h0.1l2.1,7.2h1.8l2.2-7.2h0.1l1,7.2h1.6l-1.4-9.4h-1.9L49.8,15l-2.3-7.4h-1.9
	L44.3,17H45.8z"/>
<path style="fill:#FFFFFF;" d="M59.8,11.2c1.1,0,1.7,1,1.7,2.4c0,1.5-0.7,2.4-1.7,2.4c-1.4,0-1.7-1.3-1.7-2.4
	C58,12.1,58.7,11.2,59.8,11.2z M56.4,13.6c0,2.3,1.3,3.6,3.4,3.6c2.4,0,3.4-1.7,3.4-3.6c0-2-1.1-3.6-3.4-3.6
	C57.3,10,56.4,11.8,56.4,13.6z"/>
<path style="fill:#FFFFFF;" d="M64.6,10.1c0,0.4,0.1,1.2,0.1,1.9c0,0.6,0,5,0,5h1.6c0,0,0-2.8,0-3.4c0-1.7,0.8-2.3,1.6-2.3
	c0.2,0,0.3,0,0.5,0.1c0.1,0,0.2,0.1,0.3,0.1c0.1,0,0.1-0.1,0.1-0.2c0-0.1,0-0.7,0.1-1.1c-0.1,0-0.4-0.2-0.8-0.2
	c-1.4,0-1.8,1.1-1.9,1.2H66c0-0.2,0-0.7,0-0.9c0-0.1,0-0.2-0.2-0.2C65.6,10.1,64.6,10.1,64.6,10.1z"/>
<path style="fill:#FFFFFF;" d="M72.3,10c-2,0-3.2,1.4-3.2,3.6c0,2.3,1.1,3.6,3.6,3.6c1,0,1.8-0.3,2.1-0.4c0-0.3,0-0.9-0.1-1.1
	c0-0.1-0.1-0.2-0.1-0.2s-0.2,0.1-0.3,0.1c-0.2,0.1-0.7,0.3-1.5,0.3c-1.4,0-2.1-0.9-2.1-2h4.4c0-0.1,0.1-0.7,0.1-1
	C75.2,11.6,74.6,10,72.3,10z M70.8,12.9c0-0.6,0.2-1.7,1.5-1.7c1.1,0,1.4,1,1.4,1.6c0,0.1,0,0.1,0,0.2H70.8z"/>
</svg>
