<svg xmlns="http://www.w3.org/2000/svg" width="78.531" height="16.906" viewBox="0 0 78.531 16.906">
  <metadata><?xpacket begin="﻿" id="W5M0MpCehiHzreSzNTczkc9d"?>
<x:xmpmeta xmlns:x="adobe:ns:meta/" x:xmptk="Adobe XMP Core 5.6-c138 79.159824, 2016/09/14-01:09:01        ">
   <rdf:RDF xmlns:rdf="http://www.w3.org/1999/02/22-rdf-syntax-ns#">
      <rdf:Description rdf:about=""/>
   </rdf:RDF>
</x:xmpmeta>
                                                                                                    
                                                                                                    
                                                                                                    
                                                                                                    
                                                                                                    
                                                                                                    
                                                                                                    
                                                                                                    
                                                                                                    
                                                                                                    
                                                                                                    
                                                                                                    
                                                                                                    
                                                                                                    
                                                                                                    
                                                                                                    
                                                                                                    
                                                                                                    
                                                                                                    
                                                                                                    
                           
<?xpacket end="w"?></metadata>
<defs>
    <style>
      .cls-1, .cls-2 {
        fill-rule: evenodd;
      }

      .cls-2 {
        fill: #fff;
      }
    </style>
  </defs>
  <path id="Rounded_Rectangle_1" data-name="Rounded Rectangle 1" class="cls-1" d="M243.474,25.082H312a5,5,0,0,1,5,5V37a5,5,0,0,1-5,5H243.474a5,5,0,0,1-5-5V30.082A5,5,0,0,1,243.474,25.082Z" transform="translate(-238.469 -25.094)"/>
  <path id="SHOP_NOW" data-name="SHOP NOW" class="cls-2" d="M247.748,39.5a5.079,5.079,0,0,0,1.932-.3,1.939,1.939,0,0,0,1.036-.973,4.223,4.223,0,0,0,.322-1.806,3.56,3.56,0,0,0-.413-1.806,2.224,2.224,0,0,0-1.19-1l-0.889-.329-0.49-.2a5.213,5.213,0,0,1-.672-0.294,1.027,1.027,0,0,1-.371-0.364,1.218,1.218,0,0,1-.147-0.644,0.792,0.792,0,0,1,.91-0.882,0.9,0.9,0,0,1,.728.252,1.237,1.237,0,0,1,.21.8v0.21H250.8v-0.21a3.752,3.752,0,0,0-.28-1.6,1.675,1.675,0,0,0-.91-0.84,4.738,4.738,0,0,0-1.75-.259,3.668,3.668,0,0,0-2.429.644,2.721,2.721,0,0,0-.735,2.142A3.229,3.229,0,0,0,245,33.574a2.125,2.125,0,0,0,.749.833,7.428,7.428,0,0,0,1.183.546l0.532,0.21q0.546,0.21.8,0.336a1.083,1.083,0,0,1,.434.427,1.572,1.572,0,0,1,.182.819,1.268,1.268,0,0,1-.231.833,1.029,1.029,0,0,1-.819.273,1.043,1.043,0,0,1-.9-0.343,2,2,0,0,1-.252-1.155V36.031H244.57v0.364a4.662,4.662,0,0,0,.294,1.841,1.839,1.839,0,0,0,.98.966,4.862,4.862,0,0,0,1.9.3h0Zm7.028-.154V35.331h2.156v4.018h2.3v-9.94h-2.3v3.864h-2.156V29.409h-2.3v9.94h2.3Zm9.478,0.154a4.339,4.339,0,0,0,2.121-.42,2.355,2.355,0,0,0,1.043-1.47,11.507,11.507,0,0,0,.308-3.052V34.2a11.508,11.508,0,0,0-.308-3.052,2.355,2.355,0,0,0-1.043-1.47,5.566,5.566,0,0,0-4.242,0,2.333,2.333,0,0,0-1.036,1.47,11.736,11.736,0,0,0-.3,3.052v0.364a11.735,11.735,0,0,0,.3,3.052,2.333,2.333,0,0,0,1.036,1.47,4.339,4.339,0,0,0,2.121.42h0Zm0-1.764a0.846,0.846,0,0,1-.693-0.28,1.966,1.966,0,0,1-.322-0.966,16.811,16.811,0,0,1-.091-2.044v-0.14a16.815,16.815,0,0,1,.091-2.044,1.968,1.968,0,0,1,.322-0.966,0.847,0.847,0,0,1,.693-0.28,0.868,0.868,0,0,1,.7.28,1.924,1.924,0,0,1,.329.973,16.839,16.839,0,0,1,.091,2.037v0.14a16.839,16.839,0,0,1-.091,2.037,1.924,1.924,0,0,1-.329.973,0.868,0.868,0,0,1-.7.28h0Zm5.054,1.61h2.3V35.891h0.476a7.34,7.34,0,0,0,2.261-.273,1.922,1.922,0,0,0,1.148-.931,4.057,4.057,0,0,0,.343-1.848V32.475a4.1,4.1,0,0,0-.343-1.862,1.923,1.923,0,0,0-1.148-.931,7.34,7.34,0,0,0-2.261-.273h-2.772v9.94Zm2.3-5.25V31.2h0.434a2.468,2.468,0,0,1,.9.126,0.721,0.721,0,0,1,.42.413,2.442,2.442,0,0,1,.112.847v0.14a2.388,2.388,0,0,1-.112.833,0.721,0.721,0,0,1-.42.413,2.468,2.468,0,0,1-.9.126H271.6Zm14.1,1.932-2.45-6.622H280.7v9.94h1.974V32.727l2.45,6.622h2.548v-9.94H285.7v6.622Zm7.014,3.472a4.339,4.339,0,0,0,2.121-.42,2.359,2.359,0,0,0,1.043-1.47,11.507,11.507,0,0,0,.308-3.052V34.2a11.508,11.508,0,0,0-.308-3.052,2.359,2.359,0,0,0-1.043-1.47,5.566,5.566,0,0,0-4.242,0,2.329,2.329,0,0,0-1.036,1.47,11.736,11.736,0,0,0-.3,3.052v0.364a11.735,11.735,0,0,0,.3,3.052,2.329,2.329,0,0,0,1.036,1.47,4.339,4.339,0,0,0,2.121.42h0Zm0-1.764a0.846,0.846,0,0,1-.693-0.28,1.956,1.956,0,0,1-.322-0.966,16.811,16.811,0,0,1-.091-2.044v-0.14a16.815,16.815,0,0,1,.091-2.044,1.958,1.958,0,0,1,.322-0.966,0.847,0.847,0,0,1,.693-0.28,0.868,0.868,0,0,1,.7.28,1.934,1.934,0,0,1,.329.973,17.051,17.051,0,0,1,.091,2.037v0.14a17.051,17.051,0,0,1-.091,2.037,1.933,1.933,0,0,1-.329.973,0.868,0.868,0,0,1-.7.28h0Zm12.81-.5L304.1,29.409h-2.506l-1.428,7.784-1.036-7.784h-2.24l1.834,9.94h2.744l1.316-7.308,1.3,7.308h2.744l1.834-9.94h-2.086Z" transform="translate(-238.469 -25.094)"/>
</svg>
