<svg xmlns="http://www.w3.org/2000/svg" width="284.75" height="25.594" viewBox="0 0 284.75 25.594">
  <metadata><?xpacket begin="﻿" id="W5M0MpCehiHzreSzNTczkc9d"?>
<x:xmpmeta xmlns:x="adobe:ns:meta/" x:xmptk="Adobe XMP Core 5.6-c138 79.159824, 2016/09/14-01:09:01        ">
   <rdf:RDF xmlns:rdf="http://www.w3.org/1999/02/22-rdf-syntax-ns#">
      <rdf:Description rdf:about=""/>
   </rdf:RDF>
</x:xmpmeta>
                                                                                                    
                                                                                                    
                                                                                                    
                                                                                                    
                                                                                                    
                                                                                                    
                                                                                                    
                                                                                                    
                                                                                                    
                                                                                                    
                                                                                                    
                                                                                                    
                                                                                                    
                                                                                                    
                                                                                                    
                                                                                                    
                                                                                                    
                                                                                                    
                                                                                                    
                                                                                                    
                           
<?xpacket end="w"?></metadata>
<defs>
    <style>
      .cls-1 {
        fill: #fff;
        fill-rule: evenodd;
      }
    </style>
  </defs>
  <path id="AT_YOUR_DOORSTEP" data-name="AT YOUR DOORSTEP" class="cls-1" d="M26.273,44.533l-6.02-24.85H12.868l-6.02,24.85h5.81l0.875-4.725h5.95l0.875,4.725h5.915Zm-9.765-20.65,2.17,11.655h-4.34Zm19.53,20.65V24.653h4.935v-4.97H25.4v4.97h4.9v19.88h5.74Zm26.32-24.85-3.29,10.465-3.29-10.465H49.654l6.475,16v8.855h5.74V35.678l6.475-15.995H62.359Zm15.4,25.235a10.847,10.847,0,0,0,5.3-1.05,5.892,5.892,0,0,0,2.608-3.675,28.747,28.747,0,0,0,.77-7.63v-0.91a28.75,28.75,0,0,0-.77-7.63,5.892,5.892,0,0,0-2.608-3.675,10.847,10.847,0,0,0-5.3-1.05,10.847,10.847,0,0,0-5.3,1.05,5.829,5.829,0,0,0-2.59,3.675,29.361,29.361,0,0,0-.752,7.63v0.91a29.358,29.358,0,0,0,.752,7.63,5.829,5.829,0,0,0,2.59,3.675,10.847,10.847,0,0,0,5.3,1.05h0Zm0-4.41a2.115,2.115,0,0,1-1.733-.7,4.906,4.906,0,0,1-.8-2.415,42.131,42.131,0,0,1-.228-5.11v-0.35a42.142,42.142,0,0,1,.228-5.11,4.91,4.91,0,0,1,.8-2.415,2.116,2.116,0,0,1,1.733-.7,2.17,2.17,0,0,1,1.75.7,4.816,4.816,0,0,1,.823,2.432,42.309,42.309,0,0,1,.227,5.093v0.35a42.309,42.309,0,0,1-.227,5.093,4.814,4.814,0,0,1-.823,2.433,2.168,2.168,0,0,1-1.75.7h0Zm20.86,4.41a11.694,11.694,0,0,0,5.058-.875,5.041,5.041,0,0,0,2.52-2.94,18.077,18.077,0,0,0,.752-5.915v-15.5h-5.88V35.608a16.1,16.1,0,0,1-.21,2.975,2.519,2.519,0,0,1-.735,1.487,2.807,2.807,0,0,1-3.01,0,2.519,2.519,0,0,1-.735-1.487,16.1,16.1,0,0,1-.21-2.975V19.683h-5.88V35.188a18.047,18.047,0,0,0,.752,5.915,5.038,5.038,0,0,0,2.52,2.94,11.688,11.688,0,0,0,5.057.875h0Zm29.645-.385-3.64-10.01a4.6,4.6,0,0,0,2.415-2.292,9.921,9.921,0,0,0,.735-4.183v-0.91a9.825,9.825,0,0,0-.857-4.568,4.726,4.726,0,0,0-2.853-2.24,19.259,19.259,0,0,0-5.67-.648H111.5v24.85h5.74V35.468h2.24l2.7,9.065h6.09Zm-9.975-13.545h-1.05V24.163h1.05a7.033,7.033,0,0,1,2.275.28,1.7,1.7,0,0,1,1.05.962,5.549,5.549,0,0,1,.28,2.012v0.35a4.911,4.911,0,0,1-.3,1.907,1.882,1.882,0,0,1-1.068,1,6.172,6.172,0,0,1-2.24.315h0Zm22.644,13.545h7.385a12.96,12.96,0,0,0,5.74-1.015,5.8,5.8,0,0,0,2.835-3.57,24.905,24.905,0,0,0,.84-7.385v-0.91a24.907,24.907,0,0,0-.84-7.385,5.8,5.8,0,0,0-2.835-3.57,12.967,12.967,0,0,0-5.74-1.015h-7.385v24.85Zm5.74-4.515V24.163h1.365a3.79,3.79,0,0,1,2.433.648,3.617,3.617,0,0,1,1.067,2.24,30.823,30.823,0,0,1,.28,4.883v0.35a30.815,30.815,0,0,1-.28,4.883,3.531,3.531,0,0,1-1.067,2.223,3.867,3.867,0,0,1-2.433.63h-1.365Zm22.925,4.9a10.845,10.845,0,0,0,5.3-1.05,5.894,5.894,0,0,0,2.608-3.675,28.747,28.747,0,0,0,.77-7.63v-0.91a28.75,28.75,0,0,0-.77-7.63,5.894,5.894,0,0,0-2.608-3.675,13.914,13.914,0,0,0-10.6,0,5.83,5.83,0,0,0-2.59,3.675,29.365,29.365,0,0,0-.752,7.63v0.91a29.362,29.362,0,0,0,.752,7.63,5.83,5.83,0,0,0,2.59,3.675,10.849,10.849,0,0,0,5.3,1.05h0Zm0-4.41a2.116,2.116,0,0,1-1.733-.7,4.911,4.911,0,0,1-.805-2.415,42.153,42.153,0,0,1-.227-5.11v-0.35a42.165,42.165,0,0,1,.227-5.11,4.915,4.915,0,0,1,.805-2.415,2.117,2.117,0,0,1,1.733-.7,2.17,2.17,0,0,1,1.75.7,4.821,4.821,0,0,1,.822,2.432,42.182,42.182,0,0,1,.228,5.093v0.35a42.182,42.182,0,0,1-.228,5.093,4.819,4.819,0,0,1-.822,2.433,2.168,2.168,0,0,1-1.75.7h0Zm20.58,4.41a10.845,10.845,0,0,0,5.3-1.05,5.894,5.894,0,0,0,2.608-3.675,28.747,28.747,0,0,0,.77-7.63v-0.91a28.75,28.75,0,0,0-.77-7.63,5.894,5.894,0,0,0-2.608-3.675,13.914,13.914,0,0,0-10.605,0,5.83,5.83,0,0,0-2.59,3.675,29.365,29.365,0,0,0-.752,7.63v0.91a29.362,29.362,0,0,0,.752,7.63,5.83,5.83,0,0,0,2.59,3.675,10.849,10.849,0,0,0,5.3,1.05h0Zm0-4.41a2.116,2.116,0,0,1-1.733-.7,4.911,4.911,0,0,1-.8-2.415,42.153,42.153,0,0,1-.227-5.11v-0.35a42.165,42.165,0,0,1,.227-5.11,4.915,4.915,0,0,1,.8-2.415,2.117,2.117,0,0,1,1.733-.7,2.17,2.17,0,0,1,1.75.7,4.821,4.821,0,0,1,.822,2.432,42.182,42.182,0,0,1,.228,5.093v0.35a42.182,42.182,0,0,1-.228,5.093,4.819,4.819,0,0,1-.822,2.433,2.168,2.168,0,0,1-1.75.7h0Zm29.4,4.025-3.64-10.01a4.6,4.6,0,0,0,2.415-2.292,9.921,9.921,0,0,0,.735-4.183v-0.91a9.825,9.825,0,0,0-.857-4.568,4.726,4.726,0,0,0-2.853-2.24,19.259,19.259,0,0,0-5.67-.648h-6.895v24.85h5.74V35.468h2.24l2.695,9.065h6.09ZM209.6,30.988h-1.05V24.163h1.05a7.033,7.033,0,0,1,2.275.28,1.7,1.7,0,0,1,1.05.962,5.549,5.549,0,0,1,.28,2.012v0.35a4.911,4.911,0,0,1-.3,1.907,1.882,1.882,0,0,1-1.068,1,6.172,6.172,0,0,1-2.24.315h0Zm20.2,13.93a12.7,12.7,0,0,0,4.83-.753,4.858,4.858,0,0,0,2.59-2.432,10.58,10.58,0,0,0,.8-4.515,8.92,8.92,0,0,0-1.033-4.515,5.562,5.562,0,0,0-2.975-2.5q-1.943-.717-2.222-0.823l-1.225-.49a12.663,12.663,0,0,1-1.68-.735,2.556,2.556,0,0,1-.928-0.91,3.045,3.045,0,0,1-.367-1.61,1.98,1.98,0,0,1,2.275-2.2,2.26,2.26,0,0,1,1.82.63,3.093,3.093,0,0,1,.525,2v0.525h5.215V26.053a9.4,9.4,0,0,0-.7-4.008,4.2,4.2,0,0,0-2.275-2.1,11.85,11.85,0,0,0-4.375-.647q-4.236,0-6.073,1.61t-1.837,5.355a8.055,8.055,0,0,0,.77,3.832,5.288,5.288,0,0,0,1.872,2.082,18.453,18.453,0,0,0,2.958,1.365l1.33,0.525q1.365,0.525,2,.84a2.716,2.716,0,0,1,1.085,1.068,3.96,3.96,0,0,1,.455,2.047,3.169,3.169,0,0,1-.578,2.083,2.571,2.571,0,0,1-2.047.682,2.605,2.605,0,0,1-2.24-.858,5.012,5.012,0,0,1-.63-2.887v-0.8h-5.285v0.91a11.655,11.655,0,0,0,.735,4.6,4.592,4.592,0,0,0,2.45,2.415,12.144,12.144,0,0,0,4.76.753h0Zm20.335-.385V24.653h4.935v-4.97H239.492v4.97h4.9v19.88h5.74Zm21.63,0V40.158h-8.12V34.033h7.035V29.658h-7.035v-5.6h7.77V19.683H257.9v24.85h13.86Zm3.534,0h5.74V35.888h1.19a18.353,18.353,0,0,0,5.653-.683,4.808,4.808,0,0,0,2.87-2.327,10.163,10.163,0,0,0,.857-4.62v-0.91a10.262,10.262,0,0,0-.857-4.655,4.81,4.81,0,0,0-2.87-2.328,18.353,18.353,0,0,0-5.653-.683H275.3v24.85Zm5.74-13.125V24.163h1.085a6.172,6.172,0,0,1,2.24.315,1.8,1.8,0,0,1,1.05,1.032,6.117,6.117,0,0,1,.28,2.117v0.35a5.981,5.981,0,0,1-.28,2.082,1.8,1.8,0,0,1-1.05,1.032,6.172,6.172,0,0,1-2.24.315h-1.085Z" transform="translate(-6.844 -19.313)"/>
</svg>
