<?xml version="1.0" encoding="utf-8"?>
<!-- Generator: Adobe Illustrator 16.2.1, SVG Export Plug-In . SVG Version: 6.00 Build 0)  -->
<!DOCTYPE svg PUBLIC "-//W3C//DTD SVG 1.1//EN" "http://www.w3.org/Graphics/SVG/1.1/DTD/svg11.dtd">
<svg version="1.1" id="Layer_1" xmlns="http://www.w3.org/2000/svg" xmlns:xlink="http://www.w3.org/1999/xlink" x="0px" y="0px"
	 width="300px" height="250px" viewBox="0 0 300 250" enable-background="new 0 0 300 250" xml:space="preserve">
<path d="M20.082,18.518l5.952,20.992h4.074l2.535-12.276l0.741-4.059l0.74,4.059l2.535,12.276h4.2l5.905-20.992h-4.466L39.5,30.667
	l-0.648,3.217l-0.639-3.347l-2.494-12.019h-4.628l-2.371,12.09l-0.605,3.276l-0.604-3.345l-2.772-12.021H20.082z"/>
<path d="M57.239,23.573c-0.851,0-1.662,0.178-2.432,0.534c-0.771,0.356-1.449,0.985-2.035,1.887v-7.406h-4.059v20.921h4.059v-8.412
	c0-1.331,0.276-2.355,0.827-3.073c0.551-0.717,1.359-1.077,2.424-1.077c1.027,0,1.725,0.361,2.092,1.084
	c0.283,0.513,0.424,1.188,0.424,2.024v9.453h4.144v-9.123c0-1.387-0.047-2.388-0.142-3c-0.095-0.613-0.354-1.209-0.78-1.789
	c-0.501-0.684-1.142-1.192-1.922-1.525S58.194,23.573,57.239,23.573L57.239,23.573z"/>
<path d="M74.782,33.471c-0.029,1.358-0.417,2.292-1.164,2.805c-0.748,0.513-1.564,0.77-2.451,0.77c-0.559,0-1.034-0.154-1.424-0.463
	c-0.391-0.309-0.586-0.81-0.586-1.503c0-0.778,0.32-1.353,0.959-1.723c0.377-0.218,1-0.403,1.866-0.555l0.924-0.171
	c0.462-0.085,0.825-0.178,1.09-0.278s0.527-0.23,0.787-0.392V33.471z M70.908,30.238c-1.578,0.199-2.774,0.532-3.587,0.997
	c-1.482,0.854-2.224,2.236-2.224,4.144c0,1.472,0.46,2.609,1.382,3.411c0.921,0.802,2.089,1.203,3.502,1.203
	c1.107,0,2.101-0.251,2.979-0.755c0.735-0.427,1.385-0.944,1.948-1.552c0.028,0.352,0.066,0.665,0.114,0.94
	c0.047,0.275,0.133,0.57,0.256,0.883h4.415v-0.598c-0.266-0.123-0.465-0.28-0.598-0.47c-0.133-0.19-0.214-0.551-0.242-1.083
	c-0.019-0.702-0.029-1.301-0.029-1.794v-7.121c0-1.87-0.663-3.143-1.988-3.817c-1.326-0.674-2.842-1.011-4.548-1.011
	c-2.623,0-4.472,0.684-5.55,2.051c-0.677,0.874-1.059,1.989-1.144,3.347h3.917c0.096-0.598,0.289-1.072,0.577-1.424
	c0.404-0.475,1.092-0.712,2.064-0.712c0.866,0,1.523,0.121,1.97,0.363c0.448,0.242,0.671,0.682,0.671,1.317
	c0,0.522-0.292,0.907-0.875,1.154c-0.325,0.142-0.866,0.261-1.621,0.356L70.908,30.238z"/>
<path d="M82.566,27.02v9.556c0,0.968,0.228,1.686,0.684,2.15c0.703,0.731,2.013,1.063,3.931,0.997l1.923-0.071v-3.034
	c-0.133,0.01-0.269,0.017-0.406,0.021c-0.138,0.005-0.268,0.007-0.392,0.007c-0.826,0-1.32-0.079-1.481-0.235
	c-0.162-0.157-0.242-0.553-0.242-1.189V27.02h2.521v-2.891h-2.521v-4.329h-4.016v4.329h-2.165v2.891H82.566z"/>
<path d="M106.478,36.177c-1.418,0-2.402-0.655-2.95-1.965c-0.302-0.702-0.454-1.504-0.454-2.407c0-1.044,0.142-1.922,0.425-2.635
	c0.539-1.338,1.518-2.008,2.936-2.008c1.04,0,1.869,0.384,2.489,1.153c0.619,0.769,0.929,1.89,0.929,3.361
	c0,1.566-0.326,2.708-0.979,3.425C108.222,35.819,107.423,36.177,106.478,36.177L106.478,36.177z M105.458,23.616
	c-2.105,0-3.731,0.786-4.879,2.357c-1.147,1.572-1.721,3.511-1.721,5.818c0,2.393,0.596,4.289,1.787,5.689s2.784,2.101,4.778,2.101
	c1.291,0,2.34-0.309,3.147-0.926c0.446-0.332,0.864-0.831,1.253-1.495v0.997c0,1.481-0.162,2.535-0.484,3.161
	c-0.494,0.978-1.472,1.467-2.934,1.467c-1.035,0-1.771-0.185-2.208-0.556c-0.256-0.209-0.441-0.551-0.555-1.025h-4.415
	c0.133,1.547,0.826,2.711,2.079,3.489c1.253,0.778,2.872,1.168,4.856,1.168c3.285,0,5.507-0.874,6.665-2.621
	c0.674-1.016,1.011-2.525,1.011-4.529V23.986h-3.959v2.236c-0.607-1.092-1.403-1.842-2.39-2.25
	C106.913,23.735,106.235,23.616,105.458,23.616L105.458,23.616z"/>
<path d="M123.856,26.92c0.958,0,1.76,0.279,2.407,0.837c0.647,0.558,1.007,1.375,1.081,2.453h-6.993
	c0.147-1.01,0.508-1.811,1.082-2.402C122.006,27.216,122.814,26.92,123.856,26.92L123.856,26.92z M123.854,23.573
	c-2.275,0-4.125,0.718-5.551,2.152c-1.426,1.435-2.139,3.497-2.139,6.186c0,2.87,0.79,4.941,2.369,6.215
	c1.58,1.273,3.402,1.91,5.468,1.91c2.503,0,4.449-0.755,5.84-2.265c0.894-0.949,1.396-1.885,1.505-2.806h-4.144
	c-0.242,0.456-0.52,0.812-0.835,1.068c-0.578,0.475-1.33,0.712-2.254,0.712c-0.872,0-1.618-0.194-2.238-0.584
	c-1.02-0.626-1.561-1.718-1.624-3.275h11.306c0.02-1.341-0.024-2.368-0.134-3.081c-0.189-1.217-0.601-2.287-1.237-3.209
	c-0.706-1.046-1.6-1.812-2.683-2.296S125.205,23.573,123.854,23.573L123.854,23.573z"/>
<path d="M142.242,23.616c-1.276,0-2.331,0.313-3.163,0.94c-0.463,0.352-0.955,0.926-1.475,1.724v-2.265h-3.931v15.495h4.059v-8.402
	c0-0.959,0.132-1.747,0.396-2.364c0.509-1.167,1.446-1.751,2.813-1.751c1.112,0,1.866,0.399,2.262,1.196
	c0.217,0.437,0.325,1.063,0.325,1.88v9.442h4.158V29.056c0-1.946-0.508-3.34-1.524-4.18
	C145.146,24.036,143.84,23.616,142.242,23.616L142.242,23.616z"/>
<path d="M155.106,18.389h-4.116v3.746h4.116V18.389z M150.991,39.509h4.116V23.986h-4.116V39.509z"/>
<path d="M165.232,26.92c0.958,0,1.76,0.279,2.407,0.837c0.647,0.558,1.007,1.375,1.081,2.453h-6.993
	c0.147-1.01,0.508-1.811,1.082-2.402C163.383,27.216,164.19,26.92,165.232,26.92L165.232,26.92z M165.23,23.573
	c-2.275,0-4.125,0.718-5.551,2.152c-1.426,1.435-2.139,3.497-2.139,6.186c0,2.87,0.79,4.941,2.369,6.215
	c1.579,1.273,3.402,1.91,5.468,1.91c2.503,0,4.449-0.755,5.84-2.265c0.894-0.949,1.396-1.885,1.505-2.806h-4.144
	c-0.241,0.456-0.52,0.812-0.835,1.068c-0.578,0.475-1.33,0.712-2.254,0.712c-0.872,0-1.618-0.194-2.238-0.584
	c-1.019-0.626-1.561-1.718-1.624-3.275h11.306c0.02-1.341-0.024-2.368-0.134-3.081c-0.188-1.217-0.601-2.287-1.237-3.209
	c-0.706-1.046-1.6-1.812-2.683-2.296C167.799,23.816,166.582,23.573,165.23,23.573L165.23,23.573z"/>
<path d="M174.083,34.553c0,1.595,0.583,2.908,1.748,3.938c1.165,1.03,2.97,1.545,5.416,1.545c2.397,0,4.169-0.487,5.315-1.46
	s1.72-2.229,1.72-3.767c0-1.167-0.399-2.141-1.196-2.919c-0.807-0.769-2.019-1.343-3.636-1.723
	c-2.425-0.532-3.838-0.907-4.238-1.125c-0.4-0.209-0.6-0.546-0.6-1.011c0-0.37,0.188-0.693,0.564-0.968s1.007-0.413,1.892-0.413
	c1.076,0,1.837,0.275,2.285,0.826c0.238,0.304,0.385,0.717,0.442,1.239h4.059c-0.181-1.899-0.883-3.235-2.105-4.009
	s-2.804-1.161-4.745-1.161c-2.046,0-3.632,0.515-4.76,1.545s-1.691,2.262-1.691,3.696c0,1.215,0.361,2.146,1.083,2.792
	c0.721,0.655,1.964,1.201,3.728,1.638c2.45,0.579,3.866,0.987,4.246,1.225s0.571,0.584,0.571,1.04c0,0.475-0.236,0.831-0.708,1.068
	s-1.109,0.356-1.91,0.356c-1.364,0-2.299-0.271-2.805-0.812c-0.286-0.304-0.472-0.816-0.558-1.538H174.083z"/>
<path d="M26.64,64.29l-2.421-11.137h-4.358l4.358,15.523h4.215l2.464-11.308l2.435,11.308h4.173l4.5-15.523h-4.229l-2.421,11.18
	l-2.364-11.18h-4.116L26.64,64.29z"/>
<path d="M47.905,47.556h-4.116v3.746h4.116V47.556z M43.789,68.676h4.116V53.153h-4.116V68.676z"/>
<path d="M50.409,63.72c0,1.595,0.583,2.908,1.749,3.938c1.165,1.03,2.97,1.545,5.416,1.545c2.397,0,4.169-0.487,5.315-1.46
	s1.72-2.229,1.72-3.767c0-1.168-0.399-2.141-1.196-2.919c-0.807-0.769-2.02-1.344-3.636-1.724c-2.425-0.531-3.838-0.906-4.238-1.125
	c-0.4-0.208-0.6-0.546-0.6-1.011c0-0.37,0.188-0.693,0.564-0.968s1.006-0.413,1.892-0.413c1.076,0,1.837,0.275,2.285,0.826
	c0.238,0.304,0.385,0.717,0.442,1.239h4.059c-0.181-1.898-0.883-3.235-2.105-4.009s-2.805-1.161-4.745-1.161
	c-2.046,0-3.632,0.515-4.76,1.545c-1.128,1.03-1.691,2.262-1.691,3.695c0,1.215,0.361,2.146,1.083,2.792
	c0.721,0.655,1.964,1.201,3.728,1.638c2.45,0.579,3.866,0.988,4.246,1.225c0.38,0.238,0.571,0.584,0.571,1.04
	c0,0.475-0.236,0.831-0.708,1.068s-1.109,0.356-1.91,0.356c-1.364,0-2.299-0.271-2.805-0.812c-0.286-0.304-0.472-0.816-0.558-1.538
	H50.409z"/>
<path d="M75.675,52.74c-0.851,0-1.662,0.178-2.432,0.534s-1.449,0.985-2.035,1.887v-7.406h-4.059v20.921h4.059v-8.412
	c0-1.331,0.275-2.355,0.827-3.072c0.552-0.718,1.36-1.077,2.425-1.077c1.027,0,1.725,0.361,2.092,1.083
	c0.282,0.513,0.424,1.188,0.424,2.024v9.453h4.145v-9.123c0-1.387-0.047-2.387-0.142-3s-0.354-1.209-0.78-1.79
	c-0.501-0.684-1.142-1.192-1.921-1.525S76.629,52.74,75.675,52.74L75.675,52.74z"/>
<path d="M98.765,47.471c-2.25,0-3.669,0.465-4.258,1.396c-0.561,0.626-0.84,1.771-0.84,3.432v0.997h-2.222v2.862h2.278v12.519h4.031
	V56.158h2.663v-2.862h-2.663c0-0.57,0-1.006,0-1.311c0-0.304,0.102-0.581,0.306-0.833c0.204-0.251,0.575-0.37,1.111-0.356
	c0.536,0.014,0.918,0.036,1.146,0.064v-3.304c-0.361-0.028-0.646-0.05-0.854-0.064C99.254,47.478,99.021,47.471,98.765,47.471
	L98.765,47.471z"/>
<path d="M109.171,65.799c-1.187,0-2.101-0.422-2.741-1.266c-0.641-0.844-0.961-2.043-0.961-3.598c0-1.555,0.32-2.752,0.961-3.591
	c0.641-0.839,1.555-1.259,2.741-1.259c1.187,0,2.099,0.42,2.734,1.259c0.636,0.839,0.955,2.036,0.955,3.591
	c0,1.555-0.318,2.754-0.955,3.598C111.27,65.377,110.358,65.799,109.171,65.799L109.171,65.799z M117.118,60.936
	c0-2.239-0.655-4.179-1.965-5.82c-1.311-1.641-3.3-2.462-5.967-2.462c-2.668,0-4.657,0.821-5.967,2.462
	c-1.311,1.641-1.965,3.581-1.965,5.82c0,2.277,0.655,4.224,1.965,5.841c1.31,1.617,3.299,2.426,5.967,2.426
	c2.667,0,4.657-0.809,5.967-2.426C116.463,65.16,117.118,63.213,117.118,60.936L117.118,60.936z"/>
<path d="M128.058,52.783c-1.215,0-2.203,0.318-2.962,0.954c-0.465,0.38-1.011,1.087-1.638,2.122v-2.706h-3.874v15.523h4.087v-7.42
	c0-1.244,0.157-2.165,0.47-2.763c0.56-1.063,1.657-1.595,3.29-1.595c0.123,0,0.285,0.005,0.484,0.014
	c0.2,0.01,0.427,0.028,0.684,0.057v-4.159c-0.18-0.009-0.297-0.017-0.349-0.021C128.198,52.785,128.134,52.783,128.058,52.783
	L128.058,52.783z"/>
</svg>
