<?xml version="1.0" encoding="utf-8"?>
<!-- Generator: Adobe Illustrator 16.2.1, SVG Export Plug-In . SVG Version: 6.00 Build 0)  -->
<!DOCTYPE svg PUBLIC "-//W3C//DTD SVG 1.1//EN" "http://www.w3.org/Graphics/SVG/1.1/DTD/svg11.dtd">
<svg version="1.1" id="Layer_1" xmlns="http://www.w3.org/2000/svg" xmlns:xlink="http://www.w3.org/1999/xlink" x="0px" y="0px"
	 width="300px" height="250px" viewBox="0 0 300 250" enable-background="new 0 0 300 250" xml:space="preserve">
<path d="M25.77,109.391c1.284,0,2.141,0.368,2.572,1.103c0.431,0.736,0.646,1.79,0.646,3.164c0,0.995-0.144,1.852-0.431,2.572
	c-0.526,1.312-1.455,1.969-2.788,1.969h-2.604v-8.808H25.77z M26.247,107.047h-5.818v13.495h5.818c2.04,0,3.549-0.839,4.526-2.518
	c0.721-1.245,1.081-2.765,1.081-4.559c0-0.708-0.085-1.453-0.257-2.234c-0.171-0.781-0.492-1.507-0.962-2.179
	c-0.586-0.83-1.353-1.401-2.3-1.712C27.78,107.157,27.083,107.059,26.247,107.047L26.247,107.047z"/>
<path d="M39.178,110.325c-0.781,0-1.416,0.204-1.904,0.613c-0.299,0.244-0.65,0.699-1.053,1.364v-1.739h-2.49v9.979h2.627v-4.77
	c0-0.8,0.101-1.392,0.302-1.776c0.36-0.684,1.065-1.025,2.115-1.025c0.079,0,0.183,0.003,0.311,0.009
	c0.128,0.006,0.275,0.019,0.439,0.037v-2.673c-0.116-0.006-0.19-0.011-0.224-0.014S39.227,110.325,39.178,110.325L39.178,110.325z"
	/>
<path d="M43.737,106.964h-2.646v2.408h2.646V106.964z M41.092,120.542h2.646v-9.979h-2.646V120.542z"/>
<path d="M51.791,110.325c-0.82,0-1.498,0.201-2.033,0.604c-0.298,0.226-0.614,0.595-0.948,1.108v-1.456h-2.527v9.96h2.609v-5.401
	c0-0.616,0.084-1.123,0.254-1.52c0.327-0.751,0.93-1.126,1.809-1.126c0.715,0,1.199,0.256,1.454,0.769
	c0.139,0.281,0.209,0.684,0.209,1.208v6.07h2.673v-6.72c0-1.251-0.327-2.147-0.98-2.687S52.818,110.325,51.791,110.325
	L51.791,110.325z"/>
<path d="M57.69,120.542h2.563v-3.14l1.081-1.123l2.417,4.263h3.176l-3.715-6.216l3.577-3.717h-3.244l-3.292,3.764v-7.28H57.69
	V120.542z"/>
<path d="M77.832,118.692c-0.763,0-1.35-0.271-1.762-0.813s-0.618-1.313-0.618-2.313s0.206-1.769,0.618-2.308
	c0.412-0.54,1-0.809,1.762-0.809c0.763,0,1.349,0.27,1.758,0.809c0.409,0.539,0.613,1.309,0.613,2.308s-0.205,1.771-0.613,2.313
	C79.181,118.421,78.595,118.692,77.832,118.692L77.832,118.692z M82.94,115.566c0-1.439-0.421-2.687-1.264-3.741
	c-0.842-1.055-2.121-1.583-3.836-1.583c-1.715,0-2.994,0.527-3.836,1.583c-0.842,1.055-1.264,2.302-1.264,3.741
	c0,1.464,0.421,2.715,1.264,3.755s2.121,1.56,3.836,1.56c1.715,0,2.994-0.52,3.836-1.56S82.94,117.03,82.94,115.566L82.94,115.566z"
	/>
<path d="M90.334,110.325c-0.821,0-1.499,0.201-2.033,0.604c-0.298,0.226-0.614,0.595-0.948,1.108v-1.456h-2.527v9.96h2.609v-5.401
	c0-0.616,0.085-1.123,0.254-1.52c0.327-0.751,0.93-1.126,1.809-1.126c0.715,0,1.2,0.256,1.454,0.769
	c0.14,0.281,0.209,0.684,0.209,1.208v6.07h2.673v-6.72c0-1.251-0.327-2.147-0.98-2.687S91.361,110.325,90.334,110.325
	L90.334,110.325z"/>
<path d="M101.837,112.513v6.143c0,0.623,0.146,1.083,0.439,1.382c0.452,0.47,1.294,0.684,2.527,0.641l1.236-0.046v-1.95
	c-0.085,0.006-0.172,0.011-0.261,0.014c-0.089,0.003-0.173,0.005-0.252,0.005c-0.531,0-0.848-0.05-0.952-0.151
	c-0.104-0.101-0.155-0.355-0.155-0.764v-5.273h1.62v-1.859h-1.62v-2.783h-2.582v2.783h-1.392v1.859H101.837z"/>
<path d="M113.213,110.297c-0.547,0-1.068,0.115-1.563,0.343c-0.496,0.229-0.932,0.633-1.308,1.213v-4.761h-2.609v13.449h2.609
	v-5.408c0-0.855,0.177-1.514,0.531-1.975s0.874-0.692,1.559-0.692c0.66,0,1.108,0.232,1.345,0.697
	c0.182,0.33,0.272,0.764,0.272,1.301v6.077h2.665v-5.864c0-0.892-0.031-1.535-0.091-1.929c-0.061-0.394-0.228-0.777-0.501-1.15
	c-0.322-0.44-0.734-0.767-1.235-0.98S113.828,110.297,113.213,110.297L113.213,110.297z"/>
<path d="M123.325,112.449c0.616,0,1.131,0.179,1.547,0.538c0.416,0.359,0.648,0.884,0.695,1.577h-4.495
	c0.095-0.65,0.326-1.165,0.695-1.545C122.136,112.639,122.655,112.449,123.325,112.449L123.325,112.449z M123.324,110.297
	c-1.462,0-2.652,0.461-3.568,1.384c-0.917,0.922-1.375,2.248-1.375,3.977c0,1.845,0.508,3.177,1.523,3.996
	c1.015,0.818,2.187,1.228,3.515,1.228c1.609,0,2.86-0.485,3.754-1.456c0.574-0.61,0.897-1.211,0.967-1.804h-2.664
	c-0.155,0.293-0.334,0.522-0.537,0.687c-0.372,0.305-0.854,0.458-1.449,0.458c-0.561,0-1.04-0.125-1.438-0.375
	c-0.655-0.403-1.003-1.104-1.044-2.105h7.268c0.013-0.862-0.016-1.522-0.085-1.98c-0.122-0.783-0.387-1.47-0.795-2.063
	c-0.454-0.672-1.028-1.164-1.725-1.476C124.975,110.453,124.192,110.297,123.324,110.297L123.324,110.297z"/>
<path d="M25.638,129.093c-0.731,0-1.333,0.153-1.806,0.458c-0.399,0.245-0.765,0.599-1.097,1.062v-4.797h-2.609v13.476h2.573v-1.254
	c0.35,0.488,0.675,0.83,0.976,1.025c0.503,0.33,1.168,0.494,1.997,0.494c1.319,0,2.347-0.509,3.083-1.529
	c0.736-1.019,1.104-2.304,1.104-3.854c0-1.495-0.373-2.716-1.12-3.662C27.992,129.566,26.958,129.093,25.638,129.093L25.638,129.093
	z M24.979,137.406c-0.782,0-1.363-0.281-1.745-0.842s-0.572-1.27-0.572-2.124c0-0.726,0.092-1.318,0.277-1.776
	c0.357-0.86,1.012-1.291,1.966-1.291c0.941,0,1.588,0.439,1.938,1.318c0.185,0.464,0.277,1.05,0.277,1.758
	c0,0.885-0.188,1.599-0.563,2.142C26.182,137.134,25.656,137.406,24.979,137.406L24.979,137.406z"/>
<path d="M37.091,129.075c-0.781,0-1.416,0.204-1.904,0.613c-0.299,0.244-0.65,0.699-1.053,1.364v-1.739h-2.49v9.979h2.627v-4.77
	c0-0.8,0.101-1.392,0.302-1.776c0.36-0.684,1.065-1.025,2.115-1.025c0.079,0,0.183,0.003,0.311,0.009
	c0.128,0.006,0.275,0.019,0.439,0.037v-2.673c-0.116-0.006-0.191-0.011-0.224-0.014C37.181,129.076,37.14,129.075,37.091,129.075
	L37.091,129.075z"/>
<path d="M41.65,125.714h-2.646v2.408h2.646V125.714z M39.004,139.292h2.646v-9.979h-2.646V139.292z"/>
<path d="M48.461,137.149c-0.912,0-1.544-0.421-1.896-1.263c-0.195-0.452-0.292-0.967-0.292-1.547c0-0.671,0.091-1.236,0.273-1.694
	c0.347-0.861,0.976-1.291,1.887-1.291c0.669,0,1.202,0.247,1.6,0.742s0.597,1.215,0.597,2.161c0,1.007-0.209,1.741-0.629,2.202
	C49.583,136.919,49.069,137.149,48.461,137.149L48.461,137.149z M47.806,129.075c-1.353,0-2.398,0.505-3.136,1.515
	s-1.106,2.256-1.106,3.74c0,1.538,0.383,2.757,1.149,3.658s1.79,1.35,3.072,1.35c0.83,0,1.504-0.198,2.023-0.595
	c0.287-0.213,0.555-0.534,0.806-0.961v0.641c0,0.952-0.104,1.63-0.312,2.033c-0.317,0.628-0.946,0.943-1.886,0.943
	c-0.666,0-1.139-0.119-1.419-0.357c-0.165-0.134-0.284-0.354-0.357-0.659h-2.838c0.085,0.995,0.531,1.742,1.336,2.243
	c0.806,0.5,1.846,0.75,3.122,0.75c2.112,0,3.54-0.562,4.285-1.685c0.433-0.653,0.65-1.624,0.65-2.911v-9.467H50.65v1.438
	c-0.391-0.702-0.902-1.184-1.536-1.447C48.742,129.151,48.306,129.075,47.806,129.075L47.806,129.075z"/>
<path d="M61.129,129.047c-0.547,0-1.068,0.115-1.563,0.343c-0.495,0.229-0.931,0.633-1.308,1.213v-4.761h-2.609v13.449h2.609v-5.408
	c0-0.855,0.177-1.514,0.531-1.975c0.354-0.461,0.875-0.692,1.559-0.692c0.66,0,1.108,0.232,1.345,0.697
	c0.182,0.33,0.273,0.764,0.273,1.301v6.077h2.664v-5.864c0-0.892-0.03-1.535-0.091-1.929c-0.061-0.394-0.228-0.777-0.501-1.15
	c-0.322-0.439-0.734-0.767-1.235-0.98C62.301,129.154,61.743,129.047,61.129,129.047L61.129,129.047z"/>
<path d="M67.45,131.263v6.143c0,0.623,0.146,1.083,0.439,1.382c0.452,0.47,1.294,0.684,2.527,0.641l1.236-0.046v-1.95
	c-0.085,0.006-0.172,0.011-0.261,0.014c-0.088,0.003-0.173,0.005-0.252,0.005c-0.531,0-0.848-0.05-0.952-0.151
	c-0.104-0.101-0.156-0.355-0.156-0.764v-5.273h1.621v-1.858h-1.621v-2.784H67.45v2.784h-1.392v1.858H67.45z"/>
<path d="M77.914,136.105c0,1.025,0.375,1.87,1.124,2.532c0.749,0.662,1.909,0.993,3.481,0.993c1.541,0,2.68-0.313,3.417-0.938
	c0.737-0.625,1.105-1.433,1.105-2.421c0-0.75-0.256-1.376-0.769-1.877c-0.519-0.494-1.298-0.863-2.337-1.107
	c-1.56-0.342-2.467-0.583-2.724-0.724c-0.257-0.134-0.386-0.351-0.386-0.65c0-0.238,0.121-0.445,0.362-0.623
	c0.242-0.177,0.647-0.266,1.216-0.266c0.692,0,1.182,0.177,1.469,0.531c0.153,0.195,0.248,0.461,0.285,0.796h2.609
	c-0.116-1.221-0.567-2.08-1.353-2.577c-0.786-0.498-1.803-0.746-3.051-0.746c-1.315,0-2.335,0.331-3.06,0.993
	c-0.725,0.663-1.087,1.454-1.087,2.376c0,0.781,0.232,1.379,0.696,1.794c0.464,0.421,1.263,0.772,2.396,1.053
	c1.575,0.373,2.485,0.635,2.73,0.788c0.244,0.152,0.367,0.375,0.367,0.668c0,0.305-0.152,0.534-0.456,0.687
	c-0.303,0.152-0.713,0.229-1.228,0.229c-0.877,0-1.478-0.174-1.803-0.521c-0.184-0.195-0.304-0.525-0.359-0.989H77.914z"/>
<path d="M91.647,125.714h-2.646v2.408h2.646V125.714z M89.001,139.292h2.646v-9.979h-2.646V139.292z"/>
<path d="M97.854,129.075c-1.312,0-2.361,0.488-3.145,1.464c-0.784,0.977-1.176,2.316-1.176,4.02c0,1.477,0.398,2.687,1.195,3.63
	c0.796,0.943,1.777,1.415,2.943,1.415c0.708,0,1.3-0.134,1.776-0.403s0.9-0.699,1.272-1.291v1.382h2.536v-13.476h-2.646v4.76
	c-0.293-0.47-0.674-0.837-1.144-1.103C98.996,129.207,98.458,129.075,97.854,129.075L97.854,129.075z M98.422,137.406
	c-0.738,0-1.29-0.276-1.652-0.829c-0.363-0.552-0.545-1.289-0.545-2.211c0-0.854,0.179-1.57,0.536-2.147s0.917-0.865,1.68-0.865
	c0.5,0,0.939,0.159,1.318,0.476c0.616,0.525,0.924,1.398,0.924,2.619c0,0.873-0.192,1.584-0.577,2.133
	C99.722,137.131,99.16,137.406,98.422,137.406L98.422,137.406z"/>
<path d="M109.784,131.199c0.616,0,1.131,0.179,1.547,0.538c0.416,0.359,0.647,0.884,0.695,1.577h-4.496
	c0.095-0.65,0.327-1.165,0.695-1.545C108.595,131.389,109.114,131.199,109.784,131.199L109.784,131.199z M109.783,129.047
	c-1.463,0-2.652,0.461-3.569,1.384s-1.375,2.248-1.375,3.977c0,1.845,0.507,3.177,1.523,3.996c1.015,0.818,2.187,1.228,3.515,1.228
	c1.609,0,2.861-0.485,3.754-1.456c0.575-0.61,0.897-1.211,0.967-1.804h-2.664c-0.155,0.293-0.334,0.522-0.537,0.687
	c-0.372,0.305-0.854,0.458-1.449,0.458c-0.561,0-1.04-0.125-1.439-0.375c-0.655-0.403-1.003-1.104-1.043-2.105h7.268
	c0.013-0.862-0.016-1.522-0.086-1.98c-0.121-0.783-0.386-1.47-0.795-2.063c-0.454-0.672-1.028-1.164-1.725-1.476
	C111.434,129.203,110.651,129.047,109.783,129.047L109.783,129.047z"/>
</svg>
