<?xml version="1.0" encoding="utf-8"?>
<!-- Generator: Adobe Illustrator 21.1.0, SVG Export Plug-In . SVG Version: 6.00 Build 0)  -->
<svg version="1.1" id="Layer_1" xmlns="http://www.w3.org/2000/svg" xmlns:xlink="http://www.w3.org/1999/xlink" x="0px" y="0px"
	 width="125px" height="35px" viewBox="0 0 125 35" style="enable-background:new 0 0 125 35;" xml:space="preserve">
<style type="text/css">
	.st0{fill-rule:evenodd;clip-rule:evenodd;fill:#FFCF0B;}
	.st1{fill:#3FAF49;}
</style>
<path class="st0" d="M0,0h125v35H0V0z"/>
<path class="st1" d="M23.937,23.485v-2.859h-2.438v-9.251h-3.251v12.11H23.937z"/>
<path class="st1" d="M25.26,23.485h6.04v-2.859h-2.789v-1.847h2.502V15.92h-2.502v-1.686h2.789v-2.859h-6.04V23.485z"/>
<path class="st1" d="M41.786,23.485l-2.55-12.11h-3.968l-2.885,12.11h3.347l0.271-1.558h2.183l0.239,1.558H41.786z M36.431,19.357
	l0.446-2.811c0.127-0.755,0.207-1.526,0.303-2.281h0.032c0.08,0.755,0.143,1.526,0.239,2.281l0.351,2.811H36.431z"/>
<path class="st1" d="M51.412,23.485l-2.422-5.043c1.291-0.514,1.865-1.702,1.865-3.035c0-3.196-2.04-4.031-4.861-4.031h-3.139v12.11
	h3.251v-3.228c0-0.594-0.032-1.188-0.048-1.783l0.032-0.032l1.801,5.043H51.412z M46.105,16.964v-2.987
	c0.893-0.048,1.53,0.401,1.53,1.462c0,0.787-0.462,1.542-1.323,1.542L46.105,16.964z"/>
<path class="st1" d="M52.48,23.485h3.124v-3.549c0-1.14-0.143-2.265-0.223-3.405l0.032-0.032l2.422,6.986h3.124v-12.11h-3.124v3.084
	c0,1.397,0.239,2.779,0.367,4.176l-0.032,0.032l-2.598-7.292H52.48V23.485z"/>
<path class="st1" d="M79.636,23.485l-1.163-12.11h-4l-0.781,4.192c-0.143,0.755-0.223,1.494-0.319,2.248h-0.032l-0.924-6.44h-4.048
	l-1.402,12.11h3.49l0.271-4.931c0.048-0.899,0.032-1.783,0.048-2.682h0.032l1.132,7.613h2.645l0.924-4.963
	c0.159-0.883,0.271-1.767,0.414-2.65h0.032l0.303,7.613H79.636z"/>
<path class="st1" d="M80.465,17.43c0,2.955,1.291,6.264,4.59,6.264c3.299,0,4.59-3.309,4.59-6.264c0-2.955-1.291-6.264-4.59-6.264
	C81.756,11.167,80.465,14.475,80.465,17.43z M83.78,17.43c0-0.755,0.048-3.212,1.275-3.212c1.227,0,1.275,2.457,1.275,3.212
	c0,0.755-0.048,3.212-1.275,3.212C83.828,20.642,83.78,18.185,83.78,17.43z"/>
<path class="st1" d="M99.764,23.485l-2.422-5.043c1.291-0.514,1.865-1.702,1.865-3.035c0-3.196-2.04-4.031-4.861-4.031h-3.139v12.11
	h3.251v-3.228c0-0.594-0.032-1.188-0.048-1.783l0.032-0.032l1.801,5.043H99.764z M94.457,16.964v-2.987
	c0.893-0.048,1.53,0.401,1.53,1.462c0,0.787-0.462,1.542-1.323,1.542L94.457,16.964z"/>
<path class="st1" d="M100.832,23.485h6.04v-2.859h-2.789v-1.847h2.502V15.92h-2.502v-1.686h2.789v-2.859h-6.04V23.485z"/>
</svg>
