<?xml version="1.0" encoding="utf-8"?>
<!-- Generator: Adobe Illustrator 21.1.0, SVG Export Plug-In . SVG Version: 6.00 Build 0)  -->
<svg version="1.1" id="Layer_1" xmlns="http://www.w3.org/2000/svg" xmlns:xlink="http://www.w3.org/1999/xlink" x="0px" y="0px"
	 viewBox="0 0 196.794 83.975" style="enable-background:new 0 0 196.794 83.975;" xml:space="preserve">
<style type="text/css">
	.st0{fill:#FFCF01;}
	.st1{fill:#FFFFFF;}
</style>
<g>
	<g>
		<path class="st0" d="M153.062,25.792c0.862-2.901,5.218-3.882,10.889-3.882c9.754,0,19.027,2.062,24.259,4.735l8.584-12.321
			c-3.52-2.135-10.885-4.414-18.099-5.722L180.72,0h-23.874l-2.116,8.988c-12.563,2.917-21.955,9.928-24.676,19.146
			c-6.639,22.499,39.402,12.313,36.559,21.841c-0.819,2.735-5.202,4.875-14.123,4.875c-11.01,0-20.342-2.637-27.848-6.863
			l-1.183,5.346h4.888h2.658l-3.291,15.985c3.567,1.096,7.83,2.003,12.207,2.555l-2.849,12.101h23.874l3.121-13.257
			c13.924-3.411,22.268-11.316,24.601-19.135C196.276,26.063,150.044,35.899,153.062,25.792z"/>
		<path class="st1" d="M100.067,53.333l10.288-43.687H83.282l-1.418,6.023c2.974,3.677,4.3,10.664,3.224,17.198
			c-1.201,7.276-5.183,13.211-11.21,16.719l-5.254,22.305h55.308l4.415-18.559H100.067z"/>
		<path class="st1" d="M79.723,17.043c-3.55-4.06-15.488-7.396-27.84-7.396H14.657L0,71.895h27.035l4.413-18.739h17.188
			c9.546,0,16.268-1.295,23.934-5.737C85.699,39.812,84.205,22.168,79.723,17.043 M60.421,31.773
			c-1.186,5.035-7.726,5.695-13.616,5.695H35.144l2.545-10.815h11.54C54.75,26.654,61.565,26.9,60.421,31.773"/>
	</g>
	<g>
		<path class="st0" d="M171.422,75.538c-0.417,0.419-0.921,0.629-1.513,0.629c-0.592,0-1.095-0.211-1.51-0.629
			c-0.413-0.417-0.619-0.923-0.619-1.516c0-0.588,0.208-1.09,0.625-1.507c0.414-0.414,0.917-0.623,1.504-0.623
			c0.592,0,1.096,0.209,1.513,0.623c0.417,0.414,0.625,0.917,0.625,1.507C172.047,74.614,171.839,75.12,171.422,75.538z
			 M168.612,72.724c-0.356,0.359-0.536,0.794-0.536,1.301c0,0.511,0.178,0.948,0.533,1.308c0.356,0.361,0.79,0.543,1.3,0.543
			c0.51,0,0.944-0.182,1.301-0.543c0.357-0.36,0.535-0.797,0.535-1.308c0-0.508-0.178-0.942-0.535-1.301
			c-0.359-0.36-0.793-0.54-1.301-0.54C169.403,72.184,168.971,72.364,168.612,72.724z M169.868,72.844
			c0.291,0,0.505,0.029,0.64,0.083c0.243,0.102,0.364,0.3,0.364,0.595c0,0.21-0.077,0.365-0.229,0.463
			c-0.081,0.052-0.195,0.09-0.339,0.113c0.185,0.029,0.318,0.105,0.403,0.23c0.085,0.124,0.127,0.245,0.127,0.363v0.171
			c0,0.056,0.001,0.113,0.006,0.175c0.004,0.062,0.01,0.101,0.02,0.121l0.015,0.031h-0.387c-0.002-0.008-0.004-0.017-0.007-0.024
			c-0.001-0.008-0.003-0.016-0.006-0.026l-0.009-0.074v-0.187c0-0.271-0.073-0.449-0.22-0.536c-0.088-0.051-0.241-0.076-0.46-0.076
			h-0.325v0.924h-0.414v-2.346H169.868z M170.315,73.213c-0.105-0.058-0.271-0.088-0.5-0.088h-0.354v0.851h0.373
			c0.175,0,0.307-0.017,0.394-0.052c0.161-0.063,0.243-0.186,0.243-0.366C170.471,73.385,170.419,73.272,170.315,73.213z"/>
	</g>
</g>
</svg>
