<?xml version="1.0" encoding="utf-8"?>
<!-- Generator: Adobe Illustrator 21.1.0, SVG Export Plug-In . SVG Version: 6.00 Build 0)  -->
<svg version="1.1" id="Layer_1" xmlns="http://www.w3.org/2000/svg" xmlns:xlink="http://www.w3.org/1999/xlink" x="0px" y="0px"
	 width="728px" height="90px" viewBox="0 0 728 90" style="enable-background:new 0 0 728 90;" xml:space="preserve">
<style type="text/css">
	.st0{fill:#FFFFFF;}
</style>
<path class="st0" d="M19.371,43.447c1.916,0,3.369-0.566,4.357-1.697c0.511-0.587,0.863-1.231,1.054-1.931
	c0.208-0.708,0.312-1.654,0.312-2.838v-13.89H19.67v12.961c0,1.678-0.555,2.516-1.665,2.516c-0.833,0-1.557-0.404-2.172-1.213v5.465
	C17.177,43.239,18.356,43.447,19.371,43.447L19.371,43.447z"/>
<path class="st0" d="M40.611,25.867c-1.37-1.85-3.213-2.775-5.528-2.775c-1.89,0-3.525,0.683-4.904,2.05
	c-1.856,1.842-2.783,4.502-2.783,7.982c0,3.632,0.889,6.357,2.666,8.173c1.413,1.434,3.109,2.151,5.086,2.151
	c2.228,0,4.036-0.933,5.424-2.801c1.396-1.875,2.094-4.311,2.094-7.307C42.666,30.208,41.981,27.717,40.611,25.867z M36.488,37.199
	c-0.347,0.914-0.841,1.37-1.483,1.37c-0.624,0-1.112-0.463-1.463-1.39c-0.351-0.926-0.527-2.23-0.527-3.91
	c0-1.706,0.186-2.999,0.559-3.878c0.382-0.948,0.893-1.422,1.535-1.422c1.283,0,1.925,1.805,1.925,5.416
	C37.034,35.015,36.852,36.286,36.488,37.199L36.488,37.199z"/>
<path class="st0" d="M50.405,23.092h-5.424v20.355h5.424V23.092z"/>
<path class="st0" d="M58.444,43.447v-5.194c0-0.8-0.05-1.731-0.15-2.795c-0.1-1.063-0.258-2.312-0.474-3.744
	c0.184,0.633,0.398,1.299,0.641,1.997c0.243,0.699,0.517,1.448,0.82,2.248l2.896,7.488h5.229V23.092h-5.229v4.575
	c0,0.853,0.052,1.907,0.156,3.164c0.104,1.257,0.256,2.769,0.455,4.535l-0.559-1.793c-0.226-0.712-0.432-1.34-0.618-1.885
	c-0.187-0.545-0.354-1.028-0.501-1.45l-2.718-7.146h-5.177v20.355H58.444z"/>
<path class="st0" d="M85.186,27.97h3.109v-4.878H76.771v4.878h2.992v15.477h5.424V27.97z"/>
<path class="st0" d="M103.135,23.092h-5.424v7.291h-2.588v-7.291h-5.424v20.355h5.424V35.26h2.588v8.187h5.424V23.092z"/>
<path class="st0" d="M116.025,43.447v-4.878h-4.657v-3.125h4.175v-4.878h-4.175V27.97h4.657v-4.878h-10.08v20.355H116.025z"/>
<path class="st0" d="M144.888,23.092h-6.556l-1.349,7.37c-0.195,1.02-0.348,2.175-0.458,3.467c-0.061-0.773-0.128-1.49-0.202-2.149
	c-0.074-0.659-0.158-1.27-0.254-1.833l-1.132-6.855h-6.751l-2.341,20.355h5.775l0.481-9.229l0.13-3.757
	c0.061,0.598,0.1,0.993,0.117,1.187c0.147,1.283,0.264,2.188,0.351,2.716l1.457,9.083h4.507l1.774-9.07
	c0.117-0.606,0.216-1.233,0.298-1.879c0.081-0.646,0.153-1.325,0.217-2.037l0.176,3.705l0.221,9.281h5.489L144.888,23.092z"/>
<path class="st0" d="M154.851,23.092h-5.424v20.355h5.424V23.092z"/>
<path class="st0" d="M167.156,38.569h-4.071V23.092h-5.424v20.355h9.495V38.569z"/>
<path class="st0" d="M178.263,38.569h-4.071V23.092h-5.424v20.355h9.495V38.569z"/>
<path class="st0" d="M185.3,23.092h-5.424v20.355h5.424V23.092z"/>
<path class="st0" d="M200.817,25.867c-1.37-1.85-3.213-2.775-5.528-2.775c-1.891,0-3.525,0.683-4.904,2.05
	c-1.856,1.842-2.783,4.502-2.783,7.982c0,3.632,0.889,6.357,2.666,8.173c1.413,1.434,3.109,2.151,5.086,2.151
	c2.228,0,4.036-0.933,5.424-2.801c1.396-1.875,2.094-4.311,2.094-7.307C202.873,30.208,202.188,27.717,200.817,25.867z
	 M196.694,37.199c-0.347,0.914-0.841,1.37-1.483,1.37c-0.624,0-1.112-0.463-1.463-1.39c-0.351-0.926-0.527-2.23-0.527-3.91
	c0-1.706,0.186-2.999,0.559-3.878c0.381-0.948,0.893-1.422,1.535-1.422c1.283,0,1.925,1.805,1.925,5.416
	C197.241,35.015,197.059,36.286,196.694,37.199L196.694,37.199z"/>
<path class="st0" d="M210.417,43.447v-5.194c0-0.8-0.05-1.731-0.15-2.795c-0.1-1.063-0.258-2.312-0.474-3.744
	c0.184,0.633,0.397,1.299,0.641,1.997c0.243,0.699,0.517,1.448,0.82,2.248l2.896,7.488h5.229V23.092h-5.229v4.575
	c0,0.853,0.052,1.907,0.156,3.164c0.104,1.257,0.256,2.769,0.455,4.535l-0.559-1.793c-0.226-0.712-0.431-1.34-0.618-1.885
	c-0.187-0.545-0.353-1.028-0.501-1.45l-2.718-7.146h-5.177v20.355H210.417z"/>
<path class="st0" d="M225.804,43.447c1.847,0,3.373-0.627,4.578-1.881c1.205-1.254,1.808-2.846,1.808-4.778
	c0-1.135-0.252-2.126-0.754-2.973c-0.494-0.847-1.314-1.673-2.458-2.478l-0.859-0.622c-0.737-0.517-1.106-1.038-1.106-1.563
	c0-0.322,0.139-0.597,0.416-0.826c0.269-0.237,0.611-0.356,1.028-0.356c0.546,0,1.101,0.2,1.665,0.6
	c0.563,0.4,1.066,0.947,1.509,1.641v-6.108c-1.309-0.674-2.61-1.011-3.902-1.011c-1.448,0-2.684,0.424-3.707,1.272
	c-0.373,0.297-0.702,0.638-0.988,1.024c-0.286,0.386-0.538,0.812-0.754,1.278c-0.434,1-0.65,1.958-0.65,2.874
	c0,0.534,0.06,1.043,0.182,1.526c0.121,0.483,0.312,0.952,0.572,1.405c0.26,0.454,0.598,0.895,1.014,1.323
	c0.416,0.428,0.919,0.859,1.509,1.291l0.884,0.674c0.642,0.5,0.963,1.013,0.963,1.539c0,0.365-0.148,0.668-0.442,0.91
	c-0.295,0.242-0.676,0.362-1.145,0.362c-1.24,0-2.393-0.738-3.46-2.215v6.263C223.163,43.171,224.529,43.447,225.804,43.447
	L225.804,43.447z"/>
<path class="st0" d="M263.329,23.092h-5.294l-0.988,6.315c-0.139,0.879-0.265,1.859-0.377,2.94c-0.113,1.081-0.217,2.32-0.312,3.718
	c-0.31-3.111-0.674-5.805-1.093-8.081l-0.88-4.891h-4.511l-0.98,5.814c-0.277,1.679-0.503,3.45-0.679,5.313l-0.169,1.595
	l-0.182-1.859c-0.13-1.274-0.364-3.028-0.702-5.26l-0.884-5.603h-5.359l4.474,20.355h5.074l0.941-7.383
	c0.079-0.615,0.147-1.2,0.202-1.753c0.056-0.554,0.103-1.081,0.143-1.582c0.087-0.984,0.153-1.657,0.197-2.017
	c0.018,0.176,0.048,0.431,0.092,0.765c0.044,0.334,0.096,0.751,0.158,1.252c0.122,1.011,0.306,2.206,0.551,3.586l1.259,7.132h5.249
	L263.329,23.092z"/>
<path class="st0" d="M278.456,23.092h-5.424v7.291h-2.588v-7.291h-5.424v20.355h5.424V35.26h2.588v8.187h5.424V23.092z"/>
<path class="st0" d="M293.973,25.867c-1.37-1.85-3.213-2.775-5.528-2.775c-1.891,0-3.525,0.683-4.904,2.05
	c-1.856,1.842-2.784,4.502-2.784,7.982c0,3.632,0.889,6.357,2.666,8.173c1.413,1.434,3.109,2.151,5.086,2.151
	c2.228,0,4.036-0.933,5.424-2.801c1.396-1.875,2.094-4.311,2.094-7.307C296.028,30.208,295.343,27.717,293.973,25.867z
	 M289.85,37.199c-0.347,0.914-0.841,1.37-1.483,1.37c-0.624,0-1.112-0.463-1.463-1.39c-0.351-0.926-0.527-2.23-0.527-3.91
	c0-1.706,0.186-2.999,0.559-3.878c0.381-0.948,0.893-1.422,1.535-1.422c1.283,0,1.925,1.805,1.925,5.416
	C290.396,35.015,290.214,36.286,289.85,37.199L289.85,37.199z"/>
<path class="st0" d="M314.823,38.569c-0.546,0-1.032-0.118-1.457-0.353c-0.425-0.235-0.783-0.575-1.073-1.019
	c-0.291-0.444-0.514-0.989-0.67-1.634c-0.156-0.645-0.234-1.377-0.234-2.196c0-1.69,0.312-3.015,0.937-3.973
	c0.624-0.95,1.491-1.425,2.601-1.425c0.85,0,1.678,0.409,2.484,1.226v-5.624c-0.91-0.32-1.804-0.48-2.68-0.48
	c-2.697,0-4.852,0.934-6.464,2.801c-1.613,1.876-2.419,4.362-2.419,7.46c0,3.31,0.858,5.869,2.575,7.676
	c1.535,1.613,3.425,2.419,5.671,2.419c0.954,0,2.033-0.226,3.239-0.68l0.312-5.517C316.7,38.13,315.76,38.569,314.823,38.569
	L314.823,38.569z"/>
<path class="st0" d="M333.657,23.092h-5.424v7.291h-2.588v-7.291h-5.424v20.355h5.424V35.26h2.588v8.187h5.424V23.092z"/>
<path class="st0" d="M349.174,25.867c-1.37-1.85-3.213-2.775-5.528-2.775c-1.891,0-3.525,0.683-4.904,2.05
	c-1.856,1.842-2.784,4.502-2.784,7.982c0,3.632,0.889,6.357,2.666,8.173c1.413,1.434,3.109,2.151,5.086,2.151
	c2.228,0,4.036-0.933,5.424-2.801c1.396-1.875,2.094-4.311,2.094-7.307C351.229,30.208,350.544,27.717,349.174,25.867z
	 M345.051,37.199c-0.347,0.914-0.841,1.37-1.483,1.37c-0.624,0-1.112-0.463-1.463-1.39c-0.351-0.926-0.527-2.23-0.527-3.91
	c0-1.706,0.186-2.999,0.559-3.878c0.382-0.948,0.893-1.422,1.535-1.422c1.283,0,1.925,1.805,1.925,5.416
	C345.597,35.015,345.415,36.286,345.051,37.199L345.051,37.199z"/>
<path class="st0" d="M366.252,25.867c-1.37-1.85-3.213-2.775-5.528-2.775c-1.891,0-3.525,0.683-4.904,2.05
	c-1.856,1.842-2.784,4.502-2.784,7.982c0,3.632,0.889,6.357,2.666,8.173c1.413,1.434,3.109,2.151,5.086,2.151
	c2.229,0,4.036-0.933,5.424-2.801c1.396-1.875,2.094-4.311,2.094-7.307C368.307,30.208,367.622,27.717,366.252,25.867z
	 M362.129,37.199c-0.347,0.914-0.841,1.37-1.483,1.37c-0.624,0-1.112-0.463-1.463-1.39c-0.351-0.926-0.527-2.23-0.527-3.91
	c0-1.706,0.186-2.999,0.559-3.878c0.381-0.948,0.893-1.422,1.535-1.422c1.283,0,1.925,1.805,1.925,5.416
	C362.675,35.015,362.493,36.286,362.129,37.199L362.129,37.199z"/>
<path class="st0" d="M374.291,43.447c1.847,0,3.373-0.627,4.578-1.881c1.205-1.254,1.808-2.846,1.808-4.778
	c0-1.135-0.252-2.126-0.754-2.973c-0.494-0.847-1.314-1.673-2.458-2.478l-0.858-0.622c-0.737-0.517-1.106-1.038-1.106-1.563
	c0-0.322,0.139-0.597,0.416-0.826c0.269-0.237,0.611-0.356,1.028-0.356c0.546,0,1.101,0.2,1.665,0.6
	c0.564,0.4,1.067,0.947,1.509,1.641v-6.108c-1.309-0.674-2.61-1.011-3.902-1.011c-1.448,0-2.684,0.424-3.707,1.272
	c-0.373,0.297-0.702,0.638-0.988,1.024c-0.286,0.386-0.538,0.812-0.754,1.278c-0.434,1-0.65,1.958-0.65,2.874
	c0,0.534,0.061,1.043,0.182,1.526c0.121,0.483,0.312,0.952,0.572,1.405c0.26,0.454,0.598,0.895,1.014,1.323
	c0.416,0.428,0.919,0.859,1.509,1.291l0.884,0.674c0.642,0.5,0.963,1.013,0.963,1.539c0,0.365-0.148,0.668-0.442,0.91
	c-0.295,0.242-0.676,0.362-1.145,0.362c-1.24,0-2.393-0.738-3.46-2.215v6.263C371.65,43.171,373.016,43.447,374.291,43.447
	L374.291,43.447z"/>
<path class="st0" d="M392.878,43.447v-4.878h-4.656v-3.125h4.175v-4.878h-4.175V27.97h4.656v-4.878h-10.08v20.355H392.878z"/>
<path class="st0" d="M408.629,36.776h0.846c2.029,0,3.585-0.409,4.669-1.226c1.587-1.213,2.38-3.054,2.38-5.524
	c0-2.267-0.746-4.038-2.237-5.313c-1.266-1.081-3.208-1.622-5.827-1.622h-5.255v20.355h5.424V36.776z M408.629,27.825h0.377
	c0.59,0,1.075,0.224,1.457,0.672c0.382,0.44,0.572,1.011,0.572,1.714c0,0.712-0.195,1.272-0.585,1.681s-0.915,0.613-1.574,0.613
	l-0.247-0.013V27.825z"/>
<path class="st0" d="M427.918,38.569h-4.071V23.092h-5.424v20.355h9.495V38.569z"/>
<path class="st0" d="M433.498,43.447c1.847,0,3.373-0.627,4.579-1.881c1.205-1.254,1.808-2.846,1.808-4.778
	c0-1.135-0.252-2.126-0.754-2.973c-0.494-0.847-1.314-1.673-2.458-2.478l-0.858-0.622c-0.737-0.517-1.106-1.038-1.106-1.563
	c0-0.322,0.139-0.597,0.416-0.826c0.269-0.237,0.611-0.356,1.027-0.356c0.546,0,1.101,0.2,1.665,0.6
	c0.564,0.4,1.067,0.947,1.509,1.641v-6.108c-1.31-0.674-2.61-1.011-3.902-1.011c-1.448,0-2.684,0.424-3.707,1.272
	c-0.373,0.297-0.702,0.638-0.988,1.024c-0.286,0.386-0.538,0.812-0.754,1.278c-0.434,1-0.65,1.958-0.65,2.874
	c0,0.534,0.061,1.043,0.182,1.526c0.121,0.483,0.312,0.952,0.572,1.405c0.26,0.454,0.598,0.895,1.015,1.323
	c0.416,0.428,0.919,0.859,1.509,1.291l0.884,0.674c0.642,0.5,0.963,1.013,0.963,1.539c0,0.365-0.148,0.668-0.442,0.91
	c-0.295,0.242-0.676,0.362-1.145,0.362c-1.24,0-2.393-0.738-3.46-2.215v6.263C430.858,43.171,432.223,43.447,433.498,43.447
	L433.498,43.447z"/>
<path class="st0" d="M90.87,58.68h3.876v-4.878H90.87v-2.597h4.162v-4.878h-9.586v20.355h5.424V58.68z"/>
<path class="st0" d="M109.821,49.102c-1.37-1.85-3.213-2.775-5.528-2.775c-1.891,0-3.525,0.683-4.904,2.05
	c-1.856,1.842-2.784,4.502-2.784,7.982c0,3.632,0.889,6.357,2.666,8.173c1.413,1.434,3.109,2.151,5.086,2.151
	c2.228,0,4.036-0.934,5.424-2.801c1.396-1.875,2.094-4.311,2.094-7.307C111.876,53.444,111.191,50.953,109.821,49.102z
	 M105.698,60.435c-0.347,0.914-0.841,1.37-1.483,1.37c-0.624,0-1.112-0.463-1.463-1.39c-0.351-0.926-0.527-2.23-0.527-3.91
	c0-1.706,0.186-2.999,0.559-3.878c0.382-0.948,0.893-1.422,1.535-1.422c1.283,0,1.925,1.806,1.925,5.416
	C106.244,58.25,106.062,59.521,105.698,60.435L105.698,60.435z"/>
<path class="st0" d="M124.441,58.219c2.072-0.94,3.109-2.641,3.109-5.102c0-2.303-0.772-4.078-2.315-5.326
	c-1.214-0.976-3.044-1.463-5.489-1.463h-5.554v20.355h5.398v-7.119l-0.039-1.345c0.095,0.281,0.176,0.523,0.241,0.725
	c0.065,0.202,0.111,0.365,0.137,0.488l2.679,7.251h5.866L124.441,58.219z M119.615,50.612h0.195c1.569,0,2.354,0.76,2.354,2.281
	c0,0.747-0.208,1.362-0.624,1.846c-0.416,0.483-0.937,0.725-1.561,0.725h-0.364V50.612z"/>
<path class="st0" d="M145.291,51.205h3.109v-4.878h-11.524v4.878h2.992v15.478h5.424V51.205z"/>
<path class="st0" d="M159.533,46.327H152.9l-4.826,20.355h5.606l0.442-2.584h3.655l0.403,2.584h5.606L159.533,46.327z
	 M154.851,59.814l0.546-3.19l0.377-2.465c0.008-0.044,0.026-0.171,0.052-0.382c0.026-0.211,0.069-0.589,0.13-1.134
	c0.035-0.272,0.067-0.523,0.098-0.751c0.03-0.228,0.054-0.435,0.072-0.62l0.169,1.925c0.043,0.396,0.078,0.723,0.104,0.982
	c0.026,0.259,0.048,0.464,0.065,0.613c0.165,1.336,0.256,2.101,0.273,2.294c0.026,0.229,0.043,0.347,0.052,0.356l0.351,2.373
	H154.851z"/>
<path class="st0" d="M174.595,56.123l4.579-9.795H173.1l-0.832,2.782c-0.148,0.475-0.33,1.152-0.546,2.03
	c-0.096-0.431-0.189-0.817-0.28-1.16c-0.091-0.343-0.184-0.641-0.28-0.896l-0.898-2.755h-6.035l4.604,9.795l-4.877,10.56h5.905
	l1.002-2.676c0.382-1.046,0.668-1.973,0.858-2.782c0.199,0.817,0.46,1.67,0.78,2.558l1.002,2.9h6.022L174.595,56.123z"/>
<path class="st0" d="M199.192,58.219c2.072-0.94,3.109-2.641,3.109-5.102c0-2.303-0.772-4.078-2.315-5.326
	c-1.214-0.976-3.044-1.463-5.489-1.463h-5.554v20.355h5.398v-7.119l-0.039-1.345c0.095,0.281,0.176,0.523,0.241,0.725
	c0.065,0.202,0.111,0.365,0.137,0.488l2.679,7.251h5.866L199.192,58.219z M194.366,50.612h0.195c1.569,0,2.354,0.76,2.354,2.281
	c0,0.747-0.208,1.362-0.624,1.846c-0.416,0.483-0.936,0.725-1.561,0.725h-0.364V50.612z"/>
<path class="st0" d="M215.099,66.683v-4.878h-4.656V58.68h4.175v-4.878h-4.175v-2.597h4.656v-4.878h-10.08v20.355H215.099z"/>
<path class="st0" d="M222.838,58.68h3.876v-4.878h-3.876v-2.597H227v-4.878h-9.586v20.355h5.424V58.68z"/>
<path class="st0" d="M237.302,59.393c0,0.909-0.1,1.542-0.299,1.9c-0.2,0.341-0.559,0.511-1.08,0.511
	c-0.503,0-0.861-0.183-1.073-0.55c-0.213-0.367-0.319-0.992-0.319-1.874V46.327h-5.424v13.385c0,2.565,0.798,4.431,2.393,5.598
	c1.257,0.916,2.814,1.373,4.669,1.373c1.639,0,3.031-0.414,4.175-1.244c0.85-0.622,1.457-1.317,1.821-2.086
	c0.373-0.734,0.559-1.693,0.559-2.876V46.327h-5.424V59.393z"/>
<path class="st0" d="M250.764,66.683v-5.194c0-0.8-0.05-1.731-0.15-2.795c-0.1-1.063-0.258-2.312-0.474-3.744
	c0.184,0.633,0.398,1.299,0.641,1.997c0.243,0.699,0.517,1.448,0.82,2.248l2.896,7.488h5.229V46.327h-5.229v4.575
	c0,0.853,0.052,1.907,0.156,3.164c0.104,1.257,0.256,2.769,0.455,4.535l-0.559-1.793c-0.226-0.712-0.431-1.34-0.618-1.885
	c-0.187-0.545-0.353-1.028-0.501-1.45l-2.718-7.146h-5.177v20.355H250.764z"/>
<path class="st0" d="M267.556,66.683c2.801,0,4.908-0.782,6.321-2.347c1.656-1.837,2.484-4.443,2.484-7.818
	c0-3.428-0.98-6.095-2.94-8.002c-1.492-1.459-3.577-2.188-6.256-2.188h-4.682v20.355H267.556z M267.907,51.443h0.169
	c0.841,0,1.509,0.475,2.003,1.424c0.494,0.941,0.741,2.224,0.741,3.85c0,3.296-0.971,4.992-2.914,5.089V51.443z"/>
<path class="st0" d="M290.357,66.683c1.847,0,3.373-0.627,4.578-1.881c1.205-1.254,1.808-2.846,1.808-4.778
	c0-1.135-0.252-2.126-0.754-2.974c-0.494-0.847-1.314-1.673-2.458-2.478l-0.858-0.623c-0.737-0.517-1.106-1.038-1.106-1.563
	c0-0.322,0.139-0.597,0.416-0.826c0.269-0.237,0.611-0.356,1.028-0.356c0.546,0,1.101,0.2,1.665,0.6
	c0.564,0.4,1.066,0.947,1.509,1.641v-6.108c-1.31-0.674-2.61-1.011-3.902-1.011c-1.448,0-2.684,0.424-3.707,1.272
	c-0.373,0.297-0.702,0.638-0.989,1.024c-0.286,0.386-0.538,0.812-0.754,1.278c-0.434,1-0.65,1.959-0.65,2.874
	c0,0.534,0.061,1.043,0.182,1.526c0.121,0.483,0.312,0.952,0.572,1.405c0.26,0.454,0.598,0.895,1.015,1.323
	c0.416,0.428,0.919,0.859,1.509,1.291l0.884,0.674c0.642,0.5,0.963,1.013,0.963,1.539c0,0.365-0.148,0.668-0.442,0.909
	c-0.295,0.242-0.676,0.362-1.145,0.362c-1.24,0-2.393-0.738-3.46-2.215v6.263C287.717,66.406,289.082,66.683,290.357,66.683
	L290.357,66.683z"/>
<path class="st0" d="M308.944,66.683v-4.878h-4.656V58.68h4.175v-4.878h-4.175v-2.597h4.656v-4.878h-10.08v20.355H308.944z"/>
<path class="st0" d="M321.47,46.327h-6.634l-4.826,20.355h5.606l0.442-2.584h3.655l0.403,2.584h5.606L321.47,46.327z
	 M316.787,59.814l0.546-3.19l0.377-2.465c0.008-0.044,0.026-0.171,0.052-0.382c0.026-0.211,0.069-0.589,0.13-1.134
	c0.034-0.272,0.067-0.523,0.098-0.751c0.03-0.228,0.054-0.435,0.072-0.62l0.169,1.925c0.043,0.396,0.078,0.723,0.104,0.982
	c0.026,0.259,0.048,0.464,0.065,0.613c0.165,1.336,0.256,2.101,0.273,2.294c0.026,0.229,0.043,0.347,0.052,0.356l0.351,2.373
	H316.787z"/>
<path class="st0" d="M330.965,66.683c1.847,0,3.373-0.627,4.578-1.881c1.205-1.254,1.808-2.846,1.808-4.778
	c0-1.135-0.252-2.126-0.754-2.974c-0.494-0.847-1.314-1.673-2.458-2.478l-0.859-0.623c-0.737-0.517-1.106-1.038-1.106-1.563
	c0-0.322,0.139-0.597,0.416-0.826c0.269-0.237,0.611-0.356,1.028-0.356c0.546,0,1.101,0.2,1.665,0.6
	c0.564,0.4,1.066,0.947,1.509,1.641v-6.108c-1.309-0.674-2.61-1.011-3.902-1.011c-1.448,0-2.684,0.424-3.707,1.272
	c-0.373,0.297-0.702,0.638-0.988,1.024c-0.286,0.386-0.538,0.812-0.754,1.278c-0.434,1-0.65,1.959-0.65,2.874
	c0,0.534,0.061,1.043,0.182,1.526c0.121,0.483,0.312,0.952,0.572,1.405c0.26,0.454,0.598,0.895,1.015,1.323
	c0.416,0.428,0.919,0.859,1.509,1.291l0.884,0.674c0.642,0.5,0.962,1.013,0.962,1.539c0,0.365-0.148,0.668-0.442,0.909
	c-0.295,0.242-0.676,0.362-1.145,0.362c-1.24,0-2.393-0.738-3.46-2.215v6.263C328.324,66.406,329.69,66.683,330.965,66.683
	L330.965,66.683z"/>
<path class="st0" d="M352.179,49.102c-1.37-1.85-3.213-2.775-5.528-2.775c-1.891,0-3.525,0.683-4.904,2.05
	c-1.856,1.842-2.784,4.502-2.784,7.982c0,3.632,0.889,6.357,2.666,8.173c1.413,1.434,3.109,2.151,5.086,2.151
	c2.228,0,4.036-0.934,5.424-2.801c1.396-1.875,2.094-4.311,2.094-7.307C354.234,53.444,353.549,50.953,352.179,49.102z
	 M348.056,60.435c-0.347,0.914-0.841,1.37-1.483,1.37c-0.624,0-1.112-0.463-1.463-1.39c-0.351-0.926-0.527-2.23-0.527-3.91
	c0-1.706,0.186-2.999,0.559-3.878c0.382-0.948,0.893-1.422,1.535-1.422c1.283,0,1.925,1.806,1.925,5.416
	C348.602,58.25,348.42,59.521,348.056,60.435L348.056,60.435z"/>
<path class="st0" d="M361.778,66.683v-5.194c0-0.8-0.05-1.731-0.15-2.795c-0.1-1.063-0.258-2.312-0.474-3.744
	c0.184,0.633,0.397,1.299,0.641,1.997c0.243,0.699,0.517,1.448,0.82,2.248l2.896,7.488h5.229V46.327h-5.229v4.575
	c0,0.853,0.052,1.907,0.156,3.164c0.104,1.257,0.256,2.769,0.455,4.535l-0.559-1.793c-0.226-0.712-0.431-1.34-0.618-1.885
	c-0.186-0.545-0.353-1.028-0.501-1.45l-2.719-7.146h-5.177v20.355H361.778z"/>
<path class="st0" d="M378.555,61.415c-0.6-0.619-1.33-0.929-2.19-0.929c-0.834,0-1.547,0.301-2.138,0.902
	c-0.591,0.602-0.886,1.327-0.886,2.176c0,0.867,0.3,1.606,0.899,2.216c0.617,0.602,1.342,0.902,2.177,0.902
	c0.843,0,1.555-0.296,2.138-0.889c0.6-0.592,0.899-1.305,0.899-2.136C379.454,62.773,379.155,62.026,378.555,61.415L378.555,61.415z
	"/>
</svg>
