<?xml version="1.0" encoding="utf-8"?>
<!-- Generator: Adobe Illustrator 21.1.0, SVG Export Plug-In . SVG Version: 6.00 Build 0)  -->
<svg version="1.1" id="Layer_1" xmlns="http://www.w3.org/2000/svg" xmlns:xlink="http://www.w3.org/1999/xlink" x="0px" y="0px"
	 width="728px" height="90px" viewBox="0 0 728 90" style="enable-background:new 0 0 728 90;" xml:space="preserve">
<style type="text/css">
	.st0{fill:#FFFFFF;}
</style>
<path class="st0" d="M14.912,47.699c0,4.968,2.158,10.531,7.672,10.531c5.515,0,7.673-5.562,7.673-10.531
	c0-4.968-2.158-10.531-7.673-10.531C17.07,37.168,14.912,42.731,14.912,47.699z M20.453,47.699c0-1.269,0.08-5.401,2.131-5.401
	c2.051,0,2.131,4.131,2.131,5.401c0,1.269-0.08,5.4-2.131,5.4C20.533,53.099,20.453,48.968,20.453,47.699z"/>
<path class="st0" d="M32.866,57.879h5.222v-5.968c0-1.917-0.24-3.807-0.373-5.724l0.053-0.054l4.049,11.746h5.222v-20.36h-5.222
	v5.185c0,2.349,0.4,4.671,0.613,7.021l-0.053,0.054l-4.342-12.259h-5.168V57.879z"/>
<path class="st0" d="M57.666,57.879V42.488h3.117v-4.968H49.248v4.968h2.984v15.391H57.666z"/>
<path class="st0" d="M62.354,47.699c0,4.968,2.158,10.531,7.672,10.531c5.515,0,7.673-5.562,7.673-10.531
	c0-4.968-2.158-10.531-7.673-10.531C64.512,37.168,62.354,42.731,62.354,47.699z M67.895,47.699c0-1.269,0.08-5.401,2.131-5.401
	c2.051,0,2.131,4.131,2.131,5.401c0,1.269-0.08,5.4-2.131,5.4C67.975,53.099,67.895,48.968,67.895,47.699z"/>
<path class="st0" d="M87.739,47.699c0,4.968,2.158,10.531,7.673,10.531c5.515,0,7.673-5.562,7.673-10.531
	c0-4.968-2.158-10.531-7.673-10.531C89.897,37.168,87.739,42.731,87.739,47.699z M93.28,47.699c0-1.269,0.08-5.401,2.131-5.401
	s2.131,4.131,2.131,5.401c0,1.269-0.08,5.4-2.131,5.4S93.28,48.968,93.28,47.699z"/>
<path class="st0" d="M113.765,37.519v12.826c0,0.513,0.027,1.215-0.133,1.782c-0.133,0.54-0.479,0.972-1.252,0.972
	c-0.746,0-1.092-0.432-1.252-0.999c-0.16-0.54-0.133-1.242-0.133-1.782V37.519h-5.435v13.312c0,2.457,0.533,7.399,6.82,7.399
	s6.82-4.941,6.82-7.399V37.519H113.765z"/>
<path class="st0" d="M136.568,57.879l-4.049-8.479c2.158-0.864,3.117-2.862,3.117-5.104c0-5.374-3.41-6.778-8.125-6.778h-5.248
	v20.36h5.435v-5.428c0-0.999-0.053-1.998-0.08-2.997l0.053-0.054l3.01,8.479H136.568z M127.696,46.916v-5.022
	c1.492-0.081,2.558,0.675,2.558,2.457c0,1.323-0.773,2.592-2.211,2.592L127.696,46.916z"/>
<path class="st0" d="M160.781,57.879l-3.277-10.558l6.101-9.802h-6.101l-1.092,2.457c-0.373,0.783-0.613,1.566-0.933,2.349h-0.053
	c-0.08-0.783-0.08-1.593-0.24-2.349l-0.506-2.457h-6.047l3.09,9.802l-6.527,10.558h5.914l1.705-3.159
	c0.32-0.756,0.666-1.539,0.986-2.295h0.053c0.107,0.756,0.186,1.539,0.293,2.295l0.613,3.159H160.781z"/>
<path class="st0" d="M168.212,57.879l1.039-6.67c4.689,0.135,8.152-1.485,8.978-6.778c0.826-5.347-2.584-6.913-7.326-6.913h-4.955
	l-3.17,20.36H168.212z M172.741,44.351c-0.24,1.512-1.279,2.349-2.771,2.268l0.746-4.698l0.4-0.027
	C172.448,41.894,172.954,43.055,172.741,44.351z"/>
<path class="st0" d="M178.334,57.879h10.097l0.746-4.807h-4.662l0.479-3.105h4.183l0.773-4.806h-4.183l0.426-2.835h4.662
	l0.746-4.806h-10.097L178.334,57.879z"/>
<path class="st0" d="M205.799,37.654c-0.826-0.351-1.758-0.486-2.717-0.486c-2.637,0-9.058,1.539-10.47,10.666
	c-1.092,6.967,2.158,10.396,6.607,10.396c1.199,0,2.211-0.243,3.383-0.729l1.225-5.698c-1.012,0.81-1.865,1.296-3.09,1.296
	c-2.717,0-2.93-3.024-2.557-5.4c0.346-2.241,1.519-5.401,4.342-5.401c1.119,0,1.705,0.432,2.344,1.188L205.799,37.654z"/>
<path class="st0" d="M213.284,57.879l2.398-15.391h3.117l0.773-4.968h-11.535l-0.773,4.968h2.984l-2.398,15.391H213.284z"/>
<path class="st0" d="M231.452,57.879l-1.092-20.36h-6.633l-7.992,20.36h5.594l0.852-2.619h3.65v2.619H231.452z M223.593,50.939
	l1.465-4.725c0.426-1.269,0.746-2.565,1.119-3.834h0.053c-0.08,1.269-0.16,2.565-0.213,3.834l-0.133,4.725H223.593z"/>
<path class="st0" d="M239.203,57.879l2.398-15.391h3.117l0.773-4.968h-11.535l-0.773,4.968h2.984l-2.398,15.391H239.203z"/>
<path class="st0" d="M249.938,57.879l3.17-20.36h-5.435l-3.17,20.36H249.938z"/>
<path class="st0" d="M254.119,47.699c-0.773,4.968,0.506,10.531,6.021,10.531c5.515,0,8.552-5.562,9.324-10.531
	c0.773-4.968-0.533-10.531-6.047-10.531S254.892,42.731,254.119,47.699z M259.661,47.699c0.186-1.269,0.906-5.401,2.957-5.401
	s1.492,4.131,1.305,5.401c-0.213,1.269-0.932,5.4-2.984,5.4C258.888,53.099,259.447,48.968,259.661,47.699z"/>
<path class="st0" d="M270.475,57.879h5.221l0.932-5.968c0.293-1.917,0.346-3.807,0.533-5.724l0.053-0.054l2.211,11.746h5.222
	l3.17-20.36h-5.221l-0.799,5.185c-0.373,2.349-0.32,4.671-0.48,7.021l-0.053,0.054l-2.451-12.259h-5.168L270.475,57.879z"/>
<path class="st0" d="M287.416,57.393c1.199,0.54,2.558,0.837,3.943,0.837c3.783,0,6.873-3.024,7.459-6.805
	c0.24-1.539,0.053-2.619-0.426-3.537c-0.48-0.918-1.279-1.674-2.291-2.484c-0.24-0.243-0.613-0.513-0.853-0.837
	c-0.24-0.324-0.426-0.702-0.346-1.134c0.107-0.783,0.959-1.242,1.598-1.242c1.252,0,2.371,1.161,2.85,2.187l0.959-6.184
	c-1.039-0.621-2.398-1.026-3.703-1.026c-4.635,0-6.793,4.32-7.166,6.697c-0.24,1.485,0.027,2.619,0.533,3.564
	c0.559,0.972,1.359,1.755,2.291,2.592c0.32,0.243,0.586,0.486,0.773,0.783c0.24,0.297,0.346,0.648,0.266,1.134
	c-0.133,0.891-1.066,1.35-1.812,1.35c-1.385,0-2.504-1.134-3.09-2.268L287.416,57.393z"/>
<path class="st0" d="M302.76,58.176c1.678,0,3.277-1.35,3.543-3.051c0.293-1.809-0.932-3.132-2.664-3.132
	c-1.572,0-3.17,1.404-3.41,3.051C299.936,56.772,301.055,58.176,302.76,58.176z M306.729,50.588l2.211-14.23h-5.301l-2.211,14.23
	H306.729z"/>
<path class="st0" d="M316.302,36.818c-4.285,0-6.583,3.289-7.018,6.138c-0.466,2.911,0.854,6.138,5.108,6.138
	c3.664,0,6.505-2.77,7.033-6.138C321.923,39.76,320.277,36.818,316.302,36.818z M316.038,38.313c2.717,0,4.316,1.826,3.882,4.58
	c-0.419,2.754-2.608,4.705-5.326,4.705c-2.733,0-4.239-1.888-3.804-4.642C311.21,40.201,313.306,38.313,316.038,38.313z
	 M313.927,43.679h1.056l0.994,2.628h1.708l-1.102-2.785c1.118-0.079,1.832-0.566,2.018-1.81c0.233-1.495-0.512-1.999-1.863-2.046
	h-3.68l-1.04,6.641h1.506L313.927,43.679z M315.899,40.862c0.854,0,1.32,0.126,1.195,0.866c-0.078,0.535-0.481,0.755-1.133,0.755
	h-1.848l0.264-1.621H315.899z"/>
<path class="st0" d="M335.71,57.879l8.632-20.36h-5.888l-2.797,8.371c-0.533,1.647-0.879,3.267-1.385,4.914h-0.053
	c0.053-1.647,0.186-3.267,0.186-4.914l0.027-8.371h-5.701l1.439,20.36H335.71z"/>
<path class="st0" d="M348.203,57.879l3.17-20.36h-5.435l-3.17,20.36H348.203z"/>
<path class="st0" d="M350.972,57.393c1.199,0.54,2.557,0.837,3.943,0.837c3.783,0,6.873-3.024,7.459-6.805
	c0.24-1.539,0.053-2.619-0.426-3.537c-0.48-0.918-1.279-1.674-2.291-2.484c-0.24-0.243-0.613-0.513-0.853-0.837
	c-0.24-0.324-0.426-0.702-0.346-1.134c0.106-0.783,0.959-1.242,1.598-1.242c1.252,0,2.371,1.161,2.851,2.187l0.959-6.184
	c-1.039-0.621-2.398-1.026-3.703-1.026c-4.635,0-6.793,4.32-7.166,6.697c-0.24,1.485,0.027,2.619,0.533,3.564
	c0.559,0.972,1.359,1.755,2.291,2.592c0.32,0.243,0.586,0.486,0.773,0.783c0.24,0.297,0.346,0.648,0.266,1.134
	c-0.133,0.891-1.066,1.35-1.811,1.35c-1.385,0-2.504-1.134-3.09-2.268L350.972,57.393z"/>
<path class="st0" d="M378.304,57.879l-1.092-20.36h-6.634l-7.992,20.36h5.595l0.852-2.619h3.65v2.619H378.304z M370.445,50.939
	l1.465-4.725c0.426-1.269,0.746-2.565,1.119-3.834h0.053c-0.08,1.269-0.16,2.565-0.213,3.834l-0.133,4.725H370.445z"/>
<path class="st0" d="M387.877,36.818c-4.285,0-6.583,3.289-7.018,6.138c-0.466,2.911,0.854,6.138,5.108,6.138
	c3.664,0,6.506-2.77,7.033-6.138C393.497,39.76,391.851,36.818,387.877,36.818z M387.613,38.313c2.717,0,4.316,1.826,3.882,4.58
	c-0.419,2.754-2.608,4.705-5.326,4.705c-2.733,0-4.239-1.888-3.804-4.642C382.784,40.201,384.88,38.313,387.613,38.313z
	 M385.501,43.679h1.056l0.994,2.628h1.708l-1.102-2.785c1.118-0.079,1.832-0.566,2.018-1.81c0.233-1.495-0.512-1.999-1.863-2.046
	h-3.68l-1.04,6.641h1.506L385.501,43.679z M387.473,40.862c0.854,0,1.32,0.126,1.195,0.866c-0.078,0.535-0.481,0.755-1.133,0.755
	h-1.848l0.264-1.621H387.473z"/>
<path class="st0" d="M407.522,57.879l1.039-6.67c4.689,0.135,8.152-1.485,8.978-6.778c0.826-5.347-2.584-6.913-7.326-6.913h-4.955
	l-3.17,20.36H407.522z M412.051,44.351c-0.24,1.512-1.279,2.349-2.771,2.268l0.746-4.698l0.4-0.027
	C411.758,41.894,412.264,43.055,412.051,44.351z"/>
<path class="st0" d="M431.95,57.879l-2.717-8.479c2.291-0.864,3.57-2.862,3.916-5.104c0.826-5.374-2.371-6.778-7.086-6.778h-5.248
	l-3.17,20.36h5.435l0.852-5.428c0.16-0.999,0.266-1.998,0.373-2.997l0.08-0.054l1.678,8.479H431.95z M424.783,46.916l0.799-5.022
	c1.492-0.081,2.451,0.675,2.158,2.457c-0.186,1.323-1.172,2.592-2.611,2.592L424.783,46.916z"/>
<path class="st0" d="M433.733,57.879h10.097l0.746-4.807h-4.662l0.479-3.105h4.183l0.773-4.806h-4.183l0.426-2.835h4.662L447,37.519
	h-10.097L433.733,57.879z"/>
<path class="st0" d="M452.46,57.879l1.039-6.67c4.689,0.135,8.152-1.485,8.978-6.778c0.826-5.347-2.584-6.913-7.326-6.913h-4.955
	l-3.17,20.36H452.46z M456.989,44.351c-0.24,1.512-1.279,2.349-2.771,2.268l0.746-4.698l0.4-0.027
	C456.696,41.894,457.202,43.055,456.989,44.351z"/>
<path class="st0" d="M475.929,57.879l-1.092-20.36h-6.634l-7.992,20.36h5.595l0.853-2.619h3.65v2.619H475.929z M468.07,50.939
	l1.465-4.725c0.426-1.269,0.746-2.565,1.119-3.834h0.053c-0.08,1.269-0.16,2.565-0.213,3.834l-0.133,4.725H468.07z"/>
<path class="st0" d="M483.147,57.879l3.17-20.36h-5.435l-3.17,20.36H483.147z"/>
<path class="st0" d="M486.343,57.879h4.742c3.303,0,9.271-0.864,10.736-10.261c0.959-6.157-1.758-10.099-7.939-10.099h-4.369
	L486.343,57.879z M494.175,42.596c2.478,0,2.424,3.078,2.078,5.292c-0.32,1.917-1.225,5.049-3.703,5.076L494.175,42.596z"/>
<path class="st0" d="M525.049,37.654c-0.826-0.351-1.758-0.486-2.717-0.486c-2.637,0-9.058,1.539-10.47,10.666
	c-1.092,6.967,2.158,10.396,6.607,10.396c1.199,0,2.211-0.243,3.383-0.729l1.226-5.698c-1.012,0.81-1.865,1.296-3.09,1.296
	c-2.717,0-2.93-3.024-2.557-5.4c0.346-2.241,1.518-5.401,4.342-5.401c1.119,0,1.705,0.432,2.344,1.188L525.049,37.654z"/>
<path class="st0" d="M539.433,57.879l-1.092-20.36h-6.633l-7.992,20.36h5.595l0.852-2.619h3.65v2.619H539.433z M531.574,50.939
	l1.465-4.725c0.426-1.269,0.746-2.565,1.119-3.834h0.053c-0.08,1.269-0.16,2.565-0.213,3.834l-0.133,4.725H531.574z"/>
<path class="st0" d="M555.523,57.879l-2.717-8.479c2.291-0.864,3.57-2.862,3.916-5.104c0.826-5.374-2.371-6.778-7.086-6.778h-5.248
	l-3.17,20.36h5.435l0.853-5.428c0.16-0.999,0.266-1.998,0.373-2.997l0.08-0.054l1.678,8.479H555.523z M548.356,46.916l0.799-5.022
	c1.492-0.081,2.451,0.675,2.158,2.457c-0.187,1.323-1.172,2.592-2.611,2.592L548.356,46.916z"/>
<path class="st0" d="M557.306,57.879h4.742c3.303,0,9.271-0.864,10.736-10.261c0.959-6.157-1.758-10.099-7.939-10.099h-4.369
	L557.306,57.879z M565.138,42.596c2.478,0,2.424,3.078,2.078,5.292c-0.32,1.917-1.225,5.049-3.703,5.076L565.138,42.596z"/>
<path class="st0" d="M576.166,58.176c1.678,0,3.277-1.35,3.543-3.051c0.293-1.809-0.932-3.132-2.664-3.132
	c-1.572,0-3.17,1.404-3.41,3.051C573.342,56.772,574.461,58.176,576.166,58.176z"/>
</svg>
