<?xml version="1.0" encoding="utf-8"?>
<!-- Generator: Adobe Illustrator 21.1.0, SVG Export Plug-In . SVG Version: 6.00 Build 0)  -->
<svg version="1.1" id="Layer_1" xmlns="http://www.w3.org/2000/svg" xmlns:xlink="http://www.w3.org/1999/xlink" x="0px" y="0px"
	 width="728px" height="90px" viewBox="0 0 728 90" style="enable-background:new 0 0 728 90;" xml:space="preserve">
<style type="text/css">
	.st0{fill:#FFFFFF;}
</style>
<path class="st0" d="M178.511,50.833h-5.881V28.477h-7.835v29.402h13.715V50.833z"/>
<path class="st0" d="M199.084,32.485c-1.979-2.672-4.641-4.009-7.985-4.009c-2.731,0-5.092,0.987-7.083,2.961
	c-2.68,2.66-4.021,6.503-4.021,11.529c0,5.247,1.284,9.182,3.852,11.805c2.041,2.072,4.49,3.108,7.346,3.108
	c3.219,0,5.83-1.349,7.834-4.046c2.017-2.709,3.025-6.227,3.025-10.555C202.052,38.756,201.063,35.158,199.084,32.485z
	 M193.128,48.854c-0.501,1.32-1.215,1.979-2.142,1.979c-0.902,0-1.606-0.669-2.114-2.007c-0.507-1.338-0.761-3.221-0.761-5.648
	c0-2.465,0.269-4.332,0.808-5.601c0.551-1.369,1.29-2.054,2.217-2.054c1.854,0,2.781,2.608,2.781,7.823
	C193.917,45.699,193.654,47.535,193.128,48.854L193.128,48.854z"/>
<path class="st0" d="M219.525,28.477h-9.582l-6.97,29.402h8.097l0.639-3.732h5.279l0.583,3.732h8.098L219.525,28.477z
	 M212.761,47.958l0.789-4.608l0.545-3.561c0.012-0.063,0.038-0.248,0.075-0.552c0.038-0.305,0.1-0.85,0.188-1.638
	c0.05-0.393,0.097-0.755,0.141-1.085c0.044-0.33,0.078-0.628,0.103-0.895l0.244,2.78c0.063,0.571,0.113,1.044,0.15,1.419
	c0.038,0.375,0.069,0.67,0.094,0.886c0.238,1.93,0.369,3.034,0.394,3.313c0.038,0.33,0.063,0.502,0.075,0.514l0.507,3.428H212.761z"
	/>
<path class="st0" d="M235.269,57.879c4.046,0,7.089-1.13,9.131-3.39c2.392-2.653,3.588-6.417,3.588-11.292
	c0-4.951-1.416-8.804-4.246-11.559c-2.154-2.107-5.167-3.161-9.037-3.161h-6.764v29.402H235.269z M235.776,35.865h0.244
	c1.215,0,2.179,0.686,2.893,2.057c0.714,1.359,1.071,3.212,1.071,5.561c0,4.761-1.403,7.211-4.209,7.351V35.865z"/>
<path class="st0" d="M275.907,45.425l6.745-16.948h-8.116l-1.428,4.399c-0.163,0.483-0.351,1.114-0.564,1.895
	c-0.213,0.781-0.464,1.711-0.751,2.79c-0.176-0.724-0.373-1.479-0.592-2.266c-0.219-0.787-0.467-1.606-0.742-2.456l-1.409-4.361
	h-8.173l7.196,16.948v12.454h7.835V45.425z"/>
<path class="st0" d="M301.797,32.485c-1.979-2.672-4.641-4.009-7.985-4.009c-2.731,0-5.091,0.987-7.083,2.961
	c-2.681,2.66-4.021,6.503-4.021,11.529c0,5.247,1.284,9.182,3.852,11.805c2.041,2.072,4.49,3.108,7.346,3.108
	c3.219,0,5.83-1.349,7.835-4.046c2.016-2.709,3.025-6.227,3.025-10.555C304.765,38.756,303.776,35.158,301.797,32.485z
	 M295.841,48.854c-0.501,1.32-1.215,1.979-2.142,1.979c-0.902,0-1.606-0.669-2.114-2.007c-0.507-1.338-0.761-3.221-0.761-5.648
	c0-2.465,0.269-4.332,0.808-5.601c0.551-1.369,1.29-2.054,2.217-2.054c1.854,0,2.781,2.608,2.781,7.823
	C296.63,45.699,296.367,47.535,295.841,48.854L295.841,48.854z"/>
<path class="st0" d="M319.946,47.35c0,1.312-0.144,2.227-0.432,2.745c-0.288,0.492-0.808,0.738-1.559,0.738
	c-0.727,0-1.243-0.265-1.55-0.795c-0.307-0.53-0.46-1.432-0.46-2.707V28.477h-7.834V47.81c0,3.706,1.152,6.401,3.457,8.085
	c1.816,1.323,4.064,1.984,6.745,1.984c2.367,0,4.378-0.599,6.031-1.797c1.227-0.898,2.104-1.903,2.63-3.013
	c0.538-1.06,0.808-2.445,0.808-4.155V28.477h-7.835V47.35z"/>
<path class="st0" d="M346.643,45.653c2.993-1.358,4.49-3.815,4.49-7.37c0-3.326-1.115-5.891-3.344-7.693
	c-1.754-1.409-4.396-2.114-7.928-2.114h-8.022v29.402h7.797V47.596l-0.056-1.942c0.138,0.406,0.254,0.756,0.348,1.047
	c0.094,0.292,0.16,0.527,0.197,0.704l3.87,10.474h8.473L346.643,45.653z M339.673,34.666h0.282c2.267,0,3.401,1.098,3.401,3.294
	c0,1.079-0.301,1.968-0.902,2.666c-0.601,0.698-1.353,1.047-2.254,1.047h-0.526V34.666z"/>
<path class="st0" d="M376.76,35.522h4.49v-7.046h-16.646v7.046h4.321v22.357h7.835V35.522z"/>
<path class="st0" d="M397.332,28.477h-9.582l-6.97,29.402h8.098l0.639-3.732h5.279l0.582,3.732h8.098L397.332,28.477z
	 M390.569,47.958l0.789-4.608l0.545-3.561c0.012-0.063,0.038-0.248,0.075-0.552c0.038-0.305,0.1-0.85,0.188-1.638
	c0.05-0.393,0.097-0.755,0.141-1.085c0.044-0.33,0.078-0.628,0.103-0.895l0.244,2.78c0.062,0.571,0.113,1.044,0.15,1.419
	c0.038,0.375,0.069,0.67,0.094,0.886c0.238,1.93,0.369,3.034,0.395,3.313c0.038,0.33,0.062,0.502,0.075,0.514l0.507,3.428H390.569z"
	/>
<path class="st0" d="M419.089,42.626l6.613-14.149h-8.774l-1.202,4.018c-0.213,0.685-0.476,1.663-0.789,2.933
	c-0.138-0.622-0.272-1.181-0.404-1.676c-0.132-0.495-0.266-0.926-0.404-1.295l-1.296-3.98h-8.718l6.651,14.149l-7.045,15.253h8.53
	l1.447-3.866c0.551-1.511,0.964-2.85,1.24-4.018c0.288,1.181,0.664,2.412,1.127,3.694l1.447,4.19h8.699L419.089,42.626z"/>
<path class="st0" d="M454.616,45.653c2.993-1.358,4.49-3.815,4.49-7.37c0-3.326-1.115-5.891-3.344-7.693
	c-1.754-1.409-4.396-2.114-7.928-2.114h-8.022v29.402h7.797V47.596l-0.056-1.942c0.138,0.406,0.254,0.756,0.348,1.047
	c0.094,0.292,0.16,0.527,0.197,0.704l3.87,10.474h8.473L454.616,45.653z M447.646,34.666h0.282c2.267,0,3.401,1.098,3.401,3.294
	c0,1.079-0.301,1.968-0.902,2.666c-0.601,0.698-1.353,1.047-2.255,1.047h-0.526V34.666z"/>
<path class="st0" d="M477.594,57.879v-7.046h-6.726V46.32h6.031v-7.046h-6.031v-3.751h6.726v-7.046h-14.561v29.402H477.594z"/>
<path class="st0" d="M488.773,46.32h5.599v-7.046h-5.599v-3.751h6.012v-7.046h-13.847v29.402h7.835V46.32z"/>
<path class="st0" d="M509.665,47.35c0,1.312-0.144,2.227-0.432,2.745c-0.288,0.492-0.808,0.738-1.559,0.738
	c-0.727,0-1.243-0.265-1.55-0.795c-0.307-0.53-0.46-1.432-0.46-2.707V28.477h-7.835V47.81c0,3.706,1.152,6.401,3.457,8.085
	c1.816,1.323,4.064,1.984,6.745,1.984c2.367,0,4.378-0.599,6.031-1.797c1.227-0.898,2.104-1.903,2.63-3.013
	c0.538-1.06,0.808-2.445,0.808-4.155V28.477h-7.835V47.35z"/>
<path class="st0" d="M529.11,57.879v-7.503c0-1.155-0.072-2.501-0.217-4.037c-0.144-1.536-0.373-3.339-0.685-5.408
	c0.265,0.914,0.574,1.876,0.926,2.885c0.352,1.009,0.747,2.092,1.185,3.247l4.183,10.816h7.553V28.477h-7.553v6.608
	c0,1.232,0.075,2.755,0.225,4.57c0.15,1.816,0.369,3.999,0.658,6.551l-0.808-2.59c-0.326-1.028-0.623-1.936-0.892-2.723
	c-0.27-0.787-0.51-1.485-0.723-2.095l-3.927-10.321h-7.477v29.402H529.11z"/>
<path class="st0" d="M553.365,57.879c4.045,0,7.089-1.13,9.131-3.39c2.392-2.653,3.589-6.417,3.589-11.292
	c0-4.951-1.416-8.804-4.246-11.559c-2.154-2.107-5.167-3.161-9.037-3.161h-6.764v29.402H553.365z M553.872,35.865h0.244
	c1.215,0,2.179,0.686,2.893,2.057c0.714,1.359,1.071,3.212,1.071,5.561c0,4.761-1.403,7.211-4.208,7.351V35.865z"/>
</svg>
