<?xml version="1.0" encoding="utf-8"?>
<!-- Generator: Adobe Illustrator 21.1.0, SVG Export Plug-In . SVG Version: 6.00 Build 0)  -->
<svg version="1.1" id="Layer_1" xmlns="http://www.w3.org/2000/svg" xmlns:xlink="http://www.w3.org/1999/xlink" x="0px" y="0px"
	 width="728px" height="90px" viewBox="0 0 728 90" style="enable-background:new 0 0 728 90;" xml:space="preserve">
<style type="text/css">
	.st0{fill:#FFFFFF;}
</style>
<path class="st0" d="M469.753,76.751v0.869h1.179v6.666h1v-6.666h1.129v-0.869H469.753z"/>
<path class="st0" d="M474.368,81.279c0-0.39-0.04-1.279,0.55-1.279c0.57,0,0.57,0.89,0.57,1.279H474.368z M476.446,81.948v-0.15
	c0-1.039-0.16-2.639-1.529-2.639c-1.389,0-1.509,1.609-1.509,2.639c0,1.069,0.13,2.569,1.539,2.569c1.06,0,1.469-0.85,1.469-1.779
	h-0.87c0,0.39-0.09,0.939-0.59,0.939c-0.61,0-0.59-1.159-0.59-1.579H476.446z"/>
<path class="st0" d="M478.465,79.24h-0.94v5.047h0.95v-3.178c0-0.64,0.22-1.03,0.919-1.03l0.16,0.01v-0.93
	c-0.52,0-0.849,0.26-1.069,0.7h-0.02V79.24z"/>
<path class="st0" d="M481.488,79.24h-0.949v5.047h0.94v-3.208c0.02-0.43-0.02-1.079,0.57-1.079c0.54,0,0.53,0.46,0.54,0.86v3.428
	h0.939v-3.208c0-0.45-0.07-1.079,0.6-1.079c0.46,0,0.51,0.38,0.51,0.75v3.538h0.939v-3.908c0-0.67-0.22-1.219-1.109-1.219
	c-0.51,0-0.839,0.26-1.039,0.7h-0.02c-0.1-0.44-0.46-0.7-0.909-0.7c-0.48,0-0.8,0.28-0.989,0.7h-0.02V79.24z"/>
<path class="st0" d="M488.729,79.38c-0.27-0.16-0.53-0.22-0.85-0.22c-0.8,0-1.349,0.58-1.349,1.379c0,1.399,1.579,1.459,1.579,2.349
	c0,0.39-0.22,0.64-0.63,0.64c-0.32,0-0.54-0.13-0.78-0.32v0.919c0.28,0.17,0.49,0.24,0.82,0.24c0.899,0,1.449-0.61,1.449-1.499
	c0-1.439-1.559-1.479-1.579-2.329c0-0.34,0.29-0.54,0.64-0.54c0.23,0,0.52,0.11,0.7,0.27V79.38z"/>
<path class="st0" d="M493.669,83.527c-0.7,0-0.62-1.349-0.62-1.769c0-0.41-0.08-1.759,0.62-1.759c0.63,0,0.59,1.359,0.59,1.759
	C494.258,82.158,494.298,83.527,493.669,83.527z M494.228,84.287h0.94V79.24h-0.94v0.56h-0.02c-0.17-0.37-0.46-0.64-0.9-0.64
	c-1.189,0-1.219,1.699-1.219,2.539c0,0.82,0.02,2.669,1.189,2.669c0.54,0,0.74-0.29,0.93-0.73h0.02V84.287z"/>
<path class="st0" d="M497.889,83.527c-0.63,0-0.59-1.359-0.59-1.759c0-0.41-0.04-1.769,0.59-1.769c0.7,0,0.62,1.359,0.62,1.769
	C498.508,82.608,498.478,83.527,497.889,83.527z M497.329,79.24h-0.939v7.116h0.939v-2.639h0.02c0.19,0.41,0.41,0.65,0.899,0.65
	c1.189,0,1.219-1.699,1.219-2.549c0-0.82-0.02-2.659-1.189-2.659c-0.52,0-0.749,0.3-0.929,0.73h-0.02V79.24z"/>
<path class="st0" d="M502.068,83.527c-0.63,0-0.59-1.359-0.59-1.759c0-0.41-0.04-1.769,0.59-1.769c0.7,0,0.62,1.359,0.62,1.769
	C502.687,82.608,502.657,83.527,502.068,83.527z M501.508,79.24h-0.939v7.116h0.939v-2.639h0.02c0.19,0.41,0.41,0.65,0.9,0.65
	c1.189,0,1.219-1.699,1.219-2.549c0-0.82-0.02-2.659-1.189-2.659c-0.52,0-0.749,0.3-0.929,0.73h-0.02V79.24z"/>
<path class="st0" d="M505.7,75.992h-0.94v8.295h0.94V75.992z"/>
<path class="st0" d="M506.585,79.24l1.339,4.637l-0.78,2.479h0.99l2.059-7.116h-0.949l-0.85,3.518h-0.02l-0.74-3.518H506.585z"/>
<path class="st0" d="M511.239,84.367c0.33,0,0.6-0.27,0.6-0.61c0-0.32-0.27-0.59-0.6-0.59c-0.33,0-0.6,0.27-0.6,0.59
	C510.639,84.097,510.909,84.367,511.239,84.367z"/>
<path class="st0" d="M517.847,76.901c-0.32-0.19-0.68-0.25-1.059-0.25c-1.129,0-1.689,0.869-1.689,1.929
	c0,1.979,2.109,2.279,2.109,3.778c0,0.56-0.26,1.049-0.88,1.049c-0.39,0-0.69-0.17-0.989-0.39v1.009c0.31,0.25,0.71,0.36,1.099,0.36
	c1.109,0,1.769-0.91,1.769-1.969c0-1.019-0.39-1.519-1.069-2.209l-0.76-0.83c-0.2-0.26-0.28-0.49-0.28-0.819
	c0-0.52,0.34-0.97,0.89-0.97c0.34,0,0.59,0.13,0.849,0.32L517.847,76.901z"/>
<path class="st0" d="M520.161,81.279c0-0.39-0.04-1.279,0.55-1.279c0.57,0,0.57,0.89,0.57,1.279H520.161z M522.24,81.948v-0.15
	c0-1.039-0.16-2.639-1.529-2.639c-1.389,0-1.509,1.609-1.509,2.639c0,1.069,0.13,2.569,1.539,2.569c1.059,0,1.469-0.85,1.469-1.779
	h-0.87c0,0.39-0.09,0.939-0.59,0.939c-0.61,0-0.59-1.159-0.59-1.579H522.24z"/>
<path class="st0" d="M524.147,81.279c0-0.39-0.04-1.279,0.55-1.279c0.57,0,0.57,0.89,0.57,1.279H524.147z M526.226,81.948v-0.15
	c0-1.039-0.16-2.639-1.529-2.639c-1.389,0-1.509,1.609-1.509,2.639c0,1.069,0.13,2.569,1.539,2.569c1.06,0,1.469-0.85,1.469-1.779
	h-0.87c0,0.39-0.09,0.939-0.59,0.939c-0.61,0-0.59-1.159-0.59-1.579H526.226z"/>
<path class="st0" d="M531.496,79.38c-0.27-0.16-0.53-0.22-0.849-0.22c-0.8,0-1.349,0.58-1.349,1.379
	c0,1.399,1.579,1.459,1.579,2.349c0,0.39-0.22,0.64-0.63,0.64c-0.32,0-0.54-0.13-0.78-0.32v0.919c0.28,0.17,0.49,0.24,0.82,0.24
	c0.899,0,1.449-0.61,1.449-1.499c0-1.439-1.559-1.479-1.579-2.329c0-0.34,0.29-0.54,0.64-0.54c0.23,0,0.52,0.11,0.7,0.27V79.38z"/>
<path class="st0" d="M533.639,79.24h-0.939v5.047h0.939V79.24z M533.179,78.34c0.33,0,0.62-0.28,0.62-0.63
	c0-0.34-0.29-0.62-0.62-0.62c-0.35,0-0.63,0.28-0.63,0.62C532.549,78.061,532.829,78.34,533.179,78.34z"/>
<path class="st0" d="M535.075,77.811v1.429h-0.51v0.74h0.51v4.308h0.94v-4.308h0.5v-0.74h-0.5v-1.429H535.075z"/>
<path class="st0" d="M538.238,81.279c0-0.39-0.04-1.279,0.55-1.279c0.57,0,0.57,0.89,0.57,1.279H538.238z M540.316,81.948v-0.15
	c0-1.039-0.16-2.639-1.529-2.639c-1.389,0-1.509,1.609-1.509,2.639c0,1.069,0.13,2.569,1.539,2.569c1.06,0,1.469-0.85,1.469-1.779
	h-0.87c0,0.39-0.09,0.939-0.59,0.939c-0.61,0-0.59-1.159-0.59-1.579H540.316z"/>
<path class="st0" d="M543.458,79.24v0.74h0.47v4.308h0.939v-4.308h0.78v-0.74h-0.78v-1.519c0-0.34-0.04-0.81,0.44-0.81
	c0.15,0,0.26,0.05,0.39,0.12v-0.979c-0.21-0.09-0.39-0.14-0.63-0.14c-1.069,0-1.139,0.84-1.139,1.699v1.629H543.458z"/>
<path class="st0" d="M547.969,84.367c1.439,0,1.589-1.529,1.589-2.589c0-1.099-0.15-2.619-1.589-2.619s-1.589,1.519-1.589,2.619
	C546.38,82.838,546.53,84.367,547.969,84.367z M547.969,83.507c-0.72,0-0.63-1.369-0.63-1.729c0-0.4-0.09-1.759,0.63-1.759
	s0.63,1.359,0.63,1.759C548.599,82.138,548.689,83.507,547.969,83.507z"/>
<path class="st0" d="M551.587,79.24h-0.94v5.047h0.95v-3.178c0-0.64,0.22-1.03,0.919-1.03l0.16,0.01v-0.93
	c-0.52,0-0.849,0.26-1.069,0.7h-0.02V79.24z"/>
<path class="st0" d="M557.977,84.287h0.939v-8.295h-0.939V79.8h-0.02c-0.19-0.38-0.42-0.64-0.9-0.64
	c-1.189,0-1.219,1.699-1.219,2.539c0,0.82,0.02,2.669,1.189,2.669c0.53,0,0.74-0.29,0.93-0.73h0.02V84.287z M557.417,83.527
	c-0.7,0-0.62-1.349-0.62-1.769c0-0.41-0.08-1.759,0.62-1.759c0.63,0,0.59,1.359,0.59,1.759
	C558.006,82.158,558.047,83.527,557.417,83.527z"/>
<path class="st0" d="M560.966,81.279c0-0.39-0.04-1.279,0.55-1.279c0.57,0,0.57,0.89,0.57,1.279H560.966z M563.045,81.948v-0.15
	c0-1.039-0.16-2.639-1.529-2.639c-1.389,0-1.509,1.609-1.509,2.639c0,1.069,0.13,2.569,1.539,2.569c1.059,0,1.469-0.85,1.469-1.779
	h-0.87c0,0.39-0.09,0.939-0.59,0.939c-0.61,0-0.59-1.159-0.59-1.579H563.045z"/>
<path class="st0" d="M564.298,77.811v1.429h-0.51v0.74h0.51v4.308h0.94v-4.308h0.5v-0.74h-0.5v-1.429H564.298z"/>
<path class="st0" d="M568.11,83.527c-0.7,0-0.62-1.349-0.62-1.769c0-0.41-0.08-1.759,0.62-1.759c0.63,0,0.59,1.359,0.59,1.759
	C568.699,82.158,568.739,83.527,568.11,83.527z M568.669,84.287h0.939V79.24h-0.939v0.56h-0.02c-0.17-0.37-0.46-0.64-0.9-0.64
	c-1.189,0-1.219,1.699-1.219,2.539c0,0.82,0.02,2.669,1.189,2.669c0.54,0,0.74-0.29,0.93-0.73h0.02V84.287z"/>
<path class="st0" d="M571.772,79.24h-0.94v5.047h0.94V79.24z M571.312,78.34c0.33,0,0.62-0.28,0.62-0.63c0-0.34-0.29-0.62-0.62-0.62
	c-0.35,0-0.63,0.28-0.63,0.62C570.682,78.061,570.962,78.34,571.312,78.34z"/>
<path class="st0" d="M573.934,75.992h-0.94v8.295h0.94V75.992z"/>
<path class="st0" d="M577.065,79.38c-0.27-0.16-0.53-0.22-0.849-0.22c-0.8,0-1.349,0.58-1.349,1.379
	c0,1.399,1.579,1.459,1.579,2.349c0,0.39-0.22,0.64-0.63,0.64c-0.32,0-0.54-0.13-0.78-0.32v0.919c0.28,0.17,0.49,0.24,0.82,0.24
	c0.9,0,1.449-0.61,1.449-1.499c0-1.439-1.559-1.479-1.579-2.329c0-0.34,0.29-0.54,0.64-0.54c0.23,0,0.52,0.11,0.7,0.27V79.38z"/>
<path class="st0" d="M578.891,84.367c0.33,0,0.6-0.27,0.6-0.61c0-0.32-0.27-0.59-0.6-0.59s-0.6,0.27-0.6,0.59
	C578.291,84.097,578.561,84.367,578.891,84.367z"/>
</svg>
