<?xml version="1.0" encoding="utf-8"?>
<!-- Generator: Adobe Illustrator 18.1.1, SVG Export Plug-In . SVG Version: 6.00 Build 0)  -->
<svg version="1.1" id="Layer_1" xmlns="http://www.w3.org/2000/svg" xmlns:xlink="http://www.w3.org/1999/xlink" x="0px" y="0px"
	 width="728px" height="90px" viewBox="0 0 728 90" enable-background="new 0 0 728 90" xml:space="preserve">
<path fill="#FFFFFF" d="M90.1,29.1c0.6-0.2,1.2-0.5,1.6-0.9c0.5-0.4,0.8-0.8,1.1-1.4c0.3-0.5,0.4-1.2,0.4-1.8v0
	c0-0.6-0.1-1.1-0.3-1.6c-0.2-0.5-0.5-0.8-0.9-1.2c-0.4-0.3-0.9-0.6-1.5-0.9c-0.6-0.2-1.3-0.5-2-0.6c-0.7-0.2-1.3-0.3-1.7-0.5
	c-0.5-0.2-0.8-0.3-1.1-0.5c-0.3-0.2-0.4-0.4-0.5-0.6c-0.1-0.2-0.1-0.5-0.1-0.7v0c0-0.5,0.2-0.9,0.6-1.2s1-0.5,1.7-0.5
	c0.7,0,1.3,0.1,2,0.4c0.7,0.3,1.3,0.6,2,1.1l1.4-1.9c-0.7-0.6-1.5-1.1-2.4-1.4c-0.9-0.3-1.8-0.5-2.9-0.5c-0.7,0-1.4,0.1-2,0.3
	c-0.6,0.2-1.1,0.5-1.6,0.9c-0.4,0.4-0.8,0.8-1,1.3c-0.2,0.5-0.4,1.1-0.4,1.7v0c0,0.7,0.1,1.2,0.3,1.7c0.2,0.5,0.5,0.9,0.9,1.2
	c0.4,0.3,0.9,0.6,1.5,0.8c0.6,0.2,1.3,0.4,2.1,0.6c0.7,0.2,1.2,0.3,1.7,0.5c0.4,0.2,0.8,0.3,1,0.5c0.2,0.2,0.4,0.4,0.5,0.6
	c0.1,0.2,0.1,0.4,0.1,0.7v0c0,0.6-0.2,1-0.7,1.3c-0.5,0.3-1.1,0.5-1.9,0.5c-0.9,0-1.7-0.2-2.5-0.5c-0.7-0.3-1.4-0.8-2.1-1.4L81.9,27
	c0.9,0.8,1.8,1.4,2.8,1.8c1,0.4,2.1,0.6,3.2,0.6C88.8,29.3,89.5,29.2,90.1,29.1z"/>
<path fill="#FFFFFF" d="M98,29.2h2.2l2.5-7.5l2.5,7.5h2.2l3.6-11.1h-2.5l-2.2,7.5l-2.5-7.6h-2.1l-2.4,7.6L97,18.2h-2.6L98,29.2z"/>
<path fill="#FFFFFF" d="M112.9,29.1h2.5v-11h-2.5V29.1z M112.8,16.5h2.7v-2.4h-2.7V16.5z"/>
<path fill="#FFFFFF" d="M123.1,29.2c0.4-0.1,0.7-0.2,1-0.4v-2.1c-0.5,0.2-1,0.4-1.6,0.4c-0.4,0-0.8-0.1-1-0.3
	c-0.2-0.2-0.4-0.6-0.4-1.1v-5.4h3v-2.2h-3v-3h-2.5v3h-1.4v2.2h1.4v5.8c0,0.6,0.1,1.1,0.2,1.5c0.2,0.4,0.4,0.7,0.7,1
	c0.3,0.2,0.6,0.4,1,0.5c0.4,0.1,0.8,0.2,1.3,0.2C122.4,29.3,122.8,29.3,123.1,29.2z"/>
<path fill="#FFFFFF" d="M133.9,28.8c0.7-0.4,1.3-0.9,1.9-1.5l-1.5-1.5c-0.4,0.4-0.8,0.7-1.3,1c-0.5,0.3-1,0.4-1.6,0.4
	c-0.5,0-0.9-0.1-1.3-0.3c-0.4-0.2-0.7-0.4-1-0.8c-0.3-0.3-0.5-0.7-0.7-1.1c-0.2-0.4-0.2-0.9-0.2-1.4v0c0-0.5,0.1-0.9,0.2-1.4
	c0.2-0.4,0.4-0.8,0.7-1.1c0.3-0.3,0.6-0.6,1-0.7c0.4-0.2,0.8-0.3,1.3-0.3c0.6,0,1.2,0.1,1.6,0.4c0.4,0.3,0.8,0.6,1.2,1l1.6-1.7
	c-0.5-0.6-1.1-1-1.8-1.4c-0.7-0.3-1.5-0.5-2.6-0.5c-0.8,0-1.6,0.2-2.3,0.5c-0.7,0.3-1.3,0.7-1.8,1.2c-0.5,0.5-0.9,1.1-1.2,1.8
	c-0.3,0.7-0.4,1.4-0.4,2.2v0c0,0.8,0.1,1.5,0.4,2.2c0.3,0.7,0.7,1.3,1.2,1.8c0.5,0.5,1.1,0.9,1.8,1.2c0.7,0.3,1.4,0.4,2.3,0.4
	C132.4,29.4,133.2,29.2,133.9,28.8z"/>
<path fill="#FFFFFF" d="M137.6,29.1h2.5V23c0-0.9,0.2-1.5,0.7-2c0.5-0.5,1-0.7,1.8-0.7c0.7,0,1.3,0.2,1.7,0.7c0.4,0.5,0.6,1.1,0.6,2
	v6.2h2.5v-7c0-1.3-0.3-2.3-1-3.1c-0.7-0.8-1.6-1.1-2.9-1.1c-0.4,0-0.8,0.1-1.2,0.2c-0.3,0.1-0.6,0.2-0.9,0.4
	c-0.3,0.2-0.5,0.4-0.7,0.6c-0.2,0.2-0.4,0.5-0.6,0.7V14h-2.5V29.1z"/>
<path fill="#FFFFFF" d="M162.4,25.2c0,0.3-0.1,0.7-0.2,0.9c-0.1,0.3-0.4,0.5-0.6,0.7c-0.3,0.2-0.6,0.4-0.9,0.5
	c-0.4,0.1-0.7,0.2-1.2,0.2c-0.6,0-1.1-0.1-1.5-0.4c-0.4-0.3-0.6-0.7-0.6-1.2v0c0-0.5,0.2-0.9,0.7-1.2c0.4-0.3,1.1-0.5,1.9-0.5
	c0.5,0,0.9,0,1.4,0.1c0.4,0.1,0.8,0.2,1.1,0.3V25.2z M164.9,29.1v-6.5c0-1.5-0.4-2.6-1.2-3.4c-0.8-0.8-2-1.2-3.6-1.2
	c-0.9,0-1.7,0.1-2.3,0.2c-0.6,0.2-1.3,0.4-1.9,0.7l0.7,2c0.5-0.2,1-0.4,1.5-0.5c0.5-0.1,1-0.2,1.7-0.2c0.9,0,1.5,0.2,2,0.6
	c0.5,0.4,0.7,1,0.7,1.7v0.2c-0.4-0.1-0.9-0.2-1.3-0.3c-0.5-0.1-1-0.1-1.7-0.1c-0.6,0-1.2,0.1-1.8,0.2c-0.5,0.1-1,0.4-1.4,0.7
	c-0.4,0.3-0.7,0.7-0.9,1.1c-0.2,0.5-0.3,1-0.3,1.6v0c0,0.6,0.1,1,0.3,1.5c0.2,0.4,0.5,0.8,0.9,1.1c0.4,0.3,0.8,0.5,1.2,0.6
	c0.5,0.1,1,0.2,1.5,0.2c0.8,0,1.5-0.2,2.1-0.5c0.6-0.3,1.1-0.7,1.4-1.1v1.4H164.9z"/>
<path fill="#FFFFFF" d="M167.3,29.1h2.5V23c0-0.9,0.2-1.5,0.7-2c0.5-0.5,1-0.7,1.8-0.7c0.7,0,1.3,0.2,1.7,0.7c0.4,0.5,0.6,1.1,0.6,2
	v6.2h2.5v-7c0-1.3-0.3-2.3-1-3.1c-0.7-0.8-1.6-1.1-2.9-1.1c-0.4,0-0.8,0.1-1.2,0.2c-0.3,0.1-0.6,0.2-0.9,0.4
	c-0.3,0.2-0.5,0.4-0.7,0.6c-0.2,0.2-0.4,0.5-0.6,0.7v-1.7h-2.5V29.1z"/>
<path fill="#FFFFFF" d="M183.6,26.9c-0.4-0.2-0.7-0.4-1-0.7c-0.3-0.3-0.5-0.7-0.7-1.1c-0.2-0.4-0.2-0.9-0.2-1.4v0
	c0-0.5,0.1-1,0.2-1.5c0.2-0.4,0.4-0.8,0.7-1.1c0.3-0.3,0.6-0.5,1-0.7c0.4-0.2,0.8-0.2,1.2-0.2c0.4,0,0.8,0.1,1.2,0.2
	c0.4,0.2,0.7,0.4,1,0.7c0.3,0.3,0.5,0.7,0.7,1.1c0.2,0.4,0.3,0.9,0.3,1.4v0c0,0.5-0.1,1-0.3,1.4c-0.2,0.4-0.4,0.8-0.7,1.1
	c-0.3,0.3-0.6,0.6-1,0.7c-0.4,0.2-0.8,0.2-1.2,0.2C184.4,27.2,184,27.1,183.6,26.9z M186.5,28.8c0.6-0.4,1.1-0.9,1.5-1.5l0,1.8h2.5
	V14H188v5.9c-0.4-0.5-0.9-1-1.5-1.4c-0.6-0.4-1.3-0.6-2.2-0.6c-0.7,0-1.3,0.1-1.9,0.4s-1.2,0.6-1.6,1.1c-0.5,0.5-0.8,1.1-1.1,1.8
	c-0.3,0.7-0.4,1.5-0.4,2.4v0c0,0.9,0.1,1.7,0.4,2.4c0.3,0.7,0.7,1.3,1.1,1.8c0.5,0.5,1,0.9,1.6,1.1c0.6,0.2,1.2,0.4,1.9,0.4
	C185.1,29.4,185.9,29.2,186.5,28.8z"/>
<path fill="#FFFFFF" d="M202.3,32.4c0.3-0.1,0.7-0.3,1-0.5c0.3-0.2,0.6-0.6,0.8-0.9c0.2-0.4,0.5-0.9,0.7-1.4l4.4-11.3h-2.6l-2.8,8.2
	l-3.1-8.2h-2.7l4.6,11c-0.2,0.5-0.4,0.8-0.7,1c-0.2,0.2-0.5,0.3-0.9,0.3c-0.3,0-0.5,0-0.8-0.1c-0.2-0.1-0.5-0.2-0.7-0.3l-0.9,1.9
	c0.4,0.2,0.8,0.4,1.2,0.5c0.4,0.1,0.9,0.2,1.4,0.2C201.5,32.5,201.9,32.5,202.3,32.4z"/>
<path fill="#FFFFFF" d="M214.7,26.9c-0.4-0.2-0.8-0.4-1.1-0.8c-0.3-0.3-0.5-0.7-0.7-1.1c-0.2-0.4-0.2-0.9-0.2-1.4v0
	c0-0.5,0.1-0.9,0.2-1.4c0.2-0.4,0.4-0.8,0.7-1.1s0.6-0.6,1-0.7c0.4-0.2,0.9-0.3,1.4-0.3c0.5,0,0.9,0.1,1.4,0.3
	c0.4,0.2,0.8,0.4,1.1,0.8c0.3,0.3,0.5,0.7,0.7,1.1c0.2,0.4,0.2,0.9,0.2,1.4v0c0,0.5-0.1,0.9-0.2,1.3c-0.2,0.4-0.4,0.8-0.7,1.1
	c-0.3,0.3-0.6,0.6-1,0.8c-0.4,0.2-0.9,0.3-1.4,0.3C215.5,27.2,215.1,27.1,214.7,26.9z M218.3,28.9c0.7-0.3,1.3-0.7,1.9-1.2
	c0.5-0.5,0.9-1.1,1.2-1.8c0.3-0.7,0.4-1.4,0.4-2.2v0c0-0.8-0.1-1.5-0.4-2.2c-0.3-0.7-0.7-1.3-1.2-1.8c-0.5-0.5-1.1-0.9-1.9-1.2
	c-0.7-0.3-1.5-0.4-2.3-0.4c-0.8,0-1.6,0.2-2.3,0.5c-0.7,0.3-1.3,0.7-1.9,1.2c-0.5,0.5-0.9,1.1-1.2,1.8c-0.3,0.7-0.4,1.4-0.4,2.2v0
	c0,0.8,0.1,1.5,0.4,2.2c0.3,0.7,0.7,1.3,1.2,1.8c0.5,0.5,1.1,0.9,1.9,1.2c0.7,0.3,1.5,0.4,2.3,0.4C216.8,29.4,217.6,29.2,218.3,28.9
	z"/>
<path fill="#FFFFFF" d="M229.7,28.8c0.5-0.4,1-0.8,1.3-1.4v1.7h2.5v-11h-2.5v6.2c0,0.9-0.2,1.5-0.7,2c-0.5,0.5-1,0.7-1.8,0.7
	c-0.7,0-1.3-0.2-1.7-0.7c-0.4-0.5-0.6-1.1-0.6-2v-6.2h-2.5v7c0,1.3,0.3,2.3,1,3.1c0.7,0.8,1.6,1.1,2.9,1.1
	C228.5,29.4,229.2,29.2,229.7,28.8z"/>
<path fill="#FFFFFF" d="M249.7,28.8c0.7-0.4,1.3-0.9,1.9-1.5l-1.5-1.5c-0.4,0.4-0.8,0.7-1.3,1c-0.5,0.3-1,0.4-1.6,0.4
	c-0.5,0-0.9-0.1-1.3-0.3c-0.4-0.2-0.7-0.4-1-0.8c-0.3-0.3-0.5-0.7-0.7-1.1c-0.2-0.4-0.2-0.9-0.2-1.4v0c0-0.5,0.1-0.9,0.2-1.4
	c0.2-0.4,0.4-0.8,0.7-1.1c0.3-0.3,0.6-0.6,1-0.7c0.4-0.2,0.8-0.3,1.3-0.3c0.6,0,1.2,0.1,1.6,0.4c0.4,0.3,0.8,0.6,1.2,1l1.6-1.7
	c-0.5-0.6-1.1-1-1.8-1.4c-0.7-0.3-1.5-0.5-2.6-0.5c-0.8,0-1.6,0.2-2.3,0.5c-0.7,0.3-1.3,0.7-1.8,1.2c-0.5,0.5-0.9,1.1-1.2,1.8
	c-0.3,0.7-0.4,1.4-0.4,2.2v0c0,0.8,0.1,1.5,0.4,2.2c0.3,0.7,0.7,1.3,1.2,1.8c0.5,0.5,1.1,0.9,1.8,1.2c0.7,0.3,1.4,0.4,2.3,0.4
	C248.1,29.4,249,29.2,249.7,28.8z"/>
<path fill="#FFFFFF" d="M257.2,26.9c-0.4-0.2-0.8-0.4-1.1-0.8c-0.3-0.3-0.5-0.7-0.7-1.1c-0.2-0.4-0.2-0.9-0.2-1.4v0
	c0-0.5,0.1-0.9,0.2-1.4c0.2-0.4,0.4-0.8,0.7-1.1c0.3-0.3,0.6-0.6,1-0.7c0.4-0.2,0.9-0.3,1.4-0.3c0.5,0,0.9,0.1,1.4,0.3
	c0.4,0.2,0.8,0.4,1.1,0.8c0.3,0.3,0.5,0.7,0.7,1.1c0.2,0.4,0.2,0.9,0.2,1.4v0c0,0.5-0.1,0.9-0.2,1.3c-0.2,0.4-0.4,0.8-0.7,1.1
	c-0.3,0.3-0.6,0.6-1,0.8c-0.4,0.2-0.9,0.3-1.4,0.3C258.1,27.2,257.7,27.1,257.2,26.9z M260.9,28.9c0.7-0.3,1.3-0.7,1.9-1.2
	c0.5-0.5,0.9-1.1,1.2-1.8c0.3-0.7,0.4-1.4,0.4-2.2v0c0-0.8-0.1-1.5-0.4-2.2c-0.3-0.7-0.7-1.3-1.2-1.8c-0.5-0.5-1.1-0.9-1.9-1.2
	c-0.7-0.3-1.5-0.4-2.3-0.4c-0.8,0-1.6,0.2-2.3,0.5c-0.7,0.3-1.3,0.7-1.9,1.2c-0.5,0.5-0.9,1.1-1.2,1.8c-0.3,0.7-0.4,1.4-0.4,2.2v0
	c0,0.8,0.1,1.5,0.4,2.2c0.3,0.7,0.7,1.3,1.2,1.8c0.5,0.5,1.1,0.9,1.9,1.2c0.7,0.3,1.5,0.4,2.3,0.4C259.4,29.4,260.2,29.2,260.9,28.9
	z"/>
<path fill="#FFFFFF" d="M272.3,28.8c0.5-0.4,1-0.8,1.3-1.4v1.7h2.5v-11h-2.5v6.2c0,0.9-0.2,1.5-0.7,2c-0.5,0.5-1,0.7-1.8,0.7
	c-0.7,0-1.3-0.2-1.7-0.7c-0.4-0.5-0.6-1.1-0.6-2v-6.2h-2.5v7c0,1.3,0.3,2.3,1,3.1c0.7,0.8,1.6,1.1,2.9,1.1
	C271.1,29.4,271.8,29.2,272.3,28.8z"/>
<path fill="#FFFFFF" d="M279,29.1h2.5V14H279V29.1z"/>
<path fill="#FFFFFF" d="M288.2,26.9c-0.4-0.2-0.7-0.4-1-0.7c-0.3-0.3-0.5-0.7-0.7-1.1c-0.2-0.4-0.2-0.9-0.2-1.4v0
	c0-0.5,0.1-1,0.2-1.5c0.2-0.4,0.4-0.8,0.7-1.1c0.3-0.3,0.6-0.5,1-0.7c0.4-0.2,0.8-0.2,1.2-0.2c0.4,0,0.8,0.1,1.2,0.2
	c0.4,0.2,0.7,0.4,1,0.7c0.3,0.3,0.5,0.7,0.7,1.1c0.2,0.4,0.3,0.9,0.3,1.4v0c0,0.5-0.1,1-0.3,1.4c-0.2,0.4-0.4,0.8-0.7,1.1
	c-0.3,0.3-0.6,0.6-1,0.7c-0.4,0.2-0.8,0.2-1.2,0.2C289,27.2,288.6,27.1,288.2,26.9z M291,28.8c0.6-0.4,1.1-0.9,1.5-1.5l0,1.8h2.5V14
	h-2.5v5.9c-0.4-0.5-0.9-1-1.5-1.4c-0.6-0.4-1.3-0.6-2.2-0.6c-0.7,0-1.3,0.1-1.9,0.4c-0.6,0.2-1.2,0.6-1.6,1.1
	c-0.5,0.5-0.8,1.1-1.1,1.8c-0.3,0.7-0.4,1.5-0.4,2.4v0c0,0.9,0.1,1.7,0.4,2.4c0.3,0.7,0.7,1.3,1.1,1.8c0.5,0.5,1,0.9,1.6,1.1
	c0.6,0.2,1.2,0.4,1.9,0.4C289.7,29.4,290.4,29.2,291,28.8z"/>
<path fill="#FFFFFF" d="M308.8,29.1c0.5-0.1,0.9-0.4,1.3-0.6c0.4-0.3,0.7-0.6,0.9-1.1c0.2-0.4,0.3-0.9,0.3-1.5v0
	c0-0.5-0.1-0.9-0.3-1.3c-0.2-0.3-0.5-0.6-0.8-0.9c-0.3-0.2-0.7-0.4-1.1-0.6c-0.4-0.2-0.8-0.3-1.2-0.4c-0.3-0.1-0.6-0.2-0.9-0.3
	c-0.3-0.1-0.6-0.2-0.8-0.3c-0.2-0.1-0.4-0.2-0.6-0.4c-0.1-0.1-0.2-0.3-0.2-0.5v0c0-0.3,0.1-0.6,0.4-0.8c0.3-0.2,0.6-0.3,1.1-0.3
	c0.5,0,1,0.1,1.5,0.3s1.1,0.4,1.6,0.8l1-1.8c-0.6-0.4-1.2-0.7-1.9-0.9c-0.7-0.2-1.4-0.3-2.1-0.3c-0.5,0-1.1,0.1-1.5,0.2
	c-0.5,0.2-0.9,0.4-1.2,0.7c-0.4,0.3-0.6,0.6-0.8,1.1c-0.2,0.4-0.3,0.9-0.3,1.4v0c0,0.5,0.1,1,0.3,1.3c0.2,0.4,0.5,0.7,0.8,0.9
	c0.3,0.2,0.7,0.4,1.1,0.6c0.4,0.2,0.8,0.3,1.2,0.4c0.3,0.1,0.6,0.2,0.9,0.3c0.3,0.1,0.6,0.2,0.8,0.3c0.2,0.1,0.4,0.2,0.5,0.4
	c0.1,0.2,0.2,0.3,0.2,0.5v0c0,0.4-0.1,0.6-0.4,0.9c-0.3,0.2-0.7,0.3-1.3,0.3c-0.6,0-1.2-0.1-1.8-0.3c-0.6-0.2-1.2-0.6-1.8-1
	l-1.1,1.7c0.7,0.5,1.4,1,2.3,1.2c0.8,0.3,1.6,0.4,2.4,0.4C307.7,29.3,308.3,29.3,308.8,29.1z"/>
<path fill="#FFFFFF" d="M320.1,25.2c0,0.3-0.1,0.7-0.2,0.9c-0.1,0.3-0.4,0.5-0.6,0.7c-0.3,0.2-0.6,0.4-0.9,0.5
	c-0.4,0.1-0.7,0.2-1.2,0.2c-0.6,0-1.1-0.1-1.5-0.4c-0.4-0.3-0.6-0.7-0.6-1.2v0c0-0.5,0.2-0.9,0.7-1.2c0.4-0.3,1.1-0.5,1.9-0.5
	c0.5,0,0.9,0,1.4,0.1s0.8,0.2,1.1,0.3V25.2z M322.5,29.1v-6.5c0-1.5-0.4-2.6-1.2-3.4c-0.8-0.8-2-1.2-3.6-1.2c-0.9,0-1.7,0.1-2.3,0.2
	c-0.6,0.2-1.3,0.4-1.9,0.7l0.7,2c0.5-0.2,1-0.4,1.5-0.5c0.5-0.1,1-0.2,1.7-0.2c0.9,0,1.5,0.2,2,0.6c0.5,0.4,0.7,1,0.7,1.7v0.2
	c-0.4-0.1-0.9-0.2-1.3-0.3c-0.5-0.1-1-0.1-1.7-0.1c-0.6,0-1.2,0.1-1.8,0.2c-0.5,0.1-1,0.4-1.4,0.7c-0.4,0.3-0.7,0.7-0.9,1.1
	c-0.2,0.5-0.3,1-0.3,1.6v0c0,0.6,0.1,1,0.3,1.5c0.2,0.4,0.5,0.8,0.9,1.1c0.4,0.3,0.8,0.5,1.2,0.6c0.5,0.1,1,0.2,1.5,0.2
	c0.8,0,1.5-0.2,2.1-0.5c0.6-0.3,1.1-0.7,1.4-1.1v1.4H322.5z"/>
<path fill="#FFFFFF" d="M328.4,29.2h2.3l4.5-11.1h-2.6l-3,8.1l-3-8.1h-2.7L328.4,29.2z"/>
<path fill="#FFFFFF" d="M338.7,22.9c0.1-0.9,0.4-1.6,0.9-2.1c0.5-0.5,1.1-0.8,1.9-0.8c0.4,0,0.8,0.1,1.1,0.2
	c0.3,0.2,0.6,0.4,0.8,0.6c0.2,0.3,0.4,0.6,0.6,0.9c0.1,0.4,0.2,0.7,0.3,1.1H338.7z M344.5,28.8c0.7-0.4,1.4-0.9,1.9-1.5l-1.5-1.3
	c-0.4,0.4-0.9,0.8-1.4,1c-0.5,0.2-1,0.3-1.6,0.3c-0.8,0-1.5-0.2-2.1-0.7c-0.6-0.5-0.9-1.2-1.1-2.1h8.1c0-0.1,0-0.2,0-0.4
	c0-0.1,0-0.2,0-0.3c0-0.8-0.1-1.5-0.3-2.3c-0.2-0.7-0.6-1.3-1-1.9c-0.4-0.5-1-1-1.6-1.3c-0.7-0.3-1.4-0.5-2.3-0.5
	c-0.8,0-1.5,0.1-2.2,0.4c-0.7,0.3-1.2,0.7-1.7,1.2c-0.5,0.5-0.8,1.1-1.1,1.8c-0.3,0.7-0.4,1.4-0.4,2.2v0c0,0.8,0.1,1.6,0.4,2.3
	c0.3,0.7,0.7,1.3,1.2,1.8c0.5,0.5,1.1,0.9,1.8,1.2c0.7,0.3,1.4,0.4,2.2,0.4C342.9,29.4,343.7,29.2,344.5,28.8z"/>
<path fill="#F0B824" d="M101.9,63.2c1.4,0.4,2.3,0.8,2.8,1.3c0.5,0.5,0.7,1,0.7,1.7v0.1c0,1.6-1.2,2.5-3.6,2.7V63.2z M97,53.1
	c-1.4-0.4-2.4-0.8-2.9-1.2c-0.5-0.4-0.7-1-0.7-1.7V50c0-0.7,0.3-1.3,0.8-1.8c0.5-0.5,1.5-0.8,2.8-0.9V53.1z M96.6,82h5.5v-5.2
	c1.9-0.2,3.6-0.5,5.1-1.1c1.5-0.6,2.9-1.3,3.9-2.3c1.1-1,1.9-2.1,2.5-3.4c0.6-1.3,0.9-2.7,0.9-4.4v-0.1c0-1.6-0.3-3.1-0.8-4.3
	c-0.5-1.2-1.3-2.3-2.4-3.2s-2.4-1.7-3.9-2.3c-1.6-0.7-3.4-1.2-5.5-1.7v-6.1c1.2,0.3,2.4,0.7,3.6,1.2c1.2,0.5,2.4,1.2,3.5,2l4.3-7.1
	c-1.6-1.1-3.3-2-5.1-2.7c-1.8-0.7-3.9-1.2-6-1.4v-3.2h-5.5v3c-2,0.1-3.8,0.5-5.4,1.1c-1.6,0.6-2.9,1.4-4,2.4c-1.1,1-1.9,2.1-2.5,3.4
	c-0.6,1.3-0.8,2.7-0.8,4.3v0.1c0,1.7,0.3,3.1,0.8,4.3c0.5,1.2,1.4,2.3,2.4,3.2c1.1,0.9,2.4,1.7,4,2.3c1.6,0.6,3.5,1.2,5.6,1.7v6.4
	c-1.7-0.3-3.3-0.8-4.9-1.5c-1.6-0.7-3.3-1.7-5-2.9l-4.8,7c2,1.4,4.2,2.6,6.7,3.5c2.5,0.9,5,1.5,7.6,1.7V82z"/>
<path fill="#F0B824" d="M137.6,76.6c1.9-0.6,3.5-1.5,4.9-2.6c1.4-1.2,2.4-2.6,3.2-4.2c0.8-1.7,1.2-3.5,1.2-5.7V64
	c0-2-0.4-3.8-1.1-5.3c-0.7-1.5-1.7-2.8-2.9-3.7c-1.2-1-2.6-1.7-4.1-2.2c-1.6-0.5-3.2-0.7-4.9-0.7c-1.3,0-2.4,0.1-3.3,0.4
	c-1,0.3-1.9,0.6-2.7,1l0.3-5.7h17V39H120l-1.1,19.2l6.2,3.5c0.9-0.5,1.8-1,2.8-1.3c1-0.4,2.1-0.5,3.2-0.5c1.7,0,3,0.4,4,1.2
	c1,0.8,1.5,1.8,1.5,3.2v0.1c0,1.4-0.5,2.4-1.5,3.2c-1,0.8-2.3,1.2-4.1,1.2c-1.6,0-3.2-0.4-4.6-1.1c-1.5-0.7-3-1.7-4.5-3l-6,7
	c2,1.8,4.2,3.3,6.6,4.4c2.4,1.1,5.3,1.6,8.7,1.6C133.6,77.5,135.7,77.2,137.6,76.6z"/>
<path fill="#F0B824" d="M163.1,67.5c-0.9-0.5-1.6-1.2-2.2-2.1c-0.6-0.9-1.1-2-1.4-3.3c-0.3-1.3-0.5-2.7-0.5-4.2v-0.1
	c0-1.5,0.2-2.9,0.5-4.2c0.3-1.3,0.8-2.3,1.4-3.2c0.6-0.9,1.3-1.6,2.2-2.1c0.8-0.5,1.8-0.8,2.8-0.8c1,0,2,0.3,2.9,0.8
	c0.9,0.5,1.6,1.2,2.2,2.2c0.6,0.9,1.1,2,1.4,3.3c0.3,1.3,0.5,2.6,0.5,4.2V58c0,1.5-0.2,2.9-0.5,4.1c-0.3,1.2-0.8,2.3-1.4,3.2
	c-0.6,0.9-1.3,1.6-2.2,2.1c-0.9,0.5-1.8,0.8-2.9,0.8C165,68.2,164,68,163.1,67.5z M173.2,75.9c2.2-1,4-2.5,5.5-4.2
	c1.5-1.8,2.7-3.9,3.5-6.3c0.8-2.4,1.2-4.9,1.2-7.6v-0.1c0-2.7-0.4-5.2-1.2-7.6c-0.8-2.4-2-4.5-3.5-6.2c-1.5-1.8-3.3-3.2-5.5-4.2
	c-2.1-1-4.6-1.5-7.3-1.5c-2.7,0-5.1,0.5-7.3,1.6c-2.2,1-4,2.5-5.5,4.2c-1.5,1.8-2.7,3.9-3.5,6.3c-0.8,2.4-1.2,4.9-1.2,7.6V58
	c0,2.7,0.4,5.2,1.2,7.6c0.8,2.4,2,4.5,3.5,6.2c1.5,1.8,3.3,3.2,5.5,4.2c2.2,1,4.6,1.5,7.3,1.5C168.6,77.5,171,77,173.2,75.9z"/>
<path fill="#F0B824" d="M196.9,55.1c-1-0.9-1.5-2.1-1.5-3.6v-0.1c0-1.5,0.5-2.7,1.4-3.7c0.9-1,2.2-1.4,3.9-1.4c1.7,0,3,0.5,4,1.5
	c1,1,1.5,2.2,1.5,3.7v0.1c0,1.4-0.5,2.5-1.4,3.5c-0.9,1-2.2,1.4-3.9,1.4C199.2,56.5,197.8,56.1,196.9,55.1z M206.5,76
	c2.2-1,4-2.4,5.5-4.2c1.5-1.8,2.6-4,3.3-6.6c0.8-2.6,1.1-5.4,1.1-8.5v-0.1c0-3.5-0.4-6.3-1.2-8.6c-0.8-2.2-1.9-4-3.3-5.4
	c-1.4-1.4-3-2.5-4.8-3.3c-1.8-0.8-4-1.1-6.8-1.1c-2.2,0-4.2,0.3-6,1c-1.8,0.6-3.4,1.6-4.8,2.8c-1.3,1.2-2.4,2.7-3.2,4.3
	c-0.8,1.7-1.1,3.6-1.1,5.7v0.1c0,1.8,0.3,3.5,0.9,5c0.6,1.5,1.5,2.7,2.7,3.7c1.1,1,2.5,1.8,4,2.4c1.6,0.6,3.2,0.8,5.1,0.8
	c1.7,0,3.2-0.3,4.5-0.8c1.3-0.6,2.5-1.3,3.5-2.2c-0.3,2.4-1,4.3-2.1,5.7c-1.2,1.4-2.8,2.1-5,2.1c-1.5,0-2.9-0.2-4.2-0.7
	c-1.3-0.5-2.6-1.2-3.9-2.3l-4.9,7.3c1.7,1.4,3.6,2.5,5.8,3.3c2.1,0.8,4.6,1.2,7.4,1.2C201.9,77.5,204.4,77,206.5,76z"/>
<path fill="#FFFFFF" d="M228,53.2c-0.4-0.2-0.8-0.4-1.1-0.8c-0.3-0.3-0.5-0.7-0.7-1.1c-0.2-0.4-0.2-0.9-0.2-1.4v0
	c0-0.5,0.1-0.9,0.2-1.4c0.2-0.4,0.4-0.8,0.7-1.1c0.3-0.3,0.6-0.6,1-0.7c0.4-0.2,0.9-0.3,1.4-0.3c0.5,0,0.9,0.1,1.4,0.3
	c0.4,0.2,0.8,0.4,1.1,0.8c0.3,0.3,0.5,0.7,0.7,1.1c0.2,0.4,0.2,0.9,0.2,1.4v0c0,0.5-0.1,0.9-0.2,1.3c-0.2,0.4-0.4,0.8-0.7,1.1
	c-0.3,0.3-0.6,0.6-1,0.8c-0.4,0.2-0.9,0.3-1.4,0.3C228.9,53.5,228.4,53.4,228,53.2z M231.7,55.2c0.7-0.3,1.3-0.7,1.9-1.2
	c0.5-0.5,0.9-1.1,1.2-1.8c0.3-0.7,0.4-1.4,0.4-2.2v0c0-0.8-0.1-1.5-0.4-2.2c-0.3-0.7-0.7-1.3-1.2-1.8s-1.1-0.9-1.9-1.2
	c-0.7-0.3-1.5-0.4-2.3-0.4c-0.8,0-1.6,0.2-2.3,0.5c-0.7,0.3-1.3,0.7-1.9,1.2c-0.5,0.5-0.9,1.1-1.2,1.8c-0.3,0.7-0.4,1.4-0.4,2.2v0
	c0,0.8,0.1,1.5,0.4,2.2c0.3,0.7,0.7,1.3,1.2,1.8c0.5,0.5,1.1,0.9,1.9,1.2c0.7,0.3,1.5,0.4,2.3,0.4C230.2,55.7,230.9,55.5,231.7,55.2
	z"/>
<path fill="#FFFFFF" d="M237.2,55.4h2.5v-6.2c0-0.9,0.2-1.5,0.7-2c0.5-0.5,1-0.7,1.8-0.7c0.7,0,1.3,0.2,1.7,0.7
	c0.4,0.5,0.6,1.1,0.6,2v6.2h2.5v-7c0-1.3-0.3-2.3-1-3.1c-0.7-0.8-1.6-1.1-2.9-1.1c-0.4,0-0.8,0.1-1.2,0.2c-0.3,0.1-0.7,0.2-0.9,0.4
	c-0.3,0.2-0.5,0.4-0.7,0.6c-0.2,0.2-0.4,0.5-0.6,0.7v-1.7h-2.5V55.4z"/>
<path fill="#FFFFFF" d="M263.1,55.1c0.7-0.4,1.3-0.9,1.9-1.5l-1.5-1.5c-0.4,0.4-0.8,0.7-1.3,1c-0.5,0.3-1,0.4-1.6,0.4
	c-0.5,0-0.9-0.1-1.3-0.3c-0.4-0.2-0.7-0.4-1-0.8c-0.3-0.3-0.5-0.7-0.7-1.1c-0.2-0.4-0.2-0.9-0.2-1.4v0c0-0.5,0.1-0.9,0.2-1.4
	c0.2-0.4,0.4-0.8,0.7-1.1c0.3-0.3,0.6-0.6,1-0.7c0.4-0.2,0.8-0.3,1.3-0.3c0.6,0,1.2,0.1,1.6,0.4c0.4,0.3,0.8,0.6,1.2,1l1.6-1.7
	c-0.5-0.6-1.1-1-1.8-1.4c-0.7-0.3-1.5-0.5-2.6-0.5c-0.8,0-1.6,0.2-2.3,0.5c-0.7,0.3-1.3,0.7-1.8,1.2c-0.5,0.5-0.9,1.1-1.2,1.8
	c-0.3,0.7-0.4,1.4-0.4,2.2v0c0,0.8,0.1,1.5,0.4,2.2c0.3,0.7,0.7,1.3,1.2,1.8c0.5,0.5,1.1,0.9,1.8,1.2c0.7,0.3,1.4,0.4,2.3,0.4
	C261.5,55.7,262.4,55.5,263.1,55.1z"/>
<path fill="#FFFFFF" d="M273.5,51.4c0,0.3-0.1,0.7-0.2,0.9c-0.1,0.3-0.4,0.5-0.6,0.7c-0.3,0.2-0.6,0.4-0.9,0.5
	c-0.4,0.1-0.7,0.2-1.2,0.2c-0.6,0-1.1-0.1-1.5-0.4c-0.4-0.3-0.6-0.7-0.6-1.2v0c0-0.5,0.2-0.9,0.7-1.2c0.4-0.3,1.1-0.5,1.9-0.5
	c0.5,0,0.9,0,1.4,0.1c0.4,0.1,0.8,0.2,1.1,0.3V51.4z M275.9,55.4v-6.5c0-1.5-0.4-2.6-1.2-3.4c-0.8-0.8-2-1.2-3.6-1.2
	c-0.9,0-1.7,0.1-2.3,0.2c-0.6,0.2-1.3,0.4-1.9,0.7l0.7,2c0.5-0.2,1-0.4,1.5-0.5c0.5-0.1,1-0.2,1.7-0.2c0.9,0,1.5,0.2,2,0.6
	c0.5,0.4,0.7,1,0.7,1.7v0.2c-0.4-0.1-0.9-0.2-1.3-0.3c-0.5-0.1-1-0.1-1.7-0.1c-0.6,0-1.2,0.1-1.8,0.2c-0.5,0.1-1,0.4-1.4,0.7
	c-0.4,0.3-0.7,0.7-0.9,1.1c-0.2,0.5-0.3,1-0.3,1.6v0c0,0.6,0.1,1,0.3,1.5c0.2,0.4,0.5,0.8,0.9,1.1c0.4,0.3,0.8,0.5,1.2,0.6
	c0.5,0.1,1,0.2,1.5,0.2c0.8,0,1.5-0.2,2.1-0.5c0.6-0.3,1.1-0.7,1.4-1.1v1.4H275.9z"/>
<path fill="#FFFFFF" d="M278.4,55.4h2.5v-4.2c0-0.7,0.1-1.4,0.3-1.9c0.2-0.5,0.4-1,0.8-1.4c0.3-0.4,0.7-0.6,1.2-0.8
	c0.5-0.2,1-0.3,1.5-0.3h0.1v-2.7c-1,0-1.8,0.2-2.4,0.7c-0.6,0.5-1.1,1.2-1.5,2v-2.5h-2.5V55.4z"/>
<path fill="#FFFFFF" d="M292.3,55.4h2.5v-11h-2.5V55.4z M292.2,42.7h2.7v-2.4h-2.7V42.7z"/>
<path fill="#FFFFFF" d="M297.6,55.4h2.5v-6.2c0-0.9,0.2-1.5,0.7-2c0.5-0.5,1-0.7,1.8-0.7c0.7,0,1.3,0.2,1.7,0.7
	c0.4,0.5,0.6,1.1,0.6,2v6.2h2.5v-7c0-1.3-0.3-2.3-1-3.1c-0.7-0.8-1.6-1.1-2.9-1.1c-0.4,0-0.8,0.1-1.2,0.2c-0.3,0.1-0.6,0.2-0.9,0.4
	c-0.3,0.2-0.5,0.4-0.7,0.6c-0.2,0.2-0.4,0.5-0.6,0.7v-1.7h-2.5V55.4z"/>
<path fill="#FFFFFF" d="M315.3,55.4c0.5-0.1,0.9-0.4,1.3-0.6c0.4-0.3,0.7-0.6,0.9-1.1c0.2-0.4,0.3-0.9,0.3-1.5v0
	c0-0.5-0.1-0.9-0.3-1.3s-0.5-0.6-0.8-0.9c-0.3-0.2-0.7-0.4-1.1-0.6c-0.4-0.2-0.8-0.3-1.2-0.4c-0.3-0.1-0.6-0.2-0.9-0.3
	c-0.3-0.1-0.6-0.2-0.8-0.3c-0.2-0.1-0.4-0.2-0.6-0.4c-0.1-0.1-0.2-0.3-0.2-0.5v0c0-0.3,0.1-0.6,0.4-0.8c0.3-0.2,0.6-0.3,1.1-0.3
	c0.5,0,1,0.1,1.5,0.3s1.1,0.4,1.6,0.8l1-1.8c-0.6-0.4-1.2-0.7-1.9-0.9c-0.7-0.2-1.4-0.3-2.1-0.3c-0.5,0-1.1,0.1-1.5,0.2
	c-0.5,0.2-0.9,0.4-1.2,0.7c-0.4,0.3-0.6,0.6-0.8,1.1c-0.2,0.4-0.3,0.9-0.3,1.4v0c0,0.5,0.1,1,0.3,1.3c0.2,0.4,0.5,0.7,0.8,0.9
	c0.3,0.2,0.7,0.4,1.1,0.6c0.4,0.2,0.8,0.3,1.2,0.4c0.3,0.1,0.6,0.2,0.9,0.3c0.3,0.1,0.6,0.2,0.8,0.3c0.2,0.1,0.4,0.2,0.5,0.4
	c0.1,0.2,0.2,0.3,0.2,0.5v0c0,0.4-0.1,0.6-0.4,0.9c-0.3,0.2-0.7,0.3-1.3,0.3c-0.6,0-1.2-0.1-1.8-0.3c-0.6-0.2-1.2-0.6-1.8-1
	l-1.1,1.7c0.7,0.5,1.4,1,2.3,1.2c0.8,0.3,1.6,0.4,2.4,0.4C314.3,55.6,314.8,55.5,315.3,55.4z"/>
<path fill="#FFFFFF" d="M325.7,55.1c0.5-0.4,1-0.8,1.3-1.4v1.7h2.5v-11H327v6.2c0,0.9-0.2,1.5-0.7,2c-0.5,0.5-1,0.7-1.8,0.7
	c-0.7,0-1.3-0.2-1.7-0.7c-0.4-0.5-0.6-1.1-0.6-2v-6.2h-2.5v7c0,1.3,0.3,2.3,1,3.1c0.7,0.8,1.6,1.1,2.9,1.1
	C324.5,55.6,325.2,55.4,325.7,55.1z"/>
<path fill="#FFFFFF" d="M332.2,55.4h2.5v-4.2c0-0.7,0.1-1.4,0.3-1.9c0.2-0.5,0.4-1,0.8-1.4c0.3-0.4,0.7-0.6,1.2-0.8
	c0.5-0.2,1-0.3,1.5-0.3h0.1v-2.7c-1,0-1.8,0.2-2.4,0.7c-0.6,0.5-1.1,1.2-1.5,2v-2.5h-2.5V55.4z"/>
<path fill="#FFFFFF" d="M347.1,51.4c0,0.3-0.1,0.7-0.2,0.9c-0.1,0.3-0.4,0.5-0.6,0.7c-0.3,0.2-0.6,0.4-0.9,0.5
	c-0.4,0.1-0.7,0.2-1.2,0.2c-0.6,0-1.1-0.1-1.5-0.4c-0.4-0.3-0.6-0.7-0.6-1.2v0c0-0.5,0.2-0.9,0.7-1.2c0.4-0.3,1.1-0.5,1.9-0.5
	c0.5,0,0.9,0,1.4,0.1c0.4,0.1,0.8,0.2,1.1,0.3V51.4z M349.5,55.4v-6.5c0-1.5-0.4-2.6-1.2-3.4c-0.8-0.8-2-1.2-3.6-1.2
	c-0.9,0-1.7,0.1-2.3,0.2c-0.6,0.2-1.3,0.4-1.9,0.7l0.7,2c0.5-0.2,1-0.4,1.5-0.5c0.5-0.1,1-0.2,1.7-0.2c0.9,0,1.5,0.2,2,0.6
	c0.5,0.4,0.7,1,0.7,1.7v0.2c-0.4-0.1-0.9-0.2-1.3-0.3c-0.5-0.1-1-0.1-1.7-0.1c-0.6,0-1.2,0.1-1.8,0.2c-0.5,0.1-1,0.4-1.4,0.7
	c-0.4,0.3-0.7,0.7-0.9,1.1c-0.2,0.5-0.3,1-0.3,1.6v0c0,0.6,0.1,1,0.3,1.5c0.2,0.4,0.5,0.8,0.9,1.1c0.4,0.3,0.8,0.5,1.2,0.6
	c0.5,0.1,1,0.2,1.5,0.2c0.8,0,1.5-0.2,2.1-0.5c0.6-0.3,1.1-0.7,1.4-1.1v1.4H349.5z"/>
<path fill="#FFFFFF" d="M352,55.4h2.5v-6.2c0-0.9,0.2-1.5,0.7-2c0.5-0.5,1-0.7,1.8-0.7c0.7,0,1.3,0.2,1.7,0.7c0.4,0.5,0.6,1.1,0.6,2
	v6.2h2.5v-7c0-1.3-0.3-2.3-1-3.1c-0.7-0.8-1.6-1.1-2.9-1.1c-0.4,0-0.8,0.1-1.2,0.2c-0.3,0.1-0.6,0.2-0.9,0.4
	c-0.3,0.2-0.5,0.4-0.7,0.6c-0.2,0.2-0.4,0.5-0.6,0.7v-1.7H352V55.4z"/>
<path fill="#FFFFFF" d="M372.1,55.1c0.7-0.4,1.3-0.9,1.9-1.5l-1.5-1.5c-0.4,0.4-0.8,0.7-1.3,1c-0.5,0.3-1,0.4-1.6,0.4
	c-0.5,0-0.9-0.1-1.3-0.3c-0.4-0.2-0.7-0.4-1-0.8c-0.3-0.3-0.5-0.7-0.7-1.1c-0.2-0.4-0.2-0.9-0.2-1.4v0c0-0.5,0.1-0.9,0.2-1.4
	c0.2-0.4,0.4-0.8,0.7-1.1c0.3-0.3,0.6-0.6,1-0.7c0.4-0.2,0.8-0.3,1.3-0.3c0.6,0,1.2,0.1,1.6,0.4c0.4,0.3,0.8,0.6,1.2,1l1.6-1.7
	c-0.5-0.6-1.1-1-1.8-1.4c-0.7-0.3-1.5-0.5-2.6-0.5c-0.8,0-1.6,0.2-2.3,0.5c-0.7,0.3-1.3,0.7-1.8,1.2c-0.5,0.5-0.9,1.1-1.2,1.8
	c-0.3,0.7-0.4,1.4-0.4,2.2v0c0,0.8,0.1,1.5,0.4,2.2c0.3,0.7,0.7,1.3,1.2,1.8c0.5,0.5,1.1,0.9,1.8,1.2c0.7,0.3,1.4,0.4,2.3,0.4
	C370.5,55.7,371.4,55.5,372.1,55.1z"/>
<path fill="#FFFFFF" d="M377.6,49.1c0.1-0.9,0.4-1.6,0.9-2.1c0.5-0.5,1.1-0.8,1.9-0.8c0.4,0,0.8,0.1,1.1,0.2
	c0.3,0.2,0.6,0.4,0.8,0.6c0.2,0.3,0.4,0.6,0.6,0.9c0.1,0.4,0.2,0.7,0.3,1.1H377.6z M383.4,55.1c0.7-0.4,1.4-0.9,1.9-1.5l-1.5-1.3
	c-0.4,0.4-0.9,0.8-1.4,1c-0.5,0.2-1,0.3-1.6,0.3c-0.8,0-1.5-0.2-2.1-0.7c-0.6-0.5-0.9-1.2-1.1-2.1h8.1c0-0.1,0-0.2,0-0.4
	c0-0.1,0-0.2,0-0.3c0-0.8-0.1-1.5-0.3-2.3c-0.2-0.7-0.6-1.3-1-1.9c-0.4-0.5-1-1-1.6-1.3c-0.7-0.3-1.4-0.5-2.3-0.5
	c-0.8,0-1.5,0.1-2.2,0.4c-0.7,0.3-1.2,0.7-1.7,1.2c-0.5,0.5-0.8,1.1-1.1,1.8c-0.3,0.7-0.4,1.4-0.4,2.2v0c0,0.8,0.1,1.6,0.4,2.3
	c0.3,0.7,0.7,1.3,1.2,1.8c0.5,0.5,1.1,0.9,1.8,1.2c0.7,0.3,1.4,0.4,2.2,0.4C381.8,55.7,382.6,55.5,383.4,55.1z"/>
<path fill="#FFFFFF" d="M387.6,55.4h2.8v-2.8h-2.8V55.4z"/>
</svg>
