<?xml version="1.0" encoding="utf-8"?>
<!-- Generator: Adobe Illustrator 18.1.1, SVG Export Plug-In . SVG Version: 6.00 Build 0)  -->
<svg version="1.1" id="Layer_1" xmlns="http://www.w3.org/2000/svg" xmlns:xlink="http://www.w3.org/1999/xlink" x="0px" y="0px"
	 width="522px" height="76.5px" viewBox="-218 244.2 522 76.5" enable-background="new -218 244.2 522 76.5" xml:space="preserve">
<path fill="#FFFFFF" d="M248.6,307.1v10.8c0,0,1.1,0,2.8,0c2.7,0,3.9-1.4,3.9-3.1c0-1.7-1.5-2.4-2.1-2.5v-0.1
	c0.3-0.1,1.8-0.8,1.8-2.4c0-1.2-0.8-2.8-3.5-2.8C250.6,307.1,248.6,307.1,248.6,307.1z M249.8,311.8v-3.7c0.1,0,0.8,0,1.4,0
	c1.8,0,2.5,0.7,2.5,1.9c0,1.3-0.9,1.9-2.5,1.9C250.9,311.8,249.8,311.8,249.8,311.8z M249.8,316.9v-4.1c0,0,0.9,0,1.4,0
	c2,0,2.8,0.9,2.8,2.1c0,1.3-0.9,2.1-2.8,2.1C250.8,316.9,250.1,316.9,249.8,316.9z"/>
<path fill="#FFFFFF" d="M262.1,306.9c-3,0-4.9,2.1-4.9,5.6s2,5.6,4.9,5.6c3.2,0,4.9-2.3,4.9-5.6
	C267.1,309.2,265.3,306.9,262.1,306.9z M258.5,312.5c0-2.9,1.5-4.5,3.6-4.5s3.6,1.6,3.6,4.5c0,2.8-1.4,4.5-3.6,4.5
	S258.5,315.3,258.5,312.5z"/>
<path fill="#FFFFFF" d="M269.9,317.9h1.2v-9h0.1l5.5,9h1.7v-10.8h-1.2v8.8h-0.1l-5.6-8.8h-1.6V317.9z"/>
<path fill="#FFFFFF" d="M290.1,313.6v-6.5h-1.2v6.5c0,2-0.7,3.3-2.9,3.3c-2,0-2.9-1.2-2.9-3.3v-6.5h-1.2v6.5c0,2.4,1.1,4.4,4.1,4.4
	S290.1,316.1,290.1,313.6z"/>
<path fill="#FFFFFF" d="M298.7,307.2c-0.2,0-1.1-0.2-2-0.2c-2.6,0-3.8,1.2-3.8,2.9c0,1.5,1,2.3,2.1,2.8l1,0.4c0.9,0.4,1.9,0.9,1.9,2
	c0,1.2-1,2-2.7,2c-1,0-1.9-0.3-2.1-0.4l-0.1,1.2c0.4,0.1,1.4,0.3,2.3,0.3c2.5,0,3.8-1.4,3.8-3.1c0-1.7-1.3-2.5-2.5-3l-1.1-0.4
	c-0.8-0.3-1.4-0.8-1.4-1.7c0-1.2,1-1.8,2.5-1.8c0.9,0,1.7,0.2,1.9,0.3L298.7,307.2z"/>
<path fill="#FFFFFF" d="M103.2,317.9h1.3l1.1-9.2l0,0l3,9.2h1.4l3.1-9.2l0,0l1.3,9.2h1.3l-1.6-10.8h-1.6l-3.1,9.1l-3.1-9.1h-1.6
	L103.2,317.9z"/>
<path fill="#FFFFFF" d="M118.4,317.9h1.2v-10.8h-1.2V317.9z"/>
<path fill="#FFFFFF" d="M124.4,307.1h-1.2v10.8h5.2v-1h-4V307.1z"/>
<path fill="#FFFFFF" d="M130.1,307.1v10.8h5.5v-1h-4.2v-4.1h4v-1h-4v-3.7h4.2v-1C135.6,307.1,130.1,307.1,130.1,307.1z"/>
<path fill="#FFFFFF" d="M143.3,307.2c-0.2,0-1.1-0.2-2-0.2c-2.6,0-3.8,1.2-3.8,2.9c0,1.5,1,2.3,2.1,2.8l1,0.4c0.9,0.4,1.9,0.9,1.9,2
	c0,1.2-1,2-2.7,2c-1,0-1.9-0.3-2.1-0.4l-0.1,1.2c0.4,0.1,1.4,0.3,2.3,0.3c2.5,0,3.8-1.4,3.8-3.1c0-1.7-1.3-2.5-2.5-3l-1.1-0.4
	c-0.8-0.3-1.4-0.8-1.4-1.7c0-1.2,1-1.8,2.5-1.8c0.9,0,1.7,0.2,1.9,0.3L143.3,307.2z"/>
<path fill="#FFFFFF" d="M-54.7,281.8c1.2-1,1.2-1,2.3-0.3c0.8,0.5,3.7,1.8,5,2.7c3.7-4.1,9.2-10,14.7-15.9L-50,253.9l2.6-2.5
	c2.6-2.5,2.7-2.5,6.1-0.8c0.9,0.4,16.5,8.3,17.1,8.6c1.1-1.2,2.1-2.1,2.9-2.9c6.7-6.3,11.5-5.9,12.1-5.2c0.6,0.7,0.7,5.6-5.9,11.9
	c-0.8,0.7-1.8,1.6-3,2.7c0.3,0.7,6.9,17,7.3,18c1.4,3.7,1.4,3.8-1.2,6.2l-2.7,2.4l-12.8-18.5c-6.1,5.1-12.3,10.3-16.6,13.8
	c0.8,1.3,1.8,4.4,2.3,5.2c0.6,1.1,0.6,1.1-0.5,2.3l-1.1,1.2l-4.2-5.8c-0.9,0.7-1.4,1.1-1.4,1.1l-1.6-0.8l-0.4-0.4l-0.7-1.7
	c0,0,0.4-0.5,1.2-1.3l-5.4-4.7L-54.7,281.8z"/>
<path fill="#FFFFFF" d="M-49.7,307.1h-7.7v1h3.2v9.8h1.2v-9.8h3.3V307.1z"/>
<path fill="#FFFFFF" d="M-46.7,312.4V308c0.1,0,1,0,1.5,0c1.9,0,2.8,0.8,2.8,2.2s-0.9,2.3-2.8,2.3
	C-45.7,312.5-46.6,312.5-46.7,312.4z M-42.1,317.9h1.3l-2.6-4.7c0.3-0.1,2.2-0.6,2.2-2.9c0-1.9-1.4-3.2-3.8-3.2c-1.6,0-2.9,0-2.9,0
	v10.8h1.2v-4.5h2.1L-42.1,317.9z"/>
<path fill="#FFFFFF" d="M-35.9,307.1l-4.1,10.8h1.3l1-2.6h4.8l0.9,2.6h1.4l-4-10.8C-34.6,307.1-35.9,307.1-35.9,307.1z M-35.4,308.5
	L-35.4,308.5l2.1,5.7h-4.1L-35.4,308.5z"/>
<path fill="#FFFFFF" d="M-30.3,307.1l3.9,10.8h1.4l4-10.8h-1.3l-3.4,9.1l0,0l-3.2-9.1C-28.9,307.1-30.3,307.1-30.3,307.1z"/>
<path fill="#FFFFFF" d="M-19,307.1v10.8h5.5v-1h-4.2v-4.1h4v-1h-4v-3.7h4.2v-1C-13.5,307.1-19,307.1-19,307.1z"/>
<path fill="#FFFFFF" d="M-9.7,307.1h-1.2v10.8h5.2v-1h-4V307.1z"/>
<path fill="#FFFFFF" d="M103.4,277.2c4.3-5.3,5.9-8.3,5.9-11.1c0-2.8-1.7-5-5.6-5c-3,0-5.4,1.6-6,2l-1.6-5.5
	c0.5-0.4,3.6-2.2,8.7-2.2c7.3,0,10.9,4.7,10.9,10c0,4.9-2.1,8.5-5.5,12.8c-1.5,1.9-5,6.4-5,6.4h11.5v5.7H96.5v-5.4
	C96.6,285.1,102.3,278.5,103.4,277.2"/>
<path fill="#FFFFFF" d="M118,255.4h8.5l7,11.5l6.8-11.5h7.2L137.1,272l11.9,18.4h-8.8l-7.5-12.7l-7.1,12.7h-7.7l11.2-17.7L118,255.4
	z"/>
<path fill="#FFFFFF" d="M-163.1,252.3c0-0.4-0.4-0.8-0.8-0.8h-5.9c-0.4,0-0.5,0.3-0.2,0.6l1.6,1.6c0.3,0.3,0.3,0.8,0,1.1l-29,29
	c-0.3,0.3-0.3,0.8,0,1.1l0.9,0.9c0.3,0.3,0.8,0.3,1.1,0l29-29c0.3-0.3,0.8-0.3,1.1,0l1.6,1.6c0.3,0.3,0.6,0.2,0.6-0.2
	C-163.1,258.2-163.1,252.3-163.1,252.3z"/>
<path fill="#FFFFFF" d="M-181.8,277.3c-0.2,0.2-0.4,0.7-0.4,1v10.1c0,0.3,0.3,0.6,0.6,0.6h5.2c0.3,0,0.6-0.3,0.6-0.6v-16.6
	c0-0.3-0.2-0.4-0.4-0.2L-181.8,277.3z"/>
<path fill="#FFFFFF" d="M-170.5,265.9c-0.3,0.3-0.5,0.8-0.5,1.1v21.4c0,0.3,0.3,0.6,0.6,0.6h5.2c0.3,0,0.6-0.3,0.6-0.6v-27.6
	c0-0.3-0.2-0.4-0.4-0.2L-170.5,265.9z"/>
<path fill="#FFFFFF" d="M-187.5,283c0.3-0.3,0.5-0.2,0.5,0.2v5.1c0,0.4-0.3,0.7-0.7,0.7h-5.1c-0.4,0-0.5-0.2-0.2-0.5L-187.5,283z"/>
<path fill="#FFFFFF" d="M-164.2,294.4h-40.5c-0.7,0-1.3-0.6-1.3-1.3v-40.4c0-0.7,0.6-1.3,1.3-1.3s1.3,0.6,1.3,1.3v39.2h39.2
	c0.7,0,1.3,0.6,1.3,1.3C-163,293.8-163.5,294.4-164.2,294.4"/>
<path fill="#FFFFFF" d="M-218,307.1v10.8c0,0,1.1,0,2.8,0c2.7,0,3.9-1.4,3.9-3.1c0-1.7-1.5-2.4-2.1-2.5v-0.1
	c0.3-0.1,1.8-0.8,1.8-2.4c0-1.2-0.8-2.8-3.5-2.8C-216,307.1-218,307.1-218,307.1z M-216.8,311.8v-3.7c0.1,0,0.8,0,1.4,0
	c1.8,0,2.5,0.7,2.5,1.9c0,1.3-0.9,1.9-2.5,1.9C-215.7,311.8-216.8,311.8-216.8,311.8z M-216.8,316.9v-4.1c0,0,0.9,0,1.4,0
	c2,0,2.8,0.9,2.8,2.1c0,1.3-0.9,2.1-2.8,2.1C-215.8,316.9-216.5,316.9-216.8,316.9z"/>
<path fill="#FFFFFF" d="M-200.5,313.6v-6.5h-1.2v6.5c0,2-0.7,3.3-2.9,3.3c-2,0-2.9-1.2-2.9-3.3v-6.5h-1.3v6.5c0,2.4,1.1,4.4,4.1,4.4
	S-200.5,316.1-200.5,313.6z"/>
<path fill="#FFFFFF" d="M-192,307.2c-0.2,0-1.1-0.2-2-0.2c-2.6,0-3.8,1.2-3.8,2.9c0,1.5,1,2.3,2.1,2.8l1,0.4c0.9,0.4,1.9,0.9,1.9,2
	c0,1.2-1,2-2.7,2c-1,0-1.9-0.3-2.1-0.4l-0.1,1.2c0.4,0.1,1.4,0.3,2.3,0.3c2.5,0,3.8-1.4,3.8-3.1c0-1.7-1.3-2.5-2.5-3l-1.1-0.4
	c-0.8-0.3-1.4-0.8-1.4-1.7c0-1.2,1-1.8,2.5-1.8c0.9,0,1.7,0.2,1.9,0.3L-192,307.2z"/>
<path fill="#FFFFFF" d="M-188.8,317.9h1.2v-10.8h-1.2V317.9z"/>
<path fill="#FFFFFF" d="M-184.1,317.9h1.2v-9h0.1l5.5,9h1.7v-10.8h-1.2v8.8h-0.1l-5.6-8.8h-1.6
	C-184.1,307.1-184.1,317.9-184.1,317.9z"/>
<path fill="#FFFFFF" d="M-172.1,307.1v10.8h5.5v-1h-4.2v-4.1h4v-1h-4v-3.7h4.2v-1C-166.6,307.1-172.1,307.1-172.1,307.1z"/>
<path fill="#FFFFFF" d="M-158.9,307.2c-0.2,0-1.1-0.2-2-0.2c-2.6,0-3.8,1.2-3.8,2.9c0,1.5,1,2.3,2.1,2.8l1,0.4
	c0.9,0.4,1.9,0.9,1.9,2c0,1.2-1,2-2.7,2c-1,0-1.9-0.3-2.1-0.4l-0.1,1.2c0.4,0.1,1.4,0.3,2.3,0.3c2.5,0,3.8-1.4,3.8-3.1
	c0-1.7-1.3-2.5-2.5-3l-1.1-0.4c-0.8-0.3-1.4-0.8-1.4-1.7c0-1.2,1-1.8,2.5-1.8c0.9,0,1.7,0.2,1.9,0.3L-158.9,307.2z"/>
<path fill="#FFFFFF" d="M-150.7,307.2c-0.2,0-1.1-0.2-2-0.2c-2.6,0-3.8,1.2-3.8,2.9c0,1.5,1,2.3,2.1,2.8l1,0.4
	c0.9,0.4,1.9,0.9,1.9,2c0,1.2-1,2-2.7,2c-1,0-1.9-0.3-2.1-0.4l-0.1,1.2c0.4,0.1,1.4,0.3,2.3,0.3c2.5,0,3.8-1.4,3.8-3.1
	c0-1.7-1.3-2.5-2.5-3l-1.1-0.4c-0.8-0.3-1.4-0.8-1.4-1.7c0-1.2,1-1.8,2.5-1.8c0.9,0,1.7,0.2,1.9,0.3L-150.7,307.2z"/>
<path fill="#FFFFFF" d="M303.1,267.8l-16.8-17.3c-0.6-0.6-1.4-1-2.1-1c-0.5,0-0.9,0.2-1.3,0.5l-5.7,5.9l-5.4-5.5
	c-1.1-1.1-2.6-1.3-3.4-0.5l-24.9,25.7c-0.8,0.8-0.6,2.4,0.5,3.5l16.8,17.3c1.1,1.1,2.6,1.3,3.4,0.5l5.7-5.9l5.4,5.5
	c0.6,0.6,1.4,1,2.1,1c0.5,0,0.9-0.2,1.3-0.5l24.8-25.8C304.3,270.4,304.1,268.9,303.1,267.8 M260.4,274.2c0.4-0.4,0.4-0.4,0.8-0.1
	c0.3,0.2,1.4,0.7,1.8,1c1.4-1.5,3.3-3.7,5.3-5.8l-6.2-5.2l0.9-0.9c0.9-0.9,1-0.9,2.2-0.3c0.3,0.2,6,3,6.2,3.2c0.4-0.4,0.8-0.8,1-1
	c2.4-2.3,4.2-2.1,4.4-1.9c0.2,0.2,0.3,2-2.1,4.4c-0.3,0.3-0.6,0.6-1.1,1c0.1,0.3,2.5,6.2,2.6,6.6c0.5,1.3,0.5,1.4-0.4,2.3l-1,0.9
	l-4.6-6.8c-2.2,1.9-4.5,3.8-6,5.1c0.3,0.5,0.7,1.6,0.8,1.9c0.2,0.4,0.2,0.4-0.2,0.8l-0.4,0.4l-1.5-2.1c-0.3,0.3-0.5,0.4-0.5,0.4
	l-0.6-0.3l-0.2-0.2l-0.2-0.6c0,0,0.2-0.2,0.4-0.5l-2-1.7L260.4,274.2z M251.2,273.8c0.3-0.4,0.9-0.4,1.2,0l6.8,7
	c0.3,0.4,0.3,0.9,0,1.3s-0.9,0.4-1.2,0l-6.8-7C250.9,274.8,250.9,274.2,251.2,273.8 M263,292.2c-0.3,0.4-0.9,0.4-1.2,0l-13.6-14
	c-0.3-0.4-0.3-0.9,0-1.3s0.9-0.4,1.2,0l13.6,14C263.3,291.2,263.3,291.8,263,292.2 M266,289.1c-0.3,0.4-0.9,0.4-1.2,0l-4-4.1
	c-0.3-0.4-0.3-0.9,0-1.3c0.3-0.4,0.9-0.4,1.2,0l4,4.1C266.3,288.1,266.3,288.7,266,289.1 M277.2,293.3l-4.8-4.9l16.7-17.2
	c0.8-0.8,0.6-2.4-0.5-3.5l-8.9-9.2l4.7-4.8l15.6,16L277.2,293.3z"/>
<path fill="#FFFFFF" d="M282.1,283.9c0.4,0.5,1.1,0.5,1.4,0.2l13.1-13.5c0.3-0.3,0.2-1-0.2-1.4c-0.4-0.5-1.1-0.5-1.4-0.2l-13.1,13.5
	C281.6,282.8,281.7,283.4,282.1,283.9"/>
<path fill="#FFFFFF" d="M279.6,284.9l-3.9,4c-0.3,0.3-0.2,1,0.2,1.4c0.4,0.5,1.1,0.5,1.4,0.2l3.9-4c0.3-0.3,0.2-1-0.2-1.4
	C280.5,284.6,279.9,284.6,279.6,284.9"/>
</svg>
