<?xml version="1.0" encoding="utf-8"?>
<!-- Generator: Adobe Illustrator 18.1.1, SVG Export Plug-In . SVG Version: 6.00 Build 0)  -->
<svg version="1.1" id="Layer_1" xmlns="http://www.w3.org/2000/svg" xmlns:xlink="http://www.w3.org/1999/xlink" x="0px" y="0px"
	 viewBox="0 0 619 41.8" enable-background="new 0 0 619 41.8" xml:space="preserve">
<path fill="#FFFFFF" d="M0,41.8h24.5V35H8.7V23.9h14.8v-6.8H8.7V7.4h15.6V0.6H0V41.8z"/>
<path fill="#FFFFFF" d="M42.4,21L28.8,41.8h9.4l8.7-14.9l9.2,14.9h10.7L52.2,20.2L64.9,0.6h-8.8l-8.3,13.6L39.2,0.6H28.8L42.4,21z"
	/>
<path fill="#FFFFFF" d="M79.7,20.6V7.2c0.2-0.1,0.9-0.1,2.7-0.1c5.1,0,8,2.7,8,6.8c0,4.1-2.6,6.8-8,6.8
	C81.3,20.8,80.1,20.7,79.7,20.6z M84.2,27.2c9.5,0,15.1-4.8,15.1-13.6c0-7.6-5.2-13.1-14.8-13.1c-6.1,0-13.4,0-13.4,0v41.2h8.7V26.9
	C80.2,27,82.9,27.2,84.2,27.2z"/>
<path fill="#FFFFFF" d="M96.9,41.8h8.2l3.4-9h17.2l3.4,9h8.7L122.3,0.6h-9.8L96.9,41.8z M117.1,9l6.2,17.5h-12.6L116.9,9H117.1z"/>
<path fill="#FFFFFF" d="M149.5,41.8V12h0.2l17.6,29.8h10.1V0.6h-8.1v29H169l-17-29h-10.6v41.2H149.5z"/>
<path fill="#FFFFFF" d="M185.9,41.8c0,0,10.9,0,14.8,0c14.1,0,20.6-9.1,20.6-20.6c0-13.1-8.2-20.6-20.6-20.6c-6.1,0-14.8,0-14.8,0
	V41.8z M194.6,7.7c0.5-0.1,2.1-0.4,4.3-0.4c8.3,0,13.6,4.6,13.6,13.9c0,8.7-4.7,13.9-13.6,13.9c-1.8,0-3.9-0.1-4.3-0.2V7.7z"/>
<path fill="#FFFFFF" d="M250,41.8h8.7V29.3l13.9-28.7h-8.4l-9.6,19.9l-9.2-19.9h-9.6l14,28.7V41.8z"/>
<path fill="#FFFFFF" d="M295.2,0c-12.5,0-20.7,8.1-20.7,21.2c0,13.4,8.4,21.2,20.7,21.2c13.1,0,20.7-8.7,20.7-21.2
	C315.9,8.7,308.3,0,295.2,0z M283.5,21.2c0-9.2,4.8-14.1,11.7-14.1c7,0,11.7,4.9,11.7,14.1c0,9-4.6,14.2-11.7,14.2
	S283.5,30.2,283.5,21.2z"/>
<path fill="#FFFFFF" d="M356,27.1V0.6h-8.7v25.2c0,4.9-2.1,9.6-8.4,9.6c-5.9,0-8.3-3.2-8.3-9.6V0.6H322v27.3c0,7.8,5.3,14.5,17,14.5
	C350,42.4,356,36.3,356,27.1z"/>
<path fill="#FFFFFF" d="M380.2,25.8l8.4,15.9h9.5l-9.6-17.3c1-0.4,6.8-2.8,6.8-11.2c0-7.6-4.9-12.6-15-12.6c-6,0-15.8,0-15.8,0v41.2
	h8.7V25.8H380.2z M378.1,19.5c-2.4,0-4.2-0.1-4.8-0.2v-12c0.5,0,2.7-0.2,4.8-0.2c5.4,0,7.8,2.7,7.8,6.2
	C385.9,16.9,383.5,19.5,378.1,19.5z"/>
<path fill="#FFFFFF" d="M421.6,41.8h10.6l7.7-31.6h0.2l8.6,31.6h10l10-41.2h-7.9l-6.8,30.9h-0.3l-8.1-30.9h-10.2l-7.8,31.9h-0.3
	l-7.6-31.9h-8.4L421.6,41.8z"/>
<path fill="#FFFFFF" d="M491.4,0c-12.5,0-20.7,8.1-20.7,21.2c0,13.4,8.4,21.2,20.7,21.2c13.1,0,20.7-8.7,20.7-21.2
	C512.1,8.7,504.5,0,491.4,0z M479.7,21.2c0-9.2,4.8-14.1,11.7-14.1c7,0,11.7,4.9,11.7,14.1c0,9-4.6,14.2-11.7,14.2
	S479.7,30.2,479.7,21.2z"/>
<path fill="#FFFFFF" d="M533.8,25.8l8.4,15.9h9.5l-9.6-17.3c1-0.4,6.8-2.8,6.8-11.2c0-7.6-4.9-12.6-15-12.6c-6,0-15.8,0-15.8,0v41.2
	h8.7V25.8H533.8z M531.7,19.5c-2.4,0-4.2-0.1-4.8-0.2v-12c0.5,0,2.7-0.2,4.8-0.2c5.4,0,7.8,2.7,7.8,6.2
	C539.5,16.9,537.1,19.5,531.7,19.5z"/>
<path fill="#FFFFFF" d="M564.8,0.6h-8.7v41.2h23V35h-14.2V0.6z"/>
<path fill="#FFFFFF" d="M583.6,41.8c0,0,10.9,0,14.8,0c14.1,0,20.6-9.1,20.6-20.6c0-13.1-8.2-20.6-20.6-20.6c-6.1,0-14.8,0-14.8,0
	V41.8z M592.3,7.7c0.5-0.1,2.1-0.4,4.3-0.4c8.3,0,13.6,4.6,13.6,13.9c0,8.7-4.7,13.9-13.6,13.9c-1.8,0-3.9-0.1-4.3-0.2V7.7z"/>
</svg>
