<?xml version="1.0" encoding="utf-8"?>
<!-- Generator: Adobe Illustrator 18.1.1, SVG Export Plug-In . SVG Version: 6.00 Build 0)  -->
<svg version="1.1" id="Layer_1" xmlns="http://www.w3.org/2000/svg" xmlns:xlink="http://www.w3.org/1999/xlink" x="0px" y="0px"
	 width="728px" height="90px" viewBox="0 0 728 90" enable-background="new 0 0 728 90" xml:space="preserve">
<path fill="#F0B824" d="M82,37.4h13.8v-4h-7.2l3-2.1c0.6-0.5,1.2-0.9,1.7-1.4c0.5-0.4,0.9-0.9,1.3-1.4c0.3-0.5,0.6-1,0.8-1.6
	c0.2-0.6,0.3-1.2,0.3-1.9v-0.1c0-0.8-0.2-1.6-0.5-2.3c-0.3-0.7-0.8-1.3-1.3-1.8c-0.6-0.5-1.2-0.9-2-1.2c-0.8-0.3-1.7-0.4-2.6-0.4
	c-0.8,0-1.6,0.1-2.3,0.3c-0.7,0.2-1.3,0.4-1.8,0.7c-0.6,0.3-1.1,0.7-1.6,1.2c-0.5,0.5-1,1-1.4,1.6l3.3,2.8c0.7-0.8,1.3-1.4,1.8-1.8
	c0.5-0.4,1.1-0.5,1.7-0.5c0.6,0,1,0.2,1.4,0.5c0.4,0.3,0.5,0.8,0.5,1.3c0,0.5-0.2,1.1-0.5,1.5c-0.3,0.5-0.9,1-1.7,1.7L82,33.7V37.4z
	"/>
<path fill="#F0B824" d="M101.4,30.2l4.2-5.1v5.1H101.4z M105.6,37.4h4.7v-3.5h2.2v-3.7h-2.2V19.4h-4.9l-9,11l0.8,3.5h8.4V37.4z"/>
<path fill="#F0B824" d="M111.6,40.7h3.8l11-23.7h-3.8L111.6,40.7z"/>
<path fill="#F0B824" d="M126.8,37.4h5.3l7.7-14.2v-3.7h-13.4v4.1h8.1L126.8,37.4z"/>
<path fill="#F0B824" d="M158.7,37.5c0.8-0.2,1.5-0.5,2.1-0.8c0.6-0.4,1.2-0.8,1.7-1.3c0.5-0.5,0.9-1,1.4-1.6l-3.6-2.7
	c-0.3,0.3-0.5,0.6-0.8,0.9c-0.3,0.3-0.6,0.5-0.9,0.7c-0.3,0.2-0.6,0.3-1,0.4c-0.4,0.1-0.8,0.2-1.2,0.2c-0.6,0-1.2-0.1-1.7-0.4
	c-0.5-0.2-0.9-0.6-1.3-1c-0.4-0.4-0.7-0.9-0.9-1.5c-0.2-0.6-0.3-1.2-0.3-1.9v-0.1c0-0.6,0.1-1.3,0.3-1.8c0.2-0.6,0.5-1.1,0.9-1.5
	c0.4-0.4,0.8-0.8,1.3-1c0.5-0.2,1.1-0.4,1.7-0.4c0.8,0,1.6,0.2,2.2,0.6c0.6,0.4,1.1,0.9,1.6,1.5l3.6-2.9c-0.4-0.5-0.8-1-1.3-1.5
	c-0.5-0.5-1-0.9-1.6-1.2c-0.6-0.3-1.3-0.6-2-0.8c-0.7-0.2-1.5-0.3-2.4-0.3c-1.3,0-2.6,0.2-3.7,0.7c-1.1,0.5-2.1,1.1-2.9,2
	c-0.8,0.8-1.5,1.8-1.9,3c-0.5,1.1-0.7,2.3-0.7,3.6v0.1c0,1.3,0.2,2.6,0.7,3.7c0.5,1.1,1.1,2.1,1.9,2.9c0.8,0.8,1.8,1.5,2.8,1.9
	c1.1,0.5,2.3,0.7,3.5,0.7C157.1,37.8,157.9,37.7,158.7,37.5z"/>
<path fill="#F0B824" d="M165.1,37.4h4.8V18.7h-4.8V37.4z"/>
<path fill="#F0B824" d="M176.2,34.3c-0.3-0.3-0.5-0.6-0.5-1.1v-0.1c0-0.5,0.2-0.9,0.6-1.2c0.4-0.3,0.9-0.5,1.6-0.5
	c0.3,0,0.7,0,1,0.1c0.3,0.1,0.6,0.2,0.8,0.3v0.6c0,0.7-0.2,1.3-0.6,1.7c-0.4,0.4-1,0.6-1.7,0.6C176.9,34.7,176.5,34.5,176.2,34.3z
	 M178,37.2c0.6-0.3,1.2-0.7,1.7-1.3v1.4h4.7v-8c0-1-0.1-1.8-0.3-2.5c-0.2-0.7-0.6-1.3-1.1-1.9c-0.5-0.5-1.2-1-2.1-1.3
	c-0.8-0.3-1.9-0.4-3.1-0.4c-1.2,0-2.2,0.1-3,0.3c-0.9,0.2-1.7,0.5-2.4,0.8l1,3.4c0.6-0.2,1.2-0.4,1.8-0.6c0.6-0.1,1.2-0.2,1.9-0.2
	c0.9,0,1.6,0.2,2,0.6c0.4,0.4,0.7,0.9,0.7,1.7v0.2c-0.4-0.1-0.9-0.3-1.4-0.4c-0.6-0.1-1.2-0.2-1.8-0.2c-0.8,0-1.5,0.1-2.2,0.3
	c-0.6,0.2-1.2,0.5-1.7,0.8c-0.5,0.4-0.8,0.8-1.1,1.4c-0.3,0.5-0.4,1.2-0.4,1.9v0.1c0,0.7,0.1,1.3,0.3,1.8c0.2,0.5,0.6,1,1,1.3
	c0.4,0.4,0.9,0.6,1.4,0.8s1.1,0.3,1.8,0.3C176.6,37.7,177.3,37.6,178,37.2z"/>
<path fill="#F0B824" d="M186.2,37.4h4.8V23.6h-4.8V37.4z M186.1,22.3h5v-3.6h-5V22.3z"/>
<path fill="#F0B824" d="M192.9,37.4h4.8v-7.5c0-0.8,0.2-1.3,0.5-1.7c0.4-0.4,0.8-0.6,1.4-0.6c0.6,0,1,0.2,1.3,0.6
	c0.3,0.4,0.5,1,0.5,1.7v7.5h4.8v-7.5c0-0.8,0.2-1.3,0.5-1.7c0.4-0.4,0.8-0.6,1.4-0.6c0.6,0,1,0.2,1.3,0.6c0.3,0.4,0.5,1,0.5,1.7v7.5
	h4.8v-9.1c0-1.6-0.4-2.9-1.2-3.7c-0.8-0.9-1.9-1.3-3.4-1.3c-1,0-1.8,0.2-2.6,0.6c-0.7,0.4-1.4,1-1.9,1.6c-0.4-0.7-0.9-1.3-1.5-1.7
	c-0.7-0.4-1.4-0.6-2.3-0.6c-0.9,0-1.7,0.2-2.4,0.7c-0.6,0.4-1.2,1-1.6,1.5v-1.9h-4.8V37.4z"/>
<path fill="#F0B824" d="M224.1,37.4c0.7-0.2,1.3-0.5,1.7-0.9c0.5-0.4,0.9-0.9,1.1-1.4c0.3-0.6,0.4-1.2,0.4-2V33
	c0-0.7-0.1-1.2-0.4-1.7c-0.2-0.5-0.6-0.9-1-1.2c-0.4-0.3-0.9-0.6-1.5-0.8c-0.6-0.2-1.2-0.4-1.9-0.6c-0.7-0.2-1.3-0.4-1.6-0.6
	c-0.4-0.2-0.6-0.4-0.6-0.7v-0.1c0-0.2,0.1-0.3,0.3-0.5c0.2-0.1,0.5-0.2,0.8-0.2c0.5,0,1.2,0.1,1.9,0.3c0.7,0.2,1.4,0.5,2.1,0.9
	l1.6-3.1c-0.8-0.5-1.7-0.9-2.6-1.2c-1-0.3-1.9-0.4-2.9-0.4c-0.8,0-1.5,0.1-2.2,0.3c-0.7,0.2-1.2,0.5-1.7,0.9
	c-0.5,0.4-0.9,0.9-1.1,1.4c-0.3,0.6-0.4,1.2-0.4,2v0.1c0,0.7,0.1,1.3,0.4,1.8c0.2,0.5,0.6,0.9,1,1.2c0.4,0.3,0.9,0.6,1.5,0.8
	c0.6,0.2,1.2,0.4,1.9,0.6c0.7,0.2,1.3,0.4,1.6,0.5c0.4,0.2,0.5,0.4,0.5,0.6v0.1c0,0.5-0.4,0.7-1.2,0.7c-0.7,0-1.4-0.1-2.3-0.4
	c-0.8-0.3-1.6-0.7-2.4-1.2l-1.8,2.9c0.9,0.7,2,1.2,3,1.5c1.1,0.3,2.2,0.5,3.3,0.5C222.6,37.7,223.4,37.6,224.1,37.4z"/>
<path fill="#F0B824" d="M241.5,30.4l2-5.1l1.9,5.1H241.5z M233.8,37.4h5.1l1.2-3.2h6.7l1.3,3.2h5.2l-7.4-18h-4.7L233.8,37.4z"/>
<path fill="#F0B824" d="M261.7,37.4c0.7-0.2,1.3-0.5,1.7-0.9c0.5-0.4,0.9-0.9,1.1-1.4c0.3-0.6,0.4-1.2,0.4-2V33
	c0-0.7-0.1-1.2-0.4-1.7c-0.2-0.5-0.6-0.9-1-1.2c-0.4-0.3-0.9-0.6-1.5-0.8c-0.6-0.2-1.2-0.4-1.9-0.6c-0.7-0.2-1.3-0.4-1.6-0.6
	c-0.4-0.2-0.6-0.4-0.6-0.7v-0.1c0-0.2,0.1-0.3,0.3-0.5c0.2-0.1,0.5-0.2,0.8-0.2c0.5,0,1.2,0.1,1.9,0.3c0.7,0.2,1.4,0.5,2.1,0.9
	l1.6-3.1c-0.8-0.5-1.7-0.9-2.6-1.2c-1-0.3-1.9-0.4-2.9-0.4c-0.8,0-1.5,0.1-2.2,0.3c-0.7,0.2-1.2,0.5-1.7,0.9
	c-0.5,0.4-0.9,0.9-1.1,1.4c-0.3,0.6-0.4,1.2-0.4,2v0.1c0,0.7,0.1,1.3,0.4,1.8c0.2,0.5,0.6,0.9,1,1.2c0.4,0.3,0.9,0.6,1.5,0.8
	c0.6,0.2,1.2,0.4,1.9,0.6c0.7,0.2,1.3,0.4,1.6,0.5c0.4,0.2,0.5,0.4,0.5,0.6v0.1c0,0.5-0.4,0.7-1.2,0.7c-0.7,0-1.4-0.1-2.3-0.4
	c-0.8-0.3-1.6-0.7-2.4-1.2l-1.8,2.9c0.9,0.7,2,1.2,3,1.5c1.1,0.3,2.2,0.5,3.3,0.5C260.2,37.7,261,37.6,261.7,37.4z"/>
<path fill="#F0B824" d="M273.8,37.4c0.7-0.2,1.3-0.5,1.7-0.9c0.5-0.4,0.9-0.9,1.1-1.4c0.3-0.6,0.4-1.2,0.4-2V33
	c0-0.7-0.1-1.2-0.4-1.7c-0.2-0.5-0.6-0.9-1-1.2c-0.4-0.3-0.9-0.6-1.5-0.8c-0.6-0.2-1.2-0.4-1.9-0.6c-0.7-0.2-1.3-0.4-1.6-0.6
	c-0.4-0.2-0.6-0.4-0.6-0.7v-0.1c0-0.2,0.1-0.3,0.3-0.5c0.2-0.1,0.5-0.2,0.8-0.2c0.5,0,1.2,0.1,1.9,0.3c0.7,0.2,1.4,0.5,2.1,0.9
	l1.6-3.1c-0.8-0.5-1.7-0.9-2.6-1.2c-1-0.3-1.9-0.4-2.9-0.4c-0.8,0-1.5,0.1-2.2,0.3c-0.7,0.2-1.2,0.5-1.7,0.9
	c-0.5,0.4-0.9,0.9-1.1,1.4c-0.3,0.6-0.4,1.2-0.4,2v0.1c0,0.7,0.1,1.3,0.4,1.8c0.2,0.5,0.6,0.9,1,1.2c0.4,0.3,0.9,0.6,1.5,0.8
	c0.6,0.2,1.2,0.4,1.9,0.6c0.7,0.2,1.3,0.4,1.6,0.5c0.4,0.2,0.5,0.4,0.5,0.6v0.1c0,0.5-0.4,0.7-1.2,0.7c-0.7,0-1.4-0.1-2.3-0.4
	c-0.8-0.3-1.6-0.7-2.4-1.2l-1.8,2.9c0.9,0.7,2,1.2,3,1.5c1.1,0.3,2.2,0.5,3.3,0.5C272.4,37.7,273.1,37.6,273.8,37.4z"/>
<path fill="#F0B824" d="M278.5,37.4h4.8V23.6h-4.8V37.4z M278.4,22.3h5v-3.6h-5V22.3z"/>
<path fill="#F0B824" d="M292.8,37.4c0.7-0.2,1.3-0.5,1.7-0.9c0.5-0.4,0.9-0.9,1.1-1.4c0.3-0.6,0.4-1.2,0.4-2V33
	c0-0.7-0.1-1.2-0.4-1.7c-0.2-0.5-0.6-0.9-1-1.2c-0.4-0.3-0.9-0.6-1.5-0.8c-0.6-0.2-1.2-0.4-1.9-0.6c-0.7-0.2-1.3-0.4-1.6-0.6
	c-0.4-0.2-0.6-0.4-0.6-0.7v-0.1c0-0.2,0.1-0.3,0.3-0.5c0.2-0.1,0.5-0.2,0.8-0.2c0.5,0,1.2,0.1,1.9,0.3c0.7,0.2,1.4,0.5,2.1,0.9
	l1.6-3.1c-0.8-0.5-1.7-0.9-2.6-1.2c-1-0.3-1.9-0.4-2.9-0.4c-0.8,0-1.5,0.1-2.2,0.3c-0.7,0.2-1.2,0.5-1.7,0.9
	c-0.5,0.4-0.9,0.9-1.1,1.4c-0.3,0.6-0.4,1.2-0.4,2v0.1c0,0.7,0.1,1.3,0.4,1.8c0.2,0.5,0.6,0.9,1,1.2c0.4,0.3,0.9,0.6,1.5,0.8
	c0.6,0.2,1.2,0.4,1.9,0.6c0.7,0.2,1.3,0.4,1.6,0.5c0.4,0.2,0.5,0.4,0.5,0.6v0.1c0,0.5-0.4,0.7-1.2,0.7c-0.7,0-1.4-0.1-2.3-0.4
	c-0.8-0.3-1.6-0.7-2.4-1.2l-1.8,2.9c0.9,0.7,2,1.2,3,1.5c1.1,0.3,2.2,0.5,3.3,0.5C291.4,37.7,292.1,37.6,292.8,37.4z"/>
<path fill="#F0B824" d="M304.6,37.5c0.5-0.1,1-0.3,1.5-0.6v-3.8c-0.3,0.1-0.6,0.2-0.9,0.3c-0.3,0.1-0.6,0.1-0.9,0.1
	c-0.4,0-0.8-0.1-1-0.3c-0.2-0.2-0.3-0.6-0.3-1.1v-4.7h3.1v-3.9H303v-3.5h-4.8v3.5h-1.6v3.9h1.6v5.6c0,1.7,0.4,2.8,1.2,3.5
	c0.8,0.7,1.9,1,3.4,1C303.4,37.7,304,37.6,304.6,37.5z"/>
<path fill="#F0B824" d="M311.9,34.3c-0.3-0.3-0.5-0.6-0.5-1.1v-0.1c0-0.5,0.2-0.9,0.6-1.2c0.4-0.3,0.9-0.5,1.6-0.5
	c0.3,0,0.7,0,1,0.1c0.3,0.1,0.6,0.2,0.8,0.3v0.6c0,0.7-0.2,1.3-0.6,1.7c-0.4,0.4-1,0.6-1.7,0.6C312.6,34.7,312.2,34.5,311.9,34.3z
	 M313.7,37.2c0.6-0.3,1.2-0.7,1.7-1.3v1.4h4.7v-8c0-1-0.1-1.8-0.3-2.5c-0.2-0.7-0.6-1.3-1.1-1.9c-0.5-0.5-1.2-1-2.1-1.3
	c-0.8-0.3-1.9-0.4-3.1-0.4c-1.2,0-2.2,0.1-3,0.3c-0.9,0.2-1.7,0.5-2.4,0.8l1,3.4c0.6-0.2,1.2-0.4,1.8-0.6c0.6-0.1,1.2-0.2,1.9-0.2
	c0.9,0,1.6,0.2,2,0.6c0.4,0.4,0.7,0.9,0.7,1.7v0.2c-0.4-0.1-0.9-0.3-1.4-0.4c-0.6-0.1-1.2-0.2-1.8-0.2c-0.8,0-1.5,0.1-2.2,0.3
	c-0.6,0.2-1.2,0.5-1.7,0.8c-0.5,0.4-0.8,0.8-1.1,1.4c-0.3,0.5-0.4,1.2-0.4,1.9v0.1c0,0.7,0.1,1.3,0.3,1.8c0.2,0.5,0.6,1,1,1.3
	c0.4,0.4,0.9,0.6,1.4,0.8s1.1,0.3,1.8,0.3C312.3,37.7,313,37.6,313.7,37.2z"/>
<path fill="#F0B824" d="M321.8,37.4h4.8v-7.5c0-0.8,0.2-1.3,0.6-1.7c0.4-0.4,0.8-0.6,1.4-0.6c0.6,0,1,0.2,1.4,0.6
	c0.3,0.4,0.5,1,0.5,1.7v7.5h4.8v-9.1c0-1.6-0.4-2.8-1.2-3.7c-0.8-0.9-1.9-1.4-3.4-1.4c-0.5,0-0.9,0.1-1.3,0.2
	c-0.4,0.1-0.8,0.3-1.1,0.5c-0.3,0.2-0.6,0.4-0.9,0.7c-0.3,0.3-0.5,0.6-0.7,0.8v-1.9h-4.8V37.4z"/>
<path fill="#F0B824" d="M347.1,36.9c0.9-0.6,1.7-1.3,2.4-2.3l-3.2-2.4c-0.4,0.4-0.8,0.8-1.2,1c-0.4,0.3-0.9,0.4-1.4,0.4
	c-0.4,0-0.8-0.1-1.1-0.2c-0.3-0.2-0.6-0.4-0.8-0.7c-0.2-0.3-0.4-0.6-0.5-1c-0.1-0.4-0.2-0.8-0.2-1.2v-0.1c0-0.4,0.1-0.8,0.2-1.2
	c0.1-0.4,0.3-0.7,0.5-1c0.2-0.3,0.5-0.5,0.8-0.7c0.3-0.2,0.7-0.2,1.1-0.2c0.6,0,1.1,0.1,1.4,0.4c0.4,0.3,0.7,0.6,1.1,1.1l3.2-2.5
	c-0.6-0.9-1.3-1.7-2.3-2.3c-0.9-0.6-2.1-0.8-3.5-0.8c-1.1,0-2,0.2-2.9,0.6c-0.9,0.4-1.6,0.9-2.3,1.6c-0.6,0.7-1.1,1.4-1.5,2.3
	c-0.4,0.9-0.5,1.8-0.5,2.8v0.1c0,1,0.2,1.9,0.5,2.8c0.4,0.9,0.8,1.6,1.5,2.3c0.6,0.6,1.4,1.2,2.2,1.5c0.9,0.4,1.8,0.6,2.8,0.6
	C344.9,37.7,346.1,37.4,347.1,36.9z"/>
<path fill="#F0B824" d="M354.4,29.4c0.1-0.8,0.4-1.4,0.8-1.8c0.4-0.5,0.9-0.7,1.5-0.7c0.6,0,1.2,0.2,1.6,0.7
	c0.4,0.5,0.7,1.1,0.7,1.8H354.4z M360.6,37c1-0.5,1.8-1.2,2.4-2l-2.6-2.2c-0.5,0.5-1,0.9-1.4,1.1c-0.5,0.2-1,0.3-1.6,0.3
	c-0.7,0-1.4-0.2-1.9-0.6c-0.5-0.4-0.9-0.9-1-1.7h9c0-0.2,0-0.3,0-0.5c0-0.2,0-0.3,0-0.5c0-1-0.1-2-0.4-2.9c-0.3-0.9-0.7-1.7-1.2-2.4
	c-0.6-0.7-1.3-1.2-2.1-1.6c-0.9-0.4-1.9-0.6-3-0.6c-1,0-1.9,0.2-2.7,0.6c-0.8,0.4-1.5,0.9-2.2,1.5c-0.6,0.7-1.1,1.4-1.4,2.3
	c-0.3,0.9-0.5,1.8-0.5,2.8v0.1c0,1.1,0.2,2.1,0.5,2.9c0.4,0.9,0.9,1.6,1.5,2.3c0.6,0.6,1.4,1.1,2.3,1.5c0.9,0.3,1.8,0.5,2.9,0.5
	C358.5,37.7,359.6,37.5,360.6,37z"/>
<path fill="#F0B824" d="M364.7,37.4h4.9v-5h-4.9V37.4z"/>
<path fill="#FFFFFF" d="M82.6,55.7h1.7v-4.1h4.6v4.1h1.7V46h-1.7v4h-4.6v-4h-1.7V55.7z"/>
<path fill="#FFFFFF" d="M95.2,54.2c-0.3-0.1-0.5-0.3-0.7-0.5c-0.2-0.2-0.4-0.5-0.5-0.7c-0.1-0.3-0.2-0.6-0.2-0.9v0
	c0-0.3,0.1-0.6,0.2-0.9c0.1-0.3,0.2-0.5,0.4-0.7c0.2-0.2,0.4-0.4,0.7-0.5c0.3-0.1,0.6-0.2,0.9-0.2c0.3,0,0.6,0.1,0.9,0.2
	c0.3,0.1,0.5,0.3,0.7,0.5c0.2,0.2,0.4,0.5,0.5,0.7c0.1,0.3,0.2,0.6,0.2,0.9v0c0,0.3-0.1,0.6-0.2,0.9c-0.1,0.3-0.2,0.5-0.4,0.7
	c-0.2,0.2-0.4,0.4-0.7,0.5s-0.6,0.2-0.9,0.2C95.8,54.4,95.5,54.4,95.2,54.2z M97.6,55.6c0.5-0.2,0.9-0.5,1.2-0.8
	c0.3-0.3,0.6-0.7,0.8-1.2c0.2-0.5,0.3-0.9,0.3-1.5v0c0-0.5-0.1-1-0.3-1.5c-0.2-0.5-0.5-0.9-0.8-1.2c-0.3-0.3-0.8-0.6-1.2-0.8
	c-0.5-0.2-1-0.3-1.6-0.3c-0.6,0-1.1,0.1-1.6,0.3c-0.5,0.2-0.9,0.5-1.2,0.8c-0.3,0.3-0.6,0.7-0.8,1.2c-0.2,0.5-0.3,1-0.3,1.5v0
	c0,0.5,0.1,1,0.3,1.5c0.2,0.5,0.5,0.9,0.8,1.2c0.3,0.3,0.8,0.6,1.2,0.8c0.5,0.2,1,0.3,1.5,0.3C96.6,55.9,97.1,55.8,97.6,55.6z"/>
<path fill="#FFFFFF" d="M101.3,55.7h1.7v-4.1c0-0.6,0.1-1,0.4-1.3c0.3-0.3,0.7-0.5,1.1-0.5c0.5,0,0.8,0.2,1.1,0.5
	c0.3,0.3,0.4,0.7,0.4,1.3v4.2h1.7v-4.1c0-0.6,0.1-1,0.4-1.3c0.3-0.3,0.7-0.5,1.1-0.5c0.5,0,0.8,0.2,1.1,0.5c0.3,0.3,0.4,0.7,0.4,1.3
	v4.1h1.7v-4.7c0-0.9-0.2-1.6-0.7-2.1c-0.5-0.5-1.1-0.7-1.9-0.7c-0.6,0-1,0.1-1.4,0.4c-0.4,0.2-0.8,0.6-1,0.9
	c-0.2-0.4-0.5-0.7-0.8-0.9c-0.4-0.2-0.8-0.4-1.3-0.4c-0.3,0-0.5,0-0.8,0.1c-0.2,0.1-0.4,0.2-0.6,0.3c-0.2,0.1-0.3,0.3-0.5,0.4
	c-0.1,0.1-0.3,0.3-0.4,0.5v-1.1h-1.7V55.7z"/>
<path fill="#FFFFFF" d="M115.4,51.6c0.1-0.6,0.3-1,0.6-1.4c0.3-0.4,0.8-0.5,1.3-0.5c0.3,0,0.5,0.1,0.7,0.2c0.2,0.1,0.4,0.2,0.6,0.4
	c0.2,0.2,0.3,0.4,0.4,0.6c0.1,0.2,0.2,0.5,0.2,0.8H115.4z M119.2,55.5c0.5-0.2,0.9-0.6,1.3-1l-1-0.9c-0.3,0.3-0.6,0.5-0.9,0.7
	c-0.3,0.1-0.7,0.2-1.1,0.2c-0.5,0-1-0.2-1.4-0.5c-0.4-0.3-0.6-0.8-0.7-1.4h5.4c0-0.1,0-0.2,0-0.2c0-0.1,0-0.2,0-0.2
	c0-0.5-0.1-1-0.2-1.5c-0.1-0.5-0.4-0.9-0.7-1.3c-0.3-0.4-0.7-0.6-1.1-0.9c-0.4-0.2-0.9-0.3-1.5-0.3c-0.5,0-1,0.1-1.4,0.3
	c-0.4,0.2-0.8,0.5-1.1,0.8c-0.3,0.3-0.6,0.7-0.7,1.2c-0.2,0.5-0.3,1-0.3,1.5v0c0,0.6,0.1,1.1,0.3,1.5c0.2,0.5,0.5,0.9,0.8,1.2
	c0.3,0.3,0.7,0.6,1.2,0.8c0.5,0.2,0.9,0.3,1.5,0.3C118.1,55.9,118.7,55.8,119.2,55.5z"/>
<path fill="#FFFFFF" d="M126,55.7h1.7v-7.3H126V55.7z M126,47.3h1.8v-1.6H126V47.3z"/>
<path fill="#FFFFFF" d="M129.5,55.7h1.7v-4.1c0-0.6,0.2-1,0.5-1.3c0.3-0.3,0.7-0.5,1.2-0.5c0.5,0,0.9,0.2,1.1,0.5
	c0.3,0.3,0.4,0.7,0.4,1.3v4.1h1.7v-4.6c0-0.9-0.2-1.5-0.7-2c-0.5-0.5-1.1-0.8-1.9-0.8c-0.3,0-0.5,0-0.8,0.1
	c-0.2,0.1-0.4,0.2-0.6,0.3c-0.2,0.1-0.4,0.3-0.5,0.4c-0.1,0.2-0.3,0.3-0.4,0.5v-1.1h-1.7V55.7z"/>
<path fill="#FFFFFF" d="M141.3,55.7c0.3-0.1,0.6-0.2,0.9-0.4c0.2-0.2,0.4-0.4,0.6-0.7c0.1-0.3,0.2-0.6,0.2-1v0
	c0-0.3-0.1-0.6-0.2-0.8c-0.1-0.2-0.3-0.4-0.5-0.6c-0.2-0.2-0.5-0.3-0.7-0.4c-0.3-0.1-0.5-0.2-0.8-0.3c-0.2-0.1-0.4-0.1-0.6-0.2
	c-0.2-0.1-0.4-0.1-0.5-0.2c-0.2-0.1-0.3-0.2-0.4-0.3c-0.1-0.1-0.1-0.2-0.1-0.3v0c0-0.2,0.1-0.4,0.3-0.5c0.2-0.1,0.4-0.2,0.8-0.2
	c0.3,0,0.6,0.1,1,0.2c0.4,0.1,0.7,0.3,1.1,0.5l0.7-1.2c-0.4-0.3-0.8-0.5-1.3-0.6s-0.9-0.2-1.4-0.2c-0.4,0-0.7,0.1-1,0.2
	c-0.3,0.1-0.6,0.2-0.8,0.4c-0.2,0.2-0.4,0.4-0.6,0.7c-0.1,0.3-0.2,0.6-0.2,0.9v0c0,0.3,0.1,0.6,0.2,0.9c0.1,0.2,0.3,0.4,0.5,0.6
	c0.2,0.2,0.5,0.3,0.7,0.4c0.3,0.1,0.5,0.2,0.8,0.3c0.2,0.1,0.4,0.1,0.6,0.2c0.2,0.1,0.4,0.1,0.5,0.2c0.2,0.1,0.3,0.2,0.4,0.3
	c0.1,0.1,0.1,0.2,0.1,0.4v0c0,0.2-0.1,0.4-0.3,0.6c-0.2,0.1-0.5,0.2-0.8,0.2c-0.4,0-0.8-0.1-1.2-0.2c-0.4-0.2-0.8-0.4-1.2-0.7
	l-0.7,1.1c0.5,0.4,1,0.6,1.5,0.8c0.5,0.2,1.1,0.3,1.6,0.3C140.6,55.9,141,55.8,141.3,55.7z"/>
<path fill="#FFFFFF" d="M148.2,55.5c0.4-0.3,0.7-0.6,0.9-0.9v1.1h1.7v-7.3h-1.7v4.1c0,0.6-0.2,1-0.5,1.3c-0.3,0.3-0.7,0.5-1.2,0.5
	c-0.5,0-0.9-0.2-1.1-0.5c-0.3-0.3-0.4-0.7-0.4-1.3v-4.1h-1.7v4.6c0,0.9,0.2,1.5,0.7,2c0.5,0.5,1.1,0.8,1.9,0.8
	C147.4,55.9,147.9,55.7,148.2,55.5z"/>
<path fill="#FFFFFF" d="M152.6,55.7h1.7v-2.8c0-0.5,0.1-0.9,0.2-1.3c0.1-0.4,0.3-0.7,0.5-0.9c0.2-0.2,0.5-0.4,0.8-0.5
	c0.3-0.1,0.6-0.2,1-0.2h0.1v-1.8c-0.6,0-1.2,0.1-1.6,0.5c-0.4,0.3-0.8,0.8-1,1.3v-1.6h-1.7V55.7z"/>
<path fill="#FFFFFF" d="M162.4,53.1c0,0.2,0,0.4-0.1,0.6c-0.1,0.2-0.2,0.4-0.4,0.5c-0.2,0.1-0.4,0.2-0.6,0.3
	c-0.2,0.1-0.5,0.1-0.8,0.1c-0.4,0-0.7-0.1-1-0.3c-0.3-0.2-0.4-0.5-0.4-0.8v0c0-0.4,0.1-0.6,0.4-0.8c0.3-0.2,0.7-0.3,1.2-0.3
	c0.3,0,0.6,0,0.9,0.1c0.3,0.1,0.5,0.1,0.8,0.2V53.1z M164.1,55.7v-4.3c0-1-0.3-1.7-0.8-2.3c-0.5-0.5-1.3-0.8-2.4-0.8
	c-0.6,0-1.1,0.1-1.5,0.2c-0.4,0.1-0.8,0.3-1.2,0.4l0.5,1.3c0.3-0.1,0.7-0.2,1-0.3c0.3-0.1,0.7-0.1,1.1-0.1c0.6,0,1,0.1,1.3,0.4
	c0.3,0.3,0.5,0.7,0.5,1.2v0.1c-0.3-0.1-0.6-0.2-0.9-0.2c-0.3-0.1-0.7-0.1-1.1-0.1c-0.4,0-0.8,0-1.2,0.1c-0.4,0.1-0.7,0.2-0.9,0.4
	c-0.3,0.2-0.5,0.4-0.6,0.7c-0.1,0.3-0.2,0.7-0.2,1.1v0c0,0.4,0.1,0.7,0.2,1c0.1,0.3,0.3,0.5,0.6,0.7c0.2,0.2,0.5,0.3,0.8,0.4
	c0.3,0.1,0.6,0.1,1,0.1c0.6,0,1-0.1,1.4-0.3c0.4-0.2,0.7-0.5,1-0.7v0.9H164.1z"/>
<path fill="#FFFFFF" d="M165.7,55.7h1.7v-4.1c0-0.6,0.2-1,0.5-1.3c0.3-0.3,0.7-0.5,1.2-0.5c0.5,0,0.9,0.2,1.1,0.5
	c0.3,0.3,0.4,0.7,0.4,1.3v4.1h1.7v-4.6c0-0.9-0.2-1.5-0.7-2c-0.5-0.5-1.1-0.8-1.9-0.8c-0.3,0-0.5,0-0.8,0.1
	c-0.2,0.1-0.4,0.2-0.6,0.3c-0.2,0.1-0.4,0.3-0.5,0.4c-0.1,0.2-0.3,0.3-0.4,0.5v-1.1h-1.7V55.7z"/>
<path fill="#FFFFFF" d="M179.1,55.5c0.5-0.3,0.9-0.6,1.2-1l-1-1c-0.3,0.3-0.6,0.5-0.9,0.7c-0.3,0.2-0.6,0.3-1,0.3
	c-0.3,0-0.6-0.1-0.9-0.2c-0.3-0.1-0.5-0.3-0.7-0.5c-0.2-0.2-0.3-0.5-0.4-0.7c-0.1-0.3-0.2-0.6-0.2-0.9v0c0-0.3,0.1-0.6,0.2-0.9
	c0.1-0.3,0.3-0.5,0.4-0.7c0.2-0.2,0.4-0.4,0.7-0.5c0.3-0.1,0.5-0.2,0.8-0.2c0.4,0,0.8,0.1,1.1,0.3c0.3,0.2,0.6,0.4,0.8,0.7l1-1.1
	c-0.3-0.4-0.7-0.7-1.2-0.9c-0.5-0.2-1-0.3-1.7-0.3c-0.5,0-1,0.1-1.5,0.3c-0.5,0.2-0.9,0.5-1.2,0.8c-0.3,0.3-0.6,0.8-0.8,1.2
	c-0.2,0.5-0.3,1-0.3,1.5v0c0,0.5,0.1,1,0.3,1.5c0.2,0.5,0.5,0.9,0.8,1.2c0.3,0.3,0.7,0.6,1.2,0.8c0.5,0.2,1,0.3,1.5,0.3
	C178,55.9,178.6,55.8,179.1,55.5z"/>
<path fill="#FFFFFF" d="M182.7,51.6c0.1-0.6,0.3-1,0.6-1.4c0.3-0.4,0.8-0.5,1.3-0.5c0.3,0,0.5,0.1,0.7,0.2c0.2,0.1,0.4,0.2,0.6,0.4
	c0.2,0.2,0.3,0.4,0.4,0.6c0.1,0.2,0.2,0.5,0.2,0.8H182.7z M186.6,55.5c0.5-0.2,0.9-0.6,1.3-1l-1-0.9c-0.3,0.3-0.6,0.5-0.9,0.7
	c-0.3,0.1-0.7,0.2-1.1,0.2c-0.5,0-1-0.2-1.4-0.5c-0.4-0.3-0.6-0.8-0.7-1.4h5.4c0-0.1,0-0.2,0-0.2c0-0.1,0-0.2,0-0.2
	c0-0.5-0.1-1-0.2-1.5c-0.1-0.5-0.4-0.9-0.7-1.3c-0.3-0.4-0.7-0.6-1.1-0.9c-0.4-0.2-0.9-0.3-1.5-0.3c-0.5,0-1,0.1-1.4,0.3
	c-0.4,0.2-0.8,0.5-1.1,0.8c-0.3,0.3-0.6,0.7-0.7,1.2c-0.2,0.5-0.3,1-0.3,1.5v0c0,0.6,0.1,1.1,0.3,1.5c0.2,0.5,0.5,0.9,0.8,1.2
	c0.3,0.3,0.7,0.6,1.2,0.8c0.5,0.2,0.9,0.3,1.5,0.3C185.5,55.9,186.1,55.8,186.6,55.5z"/>
<path fill="#FFFFFF" d="M196.6,55.8c0.2-0.1,0.5-0.2,0.7-0.3v-1.4c-0.3,0.2-0.7,0.2-1,0.2c-0.3,0-0.5-0.1-0.7-0.2
	c-0.2-0.1-0.2-0.4-0.2-0.7v-3.6h2v-1.4h-2v-2h-1.7v2h-0.9v1.4h0.9v3.8c0,0.4,0.1,0.7,0.2,1c0.1,0.3,0.2,0.5,0.4,0.7
	c0.2,0.2,0.4,0.3,0.7,0.4c0.3,0.1,0.5,0.1,0.8,0.1C196.1,55.8,196.3,55.8,196.6,55.8z"/>
<path fill="#FFFFFF" d="M198.6,55.7h1.7v-4.1c0-0.6,0.2-1,0.5-1.3c0.3-0.3,0.7-0.5,1.2-0.5c0.5,0,0.9,0.2,1.1,0.5
	c0.3,0.3,0.4,0.7,0.4,1.3v4.1h1.7v-4.6c0-0.9-0.2-1.5-0.7-2c-0.5-0.5-1.1-0.8-1.9-0.8c-0.3,0-0.5,0-0.8,0.1
	c-0.2,0.1-0.4,0.2-0.6,0.3c-0.2,0.1-0.4,0.3-0.5,0.4c-0.1,0.2-0.3,0.3-0.4,0.5v-3.9h-1.7V55.7z"/>
<path fill="#FFFFFF" d="M211.3,53.1c0,0.2,0,0.4-0.1,0.6c-0.1,0.2-0.2,0.4-0.4,0.5c-0.2,0.1-0.4,0.2-0.6,0.3
	c-0.2,0.1-0.5,0.1-0.8,0.1c-0.4,0-0.7-0.1-1-0.3c-0.3-0.2-0.4-0.5-0.4-0.8v0c0-0.4,0.1-0.6,0.4-0.8c0.3-0.2,0.7-0.3,1.2-0.3
	c0.3,0,0.6,0,0.9,0.1c0.3,0.1,0.5,0.1,0.8,0.2V53.1z M213,55.7v-4.3c0-1-0.3-1.7-0.8-2.3c-0.5-0.5-1.3-0.8-2.4-0.8
	c-0.6,0-1.1,0.1-1.5,0.2c-0.4,0.1-0.8,0.3-1.2,0.4l0.5,1.3c0.3-0.1,0.7-0.2,1-0.3c0.3-0.1,0.7-0.1,1.1-0.1c0.6,0,1,0.1,1.3,0.4
	c0.3,0.3,0.5,0.7,0.5,1.2v0.1c-0.3-0.1-0.6-0.2-0.9-0.2c-0.3-0.1-0.7-0.1-1.1-0.1c-0.4,0-0.8,0-1.2,0.1c-0.4,0.1-0.7,0.2-0.9,0.4
	c-0.3,0.2-0.5,0.4-0.6,0.7c-0.1,0.3-0.2,0.7-0.2,1.1v0c0,0.4,0.1,0.7,0.2,1c0.1,0.3,0.3,0.5,0.6,0.7c0.2,0.2,0.5,0.3,0.8,0.4
	c0.3,0.1,0.6,0.1,1,0.1c0.6,0,1-0.1,1.4-0.3c0.4-0.2,0.7-0.5,1-0.7v0.9H213z"/>
<path fill="#FFFFFF" d="M217.9,55.8c0.2-0.1,0.5-0.2,0.7-0.3v-1.4c-0.3,0.2-0.7,0.2-1,0.2c-0.3,0-0.5-0.1-0.7-0.2
	c-0.2-0.1-0.2-0.4-0.2-0.7v-3.6h2v-1.4h-2v-2H215v2H214v1.4h0.9v3.8c0,0.4,0.1,0.7,0.2,1c0.1,0.3,0.2,0.5,0.4,0.7
	c0.2,0.2,0.4,0.3,0.7,0.4c0.3,0.1,0.5,0.1,0.8,0.1C217.4,55.8,217.7,55.8,217.9,55.8z"/>
<path fill="#FFFFFF" d="M219.6,50c0.7-0.1,1.2-0.3,1.6-0.6c0.4-0.4,0.5-0.9,0.5-1.7V46h-1.8v1.9h0.7c0.1,0.7-0.3,1.1-1.2,1.3
	L219.6,50z"/>
<path fill="#FFFFFF" d="M226.9,55.7c0.3-0.1,0.6-0.2,0.9-0.4c0.2-0.2,0.4-0.4,0.6-0.7c0.1-0.3,0.2-0.6,0.2-1v0
	c0-0.3-0.1-0.6-0.2-0.8c-0.1-0.2-0.3-0.4-0.5-0.6c-0.2-0.2-0.5-0.3-0.7-0.4c-0.3-0.1-0.5-0.2-0.8-0.3c-0.2-0.1-0.4-0.1-0.6-0.2
	c-0.2-0.1-0.4-0.1-0.5-0.2c-0.2-0.1-0.3-0.2-0.4-0.3c-0.1-0.1-0.1-0.2-0.1-0.3v0c0-0.2,0.1-0.4,0.3-0.5c0.2-0.1,0.4-0.2,0.8-0.2
	c0.3,0,0.6,0.1,1,0.2c0.4,0.1,0.7,0.3,1.1,0.5l0.7-1.2c-0.4-0.3-0.8-0.5-1.3-0.6s-0.9-0.2-1.4-0.2c-0.4,0-0.7,0.1-1,0.2
	c-0.3,0.1-0.6,0.2-0.8,0.4c-0.2,0.2-0.4,0.4-0.6,0.7c-0.1,0.3-0.2,0.6-0.2,0.9v0c0,0.3,0.1,0.6,0.2,0.9c0.1,0.2,0.3,0.4,0.5,0.6
	c0.2,0.2,0.5,0.3,0.7,0.4c0.3,0.1,0.5,0.2,0.8,0.3c0.2,0.1,0.4,0.1,0.6,0.2c0.2,0.1,0.4,0.1,0.5,0.2c0.2,0.1,0.3,0.2,0.4,0.3
	c0.1,0.1,0.1,0.2,0.1,0.4v0c0,0.2-0.1,0.4-0.3,0.6c-0.2,0.1-0.5,0.2-0.8,0.2c-0.4,0-0.8-0.1-1.2-0.2c-0.4-0.2-0.8-0.4-1.2-0.7
	l-0.7,1.1c0.5,0.4,1,0.6,1.5,0.8c0.5,0.2,1.1,0.3,1.6,0.3C226.2,55.9,226.5,55.8,226.9,55.7z"/>
<path fill="#FFFFFF" d="M238.2,53.1c0,0.2,0,0.4-0.1,0.6c-0.1,0.2-0.2,0.4-0.4,0.5c-0.2,0.1-0.4,0.2-0.6,0.3
	c-0.2,0.1-0.5,0.1-0.8,0.1c-0.4,0-0.7-0.1-1-0.3c-0.3-0.2-0.4-0.5-0.4-0.8v0c0-0.4,0.1-0.6,0.4-0.8c0.3-0.2,0.7-0.3,1.2-0.3
	c0.3,0,0.6,0,0.9,0.1c0.3,0.1,0.5,0.1,0.8,0.2V53.1z M239.8,55.7v-4.3c0-1-0.3-1.7-0.8-2.3c-0.5-0.5-1.3-0.8-2.4-0.8
	c-0.6,0-1.1,0.1-1.5,0.2c-0.4,0.1-0.8,0.3-1.2,0.4l0.5,1.3c0.3-0.1,0.7-0.2,1-0.3c0.3-0.1,0.7-0.1,1.1-0.1c0.6,0,1,0.1,1.3,0.4
	c0.3,0.3,0.5,0.7,0.5,1.2v0.1c-0.3-0.1-0.6-0.2-0.9-0.2c-0.3-0.1-0.7-0.1-1.1-0.1c-0.4,0-0.8,0-1.2,0.1c-0.4,0.1-0.7,0.2-0.9,0.4
	c-0.3,0.2-0.5,0.4-0.6,0.7c-0.1,0.3-0.2,0.7-0.2,1.1v0c0,0.4,0.1,0.7,0.2,1c0.1,0.3,0.3,0.5,0.6,0.7c0.2,0.2,0.5,0.3,0.8,0.4
	c0.3,0.1,0.6,0.1,1,0.1c0.6,0,1-0.1,1.4-0.3c0.4-0.2,0.7-0.5,1-0.7v0.9H239.8z"/>
<path fill="#FFFFFF" d="M241.6,55.7h1.7V45.6h-1.7V55.7z"/>
<path fill="#FFFFFF" d="M246.8,55.8h1.5l1.6-5l1.6,5h1.5l2.4-7.4h-1.7l-1.5,5l-1.6-5h-1.4l-1.6,5l-1.5-5h-1.7L246.8,55.8z"/>
<path fill="#FFFFFF" d="M261.1,53.1c0,0.2,0,0.4-0.1,0.6c-0.1,0.2-0.2,0.4-0.4,0.5c-0.2,0.1-0.4,0.2-0.6,0.3
	c-0.2,0.1-0.5,0.1-0.8,0.1c-0.4,0-0.7-0.1-1-0.3c-0.3-0.2-0.4-0.5-0.4-0.8v0c0-0.4,0.1-0.6,0.4-0.8c0.3-0.2,0.7-0.3,1.2-0.3
	c0.3,0,0.6,0,0.9,0.1c0.3,0.1,0.5,0.1,0.8,0.2V53.1z M262.8,55.7v-4.3c0-1-0.3-1.7-0.8-2.3c-0.5-0.5-1.3-0.8-2.4-0.8
	c-0.6,0-1.1,0.1-1.5,0.2c-0.4,0.1-0.8,0.3-1.2,0.4l0.5,1.3c0.3-0.1,0.7-0.2,1-0.3c0.3-0.1,0.7-0.1,1.1-0.1c0.6,0,1,0.1,1.3,0.4
	c0.3,0.3,0.5,0.7,0.5,1.2v0.1c-0.3-0.1-0.6-0.2-0.9-0.2c-0.3-0.1-0.7-0.1-1.1-0.1c-0.4,0-0.8,0-1.2,0.1c-0.4,0.1-0.7,0.2-0.9,0.4
	c-0.3,0.2-0.5,0.4-0.6,0.7c-0.1,0.3-0.2,0.7-0.2,1.1v0c0,0.4,0.1,0.7,0.2,1c0.1,0.3,0.3,0.5,0.6,0.7c0.2,0.2,0.5,0.3,0.8,0.4
	c0.3,0.1,0.6,0.1,1,0.1c0.6,0,1-0.1,1.4-0.3c0.4-0.2,0.7-0.5,1-0.7v0.9H262.8z"/>
<path fill="#FFFFFF" d="M266.7,57.9c0.2-0.1,0.4-0.2,0.6-0.4c0.2-0.2,0.4-0.4,0.5-0.6c0.2-0.3,0.3-0.6,0.5-1l2.9-7.5h-1.7l-1.9,5.4
	l-2.1-5.4h-1.8l3,7.3c-0.1,0.3-0.3,0.5-0.4,0.7c-0.2,0.1-0.4,0.2-0.6,0.2c-0.2,0-0.3,0-0.5-0.1c-0.2-0.1-0.3-0.1-0.5-0.2l-0.6,1.2
	c0.3,0.1,0.5,0.2,0.8,0.3c0.3,0.1,0.6,0.1,0.9,0.1C266.2,58,266.4,57.9,266.7,57.9z"/>
<path fill="#FFFFFF" d="M275.9,55.7c0.3-0.1,0.6-0.2,0.9-0.4c0.2-0.2,0.4-0.4,0.6-0.7c0.1-0.3,0.2-0.6,0.2-1v0
	c0-0.3-0.1-0.6-0.2-0.8c-0.1-0.2-0.3-0.4-0.5-0.6c-0.2-0.2-0.5-0.3-0.7-0.4c-0.3-0.1-0.5-0.2-0.8-0.3c-0.2-0.1-0.4-0.1-0.6-0.2
	c-0.2-0.1-0.4-0.1-0.5-0.2c-0.2-0.1-0.3-0.2-0.4-0.3c-0.1-0.1-0.1-0.2-0.1-0.3v0c0-0.2,0.1-0.4,0.3-0.5c0.2-0.1,0.4-0.2,0.8-0.2
	c0.3,0,0.6,0.1,1,0.2c0.4,0.1,0.7,0.3,1.1,0.5l0.7-1.2c-0.4-0.3-0.8-0.5-1.3-0.6s-0.9-0.2-1.4-0.2c-0.4,0-0.7,0.1-1,0.2
	c-0.3,0.1-0.6,0.2-0.8,0.4c-0.2,0.2-0.4,0.4-0.6,0.7c-0.1,0.3-0.2,0.6-0.2,0.9v0c0,0.3,0.1,0.6,0.2,0.9s0.3,0.4,0.5,0.6
	c0.2,0.2,0.5,0.3,0.7,0.4c0.3,0.1,0.5,0.2,0.8,0.3c0.2,0.1,0.4,0.1,0.6,0.2c0.2,0.1,0.4,0.1,0.5,0.2c0.2,0.1,0.3,0.2,0.4,0.3
	c0.1,0.1,0.1,0.2,0.1,0.4v0c0,0.2-0.1,0.4-0.3,0.6c-0.2,0.1-0.5,0.2-0.8,0.2c-0.4,0-0.8-0.1-1.2-0.2c-0.4-0.2-0.8-0.4-1.2-0.7
	l-0.7,1.1c0.5,0.4,1,0.6,1.5,0.8c0.5,0.2,1.1,0.3,1.6,0.3C275.2,55.9,275.5,55.8,275.9,55.7z"/>
<path fill="#FFFFFF" d="M282.7,55.7h1.7v-4.1c0-0.6,0.2-1,0.5-1.3c0.3-0.3,0.7-0.5,1.2-0.5c0.5,0,0.9,0.2,1.1,0.5
	c0.3,0.3,0.4,0.7,0.4,1.3v4.1h1.7v-4.6c0-0.9-0.2-1.5-0.7-2c-0.5-0.5-1.1-0.8-1.9-0.8c-0.3,0-0.5,0-0.8,0.1
	c-0.2,0.1-0.4,0.2-0.6,0.3c-0.2,0.1-0.4,0.3-0.5,0.4c-0.1,0.2-0.3,0.3-0.4,0.5v-3.9h-1.7V55.7z"/>
<path fill="#FFFFFF" d="M292.2,51.6c0.1-0.6,0.3-1,0.6-1.4c0.3-0.4,0.8-0.5,1.3-0.5c0.3,0,0.5,0.1,0.7,0.2c0.2,0.1,0.4,0.2,0.6,0.4
	c0.2,0.2,0.3,0.4,0.4,0.6c0.1,0.2,0.2,0.5,0.2,0.8H292.2z M296,55.5c0.5-0.2,0.9-0.6,1.3-1l-1-0.9c-0.3,0.3-0.6,0.5-0.9,0.7
	c-0.3,0.1-0.7,0.2-1.1,0.2c-0.5,0-1-0.2-1.4-0.5c-0.4-0.3-0.6-0.8-0.7-1.4h5.4c0-0.1,0-0.2,0-0.2c0-0.1,0-0.2,0-0.2
	c0-0.5-0.1-1-0.2-1.5c-0.1-0.5-0.4-0.9-0.7-1.3c-0.3-0.4-0.7-0.6-1.1-0.9c-0.4-0.2-0.9-0.3-1.5-0.3c-0.5,0-1,0.1-1.4,0.3
	c-0.4,0.2-0.8,0.5-1.1,0.8c-0.3,0.3-0.6,0.7-0.7,1.2c-0.2,0.5-0.3,1-0.3,1.5v0c0,0.6,0.1,1.1,0.3,1.5c0.2,0.5,0.5,0.9,0.8,1.2
	c0.3,0.3,0.7,0.6,1.2,0.8c0.5,0.2,0.9,0.3,1.5,0.3C294.9,55.9,295.5,55.8,296,55.5z"/>
<path fill="#FFFFFF" d="M298.9,55.7h1.7v-2.8c0-0.5,0.1-0.9,0.2-1.3c0.1-0.4,0.3-0.7,0.5-0.9c0.2-0.2,0.5-0.4,0.8-0.5
	c0.3-0.1,0.6-0.2,1-0.2h0.1v-1.8c-0.6,0-1.2,0.1-1.6,0.5c-0.4,0.3-0.8,0.8-1,1.3v-1.6h-1.7V55.7z"/>
<path fill="#FFFFFF" d="M305.5,51.6c0.1-0.6,0.3-1,0.6-1.4c0.3-0.4,0.8-0.5,1.3-0.5c0.3,0,0.5,0.1,0.7,0.2c0.2,0.1,0.4,0.2,0.6,0.4
	c0.2,0.2,0.3,0.4,0.4,0.6c0.1,0.2,0.2,0.5,0.2,0.8H305.5z M309.3,55.5c0.5-0.2,0.9-0.6,1.3-1l-1-0.9c-0.3,0.3-0.6,0.5-0.9,0.7
	c-0.3,0.1-0.7,0.2-1.1,0.2c-0.5,0-1-0.2-1.4-0.5c-0.4-0.3-0.6-0.8-0.7-1.4h5.4c0-0.1,0-0.2,0-0.2c0-0.1,0-0.2,0-0.2
	c0-0.5-0.1-1-0.2-1.5c-0.1-0.5-0.4-0.9-0.7-1.3c-0.3-0.4-0.7-0.6-1.1-0.9c-0.4-0.2-0.9-0.3-1.5-0.3c-0.5,0-1,0.1-1.4,0.3
	c-0.4,0.2-0.8,0.5-1.1,0.8c-0.3,0.3-0.6,0.7-0.7,1.2c-0.2,0.5-0.3,1-0.3,1.5v0c0,0.6,0.1,1.1,0.3,1.5c0.2,0.5,0.5,0.9,0.8,1.2
	c0.3,0.3,0.7,0.6,1.2,0.8c0.5,0.2,0.9,0.3,1.5,0.3C308.3,55.9,308.9,55.8,309.3,55.5z"/>
<path fill="#FFFFFF" d="M316.5,55.7h1.7v-5.9h1.9v-1.4h-1.9v-0.4c0-0.7,0.3-1.1,1-1.1c0.2,0,0.4,0,0.5,0c0.2,0,0.3,0.1,0.5,0.1v-1.4
	c-0.2-0.1-0.4-0.1-0.6-0.1c-0.2,0-0.5-0.1-0.8-0.1c-0.7,0-1.3,0.2-1.7,0.6c-0.4,0.4-0.6,1-0.6,1.8v0.5h-0.9v1.4h0.9V55.7z"/>
<path fill="#FFFFFF" d="M323.5,54.2c-0.3-0.1-0.5-0.3-0.7-0.5c-0.2-0.2-0.4-0.5-0.5-0.7c-0.1-0.3-0.2-0.6-0.2-0.9v0
	c0-0.3,0.1-0.6,0.2-0.9c0.1-0.3,0.2-0.5,0.4-0.7c0.2-0.2,0.4-0.4,0.7-0.5c0.3-0.1,0.6-0.2,0.9-0.2c0.3,0,0.6,0.1,0.9,0.2
	c0.3,0.1,0.5,0.3,0.7,0.5c0.2,0.2,0.4,0.5,0.5,0.7c0.1,0.3,0.2,0.6,0.2,0.9v0c0,0.3-0.1,0.6-0.2,0.9c-0.1,0.3-0.2,0.5-0.4,0.7
	c-0.2,0.2-0.4,0.4-0.7,0.5c-0.3,0.1-0.6,0.2-0.9,0.2C324.1,54.4,323.8,54.4,323.5,54.2z M326,55.6c0.5-0.2,0.9-0.5,1.2-0.8
	c0.3-0.3,0.6-0.7,0.8-1.2c0.2-0.5,0.3-0.9,0.3-1.5v0c0-0.5-0.1-1-0.3-1.5c-0.2-0.5-0.5-0.9-0.8-1.2c-0.3-0.3-0.8-0.6-1.2-0.8
	c-0.5-0.2-1-0.3-1.6-0.3c-0.6,0-1.1,0.1-1.6,0.3c-0.5,0.2-0.9,0.5-1.2,0.8c-0.3,0.3-0.6,0.7-0.8,1.2c-0.2,0.5-0.3,1-0.3,1.5v0
	c0,0.5,0.1,1,0.3,1.5c0.2,0.5,0.5,0.9,0.8,1.2c0.3,0.3,0.8,0.6,1.2,0.8c0.5,0.2,1,0.3,1.5,0.3C325,55.9,325.5,55.8,326,55.6z"/>
<path fill="#FFFFFF" d="M329.7,55.7h1.7v-2.8c0-0.5,0.1-0.9,0.2-1.3c0.1-0.4,0.3-0.7,0.5-0.9c0.2-0.2,0.5-0.4,0.8-0.5
	c0.3-0.1,0.6-0.2,1-0.2h0.1v-1.8c-0.6,0-1.2,0.1-1.6,0.5c-0.4,0.3-0.8,0.8-1,1.3v-1.6h-1.7V55.7z"/>
<path fill="#FFFFFF" d="M341.1,57.9c0.2-0.1,0.4-0.2,0.6-0.4c0.2-0.2,0.4-0.4,0.5-0.6c0.2-0.3,0.3-0.6,0.5-1l2.9-7.5h-1.7l-1.9,5.4
	l-2.1-5.4h-1.8l3,7.3c-0.1,0.3-0.3,0.5-0.4,0.7c-0.2,0.1-0.4,0.2-0.6,0.2c-0.2,0-0.3,0-0.5-0.1c-0.2-0.1-0.3-0.1-0.5-0.2l-0.6,1.2
	c0.3,0.1,0.5,0.2,0.8,0.3c0.3,0.1,0.6,0.1,0.9,0.1C340.6,58,340.9,57.9,341.1,57.9z"/>
<path fill="#FFFFFF" d="M349.3,54.2c-0.3-0.1-0.5-0.3-0.7-0.5c-0.2-0.2-0.4-0.5-0.5-0.7c-0.1-0.3-0.2-0.6-0.2-0.9v0
	c0-0.3,0.1-0.6,0.2-0.9c0.1-0.3,0.2-0.5,0.4-0.7c0.2-0.2,0.4-0.4,0.7-0.5c0.3-0.1,0.6-0.2,0.9-0.2c0.3,0,0.6,0.1,0.9,0.2
	c0.3,0.1,0.5,0.3,0.7,0.5c0.2,0.2,0.4,0.5,0.5,0.7c0.1,0.3,0.2,0.6,0.2,0.9v0c0,0.3-0.1,0.6-0.2,0.9c-0.1,0.3-0.2,0.5-0.4,0.7
	c-0.2,0.2-0.4,0.4-0.7,0.5s-0.6,0.2-0.9,0.2C349.9,54.4,349.6,54.4,349.3,54.2z M351.8,55.6c0.5-0.2,0.9-0.5,1.2-0.8
	c0.3-0.3,0.6-0.7,0.8-1.2c0.2-0.5,0.3-0.9,0.3-1.5v0c0-0.5-0.1-1-0.3-1.5c-0.2-0.5-0.5-0.9-0.8-1.2c-0.3-0.3-0.8-0.6-1.2-0.8
	c-0.5-0.2-1-0.3-1.6-0.3c-0.6,0-1.1,0.1-1.6,0.3c-0.5,0.2-0.9,0.5-1.2,0.8c-0.3,0.3-0.6,0.7-0.8,1.2c-0.2,0.5-0.3,1-0.3,1.5v0
	c0,0.5,0.1,1,0.3,1.5c0.2,0.5,0.5,0.9,0.8,1.2c0.3,0.3,0.8,0.6,1.2,0.8c0.5,0.2,1,0.3,1.5,0.3C350.8,55.9,351.3,55.8,351.8,55.6z"/>
<path fill="#FFFFFF" d="M359.4,55.5c0.4-0.3,0.7-0.6,0.9-0.9v1.1h1.7v-7.3h-1.7v4.1c0,0.6-0.2,1-0.5,1.3c-0.3,0.3-0.7,0.5-1.2,0.5
	c-0.5,0-0.9-0.2-1.1-0.5c-0.3-0.3-0.4-0.7-0.4-1.3v-4.1h-1.7v4.6c0,0.9,0.2,1.5,0.7,2c0.5,0.5,1.1,0.8,1.9,0.8
	C358.5,55.9,359,55.7,359.4,55.5z"/>
<path fill="#FFFFFF" d="M363.6,55.7h1.8v-1.9h-1.8V55.7z"/>
</svg>
