<?xml version="1.0" encoding="utf-8"?>
<!-- Generator: Adobe Illustrator 18.1.1, SVG Export Plug-In . SVG Version: 6.00 Build 0)  -->
<svg version="1.1" id="Layer_1" xmlns="http://www.w3.org/2000/svg" xmlns:xlink="http://www.w3.org/1999/xlink" x="0px" y="0px"
	 width="215px" height="48px" viewBox="0 0 215 48" enable-background="new 0 0 215 48" xml:space="preserve">
<g>
	<path fill="#FFFFFF" d="M215,48H0V0h215V48z M3,45h209V3H3V45z"/>
</g>
<path fill="#FFFFFF" d="M45.2,26.2L45.2,26.2c0-1.7-1.1-2.5-3.1-3c-1.7-0.4-2.1-0.6-2.1-1.3v0c0-0.5,0.4-0.9,1.3-0.9s1.7,0.4,2.6,1
	l1.1-1.6c-1-0.8-2.2-1.2-3.7-1.2c-2,0-3.5,1.2-3.5,3v0c0,1.9,1.3,2.5,3.3,3c1.7,0.4,2,0.7,2,1.2v0c0,0.6-0.5,0.9-1.4,0.9
	c-1.1,0-2.1-0.5-3-1.2l-1.3,1.5c1.2,1.1,2.7,1.6,4.2,1.6C43.7,29.3,45.2,28.2,45.2,26.2z"/>
<path fill="#FFFFFF" d="M54.6,29.1v-1.9h-5.4v-2.1h4.7v-1.9h-4.7v-2h5.3v-1.9h-7.5v9.8H54.6z"/>
<path fill="#FFFFFF" d="M64.1,29.1v-1.9h-5.4v-2.1h4.7v-1.9h-4.7v-2H64v-1.9h-7.5v9.8H64.1z"/>
<path fill="#FFFFFF" d="M80.2,29.1v-9.8h-2.3l-2.6,4.1l-2.6-4.1h-2.3v9.8h2.1v-6.4l2.8,4.1h0.1l2.8-4.2v6.4H80.2z"/>
<path fill="#FFFFFF" d="M92.6,24.2L92.6,24.2c0-2.8-2.2-5.1-5.2-5.1c-3.1,0-5.3,2.3-5.3,5.1v0c0,2.8,2.2,5,5.2,5S92.6,27,92.6,24.2z
	 M90.4,24.3c0,1.7-1.2,3.1-3,3.1c-1.8,0-3-1.4-3-3.1v0c0-1.7,1.2-3.1,3-3.1S90.4,22.6,90.4,24.3L90.4,24.3z"/>
<path fill="#FFFFFF" d="M103.1,29.1l-2.4-3.5c1.3-0.5,2.1-1.5,2.1-3v0c0-2-1.4-3.2-3.7-3.2h-4.5v9.8h2.2V26h1.7l2.1,3.1H103.1z
	 M100.6,22.7c0,0.8-0.6,1.4-1.7,1.4h-2.2v-2.8h2.2C100,21.3,100.6,21.8,100.6,22.7L100.6,22.7z"/>
<path fill="#FFFFFF" d="M112.3,29.1v-1.9h-5.4v-2.1h4.7v-1.9h-4.7v-2h5.3v-1.9h-7.5v9.8H112.3z"/>
<path fill="#FFFFFF" d="M127,29.1l-2.4-3.5c1.3-0.5,2.1-1.5,2.1-3v0c0-2-1.4-3.2-3.7-3.2h-4.5v9.8h2.2V26h1.7l2.1,3.1H127z
	 M124.5,22.7c0,0.8-0.6,1.4-1.7,1.4h-2.2v-2.8h2.2C123.9,21.3,124.5,21.8,124.5,22.7L124.5,22.7z"/>
<path fill="#FFFFFF" d="M136.2,29.1v-1.9h-5.4v-2.1h4.7v-1.9h-4.7v-2h5.3v-1.9h-7.5v9.8H136.2z"/>
<path fill="#FFFFFF" d="M146.9,27.5l-1.4-1.4c-0.8,0.7-1.5,1.1-2.6,1.1c-1.7,0-2.9-1.4-2.9-3.1v0c0-1.7,1.2-3.1,2.9-3.1
	c1,0,1.8,0.4,2.5,1.1l1.4-1.6c-0.9-0.9-2-1.5-3.9-1.5c-3,0-5.2,2.3-5.2,5.1v0c0,2.8,2.2,5,5.1,5C144.7,29.3,145.9,28.6,146.9,27.5z"
	/>
<path fill="#FFFFFF" d="M150.9,29.1v-9.8h-2.2v9.8H150.9z"/>
<path fill="#FFFFFF" d="M161.2,22.7L161.2,22.7c0-2-1.4-3.4-3.8-3.4h-4v9.8h2.2v-2.9h1.7C159.4,26.2,161.2,25,161.2,22.7z M159,22.8
	c0,0.8-0.6,1.5-1.7,1.5h-1.7v-3h1.7C158.3,21.3,159,21.8,159,22.8L159,22.8z"/>
<path fill="#FFFFFF" d="M170.3,29.1v-1.9H165v-2.1h4.7v-1.9H165v-2h5.3v-1.9h-7.5v9.8H170.3z"/>
<path fill="#FFFFFF" d="M179.4,26.2L179.4,26.2c0-1.7-1.1-2.5-3.1-3c-1.7-0.4-2.1-0.6-2.1-1.3v0c0-0.5,0.4-0.9,1.3-0.9
	s1.7,0.4,2.6,1l1.1-1.6c-1-0.8-2.2-1.2-3.7-1.2c-2,0-3.5,1.2-3.5,3v0c0,1.9,1.3,2.5,3.3,3c1.7,0.4,2,0.7,2,1.2v0
	c0,0.6-0.5,0.9-1.4,0.9c-1.1,0-2.1-0.5-3-1.2l-1.3,1.5c1.2,1.1,2.7,1.6,4.2,1.6C177.9,29.3,179.4,28.2,179.4,26.2z"/>
</svg>
