<?xml version="1.0" encoding="utf-8"?>
<!-- Generator: Adobe Illustrator 18.1.1, SVG Export Plug-In . SVG Version: 6.00 Build 0)  -->
<svg version="1.1" id="Layer_1" xmlns="http://www.w3.org/2000/svg" xmlns:xlink="http://www.w3.org/1999/xlink" x="0px" y="0px"
	 width="970px" height="90px" viewBox="0 0 970 90" enable-background="new 0 0 970 90" xml:space="preserve">
<path fill="#FFFFFF" d="M310.9,71.2h-2.2l-2,6.3l-2.1-6.3h-1.8l-2.1,6.3l-2-6.3h-2.3l3.3,9.4h1.8l2.2-6.1l2.2,6.1h1.8L310.9,71.2z"
	/>
<path fill="#FFFFFF" d="M320.3,80.5l-4.1-9.4h-1.9l-4.1,9.4h2.1l0.9-2.1h4.1l0.9,2.1H320.3z M316.5,76.6h-2.5l1.3-3L316.5,76.6z"/>
<path fill="#FFFFFF" d="M327.5,73.1v-1.9h-7.9v1.9h2.9v7.4h2.1v-7.4H327.5z"/>
<path fill="#FFFFFF" d="M336.9,79l-1.3-1.3c-0.8,0.7-1.4,1.1-2.5,1.1c-1.6,0-2.8-1.3-2.8-2.9v0c0-1.6,1.2-2.9,2.8-2.9
	c1,0,1.7,0.4,2.5,1.1l1.3-1.5c-0.9-0.9-2-1.4-3.8-1.4c-2.9,0-5,2.2-5,4.8v0c0,2.7,2.1,4.8,4.9,4.8C334.8,80.7,335.9,80.1,336.9,79z"
	/>
<path fill="#FFFFFF" d="M346.4,80.5v-9.3h-2.1v3.7h-3.9v-3.7h-2.1v9.3h2.1v-3.7h3.9v3.7H346.4z"/>
<path fill="#FFFFFF" d="M359.5,73.1v-1.9h-7.9v1.9h2.9v7.4h2.1v-7.4H359.5z"/>
<path fill="#FFFFFF" d="M368.9,80.5v-9.3h-2.1v3.7h-3.9v-3.7h-2.1v9.3h2.1v-3.7h3.9v3.7H368.9z"/>
<path fill="#FFFFFF" d="M378.3,80.5v-1.8H373v-2h4.5v-1.8H373v-1.9h5.1v-1.8H371v9.3H378.3z"/>
<path fill="#FFFFFF" d="M392.5,71.2h-2.3l-2.5,6.6l-2.5-6.6h-2.3l3.9,9.4h1.9L392.5,71.2z"/>
<path fill="#FFFFFF" d="M395.9,80.5v-9.3h-2.1v9.3H395.9z"/>
<path fill="#FFFFFF" d="M406.8,75.9L406.8,75.9c0-2.6-2.1-4.7-5.1-4.7H398v9.3h3.7C404.8,80.5,406.8,78.5,406.8,75.9z M404.6,75.9
	c0,1.6-1.2,2.8-2.9,2.8h-1.6v-5.6h1.6C403.5,73.1,404.6,74.2,404.6,75.9L404.6,75.9z"/>
<path fill="#FFFFFF" d="M415.7,80.5v-1.8h-5.2v-2h4.5v-1.8h-4.5v-1.9h5.1v-1.8h-7.2v9.3H415.7z"/>
<path fill="#FFFFFF" d="M427.1,75.9L427.1,75.9c0-2.7-2.1-4.8-5.1-4.8c-3,0-5.1,2.2-5.1,4.8v0c0,2.6,2.1,4.8,5.1,4.8
	S427.1,78.5,427.1,75.9z M424.9,75.9c0,1.6-1.2,2.9-2.9,2.9c-1.7,0-2.9-1.3-2.9-2.9v0c0-1.6,1.2-2.9,2.9-2.9
	C423.7,73,424.9,74.3,424.9,75.9L424.9,75.9z"/>
</svg>
