<?xml version="1.0" encoding="utf-8"?>
<!-- Generator: Adobe Illustrator 19.1.0, SVG Export Plug-In . SVG Version: 6.00 Build 0)  -->
<!DOCTYPE svg PUBLIC "-//W3C//DTD SVG 1.1//EN" "http://www.w3.org/Graphics/SVG/1.1/DTD/svg11.dtd">
<svg version="1.1" id="Layer_1" xmlns="http://www.w3.org/2000/svg" xmlns:xlink="http://www.w3.org/1999/xlink" x="0px" y="0px"
	 width="142px" height="20px" viewBox="0 0 142 20" style="enable-background:new 0 0 142 20;" xml:space="preserve">
<metadata><?xpacket begin="﻿" id="W5M0MpCehiHzreSzNTczkc9d"?>
<x:xmpmeta xmlns:x="adobe:ns:meta/" x:xmptk="Adobe XMP Core 5.6-c067 79.157747, 2015/03/30-23:40:42        ">
   <rdf:RDF xmlns:rdf="http://www.w3.org/1999/02/22-rdf-syntax-ns#">
      <rdf:Description rdf:about=""/>
   </rdf:RDF>
</x:xmpmeta>
                                                                                                    
                                                                                                    
                                                                                                    
                                                                                                    
                                                                                                    
                                                                                                    
                                                                                                    
                                                                                                    
                                                                                                    
                                                                                                    
                                                                                                    
                                                                                                    
                                                                                                    
                                                                                                    
                                                                                                    
                                                                                                    
                                                                                                    
                                                                                                    
                                                                                                    
                                                                                                    
                           
<?xpacket end="w"?></metadata>
<style type="text/css">
	.st0{fill:#001689;}
</style>
<g>
	<g>
		<g>
			<g>
				<g>
					<g>
						<g>
							<path class="st0" d="M130.5,0.8l-3,0c4.9,6-1.7,14.4-9.1,18.3c-0.5,0.2-0.9,0.5-1.4,0.7h2.4C128.6,15.2,134.2,7.2,130.5,0.8z
								"/>
							<path class="st0" d="M136.4,0.7l-1.6,0c2.8,6.2-2.8,14.5-11.7,19h1.1C132.8,15.2,138.6,7.7,136.4,0.7z"/>
							<path class="st0" d="M133.8,0.7l-2,0c3.1,6.4-2.3,14.5-11.1,19h1.2C130.9,15.2,136.9,7.2,133.8,0.7z"/>
						</g>
					</g>
				</g>
			</g>
		</g>
	</g>
</g>
<path class="st0" d="M17.5,12.1c0.2-0.5,0.8-1.6,1.8-1.6c0.2,0,0.4,0.1,0.6,0.2c0.1,0.1,0.2,0.4,0.2,0.6c0,0.4-0.2,0.7-0.2,0.9
	l0,0.1h-2.4 M16.4,10.6c-1,1-1.5,2.5-1.5,3.7c0.1,1.5,1,2.5,2.5,2.6c1,0.1,1.9-0.2,2.4-0.5c0-0.1,0.5-1.1,0.7-1.5
	c-0.6,0.3-1.4,0.5-2.2,0.5c-0.7,0-1.2-0.3-1.3-1c0-0.1,0-0.2,0-0.3c0-0.3,0.1-0.5,0.1-0.7l0-0.1h4.4c0.2-0.5,0.4-1.4,0.4-2.1v0
	c0-0.7-0.2-1.2-0.5-1.6c-0.4-0.4-1-0.6-1.8-0.6C18.4,9.2,17.2,9.7,16.4,10.6z"/>
<path class="st0" d="M58.4,10.1c-0.4,0.4-0.7,1-0.7,1.6c0,0.6,0.2,1,0.5,1.4c0.2,0.4,0.4,0.7,0.4,1.2c0,0.3-0.1,0.5-0.3,0.6
	c-0.2,0.2-0.5,0.3-0.8,0.3c-0.5,0-1-0.2-1.4-0.6c-0.1,0.2-0.7,1.6-0.8,1.7c0.5,0.4,1.1,0.6,2,0.6c2.4,0.1,3.2-1.7,3.2-2.6
	c0-0.6-0.2-1.1-0.4-1.6c-0.2-0.4-0.4-0.7-0.4-1.1c0-0.3,0.2-0.8,1-0.8c0.5,0,0.9,0.2,1.2,0.4c0.1-0.2,0.6-1.4,0.7-1.6
	c-0.6-0.2-1.3-0.4-2-0.4C59.8,9.2,59,9.5,58.4,10.1"/>
<path class="st0" d="M9.6,10.3L9.6,10.3l1.3-3h1.3c0.5,0,0.9,0.1,1.1,0.3c0.2,0.2,0.2,0.4,0.2,0.6c0,1-1,2.1-3.2,2.1H9.7
	C9.6,10.3,9.6,10.3,9.6,10.3 M8.2,5.5C8.3,5.7,8.3,6,8.3,6.2c0,0.2,0,0.5-0.1,0.7l-3.9,8.9c-0.2,0.4-0.4,0.7-0.7,1h2.7
	c0.3,0,0.4-0.1,0.6-0.5c0,0,2.6-5.8,2.6-5.8l1.3,5.7c0.1,0.4,0.1,0.5,0.5,0.5H14c-0.2-0.2-0.4-0.5-0.5-1l-1.1-3.9l0.1,0
	c2.3-0.4,3.9-2,3.9-4c0-1.5-1.2-2.3-3.4-2.3H8.2z"/>
<path class="st0" d="M27.2,9.5c0,0.1,0.1,0.2,0.1,0.3c0,0.3-0.1,0.6-0.4,1L24.7,14l0.4-4.2c0-0.1,0-0.3-0.1-0.3c0,0-0.1-0.1-0.2-0.1
	h-2.3c0.2,0.2,0.3,0.5,0.3,0.9v0.1c0,0.7-0.2,5.8-0.2,6.1v0l-2.4,3.1c-0.1,0.2-0.3,0.3-0.4,0.4h2.1c0.4,0,0.5,0,0.7-0.3l7.2-9.7
	C29.9,9.8,30,9.7,30,9.6c0,0,0-0.1,0-0.1c0-0.1-0.1-0.1-0.2-0.1"/>
<path class="st0" d="M33.2,10.3L33,10.2l0.2-0.4c0.1-0.1,0.1-0.3,0-0.3c0,0-0.1-0.1-0.1-0.1h-2.1C31,9.6,31,9.7,31,9.8
	c0,0.1,0,0.3-0.1,0.4L28.4,16c-0.1,0.3-0.3,0.5-0.5,0.7h2.1c0.2,0,0.3-0.1,0.5-0.4l1.8-4c0.3-0.6,0.9-1.3,1.8-1.4
	c0.3,0,0.6,0.1,0.7,0.3c0.2,0.3,0,0.7,0,0.8l-2,4.4c-0.1,0.1-0.1,0.2,0,0.3c0,0.1,0.1,0.1,0.2,0.1h2.3c-0.1-0.1-0.1-0.3-0.1-0.5
	c0-0.2,0-0.4,0.2-0.7l1.7-3.7c0.1-0.3,0.3-0.6,0.3-1.2c0-0.1,0-0.1,0-0.2c0-0.3-0.1-0.6-0.3-0.8c-0.2-0.3-0.5-0.4-1-0.5
	C34.7,9.1,33.8,9.8,33.2,10.3"/>
<path class="st0" d="M50.9,15.1c-0.2-0.2-0.2-0.4-0.2-0.7c0.1-1.4,1.3-3.6,2.6-3.6c0.6,0,0.7,0.3,0.8,0.5c0,0.2,0,0.5-0.3,1.1
	L53,14.2c-0.2,0.6-0.8,1.2-1.5,1.2C51.3,15.4,51.1,15.3,50.9,15.1 M58.3,6.5h-2.4C56,6.7,56,6.9,56,7c0,0.2-0.1,0.4-0.2,0.6
	c0,0-1.1,2.5-1.1,2.5L54.7,10c-0.1-0.2-0.6-0.7-1.5-0.7c-1,0-2.1,0.5-3,1.5c-1.1,1.2-1.7,2.8-1.7,4.1c0.1,1.7,1.2,1.9,1.7,1.9
	c1,0.1,1.7-0.5,2.1-1l0.2,0.1l-0.1,0.3c-0.1,0.2-0.1,0.3,0,0.4c0,0,0.1,0.1,0.2,0.1h1.7c0-0.1-0.1-0.2-0.1-0.3c0-0.1,0-0.3,0.1-0.4
	l1.7-3.7l2.4-5.4c0.1-0.2,0.1-0.3,0.1-0.3c0,0,0-0.1,0-0.1C58.4,6.5,58.3,6.5,58.3,6.5z"/>
<path class="st0" d="M40.1,15.4c-0.5,0-0.8-0.3-0.8-0.8c-0.1-0.8,0.4-2.1,1.1-2.9c0.3-0.4,0.8-0.8,1.3-0.8c0.2,0,0.5,0,0.6,0.2
	c0.2,0.1,0.2,0.4,0.2,0.6c0,1-0.5,2.3-1.3,3.1C40.8,15.2,40.4,15.4,40.1,15.4 M41.8,9.2c-3.3,0.3-4.8,3.8-4.7,5.6
	c0.1,1.5,1.1,2.3,2.8,2.2c3.4-0.2,4.7-3.8,4.7-5.4c0-0.7-0.2-1.4-0.6-1.8C43.6,9.3,42.8,9.1,41.8,9.2z"/>
<path class="st0" d="M50.4,6.5H48C48,6.7,48.1,6.9,48.1,7c0,0.2-0.1,0.4-0.2,0.6L44.2,16c-0.1,0.3-0.3,0.5-0.5,0.7h2.1
	c0.2,0,0.3-0.1,0.5-0.4l4.2-9.4c0.1-0.2,0.1-0.3,0.1-0.3c0,0,0-0.1,0-0.1C50.5,6.5,50.4,6.5,50.4,6.5"/>
<g>
	<path class="st0" d="M61.9,16.8C61.9,16.8,61.9,16.7,61.9,16.8c0.2-0.1,0.8-0.6,1-1.3l3.1-8.7c0.2-0.7,0-1.2-0.2-1.2
		c0,0,0-0.1,0-0.1h3.6c0.1,0,0,0.1,0,0.1c-0.2,0-0.7,0.5-1,1.2l-3.1,8.7c-0.2,0.7,0,1.2,0.1,1.2c0.1,0,0,0.1,0,0.1H61.9z M69.4,16.8
		c-0.6,0-0.8-0.2-1.1-1.5l-0.9-4.8l3.7-3.3c1.1-1,1-1.4,0.8-1.4c0,0,0-0.1,0-0.1h3.5c0,0,0,0.1,0,0.1c-0.2,0-1.1,0.5-2.2,1.4
		L70.1,10l1.2,5.5c0.2,1,0.8,1.3,0.9,1.3c0,0,0,0.1,0,0.1H69.4z"/>
	<path class="st0" d="M71.5,16.8C71.5,16.8,71.5,16.7,71.5,16.8c0.2-0.1,0.8-0.6,1-1.3l2.1-5.9c0.3-0.7,0-1.2-0.2-1.2
		c0,0,0-0.1,0-0.1h3L75,15.6c-0.2,0.7,0,1.2,0.1,1.2c0.1,0,0,0.1,0,0.1H71.5z M76.4,7.8c-0.7,0-1-0.6-0.8-1.3c0.3-0.7,1-1.3,1.7-1.3
		c0.7,0,1,0.6,0.8,1.3C77.9,7.2,77.1,7.8,76.4,7.8z"/>
	<path class="st0" d="M80,16.8c-0.3,0.1-0.7,0.2-1.6,0.2c-1.1,0-2-0.7-1.4-2.3l1.8-5H78l0.2-0.6c1.2-0.5,3.1-2.2,3.6-2.6h0.5
		l-0.7,1.9h1.8l-0.7,1.4h-1.6l-1.6,4.4c-0.4,1.2,0.2,1.5,1.3,1.1c0.1,0,0.1,0,0.1,0L80,16.8z"/>
	<path class="st0" d="M86.8,16.4c-0.2,0.1-1.3,0.6-2.6,0.6c-2.4,0-3.6-1.7-2.6-4.4c0.8-2.3,3.1-4.3,5.7-4.3c0.7,0,1.7,0,2.1,0.4
		l-0.7,1.9c0,0-0.1,0-0.1,0c-0.1-0.1-0.4-0.9-1.4-0.9c-1.3,0-2.4,0.9-3.2,3c-0.7,2,0.1,2.9,1.3,2.9c1.1,0,2.3-0.9,2.5-1.1
		c0.1-0.1,0.1,0,0.1,0L86.8,16.4z"/>
	<path class="st0" d="M92.3,16.8C92.3,16.8,92.3,16.7,92.3,16.8c0.2-0.1,0.8-0.6,1-1.3l1.4-3.8c0.5-1.3,0.1-1.8-0.7-1.8
		c-0.6,0-1.5,0.5-2.1,2.1l-1.3,3.5c-0.2,0.7,0,1.2,0.1,1.2c0.1,0,0,0.1,0,0.1h-3.5c0,0,0-0.1,0-0.1c0.2,0,0.7-0.5,1-1.2l3.1-8.7
		c0.2-0.7,0-1.2-0.2-1.2c0,0,0-0.1,0-0.1h3L93,9.1c0.3-0.2,1.2-0.9,2.7-0.9c1.4,0,2.5,0.6,1.6,3.2l-1.5,4.1c-0.2,0.7,0,1.2,0.2,1.2
		c0,0,0,0.1,0,0.1H92.3z"/>
	<path class="st0" d="M100.1,12.8c-0.6,1.8,0.1,2.7,1.5,2.7c1.2,0,2.7-0.9,3-1.1c0.1-0.1,0.1,0,0.1,0l-1.1,1.9
		c-0.4,0.1-1.2,0.7-3,0.7c-2.5,0-3.7-1.7-2.8-4.5c0.9-2.4,3.1-4.3,5.6-4.3c2.6,0,3.1,2.4,2.1,4.6H100.1z M102.8,9.5
		c-0.9,0-1.7,0.7-2.2,2h2.8C103.9,10.2,103.7,9.5,102.8,9.5z"/>
	<path class="st0" d="M109.4,16.8C109.4,16.8,109.4,16.7,109.4,16.8c0.2-0.1,0.8-0.6,1-1.3l1.4-3.9c0.3-0.9,0.2-1.7-0.7-1.7
		c-0.9,0-1.7,0.9-1.9,1.7l-1.4,3.9c-0.2,0.7,0,1.2,0.1,1.2c0.1,0,0,0.1,0,0.1h-3.5c0,0,0-0.1,0-0.1c0.2,0,0.7-0.5,1-1.2l2.1-5.9
		c0.3-0.7,0-1.2-0.2-1.2c0,0,0-0.1,0-0.1h2.9L110,9.2c0.4-0.3,1.2-1,2.7-1c1.9,0,2.2,1.5,1.5,3.3l-1.4,4c-0.2,0.7,0,1.2,0.1,1.2
		c0.1,0,0,0.1,0,0.1H109.4z"/>
	<path class="st0" d="M116.5,17c-1.3,0-2.5-0.4-2.9-0.5l0.5-2c0-0.1,0.1-0.1,0.1,0c0.3,0.5,1.5,1.1,2.5,1.1c0.9,0,1.5-0.3,1.7-0.9
		c0.3-0.8-0.6-1-1.6-1.4c-0.8-0.3-1.7-0.9-1.2-2.4c0.6-1.7,2.3-2.7,4.4-2.7c1.3,0,1.9,0.2,2.3,0.3l-0.6,1.8c0,0.1-0.1,0.1-0.1,0
		c-0.3-0.4-1.2-0.8-1.7-0.8c-0.5,0-1.2,0.1-1.5,0.8c-0.3,0.7,0.6,1,1.2,1.2c1.2,0.4,2.2,1,1.5,2.7C120.4,16,118.4,17,116.5,17z"/>
</g>
</svg>
