<?xml version="1.0" encoding="utf-8"?>
<!-- Generator: Adobe Illustrator 18.1.1, SVG Export Plug-In . SVG Version: 6.00 Build 0)  -->
<svg version="1.1" id="Layer_1" xmlns="http://www.w3.org/2000/svg" xmlns:xlink="http://www.w3.org/1999/xlink" x="0px" y="0px"
	 width="970px" height="90px" viewBox="0 0 970 90" enable-background="new 0 0 970 90" xml:space="preserve">
<path fill="#FFFFFF" d="M236.1,27.1v-5h-5v2.2h2.6v1.7c-0.6,0.5-1.5,0.7-2.4,0.7c-2.1,0-3.5-1.6-3.5-3.7v0c0-2,1.5-3.6,3.3-3.6
	c1.3,0,2.1,0.4,3,1.2l1.6-1.9c-1.2-1-2.5-1.6-4.5-1.6c-3.5,0-6.1,2.7-6.1,6v0c0,3.4,2.5,6,6.1,6C233.2,28.9,234.9,28.1,236.1,27.1z"
	/>
<path fill="#FFFFFF" d="M248.2,28.7l-2.8-4.1c1.5-0.5,2.5-1.7,2.5-3.6v0c0-2.4-1.6-3.8-4.4-3.8h-5.3v11.6h2.5V25h2l2.5,3.7H248.2z
	 M245.3,21.1c0,1-0.7,1.6-2,1.6h-2.6v-3.3h2.5C244.5,19.4,245.3,20,245.3,21.1L245.3,21.1z"/>
<path fill="#FFFFFF" d="M252.5,28.7V17.1h-2.5v11.6H252.5z"/>
<path fill="#FFFFFF" d="M263.4,28.7v-2.3h-5.8v-9.3H255v11.6H263.4z"/>
<path fill="#FFFFFF" d="M273.3,28.7v-2.3h-5.8v-9.3h-2.5v11.6H273.3z"/>
<path fill="#FFFFFF" d="M283.7,28.7v-2.3h-6.3V24h5.5v-2.3h-5.5v-2.3h6.2v-2.3h-8.7v11.6H283.7z"/>
<path fill="#FFFFFF" d="M296.3,22.9L296.3,22.9c0-3.3-2.5-5.8-6.2-5.8h-4.5v11.6h4.5C293.7,28.7,296.3,26.2,296.3,22.9z M293.6,22.9
	c0,2.1-1.4,3.5-3.5,3.5h-2v-7h2C292.2,19.4,293.6,20.9,293.6,22.9L293.6,22.9z"/>
<path fill="#FFFFFF" d="M311.2,25.3L311.2,25.3c0-2.1-1.3-2.9-3.7-3.5c-2-0.5-2.5-0.8-2.5-1.5v0c0-0.6,0.5-1,1.5-1c1,0,2,0.4,3,1.1
	l1.3-1.9c-1.2-0.9-2.6-1.5-4.3-1.5c-2.4,0-4.1,1.4-4.1,3.5v0c0,2.3,1.5,2.9,3.8,3.5c1.9,0.5,2.3,0.8,2.3,1.5v0
	c0,0.7-0.6,1.1-1.7,1.1c-1.3,0-2.4-0.5-3.5-1.4L302,27c1.4,1.2,3.2,1.9,4.9,1.9C309.4,28.9,311.2,27.6,311.2,25.3z"/>
<path fill="#FFFFFF" d="M321.6,19.5v-2.3H312v2.3h3.5v9.2h2.5v-9.2H321.6z"/>
<path fill="#FFFFFF" d="M333.2,28.7l-2.8-4.1c1.5-0.5,2.5-1.7,2.5-3.6v0c0-2.4-1.6-3.8-4.4-3.8h-5.3v11.6h2.5V25h2l2.5,3.7H333.2z
	 M330.3,21.1c0,1-0.7,1.6-2,1.6h-2.6v-3.3h2.5C329.5,19.4,330.3,20,330.3,21.1L330.3,21.1z"/>
<path fill="#FFFFFF" d="M346.1,28.7l-5-11.7h-2.3l-5,11.7h2.6l1.1-2.6h4.9l1.1,2.6H346.1z M341.5,23.9h-3.1l1.5-3.8L341.5,23.9z"/>
<path fill="#FFFFFF" d="M362.7,17.1h-2.7l-2.4,7.8l-2.6-7.9h-2.2l-2.6,7.9l-2.4-7.8h-2.7l4,11.7h2.2l2.6-7.6l2.6,7.6h2.2L362.7,17.1
	z"/>
<path fill="#FFFFFF" d="M374.1,25.5L374.1,25.5c0-1.6-0.8-2.4-2.2-2.9c0.8-0.5,1.5-1.2,1.5-2.5v0c0-1.8-1.5-3-3.8-3h-5.4v11.6h5.5
	C372.4,28.7,374.1,27.6,374.1,25.5z M371,20.6c0,0.9-0.7,1.2-1.8,1.2h-2.3v-2.4h2.5C370.4,19.4,371,19.8,371,20.6L371,20.6z
	 M371.6,25.2c0,0.9-0.7,1.3-1.8,1.3h-3v-2.5h2.9C371,23.9,371.6,24.4,371.6,25.2L371.6,25.2z"/>
<path fill="#FFFFFF" d="M384.7,28.7v-2.3h-6.3V24h5.5v-2.3h-5.5v-2.3h6.2v-2.3h-8.7v11.6H384.7z"/>
<path fill="#FFFFFF" d="M396.6,28.7l-2.8-4.1c1.5-0.5,2.5-1.7,2.5-3.6v0c0-2.4-1.6-3.8-4.4-3.8h-5.3v11.6h2.5V25h2l2.5,3.7H396.6z
	 M393.7,21.1c0,1-0.7,1.6-2,1.6h-2.6v-3.3h2.5C393,19.4,393.7,20,393.7,21.1L393.7,21.1z"/>
<path fill="#FFFFFF" d="M408.3,28.7l-2.8-4.1c1.5-0.5,2.5-1.7,2.5-3.6v0c0-2.4-1.6-3.8-4.4-3.8h-5.3v11.6h2.5V25h2l2.5,3.7H408.3z
	 M405.3,21.1c0,1-0.7,1.6-2,1.6h-2.6v-3.3h2.5C404.6,19.4,405.3,20,405.3,21.1L405.3,21.1z"/>
<path fill="#FFFFFF" d="M419.7,17.1h-2.9l-2.8,4.6l-2.8-4.6h-3l4.4,7v4.6h2.5v-4.6L419.7,17.1z"/>
<path fill="#FFFFFF" d="M234,45.8L234,45.8c0-2.1-1.3-2.9-3.7-3.5c-2-0.5-2.5-0.8-2.5-1.5v0c0-0.6,0.5-1,1.5-1s2,0.4,3,1.1l1.3-1.9
	c-1.2-0.9-2.6-1.5-4.3-1.5c-2.4,0-4.1,1.4-4.1,3.5v0c0,2.3,1.5,2.9,3.8,3.5c1.9,0.5,2.3,0.8,2.3,1.5v0c0,0.7-0.6,1.1-1.7,1.1
	c-1.3,0-2.4-0.5-3.5-1.4l-1.5,1.8c1.4,1.2,3.2,1.9,4.9,1.9C232.3,49.4,234,48.1,234,45.8z"/>
<path fill="#FFFFFF" d="M245.7,49.2V37.7h-2.5v4.6h-4.7v-4.6h-2.5v11.6h2.5v-4.6h4.7v4.6H245.7z"/>
<path fill="#FFFFFF" d="M259.9,43.4L259.9,43.4c0-3.3-2.6-6-6.1-6c-3.6,0-6.2,2.7-6.2,6v0c0,3.3,2.6,6,6.1,6
	C257.3,49.4,259.9,46.7,259.9,43.4z M257.3,43.5c0,2-1.4,3.6-3.5,3.6c-2.1,0-3.5-1.7-3.5-3.6v0c0-2,1.4-3.6,3.5-3.6
	C255.8,39.8,257.3,41.5,257.3,43.5L257.3,43.5z"/>
<path fill="#FFFFFF" d="M271.9,49.2l-2.8-4.1c1.5-0.5,2.5-1.7,2.5-3.6v0c0-2.4-1.6-3.8-4.4-3.8h-5.3v11.6h2.5v-3.7h2l2.5,3.7H271.9z
	 M268.9,41.6c0,1-0.7,1.6-2,1.6h-2.6v-3.3h2.5C268.2,39.9,268.9,40.5,268.9,41.6L268.9,41.6z"/>
<path fill="#FFFFFF" d="M282.2,40v-2.3h-9.6V40h3.5v9.2h2.5V40H282.2z"/>
<path fill="#FFFFFF" d="M293.5,47.4l-1.6-1.6c-0.9,0.8-1.7,1.4-3,1.4c-2,0-3.4-1.7-3.4-3.6v0c0-2,1.4-3.6,3.4-3.6
	c1.2,0,2.1,0.5,3,1.3l1.6-1.9c-1.1-1.1-2.4-1.8-4.6-1.8c-3.6,0-6,2.7-6,6v0c0,3.3,2.5,6,5.9,6C291,49.4,292.3,48.6,293.5,47.4z"/>
<path fill="#FFFFFF" d="M306.5,49.2l-5-11.7h-2.3l-5,11.7h2.6l1.1-2.6h4.9l1.1,2.6H306.5z M301.9,44.4h-3.1l1.5-3.8L301.9,44.4z"/>
<path fill="#FFFFFF" d="M318.5,49.2l-4.9-6.7l4.7-4.9h-3.1l-4.7,5.1v-5.1H308v11.6h2.5v-3.5l1.3-1.4l3.6,4.9H318.5z"/>
<path fill="#FFFFFF" d="M328.5,49.2V47h-6.3v-2.4h5.5v-2.3h-5.5v-2.3h6.2v-2.3h-8.7v11.6H328.5z"/>
<path fill="#FFFFFF" d="M351.7,37.7h-2.7l-2.4,7.8l-2.6-7.9h-2.2l-2.6,7.9l-2.4-7.8h-2.7l4,11.7h2.2l2.6-7.6l2.6,7.6h2.2L351.7,37.7
	z"/>
<path fill="#FFFFFF" d="M356,49.2V37.7h-2.5v11.6H356z"/>
<path fill="#FFFFFF" d="M367.3,40v-2.3h-9.6V40h3.5v9.2h2.5V40H367.3z"/>
<path fill="#FFFFFF" d="M378.7,49.2V37.7h-2.5v4.6h-4.7v-4.6h-2.5v11.6h2.5v-4.6h4.7v4.6H378.7z"/>
<path fill="#FFFFFF" d="M394.1,45.8L394.1,45.8c0-2.1-1.3-2.9-3.7-3.5c-2-0.5-2.5-0.8-2.5-1.5v0c0-0.6,0.5-1,1.5-1s2,0.4,3,1.1
	l1.3-1.9c-1.2-0.9-2.6-1.5-4.3-1.5c-2.4,0-4.1,1.4-4.1,3.5v0c0,2.3,1.5,2.9,3.8,3.5c1.9,0.5,2.3,0.8,2.3,1.5v0
	c0,0.7-0.6,1.1-1.7,1.1c-1.3,0-2.4-0.5-3.5-1.4l-1.5,1.8c1.4,1.2,3.2,1.9,4.9,1.9C392.4,49.4,394.1,48.1,394.1,45.8z"/>
<path fill="#FFFFFF" d="M412.3,37.7h-2.7l-2.4,7.8l-2.6-7.9h-2.2l-2.6,7.9l-2.4-7.8h-2.7l4,11.7h2.2l2.6-7.6l2.6,7.6h2.2L412.3,37.7
	z"/>
<path fill="#FFFFFF" d="M422.6,49.2V47h-6.3v-2.4h5.5v-2.3h-5.5v-2.3h6.2v-2.3h-8.7v11.6H422.6z"/>
<path fill="#FFFFFF" d="M433.4,49.2V47h-6.3v-2.4h5.5v-2.3h-5.5v-2.3h6.2v-2.3h-8.7v11.6H433.4z"/>
<path fill="#FFFFFF" d="M444.1,40v-2.3h-9.6V40h3.5v9.2h2.5V40H444.1z"/>
<path fill="#FFFFFF" d="M460.5,47.4l-1.6-1.6c-0.9,0.8-1.7,1.4-3,1.4c-2,0-3.4-1.7-3.4-3.6v0c0-2,1.4-3.6,3.4-3.6
	c1.2,0,2.1,0.5,3,1.3l1.6-1.9c-1.1-1.1-2.4-1.8-4.6-1.8c-3.6,0-6,2.7-6,6v0c0,3.3,2.5,6,5.9,6C458,49.4,459.3,48.6,460.5,47.4z"/>
<path fill="#FFFFFF" d="M472.2,49.2l-2.8-4.1c1.5-0.5,2.5-1.7,2.5-3.6v0c0-2.4-1.6-3.8-4.4-3.8h-5.3v11.6h2.5v-3.7h2l2.5,3.7H472.2z
	 M469.3,41.6c0,1-0.7,1.6-2,1.6h-2.6v-3.3h2.5C468.5,39.9,469.3,40.5,469.3,41.6L469.3,41.6z"/>
<path fill="#FFFFFF" d="M482.6,49.2V47h-6.3v-2.4h5.5v-2.3h-5.5v-2.3h6.2v-2.3h-8.7v11.6H482.6z"/>
<path fill="#FFFFFF" d="M495.8,49.2l-5-11.7h-2.3l-5,11.7h2.6l1.1-2.6h4.9l1.1,2.6H495.8z M491.2,44.4h-3.1l1.5-3.8L491.2,44.4z"/>
<path fill="#FFFFFF" d="M508.9,49.2V37.7h-2.7l-3,4.9l-3-4.9h-2.7v11.6h2.5v-7.5l3.2,4.9h0.1l3.3-4.9v7.6H508.9z"/>
</svg>
