<?xml version="1.0" encoding="utf-8"?>
<!-- Generator: Adobe Illustrator 18.1.1, SVG Export Plug-In . SVG Version: 6.00 Build 0)  -->
<svg version="1.1" id="Layer_1" xmlns="http://www.w3.org/2000/svg" xmlns:xlink="http://www.w3.org/1999/xlink" x="0px" y="0px"
	 viewBox="0 0 58 58" style="enable-background:new 0 0 58 58;" xml:space="preserve">
<path style="fill:#FFFFFF;" d="M29,0C13,0,0,13,0,29c0,16,13,29,29,29c16,0,29-13,29-29C58,13,45,0,29,0z M42.2,34L26.1,47.1
	c-0.9,0.7-2,1.1-3.1,1.1c-1.5,0-2.9-0.6-3.9-1.9c-1.7-2.1-1.4-5.3,0.7-7l11.7-9.5l-12-11.3c-2-1.9-2.1-5.1-0.2-7.1
	c1.9-2,5.1-2.1,7.1-0.2l16.2,15.2c1,1,1.6,2.4,1.6,3.8C44,31.7,43.3,33.1,42.2,34z"/>
</svg>
