<?xml version="1.0" encoding="utf-8"?>
<!-- Generator: Adobe Illustrator 18.1.1, SVG Export Plug-In . SVG Version: 6.00 Build 0)  -->
<svg version="1.1" id="Layer_1" xmlns="http://www.w3.org/2000/svg" xmlns:xlink="http://www.w3.org/1999/xlink" x="0px" y="0px"
	 viewBox="0 0 215.9 66.7" enable-background="new 0 0 215.9 66.7" xml:space="preserve">
<g>
	<defs>
		<rect id="SVGID_1_" width="215.9" height="66.7"/>
	</defs>
	<clipPath id="SVGID_2_">
		<use xlink:href="#SVGID_1_"  overflow="visible"/>
	</clipPath>
	<path clip-path="url(#SVGID_2_)" fill="#FFFFFF" d="M170.8,66.7h14.6l14.2-1.2l14.9-64.4H213H17.4h-1L1.5,65.5h43.9
		c12,0,16.7-3.2,19.4-4.8c1.8,1.3,6.6,4.8,18.4,4.8L170.8,66.7z"/>
	<polygon clip-path="url(#SVGID_2_)" fill="#110352" points="68.2,11.4 58.4,52.9 59.3,54 69.7,10.2 	"/>
	<path clip-path="url(#SVGID_2_)" fill="#4F6DA7" d="M48.3,35.9C47.7,38.4,43.9,54,43.9,54l1.5-1.2l4.3-18.1L48.3,35.9z"/>
	<path clip-path="url(#SVGID_2_)" fill="#110352" d="M35.8,34.7l-4.2,18.1l0.9,1.2c0,0,3.9-16.5,4.2-18.1L35.8,34.7z"/>
	<polygon clip-path="url(#SVGID_2_)" fill="#4F6DA7" points="27.5,10.2 17.1,54 18.6,52.9 28.4,11.4 	"/>
	<path clip-path="url(#SVGID_2_)" fill="#110352" d="M41.4,11.4l-3.5,14.5l1.5-1.2c0.5-2.3,3.5-14.5,3.5-14.5L41.4,11.4z"/>
	<path clip-path="url(#SVGID_2_)" fill="#4F6DA7" d="M54.4,10.2c0,0-3.1,13-3.5,14.5l0.9,1.2l3.5-14.5L54.4,10.2z"/>
	<polygon clip-path="url(#SVGID_2_)" fill="#909FC9" points="54.4,10.2 55.3,11.4 68.2,11.4 69.7,10.2 	"/>
	<polygon clip-path="url(#SVGID_2_)" fill="#110352" points="58.4,52.9 45.4,52.9 43.9,54 59.3,54 	"/>
	<polygon clip-path="url(#SVGID_2_)" fill="#110352" points="35.8,34.7 36.8,35.9 48.3,35.9 49.7,34.7 	"/>
	<polygon clip-path="url(#SVGID_2_)" fill="#110352" points="31.6,52.9 18.6,52.9 17.1,54 32.5,54 	"/>
	<polygon clip-path="url(#SVGID_2_)" fill="#909FC9" points="41.4,10.2 27.5,10.2 28.4,11.4 41.4,11.4 42.9,10.2 	"/>
	<polygon clip-path="url(#SVGID_2_)" fill="#909FC9" points="50.9,24.7 39.4,24.7 37.9,25.9 51.8,25.9 	"/>
	<path clip-path="url(#SVGID_2_)" fill="#005DA2" d="M213,1.2H17.4h-1L1.5,65.5h43.9c12,0,16.7-3.2,19.4-4.8
		c1.8,1.3,6.6,4.8,18.4,4.8l88.6,0l26.4-41.2h-11l-11.7,19.8l-4.1-19.8l-19.1,0l2.2-10h-12.8c0,0-1,4.4-2.4,10h-13.7
		c0.7-2.8,1.1-4.7,1.1-4.7c0.4-1.6,2-4.2,5.7-4.2h2.7l0.9-4h-9.6c-6.8,0-11.2,2.9-12.9,8.6c0,0.1-7.6,32.9-7.6,32.9h13
		c0,0,2.9-12.4,5.2-21.9h13.7c-2,8.3-3.2,13.3-3.2,13.4c0,0-0.2,0.7-0.2,1.1c-0.3,4,2.2,7.7,8.6,7.7h11.2c0.3-1.1,0.7-2.6,1-4.2h-4
		c-4.1,0-4-2.9-3.7-4.5l3.1-13.5h9.9l6.5,24.9l-4.7,7.3H83.1c-13.4,0-16.9-4.6-17.3-5l-0.6-0.7l-0.9,0.7c-0.5,0.4-5.3,5-18.9,5H4.5
		C5.1,60.4,17.9,5.3,18.3,3.6h193.1c-0.6,2.8-13.3,57.8-13.7,59.6H176l-1.5,2.4h25.1l14.9-64.4H213z"/>
	<polygon clip-path="url(#SVGID_2_)" fill="#110352" points="1.5,65.5 0,66.7 45.3,66.7 45.3,65.5 	"/>
	<polygon clip-path="url(#SVGID_2_)" fill="#909FC9" points="6,62 4.5,63.1 45.3,63.1 45.3,62 	"/>
	<polygon clip-path="url(#SVGID_2_)" fill="#4F6DA7" points="15.5,0 0,66.7 1.5,65.5 16.4,1.2 	"/>
	<path clip-path="url(#SVGID_2_)" fill="#110352" d="M18.3,3.6C17.9,5.3,5.1,60.4,4.5,63.1L6,62C6.6,59.4,18.8,6.4,19.2,4.7
		L18.3,3.6z"/>
	<path clip-path="url(#SVGID_2_)" fill="#110352" d="M45.3,65.5v1.2c11.4,0,15.9-2.6,19.3-4.6l0.2-1.4
		C62.1,62.3,57.3,65.5,45.3,65.5"/>
	<path clip-path="url(#SVGID_2_)" fill="#909FC9" d="M63.6,57.2L63.6,57.2c-0.7,0.6-5.5,4.7-18.3,4.7v1.2c13.6,0,18.4-4.6,18.9-5
		l0.9-0.7l0.2-1.5L63.6,57.2z"/>
</g>
<g>
	<defs>
		<path id="SVGID_3_" d="M64.6,62.1c2.5,2.1,7.5,4.6,18.5,4.6v-1.2c-11.8,0-16.3-3-18.4-4.8L64.6,62.1z"/>
	</defs>
	<clipPath id="SVGID_4_">
		<use xlink:href="#SVGID_3_"  overflow="visible"/>
	</clipPath>
	
		<linearGradient id="SVGID_5_" gradientUnits="userSpaceOnUse" x1="0" y1="66.7467" x2="1" y2="66.7467" gradientTransform="matrix(17.7093 5.6964 5.6964 -17.7093 -315.1904 1242.8975)">
		<stop  offset="0" style="stop-color:#4F6DA7"/>
		<stop  offset="1" style="stop-color:#110352"/>
	</linearGradient>
	<polygon clip-path="url(#SVGID_4_)" fill="url(#SVGID_5_)" points="66.3,55.3 84.9,61.3 81.4,72.1 62.9,66.1 	"/>
</g>
<g>
	<defs>
		<path id="SVGID_6_" d="M65.2,57.5l0.6,0.7c0.4,0.4,3.9,5,17.3,5V62c-12.1,0-15.6-3.8-16.4-4.6l0,0l-0.1-0.1l-1.3-1.4L65.2,57.5z"
			/>
	</defs>
	<clipPath id="SVGID_7_">
		<use xlink:href="#SVGID_6_"  overflow="visible"/>
	</clipPath>
	
		<linearGradient id="SVGID_8_" gradientUnits="userSpaceOnUse" x1="0" y1="66.6486" x2="1" y2="66.6486" gradientTransform="matrix(-16.3686 -5.5442 -5.5442 16.3686 452.4422 -1028.4312)">
		<stop  offset="0" style="stop-color:#909FC9"/>
		<stop  offset="1" style="stop-color:#4F6DA7"/>
	</linearGradient>
	<polygon clip-path="url(#SVGID_7_)" fill="url(#SVGID_8_)" points="81.3,68.6 63,62.4 67,50.5 85.3,56.7 	"/>
</g>
<g>
	<defs>
		<rect id="SVGID_9_" width="215.9" height="66.7"/>
	</defs>
	<clipPath id="SVGID_10_">
		<use xlink:href="#SVGID_9_"  overflow="visible"/>
	</clipPath>
	<polygon clip-path="url(#SVGID_10_)" fill="#110352" points="150.7,30.9 151.6,32.1 159.6,32.1 160.5,30.9 	"/>
	<polygon clip-path="url(#SVGID_10_)" fill="#110352" points="154.2,53.2 143,53.2 143,54.3 155.2,54.3 	"/>
</g>
<g>
	<defs>
		<path id="SVGID_11_" d="M151.2,48.9v-1.2c-2,0-2.6-1-2.6-2.5c0-0.2,0-0.4,0.1-0.6l-1.1-0.2C147.2,46.1,147.1,48.9,151.2,48.9"/>
	</defs>
	<clipPath id="SVGID_12_">
		<use xlink:href="#SVGID_11_"  overflow="visible"/>
	</clipPath>
	
		<linearGradient id="SVGID_13_" gradientUnits="userSpaceOnUse" x1="0" y1="66.6472" x2="1" y2="66.6472" gradientTransform="matrix(-2.3171 -1.9169 -1.9169 2.3171 278.6927 -106.2659)">
		<stop  offset="0" style="stop-color:#909FC9"/>
		<stop  offset="0.5" style="stop-color:#4F6DA7"/>
		<stop  offset="1" style="stop-color:#110352"/>
	</linearGradient>
	<polygon clip-path="url(#SVGID_12_)" fill="url(#SVGID_13_)" points="149.6,51 144.9,47.1 148.8,42.4 153.4,46.3 	"/>
</g>
<g>
	<defs>
		<path id="SVGID_14_" d="M133.3,44.9c-0.6,4.5,1.9,9.4,9.7,9.4v-1.2c-6.5,0-9-3.7-8.6-7.7c0-0.4,0.2-1.1,0.2-1.1l-1-0.6
			C133.5,43.9,133.4,44.4,133.3,44.9"/>
	</defs>
	<clipPath id="SVGID_15_">
		<use xlink:href="#SVGID_14_"  overflow="visible"/>
	</clipPath>
	
		<linearGradient id="SVGID_16_" gradientUnits="userSpaceOnUse" x1="0" y1="66.8412" x2="1" y2="66.8412" gradientTransform="matrix(6.3362 5.0162 5.0162 -6.3362 -200.6367 469.9909)">
		<stop  offset="0" style="stop-color:#4F6DA7"/>
		<stop  offset="1" style="stop-color:#110352"/>
	</linearGradient>
	<polygon clip-path="url(#SVGID_15_)" fill="url(#SVGID_16_)" points="136.7,38.7 148.2,47.8 139,59.3 127.6,50.2 	"/>
</g>
<g>
	<defs>
		<rect id="SVGID_17_" width="215.9" height="66.7"/>
	</defs>
	<clipPath id="SVGID_18_">
		<use xlink:href="#SVGID_17_"  overflow="visible"/>
	</clipPath>
	<polygon clip-path="url(#SVGID_18_)" fill="#110352" points="124.1,30.9 125,32.1 136.3,32.1 137.8,30.9 	"/>
	<polygon clip-path="url(#SVGID_18_)" fill="#110352" points="118.9,52.9 105.9,52.9 104.4,54.1 119.8,54.1 	"/>
	<polygon clip-path="url(#SVGID_18_)" fill="#909FC9" points="126.4,10.2 126.4,11.4 136,11.4 137.5,10.2 	"/>
	<polygon clip-path="url(#SVGID_18_)" fill="#110352" points="135,15.4 132.4,15.4 132.4,16.6 136,16.6 	"/>
	<polygon clip-path="url(#SVGID_18_)" fill="#909FC9" points="138.4,23.2 127.1,23.2 125.6,24.4 139.3,24.4 	"/>
	<polygon clip-path="url(#SVGID_18_)" fill="#909FC9" points="140.8,13.2 141.7,14.4 154.5,14.4 155.9,13.2 	"/>
	<path clip-path="url(#SVGID_18_)" fill="#909FC9" d="M153.7,23.2l-1.5,1.2l19.1,0l1-1.2C172.4,23.2,156.2,23.2,153.7,23.2"/>
	<polygon clip-path="url(#SVGID_18_)" fill="#909FC9" points="186.5,23.2 187.2,24.3 198.2,24.3 200.3,23.2 	"/>
	<polygon clip-path="url(#SVGID_18_)" fill="#110352" points="171.8,65.5 83.1,65.5 83.1,66.7 172.4,66.7 	"/>
	<polygon clip-path="url(#SVGID_18_)" fill="#110352" points="199.6,65.5 174.5,65.5 172.4,66.7 200.5,66.7 	"/>
	<polygon clip-path="url(#SVGID_18_)" fill="#909FC9" points="196.8,62 175.4,62 176,63.1 197.7,63.1 	"/>
	<polygon clip-path="url(#SVGID_18_)" fill="#110352" points="18.3,3.6 19.2,4.7 210,4.7 211.4,3.6 	"/>
	<polygon clip-path="url(#SVGID_18_)" fill="#909FC9" points="161.7,62 83.1,62 83.1,63.1 162.3,63.1 	"/>
	<polygon clip-path="url(#SVGID_18_)" fill="#110352" points="214.5,1.2 199.6,65.5 200.5,66.7 215.9,0 	"/>
	<path clip-path="url(#SVGID_18_)" fill="#4F6DA7" d="M210,4.7c-0.6,2.4-12.8,55.5-13.2,57.2l0.9,1.2c0.4-1.8,13.1-56.8,13.7-59.6
		L210,4.7z"/>
	<path clip-path="url(#SVGID_18_)" fill="#4F6DA7" d="M160.5,30.9l-0.9,1.2c0.4,1.6,6,22.7,6.2,23.5l1.2,0.2L160.5,30.9z"/>
	<path clip-path="url(#SVGID_18_)" fill="#110352" d="M150.7,30.9l-3.1,13.5l1.1,0.2c0,0,2.2-9.6,2.9-12.6L150.7,30.9z"/>
	<path clip-path="url(#SVGID_18_)" fill="#110352" d="M155.3,48.9c-0.4,1.6-0.8,3.1-1,4.2l0.9,1.2l1.6-6.5L155.3,48.9z"/>
	<path clip-path="url(#SVGID_18_)" fill="#4F6DA7" d="M136.3,32.1c-2.9,12.1-2.7,11.4-2.8,11.6l1,0.6c0-0.1,1.2-5.1,3.2-13.4
		L136.3,32.1z"/>
	<path clip-path="url(#SVGID_18_)" fill="#110352" d="M124.1,30.9c-2.3,9.6-5.2,21.9-5.2,21.9l0.9,1.2c0,0,4.8-20.3,5.2-21.9
		L124.1,30.9z"/>
</g>
<g>
	<defs>
		<path id="SVGID_19_" d="M112.4,19.7l1.1,0.3c1.7-5.7,6-8.6,12.9-8.6v-1.2C119.1,10.2,114.3,13.5,112.4,19.7"/>
	</defs>
	<clipPath id="SVGID_20_">
		<use xlink:href="#SVGID_19_"  overflow="visible"/>
	</clipPath>
	
		<linearGradient id="SVGID_21_" gradientUnits="userSpaceOnUse" x1="0" y1="66.6476" x2="1" y2="66.6476" gradientTransform="matrix(11.8587 -9.2007 -9.2007 -11.8587 726.6168 810.14)">
		<stop  offset="0" style="stop-color:#4F6DA7"/>
		<stop  offset="1" style="stop-color:#909FC9"/>
	</linearGradient>
	<polygon clip-path="url(#SVGID_20_)" fill="url(#SVGID_21_)" points="107.7,13.9 121.2,3.5 131.1,16.3 117.7,26.8 	"/>
</g>
<g>
	<defs>
		<rect id="SVGID_22_" width="215.9" height="66.7"/>
	</defs>
	<clipPath id="SVGID_23_">
		<use xlink:href="#SVGID_22_"  overflow="visible"/>
	</clipPath>
	<polygon clip-path="url(#SVGID_23_)" fill="#110352" points="136,11.4 135,15.4 136,16.6 137.5,10.2 	"/>
	<path clip-path="url(#SVGID_23_)" fill="#110352" d="M126.7,19.7c0,0-0.4,1.9-1.1,4.7l1.5-1.2c0.3-1.1,0.8-3.3,0.8-3.3
		c0.3-1.3,1.6-3.3,4.5-3.3v-1.2C128.7,15.4,127.1,18.1,126.7,19.7"/>
	<path clip-path="url(#SVGID_23_)" fill="#4F6DA7" d="M140.8,13.2c0,0-2,8.5-2.4,10l0.9,1.2c1.3-5.6,2.4-10,2.4-10L140.8,13.2z"/>
	<path clip-path="url(#SVGID_23_)" fill="#110352" d="M154.5,14.4l-2.2,10l1.5-1.2c0.5-2.1,2.2-10,2.2-10L154.5,14.4z"/>
	<path clip-path="url(#SVGID_23_)" fill="#110352" d="M172.4,23.2l-1,1.2l4.1,19.8L176,41C175.1,36.9,172.4,23.2,172.4,23.2"/>
	<polygon clip-path="url(#SVGID_23_)" fill="#110352" points="198.2,24.3 171.8,65.5 172.4,66.7 200.3,23.2 	"/>
	<path clip-path="url(#SVGID_23_)" fill="#4F6DA7" d="M186.5,23.2c0,0-8.2,14-10.5,17.9l-0.5,3.1l11.7-19.8L186.5,23.2z"/>
	<path clip-path="url(#SVGID_23_)" fill="#909FC9" d="M165.7,55.6c-0.4,0.7-3.4,5.4-4,6.3l0.6,1.2l4.7-7.3L165.7,55.6z"/>
	<polygon clip-path="url(#SVGID_23_)" fill="#4F6DA7" points="175.4,62 172.4,66.7 174.5,65.5 176,63.1 	"/>
	<polygon clip-path="url(#SVGID_23_)" fill="#00498F" points="55.3,11.4 51.8,25.9 37.9,25.9 41.4,11.4 28.4,11.4 18.6,52.9 
		31.6,52.9 35.8,34.7 49.7,34.7 45.4,52.9 58.4,52.9 68.2,11.4 	"/>
	<path clip-path="url(#SVGID_23_)" fill="#00498F" d="M213,1.2H17.4h-1L1.5,65.5h43.9c12,0,16.7-3.2,19.4-4.8
		c2.2,2,6.6,4.8,18.4,4.8l88.6,0l26.4-41.2h-11l-11.7,19.8l-4.1-19.8l-19.1,0l2.2-10h-12.8c0,0-1,4.4-2.4,10h-13.7
		c0.7-2.8,1.1-4.7,1.1-4.7c0.4-1.6,2-4.2,5.7-4.2h2.7l0.9-4h-9.6c-6.8,0-11.2,2.9-12.9,8.6c0,0.1-7.6,32.9-7.6,32.9h13
		c0,0,2.9-12.4,5.2-21.9h13.7c-2,8.3-3.2,13.3-3.2,13.4c0,0-0.2,0.7-0.2,1.1c-0.3,4,2.2,7.7,8.6,7.7h11.2c0.3-1.1,0.7-2.6,1-4.2h-4
		c-4.1,0-4-2.9-3.7-4.5l3.1-13.5h9.9l6.5,24.9l-4.7,7.3H83.1c-13.4,0-16.9-4.6-17.3-5l-0.6-0.7l-0.9,0.7c-0.5,0.4-5.3,5-18.9,5H4.5
		C5.1,60.4,17.9,5.3,18.3,3.6h193.1c-0.6,2.8-13.3,57.8-13.7,59.6H176l-1.5,2.4h25.1l14.9-64.4H213z"/>
	<polygon clip-path="url(#SVGID_23_)" fill="#909FC9" points="151.2,47.8 151.2,48.9 155.3,48.9 156.7,47.8 	"/>
	<path clip-path="url(#SVGID_23_)" fill="#4F6DA7" d="M112.4,19.7c0,0.1,0,0.1-7.7,32.9l-0.3,1.4l1.5-1.2c0,0,7.6-32.8,7.7-32.9
		L112.4,19.7z"/>
	<path clip-path="url(#SVGID_23_)" fill="#110352" d="M189.2,50.9c0-1.2,0.9-2.1,2.1-2.1c1.2,0,2.1,0.9,2.1,2.1
		c0,1.2-0.9,2.1-2.1,2.1C190.2,53,189.2,52.1,189.2,50.9 M191.3,53.4c1.4,0,2.6-1.1,2.6-2.6c0-1.5-1.2-2.6-2.6-2.6
		c-1.4,0-2.6,1.1-2.6,2.6C188.7,52.3,189.9,53.4,191.3,53.4 M190.8,51.1h0.5l0.8,1.3h0.5l-0.8-1.3c0.4-0.1,0.8-0.3,0.8-0.8
		c0-0.6-0.3-0.8-1-0.8h-1.1v3h0.5V51.1z M190.8,50.7v-0.9h0.6c0.3,0,0.6,0.1,0.6,0.4c0,0.5-0.3,0.5-0.7,0.5H190.8z"/>
	<polygon clip-path="url(#SVGID_23_)" fill="#909FC9" points="15.5,0 16.4,1.2 214.5,1.2 215.9,0 	"/>
</g>
<g>
	<defs>
		<path id="SVGID_24_" d="M78.8,41.3c-0.2,0.9-0.2,1.8-0.2,2.6c0.2,2.7,2,4.6,5.6,4.6v-1.2c-3.1,0-4.3-1.7-4.4-3.5
			c0-0.6,0-1.4,0.1-2.1l-1-1.2L78.8,41.3z"/>
	</defs>
	<clipPath id="SVGID_25_">
		<use xlink:href="#SVGID_24_"  overflow="visible"/>
	</clipPath>
	
		<linearGradient id="SVGID_26_" gradientUnits="userSpaceOnUse" x1="0" y1="66.6" x2="1" y2="66.6" gradientTransform="matrix(-2.8722 -5.4817 -5.5707 2.8263 453.9329 -140.8987)">
		<stop  offset="0" style="stop-color:#4F6DA7"/>
		<stop  offset="5.618000e-03" style="stop-color:#4F6DA7"/>
		<stop  offset="1" style="stop-color:#110352"/>
	</linearGradient>
	<polygon clip-path="url(#SVGID_25_)" fill="url(#SVGID_26_)" points="79.8,50.7 75.3,42.2 83.1,38.3 87.6,46.8 	"/>
</g>
<g>
	<defs>
		<path id="SVGID_27_" d="M87.6,29.6c1.6,0,2.7,0.4,3.4,1.2c0.5,0.6,0.8,1.4,0.8,2.4c0,0,0,0.5-0.1,0.8l1.1,1.2
			c0.1-0.9,0.1-1.9,0.1-2c0-1.3-0.4-2.3-1.1-3.1c-0.9-1.1-2.3-1.6-4.2-1.6V29.6z"/>
	</defs>
	<clipPath id="SVGID_28_">
		<use xlink:href="#SVGID_27_"  overflow="visible"/>
	</clipPath>
	
		<linearGradient id="SVGID_29_" gradientUnits="userSpaceOnUse" x1="0" y1="66.8355" x2="1" y2="66.8355" gradientTransform="matrix(-4.7187 -4.2745 -4.1523 4.8575 370.055 -290.8181)">
		<stop  offset="0" style="stop-color:#4F6DA7"/>
		<stop  offset="1" style="stop-color:#110352"/>
	</linearGradient>
	<polygon clip-path="url(#SVGID_28_)" fill="url(#SVGID_29_)" points="90.6,37.8 84.4,32.2 89.9,25.7 96.1,31.3 	"/>
</g>
<g>
	<defs>
		<rect id="SVGID_30_" width="215.9" height="66.7"/>
	</defs>
	<clipPath id="SVGID_31_">
		<use xlink:href="#SVGID_30_"  overflow="visible"/>
	</clipPath>
	<path clip-path="url(#SVGID_31_)" fill="#110352" d="M103.6,40.5l-24.6,0l1,1.2c1.6,0,24.6,0,24.6,0L103.6,40.5z"/>
	<polygon clip-path="url(#SVGID_31_)" fill="#909FC9" points="91.7,33.9 81.7,33.9 80.2,35.1 92.8,35.1 	"/>
	<path clip-path="url(#SVGID_31_)" fill="#110352" d="M80.7,33.1c-0.2,0.4-0.3,0.9-0.6,2l1.6-1.2c0-0.1,0.1-0.2,0.1-0.3l0,0
		c0.9-2.4,3.2-4,5.7-4v-1.2C84.4,28.4,81.9,30.2,80.7,33.1"/>
</g>
<g>
	<defs>
		<path id="SVGID_32_" d="M88.7,22.8c5.1,0,9.6,1.3,12,3.7c2.1,2.2,3.5,5.3,3.4,9.5c0,0-0.1,2.4-0.5,4.5l0.9,1.2l0.2-0.7
			c0.4-1.8,0.6-3.6,0.6-5c0-4.5-1.4-8-3.8-10.3c-2.6-2.6-7.4-4.1-12.9-4.1L88.7,22.8z"/>
	</defs>
	<clipPath id="SVGID_33_">
		<use xlink:href="#SVGID_32_"  overflow="visible"/>
	</clipPath>
	
		<linearGradient id="SVGID_34_" gradientUnits="userSpaceOnUse" x1="0" y1="66.5716" x2="1" y2="66.5716" gradientTransform="matrix(11.6499 16.5154 16.7836 -11.4638 -1025.626 787.3162)">
		<stop  offset="0" style="stop-color:#909FC9"/>
		<stop  offset="0.1517" style="stop-color:#4F6DA7"/>
		<stop  offset="1" style="stop-color:#110352"/>
	</linearGradient>
	<polygon clip-path="url(#SVGID_33_)" fill="url(#SVGID_34_)" points="99.9,14 114.9,35.2 94.1,49.4 79.1,28.2 	"/>
</g>
<g>
	<defs>
		<path id="SVGID_35_" d="M73.1,26.5c-3.5,2.7-6,6.8-7.1,11.7l1.2,0.3c1-4.3,3.2-8.4,6.7-11.1c3.9-3,9.4-4.6,14.9-4.6l0-1.2
			C82.9,21.7,77.1,23.4,73.1,26.5"/>
	</defs>
	<clipPath id="SVGID_36_">
		<use xlink:href="#SVGID_35_"  overflow="visible"/>
	</clipPath>
	
		<linearGradient id="SVGID_37_" gradientUnits="userSpaceOnUse" x1="0" y1="66.6404" x2="1" y2="66.6404" gradientTransform="matrix(15.0066 -14.5725 -14.8091 -14.7668 1054.61 1023.5167)">
		<stop  offset="0" style="stop-color:#4F6DA7"/>
		<stop  offset="0.1629" style="stop-color:#4F6DA7"/>
		<stop  offset="0.7753" style="stop-color:#909FC9"/>
		<stop  offset="1" style="stop-color:#909FC9"/>
	</linearGradient>
	<polygon clip-path="url(#SVGID_36_)" fill="url(#SVGID_37_)" points="57.3,30 77.5,10.4 97.3,30.2 77.2,49.8 	"/>
</g>
<g>
	<defs>
		<path id="SVGID_38_" d="M68.6,51.2c3.1,2.8,7.6,4.3,13.9,4.3v-1.2c-6,0-10.2-1.4-13.1-4c-2.6-2.4-3.5-6.9-2.3-11.7l-1.2-0.3
			C64.7,43.5,65.7,48.5,68.6,51.2"/>
	</defs>
	<clipPath id="SVGID_39_">
		<use xlink:href="#SVGID_38_"  overflow="visible"/>
	</clipPath>
	
		<linearGradient id="SVGID_40_" gradientUnits="userSpaceOnUse" x1="0" y1="66.6016" x2="1" y2="66.6016" gradientTransform="matrix(-15.7964 -13.9895 -14.2167 15.5439 1028.8207 -980.9312)">
		<stop  offset="0" style="stop-color:#110352"/>
		<stop  offset="1" style="stop-color:#4F6DA7"/>
	</linearGradient>
	<polygon clip-path="url(#SVGID_39_)" fill="url(#SVGID_40_)" points="74.5,64.2 56,47.8 72.6,29.6 91.2,46 	"/>
</g>
<g>
	<defs>
		<rect id="SVGID_41_" width="215.9" height="66.7"/>
	</defs>
	<clipPath id="SVGID_42_">
		<use xlink:href="#SVGID_41_"  overflow="visible"/>
	</clipPath>
	<path clip-path="url(#SVGID_42_)" fill="#00498F" d="M91,45.2c-1.4,2.1-3.5,3.2-6.7,3.2c-3.6,0-5.4-2-5.6-4.6
		c-0.1-0.8,0-1.6,0.2-2.6l0.2-0.7l24.6,0c0.5-2.1,0.5-4.5,0.5-4.5c0.1-4.2-1.3-7.4-3.4-9.5c-2.4-2.4-6.9-3.7-12-3.7
		c-5.5,0-11,1.6-14.9,4.6c-3.5,2.7-5.7,6.8-6.7,11.1c-1.2,4.8-0.3,9.3,2.3,11.7c2.8,2.6,7.1,4,13.1,4c10.3,0,16.9-3.5,19.1-9.1H91z
		 M80.7,33.1c1.2-2.9,3.7-4.7,6.9-4.7c1.9,0,3.3,0.5,4.2,1.6c0.7,0.8,1.1,1.8,1.1,3.1c0,0.1,0,1.2-0.1,2l-12.6,0
		C80.4,34,80.5,33.5,80.7,33.1"/>
	<path clip-path="url(#SVGID_42_)" fill="#4F6DA7" d="M90.4,44l-0.3,0.5c-1.2,1.8-2.9,2.7-5.8,2.7v1.2c3.3,0,5.3-1.2,6.7-3.2
		L90.4,44z"/>
	<path clip-path="url(#SVGID_42_)" fill="#110352" d="M101.6,45.2c-2.2,5.6-8.8,9.1-19.1,9.1v1.2c10,0,17.6-3.4,20.2-9.7l0.7-1.8
		L101.6,45.2z"/>
	<polygon clip-path="url(#SVGID_42_)" fill="#909FC9" points="90.4,44 91,45.2 101.6,45.2 103.3,44 	"/>
</g>
</svg>
