<?xml version="1.0" encoding="utf-8"?>
<!-- Generator: Adobe Illustrator 18.1.1, SVG Export Plug-In . SVG Version: 6.00 Build 0)  -->
<svg version="1.1" id="Layer_1" xmlns="http://www.w3.org/2000/svg" xmlns:xlink="http://www.w3.org/1999/xlink" x="0px" y="0px"
	 width="300px" height="600px" viewBox="0 0 300 600" enable-background="new 0 0 300 600" xml:space="preserve">
<path fill="#211F5E" d="M231.6,571.6c2.5,0,4.6-0.9,6.1-2.1v-6.4H231v3h2.4v1.4c-0.4,0.2-0.8,0.3-1.6,0.3c-1.9,0-3.3-1.4-3.3-3.3v0
	c0-1.9,1.3-3.3,3.1-3.3c1.2,0,2.2,0.4,3.1,1.2l2.6-3.1c-1.5-1.3-3.4-2.1-5.8-2.1c-4.4,0-7.7,3.1-7.7,7.3v0
	C223.8,568.7,227.3,571.6,231.6,571.6z"/>
<path fill="#211F5E" d="M239.6,571.3h12v-3.8h-7.4V566h6.8v-3.4h-6.8v-1.4h7.3v-3.8h-11.9V571.3z"/>
<path fill="#211F5E" d="M256.9,571.3h4.7v-10h4.1v-3.9h-12.8v3.9h4.1V571.3z"/>
<path fill="#211F5E" d="M203.5,590.6c3.7,0,5.7-1.8,7-4l-4.1-2.3c-0.6,1.1-1.4,1.9-2.8,1.9c-1.6,0-2.8-1.3-2.8-3.3v0
	c0-1.8,1.1-3.2,2.8-3.2c1.3,0,2.1,0.7,2.7,1.8l4.1-2.4c-1.2-2.3-3.4-3.8-6.7-3.8c-4.4,0-7.8,3.3-7.8,7.7v0
	C195.9,587.5,199.5,590.6,203.5,590.6z"/>
<path fill="#211F5E" d="M219.3,590.6c4.6,0,8.1-3.4,8.1-7.7v0c0-4.3-3.5-7.6-8-7.6s-8.1,3.4-8.1,7.7v0
	C211.2,587.2,214.7,590.6,219.3,590.6z M219.3,586.3c-1.9,0-3.1-1.6-3.1-3.3v0c0-1.7,1.2-3.3,3.1-3.3c1.9,0,3.1,1.6,3.1,3.3v0
	C222.4,584.7,221.2,586.3,219.3,586.3z"/>
<path fill="#211F5E" d="M236.3,590.6c4.4,0,7.3-2,7.3-7v-8h-5v8.2c0,1.8-0.9,2.5-2.3,2.5s-2.3-0.8-2.3-2.6v-8.1h-5v8.1
	C229.1,588.6,231.9,590.6,236.3,590.6z"/>
<path fill="#211F5E" d="M245.8,590.3h4.9v-4h1.6c4,0,6.7-1.9,6.7-5.5v0c0-3.5-2.7-5.2-6.6-5.2h-6.6V590.3z M250.7,582.8v-3.3h1.3
	c1.3,0,2.1,0.5,2.1,1.6v0c0,1.1-0.8,1.6-2.1,1.6H250.7z"/>
<path fill="#211F5E" d="M268.3,590.6c4.6,0,8.1-3.4,8.1-7.7v0c0-4.3-3.5-7.6-8-7.6s-8.1,3.4-8.1,7.7v0
	C260.2,587.2,263.7,590.6,268.3,590.6z M268.3,586.3c-1.9,0-3.1-1.6-3.1-3.3v0c0-1.7,1.2-3.3,3.1-3.3c1.9,0,3.1,1.6,3.1,3.3v0
	C271.4,584.7,270.2,586.3,268.3,586.3z"/>
<path fill="#211F5E" d="M278.2,590.3h4.9v-6.8l5.5,6.8h4.4v-14.7h-4.9v6.5l-5.2-6.5h-4.6V590.3z"/>
</svg>
