<?xml version="1.0" encoding="utf-8"?>
<!-- Generator: Adobe Illustrator 18.1.1, SVG Export Plug-In . SVG Version: 6.00 Build 0)  -->
<svg version="1.1" id="Layer_1" xmlns="http://www.w3.org/2000/svg" xmlns:xlink="http://www.w3.org/1999/xlink" x="0px" y="0px"
	 width="300px" height="600px" viewBox="0 0 300 600" enable-background="new 0 0 300 600" xml:space="preserve">
<path fill="#FFFFFF" d="M39.2,90.5h8V79.3l9,11.1h7.2V66.3h-8V77l-8.6-10.7h-7.6V90.5z"/>
<path fill="#FFFFFF" d="M67,90.5h20.8v-6.6H74.9v-2.6h11.8v-5.8H74.9v-2.4h12.7v-6.6H67V90.5z"/>
<path fill="#FFFFFF" d="M97.3,90.6h7l4.2-12l4.2,12h7l7.9-24.3h-8.3L116,77.9l-3.9-11.7h-7l-3.9,11.7l-3.4-11.6h-8.4L97.3,90.6z"/>
<path fill="#FFFFFF" d="M139.6,90.5h8.1v-8.7h7.4v8.7h8.1V66.3H155v8.5h-7.4v-8.5h-8.1V90.5z"/>
<path fill="#FFFFFF" d="M166.7,90.5h20.8v-6.6h-12.8v-2.6h11.8v-5.8h-11.8v-2.4h12.7v-6.6h-20.6V90.5z"/>
<path fill="#FFFFFF" d="M190.5,90.5h8.1v-7.9h11.3v-6.3h-11.3v-3.1h12.1v-6.9h-20.2V90.5z"/>
<path fill="#FFFFFF" d="M219.7,90.5h8.1V73.2h7.1v-6.8h-22.3v6.8h7.1V90.5z"/>
<path fill="#FFFFFF" d="M244.7,90.5h8.1v-8.7l9.1-15.5h-8.9l-4.2,7.9l-4.1-7.9h-9l9.1,15.6V90.5z"/>
<path fill="#FFFFFF" d="M267.1,73.2c2.4,0,4.3-2,4.3-4.4v0c0-2.4-1.9-4.3-4.3-4.3c-2.4,0-4.3,2-4.3,4.4v0
	C262.8,71.2,264.7,73.2,267.1,73.2z M267.1,72.7c-2.2,0-3.8-1.7-3.8-3.9v0c0-2.1,1.7-3.9,3.8-3.9c2.2,0,3.8,1.7,3.8,3.9v0
	C271,70.9,269.3,72.7,267.1,72.7z M265.1,71h1.5v-1.3h0.3l0.9,1.3h1.7l-1.1-1.6c0.6-0.3,0.9-0.7,0.9-1.4v0c0-0.5-0.1-0.8-0.4-1.1
	c-0.3-0.3-0.9-0.5-1.7-0.5h-2.3V71z M266.7,68.6v-0.9h0.7c0.3,0,0.6,0.1,0.6,0.4v0c0,0.3-0.2,0.4-0.6,0.4H266.7z"/>
<path fill="#FFFFFF" d="M103.6,125.3c7.2,0,12-3.2,12-11.5v-13.1h-8.2v13.4c0,2.9-1.6,4.1-3.7,4.1c-2.2,0-3.7-1.3-3.7-4.3v-13.2
	h-8.2V114C91.7,122,96.4,125.3,103.6,125.3z"/>
<path fill="#FFFFFF" d="M119,124.8h19.4v-6.9h-11.3v-17.2H119V124.8z"/>
<path fill="#FFFFFF" d="M143.8,124.8h8.1v-17.3h7.1v-6.8h-22.3v6.8h7.1V124.8z"/>
<path fill="#FFFFFF" d="M161.6,124.8h8.1v-6.9h1.7l4.6,6.9h9.2l-5.6-8.2c2.9-1.4,4.8-3.9,4.8-7.4v-0.1c0-2.5-0.8-4.3-2.2-5.7
	c-1.7-1.7-4.4-2.8-8.7-2.8h-11.8V124.8z M169.7,112.2v-4.7h3.5c1.9,0,3.1,0.8,3.1,2.3v0.1c0,1.5-1.2,2.3-3.1,2.3H169.7z"/>
<path fill="#FFFFFF" d="M184.5,124.8h8.6l1.2-3.2h8.4l1.3,3.2h8.8l-10.2-24.3h-8L184.5,124.8z M196.4,115.9l2.2-5.9l2.2,5.9H196.4z"
	/>
<path fill="#FFFFFF" d="M81.9,159.7c6.5,0,10.7-3.1,10.7-8.2v-0.1c0-4.9-4.1-6.7-10.3-7.8c-2.6-0.5-3.2-0.9-3.2-1.6V142
	c0-0.6,0.6-1,1.8-1c2.2,0,5,0.7,7.2,2.4l3.9-5.4c-2.8-2.2-6.2-3.3-10.9-3.3c-6.7,0-10.2,3.6-10.2,8.1v0.1c0,5.1,4.8,6.7,10.2,7.8
	c2.6,0.5,3.3,0.9,3.3,1.6v0.1c0,0.7-0.6,1-2.1,1c-2.8,0-5.8-0.8-8.4-2.8l-4.3,5.1C72.6,158.3,77,159.7,81.9,159.7z"/>
<path fill="#FFFFFF" d="M100.6,159.2h8.1v-17.3h7.1v-6.8H93.5v6.8h7.1V159.2z"/>
<path fill="#FFFFFF" d="M118.5,159.2h8.1v-6.9h1.7l4.6,6.9h9.2l-5.6-8.2c2.9-1.4,4.8-3.9,4.8-7.4v-0.1c0-2.5-0.8-4.3-2.2-5.7
	c-1.7-1.7-4.4-2.8-8.7-2.8h-11.8V159.2z M126.5,146.6v-4.7h3.5c1.9,0,3.1,0.8,3.1,2.3v0.1c0,1.5-1.2,2.3-3.1,2.3H126.5z"/>
<path fill="#FFFFFF" d="M156.6,159.7c7.4,0,13.2-5.6,13.2-12.6v-0.1c0-7-5.7-12.5-13.1-12.5c-7.4,0-13.2,5.6-13.2,12.6v0.1
	C143.4,154.2,149.1,159.7,156.6,159.7z M156.6,152.6c-3.1,0-5.1-2.6-5.1-5.4v-0.1c0-2.8,1.9-5.4,5-5.4c3.1,0,5.1,2.6,5.1,5.4v0.1
	C161.6,150,159.7,152.6,156.6,152.6z"/>
<path fill="#FFFFFF" d="M172.9,159.2h8v-11.1l9,11.1h7.2v-24.1h-8v10.7l-8.6-10.7h-7.6V159.2z"/>
<path fill="#FFFFFF" d="M213.6,159.7c4.4,0,8-1.5,10.7-3.6v-11.2h-11.7v5.2h4.1v2.4c-0.6,0.3-1.4,0.6-2.8,0.6
	c-3.4,0-5.8-2.3-5.8-5.8v-0.1c0-3.3,2.3-5.7,5.4-5.7c2,0,3.8,0.8,5.3,2.1l4.5-5.4c-2.6-2.3-6-3.7-10.1-3.7
	c-7.6,0-13.3,5.4-13.3,12.6v0.1C200.1,154.7,206.1,159.7,213.6,159.7z"/>
<path fill="#FFFFFF" d="M232.1,142.1h2.1V139l1.5,2.3h0l1.5-2.3v3.1h2.1v-6.3H237l-1.4,2.2l-1.4-2.2h-2.2V142.1z M227.4,142.1h2.1
	v-4.5h1.9v-1.8h-5.8v1.8h1.9V142.1z"/>
</svg>
