<?xml version="1.0" encoding="utf-8"?>
<!-- Generator: Adobe Illustrator 18.1.1, SVG Export Plug-In . SVG Version: 6.00 Build 0)  -->
<svg version="1.1" id="Layer_1" xmlns="http://www.w3.org/2000/svg" xmlns:xlink="http://www.w3.org/1999/xlink" x="0px" y="0px"
	 width="300px" height="600px" viewBox="0 0 300 600" enable-background="new 0 0 300 600" xml:space="preserve">
<path fill="#FFFFFF" d="M94.3,111c8.6,0,14.3-3.9,14.3-13.7V81.7h-9.8v15.9c0,3.5-1.8,4.9-4.4,4.9c-2.6,0-4.4-1.5-4.4-5.1V81.7h-9.8
	v15.8C80.2,107.1,85.7,111,94.3,111z"/>
<path fill="#FFFFFF" d="M112.7,110.5h23.1v-8.2h-13.5V81.7h-9.6V110.5z"/>
<path fill="#FFFFFF" d="M141.3,110.5h9.6V89.9h8.5v-8.1h-26.5v8.1h8.5V110.5z"/>
<path fill="#FFFFFF" d="M162.6,110.5h9.6v-8.2h2.1l5.4,8.2h11l-6.7-9.8c3.5-1.7,5.7-4.6,5.7-8.8v-0.1c0-3-0.9-5.1-2.6-6.8
	c-2-2-5.3-3.3-10.3-3.3h-14V110.5z M172.2,95.4v-5.6h4.2c2.2,0,3.7,0.9,3.7,2.8v0.1c0,1.8-1.4,2.8-3.7,2.8H172.2z"/>
<path fill="#FFFFFF" d="M189.8,110.5h10.3l1.5-3.9h10.1l1.5,3.9h10.4l-12.1-28.9H202L189.8,110.5z M204,99.8l2.6-7l2.6,7H204z"/>
<path fill="#FFFFFF" d="M45.4,153.6c7.7,0,12.7-3.7,12.7-9.7v-0.1c0-5.8-4.9-7.9-12.3-9.3c-3-0.6-3.8-1.1-3.8-1.8v-0.1
	c0-0.7,0.7-1.2,2.1-1.2c2.7,0,5.9,0.9,8.6,2.8l4.7-6.5c-3.3-2.6-7.4-3.9-13-3.9c-7.9,0-12.2,4.2-12.2,9.7v0.1
	c0,6.1,5.7,7.9,12.1,9.2c3.1,0.6,4,1.1,4,1.9v0.1c0,0.8-0.7,1.2-2.5,1.2c-3.4,0-6.9-1-10.1-3.4l-5.1,6.1
	C34.4,151.9,39.6,153.6,45.4,153.6z"/>
<path fill="#FFFFFF" d="M67.7,153.1h9.6v-20.6h8.5v-8.1H59.2v8.1h8.5V153.1z"/>
<path fill="#FFFFFF" d="M88.9,153.1h9.6v-8.2h2.1l5.4,8.2h11l-6.7-9.8c3.5-1.7,5.7-4.6,5.7-8.8v-0.1c0-3-0.9-5.1-2.6-6.8
	c-2-2-5.3-3.3-10.3-3.3h-14V153.1z M98.6,138v-5.6h4.2c2.2,0,3.7,0.9,3.7,2.8v0.1c0,1.8-1.4,2.8-3.7,2.8H98.6z"/>
<path fill="#FFFFFF" d="M119.3,153.1H144v-7.9h-15.3V142h14v-6.9h-14v-2.9h15.1v-7.9h-24.5V153.1z"/>
<path fill="#FFFFFF" d="M147.6,153.1h9.5v-13.3l10.7,13.3h8.5v-28.7h-9.5V137l-10.2-12.7h-9V153.1z"/>
<path fill="#FFFFFF" d="M196.2,153.7c5.2,0,9.6-1.8,12.7-4.3v-13.3h-13.9v6.2h4.9v2.9c-0.7,0.4-1.6,0.7-3.3,0.7
	c-4,0-6.9-2.8-6.9-6.9v-0.1c0-3.9,2.7-6.8,6.4-6.8c2.4,0,4.5,0.9,6.4,2.5l5.4-6.5c-3.1-2.7-7.1-4.4-12-4.4c-9.1,0-15.8,6.4-15.8,15
	v0.1C180,147.7,187.2,153.7,196.2,153.7z"/>
<path fill="#FFFFFF" d="M219.6,153.1h9.6v-20.6h8.5v-8.1h-26.5v8.1h8.5V153.1z"/>
<path fill="#FFFFFF" d="M240.9,153.1h9.6v-10.3h8.8v10.3h9.6v-28.7h-9.6v10.1h-8.8v-10.1h-9.6V153.1z"/>
</svg>
