<svg xmlns="http://www.w3.org/2000/svg" width="205.75" height="14.75" viewBox="0 0 205.75 14.75">
  <metadata><?xpacket begin="﻿" id="W5M0MpCehiHzreSzNTczkc9d"?>
<x:xmpmeta xmlns:x="adobe:ns:meta/" x:xmptk="Adobe XMP Core 5.6-c138 79.159824, 2016/09/14-01:09:01        ">
   <rdf:RDF xmlns:rdf="http://www.w3.org/1999/02/22-rdf-syntax-ns#">
      <rdf:Description rdf:about=""/>
   </rdf:RDF>
</x:xmpmeta>
                                                                                                    
                                                                                                    
                                                                                                    
                                                                                                    
                                                                                                    
                                                                                                    
                                                                                                    
                                                                                                    
                                                                                                    
                                                                                                    
                                                                                                    
                                                                                                    
                                                                                                    
                                                                                                    
                                                                                                    
                                                                                                    
                                                                                                    
                                                                                                    
                                                                                                    
                                                                                                    
                           
<?xpacket end="w"?></metadata>
<defs>
    <style>
      .cls-1 {
        fill: #fff;
        fill-rule: evenodd;
      }
    </style>
  </defs>
  <path id="THIS_HOLIDAY_SAVE_20_" data-name="THIS HOLIDAY SAVE 20%" class="cls-1" d="M10.1,41.663V30.3h2.834v-2.84H3.994V30.3H6.808v11.36h3.3Zm7.758,0v-5.74h3.1v5.74h3.3v-14.2h-3.3v5.52h-3.1v-5.52h-3.3v14.2h3.3Zm12.34,0v-14.2h-3.3v14.2h3.3Zm6.652,0.22a7.323,7.323,0,0,0,2.774-.43,2.782,2.782,0,0,0,1.487-1.39,6.017,6.017,0,0,0,.462-2.58,5.077,5.077,0,0,0-.593-2.58,3.191,3.191,0,0,0-1.708-1.43L38,33l-0.7-.28a7.351,7.351,0,0,1-.965-0.42,1.466,1.466,0,0,1-.533-0.52,1.733,1.733,0,0,1-.211-0.92,1.135,1.135,0,0,1,1.306-1.26,1.3,1.3,0,0,1,1.045.36,1.761,1.761,0,0,1,.3,1.14v0.3h2.995V31.1a5.346,5.346,0,0,0-.4-2.29,2.4,2.4,0,0,0-1.306-1.2,6.836,6.836,0,0,0-2.512-.37,5.283,5.283,0,0,0-3.487.92,3.876,3.876,0,0,0-1.055,3.06,4.587,4.587,0,0,0,.442,2.19,3.032,3.032,0,0,0,1.075,1.19,10.63,10.63,0,0,0,1.7.78l0.764,0.3q0.784,0.3,1.146.48a1.555,1.555,0,0,1,.623.61,2.248,2.248,0,0,1,.261,1.17,1.8,1.8,0,0,1-.332,1.19,1.482,1.482,0,0,1-1.176.39,1.5,1.5,0,0,1-1.286-.49,2.853,2.853,0,0,1-.362-1.65v-0.46H32.292v0.52a6.63,6.63,0,0,0,.422,2.63,2.631,2.631,0,0,0,1.407,1.38,7.005,7.005,0,0,0,2.733.43h0Zm15.4-.22v-5.74h3.1v5.74h3.3v-14.2h-3.3v5.52h-3.1v-5.52h-3.3v14.2h3.3Zm13.606,0.22a6.255,6.255,0,0,0,3.045-.6,3.368,3.368,0,0,0,1.5-2.1,16.349,16.349,0,0,0,.442-4.36V34.3a16.351,16.351,0,0,0-.442-4.36,3.368,3.368,0,0,0-1.5-2.1,6.255,6.255,0,0,0-3.045-.6,6.254,6.254,0,0,0-3.045.6,3.331,3.331,0,0,0-1.487,2.1,16.7,16.7,0,0,0-.432,4.36v0.52a16.7,16.7,0,0,0,.432,4.36,3.331,3.331,0,0,0,1.487,2.1,6.254,6.254,0,0,0,3.045.6h0Zm0-2.52a1.217,1.217,0,0,1-.995-0.4,2.794,2.794,0,0,1-.462-1.38,23.955,23.955,0,0,1-.131-2.92v-0.2a23.964,23.964,0,0,1,.131-2.92,2.8,2.8,0,0,1,.462-1.38,1.218,1.218,0,0,1,.995-0.4,1.249,1.249,0,0,1,1,.4,2.743,2.743,0,0,1,.472,1.39,24.06,24.06,0,0,1,.131,2.91v0.2a24.06,24.06,0,0,1-.131,2.91,2.742,2.742,0,0,1-.472,1.39,1.248,1.248,0,0,1-1,.4h0Zm14.451,2.3v-2.84h-3.9V27.463h-3.3v14.2h7.2Zm5.044,0v-14.2h-3.3v14.2h3.3Zm2.653,0h4.241a7.474,7.474,0,0,0,3.3-.58,3.315,3.315,0,0,0,1.628-2.04,14.164,14.164,0,0,0,.482-4.22V34.3a14.166,14.166,0,0,0-.482-4.22,3.318,3.318,0,0,0-1.628-2.04,7.48,7.48,0,0,0-3.3-.58H88v14.2Zm3.3-2.58v-9.06h0.784a2.185,2.185,0,0,1,1.4.37,2.064,2.064,0,0,1,.613,1.28,17.563,17.563,0,0,1,.161,2.79v0.2a17.556,17.556,0,0,1-.161,2.79,2.014,2.014,0,0,1-.613,1.27,2.228,2.228,0,0,1-1.4.36H91.3Zm18.47,2.58-3.457-14.2h-4.241l-3.457,14.2h3.337l0.5-2.7h3.417l0.5,2.7h3.4Zm-5.607-11.8,1.246,6.66h-2.492Zm11.878-2.4-1.889,5.98-1.89-5.98h-3.517l3.718,9.14v5.06h3.3V36.6l3.718-9.14h-3.437Zm13.687,14.42a7.321,7.321,0,0,0,2.773-.43,2.783,2.783,0,0,0,1.488-1.39,6.017,6.017,0,0,0,.462-2.58,5.078,5.078,0,0,0-.593-2.58,3.192,3.192,0,0,0-1.708-1.43L130.873,33l-0.7-.28a7.352,7.352,0,0,1-.965-0.42,1.463,1.463,0,0,1-.532-0.52,1.73,1.73,0,0,1-.212-0.92,1.135,1.135,0,0,1,1.307-1.26,1.3,1.3,0,0,1,1.045.36,1.761,1.761,0,0,1,.3,1.14v0.3h3V31.1a5.344,5.344,0,0,0-.4-2.29,2.4,2.4,0,0,0-1.306-1.2,6.839,6.839,0,0,0-2.513-.37,5.285,5.285,0,0,0-3.487.92,3.878,3.878,0,0,0-1.055,3.06,4.6,4.6,0,0,0,.442,2.19,3.037,3.037,0,0,0,1.076,1.19,10.634,10.634,0,0,0,1.7.78l0.764,0.3q0.783,0.3,1.145.48a1.554,1.554,0,0,1,.623.61,2.248,2.248,0,0,1,.262,1.17,1.8,1.8,0,0,1-.332,1.19,1.482,1.482,0,0,1-1.176.39,1.5,1.5,0,0,1-1.286-.49,2.854,2.854,0,0,1-.362-1.65v-0.46h-3.035v0.52a6.638,6.638,0,0,0,.422,2.63,2.636,2.636,0,0,0,1.407,1.38,7.01,7.01,0,0,0,2.734.43h0Zm16.742-.22-3.457-14.2h-4.241l-3.457,14.2h3.336l0.5-2.7h3.417l0.5,2.7h3.4Zm-5.608-11.8,1.246,6.66h-2.492Zm10.773,8.7-1.97-11.1h-3.5l3.336,14.2h4.181l3.336-14.2h-3.437Zm14.752,3.1v-2.5h-4.663v-3.5h4.04v-2.5h-4.04v-3.2h4.462v-2.5h-7.758v14.2h7.959Zm11.013-2.64,1.95-2.4q1.105-1.34,1.658-2.09a7.109,7.109,0,0,0,.894-1.62,5.176,5.176,0,0,0,.342-1.91,3.654,3.654,0,0,0-1-2.87,4.928,4.928,0,0,0-3.3-.89,6.881,6.881,0,0,0-2.663.42,2.627,2.627,0,0,0-1.4,1.32,5.665,5.665,0,0,0-.422,2.38V32.1h2.975v-0.68a2.257,2.257,0,0,1,.321-1.37,1.38,1.38,0,0,1,1.146-.41,1.345,1.345,0,0,1,1.015.33,1.5,1.5,0,0,1,.311,1.05,3.392,3.392,0,0,1-.522,1.74,23.048,23.048,0,0,1-1.91,2.56l-3.517,4.34v2h9.145v-2.64H177.4Zm11.5,2.86a5.483,5.483,0,0,0,2.844-.6,3.34,3.34,0,0,0,1.377-2.1,17.907,17.907,0,0,0,.4-4.36V34.3a17.909,17.909,0,0,0-.4-4.36,3.34,3.34,0,0,0-1.377-2.1,7.04,7.04,0,0,0-5.688,0,3.339,3.339,0,0,0-1.376,2.1,17.909,17.909,0,0,0-.4,4.36v0.52a17.907,17.907,0,0,0,.4,4.36,3.339,3.339,0,0,0,1.376,2.1,5.483,5.483,0,0,0,2.844.6h0Zm0-2.48a1.078,1.078,0,0,1-.854-0.31,2.285,2.285,0,0,1-.372-1.19,27.294,27.294,0,0,1-.1-2.78V34a27.3,27.3,0,0,1,.1-2.78,2.287,2.287,0,0,1,.372-1.19,1.333,1.333,0,0,1,1.709,0,2.362,2.362,0,0,1,.381,1.2,24.743,24.743,0,0,1,.111,2.77v1.12a24.734,24.734,0,0,1-.111,2.77,2.359,2.359,0,0,1-.381,1.2,1.079,1.079,0,0,1-.855.31h0Zm10.712,2.54,7.758-14.76h-2.19l-7.758,14.76h2.19ZM198,35.423a3.825,3.825,0,0,0,1.819-.35,1.94,1.94,0,0,0,.894-1.19,8.508,8.508,0,0,0,.261-2.4v-0.3a8.508,8.508,0,0,0-.261-2.4,1.941,1.941,0,0,0-.894-1.19,3.83,3.83,0,0,0-1.819-.35,3.885,3.885,0,0,0-1.829.35,1.971,1.971,0,0,0-.915,1.2,8.217,8.217,0,0,0-.271,2.39v0.3a8.213,8.213,0,0,0,.271,2.39,1.969,1.969,0,0,0,.915,1.2,3.881,3.881,0,0,0,1.829.35h0Zm0-1.62a0.622,0.622,0,0,1-.473-0.16,1.215,1.215,0,0,1-.211-0.65,14.71,14.71,0,0,1-.06-1.59V31.3a15.328,15.328,0,0,1,.06-1.61,1.257,1.257,0,0,1,.211-0.67,0.624,0.624,0,0,1,.473-0.16,0.588,0.588,0,0,1,.462.16,1.341,1.341,0,0,1,.2.67,15.328,15.328,0,0,1,.06,1.61v0.1a14.71,14.71,0,0,1-.06,1.59,1.3,1.3,0,0,1-.2.65,0.587,0.587,0,0,1-.462.16h0Zm8.783,8.08a3.821,3.821,0,0,0,1.818-.35,1.937,1.937,0,0,0,.9-1.19,8.508,8.508,0,0,0,.261-2.4v-0.3a8.508,8.508,0,0,0-.261-2.4,1.938,1.938,0,0,0-.9-1.19,3.823,3.823,0,0,0-1.818-.35,3.885,3.885,0,0,0-1.829.35,1.968,1.968,0,0,0-.915,1.19,8.2,8.2,0,0,0-.271,2.4v0.3a8.2,8.2,0,0,0,.271,2.4,1.967,1.967,0,0,0,.915,1.19,3.884,3.884,0,0,0,1.829.35h0Zm0-1.62a0.653,0.653,0,0,1-.493-0.16,1.235,1.235,0,0,1-.211-0.66,15.013,15.013,0,0,1-.06-1.6v-0.1a14.985,14.985,0,0,1,.06-1.61,1.218,1.218,0,0,1,.211-0.65,0.654,0.654,0,0,1,.493-0.16,0.588,0.588,0,0,1,.462.16,1.32,1.32,0,0,1,.2.66,15.023,15.023,0,0,1,.06,1.6v0.1a15.013,15.013,0,0,1-.06,1.6,1.317,1.317,0,0,1-.2.66,0.587,0.587,0,0,1-.462.16h0Z" transform="translate(-4 -27.188)"/>
</svg>
