<svg xmlns="http://www.w3.org/2000/svg" width="226.625" height="22.688" viewBox="0 0 226.625 22.688">
  <metadata><?xpacket begin="﻿" id="W5M0MpCehiHzreSzNTczkc9d"?>
<x:xmpmeta xmlns:x="adobe:ns:meta/" x:xmptk="Adobe XMP Core 5.6-c138 79.159824, 2016/09/14-01:09:01        ">
   <rdf:RDF xmlns:rdf="http://www.w3.org/1999/02/22-rdf-syntax-ns#">
      <rdf:Description rdf:about=""/>
   </rdf:RDF>
</x:xmpmeta>
                                                                                                    
                                                                                                    
                                                                                                    
                                                                                                    
                                                                                                    
                                                                                                    
                                                                                                    
                                                                                                    
                                                                                                    
                                                                                                    
                                                                                                    
                                                                                                    
                                                                                                    
                                                                                                    
                                                                                                    
                                                                                                    
                                                                                                    
                                                                                                    
                                                                                                    
                                                                                                    
                           
<?xpacket end="w"?></metadata>
<defs>
    <style>
      .cls-1 {
        fill: #fff;
        fill-rule: evenodd;
      }
    </style>
  </defs>
  <path id="UNDER_THE_HOOD" data-name="UNDER THE HOOD" class="cls-1" d="M14.908,45.341a10.452,10.452,0,0,0,4.5-.775,4.471,4.471,0,0,0,2.243-2.6,15.926,15.926,0,0,0,.67-5.239V22.99H17.088V37.1A14.193,14.193,0,0,1,16.9,39.73a2.227,2.227,0,0,1-.654,1.318,2.046,2.046,0,0,1-1.339.388,2.045,2.045,0,0,1-1.34-.388,2.227,2.227,0,0,1-.654-1.318,14.193,14.193,0,0,1-.187-2.635V22.99H7.493V36.723a15.911,15.911,0,0,0,.67,5.239,4.468,4.468,0,0,0,2.243,2.6,10.449,10.449,0,0,0,4.5.775h0Zm22.585-7.688L32.041,22.99h-5.67V45h4.392V30.337L36.216,45h5.67V22.99H37.493V37.653ZM46.028,45H52.6a11.585,11.585,0,0,0,5.109-.9,5.14,5.14,0,0,0,2.523-3.162,21.958,21.958,0,0,0,.748-6.541V33.592a21.96,21.96,0,0,0-.748-6.541,5.143,5.143,0,0,0-2.523-3.162,11.592,11.592,0,0,0-5.109-.9H46.028V45Zm5.109-4V26.958h1.215a3.385,3.385,0,0,1,2.165.574,3.2,3.2,0,0,1,.95,1.984,27.236,27.236,0,0,1,.249,4.325v0.31a27.228,27.228,0,0,1-.249,4.325,3.122,3.122,0,0,1-.95,1.968A3.453,3.453,0,0,1,52.352,41H51.137Zm25.669,4V41.125H69.579V35.7h6.262V31.825H69.579v-4.96H76.5V22.99H64.47V45H76.807Zm18.068,0-3.24-8.866a4.085,4.085,0,0,0,2.15-2.031,8.748,8.748,0,0,0,.654-3.7V29.593a8.661,8.661,0,0,0-.763-4.046,4.2,4.2,0,0,0-2.539-1.984,17.222,17.222,0,0,0-5.047-.574H79.953V45h5.109V36.971h1.994L89.454,45h5.421ZM86,33H85.062V26.958H86a6.29,6.29,0,0,1,2.025.248,1.507,1.507,0,0,1,.935.852,4.9,4.9,0,0,1,.249,1.783v0.31a4.33,4.33,0,0,1-.265,1.689,1.67,1.67,0,0,1-.95.883A5.521,5.521,0,0,1,86,33h0Zm27.663,12V27.392h4.393v-4.4H104.189v4.4h4.361V45h5.109Zm12.025,0V36.1h4.8V45h5.109V22.99h-5.109v8.556h-4.8V22.99h-5.109V45h5.109Zm26.355,0V41.125h-7.228V35.7h6.262V31.825h-6.262v-4.96h6.916V22.99H139.7V45h12.337Zm16.478,0V36.1h4.8V45h5.109V22.99h-5.109v8.556h-4.8V22.99h-5.108V45h5.108Zm21.09,0.341a9.7,9.7,0,0,0,4.72-.93,5.221,5.221,0,0,0,2.321-3.255,25.37,25.37,0,0,0,.685-6.758V33.592a25.373,25.373,0,0,0-.685-6.758,5.221,5.221,0,0,0-2.321-3.255,12.44,12.44,0,0,0-9.439,0,5.16,5.16,0,0,0-2.305,3.255,25.874,25.874,0,0,0-.67,6.758V34.4a25.871,25.871,0,0,0,.67,6.758,5.16,5.16,0,0,0,2.305,3.255,9.691,9.691,0,0,0,4.719.93h0Zm0-3.906a1.887,1.887,0,0,1-1.542-.62,4.341,4.341,0,0,1-.716-2.139,37.172,37.172,0,0,1-.2-4.526V33.84a37.183,37.183,0,0,1,.2-4.526,4.345,4.345,0,0,1,.716-2.139,1.889,1.889,0,0,1,1.542-.62,1.935,1.935,0,0,1,1.558.62,4.249,4.249,0,0,1,.732,2.154,37.237,37.237,0,0,1,.2,4.511v0.31a37.237,37.237,0,0,1-.2,4.511,4.247,4.247,0,0,1-.732,2.154,1.934,1.934,0,0,1-1.558.62h0Zm18.318,3.906a9.691,9.691,0,0,0,4.719-.93,5.217,5.217,0,0,0,2.321-3.255,25.321,25.321,0,0,0,.686-6.758V33.592a25.324,25.324,0,0,0-.686-6.758,5.217,5.217,0,0,0-2.321-3.255,12.44,12.44,0,0,0-9.439,0,5.163,5.163,0,0,0-2.305,3.255,25.874,25.874,0,0,0-.67,6.758V34.4a25.871,25.871,0,0,0,.67,6.758,5.163,5.163,0,0,0,2.305,3.255,9.7,9.7,0,0,0,4.72.93h0Zm0-3.906a1.885,1.885,0,0,1-1.542-.62,4.33,4.33,0,0,1-.717-2.139,37.216,37.216,0,0,1-.2-4.526V33.84a37.227,37.227,0,0,1,.2-4.526,4.333,4.333,0,0,1,.717-2.139,1.886,1.886,0,0,1,1.542-.62,1.935,1.935,0,0,1,1.557.62,4.249,4.249,0,0,1,.732,2.154,37.237,37.237,0,0,1,.2,4.511v0.31a37.237,37.237,0,0,1-.2,4.511,4.247,4.247,0,0,1-.732,2.154,1.933,1.933,0,0,1-1.557.62h0ZM219.171,45h6.573a11.586,11.586,0,0,0,5.109-.9,5.14,5.14,0,0,0,2.523-3.162,21.969,21.969,0,0,0,.748-6.541V33.592a21.971,21.971,0,0,0-.748-6.541,5.143,5.143,0,0,0-2.523-3.162,11.593,11.593,0,0,0-5.109-.9h-6.573V45Zm5.109-4V26.958h1.214a3.389,3.389,0,0,1,2.166.574,3.2,3.2,0,0,1,.95,1.984,27.23,27.23,0,0,1,.249,4.325v0.31a27.221,27.221,0,0,1-.249,4.325,3.126,3.126,0,0,1-.95,1.968,3.458,3.458,0,0,1-2.166.558H224.28Z" transform="translate(-7.5 -22.656)"/>
</svg>
