<svg id="Frame_1" data-name="Frame 1" xmlns="http://www.w3.org/2000/svg" width="151.687" height="88.468" viewBox="0 0 151.687 88.468">
  <metadata><?xpacket begin="﻿" id="W5M0MpCehiHzreSzNTczkc9d"?>
<x:xmpmeta xmlns:x="adobe:ns:meta/" x:xmptk="Adobe XMP Core 5.6-c138 79.159824, 2016/09/14-01:09:01        ">
   <rdf:RDF xmlns:rdf="http://www.w3.org/1999/02/22-rdf-syntax-ns#">
      <rdf:Description rdf:about=""/>
   </rdf:RDF>
</x:xmpmeta>
                                                                                                    
                                                                                                    
                                                                                                    
                                                                                                    
                                                                                                    
                                                                                                    
                                                                                                    
                                                                                                    
                                                                                                    
                                                                                                    
                                                                                                    
                                                                                                    
                                                                                                    
                                                                                                    
                                                                                                    
                                                                                                    
                                                                                                    
                                                                                                    
                                                                                                    
                                                                                                    
                           
<?xpacket end="w"?></metadata>
<defs>
    <style>
      .cls-1 {
        fill: #fff;
        fill-rule: evenodd;
      }
    </style>
  </defs>
  <path id="CELEBRATE" class="cls-1" d="M12.355,342.1a10.576,10.576,0,0,0,4.587-.825,5.056,5.056,0,0,0,2.475-2.838,16.185,16.185,0,0,0,.792-5.709v-0.1H14.632v0.1a16.9,16.9,0,0,1-.231,3.2,2.937,2.937,0,0,1-.71,1.567,1.887,1.887,0,0,1-1.337.446,1.815,1.815,0,0,1-1.518-.627,4.706,4.706,0,0,1-.693-2.244,43.9,43.9,0,0,1-.2-4.884v-0.33a43.9,43.9,0,0,1,.2-4.884,4.706,4.706,0,0,1,.693-2.244,1.815,1.815,0,0,1,1.518-.627,1.691,1.691,0,0,1,1.617.94,8.571,8.571,0,0,1,.495,3.548v0.1h5.577v-0.1a13.915,13.915,0,0,0-.792-5.247,4.8,4.8,0,0,0-2.459-2.64,10.845,10.845,0,0,0-4.438-.759,9.763,9.763,0,0,0-4.884.99A5.5,5.5,0,0,0,5.095,322.4,28.329,28.329,0,0,0,4.4,329.6v0.858a28.329,28.329,0,0,0,.693,7.194,5.5,5.5,0,0,0,2.376,3.465,9.763,9.763,0,0,0,4.884.99h0Zm24.453-.363v-4.125H29.151v-5.775h6.633v-4.125H29.151v-5.28h7.326v-4.125H23.739v23.43H36.807Zm15.147,0v-4.686h-6.4V318.311H40.14v23.43H51.954Zm15.939,0v-4.125H60.237v-5.775H66.87v-4.125H60.237v-5.28h7.326v-4.125H54.825v23.43H67.893Zm15.345-12.21a4.142,4.142,0,0,0,2.128-1.683,5.681,5.681,0,0,0,.644-2.9v-0.858a6.547,6.547,0,0,0-.775-3.5,4.349,4.349,0,0,0-2.591-1.749,19.226,19.226,0,0,0-5.115-.528h-6.3v23.43h6.963a18.824,18.824,0,0,0,5.148-.545,4.35,4.35,0,0,0,2.607-1.848,7.113,7.113,0,0,0,.792-3.679v-0.858a6.275,6.275,0,0,0-.808-3.449,4.776,4.776,0,0,0-2.689-1.831h0Zm-6.6-7.59h0.957a5.691,5.691,0,0,1,1.93.247,1.494,1.494,0,0,1,.891.858,4.9,4.9,0,0,1,.248,1.766v0.33a4.259,4.259,0,0,1-.248,1.65,1.514,1.514,0,0,1-.907.808,5.711,5.711,0,0,1-1.914.248H76.637v-5.907Zm4.554,12.87a6.29,6.29,0,0,1-.248,2.013,1.65,1.65,0,0,1-.907.99,4.942,4.942,0,0,1-1.947.3H76.637v-6.7h1.452a5.5,5.5,0,0,1,1.947.264,1.539,1.539,0,0,1,.907.924,5.583,5.583,0,0,1,.248,1.881v0.33Zm24.981,6.93L102.74,332.3a4.338,4.338,0,0,0,2.277-2.162,9.349,9.349,0,0,0,.693-3.943V325.34a9.259,9.259,0,0,0-.808-4.307,4.46,4.46,0,0,0-2.69-2.112,18.155,18.155,0,0,0-5.346-.61h-6.5v23.43h5.412v-8.547h2.112l2.541,8.547h5.742Zm-9.4-12.771h-0.99v-6.435h0.99a6.629,6.629,0,0,1,2.145.264,1.6,1.6,0,0,1,.99.907,5.246,5.246,0,0,1,.264,1.9v0.33a4.636,4.636,0,0,1-.28,1.8,1.773,1.773,0,0,1-1.007.941,5.822,5.822,0,0,1-2.112.3h0Zm29.106,12.771-5.676-23.43h-6.963l-5.676,23.43h5.478l0.825-4.455h5.61l0.825,4.455h5.577Zm-9.207-19.47,2.046,10.989H114.62Zm18.414,19.47V323h4.653v-4.686H125.048V323h4.62v18.744h5.412Zm20.394,0v-4.125h-7.656v-5.775h6.633v-4.125h-6.633v-5.28h7.326v-4.125H142.406v23.43h13.068Z" transform="translate(-4.375 -317.938)"/>
  <path id="THE_" data-name="THE " class="cls-1" d="M13.588,371.185v-17.04h4.23v-4.26H4.468v4.26h4.2v17.04h4.92Zm11.58,0v-8.61h4.62v8.61h4.92v-21.3h-4.92v8.28h-4.62v-8.28h-4.92v21.3h4.92Zm25.38,0v-3.75h-6.96v-5.25h6.03v-3.75h-6.03v-4.8h6.66v-3.75H38.667v21.3h11.88Z" transform="translate(-4.375 -317.938)"/>
  <path id="HOLIDAYS" class="cls-1" d="M10.614,405.981V395.075h5.852v10.906H22.7V379H16.466v10.488H10.614V379H4.382v26.98h6.232ZM36.34,406.4a11.776,11.776,0,0,0,5.757-1.14,6.4,6.4,0,0,0,2.831-3.99,31.21,31.21,0,0,0,.836-8.284V392a31.21,31.21,0,0,0-.836-8.284,6.4,6.4,0,0,0-2.831-3.99,11.776,11.776,0,0,0-5.757-1.14,11.776,11.776,0,0,0-5.757,1.14,6.328,6.328,0,0,0-2.812,3.99A31.876,31.876,0,0,0,26.954,392v0.988a31.876,31.876,0,0,0,.817,8.284,6.328,6.328,0,0,0,2.812,3.99,11.776,11.776,0,0,0,5.757,1.14h0Zm0-4.788a2.3,2.3,0,0,1-1.881-.76,5.331,5.331,0,0,1-.874-2.622,45.754,45.754,0,0,1-.247-5.548V392.3a45.754,45.754,0,0,1,.247-5.548,5.331,5.331,0,0,1,.874-2.622,2.3,2.3,0,0,1,1.881-.76,2.354,2.354,0,0,1,1.9.76,5.228,5.228,0,0,1,.893,2.641,45.932,45.932,0,0,1,.247,5.529v0.38a45.932,45.932,0,0,1-.247,5.529,5.228,5.228,0,0,1-.893,2.641,2.354,2.354,0,0,1-1.9.76h0Zm27.322,4.37v-5.4H56.289V379H50.057v26.98h13.6Zm9.538,0V379H66.967v26.98H73.2Zm5.016,0h8.018a14.073,14.073,0,0,0,6.232-1.1A6.3,6.3,0,0,0,95.542,401a27.04,27.04,0,0,0,.912-8.018V392a27.04,27.04,0,0,0-.912-8.018,6.3,6.3,0,0,0-3.078-3.876,14.073,14.073,0,0,0-6.232-1.1H78.214v26.98Zm6.232-4.9V383.865h1.482a4.111,4.111,0,0,1,2.641.7A3.926,3.926,0,0,1,89.728,387a33.542,33.542,0,0,1,.3,5.3v0.38a33.542,33.542,0,0,1-.3,5.3,3.834,3.834,0,0,1-1.159,2.413,4.2,4.2,0,0,1-2.641.684H84.446Zm34.922,4.9L112.832,379h-8.018l-6.536,26.98h6.308l0.95-5.13H112l0.95,5.13h6.422Zm-10.6-22.42,2.356,12.654H106.41ZM131.224,379l-3.572,11.362L124.08,379h-6.65l7.03,17.366v9.614h6.232v-9.614L137.722,379h-6.5Zm15.922,27.4a13.8,13.8,0,0,0,5.244-.817,5.273,5.273,0,0,0,2.812-2.641,11.471,11.471,0,0,0,.874-4.9,9.684,9.684,0,0,0-1.121-4.9,6.037,6.037,0,0,0-3.23-2.717q-2.109-.779-2.413-0.893l-1.33-.532a13.883,13.883,0,0,1-1.824-.8,2.783,2.783,0,0,1-1.007-.988,3.307,3.307,0,0,1-.4-1.748,2.15,2.15,0,0,1,2.47-2.394,2.453,2.453,0,0,1,1.976.684,3.358,3.358,0,0,1,.57,2.166v0.57h5.662v-0.57a10.192,10.192,0,0,0-.76-4.351,4.555,4.555,0,0,0-2.47-2.28,12.851,12.851,0,0,0-4.75-.7q-4.6,0-6.593,1.748t-2,5.814a8.758,8.758,0,0,0,.836,4.161,5.751,5.751,0,0,0,2.033,2.261,20.163,20.163,0,0,0,3.211,1.482l1.444,0.57q1.482,0.57,2.166.912a2.939,2.939,0,0,1,1.178,1.159,4.289,4.289,0,0,1,.494,2.223,3.441,3.441,0,0,1-.627,2.261,2.793,2.793,0,0,1-2.223.741,2.83,2.83,0,0,1-2.432-.931,5.444,5.444,0,0,1-.684-3.135v-0.874H138.52v0.988a12.654,12.654,0,0,0,.8,5,4.993,4.993,0,0,0,2.66,2.622,13.2,13.2,0,0,0,5.168.817h0Z" transform="translate(-4.375 -317.938)"/>
</svg>
