<?xml version="1.0" encoding="utf-8"?>
<!-- Generator: Adobe Illustrator 18.1.1, SVG Export Plug-In . SVG Version: 6.00 Build 0)  -->
<svg version="1.1" id="Layer_1" xmlns="http://www.w3.org/2000/svg" xmlns:xlink="http://www.w3.org/1999/xlink" x="0px" y="0px"
	 viewBox="0 0 600 600" enable-background="new 0 0 600 600" xml:space="preserve">
<path fill="#FFFFFF" d="M600,222.9H377.1l85.7-85.7C420,94.3,364.3,72.9,304.3,72.9s-120,25.7-162.9,68.6S77.1,240,77.1,300
	s21.4,115.7,64.3,158.6S240,522.9,300,522.9s115.7-21.4,158.6-64.3c4.3-4.3,8.6-8.6,8.6-12.9l55.7,51.4C471.4,561.4,390,600,300,600
	C132.9,600,0,467.1,0,300S132.9,0,300,0c81.4,0,158.6,34.3,210,90l90-90V222.9z"/>
</svg>
