<?xml version="1.0" encoding="utf-8"?>
<!-- Generator: Adobe Illustrator 18.1.1, SVG Export Plug-In . SVG Version: 6.00 Build 0)  -->
<svg version="1.1" id="Layer_1" xmlns="http://www.w3.org/2000/svg" xmlns:xlink="http://www.w3.org/1999/xlink" x="0px" y="0px"
	 viewBox="0 0 84.9 30.8" style="enable-background:new 0 0 84.9 30.8;" xml:space="preserve">
<g>
	<g transform="matrix( 1, 0, 0, 1, 129.95,24.8) ">
		<g>
			<g id="Layer0_0_FILL">
				<path style="fill:#FFFFFF;" d="M-86.6-24.8c-1,0-2.3,0.2-3.7,0.3c-2.9,0.4-5.7,1.1-8.3,2c-3.4,1.2-6,2.4-8,3.7
					c-1,0.6-1.6,1.1-1.9,1.5c2.2-0.7,4-1.1,5.5-1.3c0.8-0.1,1.3-0.2,1.6-0.2l4.3-2.4C-93.7-22.9-90.2-24-86.6-24.8z"/>
			</g>
		</g>
	</g>
	<g transform="matrix( 1, 0, 0, 1, 129.95,24.8) ">
		<g>
			<g id="Layer0_1_FILL">
				<path style="fill:#FFFFFF;" d="M-83.6-24.2c0.7-0.3,1.3-0.6,1.9-0.8c-2.8,0.1-5.8,0.8-9.1,2.1c-2.8,1.2-5.1,2.4-6.9,4l2.8-0.3
					c2.4,0,4.7,0.3,7.2,0.8c0-0.3,0.1-0.8,0.2-1.2c0.3-0.9,0.7-1.9,1.3-2.8C-85.8-22.9-84.9-23.5-83.6-24.2z"/>
			</g>
		</g>
	</g>
	<g transform="matrix( 1, 0, 0, 1, 129.95,24.8) ">
		<g>
			<g id="Layer0_2_FILL">
				<path style="fill:#FFFFFF;" d="M-129.8-7.4l-0.1,0.4c-0.3,1,0.1,1.8,0.9,2.3c0.8,0.4,2,0.7,3.9,0.7c3.8,0,5.9-1.1,6.3-3.1
					c0.3-1.3-0.7-2.4-2.8-3c-1.3-0.4-2.1-0.6-2.2-0.7c-0.7-0.3-0.9-0.7-0.8-1.1c0-0.3,0.2-0.5,0.4-0.7c0.3-0.3,0.7-0.4,1.1-0.4
					s0.7,0.1,0.8,0.3c0.2,0.3,0.2,0.4,0.1,0.8l-0.1,0.4h3.9c0.3-1.1,0-1.9-0.8-2.4c-0.8-0.5-1.9-0.8-3.8-0.8c-1.8,0-3.1,0.3-4.1,0.8
					c-1,0.5-1.6,1.3-1.9,2.4c-0.3,1.3,0.6,2.3,2.7,2.9c1.3,0.4,1.9,0.6,2.1,0.6c0.6,0.3,0.8,0.7,0.8,1.1c-0.1,0.3-0.3,0.6-0.5,0.8
					c-0.3,0.3-0.7,0.4-1.1,0.4c-0.9,0-1.3-0.4-1.2-1.2l0.1-0.4L-129.8-7.4L-129.8-7.4z"/>
			</g>
		</g>
	</g>
	<g transform="matrix( 1, 0, 0, 1, 129.95,24.8) ">
		<g>
			<g id="Layer0_3_FILL">
				<path style="fill:#FFFFFF;" d="M-112.1-11.7c-1.2,0-2.1,0.2-2.9,0.4c-1.1,0.4-1.8,1.1-1.9,1.9h3.3c0.2-0.8,0.6-1.2,1.3-1.2
					c0.7,0,0.9,0.3,0.8,0.7l-0.2,0.8l-2.7,0.4c-1.2,0.2-2.1,0.4-2.6,0.8c-0.5,0.3-0.8,0.8-1,1.5c-0.2,0.7,0,1.2,0.4,1.5
					c0.4,0.4,1.2,0.6,2.3,0.6c0.6,0,1.1-0.1,1.6-0.3c0.5-0.2,0.9-0.4,1.2-0.8l0,0c0,0.4,0,0.7,0.1,0.8h3.7c-0.2-0.3-0.2-0.8,0-1.6
					l0.8-3.5c0.2-0.8-0.1-1.5-0.8-1.9C-109.6-11.6-110.7-11.7-112.1-11.7 M-112.2-6.8c-0.2,0.8-0.7,1.2-1.4,1.2
					c-0.3,0-0.4-0.1-0.6-0.3c-0.1-0.2-0.2-0.4-0.1-0.7c0.1-0.5,0.4-0.8,1-0.9c0.4-0.1,0.8-0.2,1.3-0.3L-112.2-6.8z"/>
			</g>
		</g>
	</g>
	<g transform="matrix( 1, 0, 0, 1, 129.95,24.8) ">
		<g>
			<g id="Layer0_4_FILL">
				<path style="fill:#FFFFFF;" d="M-102-11.6l0.3-1.2c0.1-0.3,0.4-0.5,1-0.5c0.2,0,0.4,0,0.7,0l0.3-1.3c-0.5,0-1.1-0.1-1.8-0.1
					c-1.3,0-2.3,0.2-2.8,0.4c-0.6,0.3-0.9,0.8-1.1,1.5l-0.3,1.1h-1.3l-0.3,1.6h1.3l-1.2,5.6h3.8l1.2-5.6h1.5l0.3-1.6L-102-11.6
					L-102-11.6z"/>
			</g>
		</g>
	</g>
	<g transform="matrix( 1, 0, 0, 1, 129.95,24.8) ">
		<g>
			<g id="Layer0_5_FILL">
				<path style="fill:#FFFFFF;" d="M-99.3-10.9c-0.8,0.6-1.5,1.6-1.8,2.9c-0.3,1.4-0.2,2.4,0.4,2.9s1.8,0.8,3.5,0.8
					c2.9,0,4.5-0.9,5.1-2.7h-3.4c-0.2,0.9-0.7,1.4-1.3,1.4s-0.9-0.3-0.8-1l0.3-1.2h5.6l0.2-0.8c0.3-1.3,0.1-2.2-0.5-2.7
					c-0.6-0.5-1.7-0.8-3.3-0.8C-97.1-11.7-98.4-11.4-99.3-10.9 M-97.1-8.8l0.1-0.5c0.1-0.4,0.3-0.7,0.4-0.8c0.2-0.2,0.4-0.3,0.8-0.3
					s0.7,0.1,0.8,0.3s0.1,0.4,0,0.8l-0.1,0.5H-97.1z"/>
			</g>
		</g>
	</g>
	<g transform="matrix( 1, 0, 0, 1, 129.95,24.8) ">
		<g>
			<g id="Layer0_6_FILL">
				<path style="fill:#FFFFFF;" d="M-88.8-14.9l-2.3,10.6h3.8l2.3-10.6H-88.8z"/>
			</g>
		</g>
	</g>
	<g transform="matrix( 1, 0, 0, 1, 129.95,24.8) ">
		<g>
			<g id="Layer0_7_FILL">
				<path style="fill:#FFFFFF;" d="M-84.1-11.6l-1.6,7.2h3.8l1.6-7.2H-84.1 M-80.2-12.8l0.4-2.2h-3.8l-0.4,2.2H-80.2z"/>
			</g>
		</g>
	</g>
	<g transform="matrix( 1, 0, 0, 1, 129.95,24.8) ">
		<g>
			<g id="Layer0_8_FILL">
				<path style="fill:#FFFFFF;" d="M-78.2-11.6h-1.3l-0.3,1.6h1.3l-0.8,3.9c-0.2,0.8,0,1.3,0.4,1.5c0.4,0.3,1.2,0.3,2.4,0.3
					c0.8,0,1.4,0,2.1-0.1l0.3-1.4h-0.6c-0.6,0-0.8-0.2-0.8-0.6l0.8-3.6h1.5l0.3-1.6h-1.5l0.8-4l-4.4,3L-78.2-11.6z"/>
			</g>
		</g>
	</g>
	<g transform="matrix( 1, 0, 0, 1, 129.95,24.8) ">
		<g>
			<g id="Layer0_9_FILL">
				<path style="fill:#FFFFFF;" d="M-67.7-11.7c-1.7,0-3,0.3-3.9,0.8c-0.8,0.6-1.5,1.6-1.8,2.9c-0.3,1.4-0.2,2.4,0.4,2.9
					c0.6,0.6,1.8,0.8,3.5,0.8c2.9,0,4.6-0.9,5.1-2.7h-3.4c-0.2,0.9-0.7,1.4-1.3,1.4c-0.7,0-0.9-0.3-0.8-1l0.3-1.1h5.6l0.2-0.8
					c0.3-1.3,0.1-2.2-0.5-2.7C-65-11.5-66.1-11.7-67.7-11.7 M-67.2-9.4l-0.1,0.5h-2.1l0.1-0.5c0.1-0.4,0.3-0.7,0.4-0.8
					s0.5-0.3,0.8-0.3c0.4,0,0.7,0.1,0.8,0.3C-67.1-10-67.1-9.7-67.2-9.4z"/>
			</g>
		</g>
	</g>
	<g transform="matrix( 1, 0, 0, 1, 129.95,24.8) ">
		<g>
			<g id="Layer0_10_FILL">
				<path style="fill:#FFFFFF;" d="M-61.9-4.5c0-0.3-0.1-0.4-0.3-0.7c-0.2-0.2-0.4-0.3-0.7-0.3s-0.5,0.1-0.7,0.3
					c-0.2,0.2-0.3,0.4-0.3,0.7c0,0.3,0.1,0.4,0.3,0.7c0.2,0.2,0.4,0.3,0.7,0.3s0.4-0.1,0.7-0.3C-62-4.1-61.9-4.2-61.9-4.5
					 M-62.2-5.1c0.2,0.2,0.3,0.3,0.3,0.5c0,0.3-0.1,0.4-0.3,0.5c-0.2,0.2-0.3,0.3-0.6,0.3c-0.2,0-0.4-0.1-0.5-0.3
					c-0.2-0.2-0.3-0.3-0.3-0.5c0-0.2,0.1-0.4,0.3-0.5c0.2-0.2,0.3-0.3,0.5-0.3C-62.6-5.3-62.5-5.2-62.2-5.1 M-62.6-4.5
					c0.2,0,0.3-0.1,0.3-0.3c0-0.2-0.2-0.3-0.4-0.3h-0.3V-4h0.2v-0.4h0.2C-62.7-4.4-62.6-4.4-62.6-4.5c0,0.1,0,0.2,0.1,0.3V-4h0.3
					v-0.3C-62.5-4.4-62.5-4.5-62.6-4.5 M-62.8-4.7H-63V-5h0.3c0.1,0,0.2,0,0.2,0.2S-62.7-4.7-62.8-4.7z"/>
			</g>
		</g>
	</g>
	<g transform="matrix( 1, 0, 0, 1, 129.95,24.8) ">
		<g>
			<g id="Layer0_11_FILL">
				<path style="fill:#FFFFFF;" d="M-86.7-1.4h-1.1l-4.6,7.2h1l1.2-1.9h3.4l0.4,1.9h1.1L-86.7-1.4 M-89.6,3.2l2.1-3.5l0.6,3.5H-89.6
					z"/>
			</g>
		</g>
	</g>
	<g transform="matrix( 1, 0, 0, 1, 129.95,24.8) ">
		<g>
			<g id="Layer0_12_FILL">
				<path style="fill:#FFFFFF;" d="M-83.4,3.8l0.7-2.9h-0.9l-0.8,3.4c-0.1,0.5,0,0.9,0.2,1.3C-84,5.9-83.6,6-83.1,6
					c0.8,0,1.4-0.3,1.9-0.8l0,0l-0.2,0.8h0.9l1.1-5.1h-0.9l-0.5,2.6c-0.1,0.4-0.2,0.8-0.4,1.2c-0.2,0.3-0.3,0.4-0.6,0.5
					c-0.3,0.1-0.4,0.2-0.7,0.2c-0.4,0-0.7-0.2-0.8-0.4C-83.4,4.7-83.4,4.3-83.4,3.8z"/>
			</g>
		</g>
	</g>
	<g transform="matrix( 1, 0, 0, 1, 129.95,24.8) ">
		<g>
			<g id="Layer0_13_FILL">
				<path style="fill:#FFFFFF;" d="M-76.7,0.8l0.3-1.3l-1,0.3l-0.3,1.1h-0.8l-0.2,0.8h0.8l-0.7,3.2c-0.1,0.3-0.1,0.5-0.1,0.6
					c0,0,0,0.2,0.1,0.3c0.1,0.2,0.3,0.3,0.5,0.3s0.4,0,0.7,0h0.7l0.2-0.8c-0.2,0-0.3,0.1-0.5,0.1c-0.4,0-0.6-0.2-0.5-0.5l0.7-3.2
					h1.3l0.2-0.8h-1.3V0.8z"/>
			</g>
		</g>
	</g>
	<g transform="matrix( 1, 0, 0, 1, 129.95,24.8) ">
		<g>
			<g id="Layer0_14_FILL">
				<path style="fill:#FFFFFF;" d="M-70.7,1.4c-0.3-0.5-0.9-0.8-1.7-0.8s-1.5,0.3-2,0.8c-0.5,0.5-0.8,1.2-1.1,1.9
					c-0.2,0.8-0.1,1.4,0.3,1.9S-74.4,6-73.6,6s1.5-0.3,2-0.8c0.5-0.5,0.8-1.2,1-1.9C-70.3,2.6-70.3,1.9-70.7,1.4 M-72.5,1.4
					c1,0,1.3,0.7,1.1,1.9c-0.3,1.3-0.8,1.9-1.9,1.9c-1,0-1.3-0.7-1.1-1.9C-74.2,2.1-73.5,1.4-72.5,1.4z"/>
			</g>
		</g>
	</g>
	<g transform="matrix( 1, 0, 0, 1, 129.95,24.8) ">
		<g>
			<g id="Layer0_15_FILL">
				<path style="fill:#FFFFFF;" d="M-63.2-1c-0.4-0.3-0.9-0.4-1.6-0.4c-1.3,0-2.4,0.5-3.3,1.6c-0.6,0.8-0.9,1.5-1.1,2.2
					c-0.3,1.3-0.1,2.4,0.4,2.9c0.3,0.3,0.7,0.6,1.1,0.7c0.3,0.1,0.8,0.2,1.3,0.2c0.7,0,1.6-0.2,2.6-0.4l0.8-3.5h-2.6L-65.8,3h1.6
					l-0.4,2c-0.5,0.2-1,0.3-1.5,0.3c-1,0-1.6-0.3-1.9-0.8c-0.3-0.4-0.3-1.2-0.2-2.1c0.2-0.8,0.4-1.4,0.9-1.9c0.6-0.6,1.3-0.9,2-0.9
					c1,0,1.5,0.4,1.4,1.1h1.1C-62.6-0.2-62.8-0.7-63.2-1z"/>
			</g>
		</g>
	</g>
	<g transform="matrix( 1, 0, 0, 1, 129.95,24.8) ">
		<g>
			<g id="Layer0_16_FILL">
				<path style="fill:#FFFFFF;" d="M-59.9-1.4h-0.9l-1.5,7.2h0.9L-59.9-1.4z"/>
			</g>
		</g>
	</g>
	<g transform="matrix( 1, 0, 0, 1, 129.95,24.8) ">
		<g>
			<g id="Layer0_17_FILL">
				<path style="fill:#FFFFFF;" d="M-57.9,1.7c0.2-0.2,0.4-0.3,0.7-0.3c0.4,0,0.8,0.1,0.8,0.4c0.1,0.2,0,0.5-0.1,1h-0.8
					c-0.7,0-1.3,0.1-1.8,0.4C-59.7,3.6-60,4-60.2,4.7c-0.1,0.4,0,0.8,0.3,1.1c0.3,0.3,0.7,0.3,1.1,0.3c0.8,0,1.3-0.3,1.8-0.8l0,0
					l-0.1,0.7c0,0,0.1,0.1,0.3,0.1h0.7l0.8-3.5c0.3-1.2-0.3-1.7-1.7-1.7c-0.5,0-1,0.1-1.3,0.3c-0.4,0.3-0.8,0.7-0.8,1.2h1
					C-58.3,2-58.1,1.7-57.9,1.7 M-57.5,3.4h0.9c-0.3,1.3-0.8,1.9-1.7,1.9c-0.3,0-0.5-0.1-0.7-0.3c-0.2-0.2-0.2-0.4-0.2-0.8
					c0.1-0.3,0.3-0.6,0.6-0.8C-58.2,3.5-57.9,3.4-57.5,3.4z"/>
			</g>
		</g>
	</g>
	<g transform="matrix( 1, 0, 0, 1, 129.95,24.8) ">
		<g>
			<g id="Layer0_18_FILL">
				<path style="fill:#FFFFFF;" d="M-51.3,2.2h1c0.2-0.5,0-0.9-0.3-1.2c-0.3-0.3-0.8-0.3-1.3-0.3s-1,0.1-1.4,0.4
					c-0.5,0.3-0.8,0.7-0.8,1.2c-0.2,0.8,0.3,1.2,1.2,1.4c0.9,0.3,1.4,0.5,1.3,0.8c-0.1,0.6-0.6,0.8-1.3,0.8c-0.3,0-0.5-0.1-0.7-0.3
					c-0.2-0.2-0.2-0.4-0.2-0.8h-1c-0.1,0.5,0,0.9,0.3,1.3c0.3,0.3,0.8,0.4,1.3,0.4c0.6,0,1.2-0.1,1.6-0.3c0.5-0.3,0.8-0.8,1-1.3
					c0.1-0.5,0-0.8-0.3-1.1c-0.1,0-0.4-0.2-1.2-0.4c-0.3-0.1-0.5-0.1-0.8-0.2c-0.3-0.1-0.4-0.3-0.3-0.5c0.1-0.5,0.4-0.8,1.1-0.8
					C-51.4,1.4-51.1,1.7-51.3,2.2z"/>
			</g>
		</g>
	</g>
	<g transform="matrix( 1, 0, 0, 1, 129.95,24.8) ">
		<g>
			<g id="Layer0_19_FILL">
				<path style="fill:#FFFFFF;" d="M-46.1,2.2h1c0.2-0.5,0-0.9-0.3-1.2c-0.3-0.3-0.8-0.3-1.3-0.3c-0.5,0-1,0.1-1.4,0.4
					c-0.5,0.3-0.8,0.7-0.9,1.2c-0.2,0.8,0.3,1.2,1.2,1.4s1.4,0.5,1.3,0.8c-0.1,0.3-0.3,0.5-0.5,0.7c-0.3,0.1-0.5,0.2-0.8,0.2
					c-0.3,0-0.5-0.1-0.7-0.3c-0.2-0.2-0.2-0.4-0.2-0.8h-1c-0.1,0.5,0,0.9,0.3,1.3c0.3,0.3,0.7,0.4,1.3,0.4c0.6,0,1.2-0.1,1.6-0.3
					c0.5-0.3,0.8-0.8,1-1.3c0.1-0.5,0-0.8-0.3-1.1c0,0-0.4-0.2-1.2-0.4c-0.3-0.1-0.5-0.1-0.8-0.2c-0.3-0.1-0.4-0.3-0.4-0.5
					c0.1-0.5,0.5-0.8,1.1-0.8C-46.3,1.4-46,1.7-46.1,2.2z"/>
			</g>
		</g>
	</g>
</g>
</svg>
