<?xml version="1.0" encoding="utf-8"?>
<!-- Generator: Adobe Illustrator 18.1.1, SVG Export Plug-In . SVG Version: 6.00 Build 0)  -->
<svg version="1.1" id="Layer_1" xmlns="http://www.w3.org/2000/svg" xmlns:xlink="http://www.w3.org/1999/xlink" x="0px" y="0px"
	 viewBox="0 0 203 75" style="enable-background:new 0 0 203 75;" xml:space="preserve">
<g>
	<defs>
		<rect id="SVGID_1_" width="203" height="75"/>
	</defs>
	<clipPath id="SVGID_2_">
		<use xlink:href="#SVGID_1_"  style="overflow:visible;"/>
	</clipPath>
	<path style="clip-path:url(#SVGID_2_);fill:#FFFFFF;" d="M67.9,15.9c0,0,15.2-10.3,35.6-14.6c0,0-14.1,0.4-28.7,5.7
		c-19.2,7-23.9,12.4-23.9,12.4C63.2,15.7,67.9,15.9,67.9,15.9"/>
</g>
<g>
	<defs>
		<rect id="SVGID_3_" y="0.9" width="202.6" height="74.1"/>
	</defs>
	<clipPath id="SVGID_4_">
		<use xlink:href="#SVGID_3_"  style="overflow:visible;"/>
	</clipPath>
	<path style="clip-path:url(#SVGID_4_);fill:#EE3224;" d="M115,0.9c-14.4,0.3-30.6,8.4-38.2,14.4c0,0,10-1.9,23.9,1.4
		c0,0,0.2-4.5,3.6-9.4C106.8,3.7,115,0.9,115,0.9"/>
	<path style="clip-path:url(#SVGID_4_);fill:#FFFFFF;" d="M18.6,32.9l0.2-1c0.3-1.4-0.4-2.6-2.3-2.6c-2.1,0-3.4,1.5-3.7,2.6
		c-1,4.8,15.8,2.5,13.9,11.3c-1.1,5.2-6.4,7.5-15.2,7.5c-8.3,0-12.5-1.8-11.4-6.8L0.3,43H10l-0.2,1c-0.4,2.1,0.7,2.8,2.7,2.8
		c2,0,3.5-1.5,3.8-2.8c1-4.8-15.1-2.4-13.3-11c1-4.9,5.7-7.6,14.2-7.6c8.7,0,11.9,2.3,10.8,7.5H18.6"/>
</g>
<g>
	<defs>
		<rect id="SVGID_5_" width="203" height="75"/>
	</defs>
	<clipPath id="SVGID_6_">
		<use xlink:href="#SVGID_5_"  style="overflow:visible;"/>
	</clipPath>
	<path style="clip-path:url(#SVGID_6_);fill:#FFFFFF;" d="M43.9,37.3c0.2-1.1-0.4-1.6-1.9-1.6c-1.7,0-2.7,0.9-3.1,2.8H31
		c1.1-4.9,7.5-5.8,11.6-5.8c6.3,0,10.5,1.1,9.6,5.5l-1.8,8.4c-0.3,1.6-0.5,2.8,0.1,3.7h-8.7c-0.2-0.6-0.1-1.2-0.1-1.9h-0.1
		c-1.3,1.5-3.9,2.4-6.6,2.4c-5.4,0-7.1-2.1-6.4-5.1c0.7-3.2,2.8-4.7,8.7-5.5l3.7-0.5c1.7-0.2,2.3-0.3,2.7-0.4L43.9,37.3 M39.6,42.8
		c-1.4,0.4-2.1,1.1-2.3,2.2c-0.2,1.1,0.4,2.3,1.7,2.3c2,0,3-1,3.4-2.8l0.5-2.3C42.8,42.2,41,42.4,39.6,42.8z"/>
	<path style="clip-path:url(#SVGID_6_);fill:#FFFFFF;" d="M56.8,36.9h-3.1l0.8-3.9h3.1l0.6-2.7c0.7-3.4,3.1-4.7,9.4-4.7
		c1.3,0,2.9,0.1,4.3,0.2L71.2,29c-0.4-0.1-0.8-0.1-1.5-0.1c-1.1,0-2.2,0.4-2.4,1.2l-0.6,2.9h3.7l-0.8,3.9h-3.7L63,50.3h-9L56.8,36.9
		"/>
	<path style="clip-path:url(#SVGID_6_);fill:#FFFFFF;" d="M77.7,42.7l-0.6,2.7c-0.4,1.9,0.7,2.3,2,2.3c1.6,0,2.8-1.1,3.3-3.5h8.1
		c-1,4.2-4.5,6.5-12,6.5c-8.7,0-11-2.5-9.6-9.1c1.4-6.6,5.3-9.1,13.5-9.1c7.2,0,10.4,2,9.1,8.3l-0.4,1.8H77.7 M83.6,38.3
		c0.4-1.8,0-2.6-1.9-2.6c-1.9,0-2.6,0.8-3,2.6l-0.3,1.2h5L83.6,38.3z"/>
	<polyline style="clip-path:url(#SVGID_6_);fill:#FFFFFF;" points="98.1,24.9 107.1,24.9 101.7,50.3 92.7,50.3 98.1,24.9 	"/>
	<path style="clip-path:url(#SVGID_6_);fill:#FFFFFF;" d="M109.3,33.1h9l-3.7,17.2h-9L109.3,33.1 M111,24.9h9l-1.1,5.2h-9L111,24.9z
		"/>
	<path style="clip-path:url(#SVGID_6_);fill:#FFFFFF;" d="M120.4,33.1h3l0.5-2.2l10.5-7.2l-2,9.4h3.6l-0.8,3.9h-3.6l-1.8,8.7
		c-0.2,1,0.4,1.3,1.9,1.3h1.4l-0.7,3.4c-1.7,0.1-3.5,0.2-5,0.2c-5.5,0-7.6-0.6-6.7-4.4l2-9.2h-3L120.4,33.1"/>
	<path style="clip-path:url(#SVGID_6_);fill:#FFFFFF;" d="M144.1,42.7l-0.6,2.7c-0.4,1.9,0.7,2.3,2,2.3c1.6,0,2.8-1.1,3.3-3.5h8.1
		c-1,4.2-4.5,6.5-12,6.5c-8.7,0-11-2.5-9.6-9.1c1.4-6.6,5.3-9.1,13.5-9.1c7.2,0,10.4,2,9.1,8.3l-0.4,1.8H144.1 M150,38.3
		c0.4-1.8,0-2.6-1.9-2.6c-1.9,0-2.6,0.8-3,2.6l-0.3,1.2h5L150,38.3z"/>
	<path style="clip-path:url(#SVGID_6_);fill:#FFFFFF;" d="M156.5,48.5c0-1.2,1-2.2,2.2-2.2c1.2,0,2.2,1,2.2,2.2c0,1.2-1,2.2-2.2,2.2
		C157.5,50.8,156.5,49.8,156.5,48.5 M160.6,48.5c0-1-0.8-1.8-1.8-1.8c-1,0-1.8,0.8-1.8,1.8c0,1,0.8,1.8,1.8,1.8
		C159.8,50.4,160.6,49.5,160.6,48.5z M158.3,48.7v1.1h-0.4v-2.6h0.8c0.5,0,1,0.1,1,0.7c0,0.3-0.2,0.5-0.5,0.6v0
		c0.4,0.1,0.4,0.2,0.4,0.5c0,0.2,0.1,0.5,0.2,0.8h-0.5c0-0.1-0.1-0.3-0.1-0.5c0-0.2,0-0.4-0.1-0.6c-0.1-0.1-0.2-0.1-0.4-0.1H158.3z
		 M158.7,48.3c0.4,0,0.5-0.2,0.5-0.4c0-0.2-0.1-0.3-0.4-0.3h-0.5v0.7H158.7z"/>
	<path style="clip-path:url(#SVGID_6_);fill:#FFFFFF;" d="M89.7,74.6l10.9-17.2h2.6l3.3,17.2h-2.6l-0.9-4.5h-8l-2.8,4.5H89.7
		 M96.2,68.1h6.4l-1.4-8.3L96.2,68.1z"/>
	<path style="clip-path:url(#SVGID_6_);fill:#FFFFFF;" d="M118.5,62.6h2.3l-2.6,12H116l0.4-1.8h0c-1.2,1.5-2.9,2.1-4.6,2.1
		c-2.5,0-3.5-1.9-3-4.3l1.7-8h2.3l-1.5,7.1c-0.4,2.1-0.3,3.6,1.9,3.6c0.9,0,2.3-0.5,3-1.7c0.7-1.1,1-2.5,1.1-2.8L118.5,62.6"/>
	<path style="clip-path:url(#SVGID_6_);fill:#FFFFFF;" d="M124.9,62.6l0.5-2.6l2.4-0.7l-0.7,3.3l2.8-0.1l-0.4,1.7l-2.8,0l-1.6,7.7
		c-0.2,0.9,0.4,1.3,1.2,1.3c0.4,0,0.8,0,1.2-0.1l-0.4,1.7c-0.5,0-1.1,0.1-1.6,0.1c-0.5,0-1,0-1.5-0.1c-0.3-0.1-0.9-0.3-1.2-0.8
		c-0.3-0.6-0.4-0.6-0.1-2.2l1.6-7.6l-2.1,0l0.4-1.7L124.9,62.6"/>
	<path style="clip-path:url(#SVGID_6_);fill:#FFFFFF;" d="M142.1,68.6c-0.8,3.7-3.4,6.4-7.3,6.4c-3.9,0-5.4-2.6-4.6-6.4
		c0.8-3.7,3.4-6.4,7.3-6.4S142.9,64.9,142.1,68.6 M135.1,73.4c2.7,0,4-2.2,4.6-4.7c0.5-2.6,0.1-4.7-2.6-4.7c-2.7,0-4,2.1-4.6,4.7
		C132,71.2,132.4,73.4,135.1,73.4z"/>
	<path style="clip-path:url(#SVGID_6_);fill:#FFFFFF;" d="M158,61.7c0-2.1-1.7-2.6-3.5-2.6c-4.2,0-6.5,3.7-7.1,6.9
		c-0.7,4.4,0.1,6.8,5,6.9c1.2,0,2.4-0.2,3.6-0.5l1-4.9h-3.9l0.4-2.1h6.3L158,74c-2.1,0.6-4.2,1-6.1,1c-2.4,0-4.4-0.3-5.9-2
		c-1.6-1.7-1.6-4.6-1.1-7c0.4-1.8,1.4-3.8,2.6-5.3c2.1-2.6,4.8-3.7,7.8-3.7c2.9,0,5.9,1.3,5.3,4.7H158"/>
	<polyline style="clip-path:url(#SVGID_6_);fill:#FFFFFF;" points="161.3,74.6 165,57.4 167.2,57.4 163.6,74.6 161.3,74.6 	"/>
	<path style="clip-path:url(#SVGID_6_);fill:#FFFFFF;" d="M175.5,67.2c0.4-2.1,0.6-3.3-1.8-3.3c-1.1,0-2.4,0.7-2.7,1.9h-2.4
		c0.7-2.6,2.9-3.6,5.3-3.6c2.5,0,4.7,0.7,4,4.1l-1.2,5.7c-0.1,0.5-0.3,1.5-0.4,2.5h-1.5c-0.2,0-0.6,0.1-0.6-0.2
		c0.1-0.5,0.1-1.1,0.2-1.6h0c-1.1,1.5-2.5,2.2-4.2,2.2c-2.1,0-4-1.1-3.5-3.4c0.7-3.4,3.9-4.3,6.8-4.3H175.5 M172.9,68.8
		c-1.4,0.1-3.3,0.6-3.7,2.3c-0.3,1.5,0.6,2.2,1.9,2.2c2.7,0,3.7-2.3,4.1-4.5H172.9z"/>
</g>
<g>
	<defs>
		<rect id="SVGID_7_" y="0.9" width="202.6" height="74.1"/>
	</defs>
	<clipPath id="SVGID_8_">
		<use xlink:href="#SVGID_7_"  style="overflow:visible;"/>
	</clipPath>
	<path style="clip-path:url(#SVGID_8_);fill:#FFFFFF;" d="M186.4,62.3c2.3,0,4.6,1,3.9,3.7h-2.4c0.4-1.5-0.6-2-2-2
		c-1.2,0-2.3,0.6-2.6,1.9c-0.3,1.3,1.8,1.4,2.6,1.7c1.9,0.7,4.2,0.9,3.6,3.6c-0.6,2.9-3.7,3.8-6.1,3.8c-2.5,0-4.4-1.1-3.8-3.9h2.4
		c-0.3,1.5,0.6,2.3,2,2.3c1.3,0,2.8-0.5,3.1-2.1c0.6-2.7-7.1-0.7-6.2-5.4C181.5,63.4,184.2,62.3,186.4,62.3"/>
	<path style="clip-path:url(#SVGID_8_);fill:#FFFFFF;" d="M198.6,62.3c2.3,0,4.6,1,3.9,3.7h-2.4c0.4-1.5-0.6-2-2-2
		c-1.2,0-2.3,0.6-2.6,1.9c-0.3,1.3,1.8,1.4,2.6,1.7c1.9,0.7,4.2,0.9,3.6,3.6c-0.6,2.9-3.7,3.8-6.1,3.8c-2.5,0-4.4-1.1-3.8-3.9h2.4
		c-0.3,1.5,0.6,2.3,2,2.3c1.3,0,2.8-0.5,3.1-2.1c0.6-2.7-7.1-0.7-6.1-5.4C193.7,63.4,196.4,62.3,198.6,62.3"/>
</g>
</svg>
