<?xml version="1.0" encoding="utf-8"?>
<!-- Generator: Adobe Illustrator 18.1.1, SVG Export Plug-In . SVG Version: 6.00 Build 0)  -->
<svg version="1.1" id="Layer_1" xmlns="http://www.w3.org/2000/svg" xmlns:xlink="http://www.w3.org/1999/xlink" x="0px" y="0px"
	 viewBox="0 0 177 28" style="enable-background:new 0 0 177 28;" xml:space="preserve">
<path style="fill:#FFFFFF;" d="M2.5,18.1l-0.1,0.5c-0.5,2.4,0.8,3.1,2.3,3.1c1.8,0,3.3-0.7,3.7-2.8c0.8-3.9-7.1-3.4-6-8.7
	C3,7.1,5.6,5.5,8.5,5.5c3.2,0,4.6,1.5,3.7,5.1H10c0.4-1.9,0.1-3.2-2-3.2c-1.3,0-2.8,0.7-3.2,2.6c-0.8,3.8,7.1,3.3,6,8.8
	c-0.8,3.7-3.6,4.9-6.5,4.9c-5.2,0-4.3-3.9-3.9-5.6H2.5z"/>
<path style="fill:#FFFFFF;" d="M18.8,21.5L18.8,21.5c-1,1.4-2,2-3.6,2c-2.6,0-3-1.7-2.5-4c0.8-3.7,4.4-3.9,7.2-3.8
	c0.4-1.6,0.8-3.4-1.4-3.4c-1.3,0-2.2,0.9-2.4,2.2h-2.2c0.7-2.7,2.3-3.7,4.9-3.7c3.1,0,3.6,1.6,3.2,3.7L21,20.4c-0.2,1-0.3,2-0.4,2.9
	h-2.2L18.8,21.5z M14.8,19.7c-0.3,1.2,0.1,2.2,1.4,2.2c1.2,0,2.9-0.7,3.5-4.7C17.8,17.3,15.3,17.1,14.8,19.7z"/>
<path style="fill:#FFFFFF;" d="M26.5,11.1L27,8.7c0.5-2.5,2.4-2.9,4.1-2.9c0.4,0,0.7,0,0.9,0.1l-0.3,1.4C29.7,7.1,29.1,8,28.9,9
	l-0.5,2.1h2.5l-0.3,1.5h-2.5l-2.3,10.7h-2l2.3-10.7h-1.9l0.3-1.5H26.5z"/>
<path style="fill:#FFFFFF;" d="M32.6,17.9c-0.7,3.4,0,4.1,1.6,4.1c1.4,0,2.3-1.1,2.6-2.3H39c-0.6,2.7-2.5,3.9-5.1,3.9
	c-2.6,0-4.5-0.8-3.3-6.2c0.8-3.6,1.8-6.5,6-6.5c3.5,0,4,1.9,3.1,5.9l-0.2,1H32.6z M37.7,16.4c0.7-3.6-0.1-4-1.6-4
	c-1.3,0-2.4,0.6-3.2,4H37.7z"/>
<path style="fill:#FFFFFF;" d="M42.8,23.3h-2l3.7-17.4h2L42.8,23.3z"/>
<path style="fill:#FFFFFF;" d="M47.9,23.3h-2l2.6-12.2h2L47.9,23.3z M49.5,5.9h2.2L51.3,8h-2.2L49.5,5.9z"/>
<path style="fill:#FFFFFF;" d="M54.6,11.1l0.5-2.3l2.2-0.9l-0.7,3.2h2.7L59,12.6h-2.7l-1.6,7.5c-0.1,0.8-0.4,1.8,1.4,1.8
	c0.1,0,0.5,0,0.9-0.1l-0.3,1.5c-0.7,0-1.3,0.2-2,0.2c-1.9,0-2.6-0.8-2.3-2.2l1.8-8.7h-2l0.3-1.5H54.6z"/>
<path style="fill:#FFFFFF;" d="M61.2,17.9c-0.7,3.4,0,4.1,1.6,4.1c1.4,0,2.3-1.1,2.6-2.3h2.2c-0.6,2.7-2.5,3.9-5.1,3.9
	c-2.6,0-4.5-0.8-3.3-6.2c0.8-3.6,1.8-6.5,6-6.5c3.5,0,4,1.9,3.1,5.9l-0.2,1H61.2z M66.2,16.4c0.7-3.6-0.1-4-1.6-4
	c-1.3,0-2.4,0.6-3.2,4H66.2z"/>
<path style="fill:#FFFFFF;" d="M68.4,23.3l8.5-17.4h4.8l1,17.4h-3.8l-0.1-3.9h-5L72,23.3H68.4z M78.4,9.2L78.4,9.2l-3.3,7.5h3.5
	L78.4,9.2z"/>
<path style="fill:#FFFFFF;" d="M118.5,21c-0.2,0.7-0.2,1.5-0.3,2.3H115l0.2-1.6h0c-1,1.3-2.1,1.9-3.6,1.9c-2.4,0-2.9-1.8-2.4-3.9
	c0.9-4,4-4.2,7.2-4.2l0.2-0.9c0.2-1,0.2-1.8-1-1.8c-1.2,0-1.5,0.9-1.7,1.9h-3.3c0.3-1.5,1-2.4,1.9-3c0.9-0.6,2.1-0.8,3.4-0.8
	c4.3,0,4.5,1.9,4,4.1L118.5,21z M112.5,19.5c-0.2,0.9-0.3,1.9,0.8,1.9c2,0,2.3-2.7,2.6-4C114.2,17.5,113,17.3,112.5,19.5z"/>
<path style="fill:#FFFFFF;" d="M125.6,12.3L125.6,12.3c0.5-0.6,1-0.9,1.5-1.1c0.6-0.2,1.1-0.3,1.7-0.3c1.6,0,2.9,1,2.5,2.7l-2.1,9.8
	h-3.4l1.8-8.4c0.2-1.1,0.2-1.9-0.9-1.9c-1.1,0-1.5,0.8-1.7,1.9l-1.8,8.4h-3.4l2.6-12.2h3.4L125.6,12.3z"/>
<path style="fill:#FFFFFF;" d="M132.9,11.1h1.4l0.4-1.9l3.7-1.5l-0.7,3.5h1.8l-0.4,2.1h-1.8l-1.4,6.5c-0.2,0.9-0.3,1.5,0.8,1.5
	c0.2,0,0.4,0,0.6,0l-0.4,2.1c-0.5,0-1,0.1-1.8,0.1c-2.9,0-2.9-2-2.8-2.7l1.6-7.5h-1.4L132.9,11.1z"/>
<path style="fill:#FFFFFF;" d="M147.9,21c-0.2,0.7-0.2,1.5-0.3,2.3h-3.2l0.2-1.6h0c-1,1.3-2.1,1.9-3.6,1.9c-2.4,0-2.9-1.8-2.4-3.9
	c0.9-4,4-4.2,7.2-4.2l0.2-0.9c0.2-1,0.2-1.8-1-1.8c-1.2,0-1.5,0.9-1.7,1.9H140c0.3-1.5,1-2.4,1.9-3c0.9-0.6,2.1-0.8,3.4-0.8
	c4.3,0,4.5,1.9,4,4.1L147.9,21z M142,19.5c-0.2,0.9-0.3,1.9,0.8,1.9c2,0,2.3-2.7,2.6-4C143.6,17.5,142.4,17.3,142,19.5z"/>
<path style="fill:#FFFFFF;" d="M161.3,11.1l-2.7,12.7c-0.2,0.8-0.8,4.2-5.5,4.2c-2.5,0-4.6-0.7-4-3.6h3.3c-0.1,0.5-0.1,0.9,0,1.2
	c0.1,0.3,0.5,0.5,1,0.5c0.8,0,1.4-0.8,1.7-2l0.5-2.3h0c-0.7,0.9-1.8,1.4-2.9,1.4c-3.7,0-2.8-3.4-2.2-6.2c0.6-2.7,1.3-6.1,4.9-6.1
	c1.2,0,2.2,0.5,2.4,1.7h0l0.3-1.4H161.3z M154.4,21c1.2,0,1.7-1.3,2.2-3.9c0.6-2.7,0.8-4.2-0.5-4.2c-1.3,0-1.7,0.9-2.5,4.6
	C153.4,18.7,152.8,21,154.4,21z"/>
<path style="fill:#FFFFFF;" d="M164.9,17.8c-0.3,1.4-0.7,3.6,0.8,3.6c1.2,0,1.7-1.2,1.9-2.2h3.5c-0.3,1.3-1,2.4-2,3.2
	c-0.9,0.7-2.2,1.2-3.8,1.2c-4.4,0-4.4-2.7-3.6-6.5c0.7-3.3,1.8-6.2,6.3-6.2c4.6,0,4.5,3,3.5,6.9H164.9z M168.4,15.8
	c0.2-1.2,0.7-2.9-1-2.9c-1.6,0-1.9,1.8-2.2,2.9H168.4z"/>
<path style="fill:#FFFFFF;" d="M89.4,23.3l0.3-1.4h0c-0.9,1.2-1.9,1.6-3.2,1.6c-3.5,0-2.6-3.9-2.1-6.4c0.5-2.5,1.2-6.3,4.7-6.3
	c1.2,0,2,0.4,2.5,1.4h0l1.4-6.4h3.4l-3.7,17.4H89.4z M90.6,17.1c0.5-2.4,0.9-4.1-0.5-4.1c-1.5,0-1.8,1.7-2.3,4.1
	c-0.7,3.1-0.7,4.3,0.5,4.3C89.4,21.5,89.9,20.2,90.6,17.1z"/>
<g>
	<polygon style="fill:#A03123;" points="97.7,7.2 95.9,15.4 98.2,23.4 101.7,17.6 	"/>
	<path style="fill:#E2231A;" d="M110.7,0.2h6.6l-14.1,23.2h-5L110.7,0.2z"/>
</g>
<g>
	<path style="fill:#FFFFFF;" d="M176.7,12.7c-0.2,1-1.2,1.9-2.2,1.9c-1,0-1.7-0.8-1.5-1.9c0.2-1,1.2-1.8,2.2-1.8
		C176.3,10.9,176.9,11.7,176.7,12.7z M176.4,12.7c0.2-0.8-0.4-1.5-1.2-1.5c-0.8,0-1.6,0.7-1.8,1.5c-0.2,0.8,0.3,1.5,1.2,1.5
		C175.4,14.2,176.2,13.5,176.4,12.7z M174.4,13.8h-0.5l0.5-2.2h0.9c0.3,0,0.5,0.2,0.4,0.6c-0.1,0.3-0.2,0.5-0.5,0.5l0,0
		c0.1,0,0.4,0,0.3,0.4c0,0.1-0.1,0.5-0.1,0.6h-0.5c0-0.1,0-0.3,0-0.4c0.1-0.3,0.1-0.5-0.2-0.5h-0.1L174.4,13.8z M174.7,12.6h0.2
		c0.2,0,0.3-0.2,0.3-0.3c0-0.2,0-0.3-0.2-0.3h-0.2L174.7,12.6z"/>
</g>
</svg>
