<svg xmlns="http://www.w3.org/2000/svg" width="272.657" height="76.031" viewBox="0 0 272.657 76.031">
  <metadata><?xpacket begin="﻿" id="W5M0MpCehiHzreSzNTczkc9d"?>
<x:xmpmeta xmlns:x="adobe:ns:meta/" x:xmptk="Adobe XMP Core 5.6-c138 79.159824, 2016/09/14-01:09:01        ">
   <rdf:RDF xmlns:rdf="http://www.w3.org/1999/02/22-rdf-syntax-ns#">
      <rdf:Description rdf:about=""/>
   </rdf:RDF>
</x:xmpmeta>
                                                                                                    
                                                                                                    
                                                                                                    
                                                                                                    
                                                                                                    
                                                                                                    
                                                                                                    
                                                                                                    
                                                                                                    
                                                                                                    
                                                                                                    
                                                                                                    
                                                                                                    
                                                                                                    
                                                                                                    
                                                                                                    
                                                                                                    
                                                                                                    
                                                                                                    
                                                                                                    
                           
<?xpacket end="w"?></metadata>
<defs>
    <style>
      .cls-1 {
        fill: #fff;
        fill-rule: evenodd;
      }
    </style>
  </defs>
  <path id="GET_20_OFF" data-name="GET 20% OFF" class="cls-1" d="M29.588,103.31V78.886h6.063V72.78H16.516v6.106h6.02V103.31h7.052Zm16.6,0V90.969h6.622V103.31H59.86V72.78H52.808V84.648H46.186V72.78H39.134v30.53h7.052Zm26.4,0V72.78H65.535v30.53h7.052Zm14.232,0.473a15.6,15.6,0,0,0,5.934-.924,5.966,5.966,0,0,0,3.182-2.989,12.989,12.989,0,0,0,.989-5.547,10.96,10.96,0,0,0-1.269-5.547A6.836,6.836,0,0,0,92,85.7q-2.386-.881-2.731-1.011l-1.5-.6a15.7,15.7,0,0,1-2.064-.9,3.143,3.143,0,0,1-1.14-1.118,3.741,3.741,0,0,1-.451-1.978q0-2.709,2.8-2.709a2.776,2.776,0,0,1,2.236.774,3.8,3.8,0,0,1,.645,2.451v0.645h6.407V80.606a11.544,11.544,0,0,0-.86-4.924,5.155,5.155,0,0,0-2.8-2.58,14.557,14.557,0,0,0-5.375-.8q-5.2,0-7.46,1.978t-2.257,6.579a9.9,9.9,0,0,0,.946,4.709,6.507,6.507,0,0,0,2.3,2.558,22.7,22.7,0,0,0,3.633,1.677l1.634,0.645q1.677,0.645,2.451,1.032A3.333,3.333,0,0,1,89.744,92.8a4.854,4.854,0,0,1,.559,2.515,3.893,3.893,0,0,1-.71,2.559,3.161,3.161,0,0,1-2.516.838,3.2,3.2,0,0,1-2.752-1.053,6.158,6.158,0,0,1-.774-3.547V93.119H77.059v1.118a14.319,14.319,0,0,0,.9,5.654,5.643,5.643,0,0,0,3.01,2.967,14.927,14.927,0,0,0,5.848.924h0Zm32.937-.473V90.969h6.622V103.31h7.052V72.78h-7.052V84.648h-6.622V72.78h-7.052v30.53h7.052Zm29.111,0.473a13.324,13.324,0,0,0,6.514-1.29,7.239,7.239,0,0,0,3.2-4.515,35.329,35.329,0,0,0,.946-9.374V87.486a35.332,35.332,0,0,0-.946-9.374,7.239,7.239,0,0,0-3.2-4.515,13.324,13.324,0,0,0-6.514-1.29,13.328,13.328,0,0,0-6.515,1.29,7.16,7.16,0,0,0-3.182,4.515,36.109,36.109,0,0,0-.924,9.374V88.6a36.1,36.1,0,0,0,.924,9.374,7.16,7.16,0,0,0,3.182,4.515,13.328,13.328,0,0,0,6.515,1.29h0Zm0-5.418a2.6,2.6,0,0,1-2.129-.86,6.026,6.026,0,0,1-.989-2.967,51.937,51.937,0,0,1-.279-6.278V87.83a51.953,51.953,0,0,1,.279-6.278,6.031,6.031,0,0,1,.989-2.967,2.6,2.6,0,0,1,2.129-.86,2.666,2.666,0,0,1,2.15.86,5.911,5.911,0,0,1,1.01,2.989,51.985,51.985,0,0,1,.28,6.256v0.43a51.985,51.985,0,0,1-.28,6.257,5.909,5.909,0,0,1-1.01,2.989,2.664,2.664,0,0,1-2.15.86h0Zm30.917,4.945V97.2h-8.342V72.78h-7.052v30.53h15.394Zm10.792,0V72.78h-7.052v30.53h7.052Zm5.675,0h9.073a15.921,15.921,0,0,0,7.052-1.247,7.121,7.121,0,0,0,3.483-4.386,30.6,30.6,0,0,0,1.032-9.073V87.486a30.6,30.6,0,0,0-1.032-9.073,7.126,7.126,0,0,0-3.483-4.386,15.934,15.934,0,0,0-7.052-1.247h-9.073v30.53Zm7.052-5.547V78.284h1.677a4.658,4.658,0,0,1,2.989.8,4.44,4.44,0,0,1,1.311,2.752,37.96,37.96,0,0,1,.344,6v0.43a37.948,37.948,0,0,1-.344,6,4.334,4.334,0,0,1-1.311,2.731,4.751,4.751,0,0,1-2.989.774H203.3Zm39.517,5.547-7.4-30.53h-9.073l-7.4,30.53h7.138l1.075-5.8h7.31l1.075,5.8h7.267Zm-12-25.37,2.666,14.319h-5.332Zm25.414-5.16L252.2,85.637,248.154,72.78h-7.525l7.955,19.651V103.31h7.052V92.431l7.955-19.651h-7.353ZM30.95,127.709v6.4H34.4v1.2q0,3.7-.875,5.149a3.191,3.191,0,0,1-2.975,1.45,3.019,3.019,0,0,1-2.475-1,7,7,0,0,1-1.15-3.449,60.183,60.183,0,0,1-.325-7.3v-0.5a60.183,60.183,0,0,1,.325-7.3,7.013,7.013,0,0,1,1.15-3.45,3.025,3.025,0,0,1,2.475-1,3.057,3.057,0,0,1,2.7,1.225,8,8,0,0,1,.85,4.325v0.15h8.45v-0.15a16.76,16.76,0,0,0-1.25-7.175,7.136,7.136,0,0,0-3.825-3.625,18.731,18.731,0,0,0-6.925-1.05q-4.95,0-7.575,1.5a8.414,8.414,0,0,0-3.725,5.25,41.038,41.038,0,0,0-1.1,10.9v1.3a41.024,41.024,0,0,0,1.1,10.9,8.414,8.414,0,0,0,3.725,5.25q2.625,1.5,7.575,1.5a17.58,17.58,0,0,0,7.175-1.2,7.5,7.5,0,0,0,3.85-4.175,22.9,22.9,0,0,0,1.225-8.424v-6.7H30.95ZM68.1,147.658v-6.25H56.5v-8.749h10.05v-6.25H56.5v-8H67.6v-6.25H48.3v35.5H68.1Zm17.649,0v-28.4H92.8v-7.1H70.548v7.1h7v28.4h8.2Zm32.9-6.6,4.85-6q2.748-3.35,4.124-5.225a17.735,17.735,0,0,0,2.225-4.05,13,13,0,0,0,.85-4.775q0-4.95-2.5-7.175t-8.2-2.225a17.036,17.036,0,0,0-6.625,1.05,6.544,6.544,0,0,0-3.475,3.3,14.209,14.209,0,0,0-1.05,5.95v1.85h7.4v-1.7a5.653,5.653,0,0,1,.8-3.425,3.421,3.421,0,0,1,2.85-1.025,3.337,3.337,0,0,1,2.525.825,3.747,3.747,0,0,1,.775,2.625,8.515,8.515,0,0,1-1.3,4.35,57.687,57.687,0,0,1-4.75,6.4l-8.75,10.849v5h22.749v-6.6h-12.5Zm28.6,7.15q4.65,0,7.075-1.5a8.353,8.353,0,0,0,3.425-5.25,45,45,0,0,0,1-10.9v-1.3a45.018,45.018,0,0,0-1-10.9,8.353,8.353,0,0,0-3.425-5.25q-2.425-1.5-7.075-1.5t-7.075,1.5a8.348,8.348,0,0,0-3.424,5.25,44.916,44.916,0,0,0-1,10.9v1.3a44.9,44.9,0,0,0,1,10.9,8.348,8.348,0,0,0,3.424,5.25q2.426,1.5,7.075,1.5h0Zm0-6.2a2.669,2.669,0,0,1-2.125-.775,5.732,5.732,0,0,1-.925-2.974,68.4,68.4,0,0,1-.25-6.95v-2.8a68.4,68.4,0,0,1,.25-6.95,5.743,5.743,0,0,1,.925-2.975,3.3,3.3,0,0,1,4.25,0,5.912,5.912,0,0,1,.95,3,62.488,62.488,0,0,1,.275,6.925v2.8a62.488,62.488,0,0,1-.275,6.925,5.9,5.9,0,0,1-.95,3,2.669,2.669,0,0,1-2.125.775h0Zm26.649,6.35,19.3-36.9h-5.45l-19.3,36.9h5.45Zm-4-16.3a9.476,9.476,0,0,0,4.525-.875,4.852,4.852,0,0,0,2.225-2.975,21.36,21.36,0,0,0,.65-6v-0.75a21.36,21.36,0,0,0-.65-6,4.855,4.855,0,0,0-2.225-2.975,9.476,9.476,0,0,0-4.525-.875,9.631,9.631,0,0,0-4.55.875,4.924,4.924,0,0,0-2.275,3,20.643,20.643,0,0,0-.675,5.975v0.75a20.639,20.639,0,0,0,.675,5.975,4.918,4.918,0,0,0,2.275,3,9.631,9.631,0,0,0,4.55.875h0Zm0-4.05a1.54,1.54,0,0,1-1.175-.4,3.044,3.044,0,0,1-.525-1.625,36.794,36.794,0,0,1-.15-3.975v-0.25a38.318,38.318,0,0,1,.15-4.025,3.146,3.146,0,0,1,.525-1.675,1.543,1.543,0,0,1,1.175-.4,1.461,1.461,0,0,1,1.15.4,3.35,3.35,0,0,1,.5,1.675,38.318,38.318,0,0,1,.15,4.025v0.25a36.794,36.794,0,0,1-.15,3.975,3.241,3.241,0,0,1-.5,1.625,1.458,1.458,0,0,1-1.15.4h0Zm21.85,20.2a9.471,9.471,0,0,0,4.524-.875,4.845,4.845,0,0,0,2.225-2.975,21.357,21.357,0,0,0,.65-6v-0.75a21.36,21.36,0,0,0-.65-6,4.848,4.848,0,0,0-2.225-2.975,9.471,9.471,0,0,0-4.524-.875,9.625,9.625,0,0,0-4.55.875,4.912,4.912,0,0,0-2.275,2.975,20.6,20.6,0,0,0-.675,6v0.75a20.593,20.593,0,0,0,.675,6,4.909,4.909,0,0,0,2.275,2.975,9.625,9.625,0,0,0,4.55.875h0Zm0-4.05a1.609,1.609,0,0,1-1.225-.4,3.089,3.089,0,0,1-.525-1.65,37.51,37.51,0,0,1-.15-4v-0.25a37.449,37.449,0,0,1,.15-4.025,3.044,3.044,0,0,1,.525-1.625,1.613,1.613,0,0,1,1.225-.4,1.459,1.459,0,0,1,1.15.4,3.307,3.307,0,0,1,.5,1.65,37.545,37.545,0,0,1,.15,4v0.25a37.51,37.51,0,0,1-.15,4,3.3,3.3,0,0,1-.5,1.65,1.455,1.455,0,0,1-1.15.4h0Zm36.448,4.05q4.95,0,7.575-1.5a8.413,8.413,0,0,0,3.724-5.25,41.049,41.049,0,0,0,1.1-10.9v-1.3a41.062,41.062,0,0,0-1.1-10.9,8.413,8.413,0,0,0-3.724-5.25q-2.625-1.5-7.575-1.5t-7.575,1.5a8.325,8.325,0,0,0-3.7,5.25,41.948,41.948,0,0,0-1.075,10.9v1.3a41.934,41.934,0,0,0,1.075,10.9,8.325,8.325,0,0,0,3.7,5.25q2.625,1.5,7.575,1.5h0Zm0-6.3a3.019,3.019,0,0,1-2.475-1,7,7,0,0,1-1.15-3.449,60.225,60.225,0,0,1-.325-7.3v-0.5a60.225,60.225,0,0,1,.325-7.3,7.009,7.009,0,0,1,1.15-3.45,3.025,3.025,0,0,1,2.475-1,3.1,3.1,0,0,1,2.5,1,6.891,6.891,0,0,1,1.175,3.475,60.532,60.532,0,0,1,.325,7.275v0.5a60.532,60.532,0,0,1-.325,7.275,6.883,6.883,0,0,1-1.175,3.474,3.1,3.1,0,0,1-2.5,1h0Zm26.249,5.75v-13.9h10.05v-6.45h-10.05v-8.7h11.1v-6.45h-19.3v35.5h8.2Zm23.649,0v-13.9h10.049v-6.45H278.09v-8.7h11.1v-6.45h-19.3v35.5h8.2Z" transform="translate(-16.531 -72.313)"/>
</svg>
