<svg xmlns="http://www.w3.org/2000/svg" width="271.094" height="77" viewBox="0 0 271.094 77">
  <metadata><?xpacket begin="﻿" id="W5M0MpCehiHzreSzNTczkc9d"?>
<x:xmpmeta xmlns:x="adobe:ns:meta/" x:xmptk="Adobe XMP Core 5.6-c138 79.159824, 2016/09/14-01:09:01        ">
   <rdf:RDF xmlns:rdf="http://www.w3.org/1999/02/22-rdf-syntax-ns#">
      <rdf:Description rdf:about=""/>
   </rdf:RDF>
</x:xmpmeta>
                                                                                                    
                                                                                                    
                                                                                                    
                                                                                                    
                                                                                                    
                                                                                                    
                                                                                                    
                                                                                                    
                                                                                                    
                                                                                                    
                                                                                                    
                                                                                                    
                                                                                                    
                                                                                                    
                                                                                                    
                                                                                                    
                                                                                                    
                                                                                                    
                                                                                                    
                                                                                                    
                           
<?xpacket end="w"?></metadata>
<defs>
    <style>
      .cls-1 {
        fill: #fff;
        fill-rule: evenodd;
      }
    </style>
  </defs>
  <path id="THE_HOLIDAYS" data-name="THE HOLIDAYS" class="cls-1" d="M13.136,34a14.728,14.728,0,0,0,6.394-1.15,7.045,7.045,0,0,0,3.45-3.956,22.559,22.559,0,0,0,1.1-7.958V20.795H16.31v0.138a23.564,23.564,0,0,1-.322,4.462A4.1,4.1,0,0,1,15,27.58a2.63,2.63,0,0,1-1.863.621,2.53,2.53,0,0,1-2.116-.874,6.557,6.557,0,0,1-.966-3.128,61.185,61.185,0,0,1-.276-6.808v-0.46a61.193,61.193,0,0,1,.276-6.808,6.563,6.563,0,0,1,.966-3.128,2.532,2.532,0,0,1,2.116-.874A2.358,2.358,0,0,1,15.39,7.432a11.944,11.944,0,0,1,.69,4.945v0.138h7.774V12.377a19.4,19.4,0,0,0-1.1-7.314,6.7,6.7,0,0,0-3.427-3.68A15.122,15.122,0,0,0,13.136.325,13.609,13.609,0,0,0,6.328,1.7a7.673,7.673,0,0,0-3.312,4.83A39.49,39.49,0,0,0,2.05,16.563v1.2a39.486,39.486,0,0,0,.966,10.028,7.673,7.673,0,0,0,3.312,4.83A13.609,13.609,0,0,0,13.136,34h0Zm34.085-.506v-5.75H36.55v-8.05H45.8v-5.75H36.55V6.581H46.762V0.831H29.006v32.66H47.222Zm21.113,0V26.959H59.411V0.831H51.867v32.66H68.335Zm22.217,0v-5.75H79.88v-8.05h9.246v-5.75H79.88V6.581H90.092V0.831H72.336v32.66H90.552Zm21.39-17.02a5.774,5.774,0,0,0,2.967-2.346,7.919,7.919,0,0,0,.9-4.048v-1.2A9.129,9.129,0,0,0,114.725,4a6.066,6.066,0,0,0-3.611-2.438,26.821,26.821,0,0,0-7.13-.736H95.2v32.66H104.9a26.245,26.245,0,0,0,7.176-.759,6.068,6.068,0,0,0,3.634-2.576,9.917,9.917,0,0,0,1.1-5.129v-1.2a8.746,8.746,0,0,0-1.127-4.807,6.659,6.659,0,0,0-3.749-2.553h0Zm-9.2-10.58h1.334a7.93,7.93,0,0,1,2.691.345,2.083,2.083,0,0,1,1.242,1.2,6.83,6.83,0,0,1,.345,2.461v0.46a5.936,5.936,0,0,1-.345,2.3,2.11,2.11,0,0,1-1.265,1.127,7.965,7.965,0,0,1-2.668.345h-1.334V5.891Zm6.348,17.94a8.767,8.767,0,0,1-.345,2.806,2.3,2.3,0,0,1-1.265,1.38,6.89,6.89,0,0,1-2.714.414h-2.024V19.093h2.024a7.678,7.678,0,0,1,2.714.368,2.147,2.147,0,0,1,1.265,1.288,7.786,7.786,0,0,1,.345,2.622v0.46Zm34.822,9.66-4.784-13.156a6.045,6.045,0,0,0,3.174-3.013,13.039,13.039,0,0,0,.966-5.5v-1.2a12.9,12.9,0,0,0-1.127-6,6.211,6.211,0,0,0-3.749-2.944A25.313,25.313,0,0,0,130.94.831h-9.062v32.66h7.544V21.577h2.944l3.542,11.914h8Zm-13.11-17.8h-1.38V6.719h1.38a9.248,9.248,0,0,1,2.99.368,2.23,2.23,0,0,1,1.38,1.265A7.31,7.31,0,0,1,135.54,11v0.46a6.458,6.458,0,0,1-.391,2.507,2.471,2.471,0,0,1-1.4,1.311,8.115,8.115,0,0,1-2.944.414h0Zm40.571,17.8-7.912-32.66h-9.706l-7.912,32.66h7.636l1.15-6.21h7.82l1.15,6.21h7.774ZM158.539,6.351l2.852,15.318h-5.7Zm25.669,27.14V7.363h6.486V0.831h-20.47V7.363h6.44V33.491h7.544Zm28.427,0v-5.75H201.963v-8.05h9.246v-5.75h-9.246V6.581h10.212V0.831H194.419v32.66h18.216ZM14.562,76.808V50.68h6.486V44.148H0.578V50.68h6.44V76.808h7.544Zm17.756,0v-13.2H39.4v13.2h7.544V44.148H39.4v12.7H32.318v-12.7H24.774v32.66h7.544Zm38.916,0v-5.75H60.561v-8.05h9.246v-5.75H60.561V49.9H70.773v-5.75H53.017v32.66H71.233Zm24.333,0v-13.2h7.084v13.2h7.544V44.148H102.65v12.7H95.566v-12.7H88.022v32.66h7.544Zm31.142,0.506a14.256,14.256,0,0,0,6.969-1.38A7.744,7.744,0,0,0,137.1,71.1a37.792,37.792,0,0,0,1.012-10.028v-1.2A37.8,37.8,0,0,0,137.1,49.852a7.744,7.744,0,0,0-3.427-4.83,14.256,14.256,0,0,0-6.969-1.38,14.256,14.256,0,0,0-6.969,1.38,7.66,7.66,0,0,0-3.4,4.83,38.579,38.579,0,0,0-.989,10.028v1.2a38.575,38.575,0,0,0,.989,10.028,7.66,7.66,0,0,0,3.4,4.83,14.256,14.256,0,0,0,6.969,1.38h0Zm0-5.8a2.779,2.779,0,0,1-2.277-.92,6.447,6.447,0,0,1-1.058-3.174,55.324,55.324,0,0,1-.3-6.716v-0.46a55.34,55.34,0,0,1,.3-6.716,6.452,6.452,0,0,1,1.058-3.174,2.782,2.782,0,0,1,2.277-.92,2.852,2.852,0,0,1,2.3.92,6.333,6.333,0,0,1,1.081,3.2,55.63,55.63,0,0,1,.3,6.693v0.46a55.63,55.63,0,0,1-.3,6.693,6.33,6.33,0,0,1-1.081,3.2,2.85,2.85,0,0,1-2.3.92h0Zm33.074,5.29V70.276h-8.924V44.148h-7.544v32.66h16.468Zm11.545,0V44.148h-7.544v32.66h7.544Zm6.071,0H187.1a17.035,17.035,0,0,0,7.544-1.334,7.619,7.619,0,0,0,3.726-4.692,32.732,32.732,0,0,0,1.1-9.706v-1.2a32.735,32.735,0,0,0-1.1-9.706,7.623,7.623,0,0,0-3.726-4.692,17.045,17.045,0,0,0-7.544-1.334H177.4v32.66Zm7.544-5.934V50.036h1.794a4.981,4.981,0,0,1,3.2.851,4.755,4.755,0,0,1,1.4,2.944,40.6,40.6,0,0,1,.368,6.417v0.46a40.593,40.593,0,0,1-.368,6.417,4.641,4.641,0,0,1-1.4,2.921,5.081,5.081,0,0,1-3.2.828h-1.794Zm42.274,5.934L219.3,44.148H209.6l-7.912,32.66h7.636l1.15-6.21h7.82l1.15,6.21h7.774Zm-12.834-27.14,2.852,15.318h-5.7Zm27.187-5.52L237.245,57.9l-4.324-13.754h-8.05l8.51,21.022V76.808h7.544V65.17l8.51-21.022h-7.866Zm19.274,33.166a16.689,16.689,0,0,0,6.348-.989,6.381,6.381,0,0,0,3.4-3.2,13.9,13.9,0,0,0,1.058-5.934A11.726,11.726,0,0,0,270.3,61.26a7.313,7.313,0,0,0-3.91-3.289q-2.553-.942-2.921-1.081l-1.61-.644a16.774,16.774,0,0,1-2.208-.966,3.362,3.362,0,0,1-1.219-1.2,4,4,0,0,1-.483-2.116q0-2.9,2.99-2.9a2.969,2.969,0,0,1,2.392.828,4.065,4.065,0,0,1,.69,2.622v0.69h6.854V52.52a12.351,12.351,0,0,0-.92-5.267,5.515,5.515,0,0,0-2.99-2.76,15.573,15.573,0,0,0-5.75-.851q-5.567,0-7.981,2.116T250.815,52.8a10.593,10.593,0,0,0,1.012,5.037,6.96,6.96,0,0,0,2.461,2.737,24.285,24.285,0,0,0,3.887,1.794l1.748,0.69q1.794,0.69,2.622,1.1a3.566,3.566,0,0,1,1.426,1.4,5.194,5.194,0,0,1,.6,2.691,4.165,4.165,0,0,1-.759,2.737,3.381,3.381,0,0,1-2.691.9,3.424,3.424,0,0,1-2.944-1.127,6.588,6.588,0,0,1-.828-3.8V65.906H250.4v1.2a15.318,15.318,0,0,0,.966,6.049,6.037,6.037,0,0,0,3.22,3.174,15.965,15.965,0,0,0,6.256.989h0Z" transform="translate(-0.563 -0.313)"/>
</svg>
