<svg id="CTA" xmlns="http://www.w3.org/2000/svg" width="131" height="35" viewBox="0 0 131 35">
  <metadata><?xpacket begin="﻿" id="W5M0MpCehiHzreSzNTczkc9d"?>
<x:xmpmeta xmlns:x="adobe:ns:meta/" x:xmptk="Adobe XMP Core 5.6-c138 79.159824, 2016/09/14-01:09:01        ">
   <rdf:RDF xmlns:rdf="http://www.w3.org/1999/02/22-rdf-syntax-ns#">
      <rdf:Description rdf:about=""/>
   </rdf:RDF>
</x:xmpmeta>
                                                                                                    
                                                                                                    
                                                                                                    
                                                                                                    
                                                                                                    
                                                                                                    
                                                                                                    
                                                                                                    
                                                                                                    
                                                                                                    
                                                                                                    
                                                                                                    
                                                                                                    
                                                                                                    
                                                                                                    
                                                                                                    
                                                                                                    
                                                                                                    
                                                                                                    
                                                                                                    
                           
<?xpacket end="w"?></metadata>
<defs>
    <style>
      .cls-1 {
        fill: #fffefe;
        fill-rule: evenodd;
      }
    </style>
  </defs>
  <rect id="Rounded_Rectangle_1" data-name="Rounded Rectangle 1" width="131" height="35" rx="5" ry="5"/>
  <path id="SHOP_NOW" data-name="SHOP NOW" class="cls-1" d="M13.677,26.851a9.07,9.07,0,0,0,3.45-.537,3.468,3.468,0,0,0,1.85-1.738,7.552,7.552,0,0,0,.575-3.225,6.372,6.372,0,0,0-.738-3.225,3.974,3.974,0,0,0-2.125-1.788L15.1,15.751l-0.875-.35a9.128,9.128,0,0,1-1.2-.525,1.828,1.828,0,0,1-.662-0.65,2.175,2.175,0,0,1-.263-1.15A1.415,1.415,0,0,1,13.727,11.5a1.614,1.614,0,0,1,1.3.45,2.209,2.209,0,0,1,.375,1.425v0.375h3.725V13.376a6.712,6.712,0,0,0-.5-2.863A3,3,0,0,0,17,9.013a8.463,8.463,0,0,0-3.125-.463A6.549,6.549,0,0,0,9.539,9.7a4.859,4.859,0,0,0-1.312,3.825,5.758,5.758,0,0,0,.55,2.738,3.783,3.783,0,0,0,1.338,1.488,13.2,13.2,0,0,0,2.112.975l0.95,0.375q0.975,0.375,1.425.6a1.938,1.938,0,0,1,.775.762,2.822,2.822,0,0,1,.325,1.462,2.263,2.263,0,0,1-.412,1.488,1.838,1.838,0,0,1-1.463.488,1.861,1.861,0,0,1-1.6-.613,3.58,3.58,0,0,1-.45-2.062V20.651H8V21.3a8.325,8.325,0,0,0,.525,3.288,3.281,3.281,0,0,0,1.75,1.725,8.677,8.677,0,0,0,3.4.537h0Zm12.55-.275V19.4h3.85v7.175h4.1V8.826h-4.1v6.9h-3.85v-6.9h-4.1v17.75h4.1Zm16.925,0.275a7.748,7.748,0,0,0,3.788-.75A4.208,4.208,0,0,0,48.8,23.476a20.535,20.535,0,0,0,.55-5.45v-0.65a20.537,20.537,0,0,0-.55-5.45A4.208,4.208,0,0,0,46.939,9.3a7.748,7.748,0,0,0-3.788-.75,7.748,7.748,0,0,0-3.788.75,4.163,4.163,0,0,0-1.85,2.625,20.971,20.971,0,0,0-.538,5.45v0.65a20.969,20.969,0,0,0,.538,5.45,4.163,4.163,0,0,0,1.85,2.625,7.748,7.748,0,0,0,3.788.75h0Zm0-3.15a1.511,1.511,0,0,1-1.237-.5,3.5,3.5,0,0,1-.575-1.725,30.087,30.087,0,0,1-.163-3.65v-0.25a30.1,30.1,0,0,1,.163-3.65,3.507,3.507,0,0,1,.575-1.725,1.512,1.512,0,0,1,1.237-.5,1.55,1.55,0,0,1,1.25.5,3.44,3.44,0,0,1,.587,1.738,30.224,30.224,0,0,1,.163,3.638v0.25a30.224,30.224,0,0,1-.163,3.637A3.439,3.439,0,0,1,44.4,23.2a1.549,1.549,0,0,1-1.25.5h0Zm9.025,2.875h4.1V20.4h0.85a13.108,13.108,0,0,0,4.038-.488,3.433,3.433,0,0,0,2.05-1.662,7.254,7.254,0,0,0,.612-3.3V14.3a7.325,7.325,0,0,0-.612-3.325,3.434,3.434,0,0,0-2.05-1.662,13.108,13.108,0,0,0-4.038-.487h-4.95v17.75Zm4.1-9.375V12.026h0.775a4.41,4.41,0,0,1,1.6.225,1.286,1.286,0,0,1,.75.738,4.378,4.378,0,0,1,.2,1.512v0.25a4.281,4.281,0,0,1-.2,1.487,1.285,1.285,0,0,1-.75.738,4.41,4.41,0,0,1-1.6.225H56.276Zm25.175,3.45L77.076,8.826h-4.55v17.75h3.525V14.751l4.375,11.825h4.55V8.826H81.451V20.651Zm12.525,6.2a7.748,7.748,0,0,0,3.788-.75,4.208,4.208,0,0,0,1.862-2.625,20.539,20.539,0,0,0,.549-5.45v-0.65a20.541,20.541,0,0,0-.549-5.45A4.208,4.208,0,0,0,97.763,9.3a9.938,9.938,0,0,0-7.575,0,4.163,4.163,0,0,0-1.85,2.625,20.971,20.971,0,0,0-.537,5.45v0.65a20.969,20.969,0,0,0,.537,5.45,4.163,4.163,0,0,0,1.85,2.625,7.748,7.748,0,0,0,3.787.75h0Zm0-3.15a1.511,1.511,0,0,1-1.237-.5,3.5,3.5,0,0,1-.575-1.725A30.087,30.087,0,0,1,92,17.826v-0.25a30.1,30.1,0,0,1,.162-3.65,3.507,3.507,0,0,1,.575-1.725,1.512,1.512,0,0,1,1.237-.5,1.55,1.55,0,0,1,1.25.5,3.44,3.44,0,0,1,.588,1.738,30.224,30.224,0,0,1,.162,3.638v0.25a30.224,30.224,0,0,1-.162,3.637,3.439,3.439,0,0,1-.588,1.738,1.549,1.549,0,0,1-1.25.5h0Zm22.876-.9L114.3,8.826h-4.475l-2.55,13.9-1.85-13.9h-4l3.275,17.75h4.9l2.35-13.05,2.325,13.05h4.9l3.275-17.75h-3.725Z"/>
</svg>
