<svg xmlns="http://www.w3.org/2000/svg" width="258.594" height="100.5" viewBox="0 0 258.594 100.5">
  <metadata><?xpacket begin="﻿" id="W5M0MpCehiHzreSzNTczkc9d"?>
<x:xmpmeta xmlns:x="adobe:ns:meta/" x:xmptk="Adobe XMP Core 5.6-c138 79.159824, 2016/09/14-01:09:01        ">
   <rdf:RDF xmlns:rdf="http://www.w3.org/1999/02/22-rdf-syntax-ns#">
      <rdf:Description rdf:about=""/>
   </rdf:RDF>
</x:xmpmeta>
                                                                                                    
                                                                                                    
                                                                                                    
                                                                                                    
                                                                                                    
                                                                                                    
                                                                                                    
                                                                                                    
                                                                                                    
                                                                                                    
                                                                                                    
                                                                                                    
                                                                                                    
                                                                                                    
                                                                                                    
                                                                                                    
                                                                                                    
                                                                                                    
                                                                                                    
                                                                                                    
                           
<?xpacket end="w"?></metadata>
<defs>
    <style>
      .cls-1 {
        fill: #fff;
        fill-rule: evenodd;
      }
    </style>
  </defs>
  <path id="THE_HOOD" data-name="THE HOOD" class="cls-1" d="M16.741,45.057q5.827,0,8.959-1.55A8.93,8.93,0,0,0,30.164,38.3,31.993,31.993,0,0,0,31.5,27.821V0.355H21.081v28.21a28.52,28.52,0,0,1-.372,5.27,4.461,4.461,0,0,1-1.3,2.635,4.058,4.058,0,0,1-2.666.775,4.056,4.056,0,0,1-2.666-.775,4.461,4.461,0,0,1-1.3-2.635,28.52,28.52,0,0,1-.372-5.27V0.355H1.985V27.821A31.968,31.968,0,0,0,3.318,38.3a8.924,8.924,0,0,0,4.464,5.208q3.13,1.549,8.959,1.55h0Zm44.95-15.376L50.841,0.355H39.557v44.02H48.3V15.049l10.85,29.326H70.433V0.355H61.691V29.681ZM78.678,44.375H91.76q6.633,0,10.168-1.8a10.269,10.269,0,0,0,5.022-6.324q1.488-4.525,1.488-13.082V21.559q0-8.556-1.488-13.082a10.274,10.274,0,0,0-5.022-6.324q-3.534-1.8-10.168-1.8H78.678v44.02Zm10.168-8V8.291h2.418a6.713,6.713,0,0,1,4.309,1.147,6.407,6.407,0,0,1,1.891,3.968,54.719,54.719,0,0,1,.5,8.649v0.62a54.7,54.7,0,0,1-.5,8.649,6.254,6.254,0,0,1-1.891,3.937,6.848,6.848,0,0,1-4.309,1.116H88.846Zm51.087,8v-7.75H125.549V25.775h12.462v-7.75H125.549V8.105h13.764V0.355H115.381v44.02h24.552Zm35.96,0-6.448-17.732a8.147,8.147,0,0,0,4.278-4.061,17.574,17.574,0,0,0,1.3-7.409V13.561q0-5.269-1.519-8.091A8.372,8.372,0,0,0,168.453,1.5,34.117,34.117,0,0,0,158.409.355H146.2v44.02h10.168V28.317h3.968l4.774,16.058h10.788Zm-17.67-23.994h-1.86V8.291h1.86a12.468,12.468,0,0,1,4.03.5,3.007,3.007,0,0,1,1.86,1.7,9.857,9.857,0,0,1,.5,3.565v0.62a8.712,8.712,0,0,1-.527,3.379,3.332,3.332,0,0,1-1.891,1.767,10.939,10.939,0,0,1-3.968.558h0ZM19.8,100.17V64.954h8.742v-8.8H0.947v8.8h8.68V100.17H19.8Zm23.932,0V82.376h9.548V100.17H63.443V56.15H53.275V73.262H43.727V56.15H33.559v44.02H43.727Zm52.452,0V92.42H81.794V81.57H94.256V73.82H81.794V63.9H95.558V56.15H71.626v44.02H96.178Zm32.8,0V82.376h9.548V100.17h10.168V56.15H138.523V73.262h-9.548V56.15H118.807v44.02h10.168Zm41.973,0.682q6.138,0,9.393-1.86t4.619-6.51q1.363-4.65,1.364-13.516V77.354q0-8.866-1.364-13.516t-4.619-6.51q-3.255-1.86-9.393-1.86t-9.393,1.86q-3.255,1.86-4.588,6.51t-1.333,13.516v1.612q0,8.867,1.333,13.516t4.588,6.51q3.255,1.86,9.393,1.86h0Zm0-7.812a3.746,3.746,0,0,1-3.069-1.24,8.7,8.7,0,0,1-1.426-4.278,74.685,74.685,0,0,1-.4-9.052V77.85a74.706,74.706,0,0,1,.4-9.052,8.7,8.7,0,0,1,1.426-4.278,3.749,3.749,0,0,1,3.069-1.24,3.843,3.843,0,0,1,3.1,1.24,8.522,8.522,0,0,1,1.457,4.309,74.815,74.815,0,0,1,.4,9.021v0.62a74.815,74.815,0,0,1-.4,9.021,8.519,8.519,0,0,1-1.457,4.309,3.84,3.84,0,0,1-3.1,1.24h0Zm36.456,7.812q6.138,0,9.393-1.86t4.619-6.51q1.363-4.65,1.364-13.516V77.354q0-8.866-1.364-13.516t-4.619-6.51q-3.255-1.86-9.393-1.86t-9.393,1.86q-3.255,1.86-4.588,6.51T192.09,77.354v1.612q0,8.867,1.333,13.516t4.588,6.51q3.255,1.86,9.393,1.86h0Zm0-7.812a3.746,3.746,0,0,1-3.069-1.24,8.687,8.687,0,0,1-1.426-4.278,74.685,74.685,0,0,1-.4-9.052V77.85a74.706,74.706,0,0,1,.4-9.052,8.694,8.694,0,0,1,1.426-4.278,3.749,3.749,0,0,1,3.069-1.24,3.845,3.845,0,0,1,3.1,1.24,8.542,8.542,0,0,1,1.457,4.309,75.025,75.025,0,0,1,.4,9.021v0.62a75.025,75.025,0,0,1-.4,9.021A8.538,8.538,0,0,1,210.5,91.8a3.842,3.842,0,0,1-3.1,1.24h0Zm22.381,7.13h13.082q6.635,0,10.168-1.8a10.269,10.269,0,0,0,5.022-6.324q1.488-4.525,1.488-13.082V77.354q0-8.556-1.488-13.082a10.274,10.274,0,0,0-5.022-6.324q-3.534-1.8-10.168-1.8H229.785v44.02Zm10.168-8V64.086h2.418a6.712,6.712,0,0,1,4.309,1.147,6.406,6.406,0,0,1,1.891,3.968,54.633,54.633,0,0,1,.5,8.649v0.62a54.618,54.618,0,0,1-.5,8.649,6.253,6.253,0,0,1-1.891,3.937,6.847,6.847,0,0,1-4.309,1.116h-2.418Z" transform="translate(-0.938 -0.344)"/>
</svg>
