<?xml version="1.0" encoding="utf-8"?>
<!-- Generator: Adobe Illustrator 18.1.1, SVG Export Plug-In . SVG Version: 6.00 Build 0)  -->
<svg version="1.1" id="Layer_1" xmlns="http://www.w3.org/2000/svg" xmlns:xlink="http://www.w3.org/1999/xlink" x="0px" y="0px"
	 viewBox="23 -44 134 134" style="enable-background:new 23 -44 134 134;" xml:space="preserve">
<g id="Layer_1_1_">
	<path style="fill:#FFFFFF;" d="M90-44c37,0,67,30,67,67s-30,67-67,67S23,60,23,23S53-44,90-44z"/>
</g>
<g id="Layer_2">
	<path style="fill:#F01446;" d="M89.9,53.5c0,3.3,2.4,4.9,5,6.4l2.4,1.4c1.3,0.7,1.8,1.6,1.8,2.6c0,1.5-1,2.4-2.9,2.4
		c-3.2,0-4.2-2.7-4.7-5.4l-0.1-0.5h-1.5v7.4h1.3l0.1-0.1c0.2-0.3,0.2-0.3,0.6-0.3c0.5,0,1,0.1,1.8,0.3c0.9,0.2,1.8,0.5,3,0.5
		c2.6,0,6.4-1.8,6.4-5.8c0-2.9-1.6-4.1-3.7-5.2l-4.3-2.6c-1-0.6-1.5-1.4-1.5-2.5c0-0.9,0.7-2.2,2.6-2.2c1.4,0,3.1,0.6,4,4.7l0.1,0.5
		h1.6l-0.2-6.6h-1.5l-0.1,0.2c-0.1,0.1-0.2,0.2-0.3,0.2c-0.1,0-0.5-0.1-0.6-0.2c-0.8-0.2-1.9-0.7-3.2-0.7
		C92.6,47.9,89.9,50.3,89.9,53.5"/>
	<path style="fill:#F01446;" d="M61.4,57.2c0-5.2,2.4-7.2,4.6-7.2c2.3,0,3.7,1.9,3.7,3.9v9.1c-0.2,1.1-1.6,2.1-3.1,2.1
		C64.3,65.1,61.4,63.1,61.4,57.2 M73.4,38.8h-0.1c-0.7,0.2-3.7,1.3-5.9,1.8L67,40.7v1.6l0.6-0.1c1.3-0.1,1.8,0,1.9,0.2
		c0.2,0.2,0.2,0.6,0.2,1.3v5.5c-1.1-0.8-2.4-1.3-3.8-1.3c-2.3,0-4.6,1.1-6.3,3.2c-1.7,2.1-2.6,4.7-2.6,7.4c0,9.5,7.1,9.7,7.9,9.7
		c1.9,0,3.5-0.6,4.8-1.8v1.5l0.6,0.5l6.5-2.4v-1.6h-0.6c-1.3,0.1-1.7-0.1-1.9-0.2c-0.2-0.2-0.2-0.5-0.2-1V39L73.4,38.8L73.4,38.8z"
		/>
	<path style="fill:#F01446;" d="M122.3,66.3c-1.8-0.3-2.1-0.3-2.1-3v-8.2c0-4.7-1.8-7.1-5.5-7.1c-2.1,0-4,0.9-5.5,2.5V39.1l-0.7-0.5
		h-0.1l-0.2,0.1c-0.8,0.3-4.2,1.4-5.7,1.8l-0.3,0.1v1.6l0.6-0.1c0.3,0,0.6,0,0.9,0c0.3,0,0.7,0.1,0.8,0.2c0.2,0.2,0.2,0.8,0.2,1.1
		v0.2v19.3c0,2.6-0.1,2.9-2.2,3.1h-0.5v1.6h9.6v-1.6h-0.1c-1.8-0.2-2.3-0.2-2.3-3.1v-9.6c0.2-0.3,1.9-2.3,4-2.3c1.8,0,2.6,1.3,2.6,4
		v8.1c0,2.5-0.5,2.9-2.3,3l0,0v1.6h9.2v-1.6H122.3"/>
	<path style="fill:#F01446;" d="M83.3,67.5c3.1,0,4.7-1.8,5.8-4c0.1-0.1,0-0.2-0.1-0.2c-0.8,0.3-3,1.4-5.7,1.4c-2.6,0-4.8-1-5.7-1.4
		c-0.1-0.1-0.2,0-0.1,0.2C78.6,65.7,80.2,67.5,83.3,67.5"/>
	<path style="fill:#F01446;" d="M78.8,58.3c0.8,1.7,2.1,3.2,4.6,3.2c2.4,0,3.7-1.5,4.6-3.2c0-0.1,0-0.2-0.1-0.1
		c-0.6,0.2-2.3,1-4.4,1c-2.2,0-3.9-0.8-4.5-1C78.8,58.2,78.8,58.2,78.8,58.3"/>
	<path style="fill:#F01446;" d="M79.9,53.5c0.7,1.3,1.6,2.4,3.4,2.4s2.7-1.1,3.4-2.4c0-0.1,0-0.1-0.1-0.1C86.3,53.5,85,54,83.3,54
		s-3-0.6-3.3-0.7C79.9,53.4,79.9,53.5,79.9,53.5"/>
	<path style="fill:#F01446;" d="M83.3,50.7c1.3,0,1.9-0.8,2.3-1.7c0-0.1,0-0.1-0.1-0.1c0,0-0.9,0.3-2.3,0.3c-1.3,0-2.2-0.3-2.3-0.3
		c-0.1,0-0.1,0-0.1,0.1C81.4,49.8,82.1,50.7,83.3,50.7"/>
	<path style="fill:#F01446;" d="M79.8,42.3c0-1.9,1.6-3.5,3.5-3.5s3.5,1.6,3.5,3.5s-1.6,3.5-3.5,3.5C81.4,45.8,79.8,44.2,79.8,42.3"
		/>
</g>
</svg>
