<?xml version="1.0" encoding="utf-8"?>
<!-- Generator: Adobe Illustrator 18.1.1, SVG Export Plug-In . SVG Version: 6.00 Build 0)  -->
<svg version="1.1" id="Layer_1" xmlns="http://www.w3.org/2000/svg" xmlns:xlink="http://www.w3.org/1999/xlink" x="0px" y="0px"
	 width="257px" height="92px" viewBox="-84.1 -64.4 257 92" enable-background="new -84.1 -64.4 257 92" xml:space="preserve">
<linearGradient id="SVGID_1_" gradientUnits="userSpaceOnUse" x1="-417.892" y1="441.7876" x2="-417.892" y2="-122.7747" gradientTransform="matrix(0.188 0 0 -0.188 15.8 8.836)">
	<stop  offset="0" style="stop-color:#DD3D1E"/>
	<stop  offset="1" style="stop-color:#EC6626"/>
</linearGradient>
<path fill="url(#SVGID_1_)" d="M-68.9-14h12.2v-39.6h15.2V-64h-42.6v10.5h15.2V-14z"/>
<linearGradient id="SVGID_2_" gradientUnits="userSpaceOnUse" x1="-162.8758" y1="441.7876" x2="-162.8758" y2="-122.7747" gradientTransform="matrix(0.188 0 0 -0.188 15.8 8.836)">
	<stop  offset="0" style="stop-color:#DD3D1E"/>
	<stop  offset="1" style="stop-color:#EC6626"/>
</linearGradient>
<path fill="url(#SVGID_2_)" d="M-21.1-14h12.7L9.2-64h-13l-9,28.5c-1,3.1-1.9,8-1.9,8h-0.1c0,0-0.9-4.9-1.9-8L-25.5-64h-13.3
	L-21.1-14z"/>
<linearGradient id="SVGID_3_" gradientUnits="userSpaceOnUse" x1="179.4529" y1="441.7876" x2="179.4529" y2="-122.7747" gradientTransform="matrix(0.188 0 0 -0.188 15.8 8.836)">
	<stop  offset="0" style="stop-color:#DD3D1E"/>
	<stop  offset="1" style="stop-color:#EC6626"/>
</linearGradient>
<path fill="url(#SVGID_3_)" d="M30.8-14h18.4c9.9,0,19-4,19-14.9c0-4.4-2.1-9.5-7.8-11.3v-0.1c3.8-2.2,5.8-6.4,5.8-10.6
	c0-8.6-7-13.1-17-13.1H30.8V-14z M43-44.7v-8.9h6.1c3.3,0,4.6,2,4.6,4.3c0,2.4-1.3,4.6-4.4,4.6H43z M43-24.5v-10.4h7.4
	c3.6,0,5.2,2.3,5.2,5.1s-1.7,5.2-5.3,5.2H43V-24.5z"/>
<linearGradient id="SVGID_4_" gradientUnits="userSpaceOnUse" x1="358.0707" y1="441.7876" x2="358.0707" y2="-122.7747" gradientTransform="matrix(0.188 0 0 -0.188 15.8 8.836)">
	<stop  offset="0" style="stop-color:#DD3D1E"/>
	<stop  offset="1" style="stop-color:#EC6626"/>
</linearGradient>
<path fill="url(#SVGID_4_)" d="M77-14h12.3v-50H77.1v50H77z"/>
<linearGradient id="SVGID_5_" gradientUnits="userSpaceOnUse" x1="540.1491" y1="441.7876" x2="540.1491" y2="-122.7747" gradientTransform="matrix(0.188 0 0 -0.188 15.8 8.836)">
	<stop  offset="0" style="stop-color:#DD3D1E"/>
	<stop  offset="1" style="stop-color:#EC6626"/>
</linearGradient>
<path fill="url(#SVGID_5_)" d="M101-14h32.7v-10.5h-20.4V-64h-12.2v50H101z"/>
<linearGradient id="SVGID_6_" gradientUnits="userSpaceOnUse" x1="749.912" y1="441.7876" x2="749.912" y2="-122.7747" gradientTransform="matrix(0.188 0 0 -0.188 15.8 8.836)">
	<stop  offset="0" style="stop-color:#DD3D1E"/>
	<stop  offset="1" style="stop-color:#EC6626"/>
</linearGradient>
<path fill="url(#SVGID_6_)" d="M140.4-14h32.7v-10.5h-20.4V-64h-12.2v50H140.4z"/>
<linearGradient id="SVGID_7_" gradientUnits="userSpaceOnUse" x1="-435.1948" y1="441.7876" x2="-435.1948" y2="-122.7747" gradientTransform="matrix(0.188 0 0 -0.188 15.8 8.836)">
	<stop  offset="0" style="stop-color:#DD3D1E"/>
	<stop  offset="1" style="stop-color:#EC6626"/>
</linearGradient>
<path fill="url(#SVGID_7_)" d="M-81.8,10.2c0,10.7,7.7,17,16.1,17c5.5,0,8.6-2.8,8.6-2.8h0.1c0,0,0,0.7,0,1.4v0.9h6.7V8.1h-11.8v6.8
	h4.6v2.5c0,0-2.8,2.4-6.7,2.4c-5.1,0-9.4-3.7-9.4-10c0-4.9,2.8-9.3,9.7-9.3c4.6,0,8,3,8,3l3.9-6c0,0-4.2-4.4-12.6-4.4
	C-74.6-6.8-81.8,0.5-81.8,10.2z"/>
<linearGradient id="SVGID_8_" gradientUnits="userSpaceOnUse" x1="-239.5404" y1="441.7876" x2="-239.5404" y2="-122.7747" gradientTransform="matrix(0.188 0 0 -0.188 15.8 8.836)">
	<stop  offset="0" style="stop-color:#DD3D1E"/>
	<stop  offset="1" style="stop-color:#EC6626"/>
</linearGradient>
<path fill="url(#SVGID_8_)" d="M-46.4,10c0,9.6,7.3,17.2,17.2,17.2S-12,19.7-12,10c0-9.4-7.3-16.8-17.2-16.8
	C-39.1-6.8-46.4,0.5-46.4,10z M-38.1,10c0-5.4,3.9-9.4,8.9-9.4c4.9,0,8.9,4,8.9,9.4c0,5.6-3.9,9.8-8.9,9.8
	C-34.1,19.9-38.1,15.6-38.1,10z"/>
<linearGradient id="SVGID_9_" gradientUnits="userSpaceOnUse" x1="-97.9239" y1="441.7876" x2="-97.9239" y2="-122.7747" gradientTransform="matrix(0.188 0 0 -0.188 15.8 8.836)">
	<stop  offset="0" style="stop-color:#DD3D1E"/>
	<stop  offset="1" style="stop-color:#EC6626"/>
</linearGradient>
<path fill="url(#SVGID_9_)" d="M-6.6,26.7h8V-6.2h-8V26.7z"/>
<linearGradient id="SVGID_10_" gradientUnits="userSpaceOnUse" x1="38.635" y1="441.7876" x2="38.635" y2="-122.7747" gradientTransform="matrix(0.188 0 0 -0.188 15.8 8.836)">
	<stop  offset="0" style="stop-color:#DD3D1E"/>
	<stop  offset="1" style="stop-color:#EC6626"/>
</linearGradient>
<path fill="url(#SVGID_10_)" d="M9.2,26.7h8V11.4c0-2.1-0.4-5.6-0.4-5.6h0.1c0,0,1.5,3.4,2.8,5.6l9.1,15.3h8.1V-6.2h-8V9.2
	c0,2.1,0.4,5.6,0.4,5.6h-0.1c0,0-1.5-3.4-2.8-5.6L17.3-6.2H9.2V26.7z"/>
<linearGradient id="SVGID_11_" gradientUnits="userSpaceOnUse" x1="225.5049" y1="441.7876" x2="225.5049" y2="-122.7747" gradientTransform="matrix(0.188 0 0 -0.188 15.8 8.836)">
	<stop  offset="0" style="stop-color:#DD3D1E"/>
	<stop  offset="1" style="stop-color:#EC6626"/>
</linearGradient>
<path fill="url(#SVGID_11_)" d="M42.4,10.2c0,10.7,7.7,17,16.1,17c5.5,0,8.6-2.8,8.6-2.8h0.1c0,0,0,0.7,0,1.4v0.9H74V8.1H62.1v6.8
	h4.6v2.5c0,0-2.8,2.4-6.7,2.4c-5.1,0-9.4-3.7-9.4-10c0-4.9,2.8-9.3,9.7-9.3c4.6,0,8,3,8,3l3.9-6c0,0-4.2-4.4-12.6-4.4
	C49.6-6.8,42.4,0.5,42.4,10.2z"/>
<linearGradient id="SVGID_12_" gradientUnits="userSpaceOnUse" x1="468.2761" y1="441.7876" x2="468.2761" y2="-122.7747" gradientTransform="matrix(0.188 0 0 -0.188 15.8 8.836)">
	<stop  offset="0" style="stop-color:#DD3D1E"/>
	<stop  offset="1" style="stop-color:#EC6626"/>
</linearGradient>
<path fill="url(#SVGID_12_)" d="M90.1,14.6c0,7.4,5.4,12.6,13.8,12.6c8.3,0,13.7-5.2,13.7-12.6V-6.3h-8v20.8c0,3.4-2.3,5.3-5.7,5.3
	c-3.4,0-5.7-1.8-5.7-5.3V-6.3h-8v20.8H90.1z"/>
<linearGradient id="SVGID_13_" gradientUnits="userSpaceOnUse" x1="644.4982" y1="441.7876" x2="644.4982" y2="-122.7747" gradientTransform="matrix(0.188 0 0 -0.188 15.8 8.836)">
	<stop  offset="0" style="stop-color:#DD3D1E"/>
	<stop  offset="1" style="stop-color:#EC6626"/>
</linearGradient>
<path fill="url(#SVGID_13_)" d="M124.8,26.7h8V16.6h5.6c6.4,0,10.7-4.8,10.7-11.4c0-6.6-4.3-11.3-10.7-11.3h-13.6V26.7z M132.9,9.6
	V0.6h4.1c2.7,0,4,1.8,4,4.4c0,2.6-1.4,4.5-4.2,4.5H132.9z"/>
<linearGradient id="SVGID_14_" gradientUnits="userSpaceOnUse" x1="772.8048" y1="441.7876" x2="772.8048" y2="-122.7747" gradientTransform="matrix(0.188 0 0 -0.188 15.8 8.836)">
	<stop  offset="0" style="stop-color:#DD3D1E"/>
	<stop  offset="1" style="stop-color:#EC6626"/>
</linearGradient>
<path fill="url(#SVGID_14_)" d="M155.7,16.5h7.6v-1.6c0-4.1,7.9-5.2,7.9-12.7c0-5.9-5.6-9-10.7-9c-6.2,0-9.6,3.8-9.6,3.8l4.4,5.4
	c0,0,2.2-2,4.4-2c1.7,0,3.3,1.1,3.3,2.7c0,3.9-7.2,5-7.2,11.2v2.2H155.7z M155.9,26.7h7.3v-6.9h-7.3V26.7z"/>
</svg>
