<?xml version="1.0" encoding="utf-8"?>
<!-- Generator: Adobe Illustrator 18.0.0, SVG Export Plug-In . SVG Version: 6.00 Build 0)  -->
<!DOCTYPE svg PUBLIC "-//W3C//DTD SVG 1.1//EN" "http://www.w3.org/Graphics/SVG/1.1/DTD/svg11.dtd">
<svg version="1.1" id="Layer_1" xmlns="http://www.w3.org/2000/svg" xmlns:xlink="http://www.w3.org/1999/xlink" x="0px" y="0px"
	 width="307.6px" height="14.8px" viewBox="0 0 307.6 14.8" enable-background="new 0 0 307.6 14.8" xml:space="preserve">
<g>
	<g>
		<path fill="#FFFFFF" d="M6.6,5.1H2.4V0.6H0v11.2h2.4V6.9h4.3v4.9h2.4V0.6H6.6V5.1z M14.6,3.7c-0.9,0-1.6,0.2-2.2,0.7
			c-1.3,0.9-1.6,2.4-1.6,3.7c0,1.3,0.3,2.3,1,3.1c0.8,0.9,2.1,1,2.8,1c1.1,0,2.2-0.3,2.7-0.9c0.6-0.7,0.7-1.3,0.7-1.7H16
			c-0.2,0.9-0.8,1.1-1.4,1.1C13,10.6,13,9,13,8.5h5.3c0-0.7,0.1-1.8-0.5-2.9C17.1,4.2,15.7,3.7,14.6,3.7z M13.1,7.1
			c0-0.9,0.5-1.8,1.5-1.8c1.3,0,1.4,1.4,1.4,1.8H13.1z M27.3,1.7l-2.3,0.8v1.5h-1.4v0h-1.5V3.1c0-0.4,0-1,1.2-1c0.2,0,0.2,0,0.5,0
			V0.5c-0.7-0.1-1.1-0.1-1.2-0.1c-2.2,0-2.7,1.1-2.7,2.5V4h-1.2v1.6h1.2v6.2h2.3V5.6h1.5V5.6h1.4v4.3c0,0.7,0,2.1,2.3,2.1
			c0.4,0,1,0,1.8-0.2v-1.5c-0.3,0-0.4,0-0.8,0c-1,0-1-0.4-1-1.2V5.6h1.9V4.1h-1.9V1.7z M34,9.4L32.3,4h-2.5l3,7.9l-1,2.9h2.3
			l0.9-3.1L38,4h-2.3L34,9.4z M42.5,3.5c0.3-0.1,0.7-0.2,0.7-0.9c0-1-0.9-1-1.3-1h-1.3v3.8h0.7V3.8h0.7c0.3,0,0.3,0.1,0.4,0.3
			c0,0.1,0.1,1,0.1,1.2h0.8c-0.1-0.2-0.2-0.7-0.2-1C43,3.8,43,3.5,42.5,3.5z M41.8,3.2h-0.6V2.1h0.6c0.2,0,0.6,0,0.6,0.5
			C42.4,2.8,42.3,3.2,41.8,3.2z M41.8,0c-1.8,0-3.4,1.5-3.4,3.4c0,1.9,1.6,3.4,3.4,3.4c1.9,0,3.4-1.5,3.4-3.4
			C45.2,1.5,43.7,0,41.8,0z M41.8,6.3c-1.6,0-2.9-1.3-2.9-2.9c0-1.6,1.3-2.9,2.9-2.9c1.6,0,2.9,1.3,2.9,2.9
			C44.7,5,43.4,6.3,41.8,6.3z M58.2,7.4c0,1.1-0.1,1.6-0.4,1.9c-0.6,1-1.8,1-2.2,1c-2.3,0-2.4-1.5-2.4-2.8V0.7h-2.4v6.7
			c0,1,0,1.9,0.6,2.8c1.1,1.7,3.1,1.9,4.2,1.9c2.3,0,4.9-1.1,4.9-4.4v-7h-2.3V7.4z M62.8,11.8h2.3V0.6h-2.3V11.8z M69.9,1.7
			l-2.3,0.8v1.5h-1.5v1.5h1.5v4.3c0,0.7,0,2.1,2.3,2.1c0.4,0,1,0,1.8-0.2v-1.5c-0.3,0-0.4,0-0.8,0c-1,0-1-0.4-1-1.2V5.6h1.9V4.1
			h-1.9V1.7z M73.1,2.6h2.4v-2h-2.4V2.6z M73.1,11.8h2.3V4h-2.3V11.8z M87.1,3.8c-0.8,0-1.9,0.2-2.5,1.5c-0.2-0.4-0.7-1.5-2.5-1.5
			c-1.6,0-2.2,0.8-2.4,1.2l-0.1-1h-2.2c0,0.5,0.1,1,0.1,1.5v6.4h2.3V7.2c0-0.5,0-1.8,1.4-1.8c1.3,0,1.3,1.1,1.3,1.7v4.6h2.3V7.9
			c0-1.2,0-2.4,1.4-2.4c1.2,0,1.3,0.9,1.3,1.8v4.6h2.3V7.4c0-0.7,0-1.6-0.4-2.3C89.3,4.8,88.7,3.8,87.1,3.8z M98.7,6.7
			c0-0.4,0-1.3-0.5-1.9c-0.8-0.9-2.1-1-2.8-1c-0.7,0-1.7,0.1-2.4,0.6c-0.8,0.6-0.9,1.4-0.9,1.8h2.2c0-0.2,0-0.4,0.2-0.7
			c0.2-0.3,0.5-0.4,0.9-0.4c0.2,0,0.8,0.1,1,0.7c0.1,0.3,0.1,0.5,0.1,1c-0.8,0-2.1,0-3.1,0.4c-1.4,0.7-1.7,1.8-1.7,2.4
			c0,0.6,0.2,1.3,0.7,1.7c0.3,0.3,0.8,0.6,2,0.6c0.4,0,1.5,0,2.3-1.3c0,0.2,0,0.6,0.1,1.1h2.1c-0.1-0.7-0.2-1.3-0.2-2L98.7,6.7z
			 M96,10.1c-0.2,0.2-0.6,0.4-1,0.4c-0.8,0-1.1-0.6-1.1-1.1C94,8.5,95,8,96.5,8.1C96.5,9,96.5,9.6,96,10.1z M103.5,1.7l-2.3,0.8v1.5
			h-1.5v1.5h1.5v4.3c0,0.7,0,2.1,2.3,2.1c0.4,0,1,0,1.8-0.2v-1.5c-0.3,0-0.4,0-0.8,0c-1,0-1-0.4-1-1.2V5.6h1.9V4.1h-1.9V1.7z
			 M109.9,3.7c-0.9,0-1.6,0.2-2.2,0.7c-1.3,0.9-1.6,2.4-1.6,3.7c0,1.3,0.3,2.3,1,3.1c0.8,0.9,2.1,1,2.8,1c1.1,0,2.2-0.3,2.7-0.9
			c0.6-0.7,0.7-1.3,0.7-1.7h-2.1c-0.2,0.9-0.8,1.1-1.4,1.1c-1.6,0-1.6-1.6-1.6-2.1h5.3c0-0.7,0.1-1.8-0.5-2.9
			C112.3,4.2,111,3.7,109.9,3.7z M108.3,7.1c0-0.9,0.5-1.8,1.5-1.8c1.3,0,1.4,1.4,1.4,1.8H108.3z M121.7,4.6l-0.9-3.2h-1.5v4.4h0.8
			V2l1.1,3.7h0.7l1.1-3.7v3.7h0.9V1.4h-1.4L121.7,4.6z M115,2.1h1.5v3.6h0.9V2.1h1.5V1.4h-4V2.1z M135.8,10.3
			c-2.3,0-2.3-3.2-2.3-3.8c0-2.3,0.7-4.2,2.5-4.2c1.6,0,1.8,1.6,1.8,2h2.4c0-2.2-1.7-3.7-4.2-3.7c-3.1,0-5.1,2.4-5.1,5.9
			c0,2.8,1.3,5.6,5.1,5.6c1,0,2.3-0.2,3.3-1.3c0.9-0.9,1-2,1-2.6h-2.5C137.7,9.7,136.8,10.3,135.8,10.3z M149,9.2V4h-2.4v4
			c0,1.3,0,2.4-1.5,2.4c-1.2,0-1.2-1-1.2-1.7V4h-2.3v4.9c0,0.4,0,1.5,0.5,2.1c0.4,0.6,1.3,1.1,2.4,1.1c1.5,0,2.1-0.9,2.3-1.2l0.1,1
			h2.2c0-0.2,0-0.4-0.1-0.6C149.1,11.1,149.1,10.9,149,9.2z M155.8,3.8c-0.4,0-1.7,0-2.4,1.3L153.4,4h-2.2v10.8h2.3v-3.9
			c0.2,0.3,0.8,1,2.2,1c2.3,0,3.4-2,3.4-4.2C159.1,5.4,157.8,3.8,155.8,3.8z M155.1,10.4c-1.7,0-1.7-2-1.7-2.4
			c0-2.1,1.1-2.7,1.8-2.7c1.3,0,1.6,1.6,1.6,2.5C156.7,9.4,156.2,10.4,155.1,10.4z M164.9,7.2l-1.4-0.4c-0.7-0.2-1.1-0.3-1.1-0.8
			c0-0.5,0.5-0.8,1.1-0.8c0.4,0,1.1,0.1,1.1,0.9h2.1c-0.1-1.6-1.4-2.3-3-2.3c-2,0-3.4,0.9-3.4,2.4c0,1.6,1.3,2,2,2.2l1.4,0.4
			c0.9,0.2,1.1,0.5,1.1,0.9c0,0.5-0.4,0.9-1.2,0.9c-1,0-1.3-0.6-1.3-1.1h-2.2c0,0.4,0.1,1,0.6,1.5c0.7,0.7,1.7,1,2.7,1
			c2.4,0,3.6-1.3,3.6-2.7C167,8.3,166.3,7.6,164.9,7.2z M178.4,6.7c0-0.4,0-1.3-0.5-1.9c-0.8-0.9-2.1-1-2.8-1
			c-0.7,0-1.7,0.1-2.4,0.6c-0.8,0.6-0.9,1.4-0.9,1.8h2.2c0-0.2,0-0.4,0.2-0.7c0.2-0.3,0.5-0.4,0.9-0.4c0.2,0,0.8,0.1,1,0.7
			c0.1,0.3,0.1,0.5,0.1,1c-0.8,0-2.1,0-3.1,0.4c-1.4,0.7-1.7,1.8-1.7,2.4c0,0.6,0.2,1.3,0.7,1.7c0.3,0.3,0.8,0.6,2,0.6
			c0.4,0,1.5,0,2.3-1.3c0,0.2,0,0.6,0.1,1.1h2.1c-0.1-0.7-0.2-1.3-0.2-2L178.4,6.7z M175.8,10.1c-0.2,0.2-0.6,0.4-1,0.4
			c-0.8,0-1.1-0.6-1.1-1.1c0-0.9,1.1-1.4,2.5-1.3C176.2,9,176.2,9.6,175.8,10.1z M182.5,5.5l0-1.5h-2.2c0,0.4,0.1,1.6,0.1,2v5.9h2.3
			V8c0-1,0.1-2.2,2.5-2V4C183.3,3.9,182.8,4.8,182.5,5.5z M189.4,3.7c-0.9,0-1.6,0.2-2.2,0.7c-1.3,0.9-1.6,2.4-1.6,3.7
			c0,1.3,0.3,2.3,1,3.1c0.8,0.9,2.1,1,2.8,1c1.1,0,2.2-0.3,2.7-0.9c0.6-0.7,0.7-1.3,0.7-1.7h-2.1c-0.2,0.9-0.8,1.1-1.4,1.1
			c-1.6,0-1.6-1.6-1.6-2.1h5.3c0-0.7,0.1-1.8-0.5-2.9C191.9,4.2,190.6,3.7,189.4,3.7z M187.9,7.1c0-0.9,0.5-1.8,1.5-1.8
			c1.3,0,1.4,1.4,1.4,1.8H187.9z M202,10.5c-0.2,0-0.4,0-0.6-0.3c-0.5-0.6-0.6-2-0.6-2.4c0-0.9,0.1-2.5,1.2-2.5c0.9,0,1,1.2,1,1.4
			h2.2c0-2.1-1.7-2.9-3.2-2.9c-1,0-3.7,0.5-3.7,4.1c0,1.3,0.3,2.3,1,3.1c0.7,0.8,1.6,1,2.7,1c1,0,1.7-0.2,2.2-0.7
			c0.9-0.8,1-1.7,1-2.3h-2.3C203,10.4,202.3,10.5,202,10.5z M208.7,5.5l0-1.5h-2.2c0,0.4,0.1,1.6,0.1,2v5.9h2.3V8c0-1,0.1-2.2,2.5-2
			V4C209.5,3.9,209,4.8,208.7,5.5z M218.9,6.7c0-0.4,0-1.3-0.5-1.9c-0.8-0.9-2.1-1-2.8-1c-0.7,0-1.7,0.1-2.4,0.6
			c-0.8,0.6-0.9,1.4-0.9,1.8h2.2c0-0.2,0-0.4,0.2-0.7c0.2-0.3,0.5-0.4,0.9-0.4c0.2,0,0.8,0.1,1,0.7c0.1,0.3,0.1,0.5,0.1,1
			c-0.8,0-2.1,0-3.1,0.4c-1.4,0.7-1.7,1.8-1.7,2.4c0,0.6,0.2,1.3,0.7,1.7c0.3,0.3,0.8,0.6,2,0.6c0.4,0,1.5,0,2.3-1.3
			c0,0.2,0,0.6,0.1,1.1h2.1c-0.1-0.7-0.2-1.3-0.2-2L218.9,6.7z M216.3,10.1c-0.2,0.2-0.6,0.4-1,0.4c-0.8,0-1.1-0.6-1.1-1.1
			c0-0.9,1.1-1.4,2.5-1.3C216.8,9,216.7,9.6,216.3,10.1z M224.1,10.5c-0.2,0-0.4,0-0.6-0.3c-0.5-0.6-0.6-2-0.6-2.4
			c0-0.9,0.1-2.5,1.2-2.5c0.9,0,1,1.2,1,1.4h2.2c0-2.1-1.7-2.9-3.2-2.9c-1,0-3.7,0.5-3.7,4.1c0,1.3,0.3,2.3,1,3.1
			c0.7,0.8,1.6,1,2.7,1c1,0,1.7-0.2,2.2-0.7c0.9-0.8,1-1.7,1-2.3h-2.3C225.1,10.4,224.4,10.5,224.1,10.5z M235.7,4h-2.6l-2.4,3.3
			V0.6h-2.3v11.2h2.3V7.6l2.4,4.3h2.7L233,7.4L235.7,4z M243.4,5.5l0-1.5h-2.2c0,0.4,0.1,1.6,0.1,2v5.9h2.3V8c0-1,0.1-2.2,2.5-2V4
			C244.3,3.9,243.7,4.8,243.4,5.5z M250.4,3.7c-0.9,0-1.6,0.2-2.2,0.7c-1.3,0.9-1.6,2.4-1.6,3.7c0,1.3,0.3,2.3,1,3.1
			c0.8,0.9,2.1,1,2.8,1c1.1,0,2.2-0.3,2.7-0.9c0.6-0.7,0.7-1.3,0.7-1.7h-2.1c-0.2,0.9-0.8,1.1-1.4,1.1c-1.6,0-1.6-1.6-1.6-2.1h5.3
			c0-0.7,0.1-1.8-0.5-2.9C252.8,4.2,251.5,3.7,250.4,3.7z M248.8,7.1c0-0.9,0.5-1.8,1.5-1.8c1.3,0,1.4,1.4,1.4,1.8H248.8z
			 M259.7,7.2l-1.4-0.4c-0.7-0.2-1.1-0.3-1.1-0.8c0-0.5,0.5-0.8,1.1-0.8c0.4,0,1.1,0.1,1.1,0.9h2.1c-0.1-1.6-1.4-2.3-3-2.3
			c-2,0-3.4,0.9-3.4,2.4c0,1.6,1.3,2,2,2.2l1.4,0.4c0.9,0.2,1.1,0.5,1.1,0.9c0,0.5-0.4,0.9-1.2,0.9c-1,0-1.3-0.6-1.3-1.1H255
			c0,0.4,0.1,1,0.6,1.5c0.7,0.7,1.7,1,2.7,1c2.4,0,3.6-1.3,3.6-2.7C261.8,8.3,261.2,7.6,259.7,7.2z M263.2,2.6h2.4v-2h-2.4V2.6z
			 M263.3,11.8h2.3V4h-2.3V11.8z M271.8,7.2l-1.4-0.4c-0.7-0.2-1.1-0.3-1.1-0.8c0-0.5,0.5-0.8,1.1-0.8c0.4,0,1.1,0.1,1.1,0.9h2.1
			c-0.1-1.6-1.4-2.3-3-2.3c-2,0-3.4,0.9-3.4,2.4c0,1.6,1.3,2,2,2.2l1.4,0.4c0.9,0.2,1.1,0.5,1.1,0.9c0,0.5-0.4,0.9-1.2,0.9
			c-1,0-1.3-0.6-1.3-1.1H267c0,0.4,0.1,1,0.6,1.5c0.7,0.7,1.7,1,2.7,1c2.4,0,3.6-1.3,3.6-2.7C273.9,8.3,273.2,7.6,271.8,7.2z
			 M278.1,1.7l-2.3,0.8v1.5h-1.5v1.5h1.5v4.3c0,0.7,0,2.1,2.3,2.1c0.4,0,1,0,1.8-0.2v-1.5c-0.3,0-0.4,0-0.8,0c-1,0-1-0.4-1-1.2V5.6
			h1.9V4.1h-1.9V1.7z M288,6.7c0-0.4,0-1.3-0.5-1.9c-0.8-0.9-2.1-1-2.8-1c-0.7,0-1.7,0.1-2.4,0.6c-0.8,0.6-0.9,1.4-0.9,1.8h2.2
			c0-0.2,0-0.4,0.2-0.7c0.2-0.3,0.5-0.4,0.9-0.4c0.2,0,0.8,0.1,1,0.7c0.1,0.3,0.1,0.5,0.1,1c-0.8,0-2.1,0-3.1,0.4
			c-1.4,0.7-1.7,1.8-1.7,2.4c0,0.6,0.2,1.3,0.7,1.7c0.3,0.3,0.8,0.6,2,0.6c0.4,0,1.5,0,2.3-1.3c0,0.2,0,0.6,0.1,1.1h2.1
			c-0.1-0.7-0.2-1.3-0.2-2L288,6.7z M285.3,10.1c-0.2,0.2-0.6,0.4-1,0.4c-0.8,0-1.1-0.6-1.1-1.1c0-0.9,1.1-1.4,2.5-1.3
			C285.8,9,285.8,9.6,285.3,10.1z M294.8,3.8c-1.7,0-2.3,1-2.5,1.4L292.2,4H290c0,0.5,0,1.4,0,1.4v6.4h2.3V7.2c0-0.6,0.1-1,0.3-1.2
			c0.2-0.4,0.7-0.6,1.2-0.6c0.6,0,0.9,0.3,1.1,0.7c0.1,0.2,0.1,0.5,0.1,0.9v4.9h2.3V7.6c0-1.5,0-1.9-0.2-2.3
			C297,4.7,296.3,3.8,294.8,3.8z M302.3,1.7L300,2.5v1.5h-1.5v1.5h1.5v4.3c0,0.7,0,2.1,2.3,2.1c0.4,0,1,0,1.8-0.2v-1.5
			c-0.3,0-0.4,0-0.8,0c-1,0-1-0.4-1-1.2V5.6h1.9V4.1h-1.9V1.7z M305.6,9.8v2.1h2V9.8H305.6z"/>
	</g>
</g>
<g>
</g>
<g>
</g>
<g>
</g>
<g>
</g>
<g>
</g>
<g>
</g>
<g>
</g>
<g>
</g>
<g>
</g>
<g>
</g>
<g>
</g>
<g>
</g>
<g>
</g>
<g>
</g>
<g>
</g>
</svg>
