<svg id="CTA" xmlns="http://www.w3.org/2000/svg" width="131" height="35" viewBox="0 0 131 35">
  <metadata><?xpacket begin="﻿" id="W5M0MpCehiHzreSzNTczkc9d"?>
<x:xmpmeta xmlns:x="adobe:ns:meta/" x:xmptk="Adobe XMP Core 5.6-c138 79.159824, 2016/09/14-01:09:01        ">
   <rdf:RDF xmlns:rdf="http://www.w3.org/1999/02/22-rdf-syntax-ns#">
      <rdf:Description rdf:about=""/>
   </rdf:RDF>
</x:xmpmeta>
                                                                                                    
                                                                                                    
                                                                                                    
                                                                                                    
                                                                                                    
                                                                                                    
                                                                                                    
                                                                                                    
                                                                                                    
                                                                                                    
                                                                                                    
                                                                                                    
                                                                                                    
                                                                                                    
                                                                                                    
                                                                                                    
                                                                                                    
                                                                                                    
                                                                                                    
                                                                                                    
                           
<?xpacket end="w"?></metadata>
<defs>
    <style>
      .cls-1 {
        fill: #fffefe;
        fill-rule: evenodd;
      }
    </style>
  </defs>
  <rect id="Rounded_Rectangle_1" data-name="Rounded Rectangle 1" width="131" height="35" rx="5" ry="5"/>
  <path id="SAVE_NOW" data-name="SAVE NOW" class="cls-1" d="M31.94,200.294a9.424,9.424,0,0,0,3.588-.559,3.6,3.6,0,0,0,1.924-1.807,7.854,7.854,0,0,0,.6-3.354,6.627,6.627,0,0,0-.767-3.354,4.136,4.136,0,0,0-2.21-1.859q-1.443-.532-1.651-0.611l-0.91-.364a9.486,9.486,0,0,1-1.248-.546,1.9,1.9,0,0,1-.689-0.676,2.261,2.261,0,0,1-.273-1.2,1.471,1.471,0,0,1,1.69-1.638,1.678,1.678,0,0,1,1.352.468,2.3,2.3,0,0,1,.39,1.482v0.39h3.874v-0.39a6.982,6.982,0,0,0-.52-2.977,3.117,3.117,0,0,0-1.69-1.56,8.813,8.813,0,0,0-3.25-.481q-3.146,0-4.511,1.2a5.055,5.055,0,0,0-1.365,3.978,5.987,5.987,0,0,0,.572,2.847,3.933,3.933,0,0,0,1.391,1.547,13.635,13.635,0,0,0,2.2,1.014l0.988,0.39q1.014,0.39,1.482.624a2.019,2.019,0,0,1,.806.793,2.936,2.936,0,0,1,.338,1.521,2.353,2.353,0,0,1-.429,1.547,1.911,1.911,0,0,1-1.521.507,1.935,1.935,0,0,1-1.664-.637,3.721,3.721,0,0,1-.468-2.145v-0.6H26.038v0.676a8.658,8.658,0,0,0,.546,3.419,3.409,3.409,0,0,0,1.82,1.794,9.015,9.015,0,0,0,3.536.559h0Zm21.658-.286-4.472-18.46H43.64l-4.472,18.46h4.316l0.65-3.51h4.42l0.65,3.51H53.6Zm-7.254-15.34,1.612,8.658H44.732Zm13.936,11.31-2.548-14.43H53.208l4.316,18.46h5.408l4.316-18.46H62.8Zm19.084,4.03v-3.25H73.332v-4.55h5.226v-3.25H73.332V184.8H79.1v-3.25H69.068v18.46h10.3Zm18.771-6.162-4.55-12.3H88.853v18.46h3.666v-12.3l4.55,12.3H101.8v-18.46H98.135v12.3Zm13.026,6.448a8.058,8.058,0,0,0,3.939-.78,4.379,4.379,0,0,0,1.937-2.73,21.358,21.358,0,0,0,.572-5.668V190.44a21.364,21.364,0,0,0-.572-5.668,4.379,4.379,0,0,0-1.937-2.73,10.336,10.336,0,0,0-7.878,0,4.328,4.328,0,0,0-1.924,2.73,21.81,21.81,0,0,0-.559,5.668v0.676a21.8,21.8,0,0,0,.559,5.668,4.328,4.328,0,0,0,1.924,2.73,8.058,8.058,0,0,0,3.939.78h0Zm0-3.276a1.571,1.571,0,0,1-1.287-.52,3.635,3.635,0,0,1-.6-1.794,31.272,31.272,0,0,1-.169-3.8v-0.26a31.3,31.3,0,0,1,.169-3.8,3.643,3.643,0,0,1,.6-1.794,1.574,1.574,0,0,1,1.287-.52,1.614,1.614,0,0,1,1.3.52,3.584,3.584,0,0,1,.611,1.807,31.544,31.544,0,0,1,.169,3.783v0.26a31.544,31.544,0,0,1-.169,3.783,3.58,3.58,0,0,1-.611,1.807,1.611,1.611,0,0,1-1.3.52h0Zm23.79-.936L132.3,181.548h-4.654L124.993,196l-1.924-14.456h-4.16l3.406,18.46h5.1l2.444-13.572,2.418,13.572h5.1l3.406-18.46H136.9Z" transform="translate(-19 -173)"/>
</svg>
