<svg id="CTA" xmlns="http://www.w3.org/2000/svg" width="131" height="35" viewBox="0 0 131 35">
  <metadata><?xpacket begin="﻿" id="W5M0MpCehiHzreSzNTczkc9d"?>
<x:xmpmeta xmlns:x="adobe:ns:meta/" x:xmptk="Adobe XMP Core 5.6-c138 79.159824, 2016/09/14-01:09:01        ">
   <rdf:RDF xmlns:rdf="http://www.w3.org/1999/02/22-rdf-syntax-ns#">
      <rdf:Description rdf:about=""/>
   </rdf:RDF>
</x:xmpmeta>
                                                                                                    
                                                                                                    
                                                                                                    
                                                                                                    
                                                                                                    
                                                                                                    
                                                                                                    
                                                                                                    
                                                                                                    
                                                                                                    
                                                                                                    
                                                                                                    
                                                                                                    
                                                                                                    
                                                                                                    
                                                                                                    
                                                                                                    
                                                                                                    
                                                                                                    
                                                                                                    
                           
<?xpacket end="w"?></metadata>
<defs>
    <style>
      .cls-1 {
        fill: #fffefe;
        fill-rule: evenodd;
      }
    </style>
  </defs>
  <rect id="Rounded_Rectangle_1" data-name="Rounded Rectangle 1" width="131" height="35" rx="5" ry="5"/>
  <path id="BUY_NOW" data-name="BUY NOW" class="cls-1" d="M42.23,190.388a3.264,3.264,0,0,0,1.677-1.326,4.474,4.474,0,0,0,.507-2.288V186.1a5.161,5.161,0,0,0-.611-2.756,3.431,3.431,0,0,0-2.041-1.378,15.162,15.162,0,0,0-4.03-.416H32.766v18.46h5.486a14.834,14.834,0,0,0,4.056-.429,3.429,3.429,0,0,0,2.054-1.456,5.6,5.6,0,0,0,.624-2.9v-0.676a4.943,4.943,0,0,0-.637-2.717,3.764,3.764,0,0,0-2.119-1.443h0Zm-5.2-5.98h0.754a4.482,4.482,0,0,1,1.521.2,1.179,1.179,0,0,1,.7.676,3.862,3.862,0,0,1,.2,1.391v0.26a3.353,3.353,0,0,1-.2,1.3,1.192,1.192,0,0,1-.715.637,4.5,4.5,0,0,1-1.508.2H37.03v-4.654Zm3.588,10.14a4.953,4.953,0,0,1-.2,1.586,1.3,1.3,0,0,1-.715.78,3.894,3.894,0,0,1-1.534.234H37.03V191.87h1.144a4.352,4.352,0,0,1,1.534.208,1.215,1.215,0,0,1,.715.728,4.4,4.4,0,0,1,.2,1.482v0.26Zm13.338,5.746a8.671,8.671,0,0,0,3.757-.65,3.745,3.745,0,0,0,1.872-2.184,13.415,13.415,0,0,0,.559-4.394V181.548H55.776v11.83a11.956,11.956,0,0,1-.156,2.21,1.869,1.869,0,0,1-.546,1.105,2.085,2.085,0,0,1-2.236,0,1.869,1.869,0,0,1-.546-1.105,11.956,11.956,0,0,1-.156-2.21v-11.83H47.768v11.518a13.4,13.4,0,0,0,.559,4.394,3.742,3.742,0,0,0,1.872,2.184,8.668,8.668,0,0,0,3.757.65h0Zm17.368-18.746-2.444,7.774-2.444-7.774h-4.55L66.7,193.43v6.578h4.264V193.43l4.81-11.882H71.323Zm21.814,12.3-4.55-12.3H83.855v18.46h3.666v-12.3l4.55,12.3H96.8v-18.46H93.137v12.3Zm13.026,6.448a8.058,8.058,0,0,0,3.939-.78,4.379,4.379,0,0,0,1.937-2.73,21.358,21.358,0,0,0,.572-5.668V190.44a21.364,21.364,0,0,0-.572-5.668,4.379,4.379,0,0,0-1.937-2.73,10.336,10.336,0,0,0-7.878,0,4.328,4.328,0,0,0-1.924,2.73,21.794,21.794,0,0,0-.559,5.668v0.676a21.789,21.789,0,0,0,.559,5.668,4.328,4.328,0,0,0,1.924,2.73,8.058,8.058,0,0,0,3.939.78h0Zm0-3.276a1.571,1.571,0,0,1-1.287-.52,3.635,3.635,0,0,1-.6-1.794,31.272,31.272,0,0,1-.169-3.8v-0.26a31.3,31.3,0,0,1,.169-3.8,3.643,3.643,0,0,1,.6-1.794,1.574,1.574,0,0,1,1.287-.52,1.614,1.614,0,0,1,1.3.52,3.584,3.584,0,0,1,.611,1.807,31.544,31.544,0,0,1,.169,3.783v0.26a31.544,31.544,0,0,1-.169,3.783,3.58,3.58,0,0,1-.611,1.807,1.611,1.611,0,0,1-1.3.52h0Zm23.79-.936L127.3,181.548h-4.654L120,196l-1.924-14.456h-4.16l3.406,18.46h5.1l2.444-13.572,2.418,13.572h5.1l3.406-18.46H131.9Z" transform="translate(-19 -173)"/>
</svg>
