<svg id="CTA" xmlns="http://www.w3.org/2000/svg" width="131" height="35" viewBox="0 0 131 35">
  <metadata><?xpacket begin="﻿" id="W5M0MpCehiHzreSzNTczkc9d"?>
<x:xmpmeta xmlns:x="adobe:ns:meta/" x:xmptk="Adobe XMP Core 5.6-c138 79.159824, 2016/09/14-01:09:01        ">
   <rdf:RDF xmlns:rdf="http://www.w3.org/1999/02/22-rdf-syntax-ns#">
      <rdf:Description rdf:about=""/>
   </rdf:RDF>
</x:xmpmeta>
                                                                                                    
                                                                                                    
                                                                                                    
                                                                                                    
                                                                                                    
                                                                                                    
                                                                                                    
                                                                                                    
                                                                                                    
                                                                                                    
                                                                                                    
                                                                                                    
                                                                                                    
                                                                                                    
                                                                                                    
                                                                                                    
                                                                                                    
                                                                                                    
                                                                                                    
                                                                                                    
                           
<?xpacket end="w"?></metadata>
<defs>
    <style>
      .cls-1 {
        fill: #fffefe;
        fill-rule: evenodd;
      }
    </style>
  </defs>
  <rect id="Rounded_Rectangle_1" data-name="Rounded Rectangle 1" width="131" height="35" rx="5" ry="5"/>
  <path id="SHOP_NOW" data-name="SHOP NOW" class="cls-1" d="M29.94,200.294a9.424,9.424,0,0,0,3.588-.559,3.6,3.6,0,0,0,1.924-1.807,7.854,7.854,0,0,0,.6-3.354,6.627,6.627,0,0,0-.767-3.354,4.136,4.136,0,0,0-2.21-1.859q-1.443-.532-1.651-0.611l-0.91-.364a9.486,9.486,0,0,1-1.248-.546,1.9,1.9,0,0,1-.689-0.676,2.261,2.261,0,0,1-.273-1.2,1.471,1.471,0,0,1,1.69-1.638,1.678,1.678,0,0,1,1.352.468,2.3,2.3,0,0,1,.39,1.482v0.39h3.874v-0.39a6.982,6.982,0,0,0-.52-2.977,3.117,3.117,0,0,0-1.69-1.56,8.813,8.813,0,0,0-3.25-.481q-3.146,0-4.511,1.2a5.055,5.055,0,0,0-1.365,3.978,5.987,5.987,0,0,0,.572,2.847,3.933,3.933,0,0,0,1.391,1.547,13.635,13.635,0,0,0,2.2,1.014l0.988,0.39q1.014,0.39,1.482.624a2.019,2.019,0,0,1,.806.793,2.936,2.936,0,0,1,.338,1.521,2.353,2.353,0,0,1-.429,1.547,1.911,1.911,0,0,1-1.521.507,1.935,1.935,0,0,1-1.664-.637,3.721,3.721,0,0,1-.468-2.145v-0.6H24.038v0.676a8.658,8.658,0,0,0,.546,3.419,3.409,3.409,0,0,0,1.82,1.794,9.015,9.015,0,0,0,3.536.559h0Zm13.052-.286v-7.462h4v7.462H51.26v-18.46H47v7.176h-4v-7.176H38.728v18.46h4.264Zm17.6,0.286a8.058,8.058,0,0,0,3.939-.78,4.377,4.377,0,0,0,1.937-2.73,21.354,21.354,0,0,0,.572-5.668V190.44a21.359,21.359,0,0,0-.572-5.668,4.377,4.377,0,0,0-1.937-2.73,8.058,8.058,0,0,0-3.939-.78,8.058,8.058,0,0,0-3.939.78,4.33,4.33,0,0,0-1.924,2.73,21.814,21.814,0,0,0-.559,5.668v0.676a21.809,21.809,0,0,0,.559,5.668,4.33,4.33,0,0,0,1.924,2.73,8.058,8.058,0,0,0,3.939.78h0Zm0-3.276a1.571,1.571,0,0,1-1.287-.52,3.64,3.64,0,0,1-.6-1.794,31.293,31.293,0,0,1-.169-3.8v-0.26a31.316,31.316,0,0,1,.169-3.8,3.648,3.648,0,0,1,.6-1.794,1.574,1.574,0,0,1,1.287-.52,1.614,1.614,0,0,1,1.3.52,3.578,3.578,0,0,1,.611,1.807,31.438,31.438,0,0,1,.169,3.783v0.26a31.438,31.438,0,0,1-.169,3.783,3.574,3.574,0,0,1-.611,1.807,1.61,1.61,0,0,1-1.3.52h0Zm9.386,2.99h4.264v-6.422h0.884a13.633,13.633,0,0,0,4.2-.507,3.571,3.571,0,0,0,2.132-1.729,7.542,7.542,0,0,0,.637-3.432v-0.676a7.62,7.62,0,0,0-.637-3.458,3.574,3.574,0,0,0-2.132-1.729,13.633,13.633,0,0,0-4.2-.507H69.979v18.46Zm4.264-9.75v-5.382h0.806a4.587,4.587,0,0,1,1.664.234,1.338,1.338,0,0,1,.78.767,4.557,4.557,0,0,1,.208,1.573v0.26a4.453,4.453,0,0,1-.208,1.547,1.335,1.335,0,0,1-.78.767,4.587,4.587,0,0,1-1.664.234H74.243Zm26.182,3.588-4.55-12.3H91.143v18.46h3.666v-12.3l4.55,12.3h4.732v-18.46h-3.666v12.3Zm13.025,6.448a8.058,8.058,0,0,0,3.939-.78,4.375,4.375,0,0,0,1.937-2.73,21.316,21.316,0,0,0,.572-5.668V190.44a21.321,21.321,0,0,0-.572-5.668,4.375,4.375,0,0,0-1.937-2.73,10.336,10.336,0,0,0-7.878,0,4.331,4.331,0,0,0-1.924,2.73,21.854,21.854,0,0,0-.559,5.668v0.676a21.849,21.849,0,0,0,.559,5.668,4.331,4.331,0,0,0,1.924,2.73,8.058,8.058,0,0,0,3.939.78h0Zm0-3.276a1.571,1.571,0,0,1-1.287-.52,3.645,3.645,0,0,1-.6-1.794,31.482,31.482,0,0,1-.169-3.8v-0.26a31.5,31.5,0,0,1,.169-3.8,3.653,3.653,0,0,1,.6-1.794,1.574,1.574,0,0,1,1.287-.52,1.612,1.612,0,0,1,1.3.52,3.565,3.565,0,0,1,.611,1.807,31.333,31.333,0,0,1,.169,3.783v0.26a31.333,31.333,0,0,1-.169,3.783,3.561,3.561,0,0,1-.611,1.807,1.609,1.609,0,0,1-1.3.52h0Zm23.791-.936-2.652-14.534h-4.654L127.283,196l-1.924-14.456H121.2l3.406,18.46h5.1l2.444-13.572,2.418,13.572h5.1l3.406-18.46h-3.874Z" transform="translate(-19 -173)"/>
</svg>
