<svg xmlns="http://www.w3.org/2000/svg" width="263.031" height="101.656" viewBox="0 0 263.031 101.656">
  <metadata><?xpacket begin="﻿" id="W5M0MpCehiHzreSzNTczkc9d"?>
<x:xmpmeta xmlns:x="adobe:ns:meta/" x:xmptk="Adobe XMP Core 5.6-c138 79.159824, 2016/09/14-01:09:01        ">
   <rdf:RDF xmlns:rdf="http://www.w3.org/1999/02/22-rdf-syntax-ns#">
      <rdf:Description rdf:about=""/>
   </rdf:RDF>
</x:xmpmeta>
                                                                                                    
                                                                                                    
                                                                                                    
                                                                                                    
                                                                                                    
                                                                                                    
                                                                                                    
                                                                                                    
                                                                                                    
                                                                                                    
                                                                                                    
                                                                                                    
                                                                                                    
                                                                                                    
                                                                                                    
                                                                                                    
                                                                                                    
                                                                                                    
                                                                                                    
                                                                                                    
                           
<?xpacket end="w"?></metadata>
<defs>
    <style>
      .cls-1 {
        fill: #fff;
        fill-rule: evenodd;
      }
    </style>
  </defs>
  <path id="AT_YOUR" data-name="AT YOUR" class="cls-1" d="M52.477,130.848L41.984,87.535H29.113L18.62,130.848H28.747l1.525-8.236H40.642l1.525,8.236h10.31ZM35.457,94.856l3.782,20.314H31.675ZM69.5,130.848V96.2h8.6V87.535H50.953V96.2h8.541v34.65h10Zm45.874-43.313-5.734,18.24L103.9,87.535H93.228l11.285,27.879v15.434h10V115.414L125.8,87.535H115.372Zm26.841,43.984q6.039,0,9.242-1.83T156,123.283q1.341-4.575,1.342-13.3V108.4q0-8.724-1.342-13.3t-4.545-6.405q-3.2-1.83-9.242-1.83t-9.242,1.83q-3.2,1.83-4.514,6.405t-1.312,13.3v1.586q0,8.724,1.312,13.3t4.514,6.406q3.2,1.83,9.242,1.83h0Zm0-7.687a3.688,3.688,0,0,1-3.02-1.22,8.55,8.55,0,0,1-1.4-4.209,73.431,73.431,0,0,1-.4-8.906v-0.61a73.458,73.458,0,0,1,.4-8.907,8.558,8.558,0,0,1,1.4-4.209,3.691,3.691,0,0,1,3.02-1.22,3.782,3.782,0,0,1,3.05,1.22,8.4,8.4,0,0,1,1.434,4.24,73.767,73.767,0,0,1,.4,8.876v0.61a73.79,73.79,0,0,1-.4,8.876,8.388,8.388,0,0,1-1.434,4.239,3.779,3.779,0,0,1-3.05,1.22h0Zm36.358,7.687q5.733,0,8.815-1.525a8.785,8.785,0,0,0,4.392-5.125,31.481,31.481,0,0,0,1.311-10.309V87.535H182.841v27.757a28.06,28.06,0,0,1-.366,5.185,4.391,4.391,0,0,1-1.281,2.593,4.9,4.9,0,0,1-5.247,0,4.391,4.391,0,0,1-1.281-2.593,28.06,28.06,0,0,1-.366-5.185V87.535H164.052V114.56a31.453,31.453,0,0,0,1.311,10.309,8.78,8.78,0,0,0,4.393,5.125q3.079,1.524,8.815,1.525h0Zm51.669-.671L223.9,113.4a8.015,8.015,0,0,0,4.21-4,17.293,17.293,0,0,0,1.281-7.29v-1.586q0-5.184-1.5-7.961a8.234,8.234,0,0,0-4.972-3.9,33.567,33.567,0,0,0-9.882-1.129H201.019v43.313h10v-15.8h3.9l4.7,15.8H230.24Zm-17.386-23.609h-1.83v-11.9h1.83a12.263,12.263,0,0,1,3.965.488,2.956,2.956,0,0,1,1.83,1.678,9.691,9.691,0,0,1,.488,3.507v0.61a8.563,8.563,0,0,1-.518,3.325,3.276,3.276,0,0,1-1.861,1.738,10.761,10.761,0,0,1-3.9.549h0Z" transform="translate(-18.625 -86.875)"/>
  <path id="DOORSTEP" class="cls-1" d="M19.036,187.848H31.908q6.527,0,10-1.769a10.105,10.105,0,0,0,4.941-6.223q1.464-4.452,1.464-12.871V165.4q0-8.419-1.464-12.872a10.109,10.109,0,0,0-4.941-6.222q-3.477-1.77-10-1.77H19.036v43.313Zm10-7.87V152.344H31.42a6.606,6.606,0,0,1,4.24,1.128,6.306,6.306,0,0,1,1.861,3.905,53.817,53.817,0,0,1,.488,8.51v0.61a53.817,53.817,0,0,1-.488,8.51,6.151,6.151,0,0,1-1.861,3.873,6.738,6.738,0,0,1-4.24,1.1H29.041ZM69,188.519q6.039,0,9.242-1.83t4.545-6.406q1.341-4.575,1.342-13.3V165.4q0-8.724-1.342-13.3T78.239,145.7q-3.2-1.832-9.242-1.831T59.755,145.7q-3.2,1.83-4.514,6.405T53.93,165.4v1.586q0,8.724,1.312,13.3t4.514,6.406q3.2,1.83,9.242,1.83h0Zm0-7.687a3.686,3.686,0,0,1-3.02-1.22,8.55,8.55,0,0,1-1.4-4.209,73.4,73.4,0,0,1-.4-8.906v-0.61a73.435,73.435,0,0,1,.4-8.907,8.558,8.558,0,0,1,1.4-4.209,3.689,3.689,0,0,1,3.02-1.22,3.782,3.782,0,0,1,3.05,1.22,8.392,8.392,0,0,1,1.433,4.24,73.72,73.72,0,0,1,.4,8.876v0.61a73.743,73.743,0,0,1-.4,8.876,8.388,8.388,0,0,1-1.433,4.239,3.779,3.779,0,0,1-3.05,1.22h0Zm35.87,7.687q6.039,0,9.242-1.83t4.545-6.406q1.341-4.575,1.342-13.3V165.4q0-8.724-1.342-13.3t-4.545-6.405q-3.2-1.832-9.242-1.831T95.625,145.7q-3.2,1.83-4.514,6.405T89.8,165.4v1.586q0,8.724,1.312,13.3t4.514,6.406q3.2,1.83,9.242,1.83h0Zm0-7.687a3.687,3.687,0,0,1-3.02-1.22,8.55,8.55,0,0,1-1.4-4.209,73.431,73.431,0,0,1-.4-8.906v-0.61a73.462,73.462,0,0,1,.4-8.907,8.558,8.558,0,0,1,1.4-4.209,3.69,3.69,0,0,1,3.02-1.22,3.782,3.782,0,0,1,3.05,1.22,8.393,8.393,0,0,1,1.434,4.24,73.767,73.767,0,0,1,.4,8.876v0.61a73.79,73.79,0,0,1-.4,8.876,8.388,8.388,0,0,1-1.434,4.239,3.779,3.779,0,0,1-3.05,1.22h0Zm51.242,7.016L149.765,170.4a8.017,8.017,0,0,0,4.209-4,17.293,17.293,0,0,0,1.281-7.29v-1.586q0-5.184-1.5-7.961a8.235,8.235,0,0,0-4.971-3.9,33.572,33.572,0,0,0-9.883-1.129H126.889v43.313h10v-15.8h3.9l4.7,15.8h10.614Zm-17.386-23.609h-1.83v-11.9h1.83a12.263,12.263,0,0,1,3.965.488,2.955,2.955,0,0,1,1.83,1.677,9.676,9.676,0,0,1,.488,3.508v0.61a8.563,8.563,0,0,1-.518,3.325,3.276,3.276,0,0,1-1.861,1.738,10.761,10.761,0,0,1-3.9.549h0Zm35.2,24.28a22.139,22.139,0,0,0,8.419-1.312,8.459,8.459,0,0,0,4.514-4.24,18.427,18.427,0,0,0,1.4-7.869,15.547,15.547,0,0,0-1.8-7.869,9.7,9.7,0,0,0-5.185-4.362q-3.386-1.249-3.874-1.434l-2.135-.854a22.27,22.27,0,0,1-2.928-1.281,4.46,4.46,0,0,1-1.617-1.586,5.307,5.307,0,0,1-.64-2.806q0-3.843,3.965-3.843a3.937,3.937,0,0,1,3.172,1.1,5.391,5.391,0,0,1,.915,3.477v0.915h9.09v-0.915a16.379,16.379,0,0,0-1.22-6.985,7.313,7.313,0,0,0-3.965-3.66,20.659,20.659,0,0,0-7.626-1.129q-7.381,0-10.584,2.807t-3.2,9.333a14.05,14.05,0,0,0,1.342,6.68,9.24,9.24,0,0,0,3.264,3.63,32.217,32.217,0,0,0,5.155,2.379l2.318,0.915q2.379,0.915,3.477,1.464a4.727,4.727,0,0,1,1.891,1.86,6.888,6.888,0,0,1,.793,3.569,5.524,5.524,0,0,1-1.006,3.63q-1.006,1.19-3.569,1.189-2.807,0-3.9-1.494t-1.1-5.033v-1.4h-9.212v1.586A20.315,20.315,0,0,0,161.355,183a8.012,8.012,0,0,0,4.271,4.209,21.17,21.17,0,0,0,8.3,1.312h0Zm35.444-.671V153.2h8.6v-8.663H190.821V153.2h8.54v34.65h10.005Zm37.7,0v-7.626H232.913V169.547h12.261v-7.626H232.913v-9.76h13.542v-7.626H222.908v43.313h24.157Zm6.161,0h10V172.78h2.075a31.99,31.99,0,0,0,9.852-1.19,8.376,8.376,0,0,0,5-4.056,17.706,17.706,0,0,0,1.494-8.053V157.9a17.874,17.874,0,0,0-1.494-8.113,8.381,8.381,0,0,0-5-4.057,31.99,31.99,0,0,0-9.852-1.19H253.226v43.313Zm10-22.876V152.344h1.892a10.761,10.761,0,0,1,3.9.549,3.138,3.138,0,0,1,1.83,1.8,10.691,10.691,0,0,1,.488,3.691v0.61a10.449,10.449,0,0,1-.488,3.63,3.135,3.135,0,0,1-1.83,1.8,10.736,10.736,0,0,1-3.9.55H263.23Z" transform="translate(-18.625 -86.875)"/>
</svg>
