<svg id="CTA" xmlns="http://www.w3.org/2000/svg" width="178.281" height="37.781" viewBox="0 0 178.281 37.781">
  <metadata><?xpacket begin="﻿" id="W5M0MpCehiHzreSzNTczkc9d"?>
<x:xmpmeta xmlns:x="adobe:ns:meta/" x:xmptk="Adobe XMP Core 5.6-c138 79.159824, 2016/09/14-01:09:01        ">
   <rdf:RDF xmlns:rdf="http://www.w3.org/1999/02/22-rdf-syntax-ns#">
      <rdf:Description rdf:about=""/>
   </rdf:RDF>
</x:xmpmeta>
                                                                                                    
                                                                                                    
                                                                                                    
                                                                                                    
                                                                                                    
                                                                                                    
                                                                                                    
                                                                                                    
                                                                                                    
                                                                                                    
                                                                                                    
                                                                                                    
                                                                                                    
                                                                                                    
                                                                                                    
                                                                                                    
                                                                                                    
                                                                                                    
                                                                                                    
                                                                                                    
                           
<?xpacket end="w"?></metadata>
<defs>
    <style>
      .cls-1, .cls-2 {
        fill-rule: evenodd;
      }

      .cls-2 {
        fill: #fff;
      }
    </style>
  </defs>
  <path id="Rounded_Rectangle_1" data-name="Rounded Rectangle 1" class="cls-1" d="M537.729,44.205H706a5,5,0,0,1,5,5V77a5,5,0,0,1-5,5H537.729a5,5,0,0,1-5-5V49.205A5,5,0,0,1,537.729,44.205Z" transform="translate(-532.719 -44.219)"/>
  <path id="BUY_NOW" data-name="BUY NOW" class="cls-2" d="M562.658,62.813a4.537,4.537,0,0,0,2.335-1.836,6.165,6.165,0,0,0,.707-3.168V56.873a7.109,7.109,0,0,0-.851-3.816,4.779,4.779,0,0,0-2.843-1.908,21.238,21.238,0,0,0-5.613-.576h-6.917v25.56h7.641a20.776,20.776,0,0,0,5.649-.594,4.773,4.773,0,0,0,2.861-2.016,7.718,7.718,0,0,0,.869-4.014V68.573a6.815,6.815,0,0,0-.887-3.762,5.242,5.242,0,0,0-2.951-2h0Zm-7.243-8.28h1.05a6.28,6.28,0,0,1,2.119.27,1.636,1.636,0,0,1,.977.936,5.316,5.316,0,0,1,.272,1.926v0.36a4.621,4.621,0,0,1-.272,1.8,1.656,1.656,0,0,1-1,.882,6.3,6.3,0,0,1-2.1.27h-1.05V54.533Zm5,14.04a6.828,6.828,0,0,1-.271,2.2,1.8,1.8,0,0,1-1,1.08,5.452,5.452,0,0,1-2.137.324h-1.593V64.865h1.593a6.077,6.077,0,0,1,2.137.288,1.684,1.684,0,0,1,1,1.008,6.064,6.064,0,0,1,.271,2.052v0.36Zm18.578,7.956a12.161,12.161,0,0,0,5.233-.9A5.192,5.192,0,0,0,586.83,72.6a18.47,18.47,0,0,0,.779-6.084V50.573h-6.084v16.38a16.544,16.544,0,0,1-.217,3.06,2.587,2.587,0,0,1-.761,1.53,2.919,2.919,0,0,1-3.114,0,2.587,2.587,0,0,1-.761-1.53,16.456,16.456,0,0,1-.217-3.06V50.573h-6.084V66.521a18.443,18.443,0,0,0,.779,6.084,5.188,5.188,0,0,0,2.607,3.024,12.155,12.155,0,0,0,5.233.9h0Zm24.19-25.956-3.4,10.764-3.4-10.764h-6.337l6.7,16.452v9.108h5.939V67.025l6.7-16.452H603.18ZM633.563,67.6l-6.337-17.028h-6.591v25.56h5.106V59.1l6.337,17.028h6.591V50.573h-5.106V67.6Zm18.143,8.928a11.277,11.277,0,0,0,5.486-1.08,6.059,6.059,0,0,0,2.7-3.78,29.391,29.391,0,0,0,.8-7.848V62.885a29.394,29.394,0,0,0-.8-7.848,6.059,6.059,0,0,0-2.7-3.78,14.473,14.473,0,0,0-10.972,0,6,6,0,0,0-2.68,3.78,30,30,0,0,0-.779,7.848v0.936a30,30,0,0,0,.779,7.848,6,6,0,0,0,2.68,3.78,11.277,11.277,0,0,0,5.486,1.08h0Zm0-4.536a2.2,2.2,0,0,1-1.793-.72,5.033,5.033,0,0,1-.833-2.484,43.153,43.153,0,0,1-.235-5.256v-0.36a43.167,43.167,0,0,1,.235-5.256,5.037,5.037,0,0,1,.833-2.484,2.2,2.2,0,0,1,1.793-.72,2.252,2.252,0,0,1,1.811.72,4.944,4.944,0,0,1,.851,2.5,43.438,43.438,0,0,1,.235,5.238v0.36a43.438,43.438,0,0,1-.235,5.238,4.942,4.942,0,0,1-.851,2.5,2.25,2.25,0,0,1-1.811.72h0Zm33.136-1.3-3.694-20.124h-6.482l-3.694,20.016-2.68-20.016H662.5l4.744,25.56h7.1l3.4-18.792,3.368,18.792h7.1l4.744-25.56h-5.4Z" transform="translate(-532.719 -44.219)"/>
</svg>
