<svg xmlns="http://www.w3.org/2000/svg" width="499.375" height="44.656" viewBox="0 0 499.375 44.656">
  <metadata><?xpacket begin="﻿" id="W5M0MpCehiHzreSzNTczkc9d"?>
<x:xmpmeta xmlns:x="adobe:ns:meta/" x:xmptk="Adobe XMP Core 5.6-c138 79.159824, 2016/09/14-01:09:01        ">
   <rdf:RDF xmlns:rdf="http://www.w3.org/1999/02/22-rdf-syntax-ns#">
      <rdf:Description rdf:about=""/>
   </rdf:RDF>
</x:xmpmeta>
                                                                                                    
                                                                                                    
                                                                                                    
                                                                                                    
                                                                                                    
                                                                                                    
                                                                                                    
                                                                                                    
                                                                                                    
                                                                                                    
                                                                                                    
                                                                                                    
                                                                                                    
                                                                                                    
                                                                                                    
                                                                                                    
                                                                                                    
                                                                                                    
                                                                                                    
                                                                                                    
                           
<?xpacket end="w"?></metadata>
<defs>
    <style>
      .cls-1 {
        fill: #fff;
        fill-rule: evenodd;
      }
    </style>
  </defs>
  <path id="AT_YOUR_DOORSTEP" data-name="AT YOUR DOORSTEP" class="cls-1" d="M40.619,81.849L30.061,38.539H17.11L6.552,81.849H16.742l1.535-8.235H28.711l1.535,8.235H40.619ZM23.494,45.859L27.3,66.172H19.688Zm34.251,35.99V47.2H66.4V38.539H39.085V47.2h8.593V81.849H57.745ZM103.9,38.539L98.134,56.778l-5.77-18.239H81.622L92.978,66.416V81.849h10.066V66.416L114.4,38.539H103.9ZM130.911,82.52q6.076,0,9.3-1.83t4.573-6.405q1.35-4.575,1.35-13.3V59.4q0-8.722-1.35-13.3T140.21,39.7q-3.222-1.83-9.3-1.83t-9.3,1.83q-3.224,1.83-4.543,6.405T115.75,59.4v1.586q0,8.724,1.319,13.3t4.543,6.405q3.222,1.83,9.3,1.83h0Zm0-7.686a3.718,3.718,0,0,1-3.038-1.22,8.5,8.5,0,0,1-1.412-4.209,72.886,72.886,0,0,1-.4-8.906v-0.61a72.908,72.908,0,0,1,.4-8.906,8.508,8.508,0,0,1,1.412-4.209,3.721,3.721,0,0,1,3.038-1.22,3.817,3.817,0,0,1,3.069,1.22,8.359,8.359,0,0,1,1.442,4.24,73.219,73.219,0,0,1,.4,8.876V60.5a73.219,73.219,0,0,1-.4,8.876,8.355,8.355,0,0,1-1.442,4.239,3.814,3.814,0,0,1-3.069,1.22h0Zm36.582,7.686q5.769,0,8.87-1.525a8.8,8.8,0,0,0,4.419-5.124,31.28,31.28,0,0,0,1.32-10.309V38.539H171.79V66.294a27.94,27.94,0,0,1-.368,5.185,4.382,4.382,0,0,1-1.289,2.593,4.95,4.95,0,0,1-5.279,0,4.382,4.382,0,0,1-1.289-2.593,27.94,27.94,0,0,1-.368-5.185V38.539H152.885V65.562A31.285,31.285,0,0,0,154.2,75.871,8.8,8.8,0,0,0,158.624,81q3.1,1.524,8.869,1.525h0Zm51.99-.671L213.1,64.4a8.043,8.043,0,0,0,4.235-4,17.185,17.185,0,0,0,1.289-7.29V51.532q0-5.184-1.5-7.961a8.278,8.278,0,0,0-5-3.9,33.98,33.98,0,0,0-9.944-1.129H190.081v43.31h10.067V66.05h3.928l4.726,15.8h10.681ZM201.989,58.242h-1.841v-11.9h1.841a12.415,12.415,0,0,1,3.99.488,2.968,2.968,0,0,1,1.841,1.678,9.637,9.637,0,0,1,.491,3.508v0.61a8.516,8.516,0,0,1-.521,3.325,3.291,3.291,0,0,1-1.873,1.739,10.885,10.885,0,0,1-3.928.549h0ZM241.7,81.849h12.952q6.567,0,10.066-1.769a10.114,10.114,0,0,0,4.972-6.222q1.473-4.452,1.473-12.871V59.4q0-8.418-1.473-12.871a10.12,10.12,0,0,0-4.972-6.222q-3.5-1.769-10.066-1.769H241.7v43.31Zm10.067-7.869V46.347h2.394a6.677,6.677,0,0,1,4.266,1.129,6.293,6.293,0,0,1,1.872,3.9,53.509,53.509,0,0,1,.491,8.509V60.5a53.492,53.492,0,0,1-.491,8.51,6.143,6.143,0,0,1-1.872,3.873,6.812,6.812,0,0,1-4.266,1.1h-2.394Zm40.2,8.54q6.077,0,9.3-1.83t4.573-6.405q1.349-4.575,1.35-13.3V59.4q0-8.722-1.35-13.3T301.271,39.7q-3.222-1.83-9.3-1.83t-9.3,1.83q-3.224,1.83-4.543,6.405t-1.319,13.3v1.586q0,8.724,1.319,13.3t4.543,6.405q3.222,1.83,9.3,1.83h0Zm0-7.686a3.722,3.722,0,0,1-3.039-1.22,8.512,8.512,0,0,1-1.411-4.209,72.886,72.886,0,0,1-.4-8.906v-0.61a72.908,72.908,0,0,1,.4-8.906,8.519,8.519,0,0,1,1.411-4.209,3.725,3.725,0,0,1,3.039-1.22,3.819,3.819,0,0,1,3.069,1.22,8.359,8.359,0,0,1,1.442,4.24,73.219,73.219,0,0,1,.4,8.876V60.5a73.219,73.219,0,0,1-.4,8.876,8.355,8.355,0,0,1-1.442,4.239,3.815,3.815,0,0,1-3.069,1.22h0Zm36.091,7.686q6.077,0,9.3-1.83t4.573-6.405q1.35-4.575,1.351-13.3V59.4q0-8.722-1.351-13.3T337.362,39.7q-3.222-1.83-9.3-1.83t-9.3,1.83q-3.222,1.83-4.542,6.405T312.9,59.4v1.586q0,8.724,1.32,13.3t4.542,6.405q3.222,1.83,9.3,1.83h0Zm0-7.686a3.719,3.719,0,0,1-3.038-1.22,8.521,8.521,0,0,1-1.412-4.209,73.091,73.091,0,0,1-.4-8.906v-0.61a73.114,73.114,0,0,1,.4-8.906,8.529,8.529,0,0,1,1.412-4.209,3.722,3.722,0,0,1,3.038-1.22,3.816,3.816,0,0,1,3.069,1.22,8.358,8.358,0,0,1,1.443,4.24,73.428,73.428,0,0,1,.4,8.876V60.5a73.428,73.428,0,0,1-.4,8.876,8.354,8.354,0,0,1-1.443,4.239,3.813,3.813,0,0,1-3.069,1.22h0Zm51.56,7.015L373.239,64.4a8.043,8.043,0,0,0,4.235-4,17.185,17.185,0,0,0,1.289-7.29V51.532q0-5.184-1.5-7.961a8.28,8.28,0,0,0-5-3.9,33.975,33.975,0,0,0-9.944-1.129H350.221v43.31h10.067V66.05h3.928l4.727,15.8h10.68ZM362.129,58.242h-1.841v-11.9h1.841a12.415,12.415,0,0,1,3.99.488,2.965,2.965,0,0,1,1.841,1.678,9.637,9.637,0,0,1,.491,3.508v0.61a8.516,8.516,0,0,1-.521,3.325,3.289,3.289,0,0,1-1.872,1.739,10.894,10.894,0,0,1-3.929.549h0ZM397.546,82.52a22.4,22.4,0,0,0,8.471-1.311,8.493,8.493,0,0,0,4.542-4.24,18.324,18.324,0,0,0,1.412-7.869,15.464,15.464,0,0,0-1.811-7.869,9.74,9.74,0,0,0-5.217-4.361q-3.406-1.249-3.9-1.433l-2.148-.854A22.5,22.5,0,0,1,395.95,53.3a4.468,4.468,0,0,1-1.626-1.586,5.277,5.277,0,0,1-.645-2.806q0-3.843,3.99-3.843a3.977,3.977,0,0,1,3.192,1.1,5.365,5.365,0,0,1,.921,3.477v0.915h9.145V49.641a16.289,16.289,0,0,0-1.227-6.985A7.342,7.342,0,0,0,405.71,39a20.9,20.9,0,0,0-7.673-1.129q-7.426,0-10.649,2.806t-3.223,9.333a13.969,13.969,0,0,0,1.351,6.679,9.245,9.245,0,0,0,3.283,3.63,32.528,32.528,0,0,0,5.187,2.379l2.333,0.915q2.394,0.915,3.5,1.464a4.74,4.74,0,0,1,1.9,1.861,6.854,6.854,0,0,1,.8,3.569,5.5,5.5,0,0,1-1.013,3.629q-1.013,1.19-3.59,1.19-2.825,0-3.929-1.495T392.881,68.8v-1.4h-9.268v1.586A20.188,20.188,0,0,0,384.9,77a8.031,8.031,0,0,0,4.3,4.209,21.427,21.427,0,0,0,8.348,1.311h0Zm35.663-.671V47.2h8.655V38.539H414.549V47.2h8.594V81.849h10.066Zm37.933,0V74.224H456.9V63.549h12.337V55.924H456.9v-9.76h13.626V38.539H446.835v43.31h24.307Zm6.2,0h10.067V66.782H489.5a32.377,32.377,0,0,0,9.913-1.189,8.418,8.418,0,0,0,5.033-4.057,17.608,17.608,0,0,0,1.5-8.052V51.9a17.78,17.78,0,0,0-1.5-8.113,8.422,8.422,0,0,0-5.033-4.056,32.377,32.377,0,0,0-9.913-1.19H477.341v43.31Zm10.067-22.875V46.347h1.9a10.894,10.894,0,0,1,3.929.549,3.149,3.149,0,0,1,1.841,1.8,10.623,10.623,0,0,1,.491,3.691V53a10.387,10.387,0,0,1-.491,3.63,3.147,3.147,0,0,1-1.841,1.8,10.894,10.894,0,0,1-3.929.549h-1.9Z" transform="translate(-6.563 -37.875)"/>
</svg>
