<svg xmlns="http://www.w3.org/2000/svg" width="508.188" height="36.594" viewBox="0 0 508.188 36.594">
  <metadata><?xpacket begin="﻿" id="W5M0MpCehiHzreSzNTczkc9d"?>
<x:xmpmeta xmlns:x="adobe:ns:meta/" x:xmptk="Adobe XMP Core 5.6-c138 79.159824, 2016/09/14-01:09:01        ">
   <rdf:RDF xmlns:rdf="http://www.w3.org/1999/02/22-rdf-syntax-ns#">
      <rdf:Description rdf:about=""/>
   </rdf:RDF>
</x:xmpmeta>
                                                                                                    
                                                                                                    
                                                                                                    
                                                                                                    
                                                                                                    
                                                                                                    
                                                                                                    
                                                                                                    
                                                                                                    
                                                                                                    
                                                                                                    
                                                                                                    
                                                                                                    
                                                                                                    
                                                                                                    
                                                                                                    
                                                                                                    
                                                                                                    
                                                                                                    
                                                                                                    
                           
<?xpacket end="w"?></metadata>
<defs>
    <style>
      .cls-1 {
        fill: #fff;
        fill-rule: evenodd;
      }
    </style>
  </defs>
  <path id="FREE_HOLIDAY_SHIPPING" data-name="FREE HOLIDAY SHIPPING" class="cls-1" d="M13.153,81.147v-13.9h10.11V60.8H13.153V52.1H24.319v-6.45H4.9v35.5h8.249Zm39.633,0-5.231-14.3a6.593,6.593,0,0,0,3.471-3.275A14.1,14.1,0,0,0,52.082,57.6V56.3a13.956,13.956,0,0,0-1.232-6.525,6.784,6.784,0,0,0-4.1-3.2,27.834,27.834,0,0,0-8.148-.925H28.694v35.5h8.249V68.2h3.219l3.873,12.95h8.752ZM38.452,61.8H36.943v-9.75h1.509a10.168,10.168,0,0,1,3.269.4,2.432,2.432,0,0,1,1.509,1.375,7.9,7.9,0,0,1,.4,2.875v0.5a6.978,6.978,0,0,1-.428,2.725,2.694,2.694,0,0,1-1.534,1.425,8.921,8.921,0,0,1-3.219.45h0Zm39.181,19.35V74.9H65.964v-8.75h10.11V59.9H65.964v-8H77.13v-6.25H57.715v35.5H77.633Zm25,0V74.9H90.961v-8.75H101.07V59.9H90.961v-8h11.166v-6.25H82.712v35.5h19.917Zm26.606,0V66.8h7.746v14.35h8.249v-35.5h-8.249v13.8h-7.746v-13.8h-8.248v35.5h8.248Zm34.051,0.55q4.98,0,7.62-1.5a8.421,8.421,0,0,0,3.747-5.25,40.841,40.841,0,0,0,1.107-10.9v-1.3a40.845,40.845,0,0,0-1.107-10.9,8.421,8.421,0,0,0-3.747-5.25q-2.64-1.5-7.62-1.5t-7.62,1.5a8.332,8.332,0,0,0-3.722,5.25,41.728,41.728,0,0,0-1.081,10.9v1.3a41.723,41.723,0,0,0,1.081,10.9,8.332,8.332,0,0,0,3.722,5.25q2.64,1.5,7.62,1.5h0Zm0-6.3a3.049,3.049,0,0,1-2.49-1,6.987,6.987,0,0,1-1.157-3.45,59.964,59.964,0,0,1-.326-7.3v-0.5a59.982,59.982,0,0,1,.326-7.3A6.993,6.993,0,0,1,160.8,52.4a3.051,3.051,0,0,1,2.49-1,3.129,3.129,0,0,1,2.515,1,6.857,6.857,0,0,1,1.182,3.475,60.234,60.234,0,0,1,.327,7.275v0.5a60.234,60.234,0,0,1-.327,7.275A6.854,6.854,0,0,1,165.8,74.4a3.127,3.127,0,0,1-2.515,1h0Zm36.163,5.75v-7.1h-9.758v-28.4h-8.248v35.5h18.006Zm12.624,0v-35.5h-8.249v35.5h8.249Zm6.638,0h10.613q5.38,0,8.249-1.45a8.293,8.293,0,0,0,4.074-5.1,35.405,35.405,0,0,0,1.207-10.55v-1.3a35.409,35.409,0,0,0-1.207-10.55,8.3,8.3,0,0,0-4.074-5.1q-2.868-1.45-8.249-1.45H218.711v35.5Zm8.249-6.45V52.047h1.961a5.469,5.469,0,0,1,3.5.925,5.154,5.154,0,0,1,1.534,3.2,43.849,43.849,0,0,1,.4,6.975v0.5a43.836,43.836,0,0,1-.4,6.975,5.032,5.032,0,0,1-1.534,3.175,5.58,5.58,0,0,1-3.5.9H226.96Zm46.222,6.45-8.651-35.5H253.919l-8.651,35.5h8.349l1.257-6.75h8.551l1.257,6.75h8.5Zm-14.032-29.5,3.118,16.65h-6.237Zm29.726-6L284.148,60.6l-4.728-14.95h-8.8l9.305,22.85v12.65h8.249V68.5l9.3-22.85h-8.6ZM323.127,81.7a18.347,18.347,0,0,0,6.941-1.075,6.961,6.961,0,0,0,3.722-3.475,15.025,15.025,0,0,0,1.157-6.45,12.679,12.679,0,0,0-1.484-6.45,7.982,7.982,0,0,0-4.275-3.575q-2.791-1.024-3.194-1.175l-1.76-.7a18.413,18.413,0,0,1-2.415-1.05,3.67,3.67,0,0,1-1.332-1.3,4.33,4.33,0,0,1-.528-2.3q0-3.15,3.269-3.15a3.257,3.257,0,0,1,2.615.9,4.4,4.4,0,0,1,.755,2.85V55.5h7.494v-0.75a13.359,13.359,0,0,0-1.006-5.725,6.014,6.014,0,0,0-3.269-3,17.12,17.12,0,0,0-6.287-.925q-6.087,0-8.727,2.3t-2.64,7.65a11.457,11.457,0,0,0,1.106,5.475A7.583,7.583,0,0,0,315.96,63.5a26.608,26.608,0,0,0,4.25,1.95l1.911,0.75q1.962,0.75,2.867,1.2a3.884,3.884,0,0,1,1.559,1.525,5.611,5.611,0,0,1,.654,2.925,4.5,4.5,0,0,1-.83,2.975,3.709,3.709,0,0,1-2.942.975,3.756,3.756,0,0,1-3.219-1.225,7.123,7.123,0,0,1-.9-4.125V69.3h-7.6v1.3a16.565,16.565,0,0,0,1.056,6.575,6.584,6.584,0,0,0,3.521,3.45,17.547,17.547,0,0,0,6.84,1.075h0Zm25.249-.55V66.8h7.746v14.35h8.249v-35.5h-8.249v13.8h-7.746v-13.8h-8.249v35.5h8.249Zm30.882,0v-35.5h-8.249v35.5h8.249Zm6.638,0h8.249V68.8h1.71a26.517,26.517,0,0,0,8.123-.975A6.9,6.9,0,0,0,408.1,64.5a14.438,14.438,0,0,0,1.232-6.6V56.6a14.579,14.579,0,0,0-1.232-6.65,6.9,6.9,0,0,0-4.125-3.325,26.517,26.517,0,0,0-8.123-.975H385.9v35.5Zm8.249-18.75V52.047H395.7a8.919,8.919,0,0,1,3.219.45,2.579,2.579,0,0,1,1.509,1.475,8.706,8.706,0,0,1,.4,3.025v0.5a8.512,8.512,0,0,1-.4,2.975,2.577,2.577,0,0,1-1.509,1.475,8.919,8.919,0,0,1-3.219.45h-1.559Zm20.169,18.75h8.249V68.8h1.71a26.522,26.522,0,0,0,8.123-.975A6.9,6.9,0,0,0,436.52,64.5a14.438,14.438,0,0,0,1.232-6.6V56.6a14.579,14.579,0,0,0-1.232-6.65,6.9,6.9,0,0,0-4.124-3.325,26.522,26.522,0,0,0-8.123-.975h-9.959v35.5Zm8.249-18.75V52.047h1.559a8.923,8.923,0,0,1,3.219.45,2.581,2.581,0,0,1,1.509,1.475,8.71,8.71,0,0,1,.4,3.025v0.5a8.516,8.516,0,0,1-.4,2.975,2.579,2.579,0,0,1-1.509,1.475,8.923,8.923,0,0,1-3.219.45h-1.559Zm28.417,18.75v-35.5h-8.248v35.5h8.248ZM475.575,69.3l-8.8-23.65h-9.154v35.5h7.092V57.5l8.8,23.65h9.154v-35.5h-7.092V69.3Zm25.6-8.1v6.4h3.471v1.2q0,3.7-.88,5.15a3.219,3.219,0,0,1-2.993,1.45,3.049,3.049,0,0,1-2.49-1,6.987,6.987,0,0,1-1.157-3.45,59.92,59.92,0,0,1-.327-7.3v-0.5a59.938,59.938,0,0,1,.327-7.3,6.993,6.993,0,0,1,1.157-3.45,3.051,3.051,0,0,1,2.49-1,3.082,3.082,0,0,1,2.716,1.225,7.954,7.954,0,0,1,.855,4.325V57.1h8.5v-0.15a16.669,16.669,0,0,0-1.257-7.175,7.16,7.16,0,0,0-3.848-3.625,18.944,18.944,0,0,0-6.966-1.05q-4.98,0-7.62,1.5a8.417,8.417,0,0,0-3.747,5.25,40.8,40.8,0,0,0-1.107,10.9v1.3a40.8,40.8,0,0,0,1.107,10.9,8.417,8.417,0,0,0,3.747,5.25q2.64,1.5,7.62,1.5a17.782,17.782,0,0,0,7.218-1.2,7.515,7.515,0,0,0,3.872-4.175A22.76,22.76,0,0,0,513.1,67.9V61.2H501.175Z" transform="translate(-4.906 -45.094)"/>
</svg>
