<svg xmlns="http://www.w3.org/2000/svg" width="397.313" height="44.656" viewBox="0 0 397.313 44.656">
  <metadata><?xpacket begin="﻿" id="W5M0MpCehiHzreSzNTczkc9d"?>
<x:xmpmeta xmlns:x="adobe:ns:meta/" x:xmptk="Adobe XMP Core 5.6-c138 79.159824, 2016/09/14-01:09:01        ">
   <rdf:RDF xmlns:rdf="http://www.w3.org/1999/02/22-rdf-syntax-ns#">
      <rdf:Description rdf:about=""/>
   </rdf:RDF>
</x:xmpmeta>
                                                                                                    
                                                                                                    
                                                                                                    
                                                                                                    
                                                                                                    
                                                                                                    
                                                                                                    
                                                                                                    
                                                                                                    
                                                                                                    
                                                                                                    
                                                                                                    
                                                                                                    
                                                                                                    
                                                                                                    
                                                                                                    
                                                                                                    
                                                                                                    
                                                                                                    
                                                                                                    
                           
<?xpacket end="w"?></metadata>
<defs>
    <style>
      .cls-1 {
        fill: #fff;
        fill-rule: evenodd;
      }
    </style>
  </defs>
  <path id="HOLIDAY_CHEER" data-name="HOLIDAY CHEER" class="cls-1" d="M16.357,81.462V63.955H25.81V81.462H35.876V38.152H25.81V54.988H16.357V38.152H6.291v43.31H16.357Zm41.555,0.671q6.077,0,9.3-1.83t4.573-6.4q1.35-4.575,1.35-13.3V59.014q0-8.722-1.35-13.3t-4.573-6.405q-3.223-1.83-9.3-1.83t-9.3,1.83q-3.222,1.83-4.542,6.405t-1.32,13.3V60.6q0,8.724,1.32,13.3t4.542,6.4q3.222,1.83,9.3,1.83h0Zm0-7.686a3.72,3.72,0,0,1-3.038-1.22,8.516,8.516,0,0,1-1.412-4.209,72.968,72.968,0,0,1-.4-8.906V59.5a72.99,72.99,0,0,1,.4-8.906,8.524,8.524,0,0,1,1.412-4.209,3.723,3.723,0,0,1,3.038-1.22,3.817,3.817,0,0,1,3.069,1.22,8.361,8.361,0,0,1,1.442,4.24,73.282,73.282,0,0,1,.4,8.876v0.61a73.282,73.282,0,0,1-.4,8.875,8.358,8.358,0,0,1-1.442,4.24,3.814,3.814,0,0,1-3.069,1.22h0Zm44.132,7.015V72.8H90.136V38.152H80.07v43.31h21.974Zm15.406,0V38.152H107.384v43.31H117.45Zm8.1,0H138.5q6.567,0,10.066-1.769a10.114,10.114,0,0,0,4.972-6.222q1.473-4.452,1.473-12.871V59.014q0-8.418-1.473-12.871a10.12,10.12,0,0,0-4.972-6.222q-3.5-1.769-10.066-1.769H125.551v43.31Zm10.067-7.869V45.96h2.394a6.677,6.677,0,0,1,4.266,1.129,6.293,6.293,0,0,1,1.872,3.9,53.509,53.509,0,0,1,.491,8.509v0.61a53.492,53.492,0,0,1-.491,8.509,6.143,6.143,0,0,1-1.872,3.874,6.812,6.812,0,0,1-4.266,1.1h-2.394Zm56.409,7.869-10.558-43.31H168.518L157.96,81.462h10.19l1.534-8.235h10.435l1.534,8.235h10.374ZM174.9,45.472l3.805,20.313H171.1Zm36.276-7.32-5.769,18.239-5.77-18.239H188.9l11.356,27.877V81.462h10.066V66.029l11.356-27.877h-10.5Zm43.151,43.981a19.761,19.761,0,0,0,8.532-1.525,9.363,9.363,0,0,0,4.6-5.246q1.473-3.72,1.473-10.553V64.626H258.564v0.183a31.038,31.038,0,0,1-.43,5.917,5.416,5.416,0,0,1-1.32,2.9,3.521,3.521,0,0,1-2.485.823,3.386,3.386,0,0,1-2.824-1.159,8.661,8.661,0,0,1-1.289-4.148,80.784,80.784,0,0,1-.368-9.028V59.5a80.8,80.8,0,0,1,.368-9.028,8.669,8.669,0,0,1,1.289-4.148,3.389,3.389,0,0,1,2.824-1.159,3.149,3.149,0,0,1,3.007,1.739q0.921,1.739.921,6.557v0.183H268.63V53.463a25.579,25.579,0,0,0-1.473-9.7,8.907,8.907,0,0,0-4.573-4.88,20.288,20.288,0,0,0-8.255-1.4q-5.955,0-9.085,1.83t-4.419,6.405q-1.29,4.575-1.289,13.3V60.6q0,8.724,1.289,13.3t4.419,6.4q3.13,1.83,9.085,1.83h0Zm31.242-.671V63.955h9.453V81.462H305.09V38.152H295.024V54.988h-9.453V38.152H275.5v43.31h10.067Zm51.928,0V73.837H323.258V63.162H335.6V55.537H323.258v-9.76h13.627V38.152H313.192v43.31H337.5Zm30.506,0V73.837H353.764V63.162H366.1V55.537H353.764v-9.76h13.627V38.152H343.7v43.31h24.307Zm35.6,0-6.384-17.446a8.049,8.049,0,0,0,4.236-4,17.2,17.2,0,0,0,1.289-7.29V51.145q0-5.184-1.5-7.961a8.277,8.277,0,0,0-5-3.9,33.975,33.975,0,0,0-9.944-1.129H374.2v43.31H384.27v-15.8H388.2l4.727,15.8h10.68ZM386.111,57.855H384.27V45.96h1.841a12.415,12.415,0,0,1,3.99.488,2.967,2.967,0,0,1,1.842,1.678,9.637,9.637,0,0,1,.491,3.508v0.61a8.513,8.513,0,0,1-.522,3.325,3.289,3.289,0,0,1-1.872,1.739,10.894,10.894,0,0,1-3.929.549h0Z" transform="translate(-6.281 -37.469)"/>
</svg>
