<svg id="CTA" xmlns="http://www.w3.org/2000/svg" width="83.375" height="22.344" viewBox="0 0 83.375 22.344">
  <metadata><?xpacket begin="﻿" id="W5M0MpCehiHzreSzNTczkc9d"?>
<x:xmpmeta xmlns:x="adobe:ns:meta/" x:xmptk="Adobe XMP Core 5.6-c138 79.159824, 2016/09/14-01:09:01        ">
   <rdf:RDF xmlns:rdf="http://www.w3.org/1999/02/22-rdf-syntax-ns#">
      <rdf:Description rdf:about=""/>
   </rdf:RDF>
</x:xmpmeta>
                                                                                                    
                                                                                                    
                                                                                                    
                                                                                                    
                                                                                                    
                                                                                                    
                                                                                                    
                                                                                                    
                                                                                                    
                                                                                                    
                                                                                                    
                                                                                                    
                                                                                                    
                                                                                                    
                                                                                                    
                                                                                                    
                                                                                                    
                                                                                                    
                                                                                                    
                                                                                                    
                           
<?xpacket end="w"?></metadata>
<defs>
    <style>
      .cls-1, .cls-2 {
        fill-rule: evenodd;
      }

      .cls-2 {
        fill: #fffefe;
      }
    </style>
  </defs>
  <path id="Rounded_Rectangle_1" data-name="Rounded Rectangle 1" class="cls-1" d="M7.584,418.665h73.4a5,5,0,0,1,5,5V436a5,5,0,0,1-5,5H7.584a5,5,0,0,1-5-5V423.665A5,5,0,0,1,7.584,418.665Z" transform="translate(-2.594 -418.656)"/>
  <path id="SAVE_NOW" data-name="SAVE NOW" class="cls-2" d="M13.4,436.427a5.417,5.417,0,0,0,2.065-.322,2.079,2.079,0,0,0,1.107-1.043,4.54,4.54,0,0,0,.344-1.935,3.83,3.83,0,0,0-.442-1.935,2.379,2.379,0,0,0-1.272-1.072l-0.95-.353-0.524-.21a5.454,5.454,0,0,1-.718-0.315,1.087,1.087,0,0,1-.4-0.39,1.305,1.305,0,0,1-.157-0.69,0.848,0.848,0,0,1,.973-0.945,0.964,0.964,0,0,1,.778.27,1.328,1.328,0,0,1,.225.855v0.225h2.23v-0.225a4.034,4.034,0,0,0-.3-1.717,1.8,1.8,0,0,0-.973-0.9,5.053,5.053,0,0,0-1.871-.278,3.918,3.918,0,0,0-2.6.69,2.919,2.919,0,0,0-.786,2.3,3.463,3.463,0,0,0,.329,1.643,2.261,2.261,0,0,0,.8.892,7.911,7.911,0,0,0,1.265.585l0.569,0.225q0.584,0.225.853,0.36a1.162,1.162,0,0,1,.464.458,1.7,1.7,0,0,1,.194.877,1.362,1.362,0,0,1-.247.893,1.1,1.1,0,0,1-.875.292,1.113,1.113,0,0,1-.958-0.367,2.154,2.154,0,0,1-.269-1.238v-0.345h-2.26v0.39a5.007,5.007,0,0,0,.314,1.973,1.967,1.967,0,0,0,1.048,1.035,5.183,5.183,0,0,0,2.035.322h0Zm12.466-.165L23.3,425.612H20.138l-2.574,10.65h2.484l0.374-2.025h2.544l0.374,2.025H25.87Zm-4.175-8.85,0.928,5H20.767Zm8.021,6.525-1.467-8.325h-2.6l2.484,10.65h3.113l2.484-10.65H31.167ZM40.7,436.262v-1.875H37.228v-2.625h3.008v-1.875H37.228v-2.4H40.55v-1.875H34.774v10.65H40.7Zm10.8-3.555-2.619-7.095H46.162v10.65h2.11v-7.1l2.619,7.1h2.724v-10.65H51.5v7.095Zm7.5,3.72a4.629,4.629,0,0,0,2.267-.45,2.525,2.525,0,0,0,1.115-1.575,12.346,12.346,0,0,0,.329-3.27v-0.39a12.351,12.351,0,0,0-.329-3.27,2.525,2.525,0,0,0-1.115-1.575,5.936,5.936,0,0,0-4.534,0,2.5,2.5,0,0,0-1.107,1.575,12.613,12.613,0,0,0-.322,3.27v0.39a12.608,12.608,0,0,0,.322,3.27,2.5,2.5,0,0,0,1.107,1.575,4.629,4.629,0,0,0,2.267.45h0Zm0-1.89a0.9,0.9,0,0,1-.741-0.3,2.106,2.106,0,0,1-.344-1.035,18.086,18.086,0,0,1-.1-2.19v-0.15a18.109,18.109,0,0,1,.1-2.19,2.114,2.114,0,0,1,.344-1.035,0.9,0.9,0,0,1,.741-0.3,0.927,0.927,0,0,1,.748.3,2.073,2.073,0,0,1,.352,1.043,18.184,18.184,0,0,1,.1,2.182v0.15a18.2,18.2,0,0,1-.1,2.183,2.065,2.065,0,0,1-.352,1.042,0.923,0.923,0,0,1-.748.3h0ZM72.695,434l-1.526-8.385H68.49l-1.526,8.34-1.108-8.34H63.461l1.96,10.65h2.933l1.407-7.83,1.392,7.83h2.933l1.96-10.65h-2.23Z" transform="translate(-2.594 -418.656)"/>
</svg>
