<svg id="Frame_2" data-name="Frame 2" xmlns="http://www.w3.org/2000/svg" width="146.75" height="120.156" viewBox="0 0 146.75 120.156">
  <metadata><?xpacket begin="﻿" id="W5M0MpCehiHzreSzNTczkc9d"?>
<x:xmpmeta xmlns:x="adobe:ns:meta/" x:xmptk="Adobe XMP Core 5.6-c138 79.159824, 2016/09/14-01:09:01        ">
   <rdf:RDF xmlns:rdf="http://www.w3.org/1999/02/22-rdf-syntax-ns#">
      <rdf:Description rdf:about=""/>
   </rdf:RDF>
</x:xmpmeta>
                                                                                                    
                                                                                                    
                                                                                                    
                                                                                                    
                                                                                                    
                                                                                                    
                                                                                                    
                                                                                                    
                                                                                                    
                                                                                                    
                                                                                                    
                                                                                                    
                                                                                                    
                                                                                                    
                                                                                                    
                                                                                                    
                                                                                                    
                                                                                                    
                                                                                                    
                                                                                                    
                           
<?xpacket end="w"?></metadata>
<defs>
    <style>
      .cls-1 {
        fill: #fff;
        fill-rule: evenodd;
      }
    </style>
  </defs>
  <path id="UNDER_" data-name="UNDER " class="cls-1" d="M17.726,342.491a17.372,17.372,0,0,0,7.514-1.3,7.489,7.489,0,0,0,3.744-4.368,26.832,26.832,0,0,0,1.118-8.788V305H21.366v23.66a23.919,23.919,0,0,1-.312,4.42,3.742,3.742,0,0,1-1.092,2.21,3.4,3.4,0,0,1-2.236.65,3.4,3.4,0,0,1-2.236-.65,3.742,3.742,0,0,1-1.092-2.21,23.919,23.919,0,0,1-.312-4.42V305H5.35v23.036a26.811,26.811,0,0,0,1.118,8.788,7.484,7.484,0,0,0,3.744,4.368,17.367,17.367,0,0,0,7.514,1.3h0Zm37.7-12.9-9.1-24.6H36.861v36.92h7.332v-24.6l9.1,24.6h9.464V305H55.425v24.6Zm14.248,12.324H80.645q5.564,0,8.528-1.508a8.613,8.613,0,0,0,4.212-5.3,37,37,0,0,0,1.248-10.972v-1.352a37.005,37.005,0,0,0-1.248-10.972,8.618,8.618,0,0,0-4.212-5.3Q86.209,305,80.645,305H69.673v36.92Zm8.528-6.708V311.655h2.028a5.631,5.631,0,0,1,3.614.962,5.374,5.374,0,0,1,1.586,3.328,45.887,45.887,0,0,1,.416,7.254v0.52a45.869,45.869,0,0,1-.416,7.254,5.245,5.245,0,0,1-1.586,3.3,5.744,5.744,0,0,1-3.614.936H78.2Zm42.847,6.708v-6.5H108.984v-9.1h10.452v-6.5H108.984V311.5h11.544V305H100.456v36.92h20.592Zm30.16,0L145.8,327.047a6.833,6.833,0,0,0,3.588-3.406,14.739,14.739,0,0,0,1.092-6.214v-1.352a14.588,14.588,0,0,0-1.274-6.786,7.021,7.021,0,0,0-4.238-3.328,28.617,28.617,0,0,0-8.424-.962H126.3v36.92h8.528V328.451h3.328l4,13.468h9.048ZM136.388,321.8h-1.56v-10.14h1.56a10.456,10.456,0,0,1,3.38.416,2.52,2.52,0,0,1,1.56,1.43,8.263,8.263,0,0,1,.416,2.99v0.52a7.3,7.3,0,0,1-.442,2.834,2.793,2.793,0,0,1-1.586,1.482,9.173,9.173,0,0,1-3.328.468h0Z" transform="translate(-4.469 -305)"/>
  <path id="THE_" data-name="THE " class="cls-1" d="M13.588,371.185v-17.04h4.23v-4.26H4.468v4.26h4.2v17.04h4.92Zm11.58,0v-8.61h4.62v8.61h4.92v-21.3h-4.92v8.28h-4.62v-8.28h-4.92v21.3h4.92Zm25.38,0v-3.75h-6.96v-5.25h6.03v-3.75h-6.03v-4.8h6.66v-3.75H38.667v21.3h11.88Z" transform="translate(-4.469 -305)"/>
  <path id="HOOD" class="cls-1" d="M15.936,424.455V406.087h9.856v18.368h10.5v-45.44h-10.5v17.664H15.936V379.015H5.44v45.44h10.5Zm43.328,0.7q6.336,0,9.7-1.92t4.768-6.72q1.407-4.8,1.408-13.952V400.9q0-9.151-1.408-13.952t-4.768-6.72q-3.36-1.92-9.7-1.92t-9.7,1.92q-3.36,1.92-4.736,6.72T43.456,400.9v1.664q0,9.153,1.376,13.952t4.736,6.72q3.36,1.92,9.7,1.92h0Zm0-8.064a3.867,3.867,0,0,1-3.168-1.28,8.971,8.971,0,0,1-1.472-4.416,77.027,77.027,0,0,1-.416-9.344v-0.64a77.049,77.049,0,0,1,.416-9.344,8.978,8.978,0,0,1,1.472-4.416,3.87,3.87,0,0,1,3.168-1.28,3.968,3.968,0,0,1,3.2,1.28,8.807,8.807,0,0,1,1.5,4.448,77.371,77.371,0,0,1,.416,9.312v0.64a77.371,77.371,0,0,1-.416,9.312,8.8,8.8,0,0,1-1.5,4.448,3.965,3.965,0,0,1-3.2,1.28h0ZM96.9,425.159q6.336,0,9.7-1.92t4.768-6.72q1.407-4.8,1.408-13.952V400.9q0-9.151-1.408-13.952t-4.768-6.72q-3.36-1.92-9.7-1.92t-9.7,1.92q-3.36,1.92-4.736,6.72T81.087,400.9v1.664q0,9.153,1.376,13.952t4.736,6.72q3.36,1.92,9.7,1.92h0Zm0-8.064a3.867,3.867,0,0,1-3.168-1.28,8.971,8.971,0,0,1-1.472-4.416,77.027,77.027,0,0,1-.416-9.344v-0.64a77.049,77.049,0,0,1,.416-9.344,8.978,8.978,0,0,1,1.472-4.416,3.87,3.87,0,0,1,3.168-1.28,3.968,3.968,0,0,1,3.2,1.28,8.807,8.807,0,0,1,1.5,4.448,77.371,77.371,0,0,1,.416,9.312v0.64a77.371,77.371,0,0,1-.416,9.312,8.8,8.8,0,0,1-1.5,4.448,3.965,3.965,0,0,1-3.2,1.28h0Zm23.1,7.36h13.5q6.847,0,10.5-1.856a10.6,10.6,0,0,0,5.184-6.528q1.536-4.671,1.536-13.5V400.9q0-8.832-1.536-13.5A10.606,10.606,0,0,0,144,380.871q-3.648-1.855-10.5-1.856H120v45.44Zm10.5-8.256V387.207h2.5a6.93,6.93,0,0,1,4.448,1.184,6.614,6.614,0,0,1,1.952,4.1,56.479,56.479,0,0,1,.512,8.928v0.64a56.461,56.461,0,0,1-.512,8.928,6.456,6.456,0,0,1-1.952,4.064,7.069,7.069,0,0,1-4.448,1.152h-2.5Z" transform="translate(-4.469 -305)"/>
</svg>
