<svg xmlns="http://www.w3.org/2000/svg" width="73.719" height="15.875" viewBox="0 0 73.719 15.875">
  <metadata><?xpacket begin="﻿" id="W5M0MpCehiHzreSzNTczkc9d"?>
<x:xmpmeta xmlns:x="adobe:ns:meta/" x:xmptk="Adobe XMP Core 5.6-c138 79.159824, 2016/09/14-01:09:01        ">
   <rdf:RDF xmlns:rdf="http://www.w3.org/1999/02/22-rdf-syntax-ns#">
      <rdf:Description rdf:about=""/>
   </rdf:RDF>
</x:xmpmeta>
                                                                                                    
                                                                                                    
                                                                                                    
                                                                                                    
                                                                                                    
                                                                                                    
                                                                                                    
                                                                                                    
                                                                                                    
                                                                                                    
                                                                                                    
                                                                                                    
                                                                                                    
                                                                                                    
                                                                                                    
                                                                                                    
                                                                                                    
                                                                                                    
                                                                                                    
                                                                                                    
                           
<?xpacket end="w"?></metadata>
<defs>
    <style>
      .cls-1, .cls-2 {
        fill-rule: evenodd;
      }

      .cls-2 {
        fill: #fff;
      }
    </style>
  </defs>
  <path id="Rounded_Rectangle_1" data-name="Rounded Rectangle 1" class="cls-1" d="M227.266,25.685H291a5,5,0,0,1,5,5v5.875a5,5,0,0,1-5,5H227.266a5,5,0,0,1-5-5V30.685A5,5,0,0,1,227.266,25.685Z" transform="translate(-222.281 -25.688)"/>
  <path id="BUY_NOW" data-name="BUY NOW" class="cls-2" d="M236.168,33.919a1.742,1.742,0,0,0,.894-0.714,2.421,2.421,0,0,0,.271-1.232V31.609a2.8,2.8,0,0,0-.326-1.484,1.827,1.827,0,0,0-1.088-.742,8.012,8.012,0,0,0-2.149-.224h-2.647V39.1h2.924a7.838,7.838,0,0,0,2.163-.231,1.83,1.83,0,0,0,1.095-.784,3.04,3.04,0,0,0,.333-1.561V36.159a2.686,2.686,0,0,0-.34-1.463,2.008,2.008,0,0,0-1.13-.777h0ZM233.4,30.7h0.4a2.369,2.369,0,0,1,.811.105,0.63,0.63,0,0,1,.374.364,2.1,2.1,0,0,1,.1.749v0.14a1.829,1.829,0,0,1-.1.7,0.636,0.636,0,0,1-.381.343,2.379,2.379,0,0,1-.8.1h-0.4V30.7Zm1.913,5.46a2.7,2.7,0,0,1-.1.854,0.7,0.7,0,0,1-.381.42,2.06,2.06,0,0,1-.818.126H233.4V34.717h0.61a2.3,2.3,0,0,1,.818.112,0.651,0.651,0,0,1,.381.392,2.4,2.4,0,0,1,.1.8v0.14Zm7.111,3.094a4.594,4.594,0,0,0,2-.35,2.013,2.013,0,0,0,1-1.176,7.281,7.281,0,0,0,.3-2.366v-6.2H243.39v6.37a6.546,6.546,0,0,1-.083,1.19,1.006,1.006,0,0,1-.291.595,1.1,1.1,0,0,1-1.192,0,1.006,1.006,0,0,1-.291-0.595,6.456,6.456,0,0,1-.083-1.19v-6.37h-2.329v6.2a7.281,7.281,0,0,0,.3,2.366,2.006,2.006,0,0,0,1,1.176,4.588,4.588,0,0,0,2,.35h0Zm9.259-10.094-1.3,4.186-1.3-4.186h-2.425l2.564,6.4V39.1h2.273V35.557l2.565-6.4h-2.371Zm11.63,6.622-2.425-6.622h-2.523V39.1h1.954V32.477l2.426,6.622h2.523v-9.94h-1.955v6.622Zm6.945,3.472a4.259,4.259,0,0,0,2.1-.42,2.359,2.359,0,0,0,1.033-1.47,11.616,11.616,0,0,0,.305-3.052V33.947a11.617,11.617,0,0,0-.305-3.052,2.359,2.359,0,0,0-1.033-1.47,5.46,5.46,0,0,0-4.2,0,2.333,2.333,0,0,0-1.026,1.47,11.849,11.849,0,0,0-.3,3.052v0.364a11.848,11.848,0,0,0,.3,3.052,2.333,2.333,0,0,0,1.026,1.47,4.259,4.259,0,0,0,2.1.42h0Zm0-1.764a0.833,0.833,0,0,1-.686-0.28,1.97,1.97,0,0,1-.319-0.966,17.066,17.066,0,0,1-.09-2.044v-0.14a17.071,17.071,0,0,1,.09-2.044,1.971,1.971,0,0,1,.319-0.966,0.833,0.833,0,0,1,.686-0.28,0.855,0.855,0,0,1,.693.28,1.937,1.937,0,0,1,.326.973,17.1,17.1,0,0,1,.09,2.037V34.2a17.1,17.1,0,0,1-.09,2.037,1.936,1.936,0,0,1-.326.973,0.854,0.854,0,0,1-.693.28h0Zm12.684-.5-1.414-7.826h-2.482l-1.413,7.784L276.6,29.159h-2.218L276.2,39.1h2.717l1.3-7.308L281.51,39.1h2.717l1.816-9.94h-2.066Z" transform="translate(-222.281 -25.688)"/>
</svg>
