<svg xmlns="http://www.w3.org/2000/svg" width="73.719" height="15.875" viewBox="0 0 73.719 15.875">
  <metadata><?xpacket begin="﻿" id="W5M0MpCehiHzreSzNTczkc9d"?>
<x:xmpmeta xmlns:x="adobe:ns:meta/" x:xmptk="Adobe XMP Core 5.6-c138 79.159824, 2016/09/14-01:09:01        ">
   <rdf:RDF xmlns:rdf="http://www.w3.org/1999/02/22-rdf-syntax-ns#">
      <rdf:Description rdf:about=""/>
   </rdf:RDF>
</x:xmpmeta>
                                                                                                    
                                                                                                    
                                                                                                    
                                                                                                    
                                                                                                    
                                                                                                    
                                                                                                    
                                                                                                    
                                                                                                    
                                                                                                    
                                                                                                    
                                                                                                    
                                                                                                    
                                                                                                    
                                                                                                    
                                                                                                    
                                                                                                    
                                                                                                    
                                                                                                    
                                                                                                    
                           
<?xpacket end="w"?></metadata>
<defs>
    <style>
      .cls-1, .cls-2 {
        fill-rule: evenodd;
      }

      .cls-2 {
        fill: #fff;
      }
    </style>
  </defs>
  <path id="Rounded_Rectangle_1" data-name="Rounded Rectangle 1" class="cls-1" d="M227.266,25.685H291a5,5,0,0,1,5,5v5.875a5,5,0,0,1-5,5H227.266a5,5,0,0,1-5-5V30.685A5,5,0,0,1,227.266,25.685Z" transform="translate(-222.281 -25.688)"/>
  <path id="SAVE_NOW" data-name="SAVE NOW" class="cls-2" d="M232.88,39.213a4.718,4.718,0,0,0,1.794-.279,1.805,1.805,0,0,0,.962-0.9,3.931,3.931,0,0,0,.3-1.677,3.308,3.308,0,0,0-.384-1.677,2.067,2.067,0,0,0-1.1-.929l-0.825-.306-0.455-.182a4.683,4.683,0,0,1-.624-0.273,0.95,0.95,0,0,1-.345-0.338,1.131,1.131,0,0,1-.136-0.6,0.735,0.735,0,0,1,.845-0.819,0.84,0.84,0,0,1,.676.234,1.149,1.149,0,0,1,.195.741v0.2h1.937v-0.2a3.494,3.494,0,0,0-.26-1.489,1.56,1.56,0,0,0-.845-0.78,4.4,4.4,0,0,0-1.625-.241,3.406,3.406,0,0,0-2.256.6,2.53,2.53,0,0,0-.682,1.989,2.991,2.991,0,0,0,.286,1.424,1.97,1.97,0,0,0,.695.773,6.857,6.857,0,0,0,1.1.507l0.494,0.2q0.507,0.2.741,0.312a1.009,1.009,0,0,1,.4.4,1.472,1.472,0,0,1,.169.761,1.177,1.177,0,0,1-.215.773,0.954,0.954,0,0,1-.76.254,0.968,0.968,0,0,1-.832-0.319,1.862,1.862,0,0,1-.234-1.072v-0.3h-1.963v0.338a4.329,4.329,0,0,0,.273,1.709,1.706,1.706,0,0,0,.91.9,4.511,4.511,0,0,0,1.768.279h0Zm10.828-.143-2.236-9.23h-2.743l-2.235,9.23h2.157l0.325-1.755h2.21l0.325,1.755h2.2Zm-3.627-7.67,0.806,4.329h-1.612Zm6.968,5.655-1.274-7.215h-2.262l2.158,9.23h2.7l2.158-9.23H248.31Zm9.541,2.015V37.445h-3.016V35.17h2.613V33.545h-2.613v-2.08h2.886V29.84h-5.018v9.23h5.148Zm9.385-3.081L263.7,29.84h-2.366v9.23h1.833V32.921l2.275,6.149h2.366V29.84h-1.833v6.149Zm6.512,3.224a4.031,4.031,0,0,0,1.97-.39,2.189,2.189,0,0,0,.968-1.365,10.659,10.659,0,0,0,.286-2.834V34.286a10.659,10.659,0,0,0-.286-2.834,2.189,2.189,0,0,0-.968-1.365,5.168,5.168,0,0,0-3.939,0,2.164,2.164,0,0,0-.962,1.365,10.93,10.93,0,0,0-.279,2.834v0.338a10.929,10.929,0,0,0,.279,2.834,2.164,2.164,0,0,0,.962,1.365,4.027,4.027,0,0,0,1.969.39h0Zm0-1.638a0.785,0.785,0,0,1-.643-0.26,1.82,1.82,0,0,1-.3-0.9,15.723,15.723,0,0,1-.085-1.9V34.39a15.725,15.725,0,0,1,.085-1.9,1.82,1.82,0,0,1,.3-0.9,0.785,0.785,0,0,1,.643-0.26,0.805,0.805,0,0,1,.65.26,1.786,1.786,0,0,1,.306.9,15.794,15.794,0,0,1,.084,1.892v0.13a15.794,15.794,0,0,1-.084,1.892,1.786,1.786,0,0,1-.306.9,0.8,0.8,0,0,1-.65.26h0Zm11.895-.468-1.326-7.267h-2.327L279.4,37.068l-0.962-7.228h-2.08l1.7,9.23h2.548l1.222-6.786,1.209,6.786h2.547l1.7-9.23h-1.936Z" transform="translate(-222.281 -25.688)"/>
</svg>
