<svg xmlns="http://www.w3.org/2000/svg" width="213.563" height="24.156" viewBox="0 0 213.563 24.156">
  <metadata><?xpacket begin="﻿" id="W5M0MpCehiHzreSzNTczkc9d"?>
<x:xmpmeta xmlns:x="adobe:ns:meta/" x:xmptk="Adobe XMP Core 5.6-c138 79.159824, 2016/09/14-01:09:01        ">
   <rdf:RDF xmlns:rdf="http://www.w3.org/1999/02/22-rdf-syntax-ns#">
      <rdf:Description rdf:about=""/>
   </rdf:RDF>
</x:xmpmeta>
                                                                                                    
                                                                                                    
                                                                                                    
                                                                                                    
                                                                                                    
                                                                                                    
                                                                                                    
                                                                                                    
                                                                                                    
                                                                                                    
                                                                                                    
                                                                                                    
                                                                                                    
                                                                                                    
                                                                                                    
                                                                                                    
                                                                                                    
                                                                                                    
                                                                                                    
                                                                                                    
                           
<?xpacket end="w"?></metadata>
<defs>
    <style>
      .cls-1 {
        fill: #fff;
        fill-rule: evenodd;
      }
    </style>
  </defs>
  <path id="HOLIDAY_CHEER" data-name="HOLIDAY CHEER" class="cls-1" d="M10.179,44V34.529h5.082V44h5.412V20.57H15.261v9.108H10.179V20.57H4.768V44h5.412Zm22.339,0.363a10.226,10.226,0,0,0,5-.99,5.555,5.555,0,0,0,2.458-3.465,27.109,27.109,0,0,0,.726-7.194V31.856a27.112,27.112,0,0,0-.726-7.194A5.555,5.555,0,0,0,37.518,21.2a10.226,10.226,0,0,0-5-.99,10.225,10.225,0,0,0-5,.99,5.5,5.5,0,0,0-2.442,3.465,27.685,27.685,0,0,0-.709,7.194v0.858a27.682,27.682,0,0,0,.709,7.194,5.5,5.5,0,0,0,2.442,3.465,10.225,10.225,0,0,0,5,.99h0Zm0-4.158a1.994,1.994,0,0,1-1.633-.66,4.625,4.625,0,0,1-.759-2.277,39.726,39.726,0,0,1-.215-4.818V32.12a39.738,39.738,0,0,1,.215-4.818,4.629,4.629,0,0,1,.759-2.277,2,2,0,0,1,1.633-.66,2.046,2.046,0,0,1,1.65.66,4.542,4.542,0,0,1,.776,2.294,39.9,39.9,0,0,1,.214,4.8v0.33a39.9,39.9,0,0,1-.214,4.8,4.54,4.54,0,0,1-.776,2.294,2.044,2.044,0,0,1-1.65.66h0ZM56.243,44V39.314h-6.4V20.57H44.43V44H56.243Zm8.282,0V20.57H59.114V44h5.412Zm4.355,0h6.963a12.219,12.219,0,0,0,5.412-.957,5.466,5.466,0,0,0,2.673-3.366,23.486,23.486,0,0,0,.792-6.963V31.856a23.488,23.488,0,0,0-.792-6.963,5.469,5.469,0,0,0-2.673-3.366,12.227,12.227,0,0,0-5.412-.957H68.88V44Zm5.412-4.257V24.794h1.287a3.573,3.573,0,0,1,2.293.61,3.41,3.41,0,0,1,1.006,2.112,29.112,29.112,0,0,1,.264,4.6v0.33a29.1,29.1,0,0,1-.264,4.6,3.329,3.329,0,0,1-1.006,2.1,3.645,3.645,0,0,1-2.293.594H74.292ZM104.617,44L98.941,20.57H91.979L86.3,44h5.478l0.825-4.455h5.61L99.04,44h5.577ZM95.41,24.53l2.046,10.989H93.364Zm19.5-3.96-3.1,9.867-3.1-9.867h-5.775l6.105,15.081V44h5.411V35.651l6.105-15.081h-5.643Zm23.2,23.793a10.564,10.564,0,0,0,4.587-.825,5.054,5.054,0,0,0,2.475-2.838,16.21,16.21,0,0,0,.791-5.709v-0.1h-5.576v0.1a16.877,16.877,0,0,1-.231,3.2,2.934,2.934,0,0,1-.71,1.568,1.885,1.885,0,0,1-1.336.445,1.815,1.815,0,0,1-1.518-.627,4.7,4.7,0,0,1-.693-2.244,43.9,43.9,0,0,1-.2-4.884V32.12a43.9,43.9,0,0,1,.2-4.884,4.708,4.708,0,0,1,.693-2.244,1.816,1.816,0,0,1,1.518-.627,1.691,1.691,0,0,1,1.617.941,8.569,8.569,0,0,1,.5,3.548v0.1H145.8v-0.1a13.938,13.938,0,0,0-.791-5.247,4.806,4.806,0,0,0-2.459-2.64,10.846,10.846,0,0,0-4.438-.759,9.763,9.763,0,0,0-4.884.99,5.5,5.5,0,0,0-2.375,3.465,28.33,28.33,0,0,0-.693,7.194v0.858a28.327,28.327,0,0,0,.693,7.194,5.5,5.5,0,0,0,2.375,3.465,9.763,9.763,0,0,0,4.884.99h0ZM154.9,44V34.529h5.082V44H165.4V20.57h-5.412v9.108H154.9V20.57h-5.411V44H154.9Zm27.916,0V39.875h-7.655V34.1H181.8V29.975h-6.632V24.7h7.325V20.57H169.753V44H182.82Zm16.4,0V39.875h-7.655V34.1H198.2V29.975h-6.633V24.7h7.325V20.57H186.152V44h13.067Zm19.139,0-3.432-9.438A4.336,4.336,0,0,0,217.2,32.4a9.354,9.354,0,0,0,.693-3.943V27.6a9.254,9.254,0,0,0-.809-4.306,4.453,4.453,0,0,0-2.689-2.112,18.16,18.16,0,0,0-5.346-.61h-6.5V44h5.411V35.453h2.112L212.616,44h5.742Zm-9.405-12.771h-0.99V24.794h0.99a6.632,6.632,0,0,1,2.145.264,1.6,1.6,0,0,1,.99.907,5.239,5.239,0,0,1,.264,1.9v0.33a4.644,4.644,0,0,1-.28,1.8,1.774,1.774,0,0,1-1.007.941,5.821,5.821,0,0,1-2.112.3h0Z" transform="translate(-4.781 -20.219)"/>
</svg>
